<?xml version="1.0" encoding="utf-8"?>
<!-- Generator: Adobe Illustrator 16.0.0, SVG Export Plug-In . SVG Version: 6.00 Build 0)  -->
<!DOCTYPE svg PUBLIC "-//W3C//DTD SVG 1.1//EN" "http://www.w3.org/Graphics/SVG/1.1/DTD/svg11.dtd">
<svg version="1.1" id="Layer_1" xmlns="http://www.w3.org/2000/svg" xmlns:xlink="http://www.w3.org/1999/xlink" x="0px" y="0px"
	 width="120px" height="250px" viewBox="0 0 120 250" enable-background="new 0 0 120 250" xml:space="preserve">
<g id="Layer_2">
	<path fill="#3586A8" d="M93.7,59.4c0,0-0.1,0-0.2,0c-3.1-0.4-5.8-0.7-8-0.9c-1.1-0.1-2.1-0.3-3-0.4c-0.2,0-0.4,0-0.6,0
		c-1.5-0.2-2.7-0.3-3.6-0.4c-0.5-0.6-1-1.1-1.4-1.6c-0.4-0.5-1.2-1.6-2.3-3.4c-1.1-1.8-2.3-3.4-3.4-4.9C70,46.3,69,44.9,68,43.7
		c-0.2-0.2-0.3-0.4-0.4-0.6c-2.2-4-3.5-6.2-3.8-6.5c-1.4-1.7-2.2-2.8-2.4-3.1c-0.1-0.1-0.1-0.2-0.2-0.3l-5.1-7.9
		c-0.1-0.2-0.3-0.4-0.4-0.6l0,0c-0.1-0.2-0.2-0.3-0.3-0.4c0-0.1-0.1-0.1-0.1-0.2c-0.1-0.1-0.1-0.2-0.2-0.3c0-0.1-0.1-0.1-0.1-0.2
		c-0.1-0.1-0.1-0.2-0.2-0.3c0-0.1-0.1-0.1-0.1-0.2s-0.1-0.1-0.1-0.2s-0.1-0.1-0.1-0.2c0-0.1-0.1-0.1-0.1-0.2l0,0l0,0c0,0,0,0,0-0.1
		c0,0,0,0-0.1,0c0,0,0-0.1-0.1-0.1c-0.1-0.1-0.1-0.1-0.1-0.2c-0.3-0.3-0.4-0.4-0.5-0.2l0,0c0,0,0,0-0.1,0c-0.2-0.1-0.5-0.2-0.7-0.2
		l-8.6-4.2c-1.1-0.7-2.1-1.2-2.8-1.7l-0.1-0.1c-0.1-0.1-0.2-0.2-0.3-0.2c-0.1-0.1-0.2-0.1-0.2-0.2c-0.1-0.1-0.1-0.1-0.2-0.2
		s-0.2-0.1-0.2-0.2l-0.1-0.1c-0.1-0.1-0.2-0.2-0.2-0.3c-1-0.3-1.9-0.5-2.6-0.4c-1,0.1-1.7,0.6-2.2,1.5c-0.9,1.2-1.3,2.5-1.3,4
		c0,1.4,0.3,2.9,0.9,4.5c0.6,1.5,1.5,3,2.6,4.5c1.1,1.4,3.6,3,7.5,4.9l0.7,3.3c-13.9-0.4-22.1-0.4-24.6,0.2c-0.3,0-0.5,0.1-0.6,0.1
		c-1.3,0.7-2.5,1.4-3.6,2c-4.2,2.6-6.3,4.9-6.3,6.9c0,0.6,0,0.9,0,1.1c0.1,0.5,0.3,0.9,0.6,1.2c0,0,0,0.1,0.1,0.1
		c0.1,0.1,0.2,0.2,0.2,0.2c0.2,0.2,0.3,0.4,0.4,0.5c0.2,0.2,0.3,0.3,0.3,0.4c1,0.8,2.7,1.6,5.1,2.4c-1.1,0.9-1.9,1.7-2.4,2.3
		c-0.4,0.5-0.6,0.9-0.8,1.3C14,55.7,14,56.2,14,56.9c0,0.2,0,0.4,0,0.6c0,0.3,0,0.6,0,1c0,2.1,0.5,3.6,1.6,4.3
		c0.4,0.3,1.3,0.6,2.8,1c-0.8,0.9-1.5,1.7-2,2.3c-0.2,0.3-0.3,0.5-0.4,0.7c-0.2,0.3-0.3,0.6-0.4,0.9c0,0.1,0,0.1,0,0.3
		c-0.2,0.4-0.3,1-0.3,1.5c0,0.1,0,0.2,0,0.4c0,1.2,0.1,2.2,0.4,2.9c0.1,0.2,0.2,0.4,0.3,0.6c0.3,0.5,0.6,0.9,1.1,1.1
		c0.1,0.1,0.3,0.1,0.4,0.2c0.1,0,0.2,0.1,0.3,0.1c0.1,0,0.2,0.1,0.2,0.1c0.1,0,0.3,0.1,0.4,0.1s0.1,0,0.2,0c0.2,0,0.4,0.1,0.6,0.1
		l0,0l0.1,0.9l0,0c-0.1,0.2-0.2,0.3-0.3,0.5c-0.2,0.2-0.3,0.5-0.4,0.8c-0.8,1.3-1.1,2.8-1.1,4.4c0,0.1,0,0.2,0,0.3s0,0.1,0.1,0.2
		c0.1,1.2,0.8,2.4,2.1,3.4c0.1,0.1,0.2,0.1,0.4,0.3c0.7,0.5,1.8,1,3.3,1.6c0.3,0.1,0.6,0.2,1,0.4c0.6,0.2,1.3,0.5,2,0.7
		c3.3,1.7,5.6,2.5,7,2.5c0.2,0,0.8-0.1,1.8-0.3c1.1-0.2,1.7-0.3,1.9-0.3c1.6,0,3.9,0.2,6.8,0.6s5.2,0.6,6.9,0.6
		c1.3,0,4.5-0.3,9.6-0.8c0.2-0.1,1.6-0.5,4.2-1.2l0,0c2.6-0.7,4-1.1,4.3-1.2c0.3-0.1,1.9,0.1,4.7,0.5c1.9,0.2,5,0.6,9.3,1.1
		c0.9,0.1,1.9,0.3,3,0.4c1.3,0.1,2.7,0.3,4.2,0.5c1.3,1,2.6,1.4,3.8,1.1c0.6-0.1,1.2-0.4,1.8-0.8c-0.3-0.7-0.6-1.5-1.1-2.4
		c-0.3-1.4-0.6-2.9-0.7-4.4c-0.1-0.5-0.1-1-0.1-1.5c-0.2-3-0.2-6,0.1-9.1c0.3-3.2,0.9-6.5,1.8-9.9c0.1-0.7,0.3-1.3,0.5-1.9
		c0.6-1.3,1.5-2.2,2.9-2.6C96.4,58.3,94.7,58.3,93.7,59.4z"/>
	<path fill="#DEA47E" d="M110.5,81.3c0-0.1,0-0.2,0-0.3c0.2-7-0.2-14-1.2-21c-3.3-0.2-5.8-0.3-7.5-0.4c-2-0.1-3-0.2-3.1-0.2
		c-1.3,0.4-2.3,1.3-2.9,2.6c-0.2,0.6-0.3,1.3-0.5,1.9c-0.9,3.4-1.5,6.6-1.8,9.9c-0.3,3.1-0.4,6.2-0.1,9.1c0,0.5,0.1,1,0.1,1.5
		c0.1,1.5,0.4,2.9,0.7,4.4c0.5,0.9,0.8,1.7,1.1,2.4l14.1,2.3C110.4,89.8,110.8,85.8,110.5,81.3z"/>
</g>
<g id="Layer_1_1_">
	<g>
		<g opacity="0.3">
			<path fill="#FFFF00" fill-opacity="0.7333" d="M16.8,128.4v-1.5h20v1.5c-0.3,1.2-1.6,2.4-4,3.4c-2.5,1.1-3.9,2.2-4.1,3.1v99.4
				l-1.3,5.5c-0.8,0.2-1.4,0.2-1.9,0l-1.6-5.6l0,0v-99.4v-0.5c-0.2-0.8-1.2-1.6-2.8-2.4C18.6,131.1,17.2,129.9,16.8,128.4
				L16.8,128.4z"/>
		</g>
		<g>
			<path fill="#DEA47E" d="M95.3,63.9c0.1-0.7,0.3-1.3,0.5-1.9c0.6-1.3,1.5-2.2,2.9-2.6c0.1,0,1.1,0.1,3.1,0.2
				c1.8,0.1,4.3,0.2,7.5,0.4c1,7,1.4,14,1.2,21c-0.6,0.1-0.9,0.1-1,0.1c-2.8-0.1-4.9-0.2-6.3-0.3c-0.5-0.1-1-0.1-1.5-0.2
				c-1.7-0.3-3-0.8-3.9-1.4c-1.5-1-2.3-2.8-2.3-5.2c0.3-3.4,0.5-5.3,0.5-5.7c0-1-0.1-2-0.3-3C95.7,64.7,95.5,64.2,95.3,63.9z
				 M107.1,64.3c0.1-0.6-0.5-1.1-1.9-1.5c-0.3-0.1-0.6-0.2-0.9-0.2c-1,0-1.8,0-2.5,0c-1,0-1.7,0.1-2.2,0.1c0,0.1,0,0.1-0.1,0.2
				c0,0.1,0,0.2,0,0.4c0,0.3,0.7,0.6,2.1,0.7c0.1,0,0.2,0,0.3,0c0.8,0.1,1.9,0.2,3.4,0.3H107.1z"/>
			<path fill="#E4B789" d="M107.1,64.3h-1.9c-1.5-0.1-2.6-0.2-3.4-0.3c-0.1,0-0.2,0-0.3,0c-1.4-0.1-2.1-0.4-2.1-0.7
				c0-0.1,0-0.3,0-0.4c0.1-0.1,0.1-0.1,0.1-0.2c0.5,0,1.2,0,2.2-0.1c0.7,0,1.6,0,2.5,0c0.3,0,0.6,0.1,0.9,0.2
				C106.6,63.2,107.2,63.7,107.1,64.3z"/>
			<path fill="#6AB3D0" d="M22,84.7c0.1,0.1,0.3,0.2,0.5,0.3c0.3,0.1,0.5,0.3,0.6,0.4s0.1,0.2,0.3,0.3c-0.6,0.5-0.7,0.9-0.4,1.3
				c-1.5-0.6-2.6-1.1-3.3-1.6L22,84.7z M50.5,37l0.5,1.4l1.8,0.5c1.1,0,2.2,0.2,3.3,0.5c0.3,0.1,0.7,0.1,1.3,0s1.7,0,3.3,0.5
				c1.6,0.4,3.5,0.7,5.8,0.9c0.1,0.6,0.7,1.5,1.7,2.9c0.9,1.3,2,2.7,3.2,4.1c1.1,1.4,2.3,3,3.4,4.9c1.1,1.8,1.9,2.9,2.3,3.4
				c0.4,0.5,0.9,1,1.4,1.6c0.9,0.1,2.1,0.2,3.6,0.4c0.2,0,0.5,0,0.6,0c0.9,0.1,1.9,0.3,3,0.4c2.2,0.3,4.9,0.6,8,0.9
				c0.1,0,0.1,0,0.2,0c1-1.1,2.7-1.1,5,0c-1.3,0.4-2.3,1.3-2.9,2.6c-0.2,0.6-0.3,1.3-0.5,1.9c-0.9,3.4-1.5,6.6-1.8,9.9
				c-0.3,3.1-0.4,6.2-0.1,9.1c-2.4-0.1-5-0.4-7.9-0.6c-1-0.1-2-0.3-3-0.4c-0.7-0.1-1.3-0.1-1.9-0.3c-0.8-0.1-1.8-0.3-3-0.6
				s-1.7-0.4-1.6-0.4c-1.6-0.2-2.4-0.4-2.5-0.6c-0.7,0.2-1-2.4-0.9-7.7c0.9-3.1,1.4-4.9,1.6-5.5c0.4-1.4,0.6-2.2,0.6-2.5
				c0-0.1,0-0.2,0-0.4c0-0.2-0.1-0.3-0.2-0.4c-0.1-0.1-0.3-0.2-0.6-0.2c-1.1,0-2,1.8-2.7,5.3c-0.4,2.1-0.6,3.8-0.7,5.3
				c-0.9,2-1.4,3.8-1.4,5.4c0,1.2-0.1,2.2-0.3,2.9c-0.3,0.7-0.7,1.1-1.2,1.4c-0.4,0.2-1.4,0.6-3,1.3c-0.4,0.1-0.8,0.3-1.1,0.4l0,0
				c-0.3,0.1-0.5,0.2-0.8,0.3c-0.2,0-0.3,0-0.4,0c-3.2,0.9-7.1,1.4-11.7,1.7c-4.7,0.3-7.5-0.9-8.5-3.5c-0.5-1.2-0.3-2.1,0.5-2.9
				c1.1-1,1.5-2.3,1.3-3.8c-1-1.2-1.6-2.7-2-4.5c1.5-2.1,2.3-3.6,2.4-4.5c0.7-3.1,2.3-3.1,4.8,0.3c0.2,1.1,0.8,2.2,2,3.1
				c2.5,2.1,4.5,2.9,5.9,2.6c1.4-0.3,2.2-0.5,2.5-0.8c0.3-0.3,0.5-0.6,0.8-0.8c0.2-0.2,0.7-0.6,1.5-1c0.7-0.3,1-0.6,1-1
				c0-0.3-0.7-1-2-2.1c-1.9-1.5-3.4-2.8-4.3-3.9c-3.9-4.2-6-9.1-6.2-14.6c0-0.3,0-0.5,0-0.8c0-2,0.2-3.9,0.5-5.6
				c0.3-1.3,0.6-2.2,1-2.8C51.5,39.8,51,38.6,50.5,37z M45.5,36.8c0.3,0.4,0.2,1-0.3,1.8c-0.5,0.7-0.9,1.2-1.2,1.4s-0.7,0.4-1.2,0.4
				c-0.2,0-0.8-0.2-1.9-0.5c-1.2-0.4-2.6-0.6-4.1-0.6s-3.3-0.2-5.4-0.4c-1.9-0.2-3.7-0.3-5.5-0.3c-0.6,0-1.3,0.1-2,0.1
				c-0.7,0.1-1.5,0.3-2.3,0.5c-0.3,0.1-0.6,0.2-1,0.3c-0.1,0-0.1,0-0.2,0c-0.3,0.1-0.6,0.3-0.8,0.4c-0.2,0.1-0.4,0.3-0.5,0.5
				L16.6,39c1.1-0.6,2.3-1.3,3.6-2c0.1-0.1,0.4-0.1,0.6-0.1C23.4,36.4,31.6,36.3,45.5,36.8z M89,65L89,65c0-0.1,0-0.1,0.1-0.1
				c-0.3-0.6-1.5-0.7-3.5-0.4c-0.3,0-0.6,0.1-1,0.2c0.4,0.1,0.7,0.2,1,0.3c0.7,0.2,1,0.3,1.1,0.3C87.4,65.3,88.2,65.2,89,65z
				 M81.6,63.6c-2-0.5-3.2-0.4-3.6,0.4c1.8,0,3.4,0.1,4.6,0.3c0.5,0.1,0.9,0.1,1.3,0.3c-0.1-0.6-0.4-0.9-0.9-0.9c-0.2,0-0.3,0-0.4,0
				C82.1,63.6,81.7,63.6,81.6,63.6z M75,64c0.4-0.8,0.7-1.5,0.9-2C75.6,62.5,75.3,63.2,75,64z M59.4,44.3c-0.2,0-0.4,0.1-0.6,0.2
				c0.1,0.1,0.1,0.3,0.2,0.4c0,1.9,0.2,3.6,0.7,5.1c0.4,1.3,0.8,2.6,1.1,3.8c0.2,0.5,0.4,0.9,0.6,1.4c0.6,1.4,1.2,2.6,1.8,3.5
				c0.5,0.7,1,1.3,1.5,1.7H65c0-0.5-0.1-1.2-0.4-1.9c-0.1-0.3-0.2-0.6-0.3-0.8c-0.2-0.4-0.4-0.8-0.5-1.1c-0.4-0.9-0.8-1.6-1-2.2
				c-0.1-0.3-0.2-0.7-0.4-1.1c-0.5-1.8-1.4-4.8-2.7-8.9C59.5,44.3,59.4,44.3,59.4,44.3z M76.8,57.3c-0.3,0,0.2,0.1,1.5,0.3
				C77,57.4,76.5,57.3,76.8,57.3z M75.1,67.2c-0.1,0.8-0.2,1.9-0.3,3.4v2.6c0.4-1.1,0.8-2.2,1-3.4c0.2-0.8,0.3-1.5,0.3-2
				c0-0.3-0.1-0.5-0.4-0.6C75.6,67.2,75.4,67.2,75.1,67.2z M62.8,75.7c0,1.9,0,3,0,3.1c-0.1,0.4-0.2,0.8-0.2,1.2
				c-0.1,0.5-0.2,0.8-0.3,0.9v1c0.4-0.2,1-1,1.9-2.4c0-0.2,0-0.4-0.1-0.8c-0.1-0.4-0.1-1,0.1-1.8C64.5,76,64,75.6,62.8,75.7z"/>
			<path fill="#9FE8F9" d="M81.6,63.6c0.1,0,0.5,0,1,0c0.1,0,0.2,0,0.4,0c0.5,0,0.8,0.3,0.9,0.9c-0.4-0.1-0.8-0.2-1.3-0.3
				C81.3,64,79.8,64,78,64C78.4,63.3,79.6,63.1,81.6,63.6z M89,65c-0.8,0.2-1.6,0.3-2.3,0.3c-0.1,0-0.4-0.1-1.1-0.3
				c-0.2-0.1-0.5-0.2-1-0.3c0.4-0.1,0.7-0.1,1-0.2c2.1-0.3,3.3-0.2,3.5,0.4C89,64.9,89,64.9,89,65L89,65z M59.4,44.3
				c0.1,0,0.2,0,0.3,0c1.3,4.1,2.2,7.1,2.7,8.9c0.1,0.5,0.3,0.9,0.4,1.1c0.3,0.6,0.6,1.3,1,2.2c0.2,0.3,0.3,0.7,0.5,1.1
				c0.1,0.2,0.2,0.4,0.3,0.8c0.3,0.8,0.4,1.4,0.4,1.9h-0.2c-0.6-0.4-1.1-1-1.5-1.7c-0.6-0.9-1.3-2-1.8-3.5c-0.2-0.5-0.4-0.9-0.6-1.4
				c-0.4-1.2-0.8-2.5-1.1-3.8c-0.5-1.5-0.7-3.2-0.7-5.1c-0.1-0.1-0.1-0.3-0.2-0.4C59,44.4,59.1,44.3,59.4,44.3z M62.8,75.7
				c1.2-0.1,1.7,0.3,1.5,1.1c-0.2,0.8-0.2,1.4-0.1,1.8c0.1,0.4,0.1,0.6,0.1,0.8c-0.9,1.4-1.5,2.2-1.9,2.4v-1
				c0.1-0.1,0.1-0.4,0.3-0.9c0-0.3,0.1-0.7,0.2-1.2C62.8,78.7,62.8,77.6,62.8,75.7z"/>
			<path fill="#D28D60" d="M95.3,63.9c0.2,0.3,0.3,0.8,0.4,1.5c0.2,0.9,0.3,1.9,0.3,3c0,0.4-0.2,2.3-0.5,5.7c0,2.4,0.8,4.1,2.3,5.2
				c0.9,0.6,2.2,1.1,3.9,1.4c0.5,0.1,1,0.1,1.5,0.2c1.4,0.1,3.5,0.2,6.3,0.3c0.1,0,0.4-0.1,1-0.1c0,0.1,0,0.2,0,0.3
				c0.2,4.5-0.1,8.5-1.1,12.1l-14.1-2.3c-0.3-0.7-0.6-1.5-1.1-2.4c-0.3-1.4-0.6-2.9-0.7-4.4c-0.1-0.5-0.1-1-0.1-1.5
				c-0.2-3-0.2-6,0.1-9.1C93.9,70.5,94.5,67.3,95.3,63.9z"/>
			<path fill="#3586A8" d="M23,87c-0.4-0.4-0.3-0.9,0.4-1.3c-0.1-0.1-0.2-0.2-0.3-0.3c-0.2-0.1-0.4-0.3-0.6-0.4s-0.4-0.2-0.5-0.3
				l0.5-0.2h1.2l-2.4-40.8c-0.9-1.5-1.4-2.4-1.6-2.7c-0.2-0.3-0.4-0.5-0.5-0.6c-0.1-0.1-0.1-0.2,0-0.2c0.1-0.2,0.3-0.4,0.5-0.5
				c0.2-0.1,0.5-0.2,0.8-0.4c0.1,0,0.1,0,0.2,0c0.3-0.1,0.6-0.2,1-0.3c0.8-0.2,1.6-0.4,2.3-0.5s1.4-0.1,2-0.1c1.8,0,3.6,0.1,5.5,0.3
				c2.1,0.2,3.9,0.4,5.4,0.4s2.9,0.2,4.1,0.6c1.1,0.4,1.8,0.5,1.9,0.5c0.5,0,0.9-0.1,1.2-0.4c0.3-0.2,0.7-0.7,1.2-1.4
				c0.4-0.7,0.5-1.3,0.3-1.8c0.3,0,0.5,0,0.7,0c0.1,0,0.2,0,0.3,0c-0.1-0.2-0.5-1.4-1.2-3.5c1.6-1.2,3.1-0.5,4.3,2.1
				c0.5,1,0.8,1.8,1,2.3L50.5,37c0.5,1.6,1,2.8,1.5,3.8c-0.3,0.6-0.6,1.5-1,2.8c-0.4,1.8-0.5,3.7-0.5,5.6c0,0.3,0,0.5,0,0.8
				c0.2,5.5,2.3,10.4,6.2,14.6c0.9,1,2.4,2.3,4.3,3.9c1.3,1.1,2,1.8,2,2.1c0,0.4-0.3,0.7-1,1c-0.8,0.4-1.3,0.7-1.5,1
				c-0.2,0.3-0.5,0.5-0.8,0.8c-0.2,0.3-1.1,0.5-2.5,0.8c-1.4,0.3-3.4-0.6-5.9-2.6c-1.1-0.9-1.8-2-2-3.1c-2.4-3.3-4-3.4-4.8-0.3
				c-0.1,1-0.9,2.5-2.4,4.5c0.3,1.8,1,3.3,2,4.5c0.2,1.5-0.2,2.8-1.3,3.8c-0.8,0.7-1,1.6-0.5,2.9c1,2.6,3.8,3.8,8.5,3.5
				c4.7-0.3,8.6-0.8,11.7-1.7c0.1,0,0.2,0,0.4,0c0.3-0.1,0.6-0.2,0.8-0.3l0,0c0.3-0.1,0.7-0.3,1.1-0.4c1.6-0.6,2.6-1,3-1.3
				c0.5-0.3,0.9-0.8,1.2-1.4c0.2-0.7,0.3-1.7,0.3-2.9c0-1.6,0.5-3.4,1.4-5.4c0.1-1.4,0.3-3.2,0.7-5.3c0.7-3.5,1.6-5.3,2.7-5.3
				c0.3,0,0.5,0.1,0.6,0.2c0.1,0.1,0.2,0.2,0.2,0.4c-0.6,1.4-1.5,3.1-2.6,5.1c-0.5,0.9-0.9,2.1-1,3.5c-0.1,0.6-0.1,1.3-0.1,2.1
				c0,0.4,0.2,2.5,0.5,6.2c0,0.3,0,0.6-0.2,1c-0.1,0.5-0.3,0.9-0.6,1.2c0.3-0.3,0.5-0.7,0.6-1.2c0.1-0.4,0.2-0.7,0.2-1
				c-0.3-3.7-0.5-5.8-0.5-6.2c0-0.8,0-1.5,0.1-2.1c0.1-1.4,0.5-2.6,1-3.5c1.1-2,2-3.7,2.6-5.1c0,0.1,0,0.3,0,0.4
				c0,0.3-0.2,1.1-0.6,2.5c-0.2,0.6-0.7,2.4-1.6,5.5c-0.1,5.3,0.2,7.9,0.9,7.7c0.1,0.2,0.9,0.4,2.5,0.6c-0.1,0,0.5,0.1,1.6,0.4
				c1.2,0.3,2.2,0.5,2.9,0.6c0.6,0.1,1.3,0.2,1.9,0.3c1,0.1,2,0.3,3,0.4c2.8,0.3,5.5,0.5,7.9,0.6c0,0.5,0.1,1,0.1,1.5
				c0.1,1.5,0.4,2.9,0.7,4.4c0.5,0.9,0.8,1.7,1.1,2.4c-0.6,0.4-1.2,0.7-1.8,0.8c-1.2,0.2-2.5-0.2-3.8-1.1c-1.5-0.2-2.9-0.3-4.2-0.5
				c-1.1-0.1-2-0.3-3-0.4c-4.3-0.5-7.4-0.9-9.3-1.1c-2.8-0.4-4.4-0.6-4.7-0.5s-1.8,0.5-4.3,1.2l0,0c-2.6,0.7-4,1.1-4.2,1.2
				c-5.1,0.5-8.3,0.8-9.6,0.8c-1.7,0-4-0.2-6.9-0.6s-5.2-0.6-6.8-0.6c-0.2,0-0.8,0.1-1.9,0.3c-1,0.2-1.6,0.3-1.8,0.3
				c-1.4,0-3.8-0.8-7-2.5c-0.7-0.2-1.4-0.5-2-0.7C23.6,87.3,23.3,87.1,23,87z M46.5,36.8c0.4,1.3,0.6,2.6,0.9,4
				C47.1,39.4,46.9,38.1,46.5,36.8z M26,88.1c0.6,0.2,1.2,0.4,1.8,0.6C27.1,88.5,26.5,88.3,26,88.1z M75.1,67.2c0.3,0,0.5,0,0.6,0
				c0.3,0.1,0.4,0.3,0.4,0.6c0,0.5-0.1,1.2-0.3,2c-0.3,1.2-0.6,2.3-1,3.4v-2.6C74.9,69.1,75,68,75.1,67.2z M51,68.5
				c1.8,2.3,3.7,3.8,5.7,4.6C54.6,72.3,52.8,70.8,51,68.5z M46.1,45.4c-0.6,1.6-0.9,4.4-1,8.4c0,4,1.3,7.8,4.1,11.4
				c2.7,3.5,5.9,5.1,9.6,4.8c-3.7,0.3-6.9-1.3-9.6-4.8c-2.7-3.6-4.1-7.4-4.1-11.4C45.2,49.8,45.5,47,46.1,45.4z M74.2,81.4
				c-0.3,0.4-0.5,0.9-0.7,1.5c-0.1,0.3-0.2,0.8-0.3,1.4c0.2-0.6,0.3-1.1,0.3-1.4C73.7,82.3,73.9,81.8,74.2,81.4z"/>
			
				<path fill="none" stroke="#B16634" stroke-width="0.75" stroke-linecap="round" stroke-linejoin="round" stroke-miterlimit="3" d="
				M98.7,59.4c0.1,0,1.1,0.1,3.1,0.2c1.8,0.1,4.3,0.2,7.5,0.4c1,7,1.4,14,1.2,21c0,0.1,0,0.2,0,0.3c0.2,4.5-0.1,8.5-1.1,12.1
				l-14.1-2.3"/>
			
				<path fill="none" stroke="#0F5768" stroke-width="0.75" stroke-linecap="round" stroke-linejoin="round" stroke-miterlimit="3" d="
				M95.3,91.1c-0.6,0.4-1.2,0.7-1.8,0.8c-1.2,0.2-2.5-0.2-3.8-1.1c-1.5-0.2-2.9-0.3-4.2-0.5c-1.1-0.1-2-0.3-3-0.4
				c-4.3-0.5-7.4-0.9-9.3-1.1c-2.8-0.4-4.4-0.6-4.7-0.5c-0.3,0.1-1.8,0.5-4.3,1.2l0,0c-2.6,0.7-4,1.1-4.2,1.2
				c-5.1,0.5-8.3,0.8-9.6,0.8c-1.7,0-4-0.2-6.9-0.6s-5.2-0.6-6.8-0.6c-0.2,0-0.8,0.1-1.9,0.3c-1,0.2-1.6,0.3-1.8,0.3
				c-1.4,0-3.8-0.8-7-2.5c-0.7-0.2-1.4-0.5-2-0.7c-0.3-0.2-0.7-0.3-1-0.4c-1.5-0.6-2.6-1.1-3.3-1.6 M16.6,39c1.1-0.6,2.3-1.3,3.6-2
				c0.1-0.1,0.4-0.1,0.6-0.1c2.5-0.5,10.7-0.6,24.6-0.1c0.3,0,0.5,0,0.7,0c0.1,0,0.2,0,0.3,0c-0.1-0.2-0.5-1.4-1.2-3.5 M66.4,40.8
				c0.1,0.6,0.7,1.5,1.7,2.9c0.9,1.3,2,2.7,3.2,4.1c1.1,1.4,2.3,3,3.4,4.9c1.1,1.8,1.9,2.9,2.3,3.4s0.9,1,1.4,1.6
				c0.9,0.1,2.1,0.2,3.6,0.4c0.2,0,0.5,0,0.6,0c0.9,0.1,1.9,0.3,3,0.4c2.2,0.3,4.9,0.6,8,0.9c0.1,0,0.1,0,0.2,0c1-1.1,2.7-1.1,5,0
				c-1.3,0.4-2.3,1.3-2.9,2.6c-0.2,0.6-0.3,1.3-0.5,1.9c-0.9,3.4-1.5,6.6-1.8,9.9c-0.3,3.1-0.4,6.2-0.1,9.1c0,0.5,0.1,1,0.1,1.5
				c0.1,1.5,0.4,2.9,0.7,4.4c0.5,0.9,0.8,1.7,1.1,2.4 M75,64c-0.6,1.4-1.5,3.1-2.6,5.1c-0.5,0.9-0.9,2.1-1,3.5
				c-0.1,0.6-0.1,1.3-0.1,2.1c0,0.4,0.2,2.5,0.5,6.2c0,0.3,0,0.6-0.2,1c-0.1,0.5-0.3,0.9-0.6,1.2 M75,64c0.4-0.8,0.7-1.5,0.9-2
				 M46.5,36.8c0.4,1.3,0.6,2.6,0.9,4 M26,88.1c0.6,0.2,1.2,0.4,1.8,0.6 M76.8,57.3c-0.3,0,0.2,0.1,1.5,0.3 M51,68.5
				c1.8,2.3,3.7,3.8,5.7,4.6 M46.1,45.4c-0.6,1.6-0.9,4.4-1,8.4c0,4,1.3,7.8,4.1,11.4c2.7,3.5,5.9,5.1,9.6,4.8 M74.2,81.4
				c-0.3,0.4-0.5,0.9-0.7,1.5c-0.1,0.3-0.2,0.8-0.3,1.4"/>
		</g>
		<g>
			<rect x="24.7" y="94.3" fill="#FFFFFF" width="5.6" height="0.7"/>
		</g>
		<g>
			<path fill="#6AB3D0" d="M54.1,22c0.3,0.4,1.1,1.7,2.5,4s2.5,4,3.3,5.2c0.8,1.2,1.3,1.9,1.5,2.3c0.2,0.3,1,1.4,2.4,3.1
				c0.3,0.3,1.7,2.6,4.1,7.1c-2.6-1.2-4.7-1.7-6.3-1.6v-0.5c-2.3-1.1-4-1.1-5.3,0v2.9c-1.9,1.1-3.9,2.5-6.1,4c0.5-2,0.9-3.5,1.1-4.4
				c0.2-1.2,0.5-2.1,0.9-2.6c-1.5-2.8-2.4-5.3-2.8-7.5c-0.2-1.3-0.4-2.1-0.4-2.4c-0.2-0.9-0.7-1.7-1.3-2.6c-0.1-2.5,1-3.9,3.3-4.3
				l0.1-0.5c0.7-0.4,1.3-0.9,1.6-1.4c0.3-0.4,0.5-0.7,0.6-0.9C53.6,21.6,53.8,21.7,54.1,22z"/>
			<path fill="#3586A8" d="M47.9,28.9c0.6,0.9,1.1,1.7,1.3,2.6c0.1,0.2,0.2,1,0.4,2.4c0.4,2.2,1.3,4.7,2.8,7.5
				c-0.4,0.5-0.7,1.4-0.9,2.6c-0.2,0.9-0.6,2.4-1.1,4.4c0-0.8-0.2-1.1-0.6-0.9c-2.1-0.5-3.1-2.3-3-5.5v0.4c0-3.3,0-5,0.1-5
				c-0.1-0.2-0.2-0.5-0.3-0.7c-0.3-1.1-0.8-2.1-1.3-3.1l-0.7-0.8c-0.5-2.7-0.2-3.8,0.9-3c1.2-0.2,1.9-0.5,2.1-0.8
				C47.8,29,47.8,28.9,47.9,28.9z M46.9,37.4c0.4,1.3,0.6,2.6,0.9,3.9C47.5,40,47.3,38.7,46.9,37.4z"/>
			
				<path fill="none" stroke="#0F5768" stroke-width="0.75" stroke-linecap="round" stroke-linejoin="round" stroke-miterlimit="3" d="
				M68,43.6c-2.4-4.4-3.8-6.8-4.1-7.1c-1.4-1.7-2.2-2.8-2.4-3.1c-0.3-0.3-0.8-1.1-1.5-2.3c-0.9-1.1-2-2.8-3.4-5.1s-2.3-3.6-2.5-4
				 M46.8,42.4c0-3.3,0-5,0.1-5c-0.1-0.2-0.2-0.5-0.3-0.7c-0.3-1.1-0.8-2.1-1.3-3.1l-0.7-0.8 M46.9,37.4c0.4,1.3,0.6,2.6,0.9,3.9"/>
		</g>
		<g>
			<g>
				
					<linearGradient id="SVGID_1_" gradientUnits="userSpaceOnUse" x1="316.7061" y1="517.0176" x2="318.3306" y2="517.0176" gradientTransform="matrix(6.153845e-004 1 1 1.000001e-003 -485.0136 -277.1844)">
					<stop  offset="0" style="stop-color:#F3423E"/>
					<stop  offset="0.2118" style="stop-color:#E96764"/>
					<stop  offset="0.5176" style="stop-color:#BD0C09"/>
					<stop  offset="1" style="stop-color:#700604"/>
				</linearGradient>
				<path fill="url(#SVGID_1_)" d="M29.5,40h4.3c0.3,0,0.5,0.1,0.8,0.3c0.2,0.1,0.3,0.3,0.3,0.6c0,0.2-0.1,0.4-0.3,0.5
					c-0.2,0.2-0.5,0.3-0.8,0.3h-4.3V40z"/>
			</g>
			<g>
				
					<linearGradient id="SVGID_2_" gradientUnits="userSpaceOnUse" x1="302.9785" y1="518.6348" x2="314.8535" y2="518.6348" gradientTransform="matrix(8.421054e-005 1 1 1.000000e-003 -485.0106 -277.1844)">
					<stop  offset="0" style="stop-color:#F3423E"/>
					<stop  offset="0.2118" style="stop-color:#E96764"/>
					<stop  offset="0.5176" style="stop-color:#BD0C09"/>
					<stop  offset="1" style="stop-color:#700604"/>
				</linearGradient>
				<path fill="url(#SVGID_2_)" d="M34.5,38.1h-0.1h-2.8V25.4h2.8c0.4,0,0.7,0.6,0.9,1.9c0.2,1.2,0.4,2.7,0.4,4.5c0,1.1,0,2.1-0.1,3
					c0,0.5-0.1,1-0.2,1.5c-0.1,0.3-0.2,0.6-0.3,0.9C34.9,37.7,34.7,38,34.5,38.1z"/>
				
					<path fill="none" stroke="#FFFFFF" stroke-width="0.75" stroke-linecap="round" stroke-linejoin="round" stroke-miterlimit="3" stroke-opacity="0.1059" d="
					M34.5,38.1c0.2-0.1,0.4-0.4,0.5-1c0.1-0.2,0.2-0.5,0.3-0.9c0.1-0.5,0.2-1,0.2-1.5c0.1-0.9,0.1-1.9,0.1-3c0-1.8-0.1-3.3-0.4-4.5
					c-0.3-1.3-0.6-1.9-0.9-1.9h-2.8 M31.5,38.1h2.8"/>
			</g>
			<g>
				<g>
					<g>
						
							<radialGradient id="SVGID_3_" cx="283.5098" cy="-155.4609" r="4.3625" gradientTransform="matrix(1 0 0 -0.7221 -251.0098 -93.2075)" gradientUnits="userSpaceOnUse">
							<stop  offset="0" style="stop-color:#B7B7B7"/>
							<stop  offset="8.235294e-002" style="stop-color:#E8E8E8"/>
							<stop  offset="0.3451" style="stop-color:#9D9D9D"/>
							<stop  offset="0.6667" style="stop-color:#E6E6E6"/>
							<stop  offset="0.7412" style="stop-color:#C8C8C8"/>
							<stop  offset="1" style="stop-color:#BFBFBF"/>
						</radialGradient>
						<path fill="url(#SVGID_3_)" d="M29.7,16.8c0.1-0.1,0.3-0.1,0.3-0.2l0.1,0.1c0.1-0.1,0.2-0.1,0.4-0.2l-0.1-0.1
							c0.1-0.1,0.3-0.1,0.4-0.1v0.1c0.1,0,0.3-0.1,0.4-0.1v-0.1c0.2,0,0.3,0,0.5-0.1v0.1c0.1,0,0.3,0,0.4,0V16c0.1,0,0.2,0,0.4,0
							v0.1c0.2,0,0.3,0,0.5,0V16c0.2,0,0.3,0,0.5,0l-0.1,0.1c0.1,0,0.3,0,0.5,0.1v-0.1c0.1,0,0.3,0.1,0.4,0.1v0.1
							c0.1,0,0.3,0.1,0.3,0.1l0.1-0.1c0.1,0,0.3,0.1,0.4,0.1L35,16.5c0.1,0.1,0.3,0.1,0.4,0.1h0.1c0,0,0.1,0,0.1,0.1
							c0.1,0,0.1,0.1,0.1,0.1l0,0h-0.1c0.1,0.1,0.2,0.2,0.3,0.3H36l0,0c0.1,0.1,0.2,0.2,0.2,0.3l0,0H36c0,0.1,0.1,0.2,0.2,0.3h0.1
							c0,0.1,0.1,0.2,0.1,0.3v0.1h-0.1c0,0.1,0.1,0.1,0.1,0.3h0.1c0.1,0.1,0.1,0.2,0.1,0.3h-0.2c0,0.1,0.1,0.2,0.1,0.3h0.1v0.1
							c0,0.1,0,0.2,0,0.4h-0.2c0,0.1,0,0.2,0,0.3h0.1c0,0.1-0.1,0.2-0.1,0.3h-0.1c-0.1,0.1-0.1,0.2-0.2,0.3h0.1
							c-0.1,0.1-0.1,0.2-0.3,0.3v0.1l0.1-0.3c-0.1,0.1-0.1,0.2-0.3,0.3h0.2c-0.1,0.1-0.2,0.2-0.3,0.3h-0.2c-0.1,0-0.1,0.1-0.1,0.1
							l-0.1,0.1l0.1,0.1c-0.1,0-0.2,0.1-0.4,0.2l-0.1-0.1c-0.1,0.1-0.2,0.1-0.3,0.2v0.1c-0.1,0-0.2,0-0.4,0l0,0
							c-0.1,0-0.3,0.1-0.4,0.1V22c-0.1,0-0.3,0-0.4,0v-0.1c-0.2,0-0.4,0.1-0.5,0.1v0.1c-0.1,0-0.3,0-0.5,0l0,0c-0.1,0-0.3,0-0.4,0
							l0,0c-0.2,0-0.3,0-0.4,0l0,0c-0.1,0-0.3-0.1-0.5-0.1l0,0c-0.2,0-0.3-0.1-0.4-0.1v-0.1c-0.1,0-0.3-0.1-0.4-0.1l-0.1,0.1
							c-0.1-0.1-0.3-0.1-0.4-0.2l0.2-0.1c-0.2,0-0.3-0.1-0.4-0.1l-0.1,0.1v-0.1c-0.1,0-0.1-0.1-0.2-0.1c-0.1,0-0.1-0.1-0.2-0.1h0.1
							c-0.1-0.1-0.2-0.2-0.3-0.3L28.7,21v-0.1c-0.1-0.1-0.2-0.1-0.3-0.3h0.1c-0.1-0.1-0.1-0.2-0.2-0.3h-0.1c0-0.1-0.1-0.2-0.1-0.3
							l0.1-0.1c0-0.1-0.1-0.3-0.1-0.4L28,19.6c0-0.1-0.1-0.2-0.1-0.3h0.2c0-0.1,0-0.2,0-0.3v-0.1h-0.2v-0.1v-0.1h0.2
							c0-0.1,0-0.2,0-0.4H28c0-0.1,0.1-0.2,0.1-0.3h0.1c0-0.1,0-0.1,0.1-0.3l-0.1-0.1c0.1-0.1,0.1-0.2,0.2-0.3l0.1,0.1
							c0.1-0.1,0.2-0.2,0.3-0.3h-0.1l0,0c0.1-0.1,0.1-0.2,0.3-0.3l0.1,0.1c0,0,0-0.1,0.1-0.1c0.1-0.1,0.1-0.1,0.2-0.2L29.7,16.8
							L29.7,16.8z"/>
					</g>
					<g>
						
							<linearGradient id="SVGID_4_" gradientUnits="userSpaceOnUse" x1="-160.9634" y1="577.0742" x2="-152.7152" y2="577.0742" gradientTransform="matrix(-0.9822 0.1879 0.3573 0.9498 -325.681 -499.9561)">
							<stop  offset="0" style="stop-color:#F4332E"/>
							<stop  offset="0.298" style="stop-color:#F5A3A3"/>
							<stop  offset="1" style="stop-color:#D20E0A"/>
						</linearGradient>
						<path fill="url(#SVGID_4_)" d="M33.3,17.8c1.2,0.8,1.2,1.7,0,2.6h-1.9v-2.6H33.3z M33.3,19.4c0.2-0.1,0.3-0.2,0.3-0.4
							s-0.1-0.3-0.3-0.4c-0.1-0.1-0.3-0.2-0.5-0.2c-0.2,0-0.4,0.1-0.5,0.2C32.1,18.8,32,18.9,32,19s0.1,0.3,0.2,0.4
							c0.2,0.1,0.3,0.2,0.5,0.2C32.9,19.6,33.1,19.5,33.3,19.4z"/>
						<path fill="#CCCCCC" d="M33.3,19.4c-0.1,0.1-0.3,0.2-0.5,0.2c-0.2,0-0.4-0.1-0.5-0.2C32.1,19.3,32,19.2,32,19s0.1-0.3,0.2-0.4
							c0.2-0.1,0.3-0.2,0.5-0.2c0.2,0,0.4,0.1,0.5,0.2c0.2,0.1,0.3,0.2,0.3,0.4S33.4,19.3,33.3,19.4z"/>
					</g>
				</g>
				<g>
					
						<linearGradient id="SVGID_5_" gradientUnits="userSpaceOnUse" x1="272.6348" y1="-42.9951" x2="283.9858" y2="-42.9951" gradientTransform="matrix(1 0 0 -1 -251.0098 -31.9453)">
						<stop  offset="0" style="stop-color:#F54541"/>
						<stop  offset="0.2353" style="stop-color:#D10E0A"/>
						<stop  offset="0.302" style="stop-color:#FF6C69"/>
						<stop  offset="0.3725" style="stop-color:#D00E0A"/>
						<stop  offset="0.6941" style="stop-color:#CD0D0A"/>
						<stop  offset="0.749" style="stop-color:#A10A08"/>
						<stop  offset="1" style="stop-color:#640504"/>
					</linearGradient>
					<path fill="url(#SVGID_5_)" d="M32.8,12.2L32.8,12.2c-0.1-0.2-0.4-0.3-0.9-0.4c-0.2,0-0.5-0.1-0.8-0.1
						c-1.1-0.1-2.4-0.2-3.9-0.2s-2.8,0.1-3.9,0.2c-0.3,0-0.5,0.1-0.8,0.1c-0.6,0.1-0.9,0.2-0.9,0.4c-0.3-0.6-0.3-1.1,0-1.6
						c0.1-0.2,0.7-0.3,1.6-0.5c1.1-0.1,2.4-0.2,3.9-0.2s2.8,0.1,3.9,0.2c0.9,0.1,1.4,0.2,1.5,0.3s0.2,0.3,0.3,0.5
						c0,0.1,0.1,0.3,0.1,0.5C32.9,11.8,32.9,12,32.8,12.2z"/>
					
						<linearGradient id="SVGID_6_" gradientUnits="userSpaceOnUse" x1="273.6719" y1="-60.6455" x2="282.9474" y2="-60.6455" gradientTransform="matrix(1 0 0 -1 -251.0098 -31.9453)">
						<stop  offset="0" style="stop-color:#F54541"/>
						<stop  offset="0.2353" style="stop-color:#D10E0A"/>
						<stop  offset="0.302" style="stop-color:#FF6C69"/>
						<stop  offset="0.3725" style="stop-color:#D00E0A"/>
						<stop  offset="0.6941" style="stop-color:#CD0D0A"/>
						<stop  offset="0.749" style="stop-color:#A10A08"/>
						<stop  offset="1" style="stop-color:#640504"/>
					</linearGradient>
					<path fill="url(#SVGID_6_)" d="M22.6,11.9c0.2,0,0.5-0.1,0.8-0.1c1.1-0.1,2.4-0.2,3.9-0.2s2.8,0.1,3.9,0.2
						c0.3,0,0.5,0.1,0.8,0.1v0.6v33.1l0,0c-0.2,0-0.4,0.1-0.6,0.1c-1,0.1-2.3,0.1-3.8,0.1s-2.8-0.1-3.8-0.1c-0.4-0.1-0.8-0.1-1-0.1
						V12.5v-0.6H22.6z"/>
					<path fill="#660F0E" d="M31.9,11.9c0.4,0.1,0.7,0.2,0.8,0.3v0.1l0,0c-0.1,0.1-0.4,0.2-0.8,0.3V11.9z M22.6,11.9v0.6
						c-0.6-0.1-0.9-0.2-0.9-0.3C21.7,12.1,22.1,12,22.6,11.9z"/>
					<path fill="#BF0C09" d="M30.9,47.2c-2.3,0.3-4.6,0.3-7,0v-0.1l-1.3-1.5c0.2,0,0.6,0,1,0.1c1,0.1,2.3,0.1,3.8,0.1
						s2.7-0.1,3.8-0.1c0.3,0,0.5-0.1,0.6-0.1L30.9,47.2z"/>
					
						<linearGradient id="SVGID_7_" gradientUnits="userSpaceOnUse" x1="230.5146" y1="-101.1875" x2="237.4056" y2="-101.1875" gradientTransform="matrix(0.9976 -6.892660e-002 -0.1324 -0.9932 -219.2867 -33.1948)">
						<stop  offset="0" style="stop-color:#FFFFFF;stop-opacity:0.4314"/>
						<stop  offset="0.1647" style="stop-color:#FFFFFF;stop-opacity:0"/>
						<stop  offset="0.349" style="stop-color:#FFFFFF;stop-opacity:0.2392"/>
						<stop  offset="0.5216" style="stop-color:#FFFFFF;stop-opacity:8.627451e-002"/>
						<stop  offset="1" style="stop-color:#FFFFFF;stop-opacity:0.498"/>
					</linearGradient>
					<path fill="url(#SVGID_7_)" d="M30.1,55.1c-0.1,0-0.1,0-0.2,0c-1.8,0.4-3.6,0.4-5.4,0l-0.6-7.9c2.3,0.3,4.6,0.3,7,0L30.1,55.1z
						"/>
					
						<linearGradient id="SVGID_8_" gradientUnits="userSpaceOnUse" x1="275.4346" y1="-112.4951" x2="281.185" y2="-112.4951" gradientTransform="matrix(1 0 0 -1 -251.0098 -31.9453)">
						<stop  offset="0" style="stop-color:#FFFFFF;stop-opacity:0.4392"/>
						<stop  offset="0.1647" style="stop-color:#FFFFFF;stop-opacity:0"/>
						<stop  offset="0.4863" style="stop-color:#FFFFFF;stop-opacity:0"/>
						<stop  offset="0.9451" style="stop-color:#FFFFFF;stop-opacity:0.298"/>
					</linearGradient>
					<path fill="url(#SVGID_8_)" d="M30.9,105.5c-2.1,0.8-4.5,0.8-7.1,0c0.4-0.5,0.6-1,0.8-1.6l0.1-0.6L24.6,55
						c1.8,0.4,3.6,0.4,5.4,0c0.1,0,0.1,0,0.2,0l0.1,48.3v0.6C30.4,104.6,30.6,105.1,30.9,105.5z"/>
					
						<linearGradient id="SVGID_9_" gradientUnits="userSpaceOnUse" x1="264.585" y1="-152.2769" x2="291.935" y2="-152.2769" gradientTransform="matrix(1 0 0 -1 -251.0098 -31.9453)">
						<stop  offset="0" style="stop-color:#FFFFFF"/>
						<stop  offset="0.1647" style="stop-color:#FFFFFF;stop-opacity:0"/>
						<stop  offset="0.4863" style="stop-color:#FFFFFF;stop-opacity:0"/>
						<stop  offset="0.7373" style="stop-color:#FFFFFF;stop-opacity:0.298"/>
						<stop  offset="1" style="stop-color:#FFFFFF"/>
					</linearGradient>
					<path fill="url(#SVGID_9_)" d="M28.6,135c-1.2,0.5-2.5,0.3-4-0.7c-0.6-0.5-0.9-0.5-0.9,0c-0.2-0.8-1.2-1.6-2.8-2.4
						c-2.3-0.8-3.7-2-4.2-3.5l0,0v-16.7l0,0c0-1.5,1.6-2.9,4.7-4.3v-0.1c1-0.5,1.7-1.1,2.2-1.9c2.6,0.8,5,0.8,7.1,0
						c0.3,0.5,0.6,0.9,1,1.2h0.1l0.9,0.7c2.8,1.5,4.1,2.9,3.9,4.3v16.7c-0.3,1.2-1.6,2.4-4,3.4C30.3,133,28.9,134,28.6,135z"/>
					
						<linearGradient id="SVGID_10_" gradientUnits="userSpaceOnUse" x1="274.7227" y1="-216.1646" x2="279.5977" y2="-216.1646" gradientTransform="matrix(1 0 0 -1 -251.0098 -31.9453)">
						<stop  offset="0" style="stop-color:#FFFFFF;stop-opacity:0.4392"/>
						<stop  offset="0.1647" style="stop-color:#FFFFFF;stop-opacity:0"/>
						<stop  offset="0.4863" style="stop-color:#FFFFFF;stop-opacity:0"/>
						<stop  offset="0.9451" style="stop-color:#FFFFFF;stop-opacity:0.298"/>
						<stop  offset="1" style="stop-color:#FFFFFF"/>
					</linearGradient>
					<path fill="url(#SVGID_10_)" d="M23.8,234.2L23.8,234.2V135v-0.2v-0.5c0-0.5,0.3-0.5,0.9,0c1.5,1,2.8,1.2,4,0.7v99.3
						C26.9,234.6,25.3,234.6,23.8,234.2z"/>
					
						<linearGradient id="SVGID_11_" gradientUnits="userSpaceOnUse" x1="-176.3516" y1="770.6348" x2="-168.9699" y2="770.6348" gradientTransform="matrix(-0.9958 9.145190e-002 0.1777 0.9879 -282.5929 -508.5513)">
						<stop  offset="0" style="stop-color:#FFFFFF;stop-opacity:0.4314"/>
						<stop  offset="0.2196" style="stop-color:#FFFFFF;stop-opacity:0"/>
						<stop  offset="0.4863" style="stop-color:#FFFFFF;stop-opacity:0"/>
						<stop  offset="0.7686" style="stop-color:#FFFFFF;stop-opacity:0.4627"/>
						<stop  offset="0.9569" style="stop-color:#FFFFFF"/>
					</linearGradient>
					<path fill="url(#SVGID_11_)" d="M23.8,234.2c1.6,0.4,3.2,0.4,4.9,0v0.1l-1.3,5.5c-0.8,0.2-1.4,0.2-1.9,0L23.8,234.2z"/>
					
						<path fill="none" stroke="#FFFFFF" stroke-width="0.75" stroke-linecap="round" stroke-linejoin="round" stroke-miterlimit="3" stroke-opacity="0.1098" d="
						M32.8,12.2c0.1-0.2,0.2-0.4,0.2-0.7c0-0.2,0-0.4-0.1-0.5c-0.1-0.3-0.2-0.5-0.3-0.5c-0.1-0.1-0.6-0.2-1.5-0.3
						c-1-0.2-2.3-0.2-3.8-0.2s-2.8,0.1-3.9,0.2c-0.9,0.1-1.5,0.3-1.6,0.5c-0.3,0.5-0.3,1,0,1.6c0-0.1,0.3-0.3,0.9-0.4
						c0.2,0,0.5-0.1,0.8-0.1c1.1-0.1,2.4-0.2,3.9-0.2s2.8,0.1,3.9,0.2c0.3,0,0.5,0.1,0.8,0.1C32.3,11.9,32.6,12,32.8,12.2L32.8,12.2
						L32.8,12.2c-0.1,0.1-0.4,0.2-0.9,0.3v33.1l0,0l-1,1.6l-0.7,7.9l0.1,48.3v0.6c0.2,0.6,0.4,1.2,0.6,1.6c0.3,0.5,0.6,0.9,1,1.2H32
						l0.9,0.7c2.8,1.5,4.1,2.9,3.9,4.3v16.7c-0.3,1.2-1.6,2.4-4,3.4c-2.5,1.1-3.9,2.2-4.1,3.1v99.3v0.1l-1.3,5.5
						c-0.8,0.2-1.4,0.2-1.9,0l-1.6-5.6l0,0l0,0v-99.2 M23.8,134.8v-0.5c-0.2-0.8-1.2-1.6-2.8-2.4c-2.3-0.8-3.7-2-4.2-3.5l0,0v-16.7
						l0,0l0,0c0-1.5,1.6-2.9,4.7-4.3v-0.1c1-0.5,1.7-1.1,2.2-1.9c0.4-0.5,0.6-1,0.8-1.6l0.1-0.6l-0.1-48.3L23.9,47v-0.1l-1.3-1.5
						V12.5c-0.6-0.1-0.9-0.2-0.9-0.3 M31.9,12.5v-0.6 M22.6,11.9v0.6 M22.6,45.6c0.2,0,0.6,0,1,0.1c1,0.1,2.3,0.1,3.8,0.1
						s2.7-0.1,3.8-0.1c0.3,0,0.5-0.1,0.6-0.1 M30.9,47.2c-2.3,0.3-4.6,0.3-7,0 M16.8,111.7L16.8,111.7 M23.7,234.2L23.7,234.2"/>
				</g>
			</g>
			<g>
				
					<linearGradient id="SVGID_12_" gradientUnits="userSpaceOnUse" x1="277.875" y1="-144.3511" x2="277.9617" y2="-128.878" gradientTransform="matrix(1 0 0 -1 -251.0098 -31.9453)">
					<stop  offset="0" style="stop-color:#FFFFFF;stop-opacity:0"/>
					<stop  offset="0.9569" style="stop-color:#FFFFFF"/>
				</linearGradient>
				<path fill="url(#SVGID_12_)" d="M24.5,106.4c1,0.2,2.1,0.3,3.3,0.3c1.2,0,2-0.1,2.4-0.2c0.6,0.9,1.7,1.7,3.1,2.6
					c2.5,1.5,3.3,2.7,2.4,3.4c-0.2,0.1-0.4,0.2-0.5,0.4c-0.4,0.1-0.8,0.2-1.3,0.3c-2.1,0.8-4.6,1.1-7.5,1.1c-2.2,0-4.2-0.2-5.9-0.6
					c-0.6-0.1-1.1-0.3-1.7-0.5c-0.1,0-0.3-0.1-0.3-0.1c-1.4-1.1-1-2.3,1.1-3.6c0.3-0.2,0.6-0.4,0.9-0.5
					C22.4,107.9,23.8,107,24.5,106.4z"/>
				<g>
					
						<linearGradient id="SVGID_13_" gradientUnits="userSpaceOnUse" x1="429.3398" y1="412.4746" x2="442.431" y2="412.4746" gradientTransform="matrix(0.2349 0.972 0.9981 -0.127 -485.8465 -246.3746)">
						<stop  offset="0" style="stop-color:#FFFFFF;stop-opacity:0"/>
						<stop  offset="0.9843" style="stop-color:#FFFFFF;stop-opacity:0.2"/>
						<stop  offset="1" style="stop-color:#FFFFFF;stop-opacity:0.5882"/>
					</linearGradient>
					<path fill="url(#SVGID_13_)" d="M31.1,117.7c0.4-1.3,1.1-1.7,2.1-1.1c1,0.5,1.7,1.3,2.2,2.4c0.5,1-0.3,2.1-2.3,3.3
						c-1,0.6-2.1,1.2-3.1,1.7c-0.1,0-0.1,0-0.2,0.1c-2.3,2.5-4.4,2.5-6.4,0c-0.5-0.6-1.3-1.1-2.3-1.4c-2-1-2.8-1.8-2.5-2.6
						c0.4,0.1,0.8,0.2,1.3,0.3c2.6,0.6,5,0.6,7.3,0.1C29.4,119.9,30.7,119,31.1,117.7z"/>
				</g>
			</g>
			
				<radialGradient id="SVGID_14_" cx="736.3379" cy="-399.564" r="8.4" gradientTransform="matrix(0.4394 0 0 -1.4581 -301.726 -463.4801)" gradientUnits="userSpaceOnUse">
				<stop  offset="0" style="stop-color:#FFFFFF"/>
				<stop  offset="0.1647" style="stop-color:#FFFFFF;stop-opacity:0.651"/>
				<stop  offset="0.3608" style="stop-color:#FFFFFF;stop-opacity:0.2784"/>
				<stop  offset="0.502" style="stop-color:#FFFFFF;stop-opacity:0.1059"/>
				<stop  offset="0.698" style="stop-color:#FFFFFF;stop-opacity:6.666667e-002"/>
				<stop  offset="0.8588" style="stop-color:#FFFFFF;stop-opacity:2.745098e-002"/>
				<stop  offset="1" style="stop-color:#FFFFFF;stop-opacity:0"/>
			</radialGradient>
			<path fill="url(#SVGID_14_)" d="M24.4,127.7c-0.7,2.4-1.6,3.6-2.6,3.6s-1.9-1.2-2.6-3.6c-0.7-2.3-1.1-5.2-1.1-8.5
				c0-3.4,0.4-6.2,1.1-8.6c0.7-2.3,1.6-3.5,2.6-3.5s1.9,1.2,2.6,3.5c0.7,2.4,1.1,5.2,1.1,8.6C25.5,122.5,25.1,125.3,24.4,127.7z"/>
			
				<radialGradient id="SVGID_15_" cx="1185.9678" cy="110.1978" r="8.4005" gradientTransform="matrix(0.1842 0.289 0.1847 -6.172180e-002 -209.4582 -229.1522)" gradientUnits="userSpaceOnUse">
				<stop  offset="0" style="stop-color:#FFFFFF"/>
				<stop  offset="0.1647" style="stop-color:#FFFFFF;stop-opacity:0.651"/>
				<stop  offset="0.3608" style="stop-color:#FFFFFF;stop-opacity:0.2784"/>
				<stop  offset="0.502" style="stop-color:#FFFFFF;stop-opacity:0.102"/>
				<stop  offset="0.698" style="stop-color:#FFFFFF;stop-opacity:6.666667e-002"/>
				<stop  offset="0.8588" style="stop-color:#FFFFFF;stop-opacity:2.745098e-002"/>
				<stop  offset="1" style="stop-color:#FFFFFF;stop-opacity:0"/>
			</radialGradient>
			<path fill="url(#SVGID_15_)" d="M29.3,108.8c-0.6-0.4-1.1-0.9-1.5-1.5c-0.4-0.7-0.6-1.3-0.6-1.9s0.2-0.9,0.6-1.1
				c0.4-0.1,0.9,0,1.5,0.3c0.6,0.4,1.1,0.9,1.5,1.6c0.4,0.7,0.6,1.3,0.6,1.8c0,0.6-0.2,0.9-0.6,1.1
				C30.4,109.3,29.9,109.2,29.3,108.8z"/>
			
				<radialGradient id="SVGID_16_" cx="1185.9688" cy="110.1958" r="8.4" gradientTransform="matrix(0.1842 0.289 0.1847 -6.172180e-002 -210.758 -202.0521)" gradientUnits="userSpaceOnUse">
				<stop  offset="0" style="stop-color:#FFFFFF"/>
				<stop  offset="0.1647" style="stop-color:#FFFFFF;stop-opacity:0.651"/>
				<stop  offset="0.3608" style="stop-color:#FFFFFF;stop-opacity:0.2784"/>
				<stop  offset="0.502" style="stop-color:#FFFFFF;stop-opacity:9.803922e-002"/>
				<stop  offset="0.698" style="stop-color:#FFFFFF;stop-opacity:6.666667e-002"/>
				<stop  offset="0.8588" style="stop-color:#FFFFFF;stop-opacity:2.745098e-002"/>
				<stop  offset="1" style="stop-color:#FFFFFF;stop-opacity:0"/>
			</radialGradient>
			<path fill="url(#SVGID_16_)" d="M28,135.9c-0.6-0.4-1.1-0.9-1.5-1.5c-0.4-0.6-0.6-1.3-0.6-1.9s0.2-0.9,0.6-1.1
				c0.4-0.1,0.9,0,1.5,0.3c0.6,0.4,1.1,0.9,1.5,1.6s0.6,1.3,0.6,1.8c0,0.6-0.2,0.9-0.6,1.1S28.6,136.3,28,135.9z"/>
			
				<radialGradient id="SVGID_17_" cx="1314.335" cy="-1300.6289" r="8.4021" gradientTransform="matrix(0.215 3.509521e-004 -1.022339e-003 -0.2493 -258.8975 -188.0896)" gradientUnits="userSpaceOnUse">
				<stop  offset="0" style="stop-color:#FFFFFF"/>
				<stop  offset="0.1647" style="stop-color:#FFFFFF;stop-opacity:0.651"/>
				<stop  offset="0.3608" style="stop-color:#FFFFFF;stop-opacity:0.2784"/>
				<stop  offset="0.502" style="stop-color:#FFFFFF;stop-opacity:9.411765e-002"/>
				<stop  offset="0.698" style="stop-color:#FFFFFF;stop-opacity:6.666667e-002"/>
				<stop  offset="0.8588" style="stop-color:#FFFFFF;stop-opacity:2.745098e-002"/>
				<stop  offset="1" style="stop-color:#FFFFFF;stop-opacity:0"/>
			</radialGradient>
			<path fill="url(#SVGID_17_)" d="M26.3,138.1c-0.3,0.4-0.8,0.6-1.3,0.6s-0.9-0.2-1.3-0.6c-0.3-0.4-0.5-0.9-0.5-1.5
				c0-0.6,0.2-1.1,0.5-1.5c0.3-0.4,0.8-0.6,1.3-0.6s0.9,0.2,1.3,0.6c0.4,0.4,0.5,0.9,0.5,1.5C26.8,137.2,26.6,137.7,26.3,138.1z"/>
			
				<radialGradient id="SVGID_18_" cx="254.9746" cy="1983.8486" r="8.3978" gradientTransform="matrix(-0.3483 0.1942 0.124 0.1167 -134.7417 -171.6633)" gradientUnits="userSpaceOnUse">
				<stop  offset="0" style="stop-color:#FFFFFF"/>
				<stop  offset="0.1647" style="stop-color:#FFFFFF;stop-opacity:0.651"/>
				<stop  offset="0.3608" style="stop-color:#FFFFFF;stop-opacity:0.2784"/>
				<stop  offset="0.502" style="stop-color:#FFFFFF;stop-opacity:9.803922e-002"/>
				<stop  offset="0.698" style="stop-color:#FFFFFF;stop-opacity:6.666667e-002"/>
				<stop  offset="0.8588" style="stop-color:#FFFFFF;stop-opacity:2.745098e-002"/>
				<stop  offset="1" style="stop-color:#FFFFFF;stop-opacity:0"/>
			</radialGradient>
			<path fill="url(#SVGID_18_)" d="M19.7,109.8c0.4-0.5,0.9-1,1.7-1.4c0.8-0.4,1.6-0.7,2.4-0.9c0.8-0.1,1.3-0.1,1.6,0.2
				c0.3,0.3,0.3,0.7-0.1,1.2c-0.4,0.5-1,1-1.8,1.4c-0.8,0.4-1.6,0.7-2.3,0.9c-0.8,0.1-1.3,0.1-1.6-0.2
				C19.3,110.7,19.3,110.3,19.7,109.8z"/>
			
				<radialGradient id="SVGID_19_" cx="-400.3965" cy="3353.4121" r="7.803" gradientTransform="matrix(-0.2971 -1.316736e-002 -1.971614e-002 8.313014e-002 -27.8894 -228.7535)" gradientUnits="userSpaceOnUse">
				<stop  offset="0" style="stop-color:#FFFFFF"/>
				<stop  offset="0.1647" style="stop-color:#FFFFFF;stop-opacity:0.651"/>
				<stop  offset="0.3608" style="stop-color:#FFFFFF;stop-opacity:0.2784"/>
				<stop  offset="0.502" style="stop-color:#FFFFFF;stop-opacity:9.411765e-002"/>
				<stop  offset="0.698" style="stop-color:#FFFFFF;stop-opacity:6.666667e-002"/>
				<stop  offset="0.8588" style="stop-color:#FFFFFF;stop-opacity:2.745098e-002"/>
				<stop  offset="1" style="stop-color:#FFFFFF;stop-opacity:0"/>
			</radialGradient>
			<path fill="url(#SVGID_19_)" d="M23.4,54.8c0.5-0.1,1-0.1,1.7-0.1c0.6,0,1.2,0.1,1.6,0.3c0.4,0.1,0.6,0.3,0.6,0.5
				s-0.3,0.3-0.8,0.4s-1,0.1-1.7,0.1c-0.5,0-1-0.1-1.4-0.2V54.8L23.4,54.8z"/>
			
				<radialGradient id="SVGID_20_" cx="-1366.0415" cy="2650.085" r="3.781" gradientTransform="matrix(-0.3378 1.458012e-002 -1.118576e-003 0.1183 -429.2138 -238.3135)" gradientUnits="userSpaceOnUse">
				<stop  offset="0" style="stop-color:#FFFFFF"/>
				<stop  offset="0.1647" style="stop-color:#FFFFFF;stop-opacity:0.651"/>
				<stop  offset="0.3608" style="stop-color:#FFFFFF;stop-opacity:0.2784"/>
				<stop  offset="0.502" style="stop-color:#FFFFFF;stop-opacity:9.019608e-002"/>
				<stop  offset="0.698" style="stop-color:#FFFFFF;stop-opacity:6.666667e-002"/>
				<stop  offset="0.8588" style="stop-color:#FFFFFF;stop-opacity:2.745098e-002"/>
				<stop  offset="1" style="stop-color:#FFFFFF;stop-opacity:0"/>
			</radialGradient>
			<path fill="url(#SVGID_20_)" d="M30.2,54.9v0.6l0,0c-0.3,0.1-0.6,0.2-0.9,0.2c-0.3,0-0.6,0-0.8,0L28.4,55l0,0
				c0.2-0.1,0.5-0.2,0.9-0.2C29.6,54.8,29.9,54.8,30.2,54.9L30.2,54.9z"/>
		</g>
		<g>
			<path fill="#6AB3D0" d="M25.9,54c-0.8,0.1-1.2,0.1-1.3,0.1c-0.6-0.1-1.2-0.3-1.8-0.4c-0.3-0.1-0.5-0.2-0.8-0.3
				c-0.9-0.3-1.8-0.6-2.8-0.9c-0.8-0.3-1.5-0.5-2.2-0.8c-2.4-0.9-4.1-1.7-5.1-2.4c0,0-0.1-0.1-0.3-0.4c-0.1-0.1-0.2-0.3-0.4-0.5
				c0,0-0.1-0.1-0.2-0.2c0,0.1,0,0,0,0c-0.3-0.3-0.5-0.7-0.6-1.2c0-0.2,0-0.5,0-1.1c0-2,2.1-4.3,6.3-6.9l2.6,1.2l0,0
				c0.2,0.1,0.7,0.3,1.5,0.6c0.8,0.3,0.4,0.7-1.3,1.3c-0.7,0.4-1,0.8-0.9,1.2c0.1,0.4,1.1,0.6,3.2,0.5c2.1-0.1,3.7,0,4.8,0.3
				c1.1,0.3,1.8,0.8,2,1.4c0.1,0.1,0.1,0.3,0.1,0.5c0,0.4-0.1,0.8-0.1,1.3c-0.1,0.7-0.2,1.3-0.3,1.9C27.7,51.8,26.9,53.5,25.9,54z
				 M18.3,77c0.5-0.5,1.5-0.7,3-0.5c1.4,0.3,2.4,0.5,3,0.6c0.5,0.1,1.7,0.3,3.5,0.4c0.7,0.1,1.3,0.2,1.8,0.3
				c0.7,0.1,1.1,0.3,1.2,0.5c0.1,0.3,0.4,1.1,0.8,2.2c0.1,0.4,0.2,0.8,0.3,1.1c0,0.1,0,0.1,0,0.2c0,0.2,0,0.4,0,0.6
				c0.1,1-0.1,1.6-0.6,1.8c-0.5,0.1-1.3,0.1-2.4-0.1c-0.1,0-0.1,0-0.2,0c-1.1-0.2-2.3-0.5-3.6-0.8c-1.4-0.3-2.2-0.4-2.4-0.4
				c-0.5,0-0.8,0-0.9,0c-0.4,0.1-0.6,0.3-0.6,0.6c0,0.5,0.2,0.9,0.7,1.3l-2.3,0.8c-0.2-0.1-0.3-0.2-0.4-0.3c-1.3-1-2-2.2-2.1-3.4
				c0-0.1-0.1-0.1-0.1-0.2c0-0.1,0-0.1,0-0.3C17.1,79.8,17.5,78.3,18.3,77z M15.5,67.5c0.2-0.2,0.5-0.5,0.6-0.9
				c0.3-0.4,0.8-0.6,1.6-0.6c0.7,0,1.5,0.1,2.1,0.2c0.6,0.1,1.4,0.2,2.2,0.4h0.1c0.8,0.1,1.6,0.2,2.4,0.4s1.4,0.3,1.9,0.4
				s1.1,0.3,2,0.4c0.1,0,0.2,0.1,0.3,0.1c0.3,0.1,0.5,0.1,0.8,0.3c0.5,0.2,1,0.5,1.5,0.8c0.1,0.2,0.2,0.3,0.3,0.5
				c0.2,0.4,0.3,0.8,0.4,1.3c0.1,0.4,0.1,0.9,0.1,1.4c0,0.6-0.5,1.5-1.5,2.6l-0.1,0.1c-0.3,0.1-0.5,0.3-0.6,0.4
				C29.4,75,29.3,75,29.3,75c-0.6,0.2-1.4,0.3-2.1,0.3c-1,0-2-0.1-3-0.3c-1.2-0.2-2.4-0.4-3.5-0.4c-0.5,0-1.1-0.1-1.6-0.3
				c-0.6-0.2-1.3-0.4-2-0.6c-0.4-0.1-0.8-0.3-1.1-0.5c-0.1-0.2-0.1-0.4-0.3-0.6c-0.3-0.8-0.4-1.8-0.4-2.9c0-0.2,0-0.3,0-0.4
				c0-0.6,0.1-1.1,0.3-1.5C15.5,67.6,15.5,67.6,15.5,67.5z M25.7,65.3c0,0-0.1,0-0.2,0c-0.5-0.1-1.2-0.2-2-0.4
				c-0.9-0.2-2.1-0.4-3.4-0.7c-0.7-0.2-1.3-0.4-1.9-0.5c-1.5-0.4-2.4-0.7-2.8-1c-1.1-0.7-1.6-2.2-1.6-4.3c0-0.4,0-0.7,0-1
				c0-0.2,0-0.4,0-0.6c0-0.7,0-1.2,0.1-1.4c0.1-0.4,0.4-0.8,0.8-1.3c0.6,0,2.4,0.3,5.4,0.6c1.1,0.1,2.1,0.2,3,0.4c0.1,0,0.3,0,0.4,0
				c0.6,0.1,1.2,0.2,1.6,0.3c1.1,0.2,2,0.4,2.5,0.5c0.6,0.2,1,0.5,1.4,0.9c0.1,0.1,0.2,0.2,0.3,0.3c0.1,0.1,0.1,0.2,0.1,0.3
				c0.1,0.1,0.2,0.3,0.3,0.4c0.2,0.2,0.3,0.4,0.4,0.5c0,0.2,0.1,1.2,0.1,3.1c0.2,1.9,0,3.1-0.5,3.6c-0.2,0.2-0.4,0.2-0.8,0.2
				C27.7,65,26.7,65,25.7,65.3z M16.7,48c0.5,0.2,1.3,0.5,2.3,1c0.1,0,0.2,0.1,0.3,0.1h1c0-0.1,0-0.1,0-0.1
				c-0.1-0.2-0.1-0.3-0.2-0.5c-0.8-0.2-2.3-0.7-4.6-1.5v0.4C15.9,47.7,16.2,47.9,16.7,48z M19.5,47.8c-0.2-0.2-0.4-0.3-0.5-0.3h-0.1
				C19.1,47.6,19.3,47.7,19.5,47.8z M26.4,59.4c0.1,0.3,0.1,0.6,0.1,0.8c0.1,0.5,0.2,0.8,0.3,0.9c0.1,0,0.2-0.1,0.3-0.4
				c0.1-0.1,0.1-0.2,0.2-0.4c0.1-0.5,0.1-0.7,0.1-0.8v-0.6h-1C26.3,59,26.3,59.1,26.4,59.4z M20.7,70.6L20.7,70.6
				c1.1,0.2,2.7,0.3,4.8,0.3c-0.2-0.3-0.6-0.5-1.4-0.7c-0.8-0.2-1.3-0.4-1.4-0.4h-2C20.8,69.9,20.7,70.2,20.7,70.6z"/>
			<path fill="#3586A8" d="M22,84.7c-0.5-0.4-0.7-0.8-0.7-1.3c0-0.3,0.2-0.5,0.6-0.6c0.1,0,0.4,0,0.9,0c0.2,0,1,0.1,2.4,0.4
				c1.3,0.3,2.5,0.5,3.6,0.8c0.1,0,0.1,0,0.2,0c1.1,0.2,1.9,0.3,2.4,0.1c0.5-0.1,0.7-0.7,0.6-1.8c0-0.2,0-0.4,0-0.6
				c0-0.1,0-0.1,0-0.2c-0.1-0.3-0.2-0.6-0.3-1.1c-0.4-1.1-0.7-1.9-0.8-2.2c-0.1-0.2-0.5-0.4-1.2-0.5c-0.5-0.1-1.1-0.2-1.8-0.3
				c-1.8-0.2-3-0.3-3.5-0.4c-0.6-0.1-1.5-0.3-3-0.6c-1.5-0.2-2.5-0.1-3,0.5c0.3-0.7,0.8-1.3,1.4-2c-1.3-0.2-2.2-0.4-2.7-0.8
				c-0.4-0.2-0.8-0.6-1.1-1.1c0.4,0.2,0.8,0.4,1.1,0.5c0.7,0.2,1.4,0.4,2,0.6c0.5,0.1,1.1,0.2,1.6,0.3c1.1,0.1,2.3,0.2,3.5,0.4
				c1,0.2,2,0.3,3,0.3c0.8,0,1.5-0.1,2.1-0.3c0,0,0.1,0,0.3-0.1c0.1-0.1,0.3-0.2,0.6-0.4l0.1-0.1c1-1.1,1.5-1.9,1.5-2.6
				c0-0.5,0-0.9-0.1-1.4c-0.1-0.4-0.2-0.8-0.4-1.3c-0.1-0.2-0.1-0.3-0.3-0.5c-0.5-0.3-1-0.6-1.5-0.8c-0.2-0.1-0.5-0.2-0.8-0.3
				c-0.1,0-0.3-0.1-0.3-0.1c-0.8-0.2-1.5-0.3-2-0.4c-0.5-0.1-1.1-0.2-1.9-0.4c-0.8-0.2-1.6-0.3-2.4-0.4C22,66,22,66,22,66
				c-0.8-0.1-1.6-0.3-2.2-0.4c-0.6,0.4-1.3,0.4-2,0.4c-0.8,0-1.3,0.2-1.6,0.6c-0.2,0.4-0.4,0.7-0.6,0.9c0.1-0.3,0.2-0.6,0.4-0.9
				c0.1-0.2,0.2-0.4,0.4-0.7c0.5-0.6,1.1-1.4,2-2.3c0.6,0.2,1.2,0.4,1.9,0.5c1.3,0.3,2.5,0.5,3.4,0.7c0.9,0.2,1.5,0.3,2,0.4
				c0.1,0,0.1,0,0.2,0c1.7,0.3,3,0.5,3.8,0.6c0,0,0.1,0,0.2,0c1.2,0,2.7-0.3,4.5-1c0.1-0.1,0.3-0.1,0.4-0.2c0.2-0.1,0.4-0.1,0.6-0.2
				c1.1-0.4,2.7-1,4.9-1.9c-2.2,0.9-3.8,1.5-4.9,1.9c-0.3,0.1-0.5,0.1-0.6,0.2c-0.1,0.1-0.3,0.1-0.4,0.2c-1.8,0.6-3.3,1-4.5,1
				c-0.1,0-0.1,0-0.2,0c-0.8,0-2.1-0.2-3.8-0.6c1-0.3,2-0.3,3.1-0.1c0.3,0,0.6,0,0.8-0.2c0.5-0.5,0.7-1.7,0.5-3.6
				c0-1.9-0.1-2.9-0.1-3.1c-0.1-0.1-0.2-0.3-0.4-0.5c-0.1-0.1-0.2-0.3-0.3-0.4c0-0.1,0-0.1-0.1-0.3c-0.1-0.1-0.1-0.2-0.3-0.3
				c-0.3-0.4-0.8-0.7-1.4-0.9c-0.5-0.1-1.4-0.3-2.5-0.5c-0.5,0-1-0.1-1.6-0.3c-0.1,0-0.2,0-0.4,0c-0.9-0.1-1.9-0.3-3-0.4
				c-3-0.4-4.8-0.6-5.4-0.6c0.5-0.6,1.3-1.4,2.4-2.3c0.7,0.3,1.4,0.5,2.2,0.8c1,0.3,1.9,0.6,2.8,0.9c0.3,0.1,0.5,0.1,0.8,0.3
				c0.6,0.1,1.1,0.3,1.8,0.4c0,0,0.4,0,1.3-0.1c1-0.5,1.8-2.2,2.4-5c0.1-0.6,0.1-1.2,0.3-1.9c0-0.5,0.1-0.9,0.1-1.3
				c0-0.2,0-0.3-0.1-0.5c-0.2-0.6-0.9-1.1-2-1.4c-1.1-0.3-2.7-0.4-4.8-0.3c-2,0.1-3.1,0-3.2-0.5c-0.1-0.4,0.2-0.8,0.9-1.2
				c1.7-0.5,2.1-1,1.3-1.3c-0.8-0.3-1.4-0.5-1.5-0.6c0.5,0.1,1.3,0.3,2.3,0.5c1.8,0.4,3,0.9,3.5,1.4c0.3,0,0.6-0.1,1-0.1
				c1.5-0.1,3-0.2,4.3-0.2c1.4-0.1,2.8-0.1,4-0.1c2.5,0,4.5,0.6,6,1.9c1.6,1.3,2.2,2.8,1.9,4.6s-0.6,2.9-0.9,3.2
				c-0.7,0.7-1.6,1.1-2.5,1.3c4,2,5.3,4.9,3.9,8.9c-0.9,0.4-1.7,0.7-2.5,1c1.2,0.7,2,1.8,2.6,3.3c0.3,0.5,0.4,1.3,0.3,2.4
				s-0.8,2.2-2.3,3.3s-2.4,1.7-2.7,1.9c-0.2,0.1-0.4,0.2-0.5,0.3c1.4,0.3,2.3,0.5,2.8,0.8c0.5,0.2,0.8,1,1,2.2
				c0.2,1.3,0.1,2.2-0.1,2.8c-0.2,0.6-0.7,1.2-1.5,1.8c-0.8,0.6-1.8,1.3-3,2.1c-1.8,1.2-3.2,1.8-4.1,1.9c-0.1,0-0.3,0-0.4,0
				c-1.7-0.1-3.2-0.1-4.4-0.2c-0.1,0-0.3,0-0.5,0c-1.9-0.1-3-0.3-3.5-0.5H23L22,84.7z M21.3,42.5c0.1,0,1.3-0.1,3.7-0.3
				C22.6,42.4,21.4,42.5,21.3,42.5z M25.9,54c1.2-0.1,3.1-0.3,5.9-0.6c1.2-0.2,2.4-0.3,3.5-0.4c1.3-0.1,2.4-0.2,3.5-0.3
				c-1.1,0.1-2.2,0.2-3.5,0.3c-1.1,0.1-2.2,0.2-3.5,0.4C29,53.7,27,53.9,25.9,54z M19.6,75c0.8,0.1,1.8,0.2,2.9,0.3
				c0.4,0,2,0.3,4.7,0.8c0.3,0.1,0.6,0.1,0.9,0.2c0.5,0.1,1,0.1,1.4,0.3c1.2,0.2,2,0.3,2.3,0.3c0.4,0,1.2-0.3,2.4-1
				c0.6-0.3,1.7-1,3.3-2c-1.6,1-2.7,1.7-3.3,2c-1.1,0.6-1.9,1-2.4,1c-0.3,0-1.1-0.1-2.3-0.3c-0.4-0.1-0.9-0.2-1.4-0.3
				c-0.3-0.1-0.6-0.1-0.9-0.2c-2.7-0.5-4.3-0.7-4.7-0.8C21.4,75.2,20.5,75.1,19.6,75z"/>
			<path fill="#9FE8F9" d="M19.5,47.8c-0.2-0.1-0.4-0.2-0.6-0.3H19C19.1,47.5,19.3,47.6,19.5,47.8z M16.7,48
				c-0.5-0.1-0.8-0.3-1.1-0.6V47c2.3,0.8,3.8,1.4,4.6,1.5c0.1,0.1,0.1,0.3,0.2,0.5v0.1h-1c-0.2,0-0.3-0.1-0.4-0.1
				C18,48.6,17.2,48.3,16.7,48z M26.4,59.4c0-0.2-0.1-0.4-0.1-0.5h1v0.6c0,0.1,0,0.3-0.1,0.8c-0.1,0.2-0.1,0.3-0.2,0.4
				c0,0.2-0.1,0.3-0.3,0.4c-0.1,0-0.1-0.3-0.3-0.9C26.5,59.9,26.4,59.6,26.4,59.4z M20.7,70.6c0-0.4,0-0.7,0-0.9h2
				c0.2,0,0.6,0.2,1.4,0.4c0.8,0.2,1.2,0.4,1.4,0.7c-2.1,0-3.7-0.1-4.7-0.3C20.8,70.6,20.7,70.6,20.7,70.6z"/>
			
				<path fill="none" stroke="#0F5768" stroke-width="0.75" stroke-linecap="round" stroke-linejoin="round" stroke-miterlimit="3" d="
				M19.2,40.3c0.5,0.1,1.3,0.3,2.3,0.5c1.8,0.4,3,0.9,3.5,1.4c0.3,0,0.6-0.1,1-0.1c1.5-0.1,3-0.2,4.3-0.2c1.4-0.1,2.8-0.1,4-0.1
				c2.5,0,4.5,0.6,6,1.9c1.6,1.3,2.2,2.8,1.9,4.6c-0.3,1.8-0.6,2.9-0.9,3.2c-0.7,0.7-1.6,1.1-2.5,1.3c4,2,5.3,4.9,3.9,8.9
				c-0.9,0.4-1.7,0.7-2.5,1c1.2,0.7,2,1.8,2.6,3.3c0.3,0.5,0.4,1.3,0.3,2.4s-0.8,2.2-2.3,3.3c-1.5,1.1-2.4,1.7-2.7,1.9
				c-0.2,0.1-0.4,0.2-0.5,0.3c1.4,0.3,2.3,0.5,2.8,0.8c0.5,0.2,0.8,1,1,2.2c0.2,1.3,0.1,2.2-0.1,2.8c-0.2,0.6-0.7,1.2-1.5,1.8
				c-0.8,0.6-1.8,1.3-3,2.1c-1.8,1.2-3.2,1.8-4.1,1.9c-0.1,0-0.3,0-0.4,0c-1.7-0.1-3.2-0.1-4.4-0.2c-0.1,0-0.3,0-0.5,0
				c-1.9-0.1-3-0.3-3.5-0.5h-1.2 M19.7,85.5c-0.2-0.1-0.3-0.2-0.4-0.3c-1.3-1-2-2.2-2.1-3.4c0-0.1-0.1-0.1-0.1-0.2s0-0.1,0-0.3
				c0-1.6,0.4-3,1.1-4.4c0.3-0.7,0.8-1.3,1.4-2c-1.3-0.2-2.2-0.4-2.7-0.8c-0.4-0.2-0.8-0.6-1.1-1.1c-0.1-0.2-0.1-0.4-0.3-0.6
				c-0.3-0.8-0.4-1.8-0.4-2.9c0-0.2,0-0.3,0-0.4c0-0.6,0.1-1.1,0.3-1.5c0-0.1,0-0.2,0-0.3c0.1-0.3,0.2-0.6,0.4-0.9
				c0.1-0.2,0.2-0.4,0.4-0.7c0.5-0.6,1.1-1.4,2-2.3c-1.5-0.4-2.4-0.7-2.8-1c-1.1-0.7-1.6-2.2-1.6-4.3c0-0.4,0-0.7,0-1
				c0-0.2,0-0.4,0-0.6c0-0.7,0-1.2,0.1-1.4c0.1-0.4,0.4-0.8,0.8-1.3c0.5-0.6,1.3-1.4,2.4-2.3c-2.4-0.9-4.1-1.7-5.1-2.4
				c0,0-0.1-0.1-0.3-0.4c-0.1-0.1-0.2-0.3-0.4-0.5c0,0-0.1-0.1-0.2-0.2C11,48.3,11,48.2,11,48.2c-0.3-0.3-0.5-0.7-0.6-1.2
				c0-0.2,0-0.5,0-1.1c0-2,2.1-4.3,6.3-6.9 M21.3,42.5c0.1,0,1.3-0.1,3.7-0.3 M25.9,54c1.2-0.1,3.1-0.3,5.9-0.6
				c1.2-0.2,2.4-0.3,3.5-0.4c1.3-0.1,2.4-0.2,3.5-0.3 M25.7,65.3c1.7,0.3,3,0.5,3.8,0.6c0,0,0.1,0,0.2,0c1.2,0,2.7-0.3,4.5-1
				c0.1-0.1,0.3-0.1,0.4-0.2c0.2-0.1,0.4-0.1,0.6-0.2c1.1-0.4,2.7-1,4.9-1.9 M17,51.8c0.7,0.3,1.4,0.5,2.2,0.8
				c1,0.3,1.9,0.6,2.8,0.9c0.3,0.1,0.5,0.1,0.8,0.3c0.6,0.1,1.1,0.3,1.8,0.4c0,0,0.4,0,1.3-0.1 M25.7,65.3c0,0-0.1,0-0.2,0
				c-0.5-0.1-1.2-0.2-2-0.4c-0.9-0.2-2.1-0.4-3.4-0.7c-0.7-0.2-1.3-0.4-1.9-0.5 M19.6,75c0.8,0.1,1.8,0.2,2.9,0.3
				c0.4,0,2,0.3,4.7,0.8c0.3,0.1,0.6,0.1,0.9,0.2c0.5,0.1,1,0.1,1.4,0.3c1.2,0.2,2,0.3,2.3,0.3c0.4,0,1.2-0.3,2.4-1
				c0.6-0.3,1.7-1,3.3-2"/>
		</g>
		<g>
			<path fill="#9FE8F9" d="M45.3,22.3C45.1,22.2,45,22.1,45,22c-1-0.7-1.8-1.3-2.3-1.6l1.3-0.3c0.5,0.4,1.2,0.9,2,1.6
				c0.9,0.8,2.8,2.1,5.6,3.8c1,1.2-0.1,0.8-3.5-1.3C47.9,24.1,46.9,23.4,45.3,22.3z"/>
			<path fill="#6AB3D0" d="M45.3,22.3c1.7,1.2,2.6,1.8,2.9,2c3.4,2.1,4.5,2.5,3.5,1.3c-2.8-1.8-4.7-3-5.6-3.8
				c-0.8-0.7-1.5-1.2-2-1.6l-1.3,0.3c0.5,0.4,1.3,0.9,2.3,1.6C45,22.1,45.1,22.2,45.3,22.3z M49.7,30.6L49.7,30.6
				c-0.9-0.8-2.2-1.6-3.8-2.4c-1.8-0.8-3.2-1.5-4.1-1.9c-3.1-1.6-5-4.2-5.7-7.6c-0.2-1.2,0-2.6,0.8-4c0.1-0.3,0.2-0.6,0.4-0.8
				c0.7-0.1,1.6,0.1,2.6,0.4c0.5,0.7,2.5,2.1,6.1,4c3.5,2,5.7,3.1,6.6,3.1c0.4,0,0.9,0.3,1.6,0.8v0.1c-0.3,0.4-0.5,0.8-0.9,1.3
				c-0.3,0.5-0.7,1.1-1.3,1.6v0.6C51.3,27.3,50.5,28.9,49.7,30.6z"/>
			<path fill="#3586A8" d="M37.4,14c-0.2,0.2-0.3,0.5-0.4,0.8c-0.7,1.4-1,2.8-0.8,4c0.7,3.4,2.6,6,5.7,7.6c0.9,0.4,2.3,1.1,4.1,1.9
				c1.6,0.8,2.8,1.6,3.7,2.4h0.1c0,0.1,0.2,0.6,0.5,1.4c0.2,0.8-0.4,1.9-2,3.1c-0.1,0.1-0.1,0.2-0.1,0.3l-2.8-1.8
				c-4.2-1.9-6.9-3.6-8-5.1s-2-3-2.6-4.5c-0.6-1.6-0.9-3.1-0.9-4.5c0-1.5,0.4-2.8,1.3-4C35.6,14.6,36.4,14,37.4,14z"/>
			
				<path fill="none" stroke="#0F5768" stroke-width="0.75" stroke-linecap="round" stroke-linejoin="round" stroke-miterlimit="3" d="
				M37.4,14c0.7-0.1,1.6,0.1,2.6,0.4c0.5,0.7,2.5,2.1,6.1,4c3.5,2,5.7,3.1,6.6,3.1c0.4,0,0.9,0.3,1.6,0.8 M48.1,35.5l-2.8-1.8
				c-4.2-1.9-6.9-3.6-8-5.1c-1.1-1.5-2-3-2.6-4.5c-0.6-1.6-0.9-3.1-0.9-4.5c0-1.5,0.4-2.8,1.3-4c0.5-0.9,1.2-1.5,2.2-1.5"/>
		</g>
	</g>
</g>
</svg>
