<?xml version="1.0" encoding="utf-8"?>
<!-- Generator: Adobe Illustrator 16.0.0, SVG Export Plug-In . SVG Version: 6.00 Build 0)  -->
<!DOCTYPE svg PUBLIC "-//W3C//DTD SVG 1.1//EN" "http://www.w3.org/Graphics/SVG/1.1/DTD/svg11.dtd">
<svg version="1.1" id="Layer_1" xmlns="http://www.w3.org/2000/svg" xmlns:xlink="http://www.w3.org/1999/xlink" x="0px" y="0px"
	 width="120px" height="250px" viewBox="0 0 120 250" style="enable-background:new 0 0 120 250;" xml:space="preserve">
<g id="Layer_1_1_">
	<g>
		<g style="opacity:0.3;">
			<path style="fill:#FFFF00;fill-opacity:0.7333;" d="M30.2,94.7v8.7v0.6c0.2,0.6,0.4,1.2,0.6,1.6c0.3,0.5,0.6,0.9,1,1.2h0.1
				l0.9,0.7c2.8,1.5,4.1,2.9,3.9,4.3v16.7c-0.3,1.2-1.6,2.4-4,3.4c-2.5,1.1-3.9,2.2-4.1,3.1v99.4l-1.3,5.5c-0.8,0.2-1.4,0.2-1.9,0
				l-1.6-5.6l0,0v-99.4v-0.5c-0.2-0.8-1.2-1.6-2.8-2.4c-2.3-0.8-3.7-2-4.2-3.5l0,0v-16.7l0,0c0-1.5,1.6-2.9,4.7-4.3v-0.1
				c1-0.5,1.7-1.1,2.2-1.9c0.4-0.5,0.6-1,0.8-1.6l0.1-0.6v-8.7h5.6V94.7z"/>
		</g>
	</g>
</g>
</svg>
