<?xml version="1.0" encoding="utf-8"?>
<!-- Generator: Adobe Illustrator 16.0.0, SVG Export Plug-In . SVG Version: 6.00 Build 0)  -->
<!DOCTYPE svg PUBLIC "-//W3C//DTD SVG 1.1//EN" "http://www.w3.org/Graphics/SVG/1.1/DTD/svg11.dtd">
<svg version="1.1" xmlns="http://www.w3.org/2000/svg" xmlns:xlink="http://www.w3.org/1999/xlink" x="0px" y="0px" width="120px"
	 height="250px" viewBox="0 0 120 250" enable-background="new 0 0 120 250" xml:space="preserve">
<g id="Layer_2">
	<g>
		<g>
			<path fill="#DEA47E" d="M110.5,81.3c0-0.1,0-0.2,0-0.3c0.2-7-0.2-14-1.2-21c-3.3-0.2-5.8-0.3-7.5-0.4c-2-0.1-3-0.2-3.1-0.2
				c-1.3,0.4-2.3,1.3-2.9,2.6c-0.2,0.6-0.3,1.3-0.5,1.9c-0.9,3.4-1.5,6.6-1.8,9.9c-0.3,3.1-0.4,6.2-0.1,9.1c0,0.5,0.1,1,0.1,1.5
				c0.1,1.5,0.4,2.9,0.7,4.4c0.5,0.9,0.8,1.7,1.1,2.4l14.1,2.3C110.4,89.8,110.8,85.8,110.5,81.3z"/>
		</g>
		<path fill="#3586A8" d="M93.7,59.4c0,0-0.1,0-0.2,0c-3.1-0.4-5.8-0.7-8-0.9c-1.1-0.1-2.1-0.3-3-0.4c-0.2,0-0.4,0-0.6,0
			c-1.5-0.2-2.7-0.3-3.6-0.4c-0.5-0.6-1-1.1-1.4-1.6c-0.4-0.5-1.2-1.6-2.3-3.4c-1.1-1.8-2.3-3.4-3.4-4.9c-1.2-1.5-2.2-2.9-3.2-4.1
			c-0.1-0.1-0.2-0.3-0.3-0.4l-0.7-1.2c-1.9-3.4-2.9-5.2-3.2-5.4c-1.4-1.7-2.2-2.8-2.4-3.1c-0.1-0.1-0.1-0.2-0.2-0.3l-5.1-7.9
			c-0.1-0.2-0.3-0.4-0.4-0.6c0,0,0,0,0,0c-0.1-0.2-0.2-0.3-0.3-0.4c0-0.1-0.1-0.1-0.1-0.2c-0.1-0.1-0.1-0.2-0.2-0.3
			c0-0.1-0.1-0.1-0.1-0.2c-0.1-0.1-0.1-0.2-0.2-0.3c0-0.1-0.1-0.1-0.1-0.2c0-0.1-0.1-0.1-0.1-0.2c0-0.1-0.1-0.1-0.1-0.2
			c0-0.1-0.1-0.1-0.1-0.2c0-0.1-0.1-0.1-0.1-0.2c0,0,0-0.1,0-0.1c0,0,0-0.1,0-0.1c-0.5-0.6-1-1-1.4-1.1c-0.9-0.2-2.9-1.7-6-4.3
			c-3.1-2.6-4.9-4.4-5.2-5.2c-0.9-0.5-1.8-0.8-2.6-0.9c-1-0.1-1.8,0.3-2.4,1.1c-1.1,1-1.8,2.2-2.1,3.7c-0.2,1.4-0.2,2.9,0,4.5
			c0.3,1.6,0.9,3.3,1.6,5c0.8,1.7,3.1,3.8,6.9,6.5l1.6,1.5l0.1,0.3l-15.4,3.1c0,0,0,0,0,0c-0.5,0-1.1,0-1.6,0c0,0,0,0,0,0
			c-0.5,0-1,0-1.4,0c0,0,0,0,0,0c-0.4,0-0.9,0-1.2,0c0,0,0,0,0,0c-0.4,0-0.7,0-1.1,0c0,0-0.1,0-0.1,0c-0.3,0-0.6,0-0.9,0.1
			c0,0-0.1,0-0.1,0c-0.3,0-0.5,0-0.7,0.1c0,0-0.1,0-0.1,0c-0.2,0-0.4,0-0.6,0.1c0,0-0.1,0-0.1,0c-0.2,0-0.4,0.1-0.6,0.1
			c-0.3,0-0.5,0.1-0.6,0.1c-1.3,0.7-2.5,1.4-3.6,2c-4.2,2.6-6.3,4.9-6.3,6.9c0,0.6,0,0.9,0,1.1c0.1,0.5,0.3,0.9,0.6,1.2
			c0,0,0,0.1,0.1,0.1c0.1,0.1,0.2,0.2,0.2,0.2c0.2,0.2,0.3,0.4,0.4,0.5c0.2,0.2,0.3,0.3,0.3,0.4c1,0.8,2.7,1.6,5.1,2.4
			c-1.1,0.9-1.9,1.7-2.4,2.3c-0.4,0.5-0.6,0.9-0.8,1.3c-0.1,0.2-0.1,0.7-0.1,1.4c0,0.2,0,0.4,0,0.6c0,0.3,0,0.6,0,1
			c0,2.1,0.5,3.6,1.6,4.3c0.4,0.3,1.3,0.6,2.8,1c-0.8,0.9-1.5,1.7-2,2.3c-0.2,0.3-0.3,0.5-0.4,0.7c-0.2,0.3-0.3,0.6-0.4,0.9
			c0,0.1,0,0.1,0,0.3c-0.2,0.4-0.3,1-0.3,1.5c0,0.1,0,0.2,0,0.4c0,1.2,0.1,2.2,0.4,2.9c0.1,0.2,0.2,0.4,0.3,0.6
			c0.3,0.5,0.6,0.9,1.1,1.1c0.1,0.1,0.3,0.1,0.4,0.2c0.1,0,0.2,0.1,0.3,0.1c0.1,0,0.2,0.1,0.2,0.1c0.1,0,0.3,0.1,0.4,0.1
			c0.1,0,0.1,0,0.2,0c0.2,0,0.4,0.1,0.6,0.1c0,0,0,0,0,0l0.1,0.9c0,0,0,0,0,0c-0.1,0.2-0.2,0.3-0.3,0.5c-0.2,0.2-0.3,0.5-0.4,0.8
			c-0.8,1.3-1.1,2.8-1.1,4.4c0,0.1,0,0.2,0,0.3c0,0.1,0,0.1,0.1,0.2c0.1,1.2,0.8,2.4,2.1,3.4c0.1,0.1,0.2,0.1,0.4,0.3
			c0.7,0.5,1.8,1,3.3,1.6c0.3,0.1,0.6,0.2,1,0.4c0.6,0.2,1.3,0.5,2,0.7c3.3,1.7,5.6,2.5,7,2.5c0.2,0,0.8-0.1,1.8-0.3
			c1.1-0.2,1.7-0.3,1.9-0.3c1.6,0,3.9,0.2,6.8,0.6c2.9,0.4,5.2,0.6,6.9,0.6c1.3,0,4.5-0.3,9.6-0.8c0.2-0.1,1.6-0.5,4.2-1.2h0
			c0.7-0.2,1.4-0.4,1.9-0.5l21.6,1.6c0,0,0,0,0,0l0,0c0.6,0.1,1.3,0.1,2,0.2c1.3,1,2.6,1.4,3.8,1.1c0.6-0.1,1.2-0.4,1.8-0.8
			c-0.3-0.7-0.6-1.5-1.1-2.4c-0.3-1.4-0.6-2.9-0.7-4.4c-0.1-0.5-0.1-1-0.1-1.5c-0.2-3-0.2-6,0.1-9.1c0.3-3.2,0.9-6.5,1.8-9.9
			c0.1-0.7,0.3-1.3,0.5-1.9c0.6-1.3,1.5-2.2,2.9-2.6C96.4,58.3,94.7,58.3,93.7,59.4z"/>
	</g>
</g>
<g id="Layer_1">
	<g>
		<g>
			<path fill-rule="evenodd" clip-rule="evenodd" fill="#DEA47E" d="M95.3,63.9c0.1-0.7,0.3-1.3,0.5-1.9c0.6-1.3,1.5-2.2,2.9-2.6
				c0.1,0,1.1,0.1,3.1,0.2c1.8,0.1,4.3,0.2,7.5,0.4c1,7,1.4,14,1.2,21c-0.6,0.1-0.9,0.1-1,0.1c-2.8-0.1-4.9-0.2-6.3-0.3
				c-0.5-0.1-1-0.1-1.5-0.2c-1.7-0.3-3-0.8-3.9-1.4c-1.5-1-2.3-2.8-2.3-5.2c0.3-3.4,0.5-5.3,0.5-5.7c0-1-0.1-2-0.3-3
				C95.7,64.7,95.5,64.2,95.3,63.9z M107.1,64.3c0.1-0.6-0.5-1.1-1.9-1.5c-0.3-0.1-0.6-0.2-0.9-0.2c-1,0-1.8,0-2.5,0
				c-1,0-1.7,0.1-2.2,0.1c0,0.1,0,0.1-0.1,0.2c0,0.1,0,0.2,0,0.4c0,0.3,0.7,0.6,2.1,0.7c0.1,0,0.2,0,0.3,0c0.8,0.1,1.9,0.2,3.4,0.3
				H107.1z"/>
			<path fill-rule="evenodd" clip-rule="evenodd" fill="#E4B789" d="M107.1,64.3h-1.9c-1.5-0.1-2.6-0.2-3.4-0.3c-0.1,0-0.2,0-0.3,0
				c-1.4-0.1-2.1-0.4-2.1-0.7c0-0.1,0-0.3,0-0.4c0.1-0.1,0.1-0.1,0.1-0.2c0.5,0,1.2,0,2.2-0.1c0.7,0,1.6,0,2.5,0
				c0.3,0,0.6,0.1,0.9,0.2C106.6,63.2,107.2,63.7,107.1,64.3z"/>
			<path fill-rule="evenodd" clip-rule="evenodd" fill="#6AB3D0" d="M22,84.7c0.1,0.1,0.3,0.2,0.5,0.3c0.3,0.1,0.5,0.3,0.6,0.4
				c0.1,0.1,0.1,0.2,0.3,0.3c-0.6,0.5-0.7,0.9-0.4,1.3c-1.5-0.6-2.6-1.1-3.3-1.6L22,84.7z M50.5,37l0.5,1.4l1.8,0.5
				c1.1,0,2.2,0.2,3.3,0.5c0.3,0.1,0.7,0.1,1.3,0c0.6-0.1,1.7,0,3.3,0.5c1.6,0.4,3.5,0.7,5.8,0.9c0.1,0.6,0.7,1.5,1.7,2.9
				c0.9,1.3,2,2.7,3.2,4.1c1.1,1.4,2.3,3,3.4,4.9c1.1,1.8,1.9,2.9,2.3,3.4c0.4,0.5,0.9,1,1.4,1.6c0.9,0.1,2.1,0.2,3.6,0.4
				c0.2,0,0.5,0,0.6,0c0.9,0.1,1.9,0.3,3,0.4c2.2,0.3,4.9,0.6,8,0.9c0.1,0,0.1,0,0.2,0c1-1.1,2.7-1.1,5,0c-1.3,0.4-2.3,1.3-2.9,2.6
				c-0.2,0.6-0.3,1.3-0.5,1.9c-0.9,3.4-1.5,6.6-1.8,9.9c-0.3,3.1-0.4,6.2-0.1,9.1c-2.4-0.1-5-0.4-7.9-0.6c-1-0.1-2-0.3-3-0.4
				c-0.7-0.1-1.3-0.1-1.9-0.3C80,81.5,79,81.3,77.8,81c-1.2-0.3-1.7-0.4-1.6-0.4c-1.6-0.2-2.4-0.4-2.5-0.6c-0.7,0.2-1-2.4-0.9-7.7
				c0.9-3.1,1.4-4.9,1.6-5.5c0.4-1.4,0.6-2.2,0.6-2.5c0-0.1,0-0.2,0-0.4c0-0.2-0.1-0.3-0.2-0.4c-0.1-0.1-0.3-0.2-0.6-0.2
				c-1.1,0-2,1.8-2.7,5.3c-0.4,2.1-0.6,3.8-0.7,5.3c-0.9,2-1.4,3.8-1.4,5.4c0,1.2-0.1,2.2-0.3,2.9c-0.3,0.7-0.7,1.1-1.2,1.4
				c-0.4,0.2-1.4,0.6-3,1.3c-0.4,0.1-0.8,0.3-1.1,0.4h0c-0.3,0.1-0.5,0.2-0.8,0.3c-0.2,0-0.3,0-0.4,0c-3.2,0.9-7.1,1.4-11.7,1.7
				c-4.7,0.3-7.5-0.9-8.5-3.5c-0.5-1.2-0.3-2.1,0.5-2.9c1.1-1,1.5-2.3,1.3-3.8c-1-1.2-1.6-2.7-2-4.5c1.5-2.1,2.3-3.6,2.4-4.5
				c0.7-3.1,2.3-3.1,4.8,0.3c0.2,1.1,0.8,2.2,2,3.1c2.5,2.1,4.5,2.9,5.9,2.6c1.4-0.3,2.2-0.5,2.5-0.8c0.3-0.3,0.5-0.6,0.8-0.8
				c0.2-0.2,0.7-0.6,1.5-1c0.7-0.3,1-0.6,1-1c0-0.3-0.7-1-2-2.1c-1.9-1.5-3.4-2.8-4.3-3.9c-3.9-4.2-6-9.1-6.2-14.6
				c0-0.3,0-0.5,0-0.8c0-2,0.2-3.9,0.5-5.6c0.3-1.3,0.6-2.2,1-2.8C51.5,39.8,51,38.6,50.5,37z M45.5,36.8c0.3,0.4,0.2,1-0.3,1.8
				c-0.5,0.7-0.9,1.2-1.2,1.4c-0.3,0.2-0.7,0.4-1.2,0.4c-0.2,0-0.8-0.2-1.9-0.5c-1.2-0.4-2.6-0.6-4.1-0.6s-3.3-0.2-5.4-0.4
				c-1.9-0.2-3.7-0.3-5.5-0.3c-0.6,0-1.3,0.1-2,0.1c-0.7,0.1-1.5,0.3-2.3,0.5c-0.3,0.1-0.6,0.2-1,0.3c-0.1,0-0.1,0-0.2,0
				c-0.3,0.1-0.6,0.3-0.8,0.4c-0.2,0.1-0.4,0.3-0.5,0.5L16.6,39c1.1-0.6,2.3-1.3,3.6-2c0.1-0.1,0.4-0.1,0.6-0.1
				C23.4,36.4,31.6,36.3,45.5,36.8z M89,65L89,65c0-0.1,0-0.1,0.1-0.1c-0.3-0.6-1.5-0.7-3.5-0.4c-0.3,0-0.6,0.1-1,0.2
				c0.4,0.1,0.7,0.2,1,0.3c0.7,0.2,1,0.3,1.1,0.3C87.4,65.3,88.2,65.2,89,65z M81.6,63.6c-2-0.5-3.2-0.4-3.6,0.4
				c1.8,0,3.4,0.1,4.6,0.3c0.5,0.1,0.9,0.1,1.3,0.3c-0.1-0.6-0.4-0.9-0.9-0.9c-0.2,0-0.3,0-0.4,0C82.1,63.6,81.7,63.6,81.6,63.6z
				 M75,64c0.4-0.8,0.7-1.5,0.9-2C75.6,62.5,75.3,63.2,75,64z M59.4,44.3c-0.2,0-0.4,0.1-0.6,0.2c0.1,0.1,0.1,0.3,0.2,0.4
				c0,1.9,0.2,3.6,0.7,5.1c0.4,1.3,0.8,2.6,1.1,3.8c0.2,0.5,0.4,0.9,0.6,1.4c0.6,1.4,1.2,2.6,1.8,3.5c0.5,0.7,1,1.3,1.5,1.7H65
				c0-0.5-0.1-1.2-0.4-1.9c-0.1-0.3-0.2-0.6-0.3-0.8c-0.2-0.4-0.4-0.8-0.5-1.1c-0.4-0.9-0.8-1.6-1-2.2c-0.1-0.3-0.2-0.7-0.4-1.1
				c-0.5-1.8-1.4-4.8-2.7-8.9C59.5,44.3,59.4,44.3,59.4,44.3z M76.8,57.3c-0.3,0,0.2,0.1,1.5,0.3C77,57.4,76.5,57.3,76.8,57.3z
				 M75.1,67.2c-0.1,0.8-0.2,1.9-0.3,3.4v2.6c0.4-1.1,0.8-2.2,1-3.4c0.2-0.8,0.3-1.5,0.3-2c0-0.3-0.1-0.5-0.4-0.6
				C75.6,67.2,75.4,67.2,75.1,67.2z M62.8,75.7c0,1.9,0,3,0,3.1c-0.1,0.4-0.2,0.8-0.2,1.2c-0.1,0.5-0.2,0.8-0.3,0.9v1
				c0.4-0.2,1-1,1.9-2.4c0-0.2,0-0.4-0.1-0.8c-0.1-0.4-0.1-1,0.1-1.8C64.5,76,64,75.6,62.8,75.7z"/>
			<path fill-rule="evenodd" clip-rule="evenodd" fill="#9FE8F9" d="M81.6,63.6c0.1,0,0.5,0,1,0c0.1,0,0.2,0,0.4,0
				c0.5,0,0.8,0.3,0.9,0.9c-0.4-0.1-0.8-0.2-1.3-0.3C81.3,64,79.8,64,78,64C78.4,63.3,79.6,63.1,81.6,63.6z M89,65
				c-0.8,0.2-1.6,0.3-2.3,0.3c-0.1,0-0.4-0.1-1.1-0.3c-0.2-0.1-0.5-0.2-1-0.3c0.4-0.1,0.7-0.1,1-0.2c2.1-0.3,3.3-0.2,3.5,0.4
				C89,64.9,89,64.9,89,65L89,65z M59.4,44.3c0.1,0,0.2,0,0.3,0c1.3,4.1,2.2,7.1,2.7,8.9c0.1,0.5,0.3,0.9,0.4,1.1
				c0.3,0.6,0.6,1.3,1,2.2c0.2,0.3,0.3,0.7,0.5,1.1c0.1,0.2,0.2,0.4,0.3,0.8c0.3,0.8,0.4,1.4,0.4,1.9h-0.2c-0.6-0.4-1.1-1-1.5-1.7
				c-0.6-0.9-1.3-2-1.8-3.5c-0.2-0.5-0.4-0.9-0.6-1.4c-0.4-1.2-0.8-2.5-1.1-3.8c-0.5-1.5-0.7-3.2-0.7-5.1c-0.1-0.1-0.1-0.3-0.2-0.4
				C59,44.4,59.1,44.3,59.4,44.3z M62.8,75.7c1.2-0.1,1.7,0.3,1.5,1.1c-0.2,0.8-0.2,1.4-0.1,1.8c0.1,0.4,0.1,0.6,0.1,0.8
				c-0.9,1.4-1.5,2.2-1.9,2.4v-1c0.1-0.1,0.1-0.4,0.3-0.9c0-0.3,0.1-0.7,0.2-1.2C62.8,78.7,62.8,77.6,62.8,75.7z"/>
			<path fill-rule="evenodd" clip-rule="evenodd" fill="#D28D60" d="M95.3,63.9c0.2,0.3,0.3,0.8,0.4,1.5c0.2,0.9,0.3,1.9,0.3,3
				c0,0.4-0.2,2.3-0.5,5.7c0,2.4,0.8,4.1,2.3,5.2c0.9,0.6,2.2,1.1,3.9,1.4c0.5,0.1,1,0.1,1.5,0.2c1.4,0.1,3.5,0.2,6.3,0.3
				c0.1,0,0.4-0.1,1-0.1c0,0.1,0,0.2,0,0.3c0.2,4.5-0.1,8.5-1.1,12.1l-14.1-2.3c-0.3-0.7-0.6-1.5-1.1-2.4c-0.3-1.4-0.6-2.9-0.7-4.4
				c-0.1-0.5-0.1-1-0.1-1.5c-0.2-3-0.2-6,0.1-9.1C93.9,70.5,94.5,67.3,95.3,63.9z"/>
			<path fill-rule="evenodd" clip-rule="evenodd" fill="#3586A8" d="M23,87c-0.4-0.4-0.3-0.9,0.4-1.3c-0.1-0.1-0.2-0.2-0.3-0.3
				c-0.2-0.1-0.4-0.3-0.6-0.4c-0.2-0.1-0.4-0.2-0.5-0.3l0.5-0.2h1.2l-2.4-40.8c-0.9-1.5-1.4-2.4-1.6-2.7c-0.2-0.3-0.4-0.5-0.5-0.6
				c-0.1-0.1-0.1-0.2,0-0.2c0.1-0.2,0.3-0.4,0.5-0.5c0.2-0.1,0.5-0.2,0.8-0.4c0.1,0,0.1,0,0.2,0c0.3-0.1,0.6-0.2,1-0.3
				c0.8-0.2,1.6-0.4,2.3-0.5c0.7-0.1,1.4-0.1,2-0.1c1.8,0,3.6,0.1,5.5,0.3c2.1,0.2,3.9,0.4,5.4,0.4s2.9,0.2,4.1,0.6
				c1.1,0.4,1.8,0.5,1.9,0.5c0.5,0,0.9-0.1,1.2-0.4c0.3-0.2,0.7-0.7,1.2-1.4c0.4-0.7,0.5-1.3,0.3-1.8c0.3,0,0.5,0,0.7,0
				c0.1,0,0.2,0,0.3,0c-0.1-0.2-0.5-1.4-1.2-3.5c1.6-1.2,3.1-0.5,4.3,2.1c0.5,1,0.8,1.8,1,2.3L50.5,37c0.5,1.6,1,2.8,1.5,3.8
				c-0.3,0.6-0.6,1.5-1,2.8c-0.4,1.8-0.5,3.7-0.5,5.6c0,0.3,0,0.5,0,0.8c0.2,5.5,2.3,10.4,6.2,14.6c0.9,1,2.4,2.3,4.3,3.9
				c1.3,1.1,2,1.8,2,2.1c0,0.4-0.3,0.7-1,1c-0.8,0.4-1.3,0.7-1.5,1c-0.2,0.3-0.5,0.5-0.8,0.8c-0.2,0.3-1.1,0.5-2.5,0.8
				c-1.4,0.3-3.4-0.6-5.9-2.6c-1.1-0.9-1.8-2-2-3.1c-2.4-3.3-4-3.4-4.8-0.3c-0.1,1-0.9,2.5-2.4,4.5c0.3,1.8,1,3.3,2,4.5
				c0.2,1.5-0.2,2.8-1.3,3.8c-0.8,0.7-1,1.6-0.5,2.9c1,2.6,3.8,3.8,8.5,3.5c4.7-0.3,8.6-0.8,11.7-1.7c0.1,0,0.2,0,0.4,0
				c0.3-0.1,0.6-0.2,0.8-0.3h0c0.3-0.1,0.7-0.3,1.1-0.4c1.6-0.6,2.6-1,3-1.3c0.5-0.3,0.9-0.8,1.2-1.4c0.2-0.7,0.3-1.7,0.3-2.9
				c0-1.6,0.5-3.4,1.4-5.4c0.1-1.4,0.3-3.2,0.7-5.3c0.7-3.5,1.6-5.3,2.7-5.3c0.3,0,0.5,0.1,0.6,0.2c0.1,0.1,0.2,0.2,0.2,0.4
				c-0.6,1.4-1.5,3.1-2.6,5.1c-0.5,0.9-0.9,2.1-1,3.5c-0.1,0.6-0.1,1.3-0.1,2.1c0,0.4,0.2,2.5,0.5,6.2c0,0.3,0,0.6-0.2,1
				c-0.1,0.5-0.3,0.9-0.6,1.2c0.3-0.3,0.5-0.7,0.6-1.2c0.1-0.4,0.2-0.7,0.2-1c-0.3-3.7-0.5-5.8-0.5-6.2c0-0.8,0-1.5,0.1-2.1
				c0.1-1.4,0.5-2.6,1-3.5c1.1-2,2-3.7,2.6-5.1c0,0.1,0,0.3,0,0.4c0,0.3-0.2,1.1-0.6,2.5c-0.2,0.6-0.7,2.4-1.6,5.5
				c-0.1,5.3,0.2,7.9,0.9,7.7c0.1,0.2,0.9,0.4,2.5,0.6c-0.1,0,0.5,0.1,1.6,0.4c1.2,0.3,2.2,0.5,2.9,0.6c0.6,0.1,1.3,0.2,1.9,0.3
				c1,0.1,2,0.3,3,0.4c2.8,0.3,5.5,0.5,7.9,0.6c0,0.5,0.1,1,0.1,1.5c0.1,1.5,0.4,2.9,0.7,4.4c0.5,0.9,0.8,1.7,1.1,2.4
				c-0.6,0.4-1.2,0.7-1.8,0.8c-1.2,0.2-2.5-0.2-3.8-1.1c-1.5-0.2-2.9-0.3-4.2-0.5c-1.1-0.1-2-0.3-3-0.4c-4.3-0.5-7.4-0.9-9.3-1.1
				c-2.8-0.4-4.4-0.6-4.7-0.5c-0.3,0.1-1.8,0.5-4.3,1.2h0c-2.6,0.7-4,1.1-4.2,1.2c-5.1,0.5-8.3,0.8-9.6,0.8c-1.7,0-4-0.2-6.9-0.6
				c-2.9-0.4-5.2-0.6-6.8-0.6c-0.2,0-0.8,0.1-1.9,0.3c-1,0.2-1.6,0.3-1.8,0.3c-1.4,0-3.8-0.8-7-2.5c-0.7-0.2-1.4-0.5-2-0.7
				C23.6,87.3,23.3,87.1,23,87z M46.5,36.8c0.4,1.3,0.6,2.6,0.9,4C47.1,39.4,46.9,38.1,46.5,36.8z M26,88.1c0.6,0.2,1.2,0.4,1.8,0.6
				C27.1,88.5,26.5,88.3,26,88.1z M75.1,67.2c0.3,0,0.5,0,0.6,0c0.3,0.1,0.4,0.3,0.4,0.6c0,0.5-0.1,1.2-0.3,2
				c-0.3,1.2-0.6,2.3-1,3.4v-2.6C74.9,69.1,75,68,75.1,67.2z M51,68.5c1.8,2.3,3.7,3.8,5.7,4.6C54.6,72.3,52.8,70.8,51,68.5z
				 M46.1,45.4c-0.6,1.6-0.9,4.4-1,8.4c0,4,1.3,7.8,4.1,11.4c2.7,3.5,5.9,5.1,9.6,4.8c-3.7,0.3-6.9-1.3-9.6-4.8
				c-2.7-3.6-4.1-7.4-4.1-11.4C45.2,49.8,45.5,47,46.1,45.4z M74.2,81.4c-0.3,0.4-0.5,0.9-0.7,1.5c-0.1,0.3-0.2,0.8-0.3,1.4
				c0.2-0.6,0.3-1.1,0.3-1.4C73.7,82.3,73.9,81.8,74.2,81.4z"/>
			
				<path fill-rule="evenodd" clip-rule="evenodd" fill="none" stroke="#B16634" stroke-width="0.75" stroke-linecap="round" stroke-linejoin="round" stroke-miterlimit="3" d="
				M98.7,59.4c0.1,0,1.1,0.1,3.1,0.2c1.8,0.1,4.3,0.2,7.5,0.4c1,7,1.4,14,1.2,21c0,0.1,0,0.2,0,0.3c0.2,4.5-0.1,8.5-1.1,12.1
				l-14.1-2.3"/>
			
				<path fill-rule="evenodd" clip-rule="evenodd" fill="none" stroke="#0F5768" stroke-width="0.75" stroke-linecap="round" stroke-linejoin="round" stroke-miterlimit="3" d="
				M95.3,91.1c-0.6,0.4-1.2,0.7-1.8,0.8c-1.2,0.2-2.5-0.2-3.8-1.1c-1.5-0.2-2.9-0.3-4.2-0.5c-1.1-0.1-2-0.3-3-0.4
				c-4.3-0.5-7.4-0.9-9.3-1.1c-2.8-0.4-4.4-0.6-4.7-0.5c-0.3,0.1-1.8,0.5-4.3,1.2h0c-2.6,0.7-4,1.1-4.2,1.2
				c-5.1,0.5-8.3,0.8-9.6,0.8c-1.7,0-4-0.2-6.9-0.6c-2.9-0.4-5.2-0.6-6.8-0.6c-0.2,0-0.8,0.1-1.9,0.3c-1,0.2-1.6,0.3-1.8,0.3
				c-1.4,0-3.8-0.8-7-2.5c-0.7-0.2-1.4-0.5-2-0.7c-0.3-0.2-0.7-0.3-1-0.4c-1.5-0.6-2.6-1.1-3.3-1.6 M16.6,39c1.1-0.6,2.3-1.3,3.6-2
				c0.1-0.1,0.4-0.1,0.6-0.1c2.5-0.5,10.7-0.6,24.6-0.1c0.3,0,0.5,0,0.7,0c0.1,0,0.2,0,0.3,0c-0.1-0.2-0.5-1.4-1.2-3.5 M66.4,40.8
				c0.1,0.6,0.7,1.5,1.7,2.9c0.9,1.3,2,2.7,3.2,4.1c1.1,1.4,2.3,3,3.4,4.9c1.1,1.8,1.9,2.9,2.3,3.4c0.4,0.5,0.9,1,1.4,1.6
				c0.9,0.1,2.1,0.2,3.6,0.4c0.2,0,0.5,0,0.6,0c0.9,0.1,1.9,0.3,3,0.4c2.2,0.3,4.9,0.6,8,0.9c0.1,0,0.1,0,0.2,0c1-1.1,2.7-1.1,5,0
				c-1.3,0.4-2.3,1.3-2.9,2.6c-0.2,0.6-0.3,1.3-0.5,1.9c-0.9,3.4-1.5,6.6-1.8,9.9c-0.3,3.1-0.4,6.2-0.1,9.1c0,0.5,0.1,1,0.1,1.5
				c0.1,1.5,0.4,2.9,0.7,4.4c0.5,0.9,0.8,1.7,1.1,2.4 M75,64c-0.6,1.4-1.5,3.1-2.6,5.1c-0.5,0.9-0.9,2.1-1,3.5
				c-0.1,0.6-0.1,1.3-0.1,2.1c0,0.4,0.2,2.5,0.5,6.2c0,0.3,0,0.6-0.2,1c-0.1,0.5-0.3,0.9-0.6,1.2 M75,64c0.4-0.8,0.7-1.5,0.9-2
				 M46.5,36.8c0.4,1.3,0.6,2.6,0.9,4 M26,88.1c0.6,0.2,1.2,0.4,1.8,0.6 M76.8,57.3c-0.3,0,0.2,0.1,1.5,0.3 M51,68.5
				c1.8,2.3,3.7,3.8,5.7,4.6 M46.1,45.4c-0.6,1.6-0.9,4.4-1,8.4c0,4,1.3,7.8,4.1,11.4c2.7,3.5,5.9,5.1,9.6,4.8 M74.2,81.4
				c-0.3,0.4-0.5,0.9-0.7,1.5c-0.1,0.3-0.2,0.8-0.3,1.4"/>
		</g>
		<g>
			<rect x="24.7" y="94.3" fill-rule="evenodd" clip-rule="evenodd" fill="#FFFFFF" width="5.6" height="0.7"/>
		</g>
		<g>
			<path fill-rule="evenodd" clip-rule="evenodd" fill="#6AB3D0" d="M54.1,22c0.3,0.4,1.1,1.7,2.5,4c1.4,2.3,2.5,4,3.3,5.2
				c0.8,1.2,1.3,1.9,1.5,2.3c0.2,0.3,1,1.4,2.4,3.1c0.3,0.3,1.7,2.6,4.1,7.1c-2.6-1.2-4.7-1.7-6.3-1.6v-0.5c-2.3-1.1-4-1.1-5.3,0
				v2.9c-1.9,1.1-3.9,2.5-6.1,4c0.5-2,0.9-3.5,1.1-4.4c0.2-1.2,0.5-2.1,0.9-2.6c-1.5-2.8-2.4-5.3-2.8-7.5c-0.2-1.3-0.4-2.1-0.4-2.4
				c-0.2-0.9-0.7-1.7-1.3-2.6c-0.1-2.5,1-3.9,3.3-4.3l0.1-0.5c0.7-0.4,1.3-0.9,1.6-1.4c0.3-0.4,0.5-0.7,0.6-0.9
				C53.6,21.6,53.8,21.7,54.1,22z"/>
			<path fill-rule="evenodd" clip-rule="evenodd" fill="#3586A8" d="M50.4,48.4c0-0.8-0.2-1.1-0.6-0.9c-2.1-0.5-3.1-2.3-3-5.5l0,0.4
				c0-3.3,0-5,0.1-5c-0.1-0.2-0.2-0.5-0.3-0.7c-0.3-1.1-0.8-2.1-1.3-3.1l-0.7-0.8c-0.5-2.7-0.2-3.8,0.9-3c1.2-0.2,1.9-0.5,2.1-0.8
				c0-0.1,0.1-0.2,0.1-0.2c0.6,0.9,1.1,1.7,1.3,2.6c0.1,0.2,0.2,1,0.4,2.4c0.4,2.2,1.3,4.7,2.8,7.5c-0.4,0.5-0.7,1.4-0.9,2.6
				C51.3,44.9,50.9,46.4,50.4,48.4z M46.9,37.4c0.4,1.3,0.6,2.6,0.9,3.9C47.5,40,47.3,38.7,46.9,37.4z"/>
			
				<path fill-rule="evenodd" clip-rule="evenodd" fill="none" stroke="#0F5768" stroke-width="0.75" stroke-linecap="round" stroke-linejoin="round" stroke-miterlimit="3" d="
				M68,43.6c-2.4-4.4-3.8-6.8-4.1-7.1c-1.4-1.7-2.2-2.8-2.4-3.1c-0.3-0.3-0.8-1.1-1.5-2.3C59.1,30,58,28.3,56.6,26
				c-1.4-2.3-2.3-3.6-2.5-4 M46.8,42.4c0-3.3,0-5,0.1-5c-0.1-0.2-0.2-0.5-0.3-0.7c-0.3-1.1-0.8-2.1-1.3-3.1l-0.7-0.8 M46.9,37.4
				c0.4,1.3,0.6,2.6,0.9,3.9"/>
		</g>
		<g>
			<g>
				
					<linearGradient id="SVGID_1_" gradientUnits="userSpaceOnUse" x1="40.0063" y1="-32.0996" x2="41.6313" y2="-32.0996" gradientTransform="matrix(6.153845e-004 1 -1 -1.000001e-003 -4.705410e-004 -7.825857e-005)">
					<stop  offset="0" style="stop-color:#F3423E"/>
					<stop  offset="0.2118" style="stop-color:#E96764"/>
					<stop  offset="0.5176" style="stop-color:#BD0C09"/>
					<stop  offset="1" style="stop-color:#700604"/>
				</linearGradient>
				<path fill-rule="evenodd" clip-rule="evenodd" fill="url(#SVGID_1_)" d="M29.5,40h4.3c0.3,0,0.5,0.1,0.8,0.3
					c0.2,0.1,0.3,0.3,0.3,0.6c0,0.2-0.1,0.4-0.3,0.5c-0.2,0.2-0.5,0.3-0.8,0.3h-4.3V40z"/>
			</g>
			<g>
				
					<linearGradient id="SVGID_2_" gradientUnits="userSpaceOnUse" x1="26.2788" y1="-33.5962" x2="38.1538" y2="-33.5962" gradientTransform="matrix(8.421054e-005 1 -1 -1.000000e-003 2.447902e-004 -8.335337e-005)">
					<stop  offset="0" style="stop-color:#F3423E"/>
					<stop  offset="0.2118" style="stop-color:#E96764"/>
					<stop  offset="0.5176" style="stop-color:#BD0C09"/>
					<stop  offset="1" style="stop-color:#700604"/>
				</linearGradient>
				<path fill-rule="evenodd" clip-rule="evenodd" fill="url(#SVGID_2_)" d="M34.5,38.1l-0.1,0h-2.8V25.4h2.8c0.4,0,0.7,0.6,0.9,1.9
					c0.2,1.2,0.4,2.7,0.4,4.5c0,1.1,0,2.1-0.1,3c0,0.5-0.1,1-0.2,1.5c-0.1,0.3-0.2,0.6-0.3,0.9C34.9,37.7,34.7,38,34.5,38.1z"/>
				
					<path fill-rule="evenodd" clip-rule="evenodd" fill="none" stroke="#FFFFFF" stroke-width="0.75" stroke-linecap="round" stroke-linejoin="round" stroke-miterlimit="3" stroke-opacity="0.1059" d="
					M34.5,38.1c0.2-0.1,0.4-0.4,0.5-1c0.1-0.2,0.2-0.5,0.3-0.9c0.1-0.5,0.2-1,0.2-1.5c0.1-0.9,0.1-1.9,0.1-3c0-1.8-0.1-3.3-0.4-4.5
					c-0.3-1.3-0.6-1.9-0.9-1.9h-2.8 M31.5,38.1h2.8"/>
			</g>
			<g>
				<g>
					<g>
						
							<radialGradient id="SVGID_3_" cx="32.5" cy="19.0498" r="4.3625" gradientTransform="matrix(1 0 0 0.7221 0 5.2946)" gradientUnits="userSpaceOnUse">
							<stop  offset="0" style="stop-color:#B7B7B7"/>
							<stop  offset="8.235294e-002" style="stop-color:#E8E8E8"/>
							<stop  offset="0.3451" style="stop-color:#9D9D9D"/>
							<stop  offset="0.6667" style="stop-color:#E6E6E6"/>
							<stop  offset="0.7412" style="stop-color:#C8C8C8"/>
							<stop  offset="1" style="stop-color:#BFBFBF"/>
						</radialGradient>
						<path fill-rule="evenodd" clip-rule="evenodd" fill="url(#SVGID_3_)" d="M29.7,16.8c0.1-0.1,0.3-0.1,0.3-0.2l0.1,0.1
							c0.1-0.1,0.2-0.1,0.4-0.2l-0.1-0.1c0.1-0.1,0.3-0.1,0.4-0.1v0.1c0.1,0,0.3-0.1,0.4-0.1l0-0.1c0.2,0,0.3,0,0.5-0.1v0.1
							c0.1,0,0.3,0,0.4,0V16c0.1,0,0.2,0,0.4,0v0.1c0.2,0,0.3,0,0.5,0V16c0.2,0,0.3,0,0.5,0l-0.1,0.1c0.1,0,0.3,0,0.5,0.1v-0.1
							c0.1,0,0.3,0.1,0.4,0.1l0,0.1c0.1,0,0.3,0.1,0.3,0.1l0.1-0.1c0.1,0,0.3,0.1,0.4,0.1l-0.1,0.1c0.1,0.1,0.3,0.1,0.4,0.1h0.1
							c0,0,0.1,0,0.1,0.1c0.1,0,0.1,0.1,0.1,0.1l0,0l-0.1,0c0.1,0.1,0.2,0.2,0.3,0.3l0.1,0v0c0.1,0.1,0.2,0.2,0.2,0.3v0H36
							c0,0.1,0.1,0.2,0.2,0.3h0.1c0,0.1,0.1,0.2,0.1,0.3v0.1h-0.1c0,0.1,0.1,0.1,0.1,0.3h0.1c0.1,0.1,0.1,0.2,0.1,0.3h-0.2
							c0,0.1,0.1,0.2,0.1,0.3h0.1c0,0,0,0.1,0,0.1c0,0.1,0,0.2,0,0.4h-0.2c0,0.1,0,0.2,0,0.3h0.1c0,0.1-0.1,0.2-0.1,0.3l-0.1,0
							c-0.1,0.1-0.1,0.2-0.2,0.3l0.1,0c-0.1,0.1-0.1,0.2-0.3,0.3v0.1L36,20.5c-0.1,0.1-0.1,0.2-0.3,0.3l0.2,0
							c-0.1,0.1-0.2,0.2-0.3,0.3l-0.2,0c-0.1,0-0.1,0.1-0.1,0.1s-0.1,0.1-0.1,0.1l0.1,0.1c-0.1,0-0.2,0.1-0.4,0.2l-0.1-0.1
							c-0.1,0.1-0.2,0.1-0.3,0.2l0,0.1c-0.1,0-0.2,0-0.4,0l0,0c-0.1,0-0.3,0.1-0.4,0.1V22c-0.1,0-0.3,0-0.4,0v-0.1
							c-0.2,0-0.4,0.1-0.5,0.1l0,0.1c-0.1,0-0.3,0-0.5,0v0c-0.1,0-0.3,0-0.4,0v0c-0.2,0-0.3,0-0.4,0l0,0c-0.1,0-0.3-0.1-0.5-0.1V22
							c-0.2,0-0.3-0.1-0.4-0.1v-0.1c-0.1,0-0.3-0.1-0.4-0.1l-0.1,0.1c-0.1-0.1-0.3-0.1-0.4-0.2l0.2-0.1c-0.2,0-0.3-0.1-0.4-0.1
							l-0.1,0.1l0-0.1c-0.1,0-0.1-0.1-0.2-0.1c-0.1,0-0.1-0.1-0.2-0.1h0.1c-0.1-0.1-0.2-0.2-0.3-0.3l-0.1,0.1v-0.1
							c-0.1-0.1-0.2-0.1-0.3-0.3l0.1,0c-0.1-0.1-0.1-0.2-0.2-0.3l-0.1,0c0-0.1-0.1-0.2-0.1-0.3l0.1-0.1c0-0.1-0.1-0.3-0.1-0.4
							l-0.1,0.1c0-0.1-0.1-0.2-0.1-0.3h0.2c0-0.1,0-0.2,0-0.3c0,0,0-0.1,0-0.1h-0.2v-0.1c0,0,0-0.1,0-0.1h0.2c0-0.1,0-0.2,0-0.4
							h-0.1c0-0.1,0.1-0.2,0.1-0.3h0.1c0-0.1,0-0.1,0.1-0.3l-0.1-0.1c0.1-0.1,0.1-0.2,0.2-0.3l0.1,0.1c0.1-0.1,0.2-0.2,0.3-0.3
							l-0.1,0v0c0.1-0.1,0.1-0.2,0.3-0.3l0.1,0.1c0,0,0-0.1,0.1-0.1c0.1-0.1,0.1-0.1,0.2-0.2L29.7,16.8L29.7,16.8z"/>
					</g>
					<g>
						
							<linearGradient id="SVGID_4_" gradientUnits="userSpaceOnUse" x1="-30.269" y1="-24.8052" x2="-22.0221" y2="-24.8052" gradientTransform="matrix(-0.9822 0.1879 -0.3573 -0.9498 6.521940e-004 -4.045367e-004)">
							<stop  offset="0" style="stop-color:#F4332E"/>
							<stop  offset="0.298" style="stop-color:#F5A3A3"/>
							<stop  offset="1" style="stop-color:#D20E0A"/>
						</linearGradient>
						<path fill-rule="evenodd" clip-rule="evenodd" fill="url(#SVGID_4_)" d="M33.3,17.8c1.2,0.8,1.2,1.7,0,2.6h-1.9v-2.6H33.3z
							 M33.3,19.4c0.2-0.1,0.3-0.2,0.3-0.4c0-0.2-0.1-0.3-0.3-0.4c-0.1-0.1-0.3-0.2-0.5-0.2s-0.4,0.1-0.5,0.2
							C32.1,18.8,32,18.9,32,19c0,0.1,0.1,0.3,0.2,0.4c0.2,0.1,0.3,0.2,0.5,0.2S33.1,19.5,33.3,19.4z"/>
						<path fill-rule="evenodd" clip-rule="evenodd" fill="#CCCCCC" d="M33.3,19.4c-0.1,0.1-0.3,0.2-0.5,0.2s-0.4-0.1-0.5-0.2
							C32.1,19.3,32,19.2,32,19c0-0.2,0.1-0.3,0.2-0.4c0.2-0.1,0.3-0.2,0.5-0.2s0.4,0.1,0.5,0.2c0.2,0.1,0.3,0.2,0.3,0.4
							C33.5,19.2,33.4,19.3,33.3,19.4z"/>
					</g>
				</g>
				<g>
					<linearGradient id="SVGID_5_" gradientUnits="userSpaceOnUse" x1="21.625" y1="11.0752" x2="32.9756" y2="11.0752">
						<stop  offset="0" style="stop-color:#F54541"/>
						<stop  offset="0.2353" style="stop-color:#D10E0A"/>
						<stop  offset="0.302" style="stop-color:#FF6C69"/>
						<stop  offset="0.3725" style="stop-color:#D00E0A"/>
						<stop  offset="0.6941" style="stop-color:#CD0D0A"/>
						<stop  offset="0.749" style="stop-color:#A10A08"/>
						<stop  offset="1" style="stop-color:#640504"/>
					</linearGradient>
					<path fill-rule="evenodd" clip-rule="evenodd" fill="url(#SVGID_5_)" d="M32.8,12.2L32.8,12.2c-0.1-0.2-0.4-0.3-0.9-0.4
						c-0.2,0-0.5-0.1-0.8-0.1c-1.1-0.1-2.4-0.2-3.9-0.2c-1.5,0-2.8,0.1-3.9,0.2c-0.3,0-0.5,0.1-0.8,0.1c-0.6,0.1-0.9,0.2-0.9,0.4
						c-0.3-0.6-0.3-1.1,0-1.6c0.1-0.2,0.7-0.3,1.6-0.5c1.1-0.1,2.4-0.2,3.9-0.2c1.5,0,2.8,0.1,3.9,0.2c0.9,0.1,1.4,0.2,1.5,0.3
						c0.1,0.1,0.2,0.3,0.3,0.5c0,0.1,0.1,0.3,0.1,0.5C32.9,11.8,32.9,12,32.8,12.2z"/>
					<linearGradient id="SVGID_6_" gradientUnits="userSpaceOnUse" x1="22.6626" y1="28.7002" x2="31.9376" y2="28.7002">
						<stop  offset="0" style="stop-color:#F54541"/>
						<stop  offset="0.2353" style="stop-color:#D10E0A"/>
						<stop  offset="0.302" style="stop-color:#FF6C69"/>
						<stop  offset="0.3725" style="stop-color:#D00E0A"/>
						<stop  offset="0.6941" style="stop-color:#CD0D0A"/>
						<stop  offset="0.749" style="stop-color:#A10A08"/>
						<stop  offset="1" style="stop-color:#640504"/>
					</linearGradient>
					<path fill-rule="evenodd" clip-rule="evenodd" fill="url(#SVGID_6_)" d="M22.6,11.9c0.2,0,0.5-0.1,0.8-0.1
						c1.1-0.1,2.4-0.2,3.9-0.2c1.5,0,2.8,0.1,3.9,0.2c0.3,0,0.5,0.1,0.8,0.1v0.6v33.1h0c-0.2,0-0.4,0.1-0.6,0.1
						c-1,0.1-2.3,0.1-3.8,0.1c-1.5,0-2.8-0.1-3.8-0.1c-0.4-0.1-0.8-0.1-1-0.1V12.5V11.9z"/>
					<path fill-rule="evenodd" clip-rule="evenodd" fill="#660F0E" d="M31.9,11.9c0.4,0.1,0.7,0.2,0.8,0.3l0,0.1l0,0
						c-0.1,0.1-0.4,0.2-0.8,0.3V11.9z M22.6,11.9v0.6c-0.6-0.1-0.9-0.2-0.9-0.3S22.1,12,22.6,11.9z"/>
					<path fill-rule="evenodd" clip-rule="evenodd" fill="#BF0C09" d="M30.9,47.2c-2.3,0.3-4.6,0.3-7,0v-0.1l-1.3-1.5
						c0.2,0,0.6,0,1,0.1c1,0.1,2.3,0.1,3.8,0.1c1.5,0,2.7-0.1,3.8-0.1c0.3,0,0.5-0.1,0.6-0.1L30.9,47.2z"/>
					
						<linearGradient id="SVGID_7_" gradientUnits="userSpaceOnUse" x1="17.1011" y1="52.9766" x2="23.9925" y2="52.9766" gradientTransform="matrix(0.9976 -6.892660e-002 0.1324 0.9932 -1.817942e-004 1.232922e-004)">
						<stop  offset="0" style="stop-color:#FFFFFF;stop-opacity:0.4314"/>
						<stop  offset="0.1647" style="stop-color:#FFFFFF;stop-opacity:0"/>
						<stop  offset="0.349" style="stop-color:#FFFFFF;stop-opacity:0.2392"/>
						<stop  offset="0.5216" style="stop-color:#FFFFFF;stop-opacity:8.627451e-002"/>
						<stop  offset="1" style="stop-color:#FFFFFF;stop-opacity:0.498"/>
					</linearGradient>
					<path fill-rule="evenodd" clip-rule="evenodd" fill="url(#SVGID_7_)" d="M30.1,55.1c-0.1,0-0.1,0-0.2,0c-1.8,0.4-3.6,0.4-5.4,0
						l-0.6-7.9c2.3,0.3,4.6,0.3,7,0L30.1,55.1z"/>
					<linearGradient id="SVGID_8_" gradientUnits="userSpaceOnUse" x1="24.4248" y1="80.625" x2="30.1748" y2="80.625">
						<stop  offset="0" style="stop-color:#FFFFFF;stop-opacity:0.4392"/>
						<stop  offset="0.1647" style="stop-color:#FFFFFF;stop-opacity:0"/>
						<stop  offset="0.4863" style="stop-color:#FFFFFF;stop-opacity:0"/>
						<stop  offset="0.9451" style="stop-color:#FFFFFF;stop-opacity:0.298"/>
					</linearGradient>
					<path fill-rule="evenodd" clip-rule="evenodd" fill="url(#SVGID_8_)" d="M30.9,105.5c-2.1,0.8-4.5,0.8-7.1,0
						c0.4-0.5,0.6-1,0.8-1.6l0.1-0.6l-0.1-48.3c1.8,0.4,3.6,0.4,5.4,0c0.1,0,0.1,0,0.2,0l0.1,48.3l0,0.6
						C30.4,104.6,30.6,105.1,30.9,105.5z"/>
					<linearGradient id="SVGID_9_" gradientUnits="userSpaceOnUse" x1="13.5752" y1="120.3779" x2="40.9252" y2="120.3779">
						<stop  offset="0" style="stop-color:#FFFFFF"/>
						<stop  offset="0.1647" style="stop-color:#FFFFFF;stop-opacity:0"/>
						<stop  offset="0.4863" style="stop-color:#FFFFFF;stop-opacity:0"/>
						<stop  offset="0.7373" style="stop-color:#FFFFFF;stop-opacity:0.298"/>
						<stop  offset="1" style="stop-color:#FFFFFF"/>
					</linearGradient>
					<path fill-rule="evenodd" clip-rule="evenodd" fill="url(#SVGID_9_)" d="M28.6,135c-1.2,0.5-2.5,0.3-4-0.7
						c-0.6-0.5-0.9-0.5-0.9,0c-0.2-0.8-1.2-1.6-2.8-2.4c-2.3-0.8-3.7-2-4.2-3.5h0v-16.7l0,0c0-1.5,1.6-2.9,4.7-4.3l0-0.1
						c1-0.5,1.7-1.1,2.2-1.9c2.6,0.8,5,0.8,7.1,0c0.3,0.5,0.6,0.9,1,1.2l0.1,0l0.9,0.7c2.8,1.5,4.1,2.9,3.9,4.3v16.7
						c-0.3,1.2-1.6,2.4-4,3.4C30.3,133,28.9,134,28.6,135z"/>
					<linearGradient id="SVGID_10_" gradientUnits="userSpaceOnUse" x1="23.7124" y1="184.2188" x2="28.5874" y2="184.2188">
						<stop  offset="0" style="stop-color:#FFFFFF;stop-opacity:0.4392"/>
						<stop  offset="0.1647" style="stop-color:#FFFFFF;stop-opacity:0"/>
						<stop  offset="0.4863" style="stop-color:#FFFFFF;stop-opacity:0"/>
						<stop  offset="0.9451" style="stop-color:#FFFFFF;stop-opacity:0.298"/>
						<stop  offset="1" style="stop-color:#FFFFFF"/>
					</linearGradient>
					<path fill-rule="evenodd" clip-rule="evenodd" fill="url(#SVGID_10_)" d="M23.8,234.2L23.8,234.2V135v-0.2l0-0.5
						c0-0.5,0.3-0.5,0.9,0c1.5,1,2.8,1.2,4,0.7v99.3C26.9,234.6,25.3,234.6,23.8,234.2z"/>
					
						<linearGradient id="SVGID_11_" gradientUnits="userSpaceOnUse" x1="12.4517" y1="-238.3994" x2="19.8326" y2="-238.3994" gradientTransform="matrix(-0.9958 9.145190e-002 -0.1777 -0.9879 -5.253255e-004 -2.608895e-004)">
						<stop  offset="0" style="stop-color:#FFFFFF;stop-opacity:0.4314"/>
						<stop  offset="0.2196" style="stop-color:#FFFFFF;stop-opacity:0"/>
						<stop  offset="0.4863" style="stop-color:#FFFFFF;stop-opacity:0"/>
						<stop  offset="0.7686" style="stop-color:#FFFFFF;stop-opacity:0.4627"/>
						<stop  offset="0.9569" style="stop-color:#FFFFFF"/>
					</linearGradient>
					<path fill-rule="evenodd" clip-rule="evenodd" fill="url(#SVGID_11_)" d="M23.8,234.2c1.6,0.4,3.2,0.4,4.9,0v0.1l-1.3,5.5
						c-0.8,0.2-1.4,0.2-1.9,0L23.8,234.2z"/>
					
						<path fill-rule="evenodd" clip-rule="evenodd" fill="none" stroke="#FFFFFF" stroke-width="0.75" stroke-linecap="round" stroke-linejoin="round" stroke-miterlimit="3" stroke-opacity="0.1098" d="
						M32.8,12.2c0.1-0.2,0.2-0.4,0.2-0.7c0-0.2,0-0.4-0.1-0.5c-0.1-0.3-0.2-0.5-0.3-0.5c-0.1-0.1-0.6-0.2-1.5-0.3
						C30.1,10,28.8,10,27.3,10c-1.5,0-2.8,0.1-3.9,0.2c-0.9,0.1-1.5,0.3-1.6,0.5c-0.3,0.5-0.3,1,0,1.6c0-0.1,0.3-0.3,0.9-0.4
						c0.2,0,0.5-0.1,0.8-0.1c1.1-0.1,2.4-0.2,3.9-0.2c1.5,0,2.8,0.1,3.9,0.2c0.3,0,0.5,0.1,0.8,0.1C32.3,11.9,32.6,12,32.8,12.2
						L32.8,12.2L32.8,12.2c-0.1,0.1-0.4,0.2-0.9,0.3v33.1h0l-1,1.6l-0.7,7.9l0.1,48.3l0,0.6c0.2,0.6,0.4,1.2,0.6,1.6
						c0.3,0.5,0.6,0.9,1,1.2l0.1,0l0.9,0.7c2.8,1.5,4.1,2.9,3.9,4.3v16.7c-0.3,1.2-1.6,2.4-4,3.4c-2.5,1.1-3.9,2.2-4.1,3.1v99.3v0.1
						l-1.3,5.5c-0.8,0.2-1.4,0.2-1.9,0l-1.6-5.6h0v0l0-99.2 M23.8,134.8l0-0.5c-0.2-0.8-1.2-1.6-2.8-2.4c-2.3-0.8-3.7-2-4.2-3.5h0
						v-16.7v0h0c0-1.5,1.6-2.9,4.7-4.3l0-0.1c1-0.5,1.7-1.1,2.2-1.9c0.4-0.5,0.6-1,0.8-1.6l0.1-0.6l-0.1-48.3l-0.6-7.9v-0.1
						l-1.3-1.5V12.5c-0.6-0.1-0.9-0.2-0.9-0.3 M31.9,12.5v-0.6 M22.6,11.9v0.6 M22.6,45.6c0.2,0,0.6,0,1,0.1c1,0.1,2.3,0.1,3.8,0.1
						c1.5,0,2.7-0.1,3.8-0.1c0.3,0,0.5-0.1,0.6-0.1 M23.9,47.2c2.3,0.3,4.6,0.3,7,0 M16.8,111.7L16.8,111.7 M23.7,234.2L23.7,234.2"
						/>
				</g>
			</g>
			<g>
				<linearGradient id="SVGID_12_" gradientUnits="userSpaceOnUse" x1="26.853" y1="112.4067" x2="26.9397" y2="96.9317">
					<stop  offset="0" style="stop-color:#FFFFFF;stop-opacity:0"/>
					<stop  offset="0.9569" style="stop-color:#FFFFFF"/>
				</linearGradient>
				<path fill-rule="evenodd" clip-rule="evenodd" fill="url(#SVGID_12_)" d="M24.5,106.4c1,0.2,2.1,0.3,3.3,0.3
					c1.2,0,2-0.1,2.4-0.2c0.6,0.9,1.7,1.7,3.1,2.6c2.5,1.5,3.3,2.7,2.4,3.4c-0.2,0.1-0.4,0.2-0.5,0.4c-0.4,0.1-0.8,0.2-1.3,0.3
					c-2.1,0.8-4.6,1.1-7.5,1.1c-2.2,0-4.2-0.2-5.9-0.6c-0.6-0.1-1.1-0.3-1.7-0.5c-0.1,0-0.3-0.1-0.3-0.1c-1.4-1.1-1-2.3,1.1-3.6
					c0.3-0.2,0.6-0.4,0.9-0.5C22.4,107.9,23.8,107,24.5,106.4z"/>
				<g>
					
						<linearGradient id="SVGID_13_" gradientUnits="userSpaceOnUse" x1="121.7266" y1="1.9277" x2="134.8178" y2="1.9277" gradientTransform="matrix(0.2349 0.972 -0.9981 0.127 4.019737e-004 1.612008e-004)">
						<stop  offset="0" style="stop-color:#FFFFFF;stop-opacity:0"/>
						<stop  offset="0.9843" style="stop-color:#FFFFFF;stop-opacity:0.2"/>
						<stop  offset="1" style="stop-color:#FFFFFF;stop-opacity:0.5882"/>
					</linearGradient>
					<path fill-rule="evenodd" clip-rule="evenodd" fill="url(#SVGID_13_)" d="M31.1,117.7c0.4-1.3,1.1-1.7,2.1-1.1
						c1,0.5,1.7,1.3,2.2,2.4c0.5,1-0.3,2.1-2.3,3.3c-1,0.6-2.1,1.2-3.1,1.7c-0.1,0-0.1,0-0.2,0.1c-2.3,2.5-4.4,2.5-6.4,0
						c-0.5-0.6-1.3-1.1-2.3-1.4c-2-1-2.8-1.8-2.5-2.6c0.4,0.1,0.8,0.2,1.3,0.3c2.6,0.6,5,0.6,7.3,0.1
						C29.4,119.9,30.7,119,31.1,117.7z"/>
				</g>
			</g>
			
				<radialGradient id="SVGID_14_" cx="172.0996" cy="452.9004" r="8.4" gradientTransform="matrix(0.4394 0 0 1.4581 -53.7999 -541.2498)" gradientUnits="userSpaceOnUse">
				<stop  offset="0" style="stop-color:#FFFFFF"/>
				<stop  offset="0.1647" style="stop-color:#FFFFFF;stop-opacity:0.651"/>
				<stop  offset="0.3608" style="stop-color:#FFFFFF;stop-opacity:0.2784"/>
				<stop  offset="0.502" style="stop-color:#FFFFFF;stop-opacity:0.1059"/>
				<stop  offset="0.698" style="stop-color:#FFFFFF;stop-opacity:6.666667e-002"/>
				<stop  offset="0.8588" style="stop-color:#FFFFFF;stop-opacity:2.745098e-002"/>
				<stop  offset="1" style="stop-color:#FFFFFF;stop-opacity:0"/>
			</radialGradient>
			<path fill-rule="evenodd" clip-rule="evenodd" fill="url(#SVGID_14_)" d="M24.4,127.7c-0.7,2.4-1.6,3.6-2.6,3.6
				c-1,0-1.9-1.2-2.6-3.6c-0.7-2.3-1.1-5.2-1.1-8.5c0-3.4,0.4-6.2,1.1-8.6c0.7-2.3,1.6-3.5,2.6-3.5c1,0,1.9,1.2,2.6,3.5
				c0.7,2.4,1.1,5.2,1.1,8.6C25.5,122.5,25.1,125.3,24.4,127.7z"/>
			
				<radialGradient id="SVGID_15_" cx="172.0996" cy="452.8994" r="8.4005" gradientTransform="matrix(0.1842 0.289 -0.1847 6.172180e-002 81.3001 29.1003)" gradientUnits="userSpaceOnUse">
				<stop  offset="0" style="stop-color:#FFFFFF"/>
				<stop  offset="0.1647" style="stop-color:#FFFFFF;stop-opacity:0.651"/>
				<stop  offset="0.3608" style="stop-color:#FFFFFF;stop-opacity:0.2784"/>
				<stop  offset="0.502" style="stop-color:#FFFFFF;stop-opacity:0.102"/>
				<stop  offset="0.698" style="stop-color:#FFFFFF;stop-opacity:6.666667e-002"/>
				<stop  offset="0.8588" style="stop-color:#FFFFFF;stop-opacity:2.745098e-002"/>
				<stop  offset="1" style="stop-color:#FFFFFF;stop-opacity:0"/>
			</radialGradient>
			<path fill-rule="evenodd" clip-rule="evenodd" fill="url(#SVGID_15_)" d="M29.3,108.8c-0.6-0.4-1.1-0.9-1.5-1.5
				c-0.4-0.7-0.6-1.3-0.6-1.9c0-0.6,0.2-0.9,0.6-1.1c0.4-0.1,0.9,0,1.5,0.3c0.6,0.4,1.1,0.9,1.5,1.6c0.4,0.7,0.6,1.3,0.6,1.8
				c0,0.6-0.2,0.9-0.6,1.1C30.4,109.3,29.9,109.2,29.3,108.8z"/>
			
				<radialGradient id="SVGID_16_" cx="172.0996" cy="452.9004" r="8.4" gradientTransform="matrix(0.1842 0.289 -0.1847 6.172180e-002 80.0003 56.2004)" gradientUnits="userSpaceOnUse">
				<stop  offset="0" style="stop-color:#FFFFFF"/>
				<stop  offset="0.1647" style="stop-color:#FFFFFF;stop-opacity:0.651"/>
				<stop  offset="0.3608" style="stop-color:#FFFFFF;stop-opacity:0.2784"/>
				<stop  offset="0.502" style="stop-color:#FFFFFF;stop-opacity:9.803922e-002"/>
				<stop  offset="0.698" style="stop-color:#FFFFFF;stop-opacity:6.666667e-002"/>
				<stop  offset="0.8588" style="stop-color:#FFFFFF;stop-opacity:2.745098e-002"/>
				<stop  offset="1" style="stop-color:#FFFFFF;stop-opacity:0"/>
			</radialGradient>
			<path fill-rule="evenodd" clip-rule="evenodd" fill="url(#SVGID_16_)" d="M28,135.9c-0.6-0.4-1.1-0.9-1.5-1.5s-0.6-1.3-0.6-1.9
				c0-0.6,0.2-0.9,0.6-1.1c0.4-0.1,0.9,0,1.5,0.3c0.6,0.4,1.1,0.9,1.5,1.6c0.4,0.7,0.6,1.3,0.6,1.8c0,0.6-0.2,0.9-0.6,1.1
				C29.1,136.4,28.6,136.3,28,135.9z"/>
			
				<radialGradient id="SVGID_17_" cx="172.0996" cy="452.8994" r="8.4005" gradientTransform="matrix(0.215 3.509521e-004 1.022339e-003 0.2493 -12.4502 23.6499)" gradientUnits="userSpaceOnUse">
				<stop  offset="0" style="stop-color:#FFFFFF"/>
				<stop  offset="0.1647" style="stop-color:#FFFFFF;stop-opacity:0.651"/>
				<stop  offset="0.3608" style="stop-color:#FFFFFF;stop-opacity:0.2784"/>
				<stop  offset="0.502" style="stop-color:#FFFFFF;stop-opacity:9.411765e-002"/>
				<stop  offset="0.698" style="stop-color:#FFFFFF;stop-opacity:6.666667e-002"/>
				<stop  offset="0.8588" style="stop-color:#FFFFFF;stop-opacity:2.745098e-002"/>
				<stop  offset="1" style="stop-color:#FFFFFF;stop-opacity:0"/>
			</radialGradient>
			<path fill-rule="evenodd" clip-rule="evenodd" fill="url(#SVGID_17_)" d="M26.3,138.1c-0.3,0.4-0.8,0.6-1.3,0.6
				c-0.5,0-0.9-0.2-1.3-0.6c-0.3-0.4-0.5-0.9-0.5-1.5c0-0.6,0.2-1.1,0.5-1.5c0.3-0.4,0.8-0.6,1.3-0.6c0.5,0,0.9,0.2,1.3,0.6
				c0.4,0.4,0.5,0.9,0.5,1.5C26.8,137.2,26.6,137.7,26.3,138.1z"/>
			
				<radialGradient id="SVGID_18_" cx="172.1016" cy="452.9033" r="8.3975" gradientTransform="matrix(-0.3483 0.1942 -0.124 -0.1167 138.5501 128.7997)" gradientUnits="userSpaceOnUse">
				<stop  offset="0" style="stop-color:#FFFFFF"/>
				<stop  offset="0.1647" style="stop-color:#FFFFFF;stop-opacity:0.651"/>
				<stop  offset="0.3608" style="stop-color:#FFFFFF;stop-opacity:0.2784"/>
				<stop  offset="0.502" style="stop-color:#FFFFFF;stop-opacity:9.803922e-002"/>
				<stop  offset="0.698" style="stop-color:#FFFFFF;stop-opacity:6.666667e-002"/>
				<stop  offset="0.8588" style="stop-color:#FFFFFF;stop-opacity:2.745098e-002"/>
				<stop  offset="1" style="stop-color:#FFFFFF;stop-opacity:0"/>
			</radialGradient>
			<path fill-rule="evenodd" clip-rule="evenodd" fill="url(#SVGID_18_)" d="M19.7,109.8c0.4-0.5,0.9-1,1.7-1.4s1.6-0.7,2.4-0.9
				c0.8-0.1,1.3-0.1,1.6,0.2s0.3,0.7-0.1,1.2c-0.4,0.5-1,1-1.8,1.4s-1.6,0.7-2.3,0.9c-0.8,0.1-1.3,0.1-1.6-0.2
				C19.3,110.7,19.3,110.3,19.7,109.8z"/>
			
				<radialGradient id="SVGID_19_" cx="626.2998" cy="-12.1001" r="7.8036" gradientTransform="matrix(-0.2971 -1.316736e-002 1.971614e-002 -8.313014e-002 211.2647 62.5287)" gradientUnits="userSpaceOnUse">
				<stop  offset="0" style="stop-color:#FFFFFF"/>
				<stop  offset="0.1647" style="stop-color:#FFFFFF;stop-opacity:0.651"/>
				<stop  offset="0.3608" style="stop-color:#FFFFFF;stop-opacity:0.2784"/>
				<stop  offset="0.502" style="stop-color:#FFFFFF;stop-opacity:9.411765e-002"/>
				<stop  offset="0.698" style="stop-color:#FFFFFF;stop-opacity:6.666667e-002"/>
				<stop  offset="0.8588" style="stop-color:#FFFFFF;stop-opacity:2.745098e-002"/>
				<stop  offset="1" style="stop-color:#FFFFFF;stop-opacity:0"/>
			</radialGradient>
			<path fill-rule="evenodd" clip-rule="evenodd" fill="url(#SVGID_19_)" d="M23.4,54.8c0.5-0.1,1-0.1,1.7-0.1
				c0.6,0,1.2,0.1,1.6,0.3c0.4,0.1,0.6,0.3,0.6,0.5c0,0.2-0.3,0.3-0.8,0.4c-0.5,0.1-1,0.1-1.7,0.1c-0.5,0-1-0.1-1.4-0.2L23.4,54.8
				C23.4,54.8,23.4,54.8,23.4,54.8z"/>
			
				<radialGradient id="SVGID_20_" cx="-636.853" cy="-25.4854" r="3.7817" gradientTransform="matrix(-0.3378 1.458012e-002 1.118576e-003 -0.1183 -185.83 61.545)" gradientUnits="userSpaceOnUse">
				<stop  offset="0" style="stop-color:#FFFFFF"/>
				<stop  offset="0.1647" style="stop-color:#FFFFFF;stop-opacity:0.651"/>
				<stop  offset="0.3608" style="stop-color:#FFFFFF;stop-opacity:0.2784"/>
				<stop  offset="0.502" style="stop-color:#FFFFFF;stop-opacity:9.019608e-002"/>
				<stop  offset="0.698" style="stop-color:#FFFFFF;stop-opacity:6.666667e-002"/>
				<stop  offset="0.8588" style="stop-color:#FFFFFF;stop-opacity:2.745098e-002"/>
				<stop  offset="1" style="stop-color:#FFFFFF;stop-opacity:0"/>
			</radialGradient>
			<path fill-rule="evenodd" clip-rule="evenodd" fill="url(#SVGID_20_)" d="M30.2,54.9v0.6c0,0,0,0,0,0c-0.3,0.1-0.6,0.2-0.9,0.2
				c-0.3,0-0.6,0-0.8,0L28.4,55h0c0.2-0.1,0.5-0.2,0.9-0.2C29.6,54.8,29.9,54.8,30.2,54.9C30.2,54.9,30.2,54.9,30.2,54.9z"/>
		</g>
		<g>
			<path fill-rule="evenodd" clip-rule="evenodd" fill="#6AB3D0" d="M25.9,54c-0.8,0.1-1.2,0.1-1.3,0.1c-0.6-0.1-1.2-0.3-1.8-0.4
				c-0.3-0.1-0.5-0.2-0.8-0.3c-0.9-0.3-1.8-0.6-2.8-0.9c-0.8-0.3-1.5-0.5-2.2-0.8c-2.4-0.9-4.1-1.7-5.1-2.4c0,0-0.1-0.1-0.3-0.4
				c-0.1-0.1-0.2-0.3-0.4-0.5c0,0-0.1-0.1-0.2-0.2C11,48.3,11,48.2,11,48.2c-0.3-0.3-0.5-0.7-0.6-1.2c0-0.2,0-0.5,0-1.1
				c0-2,2.1-4.3,6.3-6.9l2.6,1.2c0,0,0,0,0,0c0.2,0.1,0.7,0.3,1.5,0.6c0.8,0.3,0.4,0.7-1.3,1.3c-0.7,0.4-1,0.8-0.9,1.2
				c0.1,0.4,1.1,0.6,3.2,0.5c2.1-0.1,3.7,0,4.8,0.3c1.1,0.3,1.8,0.8,2,1.4c0.1,0.1,0.1,0.3,0.1,0.5c0,0.4-0.1,0.8-0.1,1.3
				c-0.1,0.7-0.2,1.3-0.3,1.9C27.7,51.8,26.9,53.5,25.9,54z M18.3,77c0.5-0.5,1.5-0.7,3-0.5c1.4,0.3,2.4,0.5,3,0.6
				c0.5,0.1,1.7,0.3,3.5,0.4c0.7,0.1,1.3,0.2,1.8,0.3c0.7,0.1,1.1,0.3,1.2,0.5c0.1,0.3,0.4,1.1,0.8,2.2c0.1,0.4,0.2,0.8,0.3,1.1
				c0,0.1,0,0.1,0,0.2c0,0.2,0,0.4,0,0.6c0.1,1-0.1,1.6-0.6,1.8c-0.5,0.1-1.3,0.1-2.4-0.1c-0.1,0-0.1,0-0.2,0
				c-1.1-0.2-2.3-0.5-3.6-0.8c-1.4-0.3-2.2-0.4-2.4-0.4c-0.5,0-0.8,0-0.9,0c-0.4,0.1-0.6,0.3-0.6,0.6c0,0.5,0.2,0.9,0.7,1.3
				l-2.3,0.8c-0.2-0.1-0.3-0.2-0.4-0.3c-1.3-1-2-2.2-2.1-3.4c0-0.1-0.1-0.1-0.1-0.2c0-0.1,0-0.1,0-0.3C17.1,79.8,17.5,78.3,18.3,77z
				 M15.5,67.5c0.2-0.2,0.5-0.5,0.6-0.9c0.3-0.4,0.8-0.6,1.6-0.6c0.7,0,1.5,0.1,2.1,0.2c0.6,0.1,1.4,0.2,2.2,0.4c0,0,0.1,0,0.1,0
				c0.8,0.1,1.6,0.2,2.4,0.4s1.4,0.3,1.9,0.4c0.5,0.1,1.1,0.3,2,0.4c0.1,0,0.2,0.1,0.3,0.1c0.3,0.1,0.5,0.1,0.8,0.3
				c0.5,0.2,1,0.5,1.5,0.8c0.1,0.2,0.2,0.3,0.3,0.5c0.2,0.4,0.3,0.8,0.4,1.3c0.1,0.4,0.1,0.9,0.1,1.4c0,0.6-0.5,1.5-1.5,2.6
				c0,0-0.1,0.1-0.1,0.1c-0.3,0.1-0.5,0.3-0.6,0.4C29.4,75,29.3,75,29.3,75c-0.6,0.2-1.4,0.3-2.1,0.3c-1,0-2-0.1-3-0.3
				c-1.2-0.2-2.4-0.4-3.5-0.4c-0.5,0-1.1-0.1-1.6-0.3c-0.6-0.2-1.3-0.4-2-0.6c-0.4-0.1-0.8-0.3-1.1-0.5c-0.1-0.2-0.1-0.4-0.3-0.6
				c-0.3-0.8-0.4-1.8-0.4-2.9c0-0.2,0-0.3,0-0.4c0-0.6,0.1-1.1,0.3-1.5C15.5,67.6,15.5,67.6,15.5,67.5z M25.7,65.3c0,0-0.1,0-0.2,0
				c-0.5-0.1-1.2-0.2-2-0.4c-0.9-0.2-2.1-0.4-3.4-0.7c-0.7-0.2-1.3-0.4-1.9-0.5c-1.5-0.4-2.4-0.7-2.8-1c-1.1-0.7-1.6-2.2-1.6-4.3
				c0-0.4,0-0.7,0-1c0-0.2,0-0.4,0-0.6c0-0.7,0-1.2,0.1-1.4c0.1-0.4,0.4-0.8,0.8-1.3c0.6,0,2.4,0.3,5.4,0.6c1.1,0.1,2.1,0.2,3,0.4
				c0.1,0,0.3,0,0.4,0c0.6,0.1,1.2,0.2,1.6,0.3c1.1,0.2,2,0.4,2.5,0.5c0.6,0.2,1,0.5,1.4,0.9c0.1,0.1,0.2,0.2,0.3,0.3
				c0.1,0.1,0.1,0.2,0.1,0.3c0.1,0.1,0.2,0.3,0.3,0.4c0.2,0.2,0.3,0.4,0.4,0.5c0,0.2,0.1,1.2,0.1,3.1c0.2,1.9,0,3.1-0.5,3.6
				c-0.2,0.2-0.4,0.2-0.8,0.2C27.7,65,26.7,65,25.7,65.3z M16.7,48c0.5,0.2,1.3,0.5,2.3,1c0.1,0,0.2,0.1,0.3,0.1h1
				c0-0.1,0-0.1,0-0.1c-0.1-0.2-0.1-0.3-0.2-0.5c-0.8-0.2-2.3-0.7-4.6-1.5v0.4C15.9,47.7,16.2,47.9,16.7,48z M18.9,47.5
				c0.2,0.1,0.4,0.2,0.6,0.3C19.3,47.6,19.1,47.5,18.9,47.5L18.9,47.5z M27.3,59.5v-0.6h-1c0,0.1,0.1,0.3,0.1,0.5
				c0.1,0.3,0.1,0.6,0.1,0.8c0.1,0.5,0.2,0.8,0.3,0.9c0.1,0,0.2-0.1,0.3-0.4c0.1-0.1,0.1-0.2,0.2-0.4C27.3,59.8,27.3,59.5,27.3,59.5
				z M20.7,70.6c0,0,0.1,0,0.1,0c1,0.2,2.6,0.3,4.7,0.3c-0.2-0.3-0.6-0.5-1.4-0.7c-0.8-0.2-1.3-0.4-1.4-0.4h-2
				C20.8,69.9,20.7,70.2,20.7,70.6z"/>
			<path fill-rule="evenodd" clip-rule="evenodd" fill="#3586A8" d="M22,84.7c-0.5-0.4-0.7-0.8-0.7-1.3c0-0.3,0.2-0.5,0.6-0.6
				c0.1,0,0.4,0,0.9,0c0.2,0,1,0.1,2.4,0.4c1.3,0.3,2.5,0.5,3.6,0.8c0.1,0,0.1,0,0.2,0c1.1,0.2,1.9,0.3,2.4,0.1
				c0.5-0.1,0.7-0.7,0.6-1.8c0-0.2,0-0.4,0-0.6c0-0.1,0-0.1,0-0.2c-0.1-0.3-0.2-0.6-0.3-1.1c-0.4-1.1-0.7-1.9-0.8-2.2
				c-0.1-0.2-0.5-0.4-1.2-0.5c-0.5-0.1-1.1-0.2-1.8-0.3c-1.8-0.2-3-0.3-3.5-0.4c-0.6-0.1-1.5-0.3-3-0.6c-1.5-0.2-2.5-0.1-3,0.5
				c0.3-0.7,0.8-1.3,1.4-2c-1.3-0.2-2.2-0.4-2.7-0.8c-0.4-0.2-0.8-0.6-1.1-1.1c0.4,0.2,0.8,0.4,1.1,0.5c0.7,0.2,1.4,0.4,2,0.6
				c0.5,0.1,1.1,0.2,1.6,0.3c1.1,0.1,2.3,0.2,3.5,0.4c1,0.2,2,0.3,3,0.3c0.8,0,1.5-0.1,2.1-0.3c0,0,0.1,0,0.3-0.1
				c0.1-0.1,0.3-0.2,0.6-0.4c0,0,0.1-0.1,0.1-0.1c1-1.1,1.5-1.9,1.5-2.6c0-0.5,0-0.9-0.1-1.4c-0.1-0.4-0.2-0.8-0.4-1.3
				c-0.1-0.2-0.1-0.3-0.3-0.5c-0.5-0.3-1-0.6-1.5-0.8c-0.2-0.1-0.5-0.2-0.8-0.3c-0.1,0-0.3-0.1-0.3-0.1c-0.8-0.2-1.5-0.3-2-0.4
				c-0.5-0.1-1.1-0.2-1.9-0.4s-1.6-0.3-2.4-0.4c-0.1,0-0.1,0-0.1,0c-0.8-0.1-1.6-0.3-2.2-0.4C19.2,66,18.5,66,17.8,66
				c-0.8,0-1.3,0.2-1.6,0.6c-0.2,0.4-0.4,0.7-0.6,0.9c0.1-0.3,0.2-0.6,0.4-0.9c0.1-0.2,0.2-0.4,0.4-0.7c0.5-0.6,1.1-1.4,2-2.3
				c0.6,0.2,1.2,0.4,1.9,0.5c1.3,0.3,2.5,0.5,3.4,0.7c0.9,0.2,1.5,0.3,2,0.4c0.1,0,0.1,0,0.2,0c1.7,0.3,3,0.5,3.8,0.6
				c0,0,0.1,0,0.2,0c1.2,0,2.7-0.3,4.5-1c0.1-0.1,0.3-0.1,0.4-0.2c0.2-0.1,0.4-0.1,0.6-0.2c1.1-0.4,2.7-1,4.9-1.9
				c-2.2,0.9-3.8,1.5-4.9,1.9c-0.3,0.1-0.5,0.1-0.6,0.2c-0.1,0.1-0.3,0.1-0.4,0.2c-1.8,0.6-3.3,1-4.5,1c-0.1,0-0.1,0-0.2,0
				c-0.8,0-2.1-0.2-3.8-0.6c1-0.3,2-0.3,3.1-0.1c0.3,0,0.6,0,0.8-0.2c0.5-0.5,0.7-1.7,0.5-3.6c0-1.9-0.1-2.9-0.1-3.1
				c-0.1-0.1-0.2-0.3-0.4-0.5c-0.1-0.1-0.2-0.3-0.3-0.4c0-0.1,0-0.1-0.1-0.3c-0.1-0.1-0.1-0.2-0.3-0.3c-0.3-0.4-0.8-0.7-1.4-0.9
				c-0.5-0.1-1.4-0.3-2.5-0.5c-0.5,0-1-0.1-1.6-0.3c-0.1,0-0.2,0-0.4,0c-0.9-0.1-1.9-0.3-3-0.4c-3-0.4-4.8-0.6-5.4-0.6
				c0.5-0.6,1.3-1.4,2.4-2.3c0.7,0.3,1.4,0.5,2.2,0.8c1,0.3,1.9,0.6,2.8,0.9c0.3,0.1,0.5,0.1,0.8,0.3c0.6,0.1,1.1,0.3,1.8,0.4
				c0,0,0.4,0,1.3-0.1c1-0.5,1.8-2.2,2.4-5c0.1-0.6,0.1-1.2,0.3-1.9c0-0.5,0.1-0.9,0.1-1.3c0-0.2,0-0.3-0.1-0.5
				c-0.2-0.6-0.9-1.1-2-1.4c-1.1-0.3-2.7-0.4-4.8-0.3c-2,0.1-3.1,0-3.2-0.5c-0.1-0.4,0.2-0.8,0.9-1.2c1.7-0.5,2.1-1,1.3-1.3
				c-0.8-0.3-1.4-0.5-1.5-0.6c0.5,0.1,1.3,0.3,2.3,0.5c1.8,0.4,3,0.9,3.5,1.4c0.3,0,0.6-0.1,1-0.1c1.5-0.1,3-0.2,4.3-0.2
				c1.4-0.1,2.8-0.1,4-0.1c2.5,0,4.5,0.6,6,1.9c1.6,1.3,2.2,2.8,1.9,4.6c-0.3,1.8-0.6,2.9-0.9,3.2c-0.7,0.7-1.6,1.1-2.5,1.3
				c4,2,5.3,4.9,3.9,8.9c-0.9,0.4-1.7,0.7-2.5,1c1.2,0.7,2,1.8,2.6,3.3c0.3,0.5,0.4,1.3,0.3,2.4c-0.1,1.1-0.8,2.2-2.3,3.3
				c-1.5,1.1-2.4,1.7-2.7,1.9c-0.2,0.1-0.4,0.2-0.5,0.3c1.4,0.3,2.3,0.5,2.8,0.8c0.5,0.2,0.8,1,1,2.2c0.2,1.3,0.1,2.2-0.1,2.8
				c-0.2,0.6-0.7,1.2-1.5,1.8c-0.8,0.6-1.8,1.3-3,2.1c-1.8,1.2-3.2,1.8-4.1,1.9c-0.1,0-0.3,0-0.4,0c-1.7-0.1-3.2-0.1-4.4-0.2
				c-0.1,0-0.3,0-0.5,0c-1.9-0.1-3-0.3-3.5-0.5h-1.2L22,84.7z M21.3,42.5c0.1,0,1.3-0.1,3.7-0.3C22.6,42.4,21.4,42.5,21.3,42.5z
				 M25.9,54c1.2-0.1,3.1-0.3,5.9-0.6c1.2-0.2,2.4-0.3,3.5-0.4c1.3-0.1,2.4-0.2,3.5-0.3c-1.1,0.1-2.2,0.2-3.5,0.3
				c-1.1,0.1-2.2,0.2-3.5,0.4C29,53.7,27,53.9,25.9,54z M19.6,75c0.8,0.1,1.8,0.2,2.9,0.3c0.4,0,2,0.3,4.7,0.8
				c0.3,0.1,0.6,0.1,0.9,0.2c0.5,0.1,1,0.1,1.4,0.3c1.2,0.2,2,0.3,2.3,0.3c0.4,0,1.2-0.3,2.4-1c0.6-0.3,1.7-1,3.3-2
				c-1.6,1-2.7,1.7-3.3,2c-1.1,0.6-1.9,1-2.4,1c-0.3,0-1.1-0.1-2.3-0.3c-0.4-0.1-0.9-0.2-1.4-0.3c-0.3-0.1-0.6-0.1-0.9-0.2
				c-2.7-0.5-4.3-0.7-4.7-0.8C21.4,75.2,20.5,75.1,19.6,75z"/>
			<path fill-rule="evenodd" clip-rule="evenodd" fill="#9FE8F9" d="M18.9,47.5L18.9,47.5c0.3,0,0.4,0.1,0.6,0.3
				C19.3,47.7,19.1,47.6,18.9,47.5z M16.7,48c-0.5-0.1-0.8-0.3-1.1-0.6V47c2.3,0.8,3.8,1.4,4.6,1.5c0.1,0.1,0.1,0.3,0.2,0.5
				c0,0,0,0.1,0,0.1h-1C19.2,49.1,19.1,49,19,49C18,48.6,17.2,48.3,16.7,48z M27.3,59.5c0,0.1,0,0.3-0.1,0.8
				c-0.1,0.2-0.1,0.3-0.2,0.4c0,0.2-0.1,0.3-0.3,0.4c-0.1,0-0.1-0.3-0.3-0.9c0-0.2-0.1-0.5-0.1-0.8c0-0.2-0.1-0.4-0.1-0.5h1V59.5z
				 M20.7,70.6c0-0.4,0-0.7,0-0.9h2c0.2,0,0.6,0.2,1.4,0.4c0.8,0.2,1.2,0.4,1.4,0.7c-2.1,0-3.7-0.1-4.7-0.3
				C20.8,70.6,20.7,70.6,20.7,70.6z"/>
			
				<path fill-rule="evenodd" clip-rule="evenodd" fill="none" stroke="#0F5768" stroke-width="0.75" stroke-linecap="round" stroke-linejoin="round" stroke-miterlimit="3" d="
				M19.2,40.3c0.5,0.1,1.3,0.3,2.3,0.5c1.8,0.4,3,0.9,3.5,1.4c0.3,0,0.6-0.1,1-0.1c1.5-0.1,3-0.2,4.3-0.2c1.4-0.1,2.8-0.1,4-0.1
				c2.5,0,4.5,0.6,6,1.9c1.6,1.3,2.2,2.8,1.9,4.6c-0.3,1.8-0.6,2.9-0.9,3.2c-0.7,0.7-1.6,1.1-2.5,1.3c4,2,5.3,4.9,3.9,8.9
				c-0.9,0.4-1.7,0.7-2.5,1c1.2,0.7,2,1.8,2.6,3.3c0.3,0.5,0.4,1.3,0.3,2.4c-0.1,1.1-0.8,2.2-2.3,3.3c-1.5,1.1-2.4,1.7-2.7,1.9
				c-0.2,0.1-0.4,0.2-0.5,0.3c1.4,0.3,2.3,0.5,2.8,0.8c0.5,0.2,0.8,1,1,2.2c0.2,1.3,0.1,2.2-0.1,2.8c-0.2,0.6-0.7,1.2-1.5,1.8
				c-0.8,0.6-1.8,1.3-3,2.1c-1.8,1.2-3.2,1.8-4.1,1.9c-0.1,0-0.3,0-0.4,0c-1.7-0.1-3.2-0.1-4.4-0.2c-0.1,0-0.3,0-0.5,0
				c-1.9-0.1-3-0.3-3.5-0.5h-1.2 M19.7,85.5c-0.2-0.1-0.3-0.2-0.4-0.3c-1.3-1-2-2.2-2.1-3.4c0-0.1-0.1-0.1-0.1-0.2
				c0-0.1,0-0.1,0-0.3c0-1.6,0.4-3,1.1-4.4c0.3-0.7,0.8-1.3,1.4-2c-1.3-0.2-2.2-0.4-2.7-0.8c-0.4-0.2-0.8-0.6-1.1-1.1
				c-0.1-0.2-0.1-0.4-0.3-0.6c-0.3-0.8-0.4-1.8-0.4-2.9c0-0.2,0-0.3,0-0.4c0-0.6,0.1-1.1,0.3-1.5c0-0.1,0-0.2,0-0.3
				c0.1-0.3,0.2-0.6,0.4-0.9c0.1-0.2,0.2-0.4,0.4-0.7c0.5-0.6,1.1-1.4,2-2.3c-1.5-0.4-2.4-0.7-2.8-1c-1.1-0.7-1.6-2.2-1.6-4.3
				c0-0.4,0-0.7,0-1c0-0.2,0-0.4,0-0.6c0-0.7,0-1.2,0.1-1.4c0.1-0.4,0.4-0.8,0.8-1.3c0.5-0.6,1.3-1.4,2.4-2.3
				c-2.4-0.9-4.1-1.7-5.1-2.4c0,0-0.1-0.1-0.3-0.4c-0.1-0.1-0.2-0.3-0.4-0.5c0,0-0.1-0.1-0.2-0.2C11,48.3,11,48.2,11,48.2
				c-0.3-0.3-0.5-0.7-0.6-1.2c0-0.2,0-0.5,0-1.1c0-2,2.1-4.3,6.3-6.9 M21.3,42.5c0.1,0,1.3-0.1,3.7-0.3 M25.9,54
				c1.2-0.1,3.1-0.3,5.9-0.6c1.2-0.2,2.4-0.3,3.5-0.4c1.3-0.1,2.4-0.2,3.5-0.3 M25.7,65.3c1.7,0.3,3,0.5,3.8,0.6c0,0,0.1,0,0.2,0
				c1.2,0,2.7-0.3,4.5-1c0.1-0.1,0.3-0.1,0.4-0.2c0.2-0.1,0.4-0.1,0.6-0.2c1.1-0.4,2.7-1,4.9-1.9 M17,51.8c0.7,0.3,1.4,0.5,2.2,0.8
				c1,0.3,1.9,0.6,2.8,0.9c0.3,0.1,0.5,0.1,0.8,0.3c0.6,0.1,1.1,0.3,1.8,0.4c0,0,0.4,0,1.3-0.1 M25.7,65.3c0,0-0.1,0-0.2,0
				c-0.5-0.1-1.2-0.2-2-0.4c-0.9-0.2-2.1-0.4-3.4-0.7c-0.7-0.2-1.3-0.4-1.9-0.5 M19.6,75c0.8,0.1,1.8,0.2,2.9,0.3
				c0.4,0,2,0.3,4.7,0.8c0.3,0.1,0.6,0.1,0.9,0.2c0.5,0.1,1,0.1,1.4,0.3c1.2,0.2,2,0.3,2.3,0.3c0.4,0,1.2-0.3,2.4-1
				c0.6-0.3,1.7-1,3.3-2"/>
		</g>
		<g>
			<path fill-rule="evenodd" clip-rule="evenodd" fill="#9FE8F9" d="M47.8,22.8c-0.2-0.2-1-1-2.5-2.5c-0.1-0.1-0.1-0.1-0.2-0.3
				c-0.8-0.9-1.5-1.6-1.9-2.1h1.3c0.5,0.4,1,1.1,1.8,2c0.7,0.9,2.3,2.5,4.8,4.8C51.7,26.2,50.6,25.5,47.8,22.8z"/>
			<path fill-rule="evenodd" clip-rule="evenodd" fill="#6AB3D0" d="M47.8,22.8c2.9,2.7,4,3.4,3.2,2c-2.4-2.3-4-3.9-4.8-4.8
				c-0.7-0.9-1.3-1.6-1.8-2h-1.3c0.4,0.5,1.1,1.2,1.9,2.1c0.1,0.1,0.1,0.2,0.2,0.3C46.7,21.8,47.5,22.6,47.8,22.8z M48.1,29.4
				L48.1,29.4c-0.8-1-1.9-2-3.3-3.1c-1.6-1.1-2.8-2-3.6-2.6c-2.8-2.2-4.1-5.1-4.1-8.6c0-1.3,0.5-2.5,1.5-3.8
				c0.2-0.3,0.4-0.5,0.5-0.7c0.8,0.1,1.6,0.4,2.6,0.9c0.3,0.8,2.1,2.6,5.2,5.2c3.1,2.6,5.1,4.1,6,4.3c0.4,0.1,0.9,0.5,1.4,1.1
				c0,0,0,0.1,0,0.1c-0.3,0.3-0.6,0.7-1,1.1c-0.4,0.5-0.9,0.9-1.6,1.4l-0.1,0.5C50.3,26.4,49.2,27.8,48.1,29.4z"/>
			<path fill-rule="evenodd" clip-rule="evenodd" fill="#3586A8" d="M39.1,10.6c-0.2,0.2-0.4,0.4-0.5,0.7c-1,1.3-1.5,2.5-1.5,3.8
				c0,3.5,1.4,6.4,4.1,8.6c0.8,0.6,2,1.5,3.6,2.6c1.4,1.1,2.5,2.1,3.2,3.1h0c0,0.1,0,0.6,0.1,1.5c0.1,0.9-0.7,1.8-2.5,2.7
				c-0.1,0.1-0.1,0.2-0.2,0.3l-2.5-2.4c-3.8-2.7-6-4.9-6.9-6.5c-0.8-1.7-1.3-3.4-1.6-5c-0.2-1.6-0.2-3.1,0-4.5
				c0.3-1.5,1-2.7,2.1-3.7C37.4,11,38.2,10.6,39.1,10.6z"/>
			
				<path fill-rule="evenodd" clip-rule="evenodd" fill="none" stroke="#0F5768" stroke-width="0.75" stroke-linecap="round" stroke-linejoin="round" stroke-miterlimit="3" d="
				M45.6,33.9l-2.5-2.4c-3.8-2.7-6-4.9-6.9-6.5c-0.8-1.7-1.3-3.4-1.6-5c-0.2-1.6-0.2-3.1,0-4.5c0.3-1.5,1-2.7,2.1-3.7
				c0.6-0.8,1.4-1.2,2.4-1.1c0.8,0.1,1.6,0.4,2.6,0.9c0.3,0.8,2.1,2.6,5.2,5.2c3.1,2.6,5.1,4.1,6,4.3c0.4,0.1,0.9,0.5,1.4,1.1"/>
		</g>
	</g>
</g>
</svg>
