<?xml version="1.0" encoding="utf-8"?>
<!-- Generator: Adobe Illustrator 16.0.0, SVG Export Plug-In . SVG Version: 6.00 Build 0)  -->
<!DOCTYPE svg PUBLIC "-//W3C//DTD SVG 1.1//EN" "http://www.w3.org/Graphics/SVG/1.1/DTD/svg11.dtd">
<svg version="1.1" id="Layer_1" xmlns="http://www.w3.org/2000/svg" xmlns:xlink="http://www.w3.org/1999/xlink" x="0px" y="0px"
	 width="23px" height="75px" viewBox="0 0 23 75" enable-background="new 0 0 23 75" xml:space="preserve">
<g>
	<g>
		<g>
			
				<linearGradient id="SVGID_1_" gradientUnits="userSpaceOnUse" x1="-20.5752" y1="-2.3501" x2="-2.5" y2="-2.3501" gradientTransform="matrix(-1 0 0 -1 0 0)">
				<stop  offset="0" style="stop-color:#F54541"/>
				<stop  offset="0.2353" style="stop-color:#D10E0A"/>
				<stop  offset="0.302" style="stop-color:#FF6C69"/>
				<stop  offset="0.3725" style="stop-color:#D00E0A"/>
				<stop  offset="0.6941" style="stop-color:#CD0D0A"/>
				<stop  offset="0.749" style="stop-color:#A10A08"/>
				<stop  offset="1" style="stop-color:#640504"/>
			</linearGradient>
			<path fill-rule="evenodd" clip-rule="evenodd" fill="url(#SVGID_1_)" d="M20.3,4.1c0-0.2-0.4-0.4-1.3-0.6
				c-0.4-0.1-0.8-0.1-1.3-0.1c-1.7-0.2-3.8-0.3-6.2-0.3c-2.4,0-4.5,0.1-6.2,0.3c-0.4,0-0.8,0.1-1.2,0.1C3.5,3.7,3.1,3.9,2.9,4l0,0.1
				c-0.2-0.3-0.3-0.6-0.4-1c0-0.3,0-0.6,0-0.9C2.8,1.8,2.9,1.5,3,1.4C3.2,1.2,4,1,5.4,0.8c1.7-0.1,3.8-0.2,6.2-0.2
				c2.4,0,4.4,0.1,6.2,0.2c1.5,0.3,2.4,0.5,2.5,0.8C20.7,2.4,20.7,3.2,20.3,4.1z"/>
			<path fill-rule="evenodd" clip-rule="evenodd" fill="#660F0E" d="M4.1,3.5v1.1C3.5,4.5,3.1,4.4,2.9,4.3l0-0.1v0l0-0.1
				C3.1,3.9,3.5,3.7,4.1,3.5z M19,4.6V3.5c0.9,0.2,1.3,0.4,1.3,0.6v0C20.3,4.4,19.8,4.5,19,4.6z"/>
			
				<linearGradient id="SVGID_2_" gradientUnits="userSpaceOnUse" x1="-18.9502" y1="-30.4248" x2="-4.1499" y2="-30.4248" gradientTransform="matrix(-1 0 0 -1 0 0)">
				<stop  offset="0" style="stop-color:#F54541"/>
				<stop  offset="0.2353" style="stop-color:#D10E0A"/>
				<stop  offset="0.302" style="stop-color:#FF6C69"/>
				<stop  offset="0.3725" style="stop-color:#D00E0A"/>
				<stop  offset="0.6941" style="stop-color:#CD0D0A"/>
				<stop  offset="0.749" style="stop-color:#A10A08"/>
				<stop  offset="1" style="stop-color:#640504"/>
			</linearGradient>
			<path fill-rule="evenodd" clip-rule="evenodd" fill="url(#SVGID_2_)" d="M4.3,57.5l-0.1-0.1V4.6V3.5c0.4-0.1,0.8-0.1,1.2-0.1
				c1.7-0.2,3.8-0.3,6.2-0.3c2.4,0,4.4,0.1,6.2,0.3c0.5,0,0.9,0.1,1.3,0.1v1.1v52.7c-0.4,0.1-0.9,0.1-1.6,0.2
				c-1.7,0.1-3.7,0.2-6.1,0.2c-2.3,0-4.3-0.1-6-0.2C4.8,57.5,4.5,57.5,4.3,57.5z"/>
			<path fill-rule="evenodd" clip-rule="evenodd" fill="#BF0C09" d="M5.9,59.9l-1.6-2.5c0.2,0,0.6,0.1,1,0.1c1.7,0.1,3.7,0.2,6,0.2
				c2.4,0,4.4-0.1,6.1-0.2c0.7-0.1,1.2-0.1,1.6-0.2l-2,2.5v0.1C13.2,60.4,9.5,60.4,5.9,59.9z"/>
			
				<linearGradient id="SVGID_3_" gradientUnits="userSpaceOnUse" x1="-15.9497" y1="-66.9868" x2="-4.9687" y2="-66.9868" gradientTransform="matrix(-0.9972 7.512953e-002 -1.132182e-002 -1.002 -1.397170e-005 5.077571e-005)">
				<stop  offset="0" style="stop-color:#FFFFFF;stop-opacity:0.8706"/>
				<stop  offset="0.4784" style="stop-color:#FFFFFF;stop-opacity:0.451"/>
				<stop  offset="1" style="stop-color:#FFFFFF"/>
			</linearGradient>
			<path fill-rule="evenodd" clip-rule="evenodd" fill="url(#SVGID_3_)" d="M16,72.6c-2.8,0.6-5.7,0.7-8.7,0.1c-0.1,0-0.2,0-0.3-0.1
				L5.9,59.9c3.7,0.5,7.4,0.5,11.1,0L16,72.6z"/>
			
				<path fill-rule="evenodd" clip-rule="evenodd" fill="none" stroke="#FFFFFF" stroke-width="0.1" stroke-linecap="round" stroke-linejoin="round" stroke-miterlimit="3" stroke-opacity="0.1098" d="
				M20.3,4.1c0.4-0.9,0.4-1.7,0-2.5c-0.2-0.3-1-0.5-2.5-0.8c-1.7-0.1-3.8-0.2-6.2-0.2c-2.4,0-4.5,0.1-6.2,0.2C4,1,3.2,1.2,3,1.4
				C2.9,1.5,2.8,1.8,2.5,2.3c0,0.2,0,0.5,0,0.9c0,0.4,0.1,0.7,0.4,1l0-0.1c0.2-0.2,0.6-0.4,1.3-0.5c0.4-0.1,0.8-0.1,1.2-0.1
				c1.7-0.2,3.8-0.3,6.2-0.3c2.4,0,4.4,0.1,6.2,0.3c0.5,0,0.9,0.1,1.3,0.1C19.8,3.7,20.3,3.9,20.3,4.1z M2.9,4.1L2.9,4.1l0,0.1
				c0.2,0.1,0.6,0.3,1.3,0.4V3.5 M19,4.6c0.9-0.1,1.3-0.3,1.3-0.5v0 M19,3.5v1.1 M4.3,57.5c0.2,0,0.6,0.1,1,0.1
				c1.7,0.1,3.7,0.2,6,0.2c2.4,0,4.4-0.1,6.1-0.2c0.7-0.1,1.2-0.1,1.6-0.2V4.6 M16,72.6l1-12.7c-3.7,0.5-7.4,0.5-11.1,0L7,72.6
				 M16.9,59.9v-0.1l2-2.5 M4.1,4.6v52.7l0.1,0.1l1.6,2.5"/>
		</g>
	</g>
	
		<radialGradient id="SVGID_4_" cx="626.2998" cy="-12.1001" r="7.8036" gradientTransform="matrix(0.3043 -2.098125e-002 -2.019058e-002 -0.1325 -176.8494 84.2984)" gradientUnits="userSpaceOnUse">
		<stop  offset="0" style="stop-color:#FFFFFF"/>
		<stop  offset="0.1647" style="stop-color:#FFFFFF;stop-opacity:0.651"/>
		<stop  offset="0.3608" style="stop-color:#FFFFFF;stop-opacity:0.2784"/>
		<stop  offset="0.502" style="stop-color:#FFFFFF;stop-opacity:9.411765e-002"/>
		<stop  offset="0.698" style="stop-color:#FFFFFF;stop-opacity:6.666667e-002"/>
		<stop  offset="0.8588" style="stop-color:#FFFFFF;stop-opacity:2.745098e-002"/>
		<stop  offset="1" style="stop-color:#FFFFFF;stop-opacity:0"/>
	</radialGradient>
	<path fill-rule="evenodd" clip-rule="evenodd" fill="url(#SVGID_4_)" d="M15.5,71.9c-0.5-0.2-1.1-0.2-1.7-0.2
		c-0.7,0-1.2,0.2-1.6,0.4c-0.4,0.2-0.6,0.5-0.6,0.8c0,0.3,0.3,0.5,0.8,0.7c0.5,0.2,1.1,0.2,1.7,0.2c0.5,0,1-0.1,1.4-0.3L15.5,71.9
		C15.5,71.9,15.5,71.9,15.5,71.9z"/>
	
		<radialGradient id="SVGID_5_" cx="-636.853" cy="-25.4854" r="3.7817" gradientTransform="matrix(0.5387 2.324649e-002 -1.783830e-003 -0.1886 351.8981 81.8742)" gradientUnits="userSpaceOnUse">
		<stop  offset="0" style="stop-color:#FFFFFF"/>
		<stop  offset="0.1647" style="stop-color:#FFFFFF;stop-opacity:0.651"/>
		<stop  offset="0.3608" style="stop-color:#FFFFFF;stop-opacity:0.2784"/>
		<stop  offset="0.502" style="stop-color:#FFFFFF;stop-opacity:9.019608e-002"/>
		<stop  offset="0.698" style="stop-color:#FFFFFF;stop-opacity:6.666667e-002"/>
		<stop  offset="0.8588" style="stop-color:#FFFFFF;stop-opacity:2.745098e-002"/>
		<stop  offset="1" style="stop-color:#FFFFFF;stop-opacity:0"/>
	</radialGradient>
	<path fill-rule="evenodd" clip-rule="evenodd" fill="url(#SVGID_5_)" d="M7.4,71.3v1c0,0,0,0,0,0c0.4,0.2,0.9,0.3,1.4,0.3
		c0.5,0,0.9,0,1.2-0.1l0.2-1.1h0c-0.4-0.2-0.9-0.2-1.4-0.3C8.3,71.1,7.8,71.2,7.4,71.3C7.4,71.3,7.4,71.3,7.4,71.3z"/>
</g>
</svg>
