<?xml version="1.0" encoding="utf-8"?>
<!-- Generator: Adobe Illustrator 16.0.0, SVG Export Plug-In . SVG Version: 6.00 Build 0)  -->
<!DOCTYPE svg PUBLIC "-//W3C//DTD SVG 1.1//EN" "http://www.w3.org/Graphics/SVG/1.1/DTD/svg11.dtd">
<svg version="1.1" id="Layer_1" xmlns="http://www.w3.org/2000/svg" xmlns:xlink="http://www.w3.org/1999/xlink" x="0px" y="0px"
	 width="80px" height="320px" viewBox="0 0 80 320" enable-background="new 0 0 80 320" xml:space="preserve">
<g opacity="0.5">
	<path fill="#FFFFFF" fill-opacity="0.7333" d="M56.9,45.9v-5.6l0,0H25.5c0.1,0,0.1,0.1,0.2,0.1v149.9v3.1l0,0
		c2,0.5,3.9,1.6,5.5,3.3c2.4,2.3,3.5,5.2,3.5,8.5v43.6c0,2.5-0.7,4.8-2,6.7c-0.4,0.7-0.9,1.3-1.5,1.9c-1.6,1.6-3.5,2.7-5.5,3.2v20.8
		v3.3c0,0.1,0,0.3,0,0.3c0.4,3.3,1.8,6.1,4.3,8.6c2.9,2.9,6.4,4.3,10.5,4.3c4.1,0,7.6-1.5,10.5-4.3c2.4-2.4,3.8-5.3,4.3-8.6
		c0-0.1,0-0.2,0-0.3v-38.3c0-1.3,0.5-2.2,1.7-2.9l0,0h3.3v-1.4v-1.8V138.6c-1.1-0.2-2.2-0.6-3.3-1.2c-0.5-0.4-1-0.8-1.5-1.3
		c-1.9-1.9-2.9-4.2-2.9-6.9c0-2.7,1-5,2.9-6.9c0.4-0.5,0.9-0.9,1.4-1.3H57v-6.5v-0.9l-0.3-0.1c-1.9-0.5-3.7-1.6-5.3-3.2
		c-2.4-2.4-3.6-5.3-3.6-8.6V76c0-3.5,1.2-6.4,3.6-8.6c0.8-0.7,1.7-1.4,2.8-1.9c0.4-0.2,1.3-0.6,2.8-1L56.9,45.9L56.9,45.9z
		 M67.8,15.1v4.4v14.9v5.9v24.3c1.6,0.6,3.1,1.6,4.4,2.9c2.4,2.4,3.6,5.3,3.6,8.6v25.7c0,3.4-1.2,6.3-3.6,8.6
		c-1.3,1.3-2.8,2.4-4.4,3.3v0.8v6.6h-0.1l0.1,0.1c0.5,0.3,0.9,0.7,1.3,1.1c1.9,1.9,2.9,4.2,2.9,6.9c0,2.7-1,5-2.9,6.9
		c-0.4,0.4-0.8,0.7-1.2,1c-0.1,0-0.1,0.1-0.2,0.1l0,0c-1.1,0.6-2.2,1-3.3,1.3V240v1.8v1.4h3.3l0,0v0.1l0,0l0,0
		c0.6,0.3,1,0.7,1.3,1.2l0.4,1.8l0,0v0.1l0,0v0.1v36.8c0,0.4,0,0.8-0.1,1.3c-0.2,2.7-0.7,5.3-1.6,7.7c-1.4,3.9-3.6,7.4-6.8,10.5
		c-1.3,1.4-2.7,2.6-4.2,3.6c-0.5,0.4-1.1,0.8-1.7,1.1c-4.3,2.5-9.1,3.8-14.3,3.8c-5.7,0-10.8-1.5-15.2-4.4c-1.7-1.1-3.4-2.5-5-4
		c-2.6-2.5-4.6-5.3-5.9-8.3c-1.3-2.8-2.1-6.1-2.5-9.9c-0.1-0.1-0.1-0.2-0.1-0.3v-24c-2-0.5-3.9-1.6-5.5-3.2
		c-2.4-2.4-3.6-5.2-3.6-8.6V205c0-3.4,1.2-6.2,3.6-8.5c1.6-1.6,3.4-2.7,5.5-3.2l0,0v-3.1v-150v-5.9V19.5v-4.4V6.5h13.4v8.6v4.4v14.9
		h31.2v-0.1V29v-9.5v-4.4V6.5h10.9v8.6H67.8z"/>
</g>
</svg>
