<?xml version="1.0" encoding="utf-8"?>
<!-- Generator: Adobe Illustrator 16.0.0, SVG Export Plug-In . SVG Version: 6.00 Build 0)  -->
<!DOCTYPE svg PUBLIC "-//W3C//DTD SVG 1.1//EN" "http://www.w3.org/Graphics/SVG/1.1/DTD/svg11.dtd">
<svg version="1.1" id="Layer_1" xmlns="http://www.w3.org/2000/svg" xmlns:xlink="http://www.w3.org/1999/xlink" x="0px" y="0px"
	 width="210px" height="350px" viewBox="0 0 210 350" enable-background="new 0 0 210 350" xml:space="preserve">
<g>
	<g>
		<g>
			<linearGradient id="SVGID_1_" gradientUnits="userSpaceOnUse" x1="293.0635" y1="-14.5762" x2="176.1224" y2="80.8018">
				<stop  offset="0" style="stop-color:#C4CDD2"/>
				<stop  offset="0.2824" style="stop-color:#E4F1F9"/>
				<stop  offset="0.4235" style="stop-color:#A2A29A"/>
				<stop  offset="0.6" style="stop-color:#A5A79C"/>
				<stop  offset="0.7529" style="stop-color:#EBF1EF"/>
				<stop  offset="1" style="stop-color:#A0A2A3"/>
			</linearGradient>
			<polygon fill-rule="evenodd" clip-rule="evenodd" fill="url(#SVGID_1_)" points="165.8,86.8 166.2,84.5 166.3,84.3 189.3,72.6 
				188.7,75.1 			"/>
			<linearGradient id="SVGID_2_" gradientUnits="userSpaceOnUse" x1="30.8447" y1="-21.772" x2="151.743" y2="120.4833">
				<stop  offset="0" style="stop-color:#C4CDD2"/>
				<stop  offset="0.2824" style="stop-color:#E4F1F9"/>
				<stop  offset="0.4235" style="stop-color:#A2A29A"/>
				<stop  offset="0.6" style="stop-color:#A5A79C"/>
				<stop  offset="0.7529" style="stop-color:#EBF1EF"/>
				<stop  offset="1" style="stop-color:#CBCFCE"/>
			</linearGradient>
			<polygon fill-rule="evenodd" clip-rule="evenodd" fill="url(#SVGID_2_)" points="166.3,84.3 13.3,49.6 36.9,38 189.3,72.5 
				189.3,72.6 			"/>
			<linearGradient id="SVGID_3_" gradientUnits="userSpaceOnUse" x1="12.3623" y1="50.6675" x2="165.9532" y2="85.5325">
				<stop  offset="0" style="stop-color:#C4CDD2"/>
				<stop  offset="0.2824" style="stop-color:#E4F1F9"/>
				<stop  offset="0.4235" style="stop-color:#A2A29A"/>
				<stop  offset="0.6" style="stop-color:#A5A79C"/>
				<stop  offset="0.7529" style="stop-color:#EBF1EF"/>
				<stop  offset="1" style="stop-color:#CBCFCE"/>
			</linearGradient>
			<polygon fill-rule="evenodd" clip-rule="evenodd" fill="url(#SVGID_3_)" points="165.8,86.8 12.9,52.1 13.3,49.6 166.3,84.3 
				166.2,84.5 			"/>
		</g>
		<g>
			<polygon fill-rule="evenodd" clip-rule="evenodd" fill="#FFFFFF" fill-opacity="0.502" points="188.9,73.3 166,84.9 166.1,84.8 
				13,50.1 13.1,49.6 166.2,84.3 166.2,84.4 189,72.8 			"/>
		</g>
	</g>
	<g>
		<g>
			<path fill-rule="evenodd" clip-rule="evenodd" fill="#CBCDDA" d="M132,76.9c0-0.1,0.1-0.2,0.1-0.3c0.1-0.3,0.2-0.7,0.4-1
				c0-0.1,0.1-0.2,0.2-0.3c0.1-0.2,0.1-0.3,0.1-0.5c0.1-0.4,0.3-0.7,0.4-1.1c0-0.1,0.1-0.3,0.1-0.4c0.1-0.4,0.3-0.8,0.4-1.1
				c0.1-0.1,0.1-0.3,0.2-0.4c0-0.1,0.1-0.3,0.1-0.4c0-0.1,0.1-0.2,0.1-0.3c2.6,1,3.5,0.8,2.8-0.6c0.1,0,0.2,0,0.2,0
				c0.2,0,0.3,0,0.5,0c0.1,0,0.3,0,0.5,0c0.1,0,0.1,0,0.3,0c0,0.1,0,0.2-0.1,0.3c-0.5,2.2,0.2,2.8,2,1.6c0.8,0.4,2.1,0.7,3.9,0.8
				c4.9,0.2,6.8-1.2,5.6-4.1c0.4-0.3,0.8-0.5,1.2-0.8c0.3-0.3,0.6-0.6,0.8-0.9c0.1-0.1,0.2-0.2,0.3-0.3c0.2-0.4,0.5-0.8,0.7-1.1
				c0.1-0.2,0.2-0.4,0.3-0.7c0-0.1,0.1-0.3,0.2-0.4c0-0.1,0-0.3,0-0.4c0-0.1,0.1-0.2,0.1-0.4c0-0.1,0-0.2,0.1-0.3c0-0.2,0-0.3,0-0.5
				c0-0.3,0-0.5-0.1-0.7c-0.1-0.3-0.2-0.6-0.3-0.9c-0.1-0.2-0.2-0.4-0.3-0.5c0,0,0-0.1,0-0.1c-0.4-0.4-0.8-0.8-1.3-1.2
				c-0.2-0.1-0.3-0.2-0.4-0.3c-0.2-0.2-0.5-0.3-0.9-0.5c-0.5-0.2-1-0.5-1.7-0.6c-0.3-0.2-0.7-0.3-1.1-0.5c-0.3-0.1-0.6-0.3-0.9-0.4
				h0c-0.2-0.6-0.6-1.2-1-2c-0.9-0.1-1.6,0.1-2.1,0.8c-0.6-0.2-1.2-0.4-1.8-0.6c-0.3-0.1-0.5-0.3-0.8-0.4c0,0-0.1,0-0.1,0
				c0.7-0.3,1.2-0.7,1.5-1.1c0,0,0.1,0,0.1,0c0.2,0.1,0.3,0.1,0.5,0.1c0.4,0.1,0.8,0.2,1.2,0.3c0.2,0.1,0.4,0.1,0.6,0.1
				c0.1,0,0.1,0.1,0.2,0.1c0.1,0.1,0.2,0.2,0.3,0.3c0.1,0.1,0.2,0.1,0.3,0.2c0.1,0,0.1,0,0.2,0c0.2,0.2,0.5,0.3,0.8,0.5
				c0.1,0,0.2,0.1,0.3,0.1c0.2,0.1,0.5,0.2,0.7,0.3c0.2,0.1,0.3,0.1,0.5,0.2c0.4,0.1,0.8,0.2,1.3,0.3c0.2,0,0.5,0.1,0.8,0.1
				c0.1,0,0.3,0,0.5,0c0,0,0.1,0,0.1,0c0.3,0,0.6,0,0.9,0c0.1,0,0.1,0,0.2,0c0.3,0.1,0.5,0.2,0.8,0.3c0.2,0.1,0.4,0.1,0.6,0.3
				c0.2,0.1,0.4,0.3,0.6,0.4c0.4,0.3,0.9,0.5,1.4,0.5c0,0,0.1,0,0.1,0c0.2,0,0.4,0.1,0.5,0.1c0.2,0.1,0.5,0.1,0.7,0.2
				c0.1,0,0.1,0.1,0.2,0.1c0.4,0.1,0.7,0.2,1.1,0.3c0.2,0,0.4,0.1,0.5,0.1c0.2,0.1,0.4,0.1,0.6,0.2c0.2,0.2,0.4,0.4,0.6,0.5
				s0.5,0.3,0.7,0.4c0,0,0.1,0,0.1,0c0.4,0.2,0.8,0.3,1.3,0.4c0,0,0.1,0,0.1,0c0,0,0,0,0,0h0c0.3,0.1,0.7,0.1,1,0.1
				c0.5,0.1,0.9,0.3,1.3,0.4c0,0,0.1,0,0.1,0c0.5,0.2,0.9,0.3,1.4,0.3c0.2,0.1,0.4,0.1,0.6,0.2c0.1,0,0.3,0.1,0.3,0.1
				c0,0,0.1,0,0.2,0l0,0.1c0.2,0.2,0.4,0.3,0.7,0.4c0.1,0,0.1,0.1,0.2,0.1c0.3,0.2,0.7,0.3,1.1,0.4l0.2,0.5l0.1,0.9l0.1,0.1
				c-0.1,0.2,0,0.4,0.1,0.4L169,65l0.1,0.3l2.7,1.5c0.1,0,0.3,0.1,0.5,0.1c0.1,0,0.2,0,0.3,0c0.1,0,0.3,0.1,0.4,0.1
				c0.2,0.2,0.4,0.4,0.5,0.7c0.1,0.1,0.2,0.3,0.3,0.5c0.1,0.1,0.1,0.2,0,0.4c0.1,0.1,0.2,0.2,0.3,0.3l0,0.2l0.5,0.1l2.3,0.9l0.8,1.7
				l0.1,0.3c0.2,0.2,0.3,0.4,0.3,0.8l0.1,0.1l0.2,0.1l1.1,0.4l0.1,0l1.5,0.6h0l0,0l0,0.9l-0.1,0.4l0,0.7l-0.1,0.8V77l-0.3,0.8
				l-0.3,0.6l-0.2,0.6l-0.3,0.7l0,0.2c-0.1,0-0.2,0.1-0.3,0.1c-0.2,0.1-0.3,0.2-0.5,0.3c-0.6,0.2-1.1,0.3-1.6,0.5
				c-0.1,0-0.3,0-0.3,0.1c-0.2,0.1-0.4,0.2-0.5,0.2c-0.1,0-0.3,0.1-0.5,0.1c-0.2,0-0.3,0.1-0.4,0.1c-0.1,0-0.2,0-0.3,0
				c-0.4,0.1-0.8,0.3-1.2,0.4c-0.3,0.1-0.6,0.2-0.9,0.3c-0.3,0-0.6,0.1-1,0.2h0v0c-0.1,0-0.3,0-0.4,0c-0.3,0-0.5,0.1-0.8,0.1
				c-0.6,0-1.2,0.1-1.7,0.3l-0.1-0.1c-0.3,0.1-0.5,0.1-0.8,0.1c0,0-0.1,0-0.2,0c-0.4,0.1-0.8,0.1-1.2,0.2c-0.4,0.1-0.8,0.1-1.2,0.1
				l-0.1-0.1l0,0.1c-0.5,0.1-1.1,0.2-1.7,0.2c-0.4-0.1-0.7-0.1-1-0.2c-0.3,0-0.5,0-0.7-0.1c-0.3,0-0.5,0-0.7-0.1c-0.2,0-0.3,0-0.5,0
				c-0.2-0.1-0.5-0.1-0.8-0.1c-0.5-0.1-1.1-0.2-1.6-0.3c-0.2,0-0.4,0-0.5,0c-0.2-0.1-0.4-0.1-0.6-0.1s-0.4-0.1-0.6-0.1
				c-0.4-0.1-0.7-0.1-1-0.2c-0.1,0-0.3,0-0.5,0c-0.3-0.1-0.6-0.1-1-0.1c-0.3-0.1-0.5-0.1-0.8-0.1c-0.7-0.1-1.4-0.2-2.1-0.3
				c-0.4-0.1-0.9-0.2-1.3-0.3c-0.2,0-0.4,0-0.6,0c-0.2-0.1-0.5-0.1-0.7-0.1c-0.1,0-0.2-0.1-0.3-0.1c-0.1,0-0.3-0.1-0.5-0.1
				c-0.3-0.1-0.6-0.1-1-0.3c-0.3-0.1-0.5-0.1-0.8-0.2c-0.4-0.1-0.9-0.2-1.3-0.3c-0.1,0-0.3-0.1-0.5-0.1c-0.7-0.2-1.5-0.4-2.2-0.6
				c-0.2,0-0.3-0.1-0.5-0.1c-0.2-0.1-0.5-0.1-0.6,0c-0.5-0.1-0.9-0.3-1.3-0.3c-0.2,0-0.4-0.1-0.6-0.1c-0.3-0.1-0.5-0.1-0.8-0.2v-0.1
				c-0.1,0-0.3-0.1-0.5-0.1v0.1c-0.3-0.1-0.5-0.1-0.8-0.2c-0.4-0.1-0.7-0.2-0.9-0.3c-0.4-0.1-0.9-0.1-1.4-0.3
				C134,77.3,133,77.1,132,76.9z M135.8,52.1c-0.1,0.2-0.1,0.4-0.1,0.6c0-0.1-0.1-0.1-0.2-0.1c-0.2-0.2-0.4-0.4-0.5-0.6
				c0.2,0.1,0.4,0.1,0.6,0.1C135.6,52.1,135.7,52.1,135.8,52.1z M172.8,72.5c-1.1-0.2-1.8,0.3-2.3,1.3c-0.5,1-0.3,1.6,0.7,1.8
				C175.3,76.4,175.9,75.4,172.8,72.5z M155.8,65c0.2,2.3,1.8,3.7,4.8,4.4c1.1,0.2,1.8-0.1,2.2-1c1.6-3-0.1-4.7-5-5.2
				C156.2,63.1,155.6,63.7,155.8,65z M156.5,70.4c-1.5-0.4-2.7-0.1-3.6,0.9c-0.8,1-0.7,1.6,0.5,2C157.8,74.7,158.9,73.7,156.5,70.4z
				"/>
			<path fill-rule="evenodd" clip-rule="evenodd" fill="#DDDDE7" d="M135,52c0.1,0.2,0.3,0.4,0.5,0.6c0.1,0,0.1,0.1,0.2,0.1
				c0-0.2,0-0.4,0.1-0.6c0.1,0,0.2,0,0.3,0c0.2,0.1,0.4,0.1,0.5,0.1c0.2,0.1,0.4,0.3,0.6,0.4c0,0,0.1,0.1,0.1,0.1
				c0.1,0.1,0.2,0.1,0.3,0.1c0.3,0.2,0.6,0.4,1,0.6c0.2,0.1,0.4,0.2,0.7,0.4c0.1,0.1,0.3,0.1,0.5,0.1c0,0,0.1,0,0.1,0
				c0.1,0.1,0.2,0.1,0.3,0.1c0.1,0,0.2,0.1,0.3,0.1c0.1,0,0.2,0,0.3,0c0.3,0,0.6,0,0.9,0c0.1,0,0.2,0,0.3,0
				c-0.3,0.4-0.8,0.8-1.5,1.1c0,0,0.1,0,0.1,0c0.3,0.1,0.6,0.2,0.8,0.4c0.6,0.2,1.2,0.4,1.8,0.6c0.5-0.7,1.2-0.9,2.1-0.8
				c0.5,0.7,0.8,1.4,1,2h0c0.3,0.1,0.6,0.2,0.9,0.4c0.4,0.2,0.8,0.3,1.1,0.5c0.7,0.2,1.2,0.4,1.7,0.6c0.3,0.2,0.6,0.3,0.9,0.5
				c0.1,0.1,0.3,0.2,0.4,0.3c0.5,0.4,0.9,0.8,1.3,1.2c0,0.1,0,0.1,0,0.1c0.1,0.1,0.1,0.3,0.3,0.5c0.2,0.3,0.3,0.6,0.3,0.9
				c0.1,0.2,0.1,0.4,0.1,0.7c0,0.2,0,0.4,0,0.5c0,0.1-0.1,0.2-0.1,0.3c0,0.1-0.1,0.3-0.1,0.4c0,0.1,0,0.3,0,0.4
				c-0.1,0.2-0.1,0.3-0.2,0.4c-0.1,0.3-0.2,0.5-0.3,0.7c-0.2,0.4-0.4,0.8-0.7,1.1c-0.1,0.1-0.2,0.2-0.3,0.3
				c-0.2,0.3-0.5,0.6-0.8,0.9c-0.4,0.3-0.8,0.5-1.2,0.8c1.2,2.9-0.7,4.3-5.6,4.1c-1.8-0.1-3.1-0.3-3.9-0.8c-1.8,1.1-2.4,0.6-2-1.6
				c0-0.1,0.1-0.2,0.1-0.3c-0.1,0-0.2,0-0.3,0c-0.2,0-0.3,0-0.5,0c-0.2,0-0.3,0-0.5,0c0,0-0.1,0-0.2,0c0.7,1.4-0.3,1.6-2.8,0.6
				c-0.2-0.1-0.4-0.1-0.7-0.3c-0.5-0.2-0.6-0.6-0.4-1.1c-0.3-0.1-0.6-0.1-0.9-0.2c-0.2-0.1-0.4-0.1-0.5-0.1c-0.1,0-0.3-0.1-0.4-0.1
				c-0.6-0.1-1.2-0.3-1.8-0.4c-0.4-0.1-0.8-0.2-1.2-0.3c-0.1,0-0.2,0-0.3,0c-0.4-0.1-0.8-0.2-1.3-0.3c0,0-0.1,0-0.2,0
				c-0.4-0.1-0.9-0.2-1.3-0.3c-0.6-0.2-1.2-0.3-1.8-0.5c0.2,1.2-1,1.1-3.5-0.3c-0.3-0.1-0.4-0.3-0.4-0.6c-0.4-0.1-0.8-0.2-1.3-0.3
				l0-0.1c-0.1,0.6-1.4,0.7-3.9,0.3c-0.8-0.2-1.1-0.6-0.9-1.4c-0.2,0-0.4-0.1-0.5-0.1c-0.2,0-0.5-0.1-0.7-0.1
				c-0.3,0-0.5-0.1-0.8-0.2c-0.3-0.1-0.7-0.1-1-0.3c-0.1,0-0.2-0.1-0.4-0.1c-0.1,0-0.2,0-0.3,0c0.2,1-1,1-3.6-0.1
				c-0.4-0.2-0.6-0.5-0.5-0.9c-0.4-0.1-0.8-0.3-1.2-0.4c-0.4-0.1-0.8-0.2-1.2-0.4c-0.2,0-0.3-0.1-0.5-0.1c-0.2,0.1-0.4,0.2-0.5,0.4
				c-0.4,0.3-1,0.3-1.8,0c-3.6-1.4-4.8-2.7-3.4-4c-0.2-0.2-0.4-0.5-0.5-0.8c-0.2-0.4-0.4-0.7-0.5-1.1c-0.1-0.2-0.2-0.5-0.2-0.8
				c0-0.1,0-0.1,0-0.3c0-0.3,0-0.7,0-1c0.1,0,0.3,0,0.3,0c0.1-0.1,0.3-0.1,0.4-0.1c0.2,0,0.4-0.1,0.5-0.2c0,0,0.1,0,0.1,0
				c0.1-0.1,0.3-0.1,0.4-0.2s0.2-0.1,0.3-0.1c0.1-0.1,0.3-0.2,0.4-0.3c0.1,0,0.1-0.1,0.2-0.1c0,0,0.1-0.1,0.1-0.1h0.1
				c0.1-0.1,0.3-0.1,0.4-0.2c0,0,0.1-0.1,0.1-0.1c0,0,0.1,0,0.1,0c0,0,0.1-0.1,0.1-0.1c0.1-0.1,0.3-0.2,0.3-0.3
				c0.1-0.1,0.2-0.2,0.3-0.3c0,0,0.1,0,0.1,0c0,0,0.1-0.1,0.1-0.1c0,0,0.1-0.1,0.1-0.1c0.2,0,0.4,0,0.7-0.1c0,0,0,0.1,0.1,0.2
				c0.2,0.1,0.5,0.2,0.8,0.3c0.1,0,0.2,0.1,0.3,0.1c0.3,0,0.7,0,1-0.1c0,0,0.1,0,0.1,0s0.1,0,0.1,0c0.2,0.2,0.4,0.3,0.6,0.4
				c0.4-0.3,0.9-0.4,1.4-0.3c0.5,0.8,0.8,1.4,1,1.8c0.1,0.1,0.2,0.1,0.3,0.2c0.7,0.3,1.4,0.6,2.3,1c0.4,0.1,0.8,0.3,1.3,0.4
				c0.8,0.3,1.7,0.6,2.7,0.8h0.1c0.3,0.1,0.7,0.2,1,0.3c0.7-1,1.8-1.3,3-1c0.7,0.7,1.1,1.4,1.3,1.9c0.1,0,0.2,0,0.3,0
				c0.1,0,0.3,0.1,0.4,0.1c0.2,0,0.5,0.1,0.8,0.1c0.3,0,0.5,0.1,0.8,0.1c0.7,0.1,1.3,0.1,1.9,0.1c0.1-0.1,0.1-0.2,0.3-0.3
				c0.9-1,2-1.4,3.3-1c0.2,0.3,0.4,0.5,0.5,0.8c0.3-0.1,0.6-0.3,0.9-0.5c0.2-0.2,0.4-0.3,0.5-0.5c-0.1,0-0.3,0-0.4,0
				c-0.6,0-1-0.4-1.1-1.1c-0.3-1.8,0.2-3,1.3-3.6c-0.1-0.1-0.3-0.3-0.3-0.4c0-0.1,0-0.2,0-0.2c-0.4,0-0.9-0.1-1.4-0.1
				c-1.2-0.2-1.8-0.8-1.8-1.9h0c0.2,0.1,0.4,0.2,0.7,0.3c0.4,0.1,0.8,0.2,1.3,0.3c0.1,0,0.2,0,0.3,0c0.1,0,0.3,0,0.4,0
				c0.3,0,0.5,0,0.7,0c0.3,0,0.6,0,0.8-0.1c0.1,0,0.2,0,0.3,0c0.5,0.2,1.1,0.3,1.7,0.4c0.3,0.1,0.7,0.1,1,0.1
				c0.2,0.1,0.4,0.1,0.6,0.1c0.1,0,0.1,0,0.2,0.1c0.1,0.1,0.3,0.1,0.5,0.1c0.2,0.1,0.4,0.2,0.6,0.3c0.4,0.2,0.9,0.4,1.3,0.4
				c0.1,0,0.1,0.1,0.2,0.1S134.9,52,135,52z M172.8,72.5c3.1,2.8,2.5,3.9-1.6,3.1c-1-0.2-1.2-0.8-0.7-1.8
				C171,72.8,171.7,72.4,172.8,72.5z M156.5,70.4c2.4,3.3,1.4,4.3-3.1,2.9c-1.2-0.4-1.3-1-0.5-2C153.8,70.2,155,69.9,156.5,70.4z
				 M155.8,65c-0.2-1.3,0.5-1.9,1.9-1.8c5,0.5,6.6,2.2,5,5.2c-0.4,0.8-1.1,1.1-2.2,1C157.6,68.7,156,67.3,155.8,65z M137.3,62.5
				c-0.5,0.6-0.4,1.1,0.1,1.3c3.8,2,4.5,1.3,2.2-2.2C138.7,61.4,137.9,61.7,137.3,62.5z M122.5,63.7c4.9,0.6,5.7-0.6,2.3-3.4
				c-1.5-0.4-2.6,0-3.3,1.2C120.6,62.8,121,63.5,122.5,63.7z"/>
			<path fill-rule="evenodd" clip-rule="evenodd" fill="#EAECF8" d="M124.3,49.8c0,1.1,0.5,1.7,1.8,1.9c0.5,0.1,1,0.1,1.4,0.1
				c0,0,0,0.1,0,0.2c0.1,0.1,0.2,0.3,0.3,0.4c-1.1,0.6-1.6,1.8-1.3,3.6c0.1,0.7,0.5,1.1,1.1,1.1c0.1,0,0.3,0,0.4,0
				c-0.1,0.2-0.3,0.3-0.5,0.5c-0.3,0.2-0.6,0.4-0.9,0.5c-0.2-0.3-0.3-0.5-0.5-0.8c-1.4-0.3-2.5,0-3.3,1c-0.1,0.1-0.2,0.2-0.3,0.3
				c-0.6,0-1.2-0.1-1.9-0.1c-0.2,0-0.5,0-0.8-0.1c-0.3,0-0.6-0.1-0.8-0.1c-0.1,0-0.3-0.1-0.4-0.1c-0.1,0-0.2,0-0.3,0
				c-0.2-0.5-0.7-1.2-1.3-1.9c-1.3-0.3-2.3,0-3,1c-0.4-0.1-0.7-0.1-1-0.3h-0.1c-1-0.2-1.9-0.5-2.7-0.8c-0.5-0.1-0.9-0.3-1.3-0.4
				c-0.8-0.3-1.6-0.6-2.3-1c-0.1-0.1-0.2-0.1-0.3-0.2c-0.2-0.4-0.6-1-1-1.8c-0.5-0.1-1,0-1.4,0.3c-0.2-0.1-0.4-0.3-0.6-0.4
				c0,0,0.1,0,0.1-0.1c0.3-0.1,0.5-0.2,0.7-0.3c0,0,0.1,0,0.1,0c0,0,0.1,0,0.1,0c0.1,0,0.2,0,0.3-0.1c0,0,0.1,0,0.1,0
				c0.1,0,0.1,0,0.2,0c0.3-0.1,0.6-0.2,0.8-0.4c0.1-0.1,0.2-0.2,0.3-0.3c0,0,0,0,0-0.1h0c0.1,0,0.2-0.1,0.3-0.3v0.1
				c0,0,0.1-0.1,0.2-0.1c0.1-0.1,0.1-0.1,0.2-0.2l0,0h0c0.2,0,0.3-0.1,0.5-0.1c0.1,0,0.3-0.1,0.3-0.1c0.2-0.1,0.3-0.2,0.5-0.3
				c0.1,0,0.2-0.1,0.3-0.1c0,0,0.1,0,0.2,0.1v0c0.1,0.1,0.3,0.1,0.4,0.1c0,0,0.1,0.1,0.1,0.1c0.1,0,0.1,0,0.3,0c0.1,0,0.2,0,0.3,0
				c0,0,0.1,0,0.1,0c0.1-0.1,0.3-0.1,0.3-0.2c0,0,0,0,0,0c0,0,0.1,0,0.1,0c0.1,0,0.3,0,0.4,0c0.2,0,0.5,0,0.7,0
				c0.3,0,0.6-0.1,0.9-0.3c0.2-0.2,0.5-0.3,0.6-0.5h0.1c0.1,0.1,0.1,0.1,0.2,0.2c0.1,0.1,0.3,0.1,0.4,0.1c0.1,0,0.1,0.1,0.1,0.1
				c0,0,0.1,0,0.1,0c0.2,0.1,0.4,0.1,0.7,0.1c0.3,0.1,0.5,0.1,0.8,0.1c0.2,0,0.5-0.1,0.6-0.1c0,0,0.1,0,0.1,0c0.3,0,0.5,0,0.8,0
				c0.1,0,0.3,0,0.5,0c0.5-0.1,0.9-0.2,1.3-0.4c0.1,0,0.3-0.1,0.3-0.1c0.1,0,0.1-0.1,0.2-0.1c0.2-0.1,0.4-0.2,0.5-0.3
				c0,0,0.1,0,0.1,0c0.5,0.1,0.9,0.1,1.4,0.1c0.6,0,1.2,0,1.8,0c0.1,0,0.3,0,0.4,0c0.1,0,0.1,0,0.2,0
				C123.7,49.7,124,49.8,124.3,49.8z M137.3,62.5c0.6-0.8,1.3-1.1,2.3-0.9c2.3,3.5,1.6,4.2-2.2,2.2
				C136.9,63.6,136.9,63.1,137.3,62.5z M122.5,63.7c-1.6-0.2-2-0.9-1.1-2.2c0.8-1.2,1.9-1.6,3.3-1.2
				C128.2,63.1,127.5,64.3,122.5,63.7z"/>
			<path fill-rule="evenodd" clip-rule="evenodd" fill="#CFD1DD" d="M134.2,71c0,0.1-0.1,0.2-0.1,0.3c-0.1,0.1-0.1,0.2-0.1,0.4
				c-0.1,0.1-0.1,0.3-0.2,0.4c-0.1,0.3-0.3,0.7-0.4,1.1c-0.1,0.1-0.1,0.3-0.1,0.4c-0.1,0.3-0.2,0.7-0.4,1.1c0,0.2-0.1,0.3-0.1,0.5
				c-0.1,0.1-0.1,0.3-0.2,0.3c-0.2,0.3-0.3,0.7-0.4,1c-0.1,0.1-0.1,0.2-0.1,0.3c-0.2-0.1-0.5-0.1-0.7-0.2c-0.4-0.1-0.8-0.1-1.3-0.3
				s-0.9-0.2-1.3-0.3c-0.4-0.1-0.9-0.2-1.4-0.4c-0.5-0.1-1-0.2-1.5-0.3c-0.1,0-0.2-0.1-0.3-0.1c-0.3-0.1-0.7-0.1-1-0.3h0
				c-0.2,0-0.3-0.1-0.4-0.1c-0.6-0.1-1.2-0.3-1.9-0.4c-0.5-0.1-1-0.3-1.7-0.4c-0.4-0.1-0.9-0.2-1.3-0.3c-0.6-0.1-1.2-0.3-1.8-0.4
				c-0.4-0.1-0.8-0.2-1.3-0.3c-0.1,0-0.2,0-0.4-0.1c-0.2-0.1-0.5-0.1-0.8-0.2c-0.5-0.1-0.9-0.2-1.3-0.3c-0.6-0.2-1.2-0.3-1.7-0.4
				c-0.1,0-0.3,0-0.3,0c-0.1,0-0.2-0.1-0.3-0.1c-0.2,0-0.4-0.1-0.5-0.1c-0.6-0.2-1.2-0.3-1.8-0.4c-0.2,0-0.3-0.1-0.4-0.1
				c-0.4-0.1-0.7-0.2-0.9-0.2l-0.1,0c-0.2,0-0.4,0-0.6,0c-0.5-0.1-0.9-0.3-1.4-0.4c-0.6-0.1-1.2-0.3-1.7-0.4c-0.1,0-0.2,0-0.3,0
				l-1-0.1l-0.6,0.1c-0.3-0.2-0.5-0.3-0.8-0.4h0c-0.1-0.1-0.2-0.1-0.3-0.1c-0.2-0.1-0.3-0.1-0.5-0.1c-0.1-0.1-0.2-0.1-0.3-0.1
				c-0.6-0.2-1.3-0.4-1.9-0.6c-0.5-0.2-1-0.4-1.6-0.5c-0.6-0.3-1.3-0.5-2.1-0.8c-0.1,0-0.2-0.1-0.3-0.2c-0.3-0.1-0.6-0.1-0.9-0.2
				l-0.1-0.1c0,0-0.1-0.1-0.3-0.1c-0.1,0-0.3,0-0.5-0.1c-0.6-0.2-1.1-0.3-1.7-0.5c0-0.1-0.1-0.1-0.2-0.1c-0.2-0.1-0.5-0.1-0.7-0.1
				c-0.3-0.1-0.6-0.2-1-0.3l-3.5-2.1c0-0.1,0-0.2,0-0.3c0-0.1,0.1-0.1,0.1-0.2c0-0.2-0.1-0.4-0.3-0.6c0-0.1-0.2-0.2-0.4-0.3L82.8,62
				v-0.3l-0.4-0.3l-0.6-1c0.1,0,0.1-0.1,0.2-0.1c0.1-0.1,0.2-0.2,0.3-0.3c0.1-0.1,0.1-0.1,0.2-0.1c0.7-0.4,1.4-0.8,1.9-1.4
				c0.1-0.1,0.1-0.1,0.2-0.2c0.1,0,0.1-0.1,0.2-0.1c0.4-0.2,0.7-0.4,0.9-0.6c0,0,0.1,0,0.1,0c0.2-0.1,0.3-0.2,0.5-0.4
				c0.1,0,0.1-0.1,0.2-0.1c0.5-0.2,0.9-0.6,1.3-1.1c0,0,0.1,0,0.1,0c0.3-0.1,0.5-0.1,0.9-0.2c0.1,0,0.3-0.1,0.4-0.1c0,0,0.1,0,0.1,0
				c0.3-0.1,0.6-0.2,0.9-0.3c0.6-0.1,1.2-0.2,1.9-0.3c0.2,0,0.4-0.1,0.6-0.1c0.1,0,0.1-0.1,0.2-0.1c0.2,0.1,0.4,0.1,0.7,0.1
				c0.1,0,0.3,0.1,0.4,0.1c0.3,0,0.6,0,0.9,0c0,0,0.1,0,0.1,0c0.3,0,0.5-0.1,0.8-0.1c0,0.3,0,0.7,0,1c0,0.1,0,0.2,0,0.3
				c0,0.3,0.1,0.5,0.2,0.8c0.1,0.4,0.3,0.7,0.5,1.1c0.1,0.3,0.3,0.6,0.5,0.8c-1.3,1.3-0.2,2.6,3.4,4c0.8,0.2,1.4,0.2,1.8,0
				c0.2-0.1,0.4-0.3,0.5-0.4c0.2,0.1,0.3,0.1,0.5,0.1c0.4,0.1,0.8,0.3,1.2,0.4c0.4,0.1,0.8,0.2,1.2,0.4c-0.1,0.4,0.1,0.7,0.5,0.9
				c2.6,1.1,3.8,1.1,3.6,0.1c0.1,0,0.2,0,0.3,0c0.1,0,0.3,0.1,0.4,0.1c0.4,0.1,0.7,0.2,1,0.3c0.2,0.1,0.5,0.2,0.8,0.2
				c0.2,0.1,0.5,0.1,0.7,0.1c0.2,0.1,0.3,0.1,0.5,0.1c-0.2,0.8,0.1,1.2,0.9,1.4c2.4,0.4,3.7,0.4,3.9-0.3l0,0.1
				c0.5,0.1,0.9,0.2,1.3,0.3c0,0.3,0.1,0.5,0.4,0.6c2.5,1.4,3.7,1.5,3.5,0.3c0.6,0.2,1.3,0.3,1.8,0.5c0.5,0.1,0.9,0.1,1.3,0.3
				c0.1,0,0.1,0,0.2,0c0.4,0.1,0.8,0.2,1.3,0.3c0.1,0,0.2,0,0.3,0c0.4,0.1,0.8,0.1,1.2,0.3c0.6,0.1,1.3,0.3,1.8,0.4
				c0.1,0,0.3,0.1,0.4,0.1c0.2,0,0.3,0.1,0.5,0.1c0.3,0,0.6,0.1,0.9,0.2c-0.2,0.5-0.1,0.9,0.4,1.1C133.7,70.9,134,71,134.2,71z"/>
			<path fill-rule="evenodd" clip-rule="evenodd" fill="#EFEFF9" d="M100.6,69.8c0.2,0,0.3,0,0.5,0.1c0.1,0,0.1,0.1,0.3,0.1h0
				c0.2,0.1,0.5,0.2,0.8,0.4h-0.3c-0.2-0.1-0.4-0.2-0.5-0.4c-0.1,0-0.2-0.1-0.3-0.1C100.9,69.9,100.7,69.8,100.6,69.8z"/>
		</g>
	</g>
	<g>
		<g>
			<path fill-rule="evenodd" clip-rule="evenodd" fill="#C2C2C9" d="M186.5,83c0.4,0.3,0.6,0.9,0.7,1.7c0,0.1,0,0.1,0,0.3
				c0,0.9-0.2,1.5-0.5,1.9c-0.1,0.1-0.2,0.2-0.3,0.3c-0.3,0.2-0.6,0.3-1,0.3c-0.9,0-1.5-0.3-1.8-0.9c0,0,0-0.1,0-0.1v-0.1l0,0
				c0,0,0-0.1,0-0.1c0.6-1.7,1.4-2.7,2.2-3c0.1,0,0.1-0.1,0.2-0.1s0.1,0,0.1,0c0.1,0,0.1,0,0.2,0C186.3,83.1,186.4,83,186.5,83z
				 M189.1,100c0.7,0.4,1.1,1.4,1.1,3.1c0,0.9-0.4,1.4-1.3,1.6c-0.4,0.1-0.8,0.2-1.3,0.2c-0.4,0-0.7,0-1-0.1c-0.1,0-0.2-0.1-0.3-0.1
				c-0.6-0.2-1-0.4-1.2-0.8c-0.2-0.4-0.2-0.8-0.1-1.2c0-0.3,0-0.5,0.1-0.8c0.2-0.7,0.6-1.3,1.3-1.6c0.3-0.2,0.8-0.4,1.3-0.5
				C188.2,99.7,188.7,99.8,189.1,100z M188.8,91.9c1.6,0.3,2.4,1,2.4,2.1c0,1.2-0.6,1.8-1.9,2c-0.2,0-0.3,0-0.5,0
				c-0.2,0-0.3,0-0.5,0c-0.9-0.1-1.5-0.4-1.8-1c0,0,0-0.1,0-0.2c-0.1-0.3-0.2-0.7-0.1-1C186.4,92.3,187.2,91.6,188.8,91.9z
				 M191.7,124.3C191.7,124.3,191.7,124.4,191.7,124.3c0.6,0.4,1,1,1,1.9c0,0.6-0.5,1.1-1.4,1.6c-0.3,0.1-0.6,0.3-0.9,0.4
				c-0.2,0.1-0.5,0.2-0.7,0.3c-0.9,0.3-1.6,0.5-2.2,0.5c-0.8,0-1.4-0.1-1.8-0.3c-0.1-0.9-0.3-1.7-0.3-2.6c0.1-0.1,0.2-0.3,0.4-0.4
				c0.6-0.5,1.6-0.9,3-1.3c0.4-0.1,0.7-0.2,1-0.3C190.6,124.1,191.2,124.1,191.7,124.3z M191.2,130.8c0,0.1,0,0.3,0,0.4
				c0,0.4-0.1,0.8-0.3,1.1c-0.4,0.5-1,0.8-2,0.8c-1,0-1.6-0.2-2-0.5c-0.1-0.1-0.2-0.2-0.3-0.3c-0.1-0.1-0.1-0.4-0.1-0.9
				c0-0.5,0.1-0.9,0.3-1.2c0.1-0.2,0.3-0.4,0.4-0.5c0.4-0.3,1-0.4,1.7-0.4c0.3,0,0.6,0.1,0.8,0.1C190.5,129.5,191,130,191.2,130.8z
				 M186,135c0.1,0.3,0.2,0.7,0.2,1.1c0,0.3-0.1,0.6-0.2,0.9C185.9,136.4,185.9,135.7,186,135z M186,144.6c0.1,0.1,0.3,0.2,0.3,0.3
				c0.2,0.3,0.4,0.7,0.4,1.2c0,0.3-0.1,0.6-0.2,0.9c-0.2-0.2-0.4,0-0.5,0.5C186,146.6,186,145.6,186,144.6z M188.6,153
				c-0.1,0-0.2,0-0.3,0c-0.9,0-1.5-0.3-1.8-1c-0.1-0.3-0.2-0.7-0.2-1.2c0-0.8,0.4-1.4,1.1-1.8c0.3-0.2,0.8-0.4,1.3-0.5
				c1.6-0.3,2.3,0.2,2.3,1.7c0,0.4-0.3,1-1,1.7C189.6,152.5,189.1,152.8,188.6,153z M195.4,163c0.1-0.2,0.2-0.4,0.3-0.6
				c0.1-0.2,0.2-0.3,0.3-0.4v0c0,0.2,0,0.4,0,0.6c0,0.3,0,0.5,0,0.8c0,0.4,0,0.8,0,1.1c0,0.4,0,0.8,0,1.2c0.1,1.4,0.1,2.8,0.2,4.3
				c-0.1,0.2-0.3,0.4-0.4,0.5c-0.2,0.2-0.3,0.5-0.5,0.7l-1.8-0.6c-0.1-0.3-0.2-0.8-0.2-1.6c0-0.6,0.1-1.2,0.3-1.9
				C193.9,166,194.5,164.6,195.4,163z M189.7,161c1.3-0.6,2.2-0.6,2.6,0.1c0.2,0.3,0.3,0.8,0.3,1.5c0,0.4-0.1,0.7-0.3,1
				c-0.1,0.1-0.1,0.1-0.2,0.2c-0.3,0.4-0.5,0.8-0.5,1.2c0,1.2-0.8,1.8-2.3,1.9c-0.1,0-0.1,0-0.3,0c-1.3,0-2.1-0.3-2.5-1
				c-0.2-0.4-0.3-0.8-0.2-1.2c0-1.4,1.1-2.6,3.2-3.6C189.6,161.1,189.6,161.1,189.7,161z M192.6,187.1c0,0.9-0.7,1.7-2.1,2.3
				c0.2,0,0.3,0.1,0.5,0.2c0.6,0.2,1.2,0.4,1.6,0.7c1,0.5,1.5,1.1,1.5,1.9c0,0.8-0.3,1.3-1,1.6c-0.1,0-0.3,0.1-0.4,0.1
				c-0.4,0-0.8,0-1.4,0c-1.4,0-2.3-0.4-3-1.3v0c-0.3-0.5-0.5-1-0.5-1.6c0-0.5,0.1-0.9,0.4-1.2c-0.2-0.1-0.4-0.1-0.5-0.2
				c-0.6-0.3-0.9-0.8-0.9-1.4c0-1.1,0.5-1.9,1.6-2.5c0.3-0.2,0.7-0.3,1.1-0.5c-0.1-0.6-0.2-0.9-0.2-1c0-1.4,0.9-2.3,2.6-2.8
				c0,0,0.1,0,0.1,0c1.7-0.5,2.6,0.1,2.6,1.6c0,0,0,0.1,0,0.1c-0.1,0.6-0.9,1.4-2.3,2.5C192.5,186,192.6,186.5,192.6,187.1
				L192.6,187.1z M189.8,203.8l-0.3,0.3c-0.3,0.2-0.7,0.3-1.2,0.3c-0.4,0-0.8-0.1-1.1-0.3c-0.2-0.1-0.4-0.3-0.5-0.4
				c0-1.9,0-3.7,0-5.4c0.2-0.1,0.5-0.1,0.9,0.1c0.3,0.1,0.5,0.3,0.8,0.6c0.7,0.7,1.3,1.9,1.8,3.5L189.8,203.8L189.8,203.8z
				 M186.4,181c0-0.9,0-1.8-0.1-2.6c0.5,0.4,0.8,0.9,0.8,1.6C187.1,180.3,186.9,180.6,186.4,181z M188.2,219.8
				c-0.7-0.1-1.2-0.3-1.5-0.6c0-0.6,0-1.3,0-1.9c0.4-0.6,1.3-1.3,2.6-2c0.2-0.2,0.5-0.3,0.8-0.4c0.9-0.5,1.6-0.7,2.2-0.7
				c0.9,0,1.4,0.6,1.4,1.8c0,0.6-0.4,1.2-1.1,1.9c-0.3,0.2-0.6,0.4-0.9,0.6c-1.3,0.9-2.3,1.3-3,1.3
				C188.4,219.8,188.3,219.8,188.2,219.8z M190.3,223.8c-0.2,0-0.3,0-0.5,0c-1.3,0-2-0.6-2-1.7c0-1.3,0.6-2,1.9-2c0.1,0,0.3,0,0.3,0
				c1,0.1,1.5,0.8,1.5,1.8c0,0.5-0.2,1-0.5,1.3C190.8,223.5,190.6,223.7,190.3,223.8z M191.8,227.5c0.9,0.1,1.3,0.7,1.3,2
				c0,1-0.6,1.8-1.7,2.5c0,0-0.1,0-0.1,0c-0.7,0.4-1.2,0.7-1.6,0.8c-0.1,0-0.1,0-0.2,0c-1,0-1.7-0.3-2-1c-0.1-0.7-0.2-1-0.2-1
				c0-1.3,0.9-2.3,2.8-3c0,0,0.1,0,0.1,0C190.8,227.6,191.3,227.5,191.8,227.5z M197,239.5c-0.8,0.6-1.5,0.8-2.2,0.8
				c-0.1,0-0.1,0-0.2,0c-0.8,0-1.3-0.4-1.6-1c-0.1-0.7-0.2-1-0.2-1c0-0.5,0.5-1.3,1.6-2.1c0.3-0.3,0.6-0.5,0.9-0.8
				c0.3-0.2,0.6-0.5,0.9-0.7c0.2-0.2,0.4-0.3,0.6-0.4C196.9,236,196.9,237.7,197,239.5z M197,253.9c0,3.2,0,6.4,0,9.5
				c-0.2,0.3-0.3,0.5-0.3,0.5c-1,0-1.7-0.6-1.9-1.7c0-0.8-0.1-1.3-0.1-1.6c-0.2-0.1-0.4-0.3-0.5-0.5c-0.1-0.1-0.2-0.3-0.3-0.4
				c-0.1-0.1-0.1-0.2-0.2-0.3c0,0,0,0,0,0c-0.3-0.6-0.5-1.1-0.5-1.5c0-1.5,0.7-2.1,2.2-1.8h0c0,0,0.1,0,0.1,0
				c0.2-0.6,0.5-1.1,0.8-1.6C196.7,254.4,196.8,254.2,197,253.9z M190.8,252.5c1.2-0.3,1.8,0.2,1.8,1.5c0,0,0,0.1,0,0.1
				c0,0.5-0.4,1.2-1.3,2.1c-0.9,0.8-1.5,1.3-2,1.3c-1.3,0-2-0.6-2-1.8c0-0.1,0-0.3,0.1-0.4c0.1-1,0.9-1.8,2.4-2.5
				c0.1,0,0.1-0.1,0.2-0.1C190.3,252.6,190.6,252.5,190.8,252.5z M190.5,270.9c0.2-0.1,0.5-0.2,0.8-0.2c1.2-0.1,1.8,0.6,1.8,2.2
				c0,0.8-0.1,1.4-0.3,1.8c-0.3,0.5-0.8,0.7-1.5,0.7c-1.1,0-1.8-0.4-2-1.1c0-0.8,0-1.2,0-1.3c0-0.8,0.2-1.4,0.6-1.8
				C190,271.2,190.2,271,190.5,270.9z M186.7,284.3c-0.4-0.1-0.7-0.3-0.9-0.4c-0.1-0.1-0.2-0.2-0.3-0.3c-0.1-0.2-0.1-0.5-0.1-0.9
				c0-0.6,0.3-1.2,0.9-1.8c0.5-0.5,1.3-1,2.3-1.4c1.1-0.5,2-0.6,2.5-0.2c0.1,0.1,0.2,0.3,0.3,0.4c0.2,0.3,0.3,0.8,0.3,1.4
				c0,0.9-0.6,1.7-1.9,2.5c-0.5,0.3-1,0.5-1.4,0.7c-0.3,0.1-0.6,0.2-0.9,0.2C187.3,284.4,187,284.4,186.7,284.3z M190.2,289.7
				c0.5-0.2,1.1-0.4,1.9-0.5c0.2,0,0.4-0.1,0.7-0.1c1.3-0.1,2.2,0.1,2.6,0.8c0.2,0.3,0.3,0.7,0.3,1.2c0,0.2-0.1,0.5-0.4,0.8
				c-0.3,0.3-0.8,0.7-1.5,1.1c-1.2,0.6-2.2,1-3,1c-0.1,0-0.1,0-0.2,0c-1,0-1.7-0.3-2-1c0-0.1,0-0.1,0-0.2c-0.1-0.6-0.1-0.9-0.1-1
				C188.4,290.8,189,290.1,190.2,289.7z M186.3,286.2c0.5-0.4,0.9-0.6,1.3-0.5c0.6,0,1,0.5,1.1,1.4c0,0.2,0,0.4,0,0.5
				c0,0.6-1.1,3.2-3.4,7.8c-0.2,0.5-0.5,1-0.8,1.5c0.1-2.7,0.2-5.5,0.3-8.5c0-0.3,0-0.5,0-0.8c0.2-0.2,0.3-0.3,0.5-0.5
				C185.7,286.7,186,286.4,186.3,286.2z M194.2,307c0,0.2-0.1,0.4-0.1,0.5c-0.1,0.6-0.1,1.2-0.2,1.8c-0.2,1.8-0.3,3.7-0.4,5.6
				c-0.5-0.1-0.9-0.3-1.3-0.5c-0.3-0.3-0.6-0.6-0.7-1.1c-0.1-0.7-0.1-1.1-0.1-1.4c0-0.2,0-0.3,0-0.3c0-1.1,0.5-2.3,1.6-3.5
				C193.4,307.8,193.8,307.4,194.2,307z M193.3,321.3c-0.3-0.2-0.5-0.5-0.6-0.9c0-0.1-0.1-0.2-0.1-0.3c-0.1-1.1-0.1-1.7-0.1-1.8v0
				c0-0.9,0.1-1.5,0.3-2c0.2-0.5,0.4-0.8,0.8-1C193.3,317.3,193.3,319.3,193.3,321.3z M183.3,331.9c0,0,0-0.1,0-0.1
				c0-0.5,0-1.6,0.2-3.5c0-0.7,0.1-1.4,0.1-2.2c0.1,0.1,0.2,0.2,0.3,0.3c0.1,0.2,0.3,0.3,0.4,0.5c1,1.1,1.5,2.1,1.5,3
				c0,0.5-0.2,1-0.5,1.3c-0.4,0.4-0.9,0.6-1.6,0.6C183.5,331.9,183.4,331.9,183.3,331.9z M193.2,329.4c-0.3,0-0.6,0-0.9,0
				c-0.3,0-0.6,0-0.9,0c-0.3,0-0.5-0.1-0.7-0.1c-0.8-0.1-1.4-0.4-1.7-0.7c0,0,0-0.1,0-0.1v0c-0.1-0.2-0.1-0.5-0.1-0.8
				c0-0.9,0.5-1.5,1.4-1.8c0.5-0.2,1.2-0.3,2-0.3c0.3,0,0.6,0,0.9,0C193.2,326.8,193.2,328.1,193.2,329.4z"/>
			<path fill-rule="evenodd" clip-rule="evenodd" fill="#FFFFFF" d="M186.3,104.8c-0.3,0.6-0.5,1.1-0.5,1.4c-0.1,0-0.3,0.1-0.5,0.3
				c-0.3,0.2-0.6,0.3-0.8,0.3c-0.4-0.4-0.8-0.8-1-1.3c-0.2-0.4-0.3-0.7-0.3-0.9c0-1,0.1-1.6,0.2-1.8c0.3-0.4,0.8-0.6,1.5-0.7
				c-0.1,0.2-0.1,0.5-0.1,0.8c-0.1,0.4,0,0.8,0.1,1.2C185.3,104.4,185.7,104.6,186.3,104.8z M186.5,104.9c0.3,0,0.6,0.1,1,0.1
				c0.5,0,0.9-0.1,1.3-0.2c0,0.1,0,0.1,0,0.2c0.1,0,0.3,0.1,0.6,0.1c0.3,0.1,0.4,0.4,0.4,0.9c0,1.1-0.2,2.7-0.5,4.6
				c-0.3,2-0.5,3.9-0.5,5.6c-0.5,0.3-0.9,0.5-1.3,0.6c-0.6-0.4-1-1.2-1.1-2.2c-0.1-0.3-0.1-1-0.1-2.1c-0.1,0-0.1,0-0.3,0
				c-1,0-1.6-0.5-1.8-1.4c-0.1-0.4-0.1-0.8,0-1c0-1.3,0.4-2,1-2c0.4,0,0.7,0.3,1.1,0.8c0-0.4,0-0.7,0-0.9c0.1-0.8,0.4-1.5,0.8-2
				C187,105.7,186.7,105.3,186.5,104.9z M189.1,100c-0.4-0.2-0.9-0.3-1.5-0.1c-0.5,0.1-0.9,0.3-1.3,0.5c0-0.2,0-0.4,0-0.6
				c-0.2-0.3-0.3-0.8-0.4-1.3c-0.1-0.7-0.1-1.2,0-1.6c0-1.2,0.2-1.9,0.7-2.1c0,0.1,0,0.1,0,0.2c0.3,0.6,0.9,0.9,1.8,1
				c0,0.1,0.1,0.3,0.2,0.5c0.4,0.1,1,0.2,1.5,0.4c0-0.1,0.1-0.1,0.1-0.1c0,0-0.1,0-0.1,0c-0.3-0.3-0.6-0.6-0.8-0.8
				c1.3-0.1,1.9-0.8,1.9-2c0-1.1-0.8-1.8-2.4-2.1c0-0.1,0-0.2,0-0.3c0-0.2,0-0.4,0.1-0.6c-0.1,0-0.2,0-0.4,0c-0.7,0-1.3-0.5-1.8-1.5
				c-0.3-0.7-0.5-1.3-0.5-1.6c0-0.4,0-0.6,0-0.6c0.1-0.1,0.2-0.2,0.3-0.3c0.7,0,1.4,0.3,2.1,0.9c0.2,0.2,0.4,0.3,0.5,0.5
				c0.1-0.3,0.2-0.5,0.3-0.6c-0.4-0.2-0.8-0.5-1.2-0.9c-0.5-0.6-0.9-1.1-1-1.7c0.9-0.4,1.7-0.4,2.4,0c0.7,1.1,1.4,2.8,2.1,4.9
				c0,0.1,0,0.3,0,0.4c0,0.3,0.1,0.6,0.1,0.9c-0.1,0.1-0.1,0.2-0.2,0.4c-0.2,2.5-0.7,4.2-1.5,5.1c0.1,0,0.1,0.3,0.1,0.8
				c0,0.1-0.3,0.6-0.8,1.4C189.2,99.1,189.1,99.5,189.1,100z M187.2,84.8c0-0.8-0.3-1.4-0.7-1.7c0.4-0.1,0.7-0.1,1,0
				c0.2,0,0.5,0,0.8,0.2c-0.1,0.4-0.1,0.7-0.2,1C187.8,84.5,187.5,84.6,187.2,84.8z M183.5,87.1c0.4,0.1,0.8,0.3,1,0.6l0-0.1
				c0.6,0.2,1,0.6,1.3,1v4.6c-0.5,0.2-0.9,0.4-1.3,0.6c-0.6-0.4-1-0.9-1.1-1.5c-0.1-0.2-0.1-0.7-0.1-1.5c-0.3-0.1-0.5-0.2-0.6-0.4
				c0.2-1.2,0.4-2.4,0.7-3.4C183.4,87.1,183.5,87.1,183.5,87.1z M192.3,94.4c0,0.2,0,0.4,0,0.6c0.1,0.6,0.1,1.2,0.2,1.8
				c0,0.3,0.1,0.7,0.2,1c0.2,0.7,0.3,1.4,0.4,2.1c-0.2,0.1-0.4,0.1-0.5,0.2c-0.6-0.4-1-0.9-1.1-1.6c-0.1-0.2-0.1-0.7-0.1-1.4
				c0-1.3,0.1-2.1,0.2-2.3C191.6,94.6,191.9,94.4,192.3,94.4z M193.5,109.7c-1,0-1.6-0.4-1.8-1.2c-0.1-0.4-0.1-0.9,0-1.4l0-2
				c0.2,0,0.5,0,1-0.1c0.3,0,0.7,0,1.1,0c0.1,0.7,0.1,1.5,0.2,2.3c0.1,0.6,0.1,1.2,0.2,1.8c0,0.2,0.1,0.3,0.1,0.5
				C194.2,109.6,194,109.7,193.5,109.7z M189.5,110.5c0.2-0.5,0.5-0.9,1-1.3c0.8,0.9,1.3,1.5,1.5,1.9c0.2,0.4,0.3,1,0.3,1.9
				c-0.1,0.3-0.1,0.5-0.3,0.7c-0.1,0.2-0.5,0.3-1,0.3c-0.7,0-1.2-0.4-1.5-1.3c-0.2-0.5-0.3-1-0.3-1.5
				C189.3,111,189.4,110.8,189.5,110.5z M189.8,124.2c-0.1-0.2-0.2-0.4-0.3-0.6c-0.2-0.4-0.3-0.7-0.3-1c0-0.9,0.3-2.1,0.9-3.6
				c0.4-1,0.8-1.7,1.2-2.3c0-0.3,0.1-0.5,0.2-0.6c0.5-0.6,1.6-0.7,3.4-0.5c0.1,0.7,0.1,1.4,0.2,2c-0.2,0.2-0.5,0.4-0.8,0.7
				c-0.6,0.6-1.1,1-1.4,1.3c-0.1,0.2-0.1,0.4-0.2,0.6c-0.5,1.7-0.8,3-1,4.1C191.2,124.1,190.6,124.1,189.8,124.2z M191.3,127.8
				c0.9-0.5,1.4-1,1.4-1.6c0-0.9-0.3-1.5-0.9-1.8c0.2-0.4,0.5-0.6,0.8-0.6c0.8,0.1,1.3,1.5,1.3,4.3c0,0.9,0,1.7,0,2.4
				c0.2,0,0.5,0.1,0.8,0.1c0,0,0,0.1,0.2,0.1c0.1,0,0.1,0.3,0.1,0.8c0,0.5-0.3,0.9-0.9,1.1c-1.2,0.4-1.8,0.6-1.9,0.6
				c-0.5-0.2-0.8-0.3-0.9-0.4c-0.1-0.1-0.2-0.3-0.3-0.6c0.2-0.3,0.3-0.6,0.3-1.1c0-0.1,0-0.3,0-0.4c0.1-0.1,0.2-0.2,0.3-0.2
				c0-0.1,0-0.2,0-0.3c-0.1-0.3-0.1-1.1-0.1-2.3C191.3,127.9,191.3,127.9,191.3,127.8z M185.8,125.8c-0.1-0.6-0.1-1,0-1.4
				c0-2.1,0.5-3,1.5-2.6c0.9,0.3,1.4,1.2,1.5,2.8C187.4,124.8,186.4,125.3,185.8,125.8z M186.7,130c-0.2,0.3-0.3,0.7-0.3,1.2
				c0,0.5,0,0.8,0.1,0.9c0.1,0.1,0.2,0.2,0.3,0.3c0,0.2,0,0.4,0,0.6c0,1.8-0.1,3.3-0.2,4.5c-0.2,0.1-0.4,0.2-0.6,0.3
				c0-0.3,0-0.6,0-0.9c0.1-0.3,0.2-0.6,0.2-0.9c0-0.4-0.1-0.8-0.2-1.1c0-1.7,0-3.5,0-5.2v-0.1c0,0,0-0.1,0-0.1
				c-0.1-0.3-0.1-0.7-0.2-1c0.4,0.2,1,0.3,1.8,0.3c0.6,0,1.3-0.2,2.2-0.5c0,0,0.1,0.1,0.1,0.1c-0.1,0.3-0.1,0.5-0.2,0.6
				c-0.2-0.1-0.5-0.1-0.8-0.1c-0.7,0-1.3,0.1-1.7,0.4c-0.2-0.1-0.4-0.2-0.6-0.3C186.6,129.4,186.6,129.7,186.7,130z M185.5,121.5
				c0,0,0,0.1,0.2,0.1c0.1,0,0.1,0.3,0.1,0.8c0,0.3-0.3,0.7-0.8,1.4c-0.1-0.8-0.3-1.6-0.3-2.3C185,121.4,185.3,121.4,185.5,121.5z
				 M187.9,138.3c0.1-1.1,0.5-1.9,1.1-2.2c0.6,0.2,1,0.5,1.3,0.9v7.6c-0.5,0.2-0.9,0.4-1.3,0.6c-0.6-0.4-1-1.1-1.1-2.2
				c-0.1-0.4-0.1-1.2-0.1-2.4C187.8,139.4,187.8,138.6,187.9,138.3z M186.3,145c-0.1-0.1-0.2-0.2-0.3-0.3c0-2.1,0-4.2,0-6.2
				c0,0.2,0.1,0.4,0.1,0.6C186.2,142.2,186.3,144.2,186.3,145z M187.5,149c-0.7,0.4-1.1,1-1.1,1.8c0,0.5,0.1,0.9,0.2,1.2
				c0.3,0.7,0.9,1,1.8,1c0.1,0,0.2,0,0.3,0c0.1,0.7,0.2,1.3,0.2,1.8c0,0.9-0.1,1.5-0.2,2c-0.4,0.2-0.7,0.4-1,0.5
				c-0.8-0.6-1.3-1.4-1.5-2.6c0-2.3,0-4.6,0-6.9c0,0,0-0.1,0-0.1v-0.1c0.1-0.5,0.3-0.7,0.5-0.5c0.2,0.2,0.5,0.7,0.8,1.6
				C187.3,148.8,187.4,148.9,187.5,149z M195.8,144.1c-0.1,0-0.2,0.1-0.3,0.1c-0.6-0.4-1-0.9-1.1-1.5c-0.1-0.2-0.1-0.8-0.1-1.6
				l0-2.9c0.5,0,1,0,1.4,0.1v1.6C195.8,141.3,195.8,142.7,195.8,144.1z M192.8,146.6c1.3,3.8,2,5.7,2,5.8c0,0.5,0,0.8-0.1,0.9h-0.1
				c0,0.1,0,0.2,0,0.3c-0.1,0.2-0.5,0.3-1,0.3c-1,0-1.7-1.1-2.3-3.2c-0.3-1-0.4-2-0.5-3C190.8,143.9,191.5,143.6,192.8,146.6z
				 M193.6,167.3c-0.1-0.3-0.2-0.7-0.3-1c-0.3-1.5-0.5-3-0.5-4.5c0-1.1,0.1-1.7,0.2-2c0.2-0.5,0.9-1,2-1.6c0.2,0.1,0.5,0.2,0.9,0.2
				l0,0c0,0.7,0,1.3,0,2c0,0.1-0.1,0.1-0.2,0.3c-0.3,0.5-0.5,1-0.5,1.4c0,0.3,0,0.6,0.1,1C194.5,164.6,193.9,166,193.6,167.3z
				 M189.7,161c0.3-1.2,0.8-2,1.3-2.4c0.6,0.3,1,1.1,1.2,2.2c0,0.1,0,0.2,0,0.3C191.9,160.5,191,160.4,189.7,161z M195.8,170.6
				c0.1-0.2,0.3-0.4,0.4-0.5c0,0.2,0,0.4,0,0.5c-0.1,0-0.2,0-0.3,0S195.9,170.6,195.8,170.6z M189.3,167c1.5-0.1,2.3-0.7,2.3-1.9
				c0-0.4,0.2-0.8,0.5-1.2c0.1-0.1,0.1-0.1,0.2-0.2c-0.2,2.8-0.8,4.7-1.8,5.6c-0.8-0.8-1.3-1.3-1.3-1.4
				C189.3,167.5,189.3,167.3,189.3,167z M186.1,165.8c0-0.4,0-0.7,0-1c0-1.3,0-2.7,0-4c0.1,0.1,0.1,0.2,0.2,0.3v4.7
				C186.2,165.7,186.2,165.8,186.1,165.8z M186.7,169.4c0.1,0,0.1,0.3,0.1,0.8c0,0.6-0.2,1.3-0.6,2.3c0-0.7-0.1-1.4-0.1-2.1
				c0-0.2,0-0.5,0-0.7c0-0.1,0-0.2,0-0.3c0,0,0-0.1,0-0.1v-0.1c0.2,0,0.3,0.1,0.5,0.1C186.5,169.3,186.6,169.3,186.7,169.4z
				 M193.5,178.2c-0.6,0-1.1-0.3-1.7-1c-0.5-0.6-0.9-1.1-1-1.7c0.9-0.4,1.7-0.4,2.4,0c0.8,0.3,1.3,1,1.6,2l-0.3,0.3
				C194.4,178,194,178.2,193.5,178.2z M191.9,181.5c-0.6-0.1-1.2-0.6-1.6-1.5c-0.3-0.7-0.5-1.3-0.5-1.7c0-0.4,0-0.7,0-0.7
				c0.1-0.1,0.2-0.2,0.2-0.3c0.8,0,1.5,0.3,2.3,0.9c0.7,0.6,1.1,1.1,1,1.6l-0.1,0.8c0.3-0.4,0.8-0.8,1.3-1.2
				c0.2,0.1,0.5,0.2,0.9,0.2c0.3,0.1,0.4,0.4,0.4,1c0,0.2-0.3,0.8-0.8,1.8c-0.1,0.2-0.3,0.4-0.4,0.6c0,0,0-0.1,0-0.1
				C194.6,181.5,193.7,181,191.9,181.5C192,181.5,191.9,181.5,191.9,181.5z M187.7,189.6c-0.1,0-0.1,0.1-0.2,0.1
				c-0.4-0.4-0.8-0.9-1-1.4v0c0-0.7,0-1.4,0-2.1c0.2-0.5,0.5-0.8,1-0.8c0.4,0,0.7,0.1,0.9,0.4c-1,0.6-1.6,1.4-1.6,2.5
				C186.8,188.8,187.1,189.3,187.7,189.6z M188.3,192.6c0.6,0.8,1.6,1.3,3,1.3c0.5,0,1,0,1.4,0c0,0.1-0.1,0.2-0.1,0.4
				c-0.1,0.5-0.2,0.9-0.3,1.3c0.1,0,0.3,0.1,0.6,0.1c0.3,0.1,0.4,0.4,0.4,0.9c0,1.1-0.2,2.7-0.5,4.7c-0.3,2-0.5,3.9-0.5,5.6
				c-0.5,0.2-0.9,0.4-1.3,0.6c-0.6-0.4-1-1.1-1.1-2.2c0-0.2-0.1-0.7-0.1-1.4l0,0l0.3-1.4c-0.4-1.6-1-2.8-1.8-3.5
				c0.1-0.1,0.3-0.2,0.5-0.2c0.4,0,0.7,0.3,1.1,0.8c0-0.4,0-0.7,0-0.8c0.1-0.8,0.4-1.5,0.8-2.1c-0.3-0.3-0.6-0.7-0.8-1.2
				c-0.1-0.1-0.1-0.3-0.1-0.4c0,0.1-0.1,0.1-0.1,0.2c-0.3,0.6-0.5,1.1-0.5,1.5c-0.1,0-0.3,0.1-0.5,0.3c-0.3,0.2-0.6,0.3-0.8,0.3
				c-0.4-0.4-0.8-0.8-1-1.3c-0.2-0.4-0.3-0.7-0.3-0.9c0-1,0.1-1.6,0.2-1.8C187.3,192.8,187.7,192.6,188.3,192.6z M192.6,190.2
				c-0.4-0.2-1-0.5-1.6-0.7c-0.2-0.1-0.4-0.1-0.5-0.2c1.4-0.6,2.1-1.3,2.1-2.3c0.3,0.1,0.6,0.2,1,0.3c0.2-0.5,0.3-0.3,0.3,0.5
				c0,0.1-0.3,0.6-0.8,1.5C192.8,189.6,192.7,189.8,192.6,190.2z M187.2,204.1l-0.2,0.2c-0.1,0.1-0.2,0.2-0.4,0.2v0
				c0-0.1,0-0.3,0-0.4c0-0.1,0-0.3,0-0.4C186.8,203.8,187,204,187.2,204.1z M196.7,184.9c0,1.7,0,3.5,0,5.4
				c-0.2,0.1-0.5,0.2-0.7,0.3c-0.6-0.3-1-0.8-1.1-1.5c-0.1-0.2-0.1-0.7-0.1-1.4c0-1.3,0.1-2.1,0.2-2.3
				C195.2,184.9,195.8,184.8,196.7,184.9z M186.4,181c0.5-0.4,0.7-0.8,0.7-1c0-0.7-0.3-1.2-0.8-1.6c0-0.2,0-0.5,0-0.7
				c0.2-0.2,0.4-0.2,0.7-0.2c0.8,0.1,1.3,0.7,1.3,1.9c0,0.6-0.1,1.1-0.2,1.6c-0.4,0.2-0.7,0.3-1,0.4c-0.3-0.1-0.5-0.2-0.6-0.3
				C186.4,181.1,186.4,181.1,186.4,181z M195.3,195.7c0.2,0,0.5,0,1-0.1c0.1,0,0.2,0,0.4,0c0,0.9,0,1.8,0,2.7c0,0.1,0,0.2,0,0.3
				c0,0.3,0,0.7,0,1c0,0.2,0,0.4,0,0.7c-0.8-0.1-1.3-0.5-1.5-1.2c-0.1-0.4-0.1-0.9,0-1.4L195.3,195.7z M194,199.7
				c0.8,0.9,1.3,1.5,1.5,1.9c0.2,0.4,0.3,1.1,0.3,2c-0.1,0.3-0.1,0.5-0.3,0.7c-0.1,0.2-0.5,0.3-1,0.3c-0.7,0-1.2-0.4-1.5-1.3
				c-0.2-0.5-0.3-1-0.3-1.5c0-0.2,0.1-0.5,0.2-0.8C193.2,200.5,193.5,200.1,194,199.7z M189.2,212c0.1,0,0.1,0.3,0.1,0.8
				c0,0.3-0.3,0.8-0.9,1.5c-0.5,0.6-1,1.1-1.4,1.3c-0.1,0-0.3-0.1-0.3-0.1c0-1.2,0-2.4,0-3.6c0.5-0.1,1.3,0,2.3,0.2
				C189,212,189.1,212,189.2,212z M189.3,215.3c0-0.2,0-0.4,0-0.5c0-2.1,0.5-3,1.5-2.6c0.8,0.3,1.2,0.9,1.4,2
				c-0.6,0-1.3,0.2-2.2,0.7C189.7,215,189.5,215.2,189.3,215.3z M191.3,232.1c0,0,0.1,0,0.1,0c1.1-0.7,1.7-1.5,1.7-2.5
				c0-1.3-0.4-1.9-1.3-2c0.2-0.4,0.4-0.8,0.8-1c0.6,0.2,1,0.6,1.3,1v7.5c-0.5,0.2-0.9,0.4-1.3,0.6c-0.6-0.3-1-1.1-1.1-2.2
				C191.4,233.2,191.3,232.8,191.3,232.1z M196.8,214.8c0,2.6,0,5.2,0,7.8c0,0.2,0,0.3,0,0.5c0,0.1,0,0.2,0,0.3
				c-0.7,0.2-1.1,0.3-1.2,0.4c-0.5-0.2-0.8-0.3-0.9-0.4c-0.2-0.2-0.4-0.6-0.4-1.1c0-0.6,0.2-1,0.7-1.2c0-0.1,0-0.2,0-0.3
				c-0.1-0.3-0.1-1.1-0.1-2.2c0-3,0.4-4.4,1.3-4.3C196.3,214.3,196.6,214.5,196.8,214.8z M194.4,236.2c0.2-1.1,0.5-1.4,0.9-0.8
				C195,235.6,194.7,235.9,194.4,236.2z M194.6,240.3c0.1,0,0.1,0,0.2,0c0.7,0,1.4-0.3,2.2-0.8c0,1.6,0,3.2,0,4.8
				c-0.9,0-1.7-1.1-2.2-3.2C194.7,240.9,194.7,240.6,194.6,240.3z M190.8,239.2c1,2.7,1.5,4.7,1.5,6c0,0.9-0.1,1.5-0.2,2
				c-0.4,0.2-0.7,0.4-1,0.5c-0.9-0.7-1.5-1.8-1.6-3.3c-0.1-0.4-0.1-1.6-0.1-3.6C189.3,237.1,189.8,236.5,190.8,239.2z M190.8,252.5
				c-0.3-0.7-0.5-1.3-0.5-1.7c0-0.4,0-0.7,0-0.7c0.1-0.1,0.2-0.1,0.2-0.3c0.8,0,1.5,0.3,2.3,0.9c0.2,0.2,0.4,0.3,0.5,0.5
				c0.1-0.3,0.2-0.5,0.3-0.7c-0.4-0.2-0.8-0.5-1.2-0.9c-0.5-0.6-0.9-1.1-1-1.7c0.9-0.4,1.7-0.4,2.4,0c0.7,0.3,1.3,0.9,1.6,1.9
				c0.2,0.4,0.4,0.9,0.5,1.5c0,0.2,0,0.5,0,0.9c0,0,0.1,0,0.1,0c0.3,0.1,0.4,0.4,0.4,0.9c0,0.2-0.2,0.7-0.5,1.4
				c-0.1,0.7-0.1,1.3-0.2,1.8h0c-1.4-0.4-2.2,0.2-2.2,1.8c0,0.3,0.2,0.8,0.5,1.5c-0.7-0.7-1-1-1-1.2c0-1.2,0-2.1,0-2.9
				c0-0.1,0-0.2,0-0.3c0-0.2,0-0.4,0-0.6c0-0.2,0-0.4,0.1-0.6c-0.1,0-0.2,0-0.3,0C192.6,252.7,192,252.2,190.8,252.5z M197,253.9
				c-0.2,0.3-0.4,0.5-0.5,0.8c-0.1-0.8-0.2-1.6-0.2-2.5c0-1.1,0.1-1.7,0.2-2c0.1-0.2,0.3-0.4,0.5-0.6C197,251.1,197,252.5,197,253.9
				z M194,259.8c0.1,0.1,0.2,0.3,0.3,0.4c0,0,0,0.1,0,0.1c0,0.1-0.3,0.6-0.8,1.5c-0.4,0.6-0.5,1.3-0.3,2.1c0,0,0.1,0.2,0.1,0.4v0
				c0,0.1,0,0.2,0,0.4c0,0.4-0.1,1.1-0.3,2c-0.1,0.5-0.2,0.9-0.3,1.3c0.1,0,0.3,0.1,0.6,0.1c0.3,0.1,0.4,0.4,0.4,0.9
				c0,1.1-0.2,2.7-0.5,4.6c-0.3,2-0.5,3.9-0.5,5.6c-0.5,0.3-0.9,0.5-1.3,0.6c-0.1-0.1-0.1-0.1-0.2-0.1c-0.1-0.1-0.2-0.2-0.3-0.4
				c-0.3-0.4-0.5-1-0.6-1.7c-0.1-0.3-0.1-1-0.1-2.1c-0.1,0-0.1,0-0.3,0c-1,0-1.6-0.5-1.8-1.3c-0.1-0.4-0.1-0.8,0-1c0-1.3,0.4-2,1-2
				c0.2,0,0.4,0.1,0.6,0.2c-0.4,0.4-0.6,1-0.6,1.8c0,0.1,0,0.5,0,1.3c0.2,0.7,0.9,1.1,2,1.1c0.7,0,1.2-0.2,1.5-0.7
				c0.2-0.4,0.3-1,0.3-1.8c0-1.6-0.6-2.3-1.8-2.2c-0.3,0-0.5,0-0.8,0.2c0.1-0.7,0.4-1.4,0.8-1.9c-0.3-0.4-0.6-0.8-0.8-1.2
				c-0.1-0.1-0.1-0.3-0.1-0.4c0,0.1-0.1,0.1-0.1,0.2c-0.3,0.6-0.5,1.1-0.5,1.5c-0.1,0-0.3,0.1-0.5,0.3c-0.3,0.2-0.6,0.3-0.8,0.3
				c-0.4-0.4-0.8-0.8-1-1.3c-0.2-0.4-0.3-0.7-0.3-0.9c0-1,0.1-1.6,0.2-1.8c0.4-0.6,1.4-0.8,2.9-0.5c0-0.2,0-0.4,0.1-0.5
				c0,0,0-0.1,0-0.1c-0.1-0.2-0.2-0.4-0.2-0.7c-0.1-0.3-0.1-0.7-0.1-1.1c-0.2-0.3-0.3-0.8-0.4-1.3c-0.1-0.7-0.1-1.2,0-1.6
				c0-1.7,0.5-2.4,1.5-2.1c0.6,0.2,1,0.7,1.3,1.7C192.9,259.5,193.4,259.6,194,259.8z M189.8,252.8c-1.5,0.6-2.3,1.4-2.4,2.5
				c-0.1-0.3-0.1-0.7-0.1-1.4c-0.5-0.2-0.8-0.5-0.9-0.8c-0.1-0.2-0.1-0.5-0.1-1.2c0-1.3,0.4-1.9,1.3-1.8c0.4,0.1,0.8,0.3,1,0.6
				l0-0.1c0.6,0.2,1,0.6,1.3,1V252.8z M195.3,289.9c0.1-2,0.4-3,1-3.2c-0.2,2.8-0.5,5.4-0.8,7.8c0,0.4-0.1,0.9-0.1,1.4
				c-0.1-0.1-0.2-0.1-0.3-0.2c-0.2-0.2-0.4-0.6-0.4-1.2c0-0.6,0.2-0.9,0.7-1.1c0-0.1,0-0.2,0-0.3c0-0.2-0.1-0.7-0.1-1.4
				c0.2-0.3,0.4-0.5,0.4-0.8C195.7,290.6,195.5,290.2,195.3,289.9z M188.5,292.8c0,0,0,0.1,0,0.2c0.3,0.7,1,1,2,1c0.1,0,0.1,0,0.2,0
				c0,0.6,0,1.3,0,2.1c0,1.8-0.1,3.3-0.2,4.5c-0.3,0.1-0.5,0.3-0.8,0.4c0.1,0.4,0.2,0.7,0.3,1.1c0.2,3.9,0.3,6,0.3,6.3
				c0,0.7-0.1,1.3-0.2,1.8c-0.3,0.2-0.6,0.4-0.9,0.5c-0.1,0.4-0.2,0.9-0.4,1.5c0,0.1,0,0.2,0,0.4c0,0,0,0.3,0,0.7
				c0,0.7-0.3,1.6-0.8,2.7c0,0.1-0.1,0.2-0.2,0.3l-0.8,0.3c-0.6-0.2-1-0.5-1.1-0.9c-0.1-0.2-0.1-0.6-0.1-1.2c0-0.8,0.1-1.4,0.2-1.6
				c0.2-0.3,0.4-0.4,0.8-0.5c0,0,0.1,0,0.2,0c-0.5-0.1-0.9-0.1-1.2,0c0-1.1,0.1-1.8,0.2-2.1c0.3-0.5,1-1,2.1-1.6
				c-0.2-0.5-0.3-1.1-0.5-1.7c-0.2,0.5-0.3,0.9-0.3,1.3c-0.1,0-0.3,0.1-0.5,0.3c-0.3,0.2-0.6,0.3-0.8,0.4c-0.6-0.4-1-0.9-1.1-1.5
				c-0.1-0.2-0.1-0.8-0.1-1.7l0-2.8c0.5,0,1,0,1.4,0.1c-0.9-2.9-1.4-4.7-1.4-5.4c0-0.3,0-0.5,0-0.5c-0.1,0-0.2,0.1-0.3,0.1
				c0.3-0.5,0.5-1,0.8-1.5c0,0.1,0,0.2,0,0.4c0,0.2,0,0.4-0.1,0.6c1.3,0,2.4,0.5,3.2,1.4c0-0.5,0-1.1,0-1.8
				C188.3,294.6,188.4,293.5,188.5,292.8z M188.7,287c-0.1-0.9-0.5-1.4-1.1-1.4c-0.4,0-0.8,0.1-1.3,0.5c0-0.1,0-0.2,0-0.3
				c0-0.9,0.1-1.4,0.2-1.5c0.1,0,0.1-0.1,0.2-0.1c0.3,0,0.5,0.1,0.8,0.1c0.2,0,0.5-0.1,0.9-0.2c0.3,0,0.7,0.1,1.1,0.2
				c0,0,0,0.1,0.2,0.1c0.1,0,0.1,0.3,0.1,0.8c0,0.3-0.3,0.8-0.9,1.5C188.8,286.8,188.7,286.9,188.7,287z M192.7,289.1
				c-0.2,0-0.5,0-0.7,0.1c-0.8,0.1-1.4,0.3-1.9,0.5c-0.2-0.2-0.3-0.6-0.4-1c-0.1-0.6-0.1-1,0-1.4c0-2.1,0.5-3,1.5-2.6
				c1,0.3,1.5,1.4,1.5,3.1c0,0.4,0,0.8-0.1,1.1C192.7,288.9,192.7,289,192.7,289.1z M186.3,280.9c-0.6,0.5-0.9,1.1-0.9,1.8
				c0,0.5,0,0.8,0.1,0.9c0.1,0.1,0.2,0.2,0.3,0.3c-0.1,0.9-0.1,1.6-0.2,2.2c-0.3,0.1-0.5,0.3-0.8,0.4c0-0.2,0-0.5,0-0.7
				c0-0.3,0.1-0.6,0.1-1c0.1-2.3,0.1-4.6,0.3-6.8c0.3,0.4,0.4,1,0.5,2c0.1,0,0.3,0,0.3,0c0,0,0,0.1,0.2,0.1
				C186.3,280.2,186.3,280.5,186.3,280.9z M196.8,268c0.1,0,0.2,0,0.3,0c0,1,0,2,0,3c0,0.5,0,1.1,0,1.6c-0.7-0.1-1.1-0.5-1.3-1.1
				c-0.1-0.4-0.1-0.9,0-1.4l0-2C196,268.1,196.3,268.1,196.8,268z M193.3,274.2c0-0.2,0.1-0.5,0.2-0.8c0.2-0.5,0.5-0.9,1-1.3
				c0.8,0.9,1.3,1.5,1.5,1.9c0.2,0.4,0.3,1,0.3,2c-0.1,0.3-0.1,0.5-0.3,0.7c-0.1,0.2-0.5,0.3-1,0.3c-0.7,0-1.2-0.4-1.5-1.3
				C193.4,275.2,193.3,274.7,193.3,274.2z M196.8,279.9c-0.1,1.3-0.1,2.6-0.2,3.8c-0.5,1.6-0.8,2.8-1,3.8c-0.4,0.2-0.7,0.3-1,0.4
				c-0.4-0.4-0.8-0.9-1-1.5c-0.2-0.4-0.3-0.7-0.3-1c0-0.9,0.3-2.1,0.9-3.6c0.4-1,0.8-1.7,1.2-2.3c0-0.3,0.1-0.5,0.2-0.7
				c0.3-0.3,0.7-0.5,1.3-0.5c0,0.1,0,0.2,0,0.3C196.8,279.2,196.8,279.5,196.8,279.9z M192.3,314.4c0.2,0.7,0.3,1.3,0.5,1.8
				c-0.2,0.5-0.3,1.2-0.3,2v0c-0.2,0-0.4,0.1-0.6,0.2c0.1,0.4,0.4,0.8,0.7,1.3c-0.3,0.2-0.6,0.3-0.9,0.4c-0.9-0.7-1.5-1.8-1.6-3.3
				c-0.1-0.4-0.1-1.6-0.1-3.6c0-3.8,0.5-4.3,1.5-1.7c0,0.1,0.1,0.2,0.2,0.4c0,0.3,0,0.7,0.1,1.4
				C191.7,313.8,191.9,314.1,192.3,314.4z M192.7,320.5c0.1,0.4,0.3,0.7,0.6,0.9c0,0.3,0,0.5,0,0.8c0,0.7,0,1.3,0,2
				c-0.3-0.2-0.6-0.6-0.9-1.2c-0.3-0.7-0.5-1.3-0.5-1.7c0-0.4,0-0.7,0-0.7c0.1-0.1,0.2-0.2,0.2-0.3
				C192.3,320.4,192.5,320.4,192.7,320.5z M194.2,307c-0.4,0.4-0.8,0.7-1.2,1.1c-0.6-0.4-1-1.1-1.1-2.2c-0.1-0.4-0.1-1.2-0.1-2.4
				c0-1.2,0-2,0.1-2.3c0.1-1.1,0.5-1.9,1.1-2.2c0.6,0.2,1,0.5,1.3,1v6c0,0.3-0.1,0.5-0.1,0.8c0,0,0,0.1,0,0.1
				C194.2,307,194.2,307,194.2,307z M185.2,317.8h-0.1c0,0.1,0,0.2,0,0.3c-0.1,0.1-0.5,0.2-1,0.2c-0.1,0-0.2,0-0.3,0
				c0.1-1.6,0.1-3.4,0.2-5.2c0.9,2.5,1.3,3.8,1.3,3.8C185.3,317.3,185.3,317.7,185.2,317.8z M183.5,326.1c0-0.6,0-1.2,0-1.9
				c0.1,0,0.1,0,0.2,0c0-0.3,0-0.6,0-1c0-1,0.1-1.6,0.2-1.7c0.3-0.4,1.1-0.4,2.5-0.2c0.1,0.3,0.2,0.7,0.2,1.3c0,0.3,0,0.6,0,0.9
				c0,0,0,0.1,0,0.1v0c0,0,0,0.1,0,0.1c0,1-0.1,1.8-0.2,2.6c0,0.1,0,0.2,0,0.3c-0.1,0.1-0.3,0.2-0.7,0.3c0.1,0.9,0.4,2.2,1,3.8
				c0.2,0.5,0.3,1,0.5,1.3c0.2,0.2,0.4,0.4,0.5,0.6v4.3h-1c-0.3,0-0.5,0-0.8-0.1c-0.1,0-0.2,0-0.3,0c-0.1,0-0.2,0-0.3,0
				c-0.1,0-0.2-0.1-0.3-0.2c-0.1-0.6-0.1-1.1-0.2-1.6c-0.1,0-0.3,0.1-0.4,0.1c-0.6-0.4-1-0.9-1.1-1.5c0-0.1-0.1-0.2-0.1-0.3
				c0,0,0-0.1,0-0.1c0-0.3,0-0.6,0-1c0-0.1,0-0.1,0-0.1c0.1,0,0.2,0,0.3,0c0.7,0,1.2-0.2,1.6-0.6c0.3-0.4,0.5-0.8,0.5-1.3
				c0-0.9-0.5-1.9-1.5-3c0.1,0,0.2,0,0.3,0c0.2,0,0.4,0,0.6-0.1c-0.4-0.1-0.7-0.2-0.9-0.5c-0.1-0.1-0.2-0.3-0.3-0.4
				c-0.1,0.1-0.1,0.3-0.3,0.5C183.7,326.3,183.6,326.2,183.5,326.1z M193.2,329.4c0,0.2,0,0.4,0,0.6c0,0,0,0.1,0,0.1
				c0,0.1,0,0.2,0,0.3c0,0.1,0,0.2,0,0.3c0,0.8,0,1.6,0,2.5c0,0.5,0,1,0,1.4c0,0,0,0.1,0,0.1c0,0.1-0.1,0.2-0.1,0.3c0,0-0.1,0-0.2,0
				c-0.4,0.2-0.8,0.3-1.1,0.5c0-0.1,0.1-0.2,0.1-0.3c0,0,0-0.1,0-0.1c-0.1-0.2-0.2-0.4-0.2-0.7c-0.1-0.3-0.1-0.7-0.1-1.1
				c-0.2-0.3-0.3-0.8-0.4-1.3c-0.1-0.7-0.1-1.2,0-1.6c0-0.4,0-0.7,0.1-1c0.3,0,0.6,0,0.9,0C192.6,329.4,192.9,329.4,193.2,329.4z
				 M190.7,329.3c0.1,0.3,0.1,0.7,0.1,1c0,0.7-0.1,1.3-0.2,1.8c-0.4,0.2-0.7,0.4-1,0.5c-0.4-0.4-0.8-0.9-1-1.4
				c-0.2-0.4-0.3-0.7-0.3-0.8c0-1,0.2-1.7,0.7-1.9c0,0,0,0.1,0,0.1C189.3,328.9,189.9,329.2,190.7,329.3z M190.3,325.8
				c-0.9,0.3-1.4,0.9-1.4,1.8c0,0.3,0,0.6,0.1,0.8c-0.1-0.1-0.3-0.1-0.5-0.1c-0.1,0-0.3,0-0.4,0.1c-0.1-0.2-0.2-0.4-0.3-0.7
				c-0.1-0.2-0.1-0.7-0.1-1.6c0-0.6,0.1-1.2,0.3-1.7c0.2-0.1,0.4-0.1,0.5-0.2c-0.4-0.2-0.6-0.5-0.7-0.8c-0.1-0.2-0.1-0.5-0.1-1.1
				c0-1.3,0.4-2,1.3-1.9c0.8,0.1,1.3,0.7,1.3,1.9c0,0.2,0,0.4,0,0.7c0,0.2-0.1,0.5-0.1,0.7c0,0,0.1,0.1,0.1,0.2V325.8z M188.9,336.5
				c0-0.2,0.1-0.3,0.1-0.3c0.4-0.6,1.3-0.8,2.5-0.5c-0.4,0.1-0.9,0.3-1.3,0.4C189.8,336.2,189.3,336.4,188.9,336.5z"/>
			<path fill-rule="evenodd" clip-rule="evenodd" fill="#E8E8F4" d="M183.3,98.4c0,0.5,0,0.8-0.1,0.9h-0.1l-0.1,0.2
				c-0.1,0.1-0.2,0.1-0.5,0.1c-0.1-1.2-0.1-2.6-0.1-4c0.2,0.4,0.3,0.8,0.4,1.2c0-1.4,0.4-2.1,1.3-2.1c0.8,0,1.3,0.7,1.3,2.1
				c0,0.7-0.1,1.3-0.2,1.8c-0.4,0.2-0.7,0.4-1,0.5c-0.3-0.3-0.6-0.6-0.8-0.9L183.3,98.4z M183.7,112.9c0,0.2,0.1,0.3,0.1,0.5
				l-0.1,0.1C183.7,113.3,183.7,113.1,183.7,112.9z M196.4,210.1c-0.1,0.2-0.1,0.4-0.2,0.6c-0.5,1.8-0.9,3.3-1.1,4.5
				c-0.4,0.2-0.7,0.3-1,0.4c-0.4-0.4-0.8-0.8-1-1.5c-0.2-0.4-0.3-0.7-0.3-0.9c0-0.9,0.3-2.1,0.9-3.7c0.4-1,0.8-1.7,1.2-2.3
				c0-0.3,0.1-0.5,0.2-0.7c0.3-0.4,0.9-0.6,1.8-0.6c0,1.3,0,2.5,0,3.8C196.6,210,196.5,210,196.4,210.1z M190.1,220.2
				c-0.1,0-0.2,0-0.3,0c-1.3,0-1.9,0.7-1.9,2c0,1.1,0.7,1.7,2,1.7c0.2,0,0.3,0,0.5,0c0,1.6,0,3-0.1,4c-1.9,0.7-2.8,1.7-2.8,3
				c0,0,0.1,0.4,0.2,1c0.3,0.7,1,1,2,1c0,0,0.1,0,0.2,0c0.1,1.8,0.1,2.8,0.1,3c0,0.7-0.1,1.3-0.2,1.8c-0.3,0.2-0.6,0.4-0.9,0.5
				c-0.1,0.4-0.2,0.9-0.4,1.5c-0.4,1.5-0.6,2.7-0.7,3.4c-0.1,0.1-0.3,0.1-0.3,0.2c-0.1,0.6-0.5,1.4-1,2.4l-0.2,0.1
				c0.1-3.2,0.2-6.2,0.3-8.9c0.3-0.3,0.8-0.5,1.3-0.8c-0.2-0.5-0.3-1.1-0.5-1.7c-0.2,0.5-0.3,0.9-0.3,1.3c-0.1,0-0.2,0.1-0.4,0.2
				c0-0.5,0-0.9,0-1.3c0.1-2.5,0.2-4.6,0.2-6.1c0-0.2,0-0.5,0-0.8c0-0.2,0-0.3,0-0.5c0-0.1,0-0.1,0-0.2c0-0.1,0-0.1,0-0.2
				c0-0.7,0-1.5,0.1-2.3c0.4,0.2,0.8,0.6,1.2,1c0-0.5,0-1.1,0-1.9c0-1.7,0.1-2.9,0.4-3.7c0.1,0,0.3,0,0.4,0c0.7,0,1.7-0.4,3-1.3
				c0.3-0.2,0.6-0.5,0.9-0.6c0.3,0.3,0.6,0.7,0.8,1.3c-0.1,0.3-0.1,0.6-0.3,0.7c-0.1,0.3-0.5,0.5-1,0.5c-0.7,0-1.4-0.2-2-0.6
				C190,219.9,190.1,220,190.1,220.2z M186.3,251.2c0,0.4-0.1,0.8-0.3,1.3c0-0.7,0-1.4,0-2.1C186.2,250.5,186.3,250.8,186.3,251.2z
				 M186.8,259.8c0-1.4,0.4-2,1.3-2c0.8,0,1.3,0.7,1.3,2c0,0.7-0.1,1.3-0.2,1.8c-0.4,0.2-0.7,0.4-1,0.5c-0.3-0.3-0.6-0.6-0.8-0.9
				l0,0.1c0,0.5,0,0.8-0.1,0.9h-0.1l-0.1,0.2c-0.1,0.1-0.3,0.1-0.7,0.1v4c0.3,1.7,0.5,3.3,0.5,4.8c0,0.5,0,0.8-0.1,0.9h-0.1
				l-0.1,0.2c0,0-0.1,0.1-0.2,0.1c0.4,0.3,0.6,0.7,0.8,1.2c0.2,1.1,0.5,1.9,0.7,2.5l-0.3,0.4c-0.2,0.2-0.5,0.3-1,0.3
				c-0.6,0-1-0.2-1.3-0.5c0.2-7.2,0.4-13.8,0.6-19.7c0.1,0.5,0.3,1,0.5,1.6S186.7,259.4,186.8,259.8z"/>
		</g>
	</g>
	<g>
		<path fill-rule="evenodd" clip-rule="evenodd" fill="#FFFFFF" d="M178.1,79.1c-0.4,0.2-0.8,0.3-1.1,0.3c-0.2,0-0.4,0-0.5,0
			c0-0.1,0-0.4,0-0.9s0-0.8-0.1-0.8c-0.1,0-0.1-0.1-0.1-0.1c-0.5-0.1-1-0.2-1.4-0.2c0.1-1.1,0.8-1.6,2.1-1.6c1.4,0,2.1,0.6,2.1,1.9
			C179,78.3,178.7,78.8,178.1,79.1z M177,81.2c2.4-0.5,3.6,0.1,3.6,1.8c0,0.7-0.4,1.3-1.3,1.7c-0.8,0.4-1.8,0.6-3.1,0.6
			c-1.5,0-2.4-0.3-2.8-0.8c-0.1-0.1-0.2-0.5-0.2-1C173.3,82.5,174.5,81.7,177,81.2z M172.5,83.3c-0.4,0.4-0.9,0.6-1.6,0.6
			c-1,0-1.7-0.3-2-1c-0.2-0.4-0.2-0.8-0.2-1.1c0-1.5,0.7-2.2,2.2-1.9c1.4,0.3,2.1,1,2.1,2.1C173,82.5,172.9,82.9,172.5,83.3z
			 M180.8,81.8c0-1.4,0.6-2.1,1.9-2.1c1.2,0,1.8,0.7,1.8,2.1c0,1.1-0.6,1.8-1.8,2.1l-1.8-0.6L180.8,81.8z M185.3,84.4
			c0-1.7,0.9-2.1,2.7-1c1.7,1.1,2.6,2.1,2.6,3.1c0,0.5-0.1,0.9-0.5,1.3c-0.4,0.4-0.8,0.6-1.4,0.6c-1.3,0-2.3-0.7-2.9-2.1
			C185.5,84.9,185.3,84.3,185.3,84.4z"/>
	</g>
</g>
</svg>
