<?xml version="1.0" encoding="utf-8"?>
<!-- Generator: Adobe Illustrator 16.0.0, SVG Export Plug-In . SVG Version: 6.00 Build 0)  -->
<!DOCTYPE svg PUBLIC "-//W3C//DTD SVG 1.1//EN" "http://www.w3.org/Graphics/SVG/1.1/DTD/svg11.dtd">
<svg version="1.1" id="Layer_1" xmlns="http://www.w3.org/2000/svg" xmlns:xlink="http://www.w3.org/1999/xlink" x="0px" y="0px"
	 width="210px" height="350px" viewBox="0 0 210 350" enable-background="new 0 0 210 350" xml:space="preserve">
<g>
	<g>
		<g>
			<linearGradient id="SVGID_1_" gradientUnits="userSpaceOnUse" x1="297.4121" y1="-7.8252" x2="176.8451" y2="82.7687">
				<stop  offset="0" style="stop-color:#C4CDD2"/>
				<stop  offset="0.2824" style="stop-color:#E4F1F9"/>
				<stop  offset="0.4235" style="stop-color:#A2A29A"/>
				<stop  offset="0.6" style="stop-color:#A5A79C"/>
				<stop  offset="0.7529" style="stop-color:#EBF1EF"/>
				<stop  offset="1" style="stop-color:#A0A2A3"/>
			</linearGradient>
			<polygon fill-rule="evenodd" clip-rule="evenodd" fill="url(#SVGID_1_)" points="166.2,88.4 166.8,86.1 166.8,86 190.3,75.2 
				189.5,77.5 			"/>
			<linearGradient id="SVGID_2_" gradientUnits="userSpaceOnUse" x1="35.7588" y1="-25.3027" x2="150.9229" y2="121.4666">
				<stop  offset="0" style="stop-color:#C4CDD2"/>
				<stop  offset="0.2824" style="stop-color:#E4F1F9"/>
				<stop  offset="0.4235" style="stop-color:#A2A29A"/>
				<stop  offset="0.6" style="stop-color:#A5A79C"/>
				<stop  offset="0.7529" style="stop-color:#EBF1EF"/>
				<stop  offset="1" style="stop-color:#CBCFCE"/>
			</linearGradient>
			<polygon fill-rule="evenodd" clip-rule="evenodd" fill="url(#SVGID_2_)" points="166.8,86 15.5,45.3 39.5,34.6 190.3,75.1 
				190.3,75.2 			"/>
			<linearGradient id="SVGID_3_" gradientUnits="userSpaceOnUse" x1="14.4912" y1="46.374" x2="166.5211" y2="87.1555">
				<stop  offset="0" style="stop-color:#C4CDD2"/>
				<stop  offset="0.2824" style="stop-color:#E4F1F9"/>
				<stop  offset="0.4235" style="stop-color:#A2A29A"/>
				<stop  offset="0.6" style="stop-color:#A5A79C"/>
				<stop  offset="0.7529" style="stop-color:#EBF1EF"/>
				<stop  offset="1" style="stop-color:#CBCFCE"/>
			</linearGradient>
			<polygon fill-rule="evenodd" clip-rule="evenodd" fill="url(#SVGID_3_)" points="166.2,88.4 15,47.8 15.5,45.3 166.8,86 
				166.8,86.1 			"/>
		</g>
		<g>
			<polygon fill-rule="evenodd" clip-rule="evenodd" fill="#FFFFFF" fill-opacity="0.502" points="189.8,75.8 166.7,86.5 
				166.7,86.4 15.2,45.8 15.3,45.3 166.8,86 166.8,86 190,75.3 			"/>
		</g>
	</g>
	<g>
		<g>
			<path fill-rule="evenodd" clip-rule="evenodd" fill="#CBCDDA" d="M175.1,74.9c-1.1-0.3-1.9,0.1-2.4,1.1s-0.3,1.6,0.6,1.9
				C177.5,78.8,178.1,77.8,175.1,74.9z M159.1,65c-0.6,0.2-0.8,0.8-0.8,1.6c0.2,2.3,1.8,3.8,4.7,4.5c1,0.2,1.8,0,2.2-0.8
				c0.7-1.1,0.8-2.1,0.5-2.9c0.4,0.1,0.8,0.3,1.3,0.4c0,0,0,0.1,0,0.1c0.4,1,1.1,1.5,2.3,1.5c0.5,0,0.9-0.1,1.2-0.3
				c0.5,0.5,1.1,0.8,2,0.8c0.1,0,0.1,0,0.2,0c1.3,0.5,2.6,0.9,3.9,1.4v0.1l2.7,1l0.7,1.8v0.4c0.3,0.2,0.4,0.4,0.3,0.7l0.1,0.1
				l0.1,0.1l2.6,1.1l0,0v0.1l-0.1,0.9l-0.1,0.4v0.7l-0.1,0.8l0,0l-0.3,0.9l-0.4,0.5l-0.2,0.6l-0.4,0.7l0,0.2c-0.1,0-0.2,0-0.2,0
				c-0.2,0.1-0.4,0.2-0.6,0.3c-0.5,0.2-1.1,0.3-1.6,0.5c-0.1,0-0.2,0-0.3,0.1c-0.2,0-0.4,0.1-0.5,0.1c-0.1,0-0.3,0.1-0.5,0.2
				c-0.2,0-0.4,0-0.5,0c-0.1,0.1-0.2,0.1-0.3,0.1c-0.4,0.1-0.8,0.2-1.2,0.3c-0.3,0.1-0.6,0.1-1,0.2c-0.2,0-0.5,0.1-0.9,0.2l-0.1,0v0
				c-0.1,0-0.3,0-0.4,0c-0.3,0-0.5,0.1-0.8,0.1c-0.6,0-1.1,0.1-1.7,0.3l-0.1-0.1c-0.3,0-0.6,0.1-0.9,0.1c-0.1,0-0.1,0-0.3,0
				c-0.4,0.1-0.7,0.1-1.1,0.1c-0.4,0.1-0.8,0.1-1.2,0.1l-0.2-0.1h0c-0.5,0.1-1.1,0.2-1.6,0.2c-0.4-0.1-0.7-0.2-1-0.3
				c-0.3,0-0.5,0-0.8-0.1c-0.3,0-0.5,0-0.7-0.1c-0.2-0.1-0.3-0.1-0.5-0.1c-0.3-0.1-0.5-0.2-0.8-0.2c-0.5-0.1-1-0.2-1.5-0.3
				c-0.2-0.1-0.4-0.1-0.6-0.1c-0.2,0-0.4-0.1-0.6-0.1c-0.2,0-0.3-0.1-0.5-0.1c-0.4-0.1-0.8-0.1-1-0.3c-0.1,0-0.3,0-0.5-0.1
				c-0.3-0.1-0.6-0.1-1-0.1c-0.3-0.1-0.5-0.2-0.8-0.2c-0.7-0.1-1.4-0.2-2.1-0.4c-0.4-0.1-0.9-0.3-1.3-0.4c-0.1,0-0.3,0-0.6,0
				c-0.2-0.1-0.5-0.1-0.7-0.2c-0.1,0-0.2-0.1-0.3-0.1c-0.1-0.1-0.3-0.1-0.5-0.2c-0.3-0.1-0.6-0.2-0.9-0.3c-0.3-0.1-0.5-0.1-0.8-0.2
				c-0.4-0.1-0.9-0.3-1.3-0.3c-0.1,0-0.3,0-0.5-0.1c-0.7-0.2-1.4-0.4-2.1-0.6c-0.2-0.1-0.4-0.1-0.5-0.1c-0.2-0.1-0.5-0.1-0.7-0.1
				c-0.4-0.1-0.9-0.3-1.3-0.3c-0.1-0.1-0.3-0.1-0.5-0.2c-0.3-0.1-0.5-0.1-0.8-0.3l0-0.1c-0.1,0-0.3-0.1-0.5-0.1l0,0.2
				c-0.3-0.1-0.5-0.2-0.8-0.3c-0.4-0.1-0.7-0.2-1-0.3c-0.4-0.1-0.8-0.2-1.3-0.4c-1-0.3-2.1-0.6-3.1-0.9c0-0.1,0.1-0.2,0.1-0.3
				c0.1-0.3,0.3-0.7,0.5-1c0-0.1,0-0.2,0.1-0.4c0.1-0.2,0.2-0.3,0.2-0.5c0.1-0.3,0.3-0.7,0.5-1c0-0.1,0.1-0.3,0.2-0.4
				c0.1-0.4,0.3-0.8,0.4-1.1c0.1-0.2,0.2-0.3,0.3-0.5c0-0.1,0.1-0.2,0.2-0.3c0-0.1,0.1-0.3,0.1-0.4c2.5,1.1,3.5,1,2.9-0.4
				c0.1,0,0.1-0.1,0.1-0.1c0.2,0,0.4,0.1,0.6,0.1c0.1,0,0.3,0.1,0.4,0.1c0.1,0,0.2,0,0.3,0c0,0.1-0.1,0.2-0.1,0.3
				c-0.6,2.2,0,2.8,1.8,1.7c0.8,0.5,2.1,0.8,3.9,0.9c4.9,0.3,6.9-0.9,5.8-3.9c0.4-0.3,0.8-0.6,1.2-0.8c0.3-0.3,0.6-0.5,0.8-0.9
				c0.1-0.1,0.3-0.2,0.4-0.4c0.2-0.4,0.4-0.7,0.6-1c0.1-0.2,0.2-0.5,0.4-0.6c0.1-0.1,0.1-0.3,0.1-0.5c0-0.1,0.1-0.3,0.1-0.4
				c0-0.1,0.1-0.3,0.1-0.4c0-0.1,0-0.2,0-0.3c0-0.2,0-0.4,0-0.6c0-0.2,0-0.5,0-0.7c0-0.2-0.1-0.4-0.1-0.5c1,0.4,2,0.8,3,1.2
				C159,64.9,159.1,64.9,159.1,65z M158.8,72c-1.4-0.5-2.6-0.2-3.6,0.8c-0.8,0.9-0.7,1.6,0.4,2C160.1,76.4,161.2,75.4,158.8,72z"/>
			<path fill-rule="evenodd" clip-rule="evenodd" fill="#DDDDE7" d="M156,63.6c0,0.1,0.1,0.3,0.1,0.5c0,0.2,0,0.5,0,0.7
				c0,0.2,0,0.4,0,0.6c0,0.1,0,0.2,0,0.3c0,0.1-0.1,0.2-0.1,0.4c0,0.1-0.1,0.3-0.1,0.4c0,0.2-0.1,0.3-0.1,0.5
				c-0.1,0.2-0.3,0.4-0.4,0.6c-0.2,0.3-0.4,0.7-0.6,1c-0.1,0.1-0.2,0.3-0.4,0.4c-0.3,0.3-0.5,0.6-0.8,0.9c-0.4,0.2-0.8,0.5-1.2,0.8
				c1.1,2.9-0.9,4.2-5.8,3.9c-1.8-0.1-3.1-0.4-3.9-0.9c-1.8,1.1-2.4,0.5-1.8-1.7c0-0.1,0.1-0.2,0.1-0.3c-0.1,0-0.2,0-0.3,0
				c-0.2,0-0.3,0-0.4-0.1c-0.2,0-0.4-0.1-0.6-0.1c0,0-0.1,0-0.1,0.1c0.6,1.4-0.4,1.5-2.9,0.4c-0.2-0.1-0.5-0.2-0.7-0.3
				c-0.4-0.2-0.5-0.6-0.3-1c-0.3-0.1-0.7-0.2-1-0.2c-0.2-0.1-0.4-0.1-0.5-0.1c-0.1-0.1-0.3-0.1-0.5-0.1c-0.6-0.2-1.2-0.3-1.8-0.5
				c-0.4-0.1-0.7-0.2-1.1-0.3c-0.1,0-0.2-0.1-0.3-0.1c-0.4-0.1-0.8-0.3-1.2-0.4c-0.1,0-0.1,0-0.2,0c-0.4-0.1-0.8-0.3-1.3-0.4
				c-0.6-0.2-1.3-0.4-1.9-0.5c0.2,1.2-1,1-3.5-0.5c-0.2-0.1-0.3-0.3-0.3-0.5c-0.4-0.2-0.9-0.3-1.3-0.4h-0.1
				c-0.2,0.6-1.4,0.6-3.8,0.1c-0.8-0.2-1.1-0.7-0.8-1.4c-0.2-0.1-0.4-0.1-0.6-0.1c-0.2-0.1-0.5-0.1-0.7-0.2
				c-0.3-0.1-0.5-0.1-0.7-0.2c-0.4-0.1-0.7-0.2-1-0.3c-0.1,0-0.2-0.1-0.4-0.1c-0.1,0-0.2-0.1-0.3-0.1c0.1,1-1.1,0.9-3.7-0.3
				c-0.4-0.2-0.5-0.4-0.4-0.8c-0.5-0.2-0.9-0.3-1.3-0.4c-0.4-0.1-0.8-0.3-1.2-0.4c-0.2-0.1-0.3-0.1-0.5-0.1
				c-0.1,0.1-0.3,0.2-0.5,0.3c-0.5,0.3-1,0.3-1.8,0c-3.6-1.5-4.7-2.9-3.3-4.1c-0.2-0.2-0.3-0.4-0.4-0.6c0.2-0.1,0.4-0.3,0.6-0.5
				c0.3-0.3,0.5-0.9,0.5-1.5c0-0.2,0-0.4,0-0.6c0.2,0,0.4-0.1,0.7-0.1c0,0.1,0,0.2,0.1,0.3c0.4,1,1.3,1.5,2.5,1.5c1,0,1.8-0.3,2.3-1
				c0.3-0.4,0.5-1,0.5-1.5v-0.1c0.7-0.1,1.4-0.1,2.1-0.2c0,0.1,0.1,0.2,0.2,0.3c0.4,1,1.1,1.5,2.3,1.5c0.2,0,0.3,0,0.5,0
				c0.1,0,0.2,0.1,0.3,0.1c0.4,0.1,0.8,0.3,1.2,0.4c0.8,0.3,1.7,0.6,2.7,0.9h0.1c0.4,0.1,0.7,0.2,1,0.3c0.8-0.9,1.8-1.2,3.1-0.8
				c0.6,0.7,1,1.3,1.3,1.8c0.1,0,0.2,0,0.3,0.1c0.1,0,0.3,0.1,0.4,0.1c0.3,0,0.5,0.1,0.8,0.1c0.3,0.1,0.5,0.1,0.7,0.2
				c0.7,0.1,1.3,0.2,1.9,0.3c0.1-0.1,0.2-0.3,0.3-0.4c0.9-0.9,2.1-1.2,3.4-0.8c0.2,0.2,0.4,0.5,0.5,0.8c0.3-0.1,0.6-0.3,0.9-0.5
				c0.2-0.1,0.4-0.3,0.6-0.4c-0.2,0-0.4-0.1-0.5-0.1c-0.6,0-1-0.4-1-1.1c-0.1-0.7,0-1.3,0.1-1.8c2.7,0.5,5.3,1.1,8,1.9
				c0.1,0.2,0.2,0.5,0.4,0.7c0.7,1.2,1.6,1.8,2.8,1.8c0.7,0,1.3-0.3,1.8-0.9c0.9,0.3,1.7,0.6,2.6,1c0,0.3,0.1,0.7,0.3,1.1
				c0.7,1.2,2.1,1.8,4.3,1.8c0.7,0,1.3-0.1,1.8-0.2c0.5,0.2,1,0.4,1.5,0.7c0.7,0.7,1.6,1,2.7,1C155.8,63.5,155.8,63.6,156,63.6z
				 M159.1,65c0.5,1,1.3,1.5,2.6,1.5c0.4,0,0.7-0.1,1-0.2c1,0.4,1.9,0.8,2.9,1.2c0.3,0.8,0.2,1.8-0.5,2.9c-0.4,0.8-1.1,1-2.2,0.8
				c-2.9-0.7-4.5-2.2-4.7-4.5C158.3,65.8,158.5,65.2,159.1,65z M175.1,74.9c3,2.9,2.4,3.9-1.8,3c-1-0.2-1.2-0.9-0.6-1.9
				S174,74.6,175.1,74.9z M158.8,72c2.3,3.4,1.2,4.4-3.2,2.8c-1.1-0.4-1.2-1.1-0.4-2C156.2,71.8,157.4,71.5,158.8,72z M140.2,63.5
				c-0.5,0.6-0.5,1-0.1,1.3c3.7,2.1,4.4,1.4,2.3-2.1C141.5,62.4,140.7,62.7,140.2,63.5z M127.7,60.6c-1.4-0.4-2.6-0.1-3.4,1.1
				c-0.9,1.3-0.5,2.1,1,2.3C130.2,64.8,131,63.6,127.7,60.6z"/>
			<path fill-rule="evenodd" clip-rule="evenodd" fill="#EAECF8" d="M129.6,54.6c-0.1,0.5-0.2,1.1-0.1,1.8c0.1,0.7,0.5,1.1,1,1.1
				c0.1,0,0.3,0,0.5,0.1c-0.2,0.2-0.4,0.3-0.6,0.4c-0.3,0.2-0.6,0.3-0.9,0.5c-0.2-0.3-0.3-0.6-0.5-0.8c-1.3-0.4-2.5-0.1-3.4,0.8
				c-0.1,0.1-0.2,0.3-0.3,0.4c-0.6-0.1-1.2-0.2-1.9-0.3c-0.2,0-0.4-0.1-0.7-0.2c-0.3,0-0.5-0.1-0.8-0.1c-0.1,0-0.3-0.1-0.4-0.1
				c-0.1,0-0.2-0.1-0.3-0.1c-0.2-0.5-0.6-1.1-1.3-1.8c-1.3-0.4-2.3-0.1-3.1,0.8c-0.3-0.1-0.7-0.2-1-0.3h-0.1c-1-0.3-1.9-0.6-2.7-0.9
				c-0.4-0.2-0.8-0.3-1.2-0.4c-0.1,0-0.2-0.1-0.3-0.1c0.6-0.1,1.1-0.5,1.5-1c0.2-0.3,0.4-0.7,0.5-1.1h0c0,0.4,0.1,0.7,0.2,0.9
				c0.4,0.8,1.2,1.2,2.5,1.2c1.2,0,2.2-0.4,2.9-1.1c0.3-0.3,0.5-0.6,0.6-0.9c1.4,0.1,2.8,0.2,4.1,0.3c0.6,0.8,1.6,1.2,3.1,1.2
				c0.9,0,1.7-0.1,2.3-0.4C129.5,54.6,129.5,54.6,129.6,54.6z M127.7,60.6c3.3,3,2.5,4.1-2.4,3.4c-1.6-0.3-2-1-1-2.3
				C125.1,60.6,126.2,60.2,127.7,60.6z M140.2,63.5c0.6-0.8,1.3-1.1,2.3-0.9c2.1,3.6,1.4,4.3-2.3,2.1
				C139.6,64.5,139.7,64,140.2,63.5z"/>
			<path fill-rule="evenodd" clip-rule="evenodd" fill="#CFD1DD" d="M136.6,71.8c-0.1,0.1-0.1,0.2-0.1,0.4c-0.1,0.1-0.1,0.1-0.2,0.3
				c-0.1,0.1-0.1,0.3-0.3,0.5c-0.1,0.3-0.3,0.7-0.4,1.1c-0.1,0.1-0.1,0.3-0.2,0.4c-0.2,0.4-0.3,0.7-0.5,1c0,0.1-0.1,0.3-0.2,0.5
				c-0.1,0.1-0.1,0.3-0.1,0.4c-0.2,0.3-0.4,0.7-0.5,1c0,0.1-0.1,0.2-0.1,0.3c-0.2-0.1-0.4-0.1-0.7-0.2c-0.4-0.1-0.8-0.2-1.3-0.3
				c-0.4-0.1-0.9-0.3-1.3-0.4c-0.4-0.1-0.8-0.2-1.4-0.4c-0.5-0.2-1-0.3-1.5-0.4c-0.1,0-0.2-0.1-0.3-0.1c-0.3-0.1-0.7-0.2-1-0.3l0,0
				c-0.2,0-0.3-0.1-0.4-0.1c-0.6-0.2-1.2-0.3-1.8-0.4c-0.5-0.2-1.1-0.3-1.6-0.5c-0.4-0.1-0.9-0.3-1.3-0.4c-0.6-0.2-1.1-0.3-1.8-0.5
				c-0.5-0.1-0.9-0.3-1.3-0.4c-0.1,0-0.2-0.1-0.4-0.1c-0.2-0.1-0.5-0.2-0.8-0.3c-0.4-0.1-0.9-0.3-1.4-0.4c-0.6-0.2-1.1-0.3-1.6-0.3
				c-0.1,0-0.3-0.1-0.4-0.1c-0.1,0-0.2-0.1-0.3-0.1c-0.2-0.1-0.4-0.1-0.5-0.1c-0.6-0.2-1.2-0.3-1.8-0.5c-0.2-0.1-0.3-0.1-0.3-0.1
				c-0.4-0.1-0.7-0.2-1-0.3l-0.1,0c-0.1,0-0.3-0.1-0.5-0.1c-0.5-0.1-1-0.3-1.5-0.4c-0.6-0.2-1.1-0.4-1.6-0.5c-0.1,0-0.2-0.1-0.3-0.1
				l-1-0.1l-0.6,0.1c-0.3-0.2-0.5-0.3-0.8-0.4l0-0.1c-0.1,0-0.1-0.1-0.2-0.1c-0.2-0.1-0.4-0.1-0.5-0.1c-0.1-0.1-0.2-0.1-0.3-0.2
				c-0.6-0.3-1.3-0.5-1.9-0.8c-0.5-0.2-1.1-0.4-1.6-0.6c-0.6-0.3-1.3-0.6-2.1-0.8c-0.1-0.1-0.3-0.1-0.4-0.2
				c-0.3-0.1-0.5-0.1-0.8-0.2L96,66.3c0,0-0.1,0-0.3,0c-0.1,0-0.3-0.1-0.5-0.2c-0.5-0.2-1.1-0.3-1.7-0.5c0-0.1-0.1-0.2-0.1-0.2
				c-0.2-0.1-0.5-0.1-0.7-0.1c-0.3-0.1-0.6-0.2-1-0.3l-3.5-2.3c0-0.1,0.1-0.2,0.1-0.3c0-0.1,0.1-0.1,0.1-0.2c0-0.2,0-0.4-0.1-0.5
				c0-0.2-0.2-0.3-0.4-0.3l-1.5-0.4c1.1-0.3,1.8-1,1.9-2c1.4-0.8,3.1-1.5,4.9-2.1c0.6,0.8,1.8,1.3,3.6,1.3c1.3,0,2.2-0.2,2.9-0.5
				c0.1,0.2,0.2,0.4,0.4,0.6c-1.4,1.2-0.3,2.6,3.3,4.1c0.7,0.3,1.3,0.3,1.8,0c0.2-0.1,0.4-0.2,0.5-0.3c0.2,0,0.3,0.1,0.5,0.1
				c0.3,0.1,0.7,0.3,1.2,0.4c0.4,0.1,0.8,0.2,1.3,0.4c-0.1,0.4,0,0.6,0.4,0.8c2.6,1.2,3.8,1.3,3.7,0.3c0.1,0,0.2,0.1,0.3,0.1
				c0.1,0,0.3,0.1,0.4,0.1c0.3,0.1,0.7,0.2,1,0.3c0.2,0.1,0.4,0.1,0.7,0.2c0.2,0.1,0.5,0.1,0.7,0.2c0.2,0,0.4,0.1,0.6,0.1
				c-0.3,0.8,0,1.3,0.8,1.4c2.4,0.5,3.7,0.5,3.8-0.1h0.1c0.4,0.1,0.8,0.2,1.3,0.4c0,0.2,0.1,0.4,0.3,0.5c2.5,1.5,3.6,1.6,3.5,0.5
				c0.6,0.2,1.3,0.4,1.9,0.5c0.5,0.1,0.9,0.2,1.3,0.4c0.1,0,0.1,0,0.2,0c0.4,0.1,0.8,0.2,1.2,0.4c0.1,0,0.2,0,0.3,0.1
				c0.4,0.1,0.7,0.2,1.1,0.3c0.6,0.1,1.2,0.3,1.8,0.5c0.2,0,0.3,0.1,0.5,0.1c0.2,0,0.3,0.1,0.5,0.1c0.3,0,0.6,0.1,1,0.2
				c-0.3,0.5-0.2,0.8,0.3,1C136.1,71.6,136.4,71.7,136.6,71.8z"/>
			<path fill-rule="evenodd" clip-rule="evenodd" fill="#EFEFF9" d="M103.1,69.2c0.1,0,0.3,0,0.5,0.1c0.1,0,0.1,0.1,0.2,0.1l0,0.1
				c0.2,0.1,0.5,0.2,0.8,0.4h-0.3c-0.2-0.1-0.4-0.2-0.5-0.4c-0.1,0-0.2,0-0.3-0.1C103.4,69.3,103.3,69.2,103.1,69.2z"/>
		</g>
	</g>
	<g>
		<g>
			<path fill-rule="evenodd" clip-rule="evenodd" fill="#FFFFFF" d="M189.7,86.4v4.2c-0.5,0.2-0.9,0.4-1.3,0.6
				c-0.6-0.3-1-1.1-1.2-2.2c-0.1-0.4-0.1-1.2-0.1-2.4c0-0.6,0-1,0-1.4c0.1,0,0.3,0,0.4,0C188.4,85.3,189,85.6,189.7,86.4z
				 M187,103.1c-0.1-1.3-0.5-2-1.5-2c-0.1-0.4-0.2-0.8-0.3-1.3c-0.1-0.4-0.1-1.5-0.1-3.2c0.6-0.5,0.8-1,0.8-1.6
				c0-0.7-0.2-1.1-0.7-1.4c0.2-1.1,0.6-0.7,1.3,1c1,2.7,1.5,4.7,1.5,6c0,0.9-0.1,1.5-0.2,2C187.6,102.9,187.3,103,187,103.1z
				 M186.2,118.8c0-0.2-0.1-0.4-0.1-0.6c-0.2-0.3-0.3-0.8-0.4-1.3c-0.1-0.7-0.1-1.2,0-1.6c0-1.2,0.2-1.9,0.7-2.1
				c0,0.1,0,0.1,0.1,0.1c0.3,0.6,0.9,0.9,1.8,1c0,0.1,0.1,0.3,0.1,0.5c0.4,0.1,1,0.2,1.6,0.4c0-0.1,0.1-0.1,0.1-0.1c0,0-0.1,0-0.1,0
				c-0.3-0.3-0.6-0.6-0.8-0.8c1.3-0.1,1.9-0.8,1.9-2c0-1.1-0.8-1.8-2.3-2.1c0-0.1,0-0.2,0-0.3c0-0.2,0-0.4,0-0.6c-0.1,0-0.2,0-0.3,0
				c-0.7,0-1.3-0.5-1.8-1.5c-0.3-0.7-0.5-1.3-0.5-1.6c0-0.4,0-0.6,0-0.6c0.1-0.1,0.2-0.2,0.3-0.3c0.7,0,1.5,0.3,2.2,0.9
				c0.2,0.2,0.4,0.3,0.5,0.5c0.1-0.3,0.1-0.5,0.3-0.6c-0.4-0.2-0.8-0.5-1.2-0.9c-0.5-0.6-0.9-1.1-1-1.7c0.9-0.4,1.7-0.4,2.4,0
				c0.7,0.3,1.3,0.9,1.6,1.9c0.2,0.4,0.3,0.9,0.4,1.5c0,0.2,0.1,0.5,0.1,0.9c0,0,0.1,0,0.1,0c0.3,0.1,0.4,0.4,0.4,0.9
				c0,0.2-0.2,0.7-0.6,1.4c-0.2,2.5-0.7,4.2-1.5,5.1c0.1,0,0.1,0.3,0.1,0.8c0,0.1-0.3,0.6-0.9,1.5c-0.2,0.3-0.3,0.7-0.3,1.2
				c-0.4-0.2-0.9-0.3-1.5-0.1C186.9,118.4,186.5,118.6,186.2,118.8z M186.4,123.3c0.3,0,0.6,0.1,1,0.1c0.5,0,0.9-0.1,1.3-0.1
				c0,0.1,0,0.1,0,0.2c0.1,0,0.3,0.1,0.6,0.1c0.3,0.1,0.4,0.4,0.4,0.9c0,1.1-0.2,2.7-0.5,4.6c-0.3,2-0.5,3.9-0.5,5.6
				c-0.5,0.3-0.9,0.5-1.3,0.6c-0.1-0.1-0.2-0.1-0.3-0.2v-4.4c-0.3-1.5-0.6-3-0.8-4.4c0.1-0.8,0.4-1.4,0.8-1.9
				C186.8,124.1,186.6,123.7,186.4,123.3z M185.8,123.1c0.1,0,0.2,0.1,0.3,0.1c-0.1,0.2-0.1,0.3-0.2,0.4
				C185.9,123.5,185.8,123.3,185.8,123.1z M183.2,97.4c0.2,0,0.3,0,0.5,0c-0.1,0.4-0.2,0.8-0.2,1.1c-0.1,0.1-0.2,0.1-0.3,0.1
				C183.2,98.2,183.2,97.8,183.2,97.4z M190.2,93.6c0-3.6,0.6-4,1.9-1.2c0.4,2,0.8,4.5,1,7.4c0,0-0.1,0-0.1,0c-1,0-1.7-1.1-2.3-3.2
				C190.4,95.6,190.2,94.6,190.2,93.6z M195.2,110.7c0.2,1.4,0.3,2.8,0.5,4.3c0.1,0.5,0.1,1.1,0.1,1.6c-0.1,0-0.2,0-0.4,0
				c-0.6,0-1.1-0.3-1.5-1c0,0.1,0,0.1,0,0.2c-0.3,1.2-0.4,1.9-0.5,2.1c-0.4,0.2-0.7,0.4-1,0.5c-0.6-0.4-1-0.9-1.2-1.5
				c-0.1-0.2-0.1-0.7-0.1-1.4c0-1.3,0.1-2.1,0.2-2.3c0.2-0.4,0.7-0.6,1.5-0.5c-0.1-0.2-0.1-0.4-0.1-0.5c-0.3-1.5-0.5-3-0.5-4.5
				c0-1.1,0.1-1.7,0.2-2c0.2-0.4,0.8-0.9,1.7-1.5c0.2,1,0.4,2.2,0.7,3.4c0,0.1,0,0.2,0,0.3C194.7,108.6,194.8,109.5,195.2,110.7z
				 M185.7,107v4.6c-0.5,0.2-0.9,0.4-1.3,0.6c-0.1,0-0.1-0.1-0.2-0.1c-0.3-2.3-0.5-4.5-0.7-6.6c0.4,0.1,0.6,0.3,0.8,0.6l0.1-0.1
				C185,106.3,185.4,106.6,185.7,107z M194.9,123.5c0,0,0,0.1,0.1,0.1c0.1,0,0.1,0.3,0.1,0.8c0,0.2-0.1,0.5-0.3,1.1
				c-0.2,0.6-0.3,1.1-0.3,1.6c-0.1,0.3-0.2,0.5-0.3,0.6c-0.1,0.2-0.5,0.4-1,0.4c-1,0-1.6-0.4-1.8-1.2c-0.1-0.4-0.1-0.9,0-1.4l0-2
				c0.2,0,0.5,0,1-0.1C193.3,123.4,194.1,123.5,194.9,123.5z M189.7,142.6c-0.1-0.2-0.2-0.4-0.3-0.6c-0.2-0.4-0.3-0.7-0.3-1
				c0-0.9,0.3-2.1,0.8-3.6c0.4-1,0.8-1.7,1.2-2.3c0-0.3,0.1-0.5,0.2-0.6c0.6-0.6,1.9-0.8,4-0.4c0,0,0,0.1,0.1,0.1
				c0.1,0,0.1,0.3,0.1,0.8c0,0.3-0.5,0.9-1.5,1.8c-0.6,0.6-1.1,1-1.5,1.3c-0.1,0.2-0.1,0.4-0.2,0.6c-0.5,1.7-0.8,3-1,4.1
				C191.1,142.5,190.5,142.5,189.7,142.6z M191.6,142.8c0.2-0.4,0.5-0.6,0.8-0.6c0.8,0.1,1.3,1.5,1.3,4.3c0,0.9,0,1.7-0.1,2.4
				c0.2,0,0.5,0.1,0.8,0.1c0,0,0,0.1,0.1,0.1c0.1,0,0.1,0.3,0.1,0.8c0,0.5-0.3,0.9-0.9,1.1c-1.2,0.4-1.8,0.6-1.8,0.6
				c-0.5-0.2-0.8-0.3-0.9-0.4c-0.1-0.1-0.2-0.3-0.3-0.6c0.2-0.3,0.3-0.6,0.3-1.1c0-0.1,0-0.3,0-0.4c0.1-0.1,0.2-0.2,0.3-0.2
				c0-0.1,0-0.2,0-0.3c-0.1-0.3-0.1-1.1-0.1-2.3c0-0.1,0-0.1,0-0.2c0.9-0.5,1.3-1.1,1.3-1.7C192.5,143.6,192.2,143,191.6,142.8z
				 M188.7,142.9c-0.6,0.2-1.1,0.3-1.5,0.5v-3.3C188.1,140.4,188.6,141.3,188.7,142.9z M187.2,147.4c0.1,0,0.1,0,0.3,0
				c0.6,0,1.3-0.1,2.1-0.5c0,0,0.1,0.1,0.1,0.1c-0.1,0.3-0.1,0.5-0.2,0.7c-0.2-0.1-0.5-0.1-0.8-0.2c-0.6,0-1.1,0.1-1.5,0.3V147.4z
				 M189.3,128.9c0.2-0.5,0.6-0.9,1.1-1.3c0.8,0.9,1.3,1.5,1.5,1.9c0.2,0.4,0.3,1,0.3,2c-0.1,0.3-0.2,0.5-0.3,0.6
				c-0.1,0.2-0.5,0.3-1,0.3c-0.7,0-1.2-0.4-1.5-1.3c-0.2-0.5-0.3-1-0.3-1.5C189.2,129.5,189.2,129.2,189.3,128.9z M197.2,160
				c-0.3,0.9-0.5,1.5-0.5,2c-0.1,0-0.3,0.1-0.5,0.3c-0.3,0.2-0.6,0.3-0.8,0.4c-0.6-0.4-1-0.9-1.2-1.5c-0.1-0.2-0.1-0.8-0.1-1.6
				l0-2.9c1.4,0,2.4,0.2,3,0.6V160z M187.8,156.7c0.1-1.1,0.5-1.9,1.2-2.2c0.6,0.2,1,0.5,1.3,1v7.5c-0.5,0.2-0.9,0.4-1.3,0.6
				c-0.6-0.4-1-1.1-1.2-2.2c-0.1-0.4-0.1-1.2-0.1-2.4C187.7,157.8,187.7,157,187.8,156.7z M187.2,167.5V167c0,0.1,0.1,0.2,0.1,0.3
				C187.2,167.4,187.2,167.4,187.2,167.5z M187.3,171.2c0.2,0.1,0.5,0.1,0.9,0.1c0.1,0,0.2,0,0.3,0c0.1,0.7,0.2,1.3,0.2,1.8
				c0,0.9-0.1,1.5-0.2,2c-0.4,0.2-0.7,0.4-1,0.5C187.4,174,187.3,172.6,187.3,171.2z M190.7,166c0-3.7,0.7-4.1,2-1
				c1.3,3.8,2,5.7,2,5.8c0,0.5,0,0.8-0.1,0.9h-0.1c0,0.1,0,0.2,0,0.3c-0.1,0.2-0.5,0.3-1,0.3c-1,0-1.7-1.1-2.3-3.2
				C190.9,168,190.7,167,190.7,166z M193.5,185.7c-0.1-0.3-0.2-0.7-0.3-1c-0.3-1.5-0.5-3-0.5-4.5c0-1.1,0.1-1.7,0.2-2
				c0.2-0.5,0.9-1,2.1-1.7c0.2,0.1,0.5,0.2,0.8,0.2c0.3,0.1,0.4,0.4,0.4,0.9c0,0.4-0.2,0.9-0.5,1.4c-0.3,0.5-0.5,1-0.5,1.4
				c0,0.3,0,0.6,0.1,1C194.3,183,193.8,184.4,193.5,185.7z M191.8,199.9c-0.6-0.1-1.2-0.6-1.6-1.5c-0.3-0.7-0.5-1.3-0.5-1.7
				c0-0.4,0-0.7,0-0.7c0.1-0.1,0.2-0.1,0.2-0.3c0.8,0,1.5,0.3,2.3,0.9c0.7,0.6,1.1,1.1,1,1.6l-0.1,0.8c0.3-0.4,0.8-0.8,1.4-1.1
				c0.2,0.1,0.5,0.2,0.8,0.2c0.3,0.1,0.4,0.4,0.4,0.9c0,0.2-0.3,0.9-0.9,1.9c-0.1,0.2-0.3,0.4-0.3,0.6c0,0,0-0.1,0-0.1
				C194.5,199.9,193.6,199.4,191.8,199.9C191.8,199.8,191.8,199.9,191.8,199.9z M195.7,189c0.5-0.7,1-1.3,1.3-1.8l0.2,0.5
				c0,0.5,0,0.8-0.1,0.9H197l-0.2,0.2c-0.1,0.1-0.4,0.2-0.9,0.2C195.8,189,195.8,189,195.7,189z M189.5,179.5c0.3-1.2,0.8-2,1.4-2.4
				c0.6,0.3,1,1.1,1.2,2.2c0,0.1,0,0.2,0.1,0.3C191.7,178.8,190.8,178.8,189.5,179.5z M189.2,185.3c1.5-0.1,2.3-0.7,2.3-1.9
				c0-0.4,0.2-0.8,0.5-1.2c0.1-0.1,0.1-0.1,0.2-0.2c-0.2,2.8-0.8,4.7-1.8,5.5c-0.8-0.8-1.3-1.3-1.3-1.3
				C189.2,186,189.2,185.7,189.2,185.3z M192.5,212.2c0,0.1-0.1,0.2-0.1,0.4c-0.1,0.5-0.2,0.9-0.3,1.3c0.1,0,0.3,0.1,0.6,0.1
				c0.3,0.1,0.4,0.4,0.4,0.9c0,1.1-0.2,2.7-0.5,4.6c-0.3,2-0.5,3.9-0.5,5.7c-0.5,0.2-0.9,0.4-1.3,0.6c-0.6-0.4-1-1.1-1.2-2.2
				c0-0.2-0.1-0.7-0.1-1.3l0,0l0.3-1.4c-0.4-1.6-1-2.8-1.8-3.5c0.1-0.1,0.3-0.2,0.5-0.2c0.4,0,0.7,0.3,1,0.8c0-0.4,0-0.7,0-0.9
				c0.1-0.8,0.4-1.5,0.9-2c-0.3-0.3-0.6-0.7-0.8-1.2c-0.1-0.1-0.1-0.3-0.2-0.4c0,0.1-0.1,0.1-0.1,0.2c-0.3,0.6-0.5,1.1-0.5,1.5
				c-0.1,0-0.3,0.1-0.5,0.3c-0.2,0.1-0.4,0.2-0.5,0.3c0-1.5-0.1-3.1-0.1-4.7c0,0,0.1,0,0.1,0c0.6,0.8,1.6,1.3,3,1.3
				C191.7,212.3,192.1,212.2,192.5,212.2z M188.3,204.1c-0.1,0-0.1,0.1-0.2,0.2c0-0.1,0-0.2,0-0.3C188.1,204,188.2,204,188.3,204.1z
				 M192.5,208.5c-0.4-0.2-1-0.5-1.6-0.6c-0.2-0.1-0.4-0.1-0.5-0.2c1.4-0.6,2.2-1.3,2.2-2.3c0.3,0.1,0.6,0.2,1,0.3
				c0.2-0.5,0.3-0.3,0.3,0.5c0,0.1-0.3,0.6-0.9,1.5C192.6,208,192.5,208.3,192.5,208.5z M188.2,197.9c0,0.5-0.1,1-0.2,1.4
				c0-0.9,0-1.7,0-2.5C188.1,197.1,188.2,197.4,188.2,197.9z M190.7,193.9c0.9-0.4,1.7-0.4,2.4-0.1c0.8,0.3,1.3,1,1.6,2.1l-0.3,0.3
				c-0.2,0.2-0.5,0.3-1,0.3c-0.6,0-1.1-0.3-1.7-1C191.2,195,190.8,194.5,190.7,193.9z M197.4,203.5c0,0,0,0.1,0.1,0.1
				c0.1,0,0.1,0.3,0.1,0.8c0,0.5-0.1,1.1-0.3,2c-0.3,1.2-0.4,1.9-0.5,2.2c-0.4,0.2-0.7,0.4-1,0.5c-0.6-0.3-1-0.8-1.2-1.5
				c-0.1-0.2-0.1-0.7-0.1-1.4c0-1.3,0.1-2,0.2-2.3C195.2,203.2,196,203.1,197.4,203.5z M196.2,214c0.6,0,1.2,0,2,0.1
				c0,1.2,0,2.5,0,3.7c-0.1,0.3-0.2,0.5-0.3,0.5c-0.1,0.2-0.5,0.3-1,0.3c-1,0-1.6-0.4-1.8-1.2c-0.1-0.4-0.1-0.9,0-1.4l0-2
				C195.4,214,195.7,214,196.2,214z M193.9,218.1c0.8,0.9,1.3,1.5,1.5,1.9c0.2,0.4,0.3,1,0.3,2c-0.1,0.3-0.2,0.5-0.3,0.6
				c-0.1,0.2-0.5,0.3-1,0.3c-0.7,0-1.2-0.4-1.5-1.3c-0.2-0.5-0.3-1-0.3-1.5c0-0.2,0.1-0.5,0.2-0.8
				C193,218.9,193.4,218.5,193.9,218.1z M188.9,230.3c0,0,0,0.1,0.1,0.1c0.1,0,0.1,0.3,0.1,0.8c0,0.3-0.3,0.8-0.9,1.5
				c-0.1,0.1-0.2,0.2-0.3,0.3c0-1,0.1-1.9,0.1-2.7C188.3,230.3,188.6,230.3,188.9,230.3z M192,232.6c-0.6,0-1.3,0.2-2.2,0.7
				c-0.3,0.1-0.5,0.3-0.8,0.5c0-0.2,0-0.4,0.1-0.5c0-2.1,0.5-3,1.5-2.7C191.4,230.9,191.9,231.5,192,232.6z M191.2,250.5
				C191.2,250.5,191.2,250.5,191.2,250.5c1.2-0.8,1.8-1.6,1.8-2.5c0-1.3-0.5-1.9-1.4-2c0.2-0.4,0.4-0.8,0.8-1c0.6,0.2,1,0.5,1.3,1
				v7.5c-0.5,0.2-0.9,0.4-1.3,0.6c-0.6-0.3-1-1.1-1.2-2.2C191.2,251.6,191.2,251.2,191.2,250.5z M198,239.5c0.1,0,0.1,0.3,0.1,0.8
				c0,0.5-0.3,0.9-0.9,1.2c-1.2,0.4-1.8,0.6-1.8,0.6c-0.5-0.2-0.8-0.3-0.9-0.3c-0.2-0.2-0.3-0.6-0.3-1.2c0-0.6,0.2-1,0.6-1.1
				c0-0.1,0-0.2,0-0.3c-0.1-0.3-0.1-1.1-0.1-2.2c0-3,0.4-4.4,1.3-4.3c0.8,0.1,1.3,1.5,1.3,4.3c0,0.9,0,1.7-0.1,2.4
				c0.2,0,0.5,0,0.8,0C197.9,239.5,198,239.5,198,239.5z M198,252.2c-0.1-0.2-0.2-0.3-0.2-0.5c-0.1-0.2-0.1-0.8-0.1-1.6l0-2.9
				c0.3,0,0.6,0,0.9,0c0,0.2,0,0.3,0,0.5c0,1.5,0.1,3,0.1,4.4C198.5,252.1,198.2,252.1,198,252.2z M197,257.8
				c0.8,2.3,1.2,3.5,1.2,3.6c0,0.5,0,0.8-0.1,0.9H198c0,0.1,0,0.2,0,0.3c-0.1,0.2-0.5,0.3-1,0.3c-1,0-1.7-1.1-2.3-3.2
				c-0.1-0.3-0.1-0.5-0.2-0.8c0.1,0,0.1,0,0.2,0C195.4,258.8,196.2,258.4,197,257.8z M194.3,254.5c0.2-1.1,0.5-1.3,1-0.8
				C194.8,254,194.5,254.3,194.3,254.5z M190.7,257.5c1,2.7,1.5,4.7,1.5,6c0,0.9-0.1,1.5-0.2,2c-0.4,0.2-0.7,0.4-1,0.5
				c-0.9-0.7-1.5-1.8-1.7-3.3c-0.1-0.4-0.1-1.6-0.1-3.6C189.2,255.5,189.7,254.9,190.7,257.5z M187.3,273.7
				c-0.1-0.3-0.1-0.7-0.1-1.4c-0.5-0.2-0.8-0.5-0.9-0.8c0-0.8,0.1-1.6,0.2-2.4c0.2-0.4,0.5-0.6,1-0.5c0.4,0.1,0.8,0.3,0.9,0.6l0.1,0
				c0.6,0.2,1,0.5,1.3,1v1.3C188.2,271.8,187.4,272.6,187.3,273.7z M190.7,270.8c-0.3-0.7-0.5-1.3-0.5-1.6c0-0.4,0-0.7,0-0.7
				c0.1-0.1,0.2-0.2,0.2-0.3c0.8,0,1.5,0.3,2.3,0.8c0.2,0.2,0.4,0.3,0.5,0.5c0.1-0.3,0.1-0.5,0.3-0.6c-0.4-0.2-0.8-0.5-1.2-0.9
				c-0.5-0.6-0.9-1.1-1-1.7c0.9-0.4,1.7-0.4,2.4,0c0.7,0.3,1.3,1,1.6,2c0.2,0.4,0.3,0.9,0.4,1.5c0,0.2,0.1,0.5,0.1,0.8
				c0,0,0.1,0,0.1,0c0.3,0.1,0.4,0.4,0.4,0.9c0,0.2-0.2,0.7-0.6,1.3c-0.1,0.7-0.1,1.3-0.2,1.9h-0.1c-1.4-0.4-2.1,0.2-2.1,1.8
				c0,0.3,0.1,0.8,0.5,1.5c-0.7-0.7-1-1.1-1-1.2c0-1.2,0-2.2,0-3c0-0.1,0-0.1,0-0.3c0-0.2,0-0.4,0-0.6c0-0.2,0-0.4,0-0.6
				c-0.1,0-0.2,0-0.3,0C192.4,271.1,191.8,270.6,190.7,270.8z M194.2,278.6c0,0,0,0.1,0,0.1c0,0.1-0.3,0.6-0.9,1.5
				c-0.4,0.6-0.5,1.3-0.3,2.1c0,0,0.1,0.2,0.1,0.4v0c0,0.1,0,0.2,0,0.3c0,0.4-0.1,1.1-0.3,2c-0.1,0.5-0.2,0.9-0.3,1.3
				c0.1,0,0.3,0.1,0.6,0.1c0.3,0.1,0.4,0.4,0.4,0.9c0,1.1-0.2,2.7-0.5,4.7c-0.3,2-0.5,3.9-0.5,5.6c-0.5,0.3-0.9,0.5-1.3,0.7
				c-0.1-0.1-0.1-0.1-0.2-0.2c-0.1-0.1-0.2-0.2-0.3-0.3c-0.3-0.4-0.6-1-0.7-1.7c-0.1-0.3-0.1-1-0.1-2.1c-0.1,0-0.2,0-0.3,0
				c-1,0-1.6-0.5-1.8-1.4c-0.1-0.4-0.1-0.8,0-1c0-1.3,0.3-2,1-2c0.2,0,0.3,0.1,0.5,0.2c-0.4,0.4-0.5,1-0.5,1.8c0,0.1,0,0.5,0,1.3
				c0.2,0.7,0.8,1,2,1c0.7,0,1.2-0.2,1.5-0.7c0.2-0.4,0.3-0.9,0.3-1.8c0-1.6-0.6-2.3-1.9-2.2c-0.3,0-0.5,0-0.8,0.1
				c0.1-0.7,0.4-1.3,0.8-1.8c-0.3-0.4-0.6-0.8-0.8-1.2c-0.1-0.1-0.1-0.3-0.2-0.4c0,0.1-0.1,0.1-0.1,0.2c-0.3,0.6-0.5,1.1-0.5,1.5
				c-0.1,0-0.3,0.1-0.5,0.3c-0.3,0.2-0.6,0.3-0.8,0.4c-0.4-0.4-0.8-0.8-1-1.4c-0.2-0.4-0.3-0.7-0.3-0.9c0-1,0.1-1.6,0.2-1.9
				c0.4-0.6,1.4-0.8,2.9-0.5c0-0.2,0-0.4,0.1-0.5c0,0,0-0.1,0.1-0.1c-0.1-0.2-0.2-0.4-0.2-0.7c-0.1-0.3-0.1-0.7-0.1-1.1
				c-0.2-0.3-0.3-0.8-0.4-1.3c-0.1-0.7-0.1-1.2,0-1.6c0-1.7,0.5-2.4,1.4-2.1c0.6,0.2,1,0.7,1.3,1.6c0.4,0.1,0.9,0.2,1.5,0.4
				C194,278.3,194,278.5,194.2,278.6z M197.3,281.1c0.1-0.3,0.2-0.5,0.3-0.8c-0.1,0.3-0.1,0.5-0.1,0.7
				C197.4,281,197.3,281,197.3,281.1z M198.2,278.8c0-0.1,0.1-0.1,0.1-0.2c0,0.1,0,0.2,0,0.3C198.2,278.9,198.2,278.9,198.2,278.8z
				 M198.6,270.5c-0.3,0.2-0.7,0.5-1,1c-0.5,0.5-0.9,1.1-1.3,1.7c-0.1-0.8-0.2-1.6-0.2-2.4c0-1.1,0.1-1.7,0.2-2
				c0.2-0.5,0.9-1,2.1-1.7c0.1,0,0.1,0.1,0.3,0.1C198.6,268.3,198.6,269.4,198.6,270.5z M190.6,312.3c0,0.6,0.1,1.3,0.1,2.2
				c0,1.8-0.1,3.3-0.2,4.5c-0.3,0.1-0.5,0.3-0.8,0.3c0.1,0.4,0.2,0.7,0.3,1.1c0.2,3.9,0.3,6,0.3,6.3c0,0.7-0.1,1.3-0.2,1.8
				c-0.3,0.2-0.7,0.4-1,0.5c-0.1,0.4-0.2,0.9-0.3,1.5c0,0.1-0.1,0.2-0.1,0.3c0,0,0.1,0.3,0.1,0.7c0,0.7-0.3,1.6-0.9,2.7
				c0,0.1-0.1,0.2-0.1,0.3l-0.8,0.3c-0.6-0.2-1-0.5-1.2-1c-0.1-0.2-0.1-0.5-0.1-1.1c0-0.8,0.1-1.4,0.2-1.6c0.2-0.3,0.4-0.4,0.8-0.5
				c0,0,0.1,0,0.1,0c-0.5-0.1-0.8-0.1-1.1,0c0-1.1,0.1-1.8,0.2-2c0.3-0.5,1-1,2.1-1.7c-0.2-0.5-0.4-1.1-0.5-1.7
				c-0.2,0.5-0.3,0.9-0.3,1.3c-0.1,0-0.3,0.1-0.5,0.3c-0.3,0.2-0.6,0.3-0.8,0.4c-0.6-0.4-1-0.9-1.2-1.5c-0.1-0.2-0.1-0.8-0.1-1.6
				l0-2.9c0.5,0,1,0,1.3,0.1c-0.9-2.9-1.4-4.7-1.4-5.4c0-0.3,0-0.5,0-0.5c-0.1,0-0.2,0.1-0.3,0.1c0.3-0.5,0.5-1,0.8-1.5
				c0,0.1,0,0.2,0,0.4c0,0.2-0.1,0.4-0.2,0.6c1.3,0,2.4,0.5,3.2,1.5c0-0.5,0-1.1,0-1.8c0-1.4,0.1-2.5,0.3-3.3c0,0,0,0.1,0,0.1
				c0.3,0.7,1,1,2,1C190.5,312.3,190.5,312.3,190.6,312.3z M192.5,307.5c-0.2,0-0.5,0-0.6,0c-0.8,0.1-1.4,0.3-1.9,0.5
				c-0.2-0.2-0.3-0.5-0.3-1c-0.1-0.6-0.1-1,0-1.4c0-2.1,0.5-3,1.5-2.7c1,0.3,1.5,1.4,1.5,3.1c0,0.4,0,0.8-0.1,1.1
				C192.5,307.3,192.5,307.4,192.5,307.5z M188.5,305.5c-0.1-0.9-0.5-1.4-1-1.4c-0.4,0-0.8,0.2-1.3,0.5c0-0.1,0-0.2,0-0.3
				c0-0.9,0.1-1.4,0.2-1.5c0.1,0,0.1-0.1,0.2-0.1c0.3,0,0.5,0,0.9,0c0.2,0,0.5,0,0.8-0.1c0.3,0,0.7,0.1,1.2,0.1c0,0,0,0.1,0.1,0.1
				c0.1,0,0.1,0.3,0.1,0.8c0,0.3-0.3,0.8-0.9,1.4C188.7,305.2,188.6,305.3,188.5,305.5z M186.2,299.3c-0.6,0.5-0.9,1.1-0.9,1.8
				c0,0.5,0,0.8,0.2,1c0.1,0.1,0.1,0.2,0.3,0.3c-0.1,0.9-0.1,1.6-0.2,2.2c-0.3,0.2-0.7,0.3-1,0.5c0.1-2.7,0.3-5.5,0.5-8.6
				c0.3,0.4,0.5,1.1,0.6,2.1c0.1,0,0.3,0,0.4,0c0,0,0,0.1,0.1,0.1C186.1,298.6,186.2,298.9,186.2,299.3z M196.7,286.4
				c0.3,0,0.5,0,0.8,0c-0.2,1.5-0.3,3.1-0.5,4.6c-0.8-0.1-1.3-0.5-1.4-1.2c-0.1-0.4-0.1-0.9,0-1.4l0-2
				C195.9,286.5,196.2,286.5,196.7,286.4z M193.4,294c-0.2-0.5-0.3-1-0.3-1.5c0-0.2,0.1-0.4,0.2-0.8c0.2-0.5,0.6-0.9,1.1-1.3
				c0.8,0.9,1.3,1.5,1.5,1.9c0.2,0.4,0.3,1,0.3,2c-0.1,0.3-0.2,0.5-0.3,0.6c-0.1,0.2-0.5,0.3-1,0.3
				C194.2,295.3,193.7,294.9,193.4,294z M195.4,297.5c0.2-0.2,0.5-0.4,0.9-0.5c-0.4,3-0.8,6.1-1.3,9.3c-0.2,0.1-0.5,0.1-0.6,0.2
				c-0.4-0.4-0.8-0.9-1-1.5c-0.2-0.4-0.3-0.7-0.3-1c0-0.9,0.3-2.1,0.8-3.7c0.4-1,0.8-1.7,1.2-2.3
				C195.2,297.8,195.3,297.5,195.4,297.5z M184.2,319.5c0,0.9-0.1,1.7-0.2,2.3c-0.1,0.1-0.3,0.1-0.4,0.2c0.1-1.3,0.2-2.8,0.3-4.5
				C184,317.9,184.2,318.6,184.2,319.5z M192.9,326.5c-0.6-0.4-1-1.1-1.2-2.2c-0.1-0.4-0.1-1.2-0.1-2.3c0-1.2,0-2,0.1-2.3
				c0.1-1.1,0.5-1.9,1.2-2.2c0.3,0.1,0.5,0.2,0.8,0.4c-0.2,2.7-0.4,5.5-0.5,8.4C193.1,326.3,193,326.5,192.9,326.5z M192.5,334.7
				c-0.1,0.2-0.2,0.4-0.2,0.8h-2.5c0,0,0-0.1,0-0.2c-0.1-0.4-0.1-1.6-0.1-3.6c0-3.8,0.5-4.3,1.5-1.7c0,0.1,0.1,0.2,0.1,0.3
				c0,0.3,0,0.7,0.1,1.4c0.1,0.4,0.4,0.8,0.7,1C192.3,333.5,192.4,334.1,192.5,334.7z M183.2,329.7c1.3,3.7,2,5.5,2,5.6s0,0.1,0,0.2
				h-1.5c-0.2-1.5-0.3-3.1-0.5-4.6L183.2,329.7z"/>
			<path fill-rule="evenodd" clip-rule="evenodd" fill="#C2C2C9" d="M183.7,97.4c-0.2,0-0.3,0-0.5,0c0-0.4,0-0.8,0-1.1
				c0-1.1,0-2.1,0.1-3.1c0,0,0.1,0,0.2,0c0.6,0,1.1,0.1,1.5,0.3c0.1,0.1,0.3,0.1,0.4,0.3c0.4,0.3,0.7,0.8,0.7,1.4
				c0,0.6-0.3,1.1-0.8,1.6c0,0-0.1,0.1-0.2,0.1C184.6,97,184.1,97.3,183.7,97.4z M186.5,105.3c-0.1,0.1-0.2,0.2-0.3,0.3
				c-0.3,0.2-0.6,0.3-1,0.3c-0.8,0-1.3-0.2-1.6-0.6c-0.1-0.9-0.1-1.8-0.2-2.6c0.2-0.9,0.8-1.4,1.8-1.5c0.1,0,0.3,0,0.4,0
				c0.9,0,1.4,0.7,1.5,2c0,0.1,0,0.1,0,0.3C187,104.3,186.8,104.9,186.5,105.3z M186.4,123.3c-0.1,0-0.2-0.1-0.3-0.1
				c-0.1,0-0.2-0.1-0.3-0.1c-0.2-1.2-0.4-2.4-0.5-3.5c0.2-0.3,0.5-0.6,0.9-0.8c0.3-0.2,0.8-0.4,1.3-0.5c0.6-0.2,1.1-0.1,1.5,0.1
				c0.7,0.4,1,1.4,1,3.1c0,0.9-0.4,1.4-1.3,1.7c-0.4,0.1-0.8,0.1-1.3,0.1C187,123.4,186.7,123.3,186.4,123.3z M188.7,110.3
				c1.6,0.3,2.3,1,2.3,2.1c0,1.2-0.6,1.8-1.9,2c-0.2,0-0.3,0-0.4,0c-0.2,0-0.3,0-0.5,0c-0.9-0.1-1.5-0.4-1.8-1c0,0-0.1-0.1-0.1-0.1
				c-0.1-0.3-0.2-0.7-0.1-1C186.3,110.7,187,110,188.7,110.3z M191.5,142.7C191.5,142.7,191.6,142.8,191.5,142.7
				c0.7,0.3,1,0.9,1,1.8c0,0.6-0.5,1.2-1.3,1.7c-0.3,0.1-0.6,0.3-0.9,0.4c-0.2,0.1-0.5,0.2-0.7,0.3c-0.9,0.3-1.6,0.5-2.1,0.5
				c-0.1,0-0.2,0-0.3,0v-4c0.4-0.2,0.9-0.3,1.5-0.5c0.4-0.1,0.7-0.2,1-0.3C190.5,142.5,191.1,142.5,191.5,142.7z M189.5,147.7
				c0.9,0.2,1.4,0.7,1.5,1.4c0,0.1,0,0.3,0,0.4c0,0.4-0.1,0.8-0.3,1.1c-0.4,0.5-1,0.8-2,0.8c-0.6,0-1.1-0.1-1.5-0.2v-3.3
				c0.4-0.2,0.9-0.3,1.5-0.3C189,147.6,189.2,147.6,189.5,147.7z M187.2,167.5c0,0,0.1-0.1,0.1-0.1c0.3-0.2,0.8-0.4,1.3-0.5
				c1.6-0.3,2.4,0.2,2.4,1.7c0,0.4-0.3,1-1,1.7c-0.5,0.6-1,1-1.5,1.1c-0.1,0-0.2,0-0.3,0c-0.4,0-0.7-0.1-0.9-0.1
				c0-0.5-0.1-1-0.1-1.5V167.5z M195.3,181.4c0.1-0.2,0.2-0.4,0.3-0.7c1-1.7,1.6-2.1,2-1.2c0.1,1.9,0.1,3.9,0.2,6.1
				c0,0.1,0,0.1,0,0.2c-0.1,0.3-0.4,0.8-0.7,1.4c-0.3,0.5-0.8,1.1-1.3,1.8c-0.2,0.2-0.4,0.5-0.5,0.7l-1.8-0.5
				c-0.1-0.3-0.2-0.8-0.2-1.7c0-0.6,0.1-1.2,0.3-1.8C193.8,184.4,194.3,183,195.3,181.4z M191.8,199.9
				C191.8,199.9,191.8,199.8,191.8,199.9c1.8-0.5,2.7,0,2.7,1.5c0,0,0,0.1,0,0.1c-0.1,0.6-0.9,1.4-2.3,2.5c0.2,0.3,0.3,0.8,0.3,1.4
				v0c0,0.9-0.7,1.7-2.2,2.3c0.2,0,0.4,0.1,0.5,0.2c0.6,0.2,1.2,0.4,1.6,0.6c1,0.5,1.5,1.1,1.5,1.9c0,0.8-0.3,1.3-1,1.6
				c-0.1,0-0.3,0.1-0.5,0.2c-0.4,0-0.8,0-1.3,0c-1.4,0-2.4-0.4-3-1.3v0c0-0.1-0.1-0.1-0.1-0.2c0-2.1,0-4.3,0-6.5v0
				c0.1-0.1,0.1-0.1,0.2-0.2c0.3-0.2,0.7-0.3,1.2-0.4c-0.1-0.6-0.2-0.9-0.2-1C189.2,201.3,190,200.4,191.8,199.9z M188.2,217.3
				c0.7,0.7,1.3,1.9,1.8,3.5l-0.3,1.4l0,0l-0.4,0.3c-0.3,0.2-0.6,0.3-1.1,0.3C188.2,220.9,188.2,219.1,188.2,217.3L188.2,217.3z
				 M192.2,182c-0.1,0.1-0.1,0.1-0.2,0.2c-0.3,0.4-0.5,0.8-0.5,1.2c0,1.2-0.8,1.8-2.3,1.9c-0.1,0-0.2,0-0.3,0c-0.4,0-0.8,0-1.2-0.1
				c-0.1-1.6-0.1-3.1-0.2-4.5c0.5-0.4,1.1-0.8,1.8-1.2c0.1,0,0.1-0.1,0.2-0.1c1.3-0.6,2.2-0.6,2.6,0.1c0.2,0.3,0.3,0.8,0.3,1.5
				C192.5,181.4,192.3,181.8,192.2,182z M198,252.2c0.3-0.1,0.5-0.1,0.8,0c0,1.2,0,2.4,0,3.6c-0.2,0.3-0.5,0.6-0.8,1
				c-0.3,0.4-0.7,0.7-1,1c-0.8,0.7-1.6,1-2.3,1c-0.1,0-0.1,0-0.2,0c-0.8,0-1.3-0.4-1.6-1c-0.1-0.7-0.1-1-0.1-1
				c0-0.5,0.5-1.3,1.5-2.2c0.3-0.3,0.6-0.5,1-0.8c0.3-0.2,0.6-0.5,0.9-0.7C196.8,252.6,197.5,252.3,198,252.2z M192,232.6
				c0.9,0,1.4,0.6,1.4,1.9c0,0.6-0.4,1.2-1.2,1.8c-0.3,0.2-0.6,0.4-0.9,0.7c-1.3,0.9-2.3,1.3-3,1.3c-0.1,0-0.3,0-0.4,0
				c-0.1,0-0.1,0-0.2,0c0.1-1.4,0.1-2.6,0.2-3.8c0.3-0.2,0.7-0.5,1.1-0.7c0.2-0.2,0.5-0.3,0.8-0.5
				C190.8,232.8,191.5,232.6,192,232.6z M190.2,242.2c-0.2,0-0.3,0-0.5,0c-1.3,0-2-0.6-2-1.7c0-1.3,0.6-2,1.9-2c0.1,0,0.3,0,0.4,0
				c1,0.1,1.5,0.8,1.5,1.9c0,0.5-0.2,1-0.5,1.3C190.7,242,190.4,242.1,190.2,242.2z M190,246.3C190,246.2,190.1,246.2,190,246.3
				c0.7-0.3,1.2-0.3,1.6-0.3c0.9,0.1,1.4,0.7,1.4,2c0,1-0.6,1.8-1.7,2.5c0,0-0.1,0-0.1,0c-0.7,0.4-1.2,0.7-1.6,0.8
				c-0.1,0-0.1,0-0.1,0c-1,0-1.7-0.3-2-1c0-0.2-0.1-0.4-0.1-0.5c0-0.5,0.1-1,0.1-1.5C187.7,247.4,188.6,246.8,190,246.3z
				 M189.7,271.2c0.1,0,0.1-0.1,0.2-0.1c0.3-0.1,0.6-0.2,0.8-0.3c1.2-0.3,1.8,0.2,1.8,1.5c0,0,0,0.1,0,0.2c0,0.5-0.4,1.2-1.3,2
				c-0.9,0.8-1.5,1.3-2,1.3c-1.3,0-2-0.6-2-1.8c0-0.1,0-0.3,0-0.4C187.4,272.6,188.2,271.8,189.7,271.2z M195.4,274.7
				C195.4,274.7,195.5,274.7,195.4,274.7c0.3-0.5,0.6-1.1,0.9-1.6c0.4-0.6,0.8-1.2,1.3-1.7c0.3-0.4,0.7-0.7,1-1
				c-0.1,3.1-0.2,5.8-0.3,8.2c0,0.1-0.1,0.1-0.1,0.2c-0.2,0.5-0.4,1-0.6,1.5c-0.1,0.3-0.3,0.5-0.3,0.8c-0.3,0.8-0.5,1.2-0.6,1.2
				c-1,0-1.7-0.5-1.9-1.6c0-0.8,0-1.3,0-1.6c-0.2-0.1-0.4-0.3-0.5-0.5c-0.1-0.1-0.2-0.3-0.3-0.4c-0.1-0.1-0.1-0.2-0.1-0.3
				c0,0,0,0,0,0c-0.3-0.6-0.5-1.1-0.5-1.5C193.2,274.9,193.9,274.3,195.4,274.7L195.4,274.7z M186.2,299.3c0.5-0.5,1.3-1,2.3-1.3
				c1.1-0.5,2-0.6,2.5-0.2c0.1,0.1,0.2,0.3,0.3,0.3c0.2,0.3,0.3,0.8,0.3,1.4c0,0.9-0.6,1.7-1.8,2.5c-0.5,0.3-1,0.5-1.4,0.7
				c-0.3,0.1-0.6,0.1-0.8,0.1c-0.3,0-0.6,0-0.9,0c-0.4-0.1-0.7-0.3-0.9-0.5c-0.1-0.1-0.2-0.2-0.3-0.3c-0.1-0.2-0.2-0.5-0.2-1
				C185.3,300.4,185.5,299.8,186.2,299.3z M186.2,304.6c0.5-0.4,0.9-0.6,1.3-0.5c0.6,0,1,0.5,1,1.4c0,0.2,0,0.3,0,0.5
				c0,0.6-1.1,3.2-3.3,7.8c-0.2,0.5-0.5,1-0.8,1.5c-0.2,0.3-0.3,0.6-0.5,1c0.2-2.9,0.3-6.2,0.5-10c0.2-0.3,0.5-0.6,0.8-0.9
				C185.5,305.1,185.8,304.8,186.2,304.6z M190,308c0.5-0.2,1.1-0.4,1.9-0.5c0.2,0,0.4,0,0.6,0c1-0.1,1.8,0,2.3,0.4
				c0,0.1,0,0.1,0,0.3c-0.1,0.9-0.3,1.8-0.4,2.8c-0.2,0.1-0.4,0.3-0.7,0.4c-1.2,0.6-2.2,1-3.1,1c-0.1,0-0.1,0-0.2,0
				c-1,0-1.7-0.3-2-1c0-0.1,0-0.1,0-0.1c-0.1-0.6-0.2-0.9-0.2-1C188.3,309.2,188.8,308.5,190,308z M190.3,289.3
				c0.2-0.1,0.5-0.1,0.8-0.1c1.2-0.1,1.9,0.6,1.9,2.2c0,0.8-0.1,1.4-0.3,1.8c-0.3,0.5-0.8,0.7-1.5,0.7c-1.1,0-1.8-0.3-2-1
				c0-0.8,0-1.2,0-1.3c0-0.8,0.2-1.4,0.5-1.8C189.9,289.5,190.1,289.4,190.3,289.3z M191.3,330.3c0-0.2,0-0.3,0-0.3
				c0-1.1,0.5-2.3,1.7-3.5c0.1-0.1,0.2-0.2,0.3-0.3c0,1.5,0,3.1,0,4.7c0,0.8,0,1.6,0,2.3c-0.4-0.1-0.8-0.2-1.1-0.5
				c-0.3-0.3-0.6-0.6-0.7-1C191.3,331.1,191.3,330.6,191.3,330.3z M192.3,335.4c0-0.3,0.1-0.6,0.2-0.8c0.1-0.4,0.4-0.7,0.7-0.9
				c0,0.6,0,1.1,0,1.7H192.3z"/>
			<path fill-rule="evenodd" clip-rule="evenodd" fill="#E8E8F4" d="M185,93.4c-0.4-0.2-0.9-0.3-1.5-0.3c-0.1,0-0.1,0-0.2,0
				c0.2-1.9,0.6-3.6,1.2-5.1c0.3-0.7,0.6-1.3,1-1.7c0.1,3.1,0.2,4.7,0.2,4.9c0,0.7-0.1,1.3-0.2,1.8C185.3,93.1,185.1,93.3,185,93.4z
				 M185,117c0,0-0.1,0.1-0.1,0.1c-0.2-1.3-0.3-2.6-0.5-3.8c0.5,0.2,0.8,0.9,0.8,2C185.2,116,185.1,116.6,185,117z M197.7,227.3
				c-0.6,0.6-1.1,1-1.5,1.3c-0.1,0.2-0.1,0.4-0.2,0.6c-0.5,1.8-0.9,3.3-1.1,4.5c-0.4,0.2-0.7,0.3-1,0.4c-0.4-0.4-0.8-0.9-1-1.5
				c-0.2-0.4-0.3-0.7-0.3-1c0-0.9,0.3-2.1,0.8-3.6c0.4-1,0.8-1.7,1.2-2.3c0-0.3,0.1-0.5,0.2-0.7c0.5-0.6,1.6-0.7,3.3-0.5
				c0,0.8,0,1.5,0,2.3v0C198,227,197.9,227.1,197.7,227.3z M192.3,236.3c0.3,0.3,0.6,0.7,0.9,1.3c-0.1,0.3-0.2,0.6-0.3,0.7
				c-0.1,0.3-0.5,0.5-1,0.5c-0.7,0-1.4-0.2-2.1-0.6c0,0.1,0.1,0.3,0.1,0.4c-0.1,0-0.2,0-0.4,0c-1.3,0-1.9,0.7-1.9,2
				c0,1.1,0.6,1.7,2,1.7c0.2,0,0.3,0,0.5,0c0,1.6-0.1,3-0.2,4c-1.4,0.5-2.3,1.2-2.6,2c0.1-1.6,0.1-3.2,0.2-4.6
				c0,0.1,0.1,0.1,0.1,0.1c0-0.5,0-1.1,0-1.8c0-0.8,0-1.5,0.1-2.2c0-0.6,0.1-1.1,0.3-1.5c0.1,0,0.3,0,0.4,0c0.7,0,1.7-0.4,3-1.3
				C191.7,236.7,192,236.5,192.3,236.3z M187.3,249.8c0,0.1,0.1,0.3,0.1,0.5c0.3,0.7,1,1,2,1c0,0,0.1,0,0.1,0c0.1,1.8,0.1,2.8,0.1,3
				c0,0.7-0.1,1.3-0.2,1.8c-0.3,0.2-0.7,0.4-1,0.5c-0.1,0.4-0.2,0.9-0.3,1.5c-0.4,1.5-0.6,2.7-0.7,3.4c-0.1,0.1-0.3,0.1-0.4,0.1
				c-0.1,0.4-0.2,0.8-0.4,1.3c0.1-2.9,0.3-5.7,0.4-8.3c0.1-0.1,0.2-0.1,0.4-0.2c-0.1-0.3-0.2-0.6-0.3-1
				C187.2,252.2,187.2,250.9,187.3,249.8z M189.2,278.2c0,0.7-0.1,1.3-0.2,1.8c-0.4,0.2-0.7,0.4-1,0.5c-0.3-0.3-0.6-0.6-0.8-1
				l0.1,0.2c0,0.5,0,0.8-0.1,0.9H187l-0.2,0.2c-0.1,0.1-0.3,0.1-0.6,0.2v4c0.3,1.7,0.5,3.3,0.5,4.8c0,0.5,0,0.8-0.1,0.9h-0.1
				l-0.2,0.2c0,0-0.1,0.1-0.1,0.2c0.4,0.3,0.6,0.7,0.8,1.2c0.2,1.1,0.5,1.9,0.7,2.5l-0.3,0.3c-0.2,0.2-0.5,0.3-1,0.3
				c-0.5,0-1-0.2-1.4-0.5c0.2-3.6,0.4-7.5,0.6-11.6c0.1-2.4,0.3-4.7,0.3-6.9c0,0.1,0.1,0.3,0.2,0.4c0.2,0.6,0.4,1.1,0.5,1.5
				c0-1.4,0.4-2,1.3-2C188.7,276.2,189.2,276.8,189.2,278.2z"/>
		</g>
	</g>
	<g>
		<path fill-rule="evenodd" clip-rule="evenodd" fill="#FFFFFF" d="M174.1,86.1c-0.4,0.2-0.8,0.3-1.1,0.3c-0.7,0-1.3-0.1-1.7-0.4
			c-0.4,0.6-1.1,0.9-2.3,0.9c-1.3,0-2.2-0.3-2.5-1c-0.1-0.7-0.2-1.1-0.2-1.1c0-1.6,0.9-2.2,2.7-1.9c0.9,0.2,1.6,0.5,2,0.9
			c0.3-0.7,0.9-1.1,2-1.1c1.4,0,2.1,0.6,2.1,1.9C175,85.3,174.7,85.8,174.1,86.1z M175.5,84.6c-0.1-0.2-0.2-0.5-0.2-1
			c0-1.5,0.8-2.4,2.4-2.8c1.6-0.4,2.3,0.2,2.3,1.6c0,0.2-0.1,0.5-0.3,0.8c0.5,0.4,0.8,0.9,0.8,1.6c0,0.5-0.2,0.9-0.5,1.3
			c-0.4,0.4-0.9,0.6-1.6,0.6c-1,0-1.7-0.3-2-1c-0.1-0.2-0.2-0.4-0.2-0.6C175.9,85.2,175.6,84.9,175.5,84.6z M181,81.4
			c0.2,0.1,0.6,0.4,1.2,0.8c0.6,0.4,1.1,0.5,1.5,0.5c0.1,0,0.2,0,0.3,0V83l0.6,0.1c0.1,0,0.2,0,0.3,0.1c0,0-0.1,0-0.1,0
			c-0.6,0.4-1.2,0.6-1.7,0.6c0.1,0,0.2,0.1,0.4,0.1c1.7,0.9,2.6,1.9,2.6,3c0,1.2-0.9,1.9-2.6,1.9c-1.4,0-2.3-0.5-2.7-1.4v-1.1
			c0-1.5,0.4-2.4,1-2.6c-0.4-0.1-0.7-0.4-0.9-0.6c-0.1-0.2-0.2-0.5-0.2-1c0-0.5,0.2-0.9,0.5-1.3C181.2,81,181,81.2,181,81.4z
			 M184.5,79.8c-0.1,0-0.1,0.1-0.1,0.2c-0.1-0.1-0.1-0.1-0.2-0.2C184.3,79.8,184.5,79.8,184.5,79.8z"/>
	</g>
</g>
</svg>
