<?xml version="1.0" encoding="utf-8"?>
<!-- Generator: Adobe Illustrator 16.0.0, SVG Export Plug-In . SVG Version: 6.00 Build 0)  -->
<!DOCTYPE svg PUBLIC "-//W3C//DTD SVG 1.1//EN" "http://www.w3.org/Graphics/SVG/1.1/DTD/svg11.dtd">
<svg version="1.1" id="Layer_1" xmlns="http://www.w3.org/2000/svg" xmlns:xlink="http://www.w3.org/1999/xlink" x="0px" y="0px"
	 width="210px" height="350px" viewBox="0 0 210 350" enable-background="new 0 0 210 350" xml:space="preserve">
<g>
	<g>
		<g>
			<linearGradient id="SVGID_1_" gradientUnits="userSpaceOnUse" x1="301.1484" y1="-1.2715" x2="177.3207" y2="84.6163">
				<stop  offset="0" style="stop-color:#C4CDD2"/>
				<stop  offset="0.2824" style="stop-color:#E4F1F9"/>
				<stop  offset="0.4235" style="stop-color:#A2A29A"/>
				<stop  offset="0.6" style="stop-color:#A5A79C"/>
				<stop  offset="0.7529" style="stop-color:#EBF1EF"/>
				<stop  offset="1" style="stop-color:#A0A2A3"/>
			</linearGradient>
			<polygon fill-rule="evenodd" clip-rule="evenodd" fill="url(#SVGID_1_)" points="166.5,89.8 167.2,87.5 167.3,87.4 191,77.5 
				190.3,79.9 			"/>
			<linearGradient id="SVGID_2_" gradientUnits="userSpaceOnUse" x1="40.7539" y1="-28.9092" x2="149.9153" y2="122.2437">
				<stop  offset="0" style="stop-color:#C4CDD2"/>
				<stop  offset="0.2824" style="stop-color:#E4F1F9"/>
				<stop  offset="0.4235" style="stop-color:#A2A29A"/>
				<stop  offset="0.6" style="stop-color:#A5A79C"/>
				<stop  offset="0.7529" style="stop-color:#EBF1EF"/>
				<stop  offset="1" style="stop-color:#CBCFCE"/>
			</linearGradient>
			<polygon fill-rule="evenodd" clip-rule="evenodd" fill="url(#SVGID_2_)" points="167.3,87.4 17.6,40.9 42,31.1 191,77.5 
				191,77.5 			"/>
			<linearGradient id="SVGID_3_" gradientUnits="userSpaceOnUse" x1="16.6494" y1="41.8892" x2="166.858" y2="88.5614">
				<stop  offset="0" style="stop-color:#C4CDD2"/>
				<stop  offset="0.2824" style="stop-color:#E4F1F9"/>
				<stop  offset="0.4235" style="stop-color:#A2A29A"/>
				<stop  offset="0.6" style="stop-color:#A5A79C"/>
				<stop  offset="0.7529" style="stop-color:#EBF1EF"/>
				<stop  offset="1" style="stop-color:#CBCFCE"/>
			</linearGradient>
			<polygon fill-rule="evenodd" clip-rule="evenodd" fill="url(#SVGID_3_)" points="166.5,89.8 17,43.4 17.6,40.9 167.3,87.4 
				167.2,87.5 			"/>
		</g>
		<g>
			<polygon fill-rule="evenodd" clip-rule="evenodd" fill="#FFFFFF" fill-opacity="0.502" points="190.7,78.1 167,87.9 167,87.9 
				17.4,41.3 17.5,40.8 167.2,87.4 167.2,87.4 190.8,77.6 			"/>
		</g>
	</g>
	<g>
		<g>
			<path fill-rule="evenodd" clip-rule="evenodd" fill="#DDDDE7" d="M115.3,63.9c-0.2,0.7-1.4,0.5-3.7-0.7c-0.2-0.1-0.4-0.2-0.4-0.4
				c0.2,0,0.3-0.1,0.5-0.1c0,0,0,0.1,0.1,0.3c0.5,0.8,1.4,1.1,2.6,1.1C114.7,64,115,63.9,115.3,63.9z M126.7,62.5
				c-0.4,0.8,0,1.4,1.3,1.6c4.8,1,5.7-0.1,2.6-3.1c0.1-0.1,0.1-0.3,0.2-0.3c1.3,0,2.7,0.1,4.1,0.2c0.6,0.7,1.7,1,3.1,1
				c0.9,0,1.6-0.1,2.2-0.4c2,0.3,4,0.6,6,1.1c0.7,0.2,1.4,0.4,2,0.6c0.1,0.2,0.3,0.4,0.5,0.6c0.8,1,1.7,1.5,2.8,1.5
				c0.7,0,1.3-0.2,1.8-0.7c0.9,0.3,1.7,0.5,2.6,0.9c0,0.3,0.1,0.6,0.4,1c0.5,0.6,1.2,1.1,2.2,1.3l0,0c-0.1,0.2-0.1,0.3-0.1,0.5
				c-0.1,0.2-0.3,0.4-0.4,0.6c-0.2,0.3-0.4,0.7-0.7,1.1c-0.1,0.1-0.2,0.2-0.3,0.3c-0.3,0.3-0.5,0.6-0.8,0.8
				c-0.4,0.2-0.9,0.5-1.3,0.8c0.9,3-1.1,4.2-6,3.6c-1.8-0.2-3-0.5-3.9-1c-1.8,1-2.4,0.4-1.8-1.8c0-0.1,0.1-0.2,0.1-0.3
				c-0.1,0-0.2-0.1-0.3-0.1c-0.2,0-0.3,0-0.4-0.1c-0.2-0.1-0.4-0.1-0.5-0.1c0,0-0.1,0-0.2,0c0.6,1.4-0.4,1.6-2.9,0.4
				c-0.2-0.1-0.4-0.2-0.6-0.3c-0.4-0.3-0.5-0.6-0.3-1.1c-0.3-0.1-0.6-0.2-0.9-0.3c-0.2-0.1-0.4-0.1-0.5-0.2c-0.1,0-0.2-0.1-0.4-0.1
				c-0.6-0.2-1.2-0.4-1.9-0.5c-0.3-0.1-0.7-0.2-1.1-0.3c-0.1,0-0.2-0.1-0.3-0.1c-0.4-0.1-0.8-0.3-1.2-0.4c-0.1,0-0.1,0-0.2,0
				c-0.4-0.1-0.8-0.3-1.3-0.4c-0.6-0.2-1.2-0.4-1.8-0.6c0.1,1.2-1,1-3.5-0.6c-0.3-0.1-0.4-0.4-0.3-0.6c-0.4-0.2-0.8-0.3-1.2-0.4h0
				c-0.2,0.6-1.5,0.6-3.9-0.1c-0.8-0.2-1.1-0.7-0.8-1.5c-0.2-0.1-0.3-0.1-0.5-0.2c-0.3-0.1-0.5-0.1-0.7-0.3c-0.3,0-0.5-0.1-0.7-0.2
				c-0.4-0.1-0.7-0.3-1-0.4c-0.1,0-0.1,0-0.2,0c0.4-0.2,0.7-0.4,1-0.8c0.4-0.4,0.6-0.9,0.7-1.4v-0.1c0.7-0.1,1.4-0.2,2-0.3
				c0,0.1,0.1,0.2,0.2,0.3c0.5,0.8,1.2,1.2,2.3,1.2c0.8,0,1.5-0.3,2-0.9c0.3-0.3,0.5-0.6,0.6-1c0.1,0.3,0.2,0.6,0.4,0.8
				C125.1,62.1,125.8,62.4,126.7,62.5z M160.8,68c0.5,0,0.9-0.1,1.3-0.1c0.5,0.2,1,0.4,1.5,0.6c0.7,0.6,1.6,1,2.6,1
				c0.7,0.2,1.3,0.5,2,0.8c0,0.6-0.3,1.2-0.8,1.9c-0.5,0.8-1.2,1-2.2,0.7c-2.9-0.8-4.3-2.4-4.5-4.6C160.8,68.1,160.8,68.1,160.8,68z
				 M174.8,78.1c0.6-1,1.4-1.3,2.5-1c2.8,3,2.2,4-1.9,2.9C174.4,79.7,174.2,79.1,174.8,78.1z M145.1,63.4c-0.9-0.2-1.7,0-2.3,0.8
				c-0.5,0.5-0.5,0.9,0,1.3C146.3,67.8,147.1,67.1,145.1,63.4z M161.1,73.5c2.2,3.5,1.1,4.4-3.3,2.7c-1.1-0.5-1.2-1.1-0.3-2
				C158.5,73.2,159.7,73,161.1,73.5z"/>
			<path fill-rule="evenodd" clip-rule="evenodd" fill="#CBCDDA" d="M174.8,78.1c-0.6,0.9-0.4,1.5,0.6,1.8c4.1,1.1,4.7,0.2,1.9-2.9
				C176.2,76.8,175.3,77.2,174.8,78.1z M160.8,68c0,0.1,0,0.1,0,0.2c0.1,2.3,1.6,3.8,4.5,4.6c1,0.3,1.7,0.1,2.2-0.7
				c0.5-0.7,0.7-1.4,0.8-1.9c0.4,0.1,0.9,0.3,1.3,0.4c0.5,1,1.4,1.5,2.7,1.6c0.4,0,0.7,0,1-0.1c1.3,0.5,2.7,1,4,1.5l0.1,0.1
				c0.5,0.9,1.2,1.3,2.3,1.4c0.5,0,0.9,0,1.2-0.1c0.2,0.2,0.5,0.4,0.8,0.5l0.3,1.2V77c0.2,0.2,0.3,0.4,0.2,0.7l0.1,0l0.2,0.1
				l1.1,0.6h0.1l1.4,0.8h0v0l-0.1,0.9l-0.1,0.4l0,0.8l-0.1,0.8l-0.1,0l-0.3,0.9l-0.3,0.5l-0.2,0.6l-0.4,0.7l0,0.2
				c-0.1,0-0.2,0-0.3,0c-0.2,0.1-0.4,0.1-0.6,0.2c-0.5,0.1-1,0.3-1.5,0.4c-0.1,0-0.3,0-0.3,0c-0.2,0.1-0.4,0.1-0.5,0.1
				c-0.1,0-0.3,0-0.5,0.1s-0.4,0.1-0.5,0.1s-0.2,0-0.3,0c-0.3,0.1-0.7,0.2-1.2,0.3c-0.3,0-0.6,0.1-0.9,0.1c-0.3,0-0.6,0-1,0.1l0,0v0
				c-0.1,0-0.2,0-0.3,0c-0.3,0-0.6,0-0.8,0.1c-0.6,0-1.2,0-1.7,0.1l-0.2-0.1c-0.3,0-0.5,0.1-0.8,0.1c-0.1,0-0.2,0-0.3,0
				c-0.4,0-0.7,0.1-1,0.1c-0.4,0-0.9,0-1.3,0l-0.2-0.1v0.1c-0.6,0.1-1.1,0.1-1.7,0c-0.3-0.1-0.6-0.2-0.9-0.3c-0.3,0-0.6,0-0.8-0.1
				c-0.2,0-0.4-0.1-0.6-0.1c-0.2,0-0.4-0.1-0.6-0.1c-0.2-0.1-0.5-0.2-0.8-0.2c-0.5-0.1-1-0.2-1.5-0.4c-0.2-0.1-0.4-0.1-0.6,0
				c-0.2-0.1-0.4-0.1-0.6-0.2c-0.2,0-0.3,0-0.5-0.1c-0.4-0.1-0.8-0.2-1-0.3c-0.1,0-0.3-0.1-0.5-0.1c-0.3-0.1-0.6-0.2-1-0.2
				c-0.3-0.1-0.5-0.2-0.8-0.2c-0.7-0.1-1.3-0.3-2-0.5c-0.4-0.2-0.9-0.3-1.3-0.4c-0.1-0.1-0.3-0.1-0.6-0.1c-0.2-0.1-0.4-0.1-0.6-0.2
				c-0.1,0-0.2-0.1-0.4-0.1c-0.1,0-0.3-0.1-0.5-0.2c-0.3-0.1-0.6-0.2-0.9-0.3c-0.3-0.1-0.5-0.1-0.8-0.3c-0.4-0.1-0.9-0.3-1.3-0.4
				c-0.1,0-0.2-0.1-0.4-0.1c-0.7-0.2-1.4-0.5-2.1-0.7c-0.2-0.1-0.4-0.1-0.6-0.2c-0.2-0.1-0.4-0.1-0.6-0.1c-0.5-0.1-0.9-0.3-1.3-0.4
				c-0.2-0.1-0.3-0.1-0.5-0.2c-0.3-0.1-0.5-0.1-0.8-0.3l0-0.1c-0.1,0-0.3-0.1-0.5-0.1l0,0.1c-0.2-0.1-0.5-0.1-0.8-0.3
				c-0.3-0.1-0.6-0.2-0.9-0.3c-0.4-0.1-0.9-0.2-1.3-0.4c-1-0.4-2-0.7-3-1c0-0.1,0.1-0.2,0.1-0.3c0.1-0.3,0.3-0.6,0.5-1
				c0-0.1,0.1-0.2,0.2-0.3c0.1-0.2,0.2-0.3,0.3-0.5c0.1-0.3,0.3-0.6,0.5-1c0-0.1,0.1-0.2,0.1-0.4c0.2-0.4,0.4-0.8,0.5-1.1
				c0.1-0.1,0.1-0.3,0.2-0.4c0-0.1,0.1-0.2,0.2-0.3c0-0.1,0.1-0.2,0.1-0.3c2.5,1.2,3.5,1.1,2.9-0.4c0.1,0,0.2,0,0.2,0
				c0.2,0,0.3,0,0.5,0.1c0.1,0,0.2,0.1,0.4,0.1c0.1,0,0.1,0.1,0.3,0.1c0,0.1,0,0.2-0.1,0.3c-0.7,2.1-0.1,2.7,1.8,1.8
				c0.8,0.5,2.1,0.9,3.9,1c4.9,0.6,6.9-0.6,6-3.6c0.4-0.3,0.8-0.5,1.3-0.8c0.3-0.2,0.6-0.5,0.8-0.8c0.1-0.1,0.3-0.2,0.3-0.3
				c0.3-0.4,0.5-0.7,0.7-1.1c0.1-0.2,0.3-0.4,0.4-0.6c0-0.1,0.1-0.3,0.1-0.5l0,0c0.6,0.2,1.3,0.3,2.1,0.3
				C160.6,68,160.7,68,160.8,68z M161.1,73.5c-1.4-0.5-2.6-0.3-3.6,0.7c-0.9,0.9-0.8,1.5,0.3,2C162.2,77.9,163.3,77,161.1,73.5z"/>
			<path fill-rule="evenodd" clip-rule="evenodd" fill="#CFD1DD" d="M138.8,72.4c-0.1,0.1-0.1,0.2-0.1,0.3c-0.1,0.1-0.1,0.2-0.2,0.3
				c-0.1,0.1-0.1,0.3-0.2,0.4c-0.1,0.3-0.3,0.7-0.5,1.1c-0.1,0.1-0.1,0.3-0.1,0.4c-0.2,0.4-0.3,0.8-0.5,1c-0.1,0.2-0.2,0.3-0.3,0.5
				c-0.1,0.1-0.1,0.2-0.2,0.3c-0.2,0.4-0.4,0.7-0.5,1c-0.1,0.1-0.1,0.1-0.1,0.3c-0.2-0.1-0.4-0.1-0.7-0.2c-0.4-0.1-0.8-0.2-1.3-0.4
				c-0.4-0.2-0.8-0.3-1.3-0.4c-0.4-0.1-0.8-0.3-1.3-0.5c-0.5-0.2-1-0.3-1.5-0.5c-0.1,0-0.2-0.1-0.3-0.1c-0.3-0.1-0.7-0.2-1-0.3h0
				c-0.2-0.1-0.3-0.1-0.4-0.1c-0.6-0.2-1.2-0.4-1.8-0.5c-0.5-0.2-1-0.4-1.6-0.6c-0.4-0.1-0.8-0.3-1.3-0.4c-0.6-0.2-1.1-0.4-1.7-0.5
				c-0.5-0.1-0.9-0.3-1.3-0.4c-0.1,0-0.2-0.1-0.4-0.1c-0.3-0.1-0.5-0.2-0.8-0.3c-0.5-0.1-0.9-0.3-1.3-0.4c-0.6-0.2-1.1-0.3-1.7-0.4
				c-0.1-0.1-0.3-0.1-0.3-0.1c-0.1,0-0.2-0.1-0.3-0.1c-0.2-0.1-0.4-0.1-0.6-0.1c-0.6-0.2-1.1-0.4-1.7-0.6c-0.2-0.1-0.3-0.1-0.3-0.1
				c-0.4-0.1-0.7-0.2-0.9-0.3l-0.1-0.1c-0.2,0-0.3-0.1-0.5-0.1c-0.5-0.2-1-0.3-1.5-0.5c-0.6-0.2-1.1-0.4-1.6-0.5
				c-0.1,0-0.2-0.1-0.2-0.1l-1-0.1l-0.6,0.1c-0.3-0.2-0.5-0.4-0.8-0.5l0,0c-0.1-0.1-0.1-0.1-0.1-0.1c-0.2-0.1-0.4-0.1-0.6-0.1
				c-0.1-0.1-0.2-0.2-0.3-0.2c-0.6-0.3-1.2-0.6-1.8-0.8c-0.5-0.3-1-0.5-1.6-0.8c-0.4-0.2-0.8-0.3-1.1-0.5c0.7-0.3,1.4-0.6,2.1-0.9
				c0.2-0.1,0.4-0.2,0.6-0.3c0.7,0.6,1.9,0.9,3.5,0.8c1.6-0.1,2.8-0.4,3.5-1.1c0.3-0.3,0.5-0.8,0.6-1.4c0-0.2,0-0.3,0-0.5
				c0,0,0.1,0,0.2,0c0,0.2,0.2,0.3,0.4,0.4c2.3,1.2,3.5,1.4,3.7,0.7c0.1,0,0.2-0.1,0.3-0.1c0.1,0,0.1,0,0.2,0c0.3,0.1,0.7,0.2,1,0.4
				c0.2,0.1,0.4,0.2,0.7,0.2c0.2,0.1,0.4,0.2,0.7,0.3c0.2,0.1,0.3,0.1,0.5,0.2c-0.3,0.7,0,1.2,0.8,1.5c2.4,0.7,3.7,0.7,3.9,0.1h0
				c0.4,0.1,0.8,0.2,1.2,0.4c0,0.3,0.1,0.5,0.3,0.6c2.4,1.6,3.5,1.8,3.5,0.6c0.6,0.2,1.3,0.4,1.8,0.6c0.4,0.1,0.9,0.3,1.3,0.4
				c0.1,0,0.1,0,0.2,0c0.4,0.1,0.8,0.3,1.2,0.4c0.1,0,0.1,0.1,0.3,0.1c0.4,0.1,0.8,0.2,1.1,0.3c0.7,0.2,1.3,0.4,1.9,0.5
				c0.2,0.1,0.3,0.1,0.4,0.1c0.2,0.1,0.4,0.1,0.5,0.2c0.3,0.1,0.6,0.1,0.9,0.3c-0.3,0.5-0.2,0.8,0.3,1.1
				C138.5,72.2,138.7,72.3,138.8,72.4z"/>
			<path fill-rule="evenodd" clip-rule="evenodd" fill="#EFEFF9" d="M105.6,68.4c0.2,0,0.4,0,0.6,0.1c0,0,0.1,0,0.1,0.1l0,0
				c0.2,0.1,0.5,0.3,0.8,0.5l-0.2-0.1c-0.2-0.1-0.4-0.2-0.6-0.4c-0.1,0-0.1,0-0.3-0.1C105.9,68.5,105.7,68.4,105.6,68.4z"/>
			<path fill-rule="evenodd" clip-rule="evenodd" fill="#EAECF8" d="M130.5,61c3.1,3,2.2,4-2.6,3.1c-1.3-0.2-1.7-0.8-1.3-1.6
				c0.2,0,0.3,0,0.5,0c1.2,0,2.2-0.4,3-1C130.3,61.3,130.5,61.2,130.5,61z M145.1,63.4c2,3.7,1.2,4.4-2.3,2.1
				c-0.5-0.3-0.5-0.7,0-1.3C143.4,63.4,144.2,63.2,145.1,63.4z"/>
		</g>
	</g>
	<g>
		<g>
			<path fill-rule="evenodd" clip-rule="evenodd" fill="#FFFFFF" d="M186,114.1c-0.1,0.4-0.2,0.8-0.2,1.1c-0.1,0.1-0.3,0.1-0.3,0.1
				c0,0,0,0.1,0,0.1c-0.1-0.5-0.1-0.9-0.2-1.4c0.1,0,0.1,0,0.2,0C185.6,114.1,185.8,114.1,186,114.1z M187.5,113.4
				c0.6-0.5,0.8-1,0.8-1.6c0-0.7-0.2-1.1-0.6-1.4c0.2-1.1,0.6-0.7,1.3,1c1,2.7,1.5,4.7,1.5,6c0,0.9-0.1,1.5-0.2,2
				c-0.3,0.2-0.7,0.4-1,0.5c-0.1-1.3-0.5-2-1.5-2c-0.1-0.4-0.2-0.8-0.3-1.3C187.5,116.2,187.5,115.1,187.5,113.4z M188.8,122
				c0.7,0,1.5,0.3,2.2,0.9c0.2,0.2,0.4,0.3,0.5,0.5c0.1-0.3,0.1-0.5,0.3-0.6c-0.4-0.2-0.8-0.5-1.2-0.9c-0.5-0.6-0.9-1.1-1-1.7
				c0.9-0.4,1.7-0.4,2.4,0c0.7,0.3,1.3,0.9,1.6,1.9c0.2,0.4,0.3,0.9,0.5,1.5c0,0.2,0,0.5,0,0.9c0,0,0.1,0,0.1,0
				c0.3,0.1,0.4,0.4,0.4,0.9c0,0.2-0.2,0.7-0.5,1.4c-0.2,2.5-0.7,4.2-1.6,5.1c0.1,0,0.1,0.3,0.1,0.8c0,0.1-0.3,0.6-0.9,1.5
				c-0.2,0.3-0.3,0.7-0.3,1.2c-0.4-0.2-0.9-0.3-1.5-0.1c-0.5,0.1-0.9,0.3-1.3,0.5c0-0.2,0-0.4,0-0.6c-0.2-0.3-0.3-0.8-0.4-1.3
				c-0.1-0.7-0.1-1.2,0-1.6c0-1.2,0.2-1.9,0.7-2.1c0,0.1,0,0.1,0,0.1c0.3,0.6,0.9,0.9,1.8,1c0,0.1,0.1,0.3,0.2,0.5
				c0.4,0.1,0.9,0.2,1.5,0.4c0-0.1,0.1-0.1,0.1-0.1c0,0-0.1,0-0.1,0c-0.3-0.3-0.6-0.6-0.8-0.8c1.3-0.1,1.9-0.8,1.9-2
				c0-1.1-0.8-1.8-2.3-2.1c0-0.1,0-0.2,0-0.3c0-0.2,0-0.4,0-0.6c-0.1,0-0.2,0-0.3,0c-0.7,0-1.3-0.5-1.8-1.5
				c-0.3-0.7-0.5-1.3-0.5-1.6c0-0.4,0-0.6,0-0.6C188.6,122.3,188.7,122.1,188.8,122z M191,140c0,0.1,0,0.1,0,0.2
				c0.1,0,0.3,0.1,0.6,0.1c0.3,0.1,0.4,0.4,0.4,0.9c0,1.1-0.2,2.7-0.5,4.6c-0.3,2-0.5,3.9-0.5,5.6c-0.5,0.3-0.9,0.5-1.3,0.6
				c-0.6-0.4-1-1.2-1.2-2.2c-0.1-0.3-0.1-1-0.1-2.1c-0.1,0-0.2,0-0.3,0c-0.2,0-0.5,0-0.7,0c0-1.5,0-2.9,0-4.4c0.3,0,0.7,0.3,1,0.8
				c0-0.4,0-0.7,0-0.9c0.1-0.8,0.4-1.5,0.9-2c-0.3-0.4-0.6-0.8-0.8-1.2c0.3,0,0.6,0.1,1,0.1C190.2,140.1,190.6,140,191,140z
				 M187.5,139.5c0.2,0.2,0.5,0.3,0.9,0.4c-0.3,0.6-0.5,1.1-0.5,1.4c-0.1,0-0.2,0.1-0.4,0.2C187.5,140.9,187.5,140.2,187.5,139.5z
				 M190.5,87.1c0-0.1-0.1-0.1-0.2-0.1c-0.1-0.1-0.2-0.2-0.3-0.3c0.2,0,0.3,0.1,0.5,0.1C190.5,86.9,190.5,87,190.5,87.1z
				 M194.5,109.4c0.9,2.7,1.5,4.4,1.8,5.3c0,0.4,0,0.8,0,1.3c0,0.1,0,0.1,0.1,0.2h-0.2c0,0.1,0,0.2,0,0.3c-0.1,0.2-0.5,0.3-1,0.3
				c-1,0-1.7-1.1-2.3-3.2c-0.3-1-0.4-2-0.5-3C192.5,106.6,193.1,106.3,194.5,109.4z M189.5,101c0.1-1.1,0.5-1.9,1.2-2.2
				c0.6,0.2,1,0.6,1.3,1v7.5c-0.5,0.2-0.9,0.4-1.3,0.6c-0.6-0.3-1-1.1-1.2-2.2c-0.1-0.4-0.1-1.2-0.1-2.4
				C189.5,102.1,189.5,101.3,189.5,101z M186.7,122.8c0.6,0.2,1,0.6,1.3,1v4.6c-0.3,0.2-0.6,0.3-0.9,0.5c-0.2-1.6-0.4-3.1-0.5-4.6
				c-0.1-0.6-0.2-1.2-0.3-1.8C186.4,122.5,186.5,122.7,186.7,122.8L186.7,122.8z M196.8,120.9c0.1,1.3,0.2,2.5,0.3,3.5
				c0,0.1,0,0.2,0,0.3c0,0.4,0,0.8,0.1,1.3c0.1,1.7,0.2,3,0.3,4v3.3c-0.4-0.1-0.8-0.4-1.1-0.9c0,0.1,0,0.1,0,0.2
				c-0.3,1.2-0.4,1.9-0.5,2.1c-0.4,0.2-0.7,0.4-1,0.5c-0.6-0.4-1-0.9-1.2-1.5c-0.1-0.2-0.1-0.7-0.1-1.4c0-1.3,0.1-2.1,0.2-2.3
				c0.2-0.4,0.7-0.6,1.5-0.5c-0.1-0.2-0.1-0.4-0.2-0.5c-0.3-1.5-0.5-3-0.5-4.5c0-1.1,0.1-1.7,0.2-2
				C194.9,122,195.6,121.5,196.8,120.9L196.8,120.9z M191.5,146.4c0-0.2,0.1-0.4,0.2-0.8c0.2-0.5,0.5-0.9,1-1.3
				c0.8,0.9,1.3,1.5,1.5,1.9c0.2,0.4,0.3,1,0.3,2c-0.1,0.3-0.2,0.5-0.3,0.6c-0.1,0.2-0.5,0.3-1,0.3c-0.7,0-1.2-0.4-1.5-1.3
				C191.5,147.4,191.5,146.9,191.5,146.4z M195,140.2c0.6,0,1.4,0,2.2,0.1c0,0,0,0.1,0.1,0.1c0,0.4,0,0.8,0.1,1.3
				c-0.1,0.2-0.1,0.4-0.2,0.6c-0.2,0.6-0.3,1.1-0.3,1.6c-0.1,0.3-0.2,0.5-0.3,0.6c-0.1,0.2-0.5,0.4-1,0.4c-1,0-1.6-0.4-1.8-1.2
				c-0.1-0.4-0.1-0.9,0-1.4l0-2C194.2,140.3,194.5,140.3,195,140.2z M192,159.4c-0.1-0.2-0.2-0.4-0.3-0.6c-0.2-0.4-0.3-0.7-0.3-1
				c0-0.9,0.3-2.1,0.8-3.6c0.4-1,0.8-1.7,1.2-2.3c0-0.3,0.1-0.5,0.2-0.6c0.5-0.6,1.8-0.8,3.8-0.5c0,0.6,0,1.1,0,1.7
				c-0.3,0.3-0.6,0.6-1,1c-0.6,0.6-1.1,1-1.5,1.3c-0.1,0.2-0.1,0.4-0.2,0.6c-0.5,1.7-0.8,3-1,4.1C193.4,159.3,192.8,159.2,192,159.4
				z M191,159.6c-1.4,0.4-2.4,0.8-3,1.3c-0.1-0.6-0.1-1,0-1.4c0-2.1,0.5-3,1.5-2.6C190.4,157.1,190.9,158.1,191,159.6z M193.9,159.5
				c0.2-0.4,0.5-0.6,0.8-0.6c0.8,0.1,1.3,1.5,1.3,4.3c0,0.9,0,1.7,0,2.4c0.2,0,0.5,0.1,0.8,0.1c0,0,0,0.1,0.1,0.1
				c0.1,0,0.1,0.3,0.1,0.8c0,0.5-0.3,0.9-0.9,1.1c-1.2,0.4-1.8,0.6-1.8,0.6c-0.5-0.2-0.8-0.3-0.9-0.4c-0.1-0.1-0.2-0.3-0.3-0.6
				c0.2-0.3,0.3-0.6,0.3-1.1c0-0.1,0-0.3,0-0.4c0.1-0.1,0.2-0.2,0.3-0.2c0-0.1,0-0.2,0-0.3c-0.1-0.3-0.1-1.1-0.1-2.3
				c0-0.1,0-0.1,0-0.2c0.9-0.5,1.3-1.1,1.3-1.7C194.8,160.4,194.5,159.8,193.9,159.5z M187.8,172.5c0.4-0.3,0.5-0.7,0.5-1.3
				c0-0.7-0.2-1.2-0.6-1.5c0-2.2,0-4.2,0-6c0.5,0.2,1.1,0.4,2,0.4c0.6,0,1.3-0.1,2.1-0.5c0,0,0.1,0.1,0.1,0.1
				c-0.1,0.3-0.1,0.5-0.2,0.7c-0.2-0.1-0.5-0.1-0.8-0.2c-0.7,0-1.3,0.1-1.7,0.4c-0.2-0.1-0.4-0.2-0.6-0.4c0.1,0.2,0.1,0.5,0.1,0.9
				c-0.2,0.3-0.3,0.7-0.3,1.1c0,0.5,0,0.8,0.2,0.9c0.1,0.1,0.1,0.2,0.3,0.3c0,0.2,0,0.4,0,0.6c0,1.8-0.1,3.3-0.2,4.5
				c-0.3,0.1-0.5,0.3-0.8,0.4c0.1,0.4,0.2,0.7,0.3,1.1c0.1,3.2,0.2,5.1,0.3,5.9c-0.1-0.2-0.3-0.3-0.5-0.4
				C187.9,177.1,187.8,174.7,187.8,172.5z M189.6,184.1c-0.7,0.4-1.1,1.1-1.1,1.9c0,0.5,0.1,0.8,0.2,1.1c0.3,0.7,0.9,1,1.8,1
				c0.1,0,0.2,0,0.3,0c0.1,0.7,0.2,1.3,0.2,1.8c0,0.9-0.1,1.5-0.2,2c-0.4,0.2-0.7,0.4-1,0.5c-0.8-0.6-1.3-1.4-1.5-2.6
				c0-2.3-0.1-4.5-0.1-6.5c0-0.2,0.1-0.4,0.1-0.5c0.1-0.5,0.3-0.7,0.4-0.5c0.2,0.2,0.5,0.7,0.9,1.6
				C189.5,183.9,189.5,184,189.6,184.1z M187.7,156.6c0,0,0,0.1,0.1,0.1c0.1,0,0.1,0.3,0.1,0.8c0,0.2-0.1,0.4-0.3,0.8
				c0-0.5-0.1-1.1-0.1-1.6C187.6,156.6,187.7,156.6,187.7,156.6z M192.5,172.2v7.5c-0.5,0.2-0.9,0.4-1.3,0.6c-0.6-0.4-1-1.1-1.2-2.2
				c-0.1-0.4-0.1-1.2-0.1-2.4c0-1.2,0-2,0.1-2.3c0.1-1.1,0.5-1.9,1.2-2.2C191.8,171.5,192.2,171.8,192.5,172.2z M197.9,173.5
				c0,1.9,0.1,3.8,0.1,5.8c-0.1,0.1-0.3,0.1-0.3,0.2c-0.6-0.4-1-0.9-1.2-1.5c-0.1-0.2-0.1-0.8-0.1-1.7l0-2.9
				C197,173.4,197.5,173.4,197.9,173.5z M195,181.8c1.3,3.8,2,5.7,2,5.8c0,0.5,0,0.8-0.1,0.9h-0.1c0,0.1,0,0.2,0,0.3
				c-0.1,0.2-0.5,0.3-1,0.3c-1,0-1.7-1.1-2.3-3.2c-0.3-1-0.4-2-0.5-3C193,179.1,193.6,178.7,195,181.8z M194.5,198.8
				c-0.2,2.8-0.8,4.7-1.8,5.5c-0.8-0.8-1.3-1.3-1.3-1.3c0-0.3,0-0.6,0-0.9c1.5-0.1,2.3-0.7,2.3-1.9c0-0.4,0.2-0.8,0.5-1.2
				C194.3,198.9,194.4,198.9,194.5,198.8z M188.3,196c0.1,0.1,0.1,0.1,0.2,0.3v4.6c-0.1,0-0.1,0.1-0.2,0.1c0-1.3,0-2.5,0-3.7
				C188.3,196.8,188.3,196.4,188.3,196z M195.8,202.5c-0.1-0.3-0.2-0.7-0.3-1c-0.3-1.5-0.5-3-0.5-4.5c0-1.1,0.1-1.7,0.2-2
				c0.2-0.5,0.9-1,2-1.7c0.2,0.1,0.5,0.2,0.8,0.2c0.1,0,0.2,0.1,0.3,0.2c0,0.5,0,1,0,1.5c-0.1,0.2-0.2,0.4-0.3,0.6
				c-0.3,0.5-0.5,1-0.5,1.4c0,0.3,0,0.6,0.1,1C196.7,199.8,196,201.2,195.8,202.5z M198,205.8c0.1-0.2,0.3-0.3,0.3-0.5
				c0,0.1,0,0.3,0,0.5c0,0-0.1,0-0.1,0S198.1,205.8,198,205.8z M194.5,196.3c-0.4-0.7-1.3-0.7-2.6-0.1c0.3-1.2,0.8-2,1.4-2.4
				c0.6,0.3,1,1.1,1.2,2.2C194.4,196.1,194.4,196.2,194.5,196.3z M189,205.3c0,0.6-0.2,1.4-0.7,2.3c0-0.5,0-0.9,0-1.3
				c0-0.6,0-1.3,0-1.9c0.1,0,0.3,0.1,0.4,0.1c0,0,0,0.1,0.1,0.1C188.9,204.5,189,204.8,189,205.3z M194,216.7
				c-0.6-0.1-1.2-0.6-1.6-1.5c-0.3-0.7-0.5-1.3-0.5-1.7c0-0.4,0-0.7,0-0.7c0.1-0.1,0.2-0.1,0.2-0.3c0.8,0,1.5,0.3,2.3,0.9
				c0.7,0.6,1.1,1.1,1,1.6l-0.1,0.8c0.3-0.4,0.8-0.8,1.4-1.1c0.2,0.1,0.5,0.2,0.8,0.2c0.3,0.1,0.4,0.4,0.4,0.9
				c0,0.2-0.3,0.9-0.9,1.9c-0.1,0.2-0.3,0.4-0.3,0.6c0,0,0-0.1,0-0.1c0-1.5-0.9-2.1-2.6-1.6C194.1,216.6,194.1,216.6,194,216.7z
				 M190.5,234c0.1-0.1,0.3-0.2,0.5-0.2c0.4,0,0.7,0.3,1,0.8c0-0.4,0-0.7,0-0.9c0.1-0.8,0.4-1.5,0.9-2c-0.3-0.3-0.6-0.7-0.8-1.2
				c-0.1-0.1-0.1-0.3-0.2-0.4c0,0.1-0.1,0.1-0.1,0.2c-0.3,0.6-0.5,1.1-0.5,1.5c-0.1,0-0.3,0.1-0.5,0.3c-0.3,0.2-0.6,0.3-0.8,0.4
				c-0.4-0.4-0.8-0.8-1-1.4c-0.2-0.4-0.3-0.7-0.3-0.9c0-1,0.1-1.6,0.2-1.9c0.3-0.4,0.7-0.6,1.3-0.6c0.6,0.8,1.6,1.3,3,1.3
				c0.5,0,1,0,1.3,0c0,0.1-0.1,0.2-0.1,0.4c-0.1,0.5-0.2,0.9-0.3,1.3c0.1,0,0.3,0.1,0.6,0.1c0.3,0.1,0.4,0.4,0.4,0.9
				c0,1.1-0.2,2.7-0.5,4.6c-0.3,2-0.5,3.9-0.5,5.7c-0.5,0.2-0.9,0.4-1.3,0.6c-0.6-0.4-1-1.1-1.2-2.2c0-0.2-0.1-0.7-0.1-1.3l0,0
				l0.3-1.4C191.8,236,191.2,234.8,190.5,234z M194.8,225.3c-0.4-0.2-1-0.5-1.6-0.6c-0.2-0.1-0.4-0.1-0.6-0.2
				c1.4-0.6,2.2-1.3,2.2-2.3c0.3,0.1,0.6,0.2,1,0.3c0.2-0.5,0.3-0.3,0.3,0.5c0,0.1-0.3,0.6-0.9,1.5
				C194.9,224.7,194.8,225,194.8,225.3z M188,235.3c0,0.2,0,0.5,0,0.7l0.3,1.7c0.2,0.7,0.6,1.2,1.1,1.5l-0.1,0.2
				c-0.2,0.2-0.5,0.3-1,0.3c-0.1,0-0.2,0-0.3,0c0-1,0-2,0-2.9C188,236.3,188,235.8,188,235.3L188,235.3z M190.5,220.8
				c-1,0.6-1.5,1.4-1.5,2.5c0,0.7,0.3,1.2,0.8,1.5c-0.1,0-0.1,0-0.1,0c-0.4-0.4-0.8-0.9-1-1.4c-0.2-0.4-0.3-0.7-0.3-0.9
				c0-1.4,0.4-2,1.3-2C190.1,220.5,190.3,220.6,190.5,220.8z M188.5,233.7c-0.2,0.3-0.4,0.8-0.4,1.6h0c0.1-1.9,0.1-3.5,0.2-4.8
				C188.3,231.6,188.4,232.7,188.5,233.7z M188.5,216.3c0.5-0.5,0.8-0.8,0.8-1c0-0.8-0.3-1.4-1-1.7c0-0.1,0-0.3,0-0.3
				c0.2-0.3,0.5-0.5,0.9-0.4c0.8,0.1,1.3,0.7,1.3,1.9c0,0.6-0.1,1.1-0.2,1.6c-0.4,0.2-0.7,0.3-1,0.4
				C188.9,216.5,188.6,216.4,188.5,216.3z M194,212.3c-0.5-0.6-0.9-1.1-1-1.7c0.9-0.4,1.7-0.4,2.4-0.1c0.8,0.3,1.3,1,1.6,2.1
				l-0.3,0.3c-0.2,0.2-0.5,0.3-1,0.3C195.1,213.3,194.6,213,194,212.3z M198.4,220c0,1.9,0,3.8,0,5.7c-0.1,0-0.1,0-0.2,0
				c-0.6-0.3-1-0.8-1.2-1.5c-0.1-0.2-0.1-0.7-0.1-1.4c0-1.3,0.1-2,0.2-2.3C197.3,220.2,197.8,220,198.4,220z M198.5,231.8
				c0,1.1,0,2.3,0,3.5c-0.6-0.2-0.9-0.5-1-1.1c-0.1-0.4-0.1-0.9,0-1.4l0-2c0.2,0,0.5,0,1-0.1C198.5,231.1,198.5,231.5,198.5,231.8z
				 M187.8,242.9c0.1,0,0.1,0.3,0.1,0.8c0,0.1-0.1,0.3-0.2,0.4C187.8,243.7,187.8,243.3,187.8,242.9L187.8,242.9z M191.3,247.2
				c0.1,0,0.1,0.3,0.1,0.8c0,0.3-0.3,0.8-0.9,1.5c-0.5,0.6-1,1.1-1.3,1.3c-0.6-0.2-1-0.5-1.2-1c-0.1-0.2-0.1-0.5-0.1-1.1
				c0-0.9,0.1-1.4,0.2-1.5c0.4-0.3,1.4-0.3,3-0.1C191.2,247.1,191.3,247.2,191.3,247.2z M197.7,239.3c-0.1,0.2-0.5,0.3-1,0.3
				c-0.7,0-1.2-0.4-1.5-1.3c-0.2-0.5-0.3-1-0.3-1.5c0-0.2,0.1-0.5,0.2-0.8c0.2-0.5,0.5-0.9,1-1.3c0.8,0.9,1.3,1.5,1.5,1.9
				c0.2,0.4,0.3,1,0.3,2C197.9,239,197.8,239.2,197.7,239.3z M198.6,249.6c0,0.4,0,0.9,0,1.3c0,2.5,0.1,5.1,0.1,7.6
				c-0.6,0.2-0.9,0.3-1,0.3c-0.5-0.2-0.8-0.3-0.9-0.3c-0.2-0.2-0.3-0.6-0.3-1.2c0-0.6,0.2-1,0.6-1.1c0-0.1,0-0.2,0-0.3
				c-0.1-0.3-0.1-1.1-0.1-2.2c0-3,0.4-4.4,1.3-4.3C198.3,249.4,198.5,249.5,198.6,249.6z M193.5,267.3
				C193.5,267.3,193.5,267.2,193.5,267.3c1.2-0.8,1.8-1.6,1.8-2.5c0-1.3-0.5-1.9-1.3-2c0.2-0.4,0.4-0.8,0.8-1c0.6,0.2,1,0.5,1.3,1
				v7.5c-0.5,0.2-0.9,0.4-1.3,0.6c-0.6-0.3-1-1.1-1.2-2.2C193.5,268.4,193.5,267.9,193.5,267.3z M194.3,249.3
				c-0.6,0-1.3,0.2-2.2,0.7c-0.3,0.1-0.5,0.3-0.8,0.5c0-0.2,0-0.4,0-0.5c0-2.1,0.5-3,1.5-2.7C193.7,247.6,194.2,248.3,194.3,249.3z
				 M198.4,275.1c0,0.1,0,0.2,0,0.3c0,1.3-0.1,2.5-0.2,3.7c-0.5-0.5-1-1.4-1.3-2.8c-0.1-0.3-0.1-0.5-0.2-0.8c0.1,0,0.1,0,0.2,0
				C197.4,275.5,197.9,275.4,198.4,275.1z M197.5,270.5c-0.4,0.2-0.7,0.5-1,0.8C196.7,270.2,197,270,197.5,270.5z M194.3,282.3
				c-0.4,0.2-0.7,0.4-1,0.5c-0.9-0.7-1.5-1.8-1.7-3.3c-0.1-0.4-0.1-1.6-0.1-3.6c0-3.7,0.5-4.3,1.5-1.7c1,2.7,1.5,4.7,1.5,6
				C194.5,281.2,194.4,281.9,194.3,282.3z M193,287.6c-0.3-0.7-0.5-1.3-0.5-1.6c0-0.4,0-0.7,0-0.7c0.1-0.1,0.2-0.2,0.2-0.3
				c0.8,0,1.5,0.3,2.3,0.8c0.2,0.2,0.4,0.3,0.5,0.5c0.1-0.3,0.1-0.5,0.3-0.6c-0.4-0.2-0.8-0.5-1.2-0.9c-0.5-0.6-0.9-1.1-1-1.7
				c0.9-0.4,1.7-0.4,2.4,0c0.7,0.3,1.3,1,1.6,2c0.1,0.3,0.3,0.6,0.3,1c-0.2,1.8-0.3,3.6-0.5,5.5c-1.2-0.2-1.8,0.4-1.8,1.8
				c0,0.3,0.2,0.8,0.5,1.5c-0.7-0.7-1-1.1-1-1.2c0-1.2,0-2.2,0-3c0-0.1,0-0.1,0-0.3c0-0.2,0-0.4,0-0.6c0-0.2,0-0.4,0-0.6
				c-0.1,0-0.2,0-0.3,0C194.7,287.8,194.1,287.3,193,287.6z M196.5,295.3c0,0,0,0.1,0,0.1c0,0.1-0.3,0.6-0.9,1.5
				c-0.4,0.6-0.5,1.3-0.3,2.1c0,0,0.1,0.2,0.1,0.4v0c0,0.1,0,0.2,0,0.3c0,0.4-0.1,1.1-0.3,2c-0.1,0.5-0.2,0.9-0.3,1.3
				c0.1,0,0.3,0.1,0.6,0.1c0.3,0.1,0.4,0.4,0.4,0.9c0,0.1,0,0.3,0,0.5c0,0.8-0.1,1.9-0.3,3.2c-0.1,0.3-0.1,0.6-0.2,1
				c-0.3,2-0.5,3.9-0.5,5.6c-0.5,0.3-0.9,0.5-1.3,0.7c-0.1-0.1-0.1-0.1-0.2-0.2c-0.1-0.1-0.2-0.2-0.3-0.3c-0.3-0.4-0.5-1-0.7-1.7
				c-0.1-0.3-0.1-1-0.1-2.1c-0.1,0-0.2,0-0.3,0c-1,0-1.6-0.5-1.8-1.4c-0.1-0.4-0.1-0.8,0-1c0-1.3,0.3-2,1-2c0.2,0,0.3,0.1,0.5,0.2
				c-0.4,0.4-0.5,1-0.5,1.8c0,0.1,0,0.5,0,1.3c0.2,0.7,0.8,1,2,1c0.7,0,1.2-0.2,1.5-0.7c0.2-0.4,0.3-0.9,0.3-1.8
				c0-1.6-0.6-2.3-1.8-2.2c-0.3,0-0.6,0-0.8,0.1c0.1-0.7,0.4-1.3,0.8-1.8c-0.3-0.4-0.6-0.8-0.8-1.2c-0.1-0.1-0.1-0.3-0.2-0.4
				c0,0.1-0.1,0.1-0.1,0.2c-0.3,0.6-0.5,1.1-0.5,1.5c-0.1,0-0.3,0.1-0.5,0.3c-0.3,0.2-0.6,0.3-0.8,0.4c-0.4-0.4-0.8-0.8-1-1.4
				c-0.2-0.4-0.3-0.7-0.3-0.9c0-1,0.1-1.6,0.2-1.9c0.4-0.6,1.4-0.8,2.9-0.5c0-0.2,0-0.4,0.1-0.5c0,0,0-0.1,0-0.1
				c-0.1-0.2-0.2-0.4-0.2-0.7c-0.1-0.3-0.1-0.7-0.1-1.1c-0.2-0.3-0.3-0.8-0.4-1.3c-0.1-0.7-0.1-1.2,0-1.6c0-1.7,0.5-2.4,1.5-2.1
				c0.6,0.2,1,0.7,1.3,1.6c0.4,0.1,0.9,0.2,1.5,0.4C196.3,295.1,196.3,295.2,196.5,295.3z M190.5,319.4c0.3,0,0.7,0.1,1.2,0.1
				c0,0,0,0.1,0.1,0.1c0.1,0,0.1,0.3,0.1,0.8c0,0.3-0.3,0.8-0.9,1.4c-0.1,0.1-0.2,0.2-0.3,0.4c-0.1-0.9-0.5-1.4-1-1.4
				c-0.4,0-0.8,0.2-1.3,0.5c0-0.1,0-0.2,0-0.3c0-0.9,0.1-1.4,0.2-1.5c0.1,0,0.1-0.1,0.2-0.1c0.3,0,0.6,0,0.9,0
				C189.9,319.5,190.2,319.5,190.5,319.4z M188.5,316c-0.6,0.5-0.9,1.1-0.9,1.8c0,0.5,0,0.8,0.2,1c0.1,0.1,0.1,0.2,0.3,0.3
				c-0.1,0.9-0.1,1.6-0.2,2.2c-0.4,0.2-0.7,0.3-1,0.5c-0.6-0.3-1-1.1-1.2-2.3c0-0.1,0-0.2,0-0.3c-0.1,0.2-0.1,0.3-0.2,0.5
				c-0.1,0.3-0.2,0.6-0.3,0.8c0.1-1.6,0.1-3.4,0.2-5.4c0.1,0,0.2-0.1,0.3-0.1c0.2-1.5,0.5-2.3,1.2-2.3c0.6,0,1,0.8,1.1,2.4
				c0.1,0,0.3,0,0.4,0c0,0,0,0.1,0.1,0.1C188.4,315.4,188.5,315.6,188.5,316z M192,288c-1.5,0.6-2.3,1.4-2.4,2.5
				c-0.1-0.3-0.1-0.7-0.1-1.4c-0.5-0.2-0.8-0.5-0.9-0.8c-0.1-0.2-0.1-0.6-0.1-1.2c0-1.3,0.4-1.9,1.3-1.8c0.4,0.1,0.8,0.3,1,0.6l0,0
				c0.6,0.2,1,0.5,1.3,1V288z M192.9,329c0,0.6,0,1.3,0,2.2c0,1.8-0.1,3.3-0.2,4.5c-0.3,0.1-0.5,0.3-0.8,0.3
				c0.1,0.4,0.2,0.7,0.3,1.1c0,0.2,0,0.4,0,0.6h-4c-0.9-2.8-1.3-4.6-1.3-5.3c0-0.3,0-0.5,0-0.5c-0.1,0-0.2,0.1-0.3,0.1
				c0.3-0.5,0.5-1,0.8-1.5c0,0.1,0,0.2,0,0.4c0,0.2,0,0.4-0.2,0.6c1.3,0,2.4,0.5,3.2,1.5c0-0.5,0-1.1,0-1.8c0-1.4,0.1-2.5,0.3-3.3
				c0,0,0,0.1,0,0.1c0.3,0.7,1,1,2,1C192.8,329,192.8,329,192.9,329z M185,326c0-0.7,0-1.4,0-2.2c0-0.2,0-0.3,0-0.5c0,0,0.1,0,0.2,0
				c0.3,0,0.6,0.3,0.8,0.8C185.6,324.7,185.2,325.3,185,326z M194.6,324.3c-0.1,0-0.3,0-0.4,0c-0.8,0.1-1.4,0.3-1.9,0.5
				c-0.2-0.2-0.3-0.5-0.3-1c-0.1-0.6-0.1-1,0-1.4c0-2.1,0.5-3,1.5-2.7c0.6,0.2,1,0.6,1.2,1.3C194.6,322.1,194.6,323.2,194.6,324.3z
				 M185.2,333.7c0.8-0.1,1.3,0.8,1.3,2.5c0,0.5,0,1,0,1.5h-0.6c-0.2-0.3-0.5-0.7-0.6-1c-0.1-0.7-0.1-1.3-0.2-1.9c0-0.3,0-0.7,0-1
				C185,333.7,185.1,333.7,185.2,333.7z M195.2,337.5c-0.1,0.1-0.3,0.1-0.4,0.2H194c0-0.7,0.1-1.1,0.1-1.3c0.1-1,0.5-1.7,1-2.1
				C195.1,335.4,195.1,336.5,195.2,337.5z"/>
			<path fill-rule="evenodd" clip-rule="evenodd" fill="#C2C2C9" d="M190.3,89.5c-0.3,0.2-0.7,0.4-1.2,0.6c-0.5,0.2-1,0.4-1.5,0.4
				c-0.4,0-0.7,0.1-1,0.1c-0.5,0-0.9,0-1.2-0.1c0.1-0.4,0.3-0.9,0.5-1.3c0.9-1.6,2-2.5,3.4-2.5c0.2,0,0.5,0,0.8,0
				c0.1,0.1,0.3,0.1,0.3,0.3c0.1,0,0.1,0.1,0.2,0.1c0.2,0.3,0.3,0.7,0.3,1.2C190.8,88.7,190.6,89.1,190.3,89.5z M187.7,110.4
				c0.4,0.3,0.6,0.8,0.6,1.4c0,0.6-0.3,1.1-0.8,1.6c0,0-0.1,0.1-0.2,0.1c-0.4,0.3-0.9,0.5-1.3,0.6c-0.2,0-0.3,0-0.5,0
				c-0.1,0-0.1,0-0.2,0c-0.2-1.4-0.3-2.8-0.5-4.1c0.3-0.1,0.6-0.1,1-0.1c0.6,0,1.1,0.1,1.5,0.3C187.4,110.2,187.5,110.3,187.7,110.4
				z M189.3,119.9c0,0.1,0,0.1,0,0.3c0,0.9-0.2,1.5-0.5,1.9c-0.1,0.1-0.2,0.2-0.3,0.3c-0.3,0.2-0.6,0.3-1,0.3
				c-0.5,0-0.9-0.1-1.2-0.3c-0.2-1.2-0.3-2.3-0.5-3.4c0.3-0.6,0.9-1,1.7-1.1c0.1,0,0.3,0,0.4,0C188.8,117.9,189.2,118.6,189.3,119.9
				z M191.3,135.1c0.7,0.4,1,1.4,1,3.1c0,0.9-0.4,1.4-1.3,1.7c-0.4,0.1-0.8,0.1-1.3,0.1c-0.4,0-0.7,0-1-0.1c-0.1,0-0.2-0.1-0.3-0.1
				c-0.4-0.1-0.7-0.2-0.9-0.4c0-1.1,0-2.1,0-3.1c0.2-0.3,0.5-0.6,0.9-0.9c0.3-0.2,0.8-0.4,1.3-0.5
				C190.3,134.9,190.8,134.9,191.3,135.1z M191,127c1.6,0.3,2.3,1,2.3,2.1c0,1.2-0.6,1.8-1.9,2c-0.2,0-0.3,0-0.5,0
				c-0.2,0-0.3,0-0.5,0c-0.9-0.1-1.5-0.4-1.8-1c0,0,0-0.1,0-0.1c-0.1-0.3-0.2-0.7-0.1-1C188.5,127.4,189.3,126.8,191,127z
				 M187.7,163.8c0-0.1,0-0.2,0-0.3c0-0.2,0-0.3,0-0.5c0-0.6,0-1.2,0-1.9c0.1-0.1,0.2-0.2,0.3-0.3c0.6-0.5,1.6-0.9,3-1.3
				c0.4-0.1,0.7-0.2,1-0.3c0.8-0.1,1.4-0.1,1.8,0.1c0,0,0,0,0.1,0c0.6,0.3,0.9,0.9,0.9,1.8c0,0.6-0.5,1.2-1.3,1.7
				c-0.3,0.1-0.6,0.3-0.9,0.4c-0.2,0.1-0.5,0.2-0.7,0.3c-0.9,0.3-1.6,0.5-2.1,0.5C188.8,164.1,188.1,164,187.7,163.8z M187.8,172.5
				c0-0.4,0-0.7,0-1.1c0-0.6,0-1.1,0-1.7c0.4,0.3,0.6,0.9,0.6,1.5C188.3,171.8,188.1,172.3,187.8,172.5z M189,167.6
				c-0.1-0.1-0.2-0.2-0.3-0.3c-0.1-0.1-0.2-0.4-0.2-0.9c0-0.5,0.1-0.9,0.3-1.1c0.1-0.2,0.3-0.4,0.5-0.5c0.4-0.3,1-0.4,1.7-0.4
				c0.3,0,0.6,0.1,0.8,0.2c0.9,0.2,1.4,0.7,1.5,1.4c0,0.1,0,0.3,0,0.4c0,0.4-0.1,0.8-0.3,1.1c-0.4,0.5-1,0.8-2,0.8
				C190,168.1,189.3,167.9,189,167.6z M188.6,182.2c-0.2-0.2-0.3,0-0.4,0.5c0,0-0.1,0.1-0.1,0.1c0-1.1,0-2.1,0-3.1
				c0.2,0.1,0.3,0.2,0.5,0.4c0.2,0.3,0.3,0.7,0.3,1.2C188.8,181.6,188.7,181.9,188.6,182.2z M190.8,188.1c-0.1,0-0.2,0-0.3,0
				c-0.9,0-1.5-0.3-1.8-1c-0.1-0.3-0.2-0.7-0.2-1.1c0-0.8,0.4-1.4,1.1-1.9c0.3-0.2,0.8-0.4,1.3-0.5c1.6-0.3,2.3,0.2,2.3,1.7
				c0,0.4-0.3,1-1,1.7C191.7,187.6,191.2,188,190.8,188.1z M191.5,202.1c-0.1,0-0.2,0-0.3,0c-1.3,0-2.1-0.3-2.5-1
				c-0.2-0.4-0.3-0.8-0.2-1.1c0-1.4,1-2.6,3.2-3.7c0.1,0,0.1-0.1,0.2-0.1c1.3-0.6,2.2-0.6,2.6,0.1c0.2,0.3,0.3,0.8,0.3,1.5
				c0,0.4-0.1,0.7-0.3,1c-0.1,0.1-0.1,0.1-0.2,0.2c-0.3,0.4-0.5,0.8-0.5,1.2C193.8,201.4,193,202,191.5,202.1z M198.3,205.3
				c-0.1,0.1-0.2,0.3-0.3,0.5c-0.2,0.2-0.3,0.5-0.5,0.7l-1.8-0.5c-0.1-0.3-0.2-0.8-0.2-1.7c0-0.6,0.1-1.2,0.3-1.8
				c0.3-1.3,0.9-2.7,1.8-4.3c0.1-0.2,0.2-0.4,0.4-0.7c0.1-0.2,0.3-0.5,0.4-0.7c0,2.6,0,5.3,0,8.1
				C198.3,205.1,198.3,205.2,198.3,205.3z M190.5,220.8c0.3-0.2,0.7-0.3,1.2-0.4c-0.1-0.6-0.2-0.9-0.2-1c0-1.4,0.8-2.3,2.5-2.8
				c0,0,0.1-0.1,0.1-0.1c1.7-0.5,2.6,0.1,2.6,1.6c0,0,0,0.1,0,0.1c-0.1,0.6-0.9,1.4-2.3,2.5c0.2,0.3,0.3,0.8,0.3,1.4v0
				c0,0.9-0.7,1.7-2.2,2.3c0.2,0,0.4,0.1,0.6,0.2c0.6,0.2,1.2,0.4,1.6,0.6c1,0.5,1.5,1.1,1.5,1.9c0,0.8-0.3,1.3-1,1.6
				c-0.1,0-0.3,0.1-0.5,0.2c-0.4,0-0.8,0-1.3,0c-1.4,0-2.4-0.4-3-1.3v0c-0.3-0.5-0.5-1-0.5-1.6c0-0.5,0.1-0.9,0.3-1.1
				c-0.2-0.1-0.4-0.1-0.5-0.2c-0.6-0.3-0.8-0.8-0.8-1.5C189,222.2,189.5,221.4,190.5,220.8z M189.3,239.3c-0.5-0.3-0.9-0.8-1.1-1.5
				L188,236c0-0.2,0-0.5,0-0.7c0,0,0-0.1,0-0.1c0-0.8,0.2-1.3,0.4-1.6c0.3-0.4,0.7-0.5,1.3-0.2c0.3,0.1,0.5,0.3,0.8,0.5
				c0.7,0.7,1.3,1.9,1.8,3.5L192,239l0,0l-0.4,0.3c-0.3,0.2-0.6,0.3-1.1,0.3C190,239.5,189.7,239.4,189.3,239.3z M188.3,213.5
				c0.6,0.3,1,0.9,1,1.7c0,0.2-0.3,0.6-0.8,1c0,0-0.1,0.1-0.2,0.2C188.3,215.4,188.3,214.4,188.3,213.5z M191.4,250.5
				c0.2-0.2,0.5-0.3,0.8-0.5c0.9-0.5,1.6-0.7,2.2-0.7c0.9,0,1.4,0.6,1.4,1.9c0,0.6-0.4,1.2-1.2,1.8c-0.3,0.2-0.6,0.4-0.9,0.7
				c-1.3,0.9-2.3,1.3-3,1.3c-0.1,0-0.3,0-0.4,0c-1.2-0.1-1.8-0.7-1.8-1.7C188.5,252.5,189.5,251.6,191.4,250.5z M192.3,255.3
				c1,0.1,1.5,0.8,1.5,1.9c0,0.5-0.2,1-0.5,1.3c-0.2,0.2-0.5,0.3-0.8,0.5c-0.2,0-0.3,0-0.5,0c-1.3,0-2-0.6-2-1.7c0-1.3,0.6-2,1.9-2
				C192,255.3,192.2,255.3,192.3,255.3z M191.8,268c-0.1,0-0.1,0-0.1,0c-1,0-1.7-0.3-2-1c-0.1-0.7-0.2-1-0.2-1c0-1.3,0.9-2.3,2.8-3
				c0,0,0.1,0,0.1,0c0.6-0.2,1.1-0.3,1.5-0.3c0.9,0.1,1.3,0.7,1.3,2c0,1-0.6,1.8-1.7,2.5c0,0-0.1,0-0.1,0
				C192.8,267.7,192.2,267.9,191.8,268z M187.2,261.5c0.4,0.3,0.6,0.9,0.6,1.7c0,0.2-0.1,0.6-0.3,1c-0.1,0.1-0.2,0.3-0.3,0.5
				c-0.1,0.2-0.2,0.5-0.3,0.6C187.1,264,187.1,262.8,187.2,261.5z M186.5,280c0.1,0.2,0.2,0.4,0.2,0.7c0,0.2,0,0.3,0,0.5
				c0,0.3-0.1,0.7-0.3,1.1C186.4,281.5,186.5,280.8,186.5,280z M197.5,270.5c0.3-0.2,0.6-0.5,0.9-0.7c0.1,0,0.1-0.1,0.1-0.1
				c0,1.8-0.1,3.6-0.1,5.3c-0.5,0.3-1,0.4-1.5,0.4c-0.1,0-0.1,0-0.2,0c-0.8,0-1.3-0.4-1.6-1c-0.1-0.7-0.2-1-0.2-1
				c0-0.5,0.5-1.3,1.5-2.2C196.8,271,197.1,270.8,197.5,270.5z M197.3,291.4c-0.1,0.7-0.2,1.5-0.3,2.3c-0.1,0.7-0.1,1.4-0.2,2.1
				c-0.1-0.1-0.3-0.2-0.4-0.4c-0.1-0.1-0.2-0.3-0.3-0.4c-0.1-0.1-0.1-0.2-0.2-0.3c0,0,0,0,0,0c-0.3-0.6-0.5-1.1-0.5-1.5
				C195.5,291.8,196.1,291.2,197.3,291.4z M188.5,316c0.5-0.5,1.3-1,2.3-1.3c1.1-0.5,2-0.6,2.5-0.2c0.1,0.1,0.2,0.3,0.3,0.3
				c0.2,0.3,0.3,0.8,0.3,1.4c0,0.9-0.6,1.7-1.8,2.5c-0.5,0.3-1,0.5-1.4,0.7c-0.3,0.1-0.6,0.1-0.8,0.1c-0.3,0-0.6,0-0.9,0
				c-0.4-0.1-0.7-0.3-0.9-0.5c-0.1-0.1-0.2-0.2-0.3-0.3c-0.1-0.2-0.2-0.5-0.2-1C187.5,317.2,187.8,316.6,188.5,316z M194.8,289.1
				c0,0,0,0.1,0,0.2c0,0.5-0.4,1.2-1.3,2c-0.9,0.8-1.5,1.3-2,1.3c-1.3,0-2-0.6-2-1.8c0-0.1,0-0.3,0-0.4c0.1-1,0.9-1.9,2.4-2.5
				c0.1,0,0.1-0.1,0.2-0.1c0.3-0.1,0.6-0.2,0.8-0.3C194.1,287.3,194.7,287.8,194.8,289.1z M192.7,306c0.2-0.1,0.4-0.1,0.8-0.1
				c1.2-0.1,1.8,0.6,1.8,2.2c0,0.8-0.1,1.4-0.3,1.8c-0.3,0.5-0.8,0.7-1.5,0.7c-1.1,0-1.8-0.3-2-1c0-0.8,0-1.2,0-1.3
				c0-0.8,0.2-1.4,0.5-1.8C192.2,306.3,192.4,306.2,192.7,306z M188.5,321.3c0.5-0.4,0.9-0.6,1.3-0.5c0.6,0,1,0.5,1,1.4
				c0,0.2,0,0.3,0,0.5c0,0.6-1.1,3.2-3.3,7.8c-0.2,0.5-0.5,1-0.8,1.5c-0.2,0.5-0.5,1-0.8,1.5c-0.5,0-0.8-0.1-1.1-0.3
				c0-1.2,0-3.6,0.1-7.3c0.3-0.7,0.6-1.3,1-1.9c0.4-0.6,0.9-1.3,1.5-1.8C187.8,321.8,188.2,321.5,188.5,321.3z M190.7,327.9
				c-0.1-0.6-0.2-0.9-0.2-1c0-1,0.6-1.7,1.8-2.2c0.5-0.2,1.1-0.4,1.9-0.5c0.1,0,0.3,0,0.4,0c0,1.4,0,2.8,0.1,4c0,0.1,0,0.2,0,0.4
				c-0.7,0.2-1.3,0.4-1.8,0.4c-0.1,0-0.1,0-0.2,0c-1,0-1.7-0.3-2-1C190.7,328,190.7,327.9,190.7,327.9z"/>
			<path fill-rule="evenodd" clip-rule="evenodd" fill="#E8E8F4" d="M187.3,110.1c-0.4-0.2-0.9-0.3-1.5-0.3c-0.4,0-0.7,0-1,0.1
				c0-0.4-0.1-0.7-0.1-1.1c0.3-0.2,0.6-0.4,1-0.6c-0.2-0.5-0.3-1.1-0.5-1.7c-0.2,0.5-0.3,0.9-0.3,1.3c-0.1,0-0.2,0-0.4,0.1
				c-0.4-3.9-0.6-7.4-0.6-10.3v-0.1c0-0.4,0-0.8,0-1.2c0.7,0.2,1.4,0.7,2,1.3c0-0.5,0-1.1,0-1.9c0-3.2,0.4-4.8,1.3-4.9
				c0.1,0,0.2,0,0.3,0c0,0,0-0.1,0-0.1c0-0.1,0-0.1,0-0.2c0.5-0.1,1-0.3,1.5-0.4c0.5-0.2,0.9-0.4,1.2-0.6c0,0.1,0,0.1,0,0.2
				c0,0.1,0,0.1,0,0.2c0.5,0.3,0.9,0.8,1.2,1.5c-0.1,0.3-0.2,0.6-0.3,0.7c-0.1,0.3-0.5,0.5-1,0.5c-0.7,0-1.4-0.2-2-0.6
				c0.2,0.8,0.3,2.1,0.3,3.8c0,1.8-0.1,3.4-0.2,4.6c-0.3,0.1-0.5,0.2-0.8,0.3c0.1,0.4,0.2,0.7,0.3,1.1c0.2,3.9,0.3,6,0.3,6.3
				c0,0.7-0.1,1.3-0.2,1.8C187.6,109.9,187.4,110,187.3,110.1z M194,95.8l-0.3,0.1c-0.5-0.2-0.8-0.3-0.9-0.4
				c-0.2-0.2-0.3-0.6-0.3-1.1c0-0.6,0.2-1,0.6-1.1c0-0.1,0-0.2,0-0.3c-0.1-0.3-0.1-1.1-0.1-2.2c0-0.2,0-0.5,0-0.6
				C193.4,91.7,193.7,93.6,194,95.8z M197.2,241.8c0.3-0.3,0.7-0.5,1.4-0.5c0,1.3,0,2.7,0,4h0c-0.1,0.2-0.1,0.4-0.2,0.6
				c-0.5,1.8-0.9,3.3-1.1,4.5c-0.4,0.2-0.7,0.3-1,0.4c-0.4-0.4-0.8-0.9-1-1.5c-0.2-0.4-0.3-0.7-0.3-1c0-0.9,0.3-2.1,0.8-3.6
				c0.4-1,0.8-1.7,1.2-2.3C197,242.1,197.1,241.9,197.2,241.8z M187.2,261.5c0-0.8,0.1-1.6,0.1-2.4c1.1,0.1,2,0.5,2.8,1.4
				c0-0.5,0-1.1,0-1.8c0-1.7,0.1-2.9,0.3-3.7c0.1,0,0.3,0,0.4,0c0.7,0,1.7-0.4,3-1.3c0.3-0.2,0.6-0.5,0.9-0.7
				c0.3,0.3,0.6,0.7,0.9,1.3c-0.1,0.3-0.2,0.6-0.3,0.7c-0.1,0.3-0.5,0.5-1,0.5c-0.7,0-1.4-0.2-2-0.6c0,0.1,0.1,0.3,0.1,0.4
				c-0.1,0-0.2,0-0.3,0c-1.3,0-1.9,0.7-1.9,2c0,1.1,0.7,1.7,2,1.7c0.2,0,0.3,0,0.5,0c0,1.6,0,3-0.2,4c-1.9,0.7-2.8,1.7-2.8,3
				c0,0,0.1,0.4,0.2,1c0.3,0.7,1,1,2,1c0,0,0.1,0,0.1,0c0.1,1.8,0.1,2.8,0.1,3c0,0.7-0.1,1.3-0.2,1.8c-0.3,0.2-0.7,0.4-1,0.5
				c-0.1,0.4-0.2,0.9-0.3,1.5c-0.4,1.5-0.6,2.7-0.7,3.4c-0.1,0.1-0.3,0.1-0.3,0.1c-0.1,0.6-0.5,1.4-1,2.4l-0.8,0.3
				c-0.4-0.1-0.7-0.3-0.9-0.5h-0.1c0,0.1,0,0.2,0,0.3c0-0.3-0.1-0.5-0.2-0.7c0-0.9,0-1.7,0.1-2.6c0-0.1,0-0.1,0.1-0.2
				c0.2-0.3,0.4-0.5,0.8-0.5c0-0.3,0-0.7,0-1.2c0-1.5,0.1-2.4,0.2-2.8c0.3-0.5,1-1,2.1-1.6c-0.2-0.5-0.3-1.1-0.5-1.7
				c-0.2,0.5-0.3,0.9-0.3,1.3c-0.1,0-0.3,0.1-0.5,0.3c-0.3,0.2-0.6,0.3-0.8,0.4c-0.4-0.2-0.7-0.5-0.9-0.8c0-1.8,0.1-3.5,0.2-5.2
				c0.3,0,0.6,0.1,0.8,0.1c-0.1-0.4-0.3-0.8-0.3-1.2c0.2-0.5,0.3-0.8,0.3-1C187.8,262.4,187.5,261.9,187.2,261.5z M187.5,253.5
				c0,0.2,0,0.4,0,0.7c0-0.4,0-0.7,0-1.1C187.5,253.2,187.5,253.3,187.5,253.5z M188.5,286.3c0,0.4-0.2,0.9-0.5,1.4
				c-0.3,0.5-0.5,1-0.5,1.3c0,1,0.3,2.4,1,4.4c0.2,0.6,0.4,1.1,0.5,1.5c0-1.4,0.4-2,1.3-2c0.8,0,1.3,0.7,1.3,2
				c0,0.7-0.1,1.3-0.2,1.8c-0.4,0.2-0.7,0.4-1,0.5c-0.3-0.3-0.6-0.6-0.8-1l0,0.2c0,0.5,0,0.8-0.1,0.9h-0.1l-0.2,0.2
				c-0.1,0.1-0.3,0.1-0.6,0.2v4c0.3,1.7,0.5,3.3,0.5,4.8c0,0.5,0,0.8-0.1,0.9h-0.1l-0.2,0.2c0,0-0.1,0.1-0.1,0.2
				c0.4,0.3,0.6,0.7,0.8,1.2c0.2,1.1,0.5,1.9,0.7,2.5l-0.3,0.3c-0.2,0.2-0.5,0.3-1,0.3c-0.9,0-1.5-0.5-2-1.4
				c-0.1-0.5-0.2-0.9-0.3-1.4c-0.1,0-0.2,0-0.3,0c-0.3,0-0.5,0-0.7,0c0-1.5,0.1-3,0.2-4.6c0.2,0,0.4,0,0.6,0
				c-0.1-0.5-0.2-1.1-0.3-1.8c-0.1-0.5-0.1-0.9-0.2-1.4c0.1-3,0.2-6.3,0.3-9.8c0.1-1.8,0.1-3.6,0.2-5.4c0-0.2,0-0.3,0-0.5
				c0.2-0.2,0.5-0.3,0.9-0.5c0.2,0.1,0.5,0.2,0.8,0.2C188.3,285.5,188.5,285.8,188.5,286.3z"/>
		</g>
	</g>
	<g>
		<path fill-rule="evenodd" clip-rule="evenodd" fill="#FFFFFF" d="M177,86.5c0,0.5-0.2,0.9-0.5,1.3c-0.4,0.4-1,0.6-1.8,0.6
			c-1.2,0-1.9-0.3-2.3-1c-0.2-0.4-0.2-0.8-0.2-1.1c0-1.5,0.8-2.2,2.4-1.9C176.3,84.6,177,85.3,177,86.5z M180.3,86.1
			c0-1,0.4-1.6,1.2-1.9l0,0.4c0.3,0.2,0.7,0.5,1.3,0.7c0.7,0.3,1.3,0.4,1.9,0.4c0.5,0,0.9-0.1,1-0.5c0.1-0.2,0.2-0.5,0.2-0.8
			c-0.7-0.8-1.5-1.2-2.4-1.3c0,0-0.1,0-0.1,0c0.3-0.9,1.2-1.1,2.5-0.7c1.7,0.5,2.6,1.4,2.6,2.5c0,0.4-0.1,0.7-0.3,1.1
			c-0.3,0.5-0.8,0.8-1.5,0.8c-0.9,0-1.6-0.2-2.2-0.5c-0.1,0.4-0.2,0.7-0.5,0.9c1-0.1,1.5,0.6,1.5,2c0,0.5-0.2,1-0.5,1.5
			c-0.4,0.8-1,1.1-1.8,1.1c-0.9,0-1.5-0.3-1.8-0.8c-0.1-0.2-0.2-0.5-0.2-1c0-1,0.4-1.8,1-2.3c-1,0-1.6-0.3-1.9-0.8
			C180.3,86.9,180.3,86.6,180.3,86.1z M189.3,92.3c-0.1-0.4-0.1-0.8,0-1.3c0-1.5,0.6-2.3,1.9-2.3c1.2-0.1,1.8,0.6,1.8,2.3
			c0,1.6-0.6,2.4-1.8,2.4C190.2,93.4,189.5,93,189.3,92.3z"/>
	</g>
</g>
</svg>
