<?xml version="1.0" encoding="utf-8"?>
<!-- Generator: Adobe Illustrator 16.0.0, SVG Export Plug-In . SVG Version: 6.00 Build 0)  -->
<!DOCTYPE svg PUBLIC "-//W3C//DTD SVG 1.1//EN" "http://www.w3.org/Graphics/SVG/1.1/DTD/svg11.dtd">
<svg version="1.1" id="Layer_1" xmlns="http://www.w3.org/2000/svg" xmlns:xlink="http://www.w3.org/1999/xlink" x="0px" y="0px"
	 width="210px" height="350px" viewBox="0 0 210 350" enable-background="new 0 0 210 350" xml:space="preserve">
<g>
	<g>
		<g>
			<linearGradient id="SVGID_1_" gradientUnits="userSpaceOnUse" x1="5.3311" y1="0.998" x2="155.0875" y2="113.3478">
				<stop  offset="0" style="stop-color:#C4CDD2"/>
				<stop  offset="0.2824" style="stop-color:#E4F1F9"/>
				<stop  offset="0.4235" style="stop-color:#A2A29A"/>
				<stop  offset="0.6" style="stop-color:#A5A79C"/>
				<stop  offset="0.7529" style="stop-color:#EBF1EF"/>
				<stop  offset="1" style="stop-color:#CBCFCE"/>
			</linearGradient>
			<polygon fill-rule="evenodd" clip-rule="evenodd" fill="url(#SVGID_1_)" points="161.3,74.8 4,74.8 24.5,58.1 181.2,58.1 
				181.2,58.3 			"/>
			<linearGradient id="SVGID_2_" gradientUnits="userSpaceOnUse" x1="263.3721" y1="-50.0957" x2="170.1411" y2="69.1029">
				<stop  offset="0" style="stop-color:#C4CDD2"/>
				<stop  offset="0.2824" style="stop-color:#E4F1F9"/>
				<stop  offset="0.4235" style="stop-color:#A2A29A"/>
				<stop  offset="0.6" style="stop-color:#A5A79C"/>
				<stop  offset="0.7529" style="stop-color:#EBF1EF"/>
				<stop  offset="1" style="stop-color:#A0A2A3"/>
			</linearGradient>
			<polygon fill-rule="evenodd" clip-rule="evenodd" fill="url(#SVGID_2_)" points="161.3,77.3 161.3,75 161.3,74.8 181.2,58.3 
				181.1,60.8 			"/>
			<linearGradient id="SVGID_3_" gradientUnits="userSpaceOnUse" x1="3.3252" y1="76.0249" x2="161.2752" y2="76.0249">
				<stop  offset="0" style="stop-color:#C4CDD2"/>
				<stop  offset="0.2824" style="stop-color:#E4F1F9"/>
				<stop  offset="0.4235" style="stop-color:#A2A29A"/>
				<stop  offset="0.6" style="stop-color:#A5A79C"/>
				<stop  offset="0.7529" style="stop-color:#EBF1EF"/>
				<stop  offset="1" style="stop-color:#CBCFCE"/>
			</linearGradient>
			<polygon fill-rule="evenodd" clip-rule="evenodd" fill="url(#SVGID_3_)" points="161.3,77.3 4.1,77.3 4,74.8 161.3,74.8 
				161.3,75 			"/>
		</g>
		<g>
			<polygon fill-rule="evenodd" clip-rule="evenodd" fill="#FFFFFF" fill-opacity="0.502" points="181,58.4 181,58.9 161.2,75.3 
				161.2,75.3 3.9,75.3 3.9,74.8 161.2,74.8 161.2,74.8 			"/>
		</g>
	</g>
	<g>
		<g>
			<path fill-rule="evenodd" clip-rule="evenodd" fill="#CBCDDA" d="M118.8,72c0-0.1,0-0.2,0-0.3c0-0.3,0.1-0.7,0.2-1.1
				c0-0.1,0-0.2,0-0.3c0-0.2,0-0.3,0-0.5c0-0.4,0.1-0.8,0.1-1.2c0-0.1,0-0.3,0-0.4c0-0.4,0.1-0.8,0.1-1.2c0-0.2,0.1-0.3,0.1-0.5
				c0-0.1,0-0.3,0-0.4c0-0.1,0-0.3,0-0.4c2.7,0.4,3.6,0,2.7-1.3c0.1,0,0.1,0,0.1,0c0.2,0,0.4,0,0.6,0c0.1,0,0.3-0.1,0.4-0.1
				c0.1,0,0.2,0,0.3,0c0,0.1,0,0.2,0,0.3c0.1,2.3,0.8,2.6,2.3,1.1c0.9,0.2,2.3,0.2,4-0.2c4.8-1,6.3-2.8,4.5-5.3
				c0.3-0.4,0.7-0.7,1-1.1c0.2-0.3,0.4-0.7,0.6-1.1c0.1-0.1,0.1-0.3,0.2-0.4c0.1-0.4,0.3-0.8,0.4-1.2c0-0.2,0.1-0.5,0.1-0.8
				c0-0.1,0-0.3,0-0.5c0-0.1,0-0.3,0-0.4s0-0.3,0-0.4c0-0.1,0-0.2,0-0.3c0-0.2-0.1-0.3-0.1-0.5c-0.1-0.3-0.2-0.5-0.3-0.7
				c-0.2-0.3-0.4-0.6-0.5-0.8c-0.1-0.2-0.3-0.3-0.4-0.4c0,0-0.1-0.1-0.1-0.1c-0.4-0.4-1-0.7-1.6-0.9c-0.2-0.1-0.3-0.1-0.5-0.2
				c-0.3-0.1-0.6-0.2-0.9-0.3c-0.5-0.1-1.1-0.2-1.8-0.3c-0.4-0.1-0.8-0.1-1.2-0.2c-0.3,0-0.7-0.1-1-0.1h-0.1c-0.3-0.5-0.8-1-1.5-1.7
				c-0.9,0.1-1.5,0.5-1.8,1.3c-0.6-0.1-1.2-0.1-1.8-0.1c-0.3-0.1-0.7-0.1-1-0.2c0,0-0.1,0-0.1,0c2.4-2,1.4-3.7-3.1-5.3
				c-1.8,0.7-2.6,2-2.2,3.8c0,0-0.1-0.1-0.2-0.1c-0.6-0.4-1.1-0.8-1.5-1.3c-0.2-0.2-0.3-0.4-0.4-0.7c0-0.1-0.1-0.1-0.1-0.1
				c-0.1-0.2-0.2-0.4-0.2-0.6c-0.1-0.1-0.1-0.3-0.1-0.4c-0.1-0.3-0.2-0.7-0.2-1.1c0,0,0-0.1,0-0.1c0-0.2,0-0.3,0.1-0.4
				c0.1-0.3,0.2-0.5,0.3-0.8c0.1-0.2,0.3-0.4,0.5-0.5c0.1-0.1,0.3-0.3,0.5-0.4c0.2-0.1,0.5-0.3,0.8-0.4c0,0,0,0,0,0
				c0.1,0,0.3-0.1,0.6-0.2c0.2-0.1,0.4-0.1,0.8-0.2c0.3-0.1,0.6-0.1,0.9-0.2c0.1,0,0.2-0.1,0.4-0.1c0.1,0,0.3-0.1,0.5-0.1
				c0.5-0.1,1.1-0.3,1.8-0.4c0.3-0.1,0.5-0.1,0.8-0.1c0.1,0,0.2-0.1,0.3-0.1c0.3-0.1,0.6-0.2,1-0.3c0.1,0,0.1-0.1,0.2-0.1
				c0.1,0.1,0.3,0.1,0.4,0.1c4.4,0.1,5.5-0.7,3.5-2.6c0,0,0-0.1,0.1-0.1c0.1-0.2,0.3-0.4,0.3-0.6c0.1-0.1,0.2-0.3,0.3-0.4
				c0-0.1,0.1-0.2,0.1-0.3c0-0.1,0-0.1,0.1-0.2c0.1-0.3,0.2-0.6,0.2-1c0-0.2,0-0.3,0-0.5c0-0.1,0-0.2,0-0.3c0-0.2,0-0.5,0-0.7
				c-0.1-0.4-0.1-0.8-0.3-1.1c-0.1-0.3-0.2-0.5-0.3-0.8c-0.1-0.1-0.1-0.3-0.2-0.4h0.4l4.4,3.6c0.1,0,0.3,0,0.4,0c0,0,0.1,0,0.2,0
				c0,0,0.1,0,0.1,0.1c0.8,0.2,1.5,0.5,2.2,0.9c0.5,0.3,1,0.6,1.5,0.9c0,0.1,0,0.3,0,0.4s0.1,0.2,0.2,0.3c0.1,0.3,0.2,0.5,0.4,0.8
				c0.2,0.3,0.5,0.7,0.8,1.1c0.4,0.5,0.8,1,1.2,1.5c0.1,0,0.2,0,0.2,0.1c1.2,0.4,2.2,1,3,1.6c0.3,0.3,0.7,0.7,1,1.1l0.1,0.1
				c0.3,0.4,0.5,0.8,0.8,1.3c0.2,0.3,0.3,0.7,0.5,1.1c0,0.1,0,0.2,0,0.3l0.3,0.1h0.1l4.3,2.6l0.2,0.1l0.3,0.4l0.3,0.6l0.5,0.7
				l0.4,0.8l0.1,0.1c0,0.2,0.1,0.4,0.3,0.4l0.3,0.4l0.2,0.2l3,0.8c0.1,0,0.3,0,0.5,0c0.1,0,0.2,0,0.3,0s0.3,0,0.4,0
				c0.2,0.1,0.5,0.3,0.7,0.5c0.1,0.1,0.2,0.3,0.4,0.5c0.1,0.1,0.1,0.2,0.1,0.3c0.1,0.1,0.2,0.2,0.3,0.3l0.1,0.1h0.5l2.5,0.3l1.1,1.5
				l0.1,0.3c0.3,0.1,0.4,0.3,0.4,0.6h0.1l0.1,0l1.2,0.1h0.1l1.5,0.3h0v0.1l0.2,0.9v0.4l0.2,0.7l0.1,0.8v0.1l-0.1,0.8l-0.2,0.7v0.6
				l-0.2,0.8v0.2c-0.1,0-0.2,0.1-0.3,0.1c-0.2,0.1-0.3,0.3-0.5,0.4c-0.5,0.3-1,0.6-1.4,0.9c-0.1,0-0.2,0-0.3,0.1
				c-0.2,0.1-0.3,0.2-0.5,0.3c-0.1,0-0.2,0.1-0.4,0.3c-0.2,0.1-0.3,0.2-0.4,0.2c-0.1,0.1-0.2,0.1-0.3,0.2c-0.3,0.2-0.7,0.4-1,0.6
				c-0.3,0.1-0.5,0.3-0.8,0.5c-0.3,0.1-0.6,0.2-0.9,0.4h0v0.1c-0.1,0-0.2,0.1-0.4,0.1c-0.3,0.1-0.5,0.2-0.7,0.4
				c-0.6,0.2-1.1,0.4-1.6,0.6h-0.1c-0.3,0.1-0.5,0.3-0.8,0.4c0,0-0.1,0.1-0.2,0.1c-0.4,0.2-0.7,0.3-1,0.4c-0.4,0.2-0.8,0.3-1.2,0.4
				h-0.2v0.1c-0.5,0.2-1,0.4-1.5,0.5c-0.4,0-0.7,0.1-1,0.1c-0.3,0.1-0.5,0.1-0.8,0.1c-0.2,0.1-0.5,0.1-0.7,0.1c-0.2,0-0.3,0-0.5,0.1
				c-0.3,0-0.5,0-0.8,0c-0.5,0.1-1.1,0.1-1.6,0.1c-0.2,0-0.4,0.1-0.6,0.1c-0.2,0-0.4,0-0.6,0c-0.2,0-0.4,0.1-0.5,0.1
				c-0.4,0-0.7,0-1.1,0c-0.1,0-0.3,0.1-0.5,0.1c-0.3,0-0.6,0-1,0.1c-0.3,0-0.5,0-0.8,0.1c-0.7,0.1-1.3,0.2-2,0.2
				c-0.5,0-0.9,0-1.3,0.1c-0.2,0-0.4,0-0.6,0.1c-0.2,0-0.5,0-0.6,0c-0.1,0-0.2,0-0.4,0c-0.1,0-0.3,0-0.5,0c-0.3,0-0.6,0-1,0
				c-0.3,0-0.5,0-0.8,0c-0.4,0-0.9,0-1.3,0c-0.1,0-0.3,0-0.5,0c-0.8,0-1.5,0-2.2,0c-0.2,0-0.4,0-0.6,0s-0.5,0-0.7,0.1
				c-0.5,0-0.9,0-1.3,0c-0.2,0-0.4,0-0.5,0c-0.3,0-0.6,0-0.9,0v-0.1c-0.1,0-0.3,0-0.5,0v0.1c-0.3,0-0.5,0-0.8,0c-0.4,0-0.7,0-1,0
				c-0.4,0-0.9,0.1-1.3,0.1C120.9,72,119.9,72,118.8,72z M141.1,59.8c-1.5-0.1-2.6,0.5-3.3,1.8c-0.6,1.1-0.3,1.7,1,1.8
				C143.5,63.7,144.3,62.5,141.1,59.8z M144.8,57.9c1.1-0.1,1.7-0.5,1.9-1.4c0.8-3.3-1.3-4.6-6.2-3.9c-1.5,0.2-1.9,1-1.4,2.3
				C140,56.9,141.8,58,144.8,57.9z M155.5,59.9c-0.2,1.1,0.2,1.6,1.2,1.5c4.2-0.2,4.5-1.4,0.9-3.4C156.5,58.1,155.8,58.8,155.5,59.9
				z"/>
			<path fill-rule="evenodd" clip-rule="evenodd" fill="#DDDDE7" d="M106,40.8c-0.1,0-0.1-0.1-0.1-0.1h-0.1
				C105.9,40.8,105.9,40.8,106,40.8L106,40.8c0,0,0.1,0,0.2,0c0.2,0,0.4,0,0.6,0.1c0.2,0,0.4-0.1,0.6-0.1c0,0,0.1,0,0.1,0
				c0,0,0.1,0,0.2,0c0.2,0,0.4-0.1,0.6-0.1c0.1-1.3,0.9-2.1,2.3-2.4c0.6,0.4,1.1,0.9,1.5,1.3c0,0,0,0,0,0c0.2-0.1,0.5-0.2,0.8-0.3
				c-0.1-0.2,0-0.6,0.2-1c0.8-1.7,2-3,3.6-3.7c0.2,0.2,0.4,0.4,0.6,0.6c0-0.2,0.1-0.3,0.1-0.5c0-0.1,0-0.2,0-0.3c0-0.2,0-0.3,0-0.4
				c0-0.1,0-0.1,0-0.2c0-0.3,0-0.7-0.1-1c0-0.1-0.1-0.3-0.1-0.4c-0.1-0.2-0.1-0.3-0.3-0.4c-0.1-0.3-0.2-0.5-0.4-0.8
				c-0.2-0.3-0.4-0.5-0.6-0.8c-0.1-0.2-0.3-0.3-0.4-0.4c-0.3-0.3-0.6-0.6-0.9-1c-0.1-0.1-0.1-0.2-0.3-0.3c-0.1,0-0.1-0.1-0.1-0.1
				c-0.3-0.3-0.7-0.6-1.1-0.9c-0.1-0.1-0.2-0.2-0.3-0.3c-0.3-0.2-0.5-0.4-0.8-0.6c-0.1-0.1-0.3-0.2-0.4-0.3
				c-0.1-0.1-0.2-0.1-0.3-0.2h0.1c0.1,0,0.1,0,0.2-0.1c0.4,0,0.9-0.1,1.3-0.1c0,0,0,0,0.1,0c0.1-0.1,0.3-0.2,0.3-0.2V26
				c0.2-0.1,0.4-0.2,0.6-0.2c0.1-0.1,0.3-0.1,0.6-0.1l0.4,0.2L115,26l0.5,0.1l3.2,1.6h3.1l4.3,2.3l0.1,0.1h1.4
				c0,0.1,0.1,0.2,0.2,0.4c0.1,0.3,0.2,0.5,0.3,0.8c0.1,0.4,0.2,0.8,0.3,1.1c0,0.2,0,0.5,0,0.7c0,0.1,0,0.2,0,0.3c0,0.2,0,0.3,0,0.5
				c0,0.4-0.1,0.7-0.2,1c0,0.1-0.1,0.1-0.1,0.2c0,0.1-0.1,0.1-0.1,0.3c0,0.2-0.1,0.4-0.3,0.4c-0.1,0.2-0.2,0.4-0.3,0.6
				c0,0-0.1,0-0.1,0.1c2,1.9,0.9,2.7-3.5,2.6c-0.2,0-0.3,0-0.4-0.1c-0.1,0-0.1,0.1-0.2,0.1c-0.3,0.1-0.7,0.2-1,0.3
				c-0.1,0-0.2,0.1-0.3,0.1c-0.2,0-0.5,0.1-0.8,0.1c-0.7,0.1-1.3,0.3-1.8,0.4c-0.2,0-0.3,0.1-0.5,0.1c-0.2,0-0.3,0.1-0.4,0.1
				c-0.3,0.1-0.6,0.1-0.9,0.2c-0.3,0.1-0.6,0.1-0.8,0.2c-0.3,0.1-0.5,0.1-0.6,0.2c0,0,0,0,0,0c-0.3,0.1-0.6,0.2-0.8,0.4
				c-0.2,0.1-0.4,0.2-0.5,0.4c-0.2,0.1-0.4,0.3-0.5,0.5c-0.2,0.2-0.3,0.5-0.3,0.8c0,0.1-0.1,0.3-0.1,0.4c0,0,0,0.1,0,0.1
				c0,0.4,0.1,0.8,0.2,1.1c0,0.1,0,0.3,0.1,0.4c0,0.2,0.1,0.4,0.2,0.6c0,0,0.1,0.1,0.1,0.1c0.1,0.2,0.2,0.5,0.4,0.7
				c0.4,0.5,0.9,0.9,1.5,1.3c0.1,0,0.1,0.1,0.2,0.1c-0.4-1.8,0.4-3.1,2.2-3.8c4.5,1.5,5.5,3.3,3.1,5.3c0,0,0.1,0,0.1,0
				c0.3,0,0.6,0.1,1,0.2c0.6,0,1.2,0.1,1.8,0.1c0.4-0.8,1-1.2,1.8-1.3c0.7,0.6,1.2,1.2,1.5,1.7h0.1c0.3,0,0.7,0.1,1,0.1
				c0.4,0.1,0.8,0.1,1.2,0.2c0.7,0.1,1.3,0.2,1.8,0.3c0.4,0.1,0.7,0.2,0.9,0.3c0.2,0.1,0.3,0.1,0.5,0.2c0.6,0.2,1.1,0.5,1.6,0.9
				c0,0,0.1,0.1,0.1,0.1c0.1,0.1,0.3,0.2,0.4,0.4c0.2,0.2,0.4,0.5,0.5,0.8c0.1,0.2,0.2,0.4,0.3,0.7c0,0.2,0.1,0.3,0.1,0.5
				c0,0.1,0,0.2,0,0.3c0,0.1,0,0.3,0,0.4s0,0.3,0,0.4c0,0.2,0,0.3,0,0.5c-0.1,0.3-0.1,0.5-0.1,0.8c-0.1,0.4-0.2,0.8-0.4,1.2
				c-0.1,0.1-0.1,0.3-0.2,0.4c-0.2,0.4-0.4,0.7-0.6,1.1c-0.3,0.4-0.6,0.7-1,1.1c1.8,2.5,0.3,4.3-4.5,5.3c-1.7,0.4-3.1,0.4-4,0.2
				c-1.4,1.5-2.2,1.2-2.3-1.1c0-0.1,0-0.2,0-0.3c-0.1,0-0.2,0-0.3,0c-0.2,0-0.3,0.1-0.4,0.1c-0.2,0-0.4,0-0.6,0c0,0-0.1,0-0.1,0
				c1,1.2,0.1,1.6-2.7,1.3c-0.2,0-0.5-0.1-0.7-0.1c-0.5-0.1-0.7-0.4-0.6-1c-0.3,0-0.7,0-1,0c-0.2,0-0.4,0-0.5,0c-0.1,0-0.3,0-0.5,0
				c-0.6,0-1.2,0-1.9,0.1c-0.4,0-0.8,0-1.2,0c-0.1,0-0.2,0-0.3,0c-0.4,0-0.9,0-1.3,0c-0.1,0-0.1,0-0.2,0c-0.4,0-0.9,0-1.3,0.1
				c-0.6,0-1.3,0-2,0c0.5,1.1-0.7,1.3-3.5,0.5c-0.3-0.1-0.5-0.2-0.5-0.5c-0.4,0-0.9,0-1.3,0h-0.1c0,0.6-1.2,1-3.7,1.1
				c-0.9,0-1.3-0.4-1.2-1.1c-0.2,0-0.4,0-0.5,0c-0.3,0-0.5,0-0.8,0c-0.3,0-0.6,0-0.8,0c-0.4,0-0.7,0-1.1,0c-0.1,0-0.2,0-0.4,0
				c-0.1,0-0.2,0-0.3,0c0.4,0.9-0.9,1.2-3.6,0.7C90.2,65.6,90,65.4,90,65c-0.5,0-0.9,0-1.3,0c-0.4,0-0.9,0-1.3-0.1
				c-0.2,0-0.3,0-0.5,0c-0.1,0.1-0.3,0.3-0.4,0.5c-0.4,0.4-0.9,0.5-1.7,0.4c-3.9-0.5-5.4-1.5-4.4-3c-0.2-0.2-0.4-0.4-0.6-0.6
				c-0.3-0.3-0.5-0.6-0.8-1c-0.1-0.2-0.3-0.4-0.4-0.6c0-0.1-0.1-0.2-0.1-0.3c-0.2-0.4-0.3-0.8-0.4-1.3c0,0,0-0.1,0-0.1
				c-0.1-0.5-0.2-1-0.2-1.5c0-0.2,0-0.3,0-0.5c0-0.1,0-0.2,0-0.3c0,0,0-0.1,0-0.1c0-0.3,0.1-0.6,0.1-0.9c0-0.2,0.1-0.5,0.1-0.6
				c0-0.1,0-0.1,0-0.2c0-0.5,0.1-1,0.2-1.4c0-0.3,0-0.5,0-0.8c0-0.3,0-0.6,0-0.9v-1.9h0.1c0,0,0.1,0,0.1,0c0.3,0,0.5,0.1,0.8,0.2
				c0.5,0.2,0.9,0.4,1.3,0.7c0.1,0.1,0.4,0.4,0.9,1c0.2,0.2,0.5,0.5,0.8,0.8c0.7,0.7,1.1,1.2,1.4,1.7c0.1,0.1,0.2,0.1,0.3,0.2
				c0.2,0,0.4,0.1,0.5,0.4c0.2,0.1,0.4,0.3,0.6,0.5c0.3,0.1,0.6,0.3,0.9,0.4c0.3-0.3,0.8-0.5,1.4-0.6c0.6,0.6,1.1,1.1,1.4,1.5
				c0.1,0,0.2,0.1,0.3,0.1c0.7,0.2,1.5,0.3,2.4,0.4c0.4,0,0.8,0.1,1.3,0.1c0.9,0.1,1.9,0.1,2.9,0.1h0c0.4,0,0.7,0,1.1,0
				c0.5-1.1,1.4-1.7,2.8-1.7c0.8,0.6,1.4,1.1,1.8,1.5c0.1,0,0.1,0,0.3,0c0.1,0,0.3,0,0.4,0c0.3,0,0.5-0.1,0.8-0.1
				c0.3,0,0.5-0.1,0.8-0.1c0.7-0.1,1.3-0.2,1.9-0.3c0-0.1,0.1-0.3,0.1-0.4c0.6-1.2,1.7-1.8,3-1.8c0.3,0.2,0.5,0.4,0.8,0.7
				c0.3-0.2,0.5-0.5,0.8-0.7c0.1-0.2,0.3-0.4,0.4-0.6c-0.2,0-0.3,0.1-0.5,0.1c-0.6,0.1-1-0.1-1.3-0.9c-0.7-1.7-0.5-2.9,0.5-3.8
				c-0.1-0.1-0.3-0.2-0.4-0.3c-0.1-0.1-0.1-0.1-0.2-0.1c-0.4,0.1-0.8,0.1-1.3,0.1c-1.4,0.1-2.1-0.5-2.3-1.8c0-0.2,0-0.4,0-0.6
				c-0.7-0.3-1.4-0.7-2.1-1c-0.1-0.1-0.3-0.1-0.4-0.1c-1.6,0.9-2.8,0.7-3.8-0.7c-0.3-0.4-0.4-0.8-0.5-1c-0.1,0-0.1-0.1-0.1-0.1
				c-0.3-0.2-0.6-0.3-0.9-0.4c-0.5-0.2-0.9-0.4-1.2-0.6c-0.2-0.1-0.4-0.2-0.5-0.3c-0.1-0.1-0.3-0.1-0.4-0.2C94.8,42,94.7,42,94.6,42
				c-0.2-0.1-0.3-0.2-0.5-0.3c-0.1-0.1-0.2-0.1-0.3-0.2c-0.3-0.2-0.5-0.3-0.8-0.5c-0.3-0.2-0.6-0.4-0.8-0.6
				c-0.1-0.1-0.1-0.1-0.2-0.1v-0.1c-0.3-0.3-0.5-0.5-0.6-0.8c0-0.1,0-0.1-0.1-0.2c-0.1-0.2-0.2-0.3-0.2-0.5
				c-0.1-0.1-0.1-0.3-0.1-0.4c0-0.1,0-0.3,0-0.4c0-0.4,0.1-0.8,0.2-1.1c0-0.1,0-0.1,0.1-0.2c0.2-0.5,0.6-0.9,1.1-1.2
				c0.2-0.1,0.3-0.1,0.5-0.3c0,0,0.1-0.1,0.1-0.1c0.3-0.2,0.5-0.5,0.6-0.8c0.1-0.2,0.1-0.3,0.1-0.5c0-0.1-0.1-0.2-0.3-0.4
				c-0.2-0.2-0.5-0.4-0.9-0.7c-0.1-0.1-0.3-0.2-0.4-0.3c-0.2-0.1-0.3-0.2-0.4-0.3c-0.2-0.1-0.4-0.3-0.6-0.4
				c-0.2-0.1-0.3-0.2-0.5-0.3c-0.3-0.2-0.5-0.4-0.6-0.6l1.9-0.8c0.1,0,0.1,0,0.3,0c0.2,0,0.4,0,0.5,0c0.1,0,0.2,0,0.3,0
				c0.6,0,1.1,0,1.8,0c0.3,0,0.5,0,0.9,0c0.5,0,1-0.1,1.4-0.3c0.2-0.1,0.4-0.1,0.5-0.2c0.4-0.3,0.8-0.5,1.1-0.8
				c0.1,0,0.2-0.1,0.3-0.2c0.1-0.1,0.3-0.2,0.4-0.2c-0.1,0.1-0.1,0.1-0.2,0.2c0,0-0.1,0.1-0.1,0.1c-0.1,0.1-0.3,0.3-0.4,0.5
				c0.1,0.4-0.1,0.6-0.5,0.6l0,0c0,0-0.1,0.1-0.1,0.1c-0.2,0.2-0.3,0.4-0.4,0.6c-0.3,0.4-0.6,0.8-0.8,1.2c-0.2,0.3-0.3,0.6-0.5,0.9
				c-0.1,0.3-0.2,0.5-0.2,0.7c-0.1,0.2-0.1,0.4-0.1,0.6v0c0,0.2,0,0.4,0,0.6c0,0.3,0,0.6,0.1,0.9s0.2,0.6,0.3,0.9
				c0,0.1,0.1,0.3,0.2,0.5c0.1,0.2,0.2,0.4,0.4,0.6c0,0,0.1,0.1,0.1,0.1c0.1,0.1,0.2,0.2,0.3,0.3c0.2,0.2,0.4,0.3,0.5,0.5
				c0.1,0.1,0.2,0.2,0.3,0.3c0.3,0.2,0.7,0.5,1,0.6c0.2,0.1,0.4,0.2,0.6,0.3c0.1,0.1,0.3,0.1,0.5,0.2c-0.5-1.1,0.1-1.9,1.9-2.5
				c4.1,0.7,5.3,1.7,3.5,3.2c0.1,0,0.3,0,0.5,0C106.4,40.5,106.2,40.6,106,40.8z M85.9,40c3,2.4,2.9,3.4-0.4,3.1
				c2.3,2,2.1,3.9-0.6,5.6c-0.6,0.4-1.2,0.2-1.8-0.6c-1.8-2.6-1.6-4.5,0.6-5.9c0-0.2,0-0.4,0.1-0.6C84.2,40.6,84.9,40.1,85.9,40z
				 M106.8,34.6c-4.9-1.2-5.5-3.1-1.7-5.6c5.2,0.2,6.5,1.8,4.1,4.8C108.6,34.6,107.8,34.8,106.8,34.6z M106.5,61.5
				c4.9-0.6,5.4-1.9,1.3-3.9c-1.5,0-2.5,0.6-2.9,2C104.4,61,104.9,61.6,106.5,61.5z M120.7,56.8c-0.3,0.7-0.2,1.1,0.3,1.3
				c4.1,1.1,4.7,0.2,1.6-2.7C121.7,55.4,121,55.9,120.7,56.8z M155.5,59.9c0.2-1.1,0.9-1.7,2-1.8c3.6,2,3.3,3.1-0.9,3.4
				C155.7,61.4,155.3,60.9,155.5,59.9z M144.8,57.9c-3,0.1-4.9-0.9-5.7-3.1c-0.5-1.3,0-2,1.4-2.3c4.9-0.7,7,0.6,6.2,3.9
				C146.5,57.3,145.9,57.8,144.8,57.9z M141.1,59.8c3.2,2.7,2.4,3.9-2.3,3.6c-1.2-0.1-1.5-0.7-1-1.8
				C138.5,60.3,139.6,59.7,141.1,59.8z"/>
			<path fill-rule="evenodd" clip-rule="evenodd" fill="#EAEAF4" d="M111.2,26.2c0.1,0.1,0.2,0.1,0.3,0.2c0.1,0.1,0.3,0.2,0.4,0.3
				c0.3,0.2,0.6,0.4,0.8,0.6c0.1,0.1,0.3,0.2,0.3,0.3c0.4,0.3,0.7,0.6,1.1,0.9c0,0,0.1,0.1,0.1,0.1c0.1,0.1,0.2,0.1,0.3,0.3
				c0.3,0.3,0.6,0.6,0.9,1c0.1,0.1,0.3,0.3,0.4,0.4c0.2,0.3,0.4,0.5,0.6,0.8c0.2,0.2,0.3,0.5,0.4,0.8c0.1,0.1,0.2,0.3,0.3,0.4
				c0,0.1,0.1,0.3,0.1,0.4c0.1,0.4,0.1,0.7,0.1,1c0,0.1,0,0.1,0,0.2c0,0.1,0,0.3,0,0.4c0,0.1,0,0.1,0,0.3c0,0.2-0.1,0.3-0.1,0.5
				c-0.2-0.2-0.4-0.4-0.6-0.6c-1.6,0.7-2.8,2-3.6,3.7c-0.2,0.4-0.2,0.7-0.2,1c-0.3,0.1-0.5,0.2-0.8,0.3c0,0,0,0,0,0
				c-0.4-0.4-0.8-0.8-1.5-1.3c-1.4,0.2-2.2,1-2.3,2.4c-0.2,0-0.5,0.1-0.6,0.1c-0.1,0-0.1,0-0.2,0c0,0-0.1,0-0.1,0
				c-0.2,0-0.4,0-0.6,0.1c-0.2-0.1-0.4-0.1-0.6-0.1c-0.1,0-0.1,0-0.2,0c0.2-0.2,0.4-0.2,0.5-0.3c-0.2,0-0.4,0-0.5,0
				c1.8-1.5,0.6-2.5-3.5-3.2c-1.7,0.6-2.4,1.4-1.9,2.5c-0.2-0.1-0.3-0.1-0.5-0.2c-0.2-0.1-0.4-0.2-0.6-0.3c-0.4-0.2-0.7-0.4-1-0.6
				c-0.1-0.1-0.2-0.1-0.3-0.3c-0.2-0.2-0.4-0.3-0.5-0.5c-0.1-0.1-0.2-0.2-0.3-0.3c0-0.1-0.1-0.1-0.1-0.1c-0.1-0.2-0.3-0.4-0.4-0.6
				c-0.1-0.2-0.2-0.3-0.2-0.5c-0.1-0.3-0.2-0.6-0.3-0.9s-0.1-0.6-0.1-0.9c0-0.2,0-0.4,0-0.6v0c0-0.2,0-0.4,0.1-0.6
				c0-0.2,0.1-0.4,0.2-0.7c0.1-0.3,0.3-0.6,0.5-0.9c0.2-0.4,0.4-0.8,0.8-1.2c0.1-0.2,0.3-0.4,0.4-0.6c0,0,0-0.1,0.1-0.1l0,0
				c0.4,0,0.5-0.2,0.5-0.6c0.1-0.2,0.2-0.3,0.4-0.5c0-0.1,0.1-0.1,0.1-0.1c0.1-0.1,0.1-0.1,0.2-0.2c0,0,0.1-0.1,0.1-0.1
				c0.1-0.1,0.2-0.1,0.2-0.1c0.3,0,0.5-0.2,0.7-0.4c0.1-0.1,0.3-0.2,0.5-0.3c0.5-0.3,1-0.6,1.5-0.9c0.4-0.2,0.9-0.4,1.3-0.6
				c0.1,0,0.2,0,0.2,0c0.1,0,0.2,0,0.3,0c0.2,0,0.5,0.1,0.7,0.1c0.2,0.1,0.4,0.1,0.6,0.1c0.2,0.1,0.6,0.1,1,0c0.2,0,0.4,0,0.8,0.1
				c0.3,0,0.5,0,0.8,0c0.2,0,0.3,0,0.5,0c0.2,0,0.5,0,0.8,0c0.1-0.1,0.2-0.1,0.4-0.1c0.3,0,0.7,0,1,0
				C110.9,26.2,111,26.2,111.2,26.2z M106.8,34.6c1,0.2,1.8,0,2.5-0.8c2.4-3,1.1-4.6-4.1-4.8C101.3,31.5,101.9,33.4,106.8,34.6z"/>
			<path fill-rule="evenodd" clip-rule="evenodd" fill="#EAECF8" d="M78.4,49.8c0-0.5-0.1-1.2-0.1-2.1v2.1c-0.2-0.1-0.3-0.1-0.5-0.1
				c-0.5-0.1-0.9-0.1-1.4-0.1c0-0.2-0.3-0.3-0.8-0.4c-0.2,0-0.3-0.1-0.5-0.1c-0.5,0-1,0-1.7,0.1c-0.5,0-1.1,0.1-1.6,0.1
				c-0.3,0-0.5,0-0.8,0l-0.1-0.1c0.2-0.3,0.4-0.5,0.6-0.7c0.1-0.2,0.2-0.4,0.3-0.6c0.3-0.4,0.6-0.7,0.9-1l0.1,0
				c0.6-0.6,1.4-1.1,2.1-1.5c0.1,0,0.1-0.1,0.2-0.1c0.1-0.1,0.2-0.3,0.2-0.3c0-0.2,0.1-0.3,0.1-0.5c0.3-0.3,0.8-0.4,1.4-0.4
				c0.2,0,0.3,0,0.5,0c0.1,0.1,0.1,0.1,0.3,0.1c0-0.1,0.1-0.2,0.1-0.4c0.3-0.4,0.6-0.8,0.9-1.2c0.2-0.2,0.4-0.4,0.5-0.6
				c0.1-0.1,0.2-0.3,0.3-0.4c0.2-0.2,0.4-0.3,0.6-0.5c0.1-0.1,0.2-0.2,0.3-0.4c0.1-0.1,0.3-0.1,0.5-0.3c0.4-0.3,0.8-0.6,1.3-0.9
				c0.1,0,0.2-0.1,0.2-0.3c0.3-0.2,0.6-0.5,0.9-0.8c0.3-0.3,0.6-0.7,0.9-1c0.1,0.2,0.2,0.2,0.1,0c0.2-0.3,0.5-0.6,0.8-0.9
				c0.2-0.2,0.3-0.3,0.5-0.5c0.7-0.7,1.4-1.4,2-2.1c0.1-0.1,0.3-0.3,0.4-0.5c0.2-0.2,0.4-0.4,0.6-0.5c0.2-0.2,0.4-0.4,0.6-0.6
				c0.3-0.4,0.6-0.8,1-1.1c0.1-0.1,0.2-0.2,0.2-0.3c0.2,0.2,0.4,0.4,0.6,0.6c0.1,0.1,0.3,0.2,0.5,0.3c0.2,0.1,0.4,0.3,0.6,0.4
				c0.1,0.1,0.3,0.2,0.4,0.3c0.1,0.1,0.3,0.1,0.4,0.3c0.4,0.3,0.7,0.5,0.9,0.7c0.2,0.2,0.3,0.3,0.3,0.4c0,0.2,0,0.3-0.1,0.5
				c-0.1,0.3-0.4,0.5-0.6,0.8C93,35,93,35.1,93,35.1c-0.1,0.1-0.3,0.2-0.5,0.3c-0.5,0.3-0.9,0.7-1.1,1.2c0,0.1-0.1,0.1-0.1,0.2
				c-0.1,0.3-0.2,0.7-0.2,1.1c0,0.1,0,0.3,0,0.4c0,0.1,0,0.3,0.1,0.4c0,0.2,0.1,0.3,0.2,0.5c0.1,0.1,0.1,0.1,0.1,0.2
				c0.1,0.2,0.3,0.5,0.6,0.8v0.1c0.1,0,0.1,0.1,0.2,0.1c0.2,0.2,0.4,0.4,0.8,0.6c0.2,0.2,0.5,0.3,0.8,0.5c0.1,0.1,0.2,0.1,0.3,0.2
				c0.1,0.1,0.3,0.1,0.5,0.3c0.1,0,0.1,0.1,0.3,0.1c0.1,0.1,0.3,0.1,0.4,0.2c0.2,0.1,0.4,0.2,0.5,0.3c0.3,0.2,0.7,0.4,1.2,0.6
				c0.3,0.1,0.6,0.2,0.9,0.4c0,0,0.1,0,0.1,0.1c0.1,0.3,0.2,0.6,0.5,1c0.9,1.4,2.2,1.6,3.8,0.7c0.1,0,0.2,0.1,0.4,0.1
				c0.7,0.3,1.4,0.7,2.1,1c0,0.2,0,0.4,0,0.6c0.1,1.3,0.9,1.9,2.3,1.8c0.5,0,1-0.1,1.3-0.1c0,0,0.1,0,0.2,0.1
				c0.1,0.1,0.3,0.2,0.4,0.3c-1,0.9-1.1,2.1-0.5,3.8c0.3,0.7,0.8,1,1.3,0.9c0.1,0,0.3-0.1,0.5-0.1c-0.1,0.2-0.3,0.4-0.4,0.6
				c-0.2,0.2-0.5,0.5-0.8,0.7c-0.2-0.2-0.5-0.5-0.8-0.7c-1.4,0-2.4,0.6-3,1.8c-0.1,0.1-0.1,0.3-0.1,0.4c-0.6,0.1-1.2,0.2-1.9,0.3
				c-0.2,0-0.5,0.1-0.8,0.1c-0.3,0-0.5,0.1-0.8,0.1c-0.1,0-0.3,0-0.4,0c-0.1,0-0.2,0-0.3,0c-0.4-0.4-1-0.9-1.8-1.5
				c-1.4,0-2.3,0.6-2.8,1.7c-0.4,0-0.7,0-1.1,0h0c-1,0-2,0-2.9-0.1c-0.5,0-0.9-0.1-1.3-0.1c-0.9-0.1-1.7-0.2-2.4-0.4
				c-0.1,0-0.2-0.1-0.3-0.1c-0.3-0.4-0.8-0.9-1.4-1.5c-0.6,0-1,0.2-1.4,0.6c-0.3-0.1-0.6-0.3-0.9-0.4c-0.2-0.2-0.4-0.3-0.6-0.5
				c-0.1-0.2-0.3-0.3-0.5-0.4c-0.1-0.1-0.2-0.1-0.3-0.2c-0.3-0.4-0.7-1-1.4-1.7c-0.3-0.3-0.5-0.6-0.8-0.8c-0.5-0.6-0.8-0.9-0.9-1
				c-0.4-0.3-0.8-0.5-1.3-0.7c-0.2-0.1-0.5-0.2-0.8-0.2C78.5,49.8,78.4,49.8,78.4,49.8z M85.9,40c-1,0.1-1.7,0.6-2.1,1.6
				c-0.1,0.2-0.1,0.5-0.1,0.6c-2.2,1.3-2.4,3.3-0.6,5.9c0.6,0.8,1.1,1,1.8,0.6c2.7-1.7,2.9-3.5,0.6-5.6C88.8,43.5,88.9,42.5,85.9,40
				z M120.7,56.8c0.4-0.9,1-1.4,1.9-1.5c3.1,2.9,2.5,3.8-1.6,2.7C120.5,57.9,120.3,57.5,120.7,56.8z M106.5,61.5
				c-1.6,0.2-2.1-0.5-1.6-2c0.5-1.3,1.4-2,2.9-2C111.9,59.5,111.4,60.8,106.5,61.5z"/>
			<path fill-rule="evenodd" clip-rule="evenodd" fill="#EFEFF9" d="M86.6,72.6c0.1-0.1,0.3-0.1,0.5-0.1c0.1,0,0.1,0,0.3,0.1h0
				c0.2,0,0.5,0.1,0.9,0.2L88,72.9c-0.2,0-0.5-0.1-0.6-0.2c-0.1,0-0.2,0-0.3,0C86.9,72.6,86.7,72.6,86.6,72.6z M70.9,49.3
				c-0.1,0-0.1,0-0.1,0.1c0,0,0-0.1,0-0.1C70.8,49.3,70.9,49.3,70.9,49.3z M106,40.8L106,40.8c-0.1,0.1-0.2,0-0.2-0.1h0.1
				C105.9,40.7,106,40.7,106,40.8z M76.4,49.5L76.4,49.5c-0.1,0-0.1,0-0.2,0C76.2,49.5,76.3,49.5,76.4,49.5z"/>
			<path fill-rule="evenodd" clip-rule="evenodd" fill="#CFD1DD" d="M76.4,49.5c-0.1,0-0.1,0-0.2,0C76.2,49.5,76.3,49.5,76.4,49.5
				L76.4,49.5c0.5,0,1,0,1.4,0.1c0.2,0,0.3,0,0.5,0.1v1.9c0,0.3,0,0.6,0,0.9c0,0.2,0,0.5,0,0.8c-0.1,0.4-0.1,0.9-0.2,1.4
				c0,0.1,0,0.1,0,0.2c0,0.2-0.1,0.4-0.1,0.6c0,0.3-0.1,0.5-0.1,0.9c0,0,0,0.1,0,0.1c0,0.1,0,0.3,0,0.3c0,0.2,0,0.3,0,0.5
				c0,0.5,0.1,1,0.2,1.5c0,0,0,0.1,0,0.1c0.1,0.5,0.2,0.9,0.4,1.3c0,0.1,0.1,0.2,0.1,0.3c0.1,0.2,0.2,0.4,0.4,0.6
				c0.2,0.4,0.5,0.7,0.8,1c0.2,0.2,0.4,0.4,0.6,0.6c-1,1.6,0.5,2.6,4.4,3c0.8,0.1,1.3-0.1,1.7-0.4c0.2-0.2,0.3-0.3,0.4-0.5
				c0.2,0,0.3,0,0.5,0c0.4,0,0.8,0.1,1.3,0.1c0.4,0,0.8,0,1.3,0c0,0.4,0.2,0.6,0.6,0.7c2.8,0.5,4,0.2,3.6-0.7c0.1,0,0.1,0,0.3,0
				c0.1,0,0.3,0,0.4,0c0.4,0,0.7,0,1.1,0c0.2,0,0.4,0,0.8,0c0.2,0,0.5,0,0.8,0c0.2,0,0.3,0,0.5,0c-0.1,0.8,0.3,1.2,1.2,1.1
				c2.5-0.1,3.7-0.5,3.7-1.1h0.1c0.4,0,0.9,0,1.3,0c0,0.3,0.2,0.4,0.5,0.5c2.8,0.7,4,0.5,3.5-0.5c0.7,0,1.3,0,2,0
				c0.5,0,0.9-0.1,1.3-0.1c0.1,0,0.1,0,0.2,0c0.4,0,0.8,0,1.3,0c0.1,0,0.2,0,0.3,0c0.4,0,0.8,0,1.2,0c0.7,0,1.3-0.1,1.9-0.1
				c0.2,0,0.3,0,0.5,0c0.2,0,0.3,0,0.5,0c0.3,0,0.6,0,1,0c-0.1,0.5,0.1,0.9,0.6,1c0.2,0,0.5,0.1,0.7,0.1c0,0.1,0,0.2,0,0.4
				c0,0.1,0,0.2,0,0.4c0,0.1-0.1,0.3-0.1,0.5c0,0.4-0.1,0.8-0.1,1.2c0,0.1,0,0.3,0,0.4c0,0.4-0.1,0.8-0.1,1.2c0,0.2,0,0.3,0,0.5
				c0,0.1,0,0.3,0,0.3c-0.1,0.4-0.1,0.8-0.2,1.1c0,0.1,0,0.2,0,0.3c-0.2,0-0.5,0-0.7,0c-0.4,0-0.9,0-1.3,0c-0.5,0-0.9,0-1.3,0
				c-0.4,0-0.9,0-1.4,0s-1.1,0-1.6,0c-0.1,0-0.2,0-0.3,0c-0.3,0-0.7,0-1,0h-0.1c-0.2,0-0.3,0-0.4,0c-0.6,0-1.3,0-1.9,0.1
				c-0.5,0-1.1,0-1.7,0c-0.5,0-0.9,0-1.3,0c-0.6,0-1.2,0-1.8,0.1c-0.5,0-0.9,0-1.3,0c-0.1,0-0.2,0-0.4,0c-0.3,0-0.5,0-0.9,0
				c-0.5,0-0.9,0-1.4,0c-0.6,0-1.2,0-1.7,0.1c-0.1,0-0.3,0-0.3,0c-0.1,0-0.2,0-0.3,0c-0.2,0-0.4,0-0.6,0c-0.6,0-1.2,0-1.8,0
				c-0.2,0-0.3,0-0.4,0c-0.4,0-0.7,0-1,0h-0.1c-0.2,0-0.3,0-0.5,0c-0.5,0-1,0-1.5,0c-0.6,0-1.2,0-1.8,0c-0.1,0-0.2,0-0.3,0l-1,0.2
				l-0.5,0.2c-0.3-0.1-0.6-0.2-0.9-0.2h0c-0.1,0-0.2-0.1-0.3-0.1c-0.2,0-0.4,0-0.5,0.1c-0.1,0-0.3-0.1-0.4-0.1
				c-0.7-0.1-1.3-0.2-2-0.2c-0.5-0.1-1.1-0.2-1.8-0.2C81.8,72,81.1,72,80.3,72c-0.1,0-0.3,0-0.4-0.1c-0.3,0-0.6,0-0.9,0L79,71.8
				c0,0-0.1,0-0.3,0s-0.3,0-0.6,0c-0.6,0-1.1,0-1.8,0c-0.1-0.1-0.1-0.1-0.3-0.1c-0.2,0-0.5,0-0.7,0c-0.3,0-0.7,0-1,0l-4-1.2
				c0-0.1,0-0.2,0-0.3c0-0.1,0-0.1,0-0.2c0-0.2-0.1-0.4-0.4-0.5c-0.1-0.1-0.2-0.2-0.4-0.2h-2.3L67.2,69l-0.4-0.2l-1-1l-1-0.7
				l-0.2-0.3l-4,0.3c0,0-0.1,0-0.2,0l-3.3,0.1c0,0-0.1-0.1-0.1-0.1c-0.1-0.1-0.2-0.1-0.3-0.2c-0.2-0.1-0.3-0.2-0.4-0.2
				c-0.2,0-0.3-0.1-0.3-0.4c-0.2-0.1-0.4-0.3-0.4-0.5c-0.2-0.3-0.3-0.6-0.3-1c0-0.1,0-0.2,0-0.3l0.9,0.8V62c0.1-0.1,0.1-0.2,0.1-0.3
				c0,0,0.1-0.1,0.1-0.1c0.1-0.2,0.2-0.3,0.3-0.4c0-0.1,0.1-0.2,0.2-0.3v-0.1c0,0,0.1-0.1,0.1-0.1c0.2-0.3,0.4-0.5,0.6-0.7
				c0.1-0.1,0.1-0.1,0.1-0.1c0.2-0.1,0.4-0.3,0.6-0.5c0.2-0.2,0.4-0.4,0.5-0.6c0.2-0.2,0.4-0.3,0.7-0.4c0.1-0.2,0.3-0.3,0.4-0.4
				c0.2-0.2,0.4-0.3,0.6-0.4c0.2-0.2,0.5-0.3,0.8-0.5c0.3-0.2,0.7-0.4,1-0.6c0.3-0.2,0.7-0.4,1-0.6c0.2,0,0.3-0.1,0.4-0.1
				c0.5-0.3,1-0.5,1.5-0.6c0,0,0.1-0.1,0.2-0.2l0.1-0.1l0.8-1.9l3.9-2.8c0-0.1,0.1-0.3,0.1-0.4c0.1-0.2,0.1-0.4,0.2-0.5
				c0,0,0.1,0,0.1-0.1c0.3,0,0.5,0,0.8,0c0.6-0.1,1.1-0.1,1.6-0.1c0.7,0,1.2-0.1,1.7-0.1c0.2,0,0.3,0,0.5,0.1
				C76.1,49.2,76.4,49.3,76.4,49.5z"/>
			<path fill-rule="evenodd" clip-rule="evenodd" fill="#F5F6FB" d="M78.3,49.8v-2.1c0,0.9,0.1,1.6,0.1,2.1H78.3z"/>
		</g>
	</g>
</g>
</svg>
