<?xml version="1.0" encoding="utf-8"?>
<!-- Generator: Adobe Illustrator 16.0.0, SVG Export Plug-In . SVG Version: 6.00 Build 0)  -->
<!DOCTYPE svg PUBLIC "-//W3C//DTD SVG 1.1//EN" "http://www.w3.org/Graphics/SVG/1.1/DTD/svg11.dtd">
<svg version="1.1" id="Layer_1" xmlns="http://www.w3.org/2000/svg" xmlns:xlink="http://www.w3.org/1999/xlink" x="0px" y="0px"
	 width="210px" height="350px" viewBox="0 0 210 350" enable-background="new 0 0 210 350" xml:space="preserve">
<g>
	<g>
		<g>
			<linearGradient id="SVGID_1_" gradientUnits="userSpaceOnUse" x1="311.3311" y1="19.6392" x2="178.3915" y2="90.1754">
				<stop  offset="0" style="stop-color:#C4CDD2"/>
				<stop  offset="0.2824" style="stop-color:#E4F1F9"/>
				<stop  offset="0.4235" style="stop-color:#A2A29A"/>
				<stop  offset="0.6" style="stop-color:#A5A79C"/>
				<stop  offset="0.7529" style="stop-color:#EBF1EF"/>
				<stop  offset="1" style="stop-color:#A0A2A3"/>
			</linearGradient>
			<polygon fill-rule="evenodd" clip-rule="evenodd" fill="url(#SVGID_1_)" points="167,94 168,91.9 168.1,91.8 192.8,84.8 
				191.7,87 			"/>
			<linearGradient id="SVGID_2_" gradientUnits="userSpaceOnUse" x1="56.3057" y1="-38.4824" x2="146.7625" y2="124.2666">
				<stop  offset="0" style="stop-color:#C4CDD2"/>
				<stop  offset="0.2824" style="stop-color:#E4F1F9"/>
				<stop  offset="0.4235" style="stop-color:#A2A29A"/>
				<stop  offset="0.6" style="stop-color:#A5A79C"/>
				<stop  offset="0.7529" style="stop-color:#EBF1EF"/>
				<stop  offset="1" style="stop-color:#CBCFCE"/>
			</linearGradient>
			<polygon fill-rule="evenodd" clip-rule="evenodd" fill="url(#SVGID_2_)" points="168.1,91.8 25.2,28 50.5,21.2 192.8,84.6 
				192.8,84.8 			"/>
			<linearGradient id="SVGID_3_" gradientUnits="userSpaceOnUse" x1="24.0474" y1="28.9087" x2="167.5277" y2="92.8407">
				<stop  offset="0" style="stop-color:#C4CDD2"/>
				<stop  offset="0.2824" style="stop-color:#E4F1F9"/>
				<stop  offset="0.4235" style="stop-color:#A2A29A"/>
				<stop  offset="0.6" style="stop-color:#A5A79C"/>
				<stop  offset="0.7529" style="stop-color:#EBF1EF"/>
				<stop  offset="1" style="stop-color:#CBCFCE"/>
			</linearGradient>
			<polygon fill-rule="evenodd" clip-rule="evenodd" fill="url(#SVGID_3_)" points="167,94 24.3,30.4 25.2,28 168.1,91.8 168,91.9 
							"/>
		</g>
		<g>
			<polygon fill-rule="evenodd" clip-rule="evenodd" fill="#FFFFFF" fill-opacity="0.502" points="192.3,85.3 167.8,92.2 
				167.8,92.1 24.9,28.4 25.1,28 168,91.7 192.5,84.9 			"/>
		</g>
	</g>
	<g>
		<g>
			<path fill-rule="evenodd" clip-rule="evenodd" fill="#CBCDDA" d="M183.3,84c0.2-0.1,0.4-0.1,0.6-0.3c0.8,0.2,1.7,0.4,2.5,0.6
				c0.1,0.2,0.3,0.4,0.6,0.5c0.4,0.2,0.8,0.4,1.3,0.6l1,0.6l0.1,0l1.3,0.9v0.1l-0.3,0.9l-0.2,0.4l-0.3,1.4l0,0.1l-0.5,0.7l-0.5,0.6
				l-0.3,0.5l-0.6,0.8c-0.1,0-0.2,0-0.3,0c-0.2,0.1-0.4,0.1-0.6,0.1c-0.6,0.1-1.1,0.1-1.6,0.2c-0.1,0-0.3,0-0.4,0
				c-0.2,0-0.4,0-0.5,0c-0.1,0-0.3,0-0.5,0.1c-0.2,0-0.3,0-0.4-0.1c-0.1,0-0.3,0.1-0.4,0.1c-0.3,0.1-0.7,0.1-1.2,0.1
				c-0.3,0-0.6,0-0.9,0c-0.3-0.1-0.6-0.1-1,0h0l0,0c-0.1,0-0.2,0-0.4,0c-0.3,0-0.6-0.1-0.8-0.1c-0.6-0.1-1.1-0.1-1.7,0l-0.1-0.1
				c-0.3,0-0.6,0-0.9,0c-0.1,0-0.1,0-0.3,0c-0.4,0-0.7-0.1-1-0.1c-0.4,0-0.8-0.1-1.3-0.1l-0.2-0.1v0.1c-0.5,0-1.1-0.1-1.6-0.2
				c-0.4-0.1-0.7-0.3-1-0.4c-0.2,0-0.5-0.1-0.7-0.2c-0.2-0.1-0.4-0.2-0.6-0.3c-0.2-0.1-0.3-0.1-0.5-0.2c-0.2-0.1-0.5-0.2-0.7-0.3
				c-0.5-0.2-1-0.3-1.5-0.5c-0.2-0.1-0.4-0.1-0.6-0.1c-0.2-0.1-0.4-0.2-0.6-0.3c-0.1-0.1-0.3-0.1-0.5-0.3c-0.4-0.1-0.7-0.2-1-0.4
				c-0.1,0-0.3,0-0.4-0.1c-0.3-0.1-0.6-0.3-1-0.4c-0.2-0.1-0.5-0.2-0.7-0.3c-0.7-0.2-1.3-0.4-2-0.7c-0.4-0.2-0.8-0.4-1.3-0.5
				c-0.2-0.1-0.3-0.1-0.5-0.1c-0.2-0.1-0.4-0.2-0.6-0.3c-0.1,0-0.2-0.1-0.3-0.1c-0.1-0.1-0.3-0.1-0.5-0.3c-0.3-0.1-0.5-0.3-0.8-0.4
				c-0.2-0.1-0.5-0.2-0.7-0.4c-0.4-0.2-0.8-0.4-1.3-0.5c-0.1,0-0.3-0.1-0.5-0.2c-0.4-0.2-0.7-0.3-1-0.5c0.6-0.1,1.2-0.4,1.8-0.7
				c0.2-0.2,0.5-0.4,0.7-0.6c0.1,0.1,0.3,0.2,0.5,0.3c0.6,0.3,1.5,0.3,2.5,0.2c1.1-0.1,2-0.4,2.9-0.8c0.3-0.1,0.5-0.3,0.7-0.5
				c1.3-0.1,2.6-0.2,3.9-0.2c0.8,0.3,1.8,0.4,3,0.4c0.8,0,1.5-0.1,2.2-0.3c1.9,0.1,3.9,0.2,5.8,0.4c0.5,0.1,1,0.2,1.5,0.3
				c0.1,0,0.1,0,0.2,0c0.1,0,0.2,0.1,0.3,0.1c0.1,0.1,0.3,0.2,0.4,0.3c0.1,0,0.1,0.1,0.2,0.1c0.6,0.3,1.2,0.5,1.8,0.6
				c-0.2,0.2-0.4,0.4-0.6,0.6c-0.7,0.9-0.6,1.5,0.3,1.9C184.9,88.2,185.6,87.4,183.3,84z"/>
			<path fill-rule="evenodd" clip-rule="evenodd" fill="#DDDDE7" d="M181.3,84.1c0.3,0.1,0.6,0.1,0.9,0.1c0.4,0,0.8-0.1,1.1-0.2
				c2.3,3.3,1.6,4.2-2.3,2.6c-0.9-0.4-1-1-0.3-1.9C180.8,84.5,181,84.3,181.3,84.1z"/>
		</g>
	</g>
	<g>
		<g>
			<path fill-rule="evenodd" clip-rule="evenodd" fill="#FFFFFF" d="M193.3,97.7c-0.2-0.4-0.3-0.9-0.3-1.4c0,0,0-0.1,0-0.1l0.3,0.4
				c0,0.1,0,0.1,0,0.3C193.3,97.1,193.3,97.4,193.3,97.7z M191.8,124.7c0.2,0.6,0.3,1.2,0.5,1.6l-0.3,0.4c-0.2,0.2-0.5,0.3-1,0.3
				c-0.4,0-0.7-0.1-0.9-0.2c0-0.5,0-1,0-1.5c0.4-0.1,0.8-0.2,1.2-0.4C191.5,124.8,191.7,124.7,191.8,124.7z M190.2,133.1
				c0-1.3,0-2.6,0-3.8c0,0.2,0.1,0.4,0.1,0.7c0.1,0,0.3,0,0.3,0.1c0,0,0.1,0.1,0.2,0.1c0.1,0,0.1,0.3,0.1,0.8c0,0.2-0.2,0.4-0.5,0.8
				c0,0.1,0,0.3,0,0.4c0,0.3,0,0.7,0,1C190.3,133.1,190.2,133.1,190.2,133.1z M191,137.1c0.4-0.2,0.8-0.4,1.1-0.8
				c0.4-0.4,0.6-0.9,0.6-1.3c0-0.3,0-0.6-0.2-0.8c0.4,0,0.9,0,1.4,0.1c0,0.5,0,1.1,0,1.8c-0.1,0.2-0.3,0.4-0.5,0.6
				c-1,0.1-1.7,0.5-2,1C191.2,137.5,191.1,137.3,191,137.1z M190.4,163.9c0.4,0.3,1,0.5,1.9,0.5c0.2,0,0.3,0,0.5,0
				c-0.1,0.4-0.2,0.8-0.2,1.1c-0.1,0.1-0.3,0.1-0.4,0.1c-0.1,0.6-0.5,1.4-1,2.4l-0.8,0.3c-0.2-0.1-0.4-0.1-0.5-0.3
				c0-1.3,0-2.6,0.1-3.9c0.1,0,0.1-0.1,0.3-0.1C190.4,164,190.4,163.9,190.4,163.9z M193.8,173.1c0,1.2,0,2.5,0,3.7
				c0,0.7,0,1.5,0,2.4c-0.1,0-0.1,0-0.2,0c-0.6-0.4-1-0.8-1.1-1.5c-0.1-0.2-0.1-0.7-0.1-1.5c-0.5-0.2-0.8-0.5-0.9-0.8
				c-0.1-0.2-0.1-0.6-0.1-1.2c0-1.3,0.4-1.9,1.3-1.8c0.4,0.1,0.8,0.3,1,0.6l0-0.1C193.6,173.1,193.7,173.1,193.8,173.1z
				 M193.8,187.5c0,1.5,0,3,0.1,4.6c-0.1,0-0.2,0.1-0.3,0.1c-0.4-0.4-0.8-0.8-1-1.4c-0.2-0.4-0.3-0.7-0.3-0.9c0-1,0.1-1.6,0.2-1.9
				C192.8,187.7,193.2,187.5,193.8,187.5z M194,197.7c-0.3-0.2-0.5-0.6-0.6-1c-0.1-0.4-0.1-0.8,0-1.1c0-0.9,0.2-1.5,0.6-1.8
				c0,0.4,0,0.7,0,1.1C193.9,195.8,193.9,196.8,194,197.7z M194,208.7c0,0.2,0,0.3,0,0.5c-0.5,0.6-1,1.1-1.4,1.3
				c-0.6-0.2-1-0.5-1.1-1c-0.1-0.2-0.1-0.5-0.1-1.1c0-0.9,0.1-1.4,0.2-1.5c0.3-0.3,1.2-0.4,2.5-0.2C194,207.5,194,208.2,194,208.7z
				 M190.8,202.5c0.1,0,0.3,0,0.3,0c0,0,0.1,0.1,0.2,0.1c0.1,0,0.1,0.3,0.1,0.8c0,0.2-0.2,0.4-0.5,0.8c0,0.1,0,0.3,0,0.3
				c0,1.7-0.1,3-0.2,4c-0.2,0.1-0.5,0.3-0.7,0.4c0-1.1-0.1-2.2-0.1-3.3c0-1.8,0-3.7-0.1-5.5C190.3,200.3,190.6,201.1,190.8,202.5z
				 M190,211.5c0.5-0.2,0.8,0.3,0.8,1.8c0,0.7-0.2,1.8-0.7,3c0-0.6-0.1-1.3-0.1-2C190.1,213.4,190,212.5,190,211.5z M190.3,219.8
				c0-0.3,0-0.6,0-1c0-0.1,0-0.2,0-0.3c0-0.4,0-0.7,0-1h0c0.1,0,0.1,0.3,0.1,0.8c0,0.2,0,0.4-0.1,0.6c0.8,0,1.5,0.2,2.1,0.6
				c-0.1,0-0.1,0-0.2,0C191.3,219.4,190.7,219.6,190.3,219.8z M193.3,219.5c0-0.3,0-0.6,0-1c0-2.2,0.2-3.7,0.6-4.4c0,2,0,3.9,0,5.5
				C193.7,219.5,193.5,219.5,193.3,219.5z M193.9,223.2c0,0.2,0,0.3,0,0.4c0,1.2,0.1,2.3,0.1,3.3c0,0.9,0.1,1.8,0.1,2.8
				c-0.2,0-0.5-0.1-0.7-0.1c-0.2,0-0.5,0-0.7,0c-0.1-0.1-0.1-0.2-0.2-0.3c0,0.1-0.1,0.3-0.1,0.4c-0.8,0.2-1.3,0.7-1.4,1.5
				c-0.2-0.1-0.4-0.3-0.5-0.4c0-0.5,0-1,0-1.5c0.8-0.4,1.3-1.1,1.3-2c0-1.2-0.5-1.9-1.3-2v-0.1c0.3,0,0.6,0.1,0.8,0.1
				c-0.2-0.7-0.4-1.4-0.6-2c0.4,0.1,0.9,0.1,1.4,0.1C192.9,223.3,193.5,223.3,193.9,223.2z M191.1,232.5L191.1,232.5
				c0.3,0.6,1.1,0.8,2.3,0.8c0.3,0,0.6,0,0.8,0c-0.1,0.3-0.2,0.7-0.3,1.2c-0.4,1.5-0.6,2.7-0.7,3.4c-0.4,0.2-0.7,0.3-1.1,0.4
				c-0.6-0.4-1-0.9-1.1-1.5c-0.1-0.2-0.1-0.7-0.1-1.5C190.8,233.8,190.9,232.9,191.1,232.5L191.1,232.5z M191.8,246.1
				c0,0.4-0.2,0.9-0.5,1.4c-0.2,0.3-0.3,0.5-0.4,0.8c0-1.3,0-2.3,0-3c0-0.1,0-0.1,0-0.2c0.1,0,0.3,0,0.5,0
				C191.7,245.3,191.8,245.6,191.8,246.1z M194.8,245.8c0.1,1.7,0.1,3.5,0.2,5.5c-0.3,0.1-0.6,0.3-0.8,0.4c-0.6-0.4-1-0.9-1.1-1.5
				c-0.1-0.2-0.1-0.7-0.1-1.6c0-1.5,0.4-2.6,1.3-3.1C194.3,245.5,194.5,245.7,194.8,245.8z M194.9,254.5c0,1.3,0,2.6-0.1,4l-0.8,0.3
				c-0.6-0.2-1-0.5-1.1-1c-0.1-0.2-0.1-0.5-0.1-1.1c0-0.8,0.1-1.4,0.2-1.6C193.3,254.5,193.9,254.4,194.9,254.5z M192.5,257.3
				c-0.1,0.1-0.4,0.2-0.9,0.2c-0.2,0-0.5,0-0.7-0.2c0-0.4,0-0.8,0-1.2c0-1.3,0-2.7,0-4.1c0-0.7,0-1.5,0-2.2c0.1,0.9,0.4,2,0.9,3.4
				c0.7,1.9,1,2.9,1,3c0,0.5,0,0.8-0.1,0.9h-0.1L192.5,257.3z"/>
			<path fill-rule="evenodd" clip-rule="evenodd" fill="#E8E8F4" d="M193.6,110.3c0,0.4,0,0.9,0.1,1.4c-0.4,0.2-0.7,0.4-1.1,0.5
				c-0.4-0.4-0.8-0.9-1-1.4c-0.2-0.4-0.3-0.7-0.3-0.9c0-1.1,0.3-1.7,0.8-2c-0.1-0.1-0.3-0.1-0.5-0.1c-0.1,0-0.3,0-0.4,0.1
				c-0.1-0.2-0.2-0.4-0.3-0.6c-0.1-0.2-0.1-0.7-0.1-1.6c0-0.6,0.1-1.2,0.3-1.6c0.2-0.1,0.4-0.1,0.6-0.2c-0.4-0.2-0.6-0.5-0.7-0.8
				c-0.1-0.2-0.1-0.5-0.1-1.1c0-1.3,0.4-1.9,1.3-1.9c0.8,0.1,1.3,0.7,1.3,1.9c0,0.2,0,0.4,0,0.6c0,0.2-0.1,0.5-0.1,0.7
				c0,0,0.1,0.1,0.1,0.2v4.6c0.1,0,0.1,0.1,0.2,0.2C193.5,109,193.6,109.7,193.6,110.3z M189.6,100.8c0.1,0.3,0.2,0.7,0.2,1.3
				c0,0.3,0,0.6,0,0.9c0,0,0,0.1,0,0.1v0c0,0,0,0.1,0,0.1c0,1-0.1,1.8-0.2,2.6c0,0.1,0,0.2,0,0.3c-0.1-2.2-0.2-4-0.3-5.4
				C189.5,100.8,189.5,100.8,189.6,100.8z M190.1,121.1c0-1.2,0-2.3,0-3.4c0-1.1,0-2.2,0-3.3c-0.1-1.6-0.1-3.1-0.2-4.5
				c0,0.1,0,0.1,0,0.2c0.2,0.5,0.3,0.9,0.5,1.3c0.2,0.2,0.4,0.4,0.5,0.6v4.5c0.3,1.6,0.5,3.2,0.5,4.6
				C191,121.2,190.6,121.1,190.1,121.1z M193,122c0.1-0.5,0.4-0.8,0.8-0.8c0,0.1,0,0.3,0,0.4c0,1.3,0,2.6,0,3.8
				c-0.5-0.2-0.9-0.6-1-1.3c0-0.1,0-0.1,0-0.2c0.2-0.3,0.4-0.6,0.4-1C193.2,122.6,193.1,122.3,193,122z M192,115.6
				c0.3-0.4,0.9-0.6,1.7-0.6c0,1.4,0,2.9,0,4.5c-0.3,0.2-0.5,0.3-0.7,0.3c-0.4-0.4-0.8-0.8-1-1.4c-0.2-0.4-0.3-0.7-0.3-0.9
				C191.8,116.5,191.9,115.9,192,115.6z M190.3,139.5c0.1,0.3,0.1,0.7,0.1,1.3c0,0.3,0,0.7-0.1,1.1
				C190.2,141,190.2,140.2,190.3,139.5z M193.9,160.3c-0.4-0.1-0.8-0.1-1.3-0.1c-1.1,0-1.9,0.3-2.3,1c0-0.5,0.1-0.8,0.1-1
				c0.3-0.5,1-1.1,2.1-1.6c-0.2-0.5-0.4-1.1-0.6-1.7c-0.2,0.5-0.3,0.9-0.3,1.3c-0.1,0-0.3,0.1-0.5,0.3c-0.3,0.2-0.6,0.3-0.8,0.4
				c-0.2-0.1-0.3-0.2-0.4-0.4c0-0.2,0-0.5,0-0.8c0-1.7,0-3.3,0-4.8c0.2,0,0.4,0,0.5,0c-0.2-0.7-0.4-1.3-0.5-1.8c0-1.6,0-3.1,0-4.5
				c1,0.1,1.9,0.6,2.7,1.4c0-0.5-0.1-1.1-0.1-1.9c0-3,0.4-4.6,1.1-4.9c0,0.4,0,0.9,0,1.4c0,3.4,0,6.8,0,10.1c0,0.8,0,1.9,0,3.3
				S193.9,158.7,193.9,160.3z M190,175c0.3-0.2,0.5-0.5,0.8-0.9c0.2-0.2,0.4-0.5,0.5-0.7c0,0.1,0,0.1,0,0.3c0,0.4-0.2,0.9-0.5,1.4
				c-0.3,0.5-0.5,1-0.5,1.4c0,1,0.3,2.4,1,4.3c0.2,0.6,0.4,1.1,0.5,1.5c0-1.4,0.4-2,1.3-2c0.3,0,0.5,0.1,0.7,0.2c0,0.9,0,1.9,0,3
				c0,0.3,0,0.5,0,0.8c-0.2,0.1-0.5,0.2-0.7,0.3c-0.3-0.3-0.6-0.6-0.8-1l0,0.2c0,0.5,0,0.8-0.1,0.9h-0.1l-0.2,0.2
				c-0.1,0.1-0.3,0.1-0.7,0.2v4c0.3,1.7,0.5,3.3,0.5,4.8c0,0.5,0,0.8-0.1,0.9h-0.1l-0.2,0.2c0,0-0.1,0.1-0.2,0.1
				c0.4,0.3,0.6,0.7,0.8,1.2c0.2,1.1,0.5,1.9,0.7,2.5l-0.3,0.4c-0.2,0.2-0.5,0.3-1,0.3c-0.8,0-1.3-0.4-1.8-1.1c0-5.2,0-10.4,0-15.6
				c0-0.5,0-1,0-1.5C189.9,178.9,190,176.8,190,175z"/>
			<path fill-rule="evenodd" clip-rule="evenodd" fill="#C2C2C9" d="M191.3,121.3c0.6,0.1,1.1,0.3,1.4,0.5c0.1,0.1,0.2,0.2,0.3,0.3
				c0.1,0.2,0.2,0.6,0.2,1c0,0.4-0.1,0.7-0.4,1c-0.2,0.2-0.6,0.5-1,0.7c-0.2,0-0.3,0.1-0.5,0.1c-0.4,0.1-0.8,0.3-1.2,0.4
				c0-1.4-0.1-2.8-0.1-4.1C190.6,121.1,191,121.2,191.3,121.3z M191.5,137.7c0.4-0.5,1.1-0.9,2-1c0.1,0,0.3-0.1,0.5-0.1
				c0,1.2,0,2.6,0,4.2c-0.2,0-0.4,0-0.6,0c-1.2,0-1.9-0.3-2.3-0.8c0-0.1,0-0.4,0-0.9C191,138.5,191.2,138.1,191.5,137.7z M191,137.1
				c-0.3,0.1-0.5,0.2-0.8,0.2v0c0-1.4,0-2.8,0-4.1c0,0,0.1,0,0.1,0c1.2,0,1.9,0.4,2.2,1.1c0.1,0.2,0.2,0.5,0.2,0.8
				c0,0.4-0.2,0.9-0.6,1.3C191.8,136.7,191.4,136.9,191,137.1z M192.8,164.4c-0.2,0-0.3,0-0.5,0c-0.9,0-1.6-0.2-1.9-0.5
				c-0.1-0.1-0.2-0.2-0.3-0.3v0c0-0.6,0-1.1,0-1.7c0-0.3,0.1-0.5,0.3-0.7c0.4-0.7,1.1-1,2.3-1c0.5,0,0.9,0,1.3,0.1
				c0,1.2,0,2.5-0.1,3.8C193.5,164.2,193.2,164.3,192.8,164.4z M191.3,173.4c-0.1,0.2-0.3,0.5-0.5,0.7c-0.3,0.4-0.6,0.6-0.8,0.9
				c0-1.6,0-3,0-4.3c0-0.2,0-0.3,0-0.5c1.2,0,1.8,0.6,1.8,1.8C191.8,172.5,191.7,172.9,191.3,173.4z M193.8,168.3c0,0.6,0,1.3,0,1.9
				c0,0.9,0,1.8,0,2.6c-0.7-0.1-1.1-0.5-1.3-1c-0.1-0.4-0.2-0.8,0-1.2C192.5,169.3,192.9,168.5,193.8,168.3z M192.3,219.4
				c0.4,0,0.7,0,1,0c0.2,0,0.4,0.1,0.6,0.1c0,0.1,0,0.3,0,0.5c0,1.2,0,2.3,0,3.1c-0.4,0.1-1,0.2-1.8,0.2c-0.6,0-1,0-1.4-0.1
				c-0.1,0-0.2,0-0.3,0c-0.1-1.1-0.1-2.2-0.1-3.4c0.5-0.2,1.1-0.4,1.9-0.4C192.2,219.4,192.3,219.4,192.3,219.4z M194.2,233.3
				c-0.2,0-0.5,0-0.8,0c-1.2,0-1.9-0.3-2.3-0.8v0c0-0.1,0-0.4,0-0.9c0-0.2,0-0.3,0-0.5c0.1-0.8,0.6-1.3,1.4-1.5c0.1,0,0.2,0,0.3,0
				c0.2,0,0.4,0,0.7,0c0.2,0,0.5,0.1,0.7,0.1C194.1,230.8,194.1,232.1,194.2,233.3z M190.4,225.2c0.9,0.2,1.3,0.8,1.3,2
				c0,0.9-0.4,1.5-1.3,2C190.5,227.9,190.4,226.6,190.4,225.2z M191.2,263.7c0.4-0.2,0.9-0.3,1.4-0.3c0.8-0.1,1.5,0,2.1,0.2
				c-0.1,0.3-0.1,0.7-0.2,1c-0.2,1.3-0.4,2.2-0.7,2.5c0,0,0,0.1,0,0.1c-0.3,0.4-0.5,0.6-0.8,0.7c-0.2,0.1-0.5,0-0.7-0.2h0
				c-0.2,0-0.4-0.5-0.6-1.6c-0.1-0.2-0.1-0.5-0.1-1C191.3,264.6,191.2,264.2,191.2,263.7z"/>
		</g>
	</g>
	<g>
		<path fill-rule="evenodd" clip-rule="evenodd" fill="#FFFFFF" d="M187.7,96.9c-1.3,0-2.1-0.5-2.4-1.4v-1c0-2.1,0.8-2.8,2.4-2.1
			c1.6,0.6,2.3,1.5,2.3,2.5c0,0.7-0.3,1.2-0.8,1.5C188.8,96.8,188.3,96.9,187.7,96.9z M192,96.6c1.4,0,2.1,0.6,2.1,1.9
			c0,0.5-0.2,1-0.7,1.4c-0.3,0.2-0.8,0.6-1.6,1l-1.8-0.6l-0.2-1.5C189.8,97.4,190.5,96.6,192,96.6z"/>
	</g>
</g>
</svg>
