<?xml version="1.0" encoding="utf-8"?>
<!-- Generator: Adobe Illustrator 16.0.0, SVG Export Plug-In . SVG Version: 6.00 Build 0)  -->
<!DOCTYPE svg PUBLIC "-//W3C//DTD SVG 1.1//EN" "http://www.w3.org/Graphics/SVG/1.1/DTD/svg11.dtd">
<svg version="1.1" id="Layer_1" xmlns="http://www.w3.org/2000/svg" xmlns:xlink="http://www.w3.org/1999/xlink" x="0px" y="0px"
	 width="210px" height="350px" viewBox="0 0 210 350" enable-background="new 0 0 210 350" xml:space="preserve">
<g>
	<g>
		<g>
			<linearGradient id="SVGID_1_" gradientUnits="userSpaceOnUse" x1="304.9102" y1="5.8125" x2="177.7285" y2="86.5021">
				<stop  offset="0" style="stop-color:#C4CDD2"/>
				<stop  offset="0.2824" style="stop-color:#E4F1F9"/>
				<stop  offset="0.4235" style="stop-color:#A2A29A"/>
				<stop  offset="0.6" style="stop-color:#A5A79C"/>
				<stop  offset="0.7529" style="stop-color:#EBF1EF"/>
				<stop  offset="1" style="stop-color:#A0A2A3"/>
			</linearGradient>
			<polygon fill-rule="evenodd" clip-rule="evenodd" fill="url(#SVGID_1_)" points="166.7,91.3 167.4,89 167.5,88.9 191.7,80 
				190.8,82.4 			"/>
			<linearGradient id="SVGID_2_" gradientUnits="userSpaceOnUse" x1="45.7676" y1="-32.2007" x2="148.8797" y2="123.0078">
				<stop  offset="0" style="stop-color:#C4CDD2"/>
				<stop  offset="0.2824" style="stop-color:#E4F1F9"/>
				<stop  offset="0.4235" style="stop-color:#A2A29A"/>
				<stop  offset="0.6" style="stop-color:#A5A79C"/>
				<stop  offset="0.7529" style="stop-color:#EBF1EF"/>
				<stop  offset="1" style="stop-color:#CBCFCE"/>
			</linearGradient>
			<polygon fill-rule="evenodd" clip-rule="evenodd" fill="url(#SVGID_2_)" points="167.5,88.9 20,36.5 44.7,27.8 191.7,79.9 
				191.7,80 			"/>
			<linearGradient id="SVGID_3_" gradientUnits="userSpaceOnUse" x1="18.9414" y1="37.4771" x2="167.0883" y2="90.0356">
				<stop  offset="0" style="stop-color:#C4CDD2"/>
				<stop  offset="0.2824" style="stop-color:#E4F1F9"/>
				<stop  offset="0.4235" style="stop-color:#A2A29A"/>
				<stop  offset="0.6" style="stop-color:#A5A79C"/>
				<stop  offset="0.7529" style="stop-color:#EBF1EF"/>
				<stop  offset="1" style="stop-color:#CBCFCE"/>
			</linearGradient>
			<polygon fill-rule="evenodd" clip-rule="evenodd" fill="url(#SVGID_3_)" points="166.7,91.3 19.3,39 20,36.5 167.5,88.9 
				167.4,89 			"/>
		</g>
		<g>
			<polygon fill-rule="evenodd" clip-rule="evenodd" fill="#FFFFFF" fill-opacity="0.502" points="191.2,80.5 167.3,89.3 19.6,37 
				19.9,36.5 167.5,88.8 167.4,88.9 191.4,80 			"/>
		</g>
	</g>
	<g>
		<g>
			<path fill-rule="evenodd" clip-rule="evenodd" fill="#DDDDE7" d="M163.5,71c0.9,0.2,1.7,0.5,2.6,0.8c0.1,0.2,0.2,0.5,0.5,0.9
				c0.7,0.7,1.9,1.2,3.4,1.4c0,0-0.1,0.1-0.1,0.1c-0.5,0.7-1.3,1-2.3,0.7C165.3,73.9,163.9,72.7,163.5,71z M177.3,82.2
				c-0.9-0.3-1.1-1-0.5-1.9c0.6-0.9,1.5-1.2,2.6-0.9C182,82.6,181.3,83.5,177.3,82.2z M141.3,73.1c-0.2-0.1-0.4-0.3-0.6-0.4
				c-0.4-0.3-0.5-0.7-0.3-1.1c-0.3-0.1-0.6-0.2-0.9-0.3c-0.2-0.1-0.4-0.1-0.5-0.2c-0.1-0.1-0.3-0.1-0.5-0.2
				c-0.5-0.2-1.1-0.4-1.8-0.6c-0.3-0.1-0.7-0.3-1.1-0.4c-0.1,0-0.2-0.1-0.3-0.1c-0.4-0.2-0.8-0.3-1.2-0.5c-0.1,0-0.1,0-0.2,0
				c-0.1,0-0.1-0.1-0.1-0.1c0.1-0.1,0.1-0.2,0.3-0.3c0.3-0.3,0.5-0.6,0.6-0.9c0.1,0.2,0.3,0.4,0.5,0.6c0.5,0.5,1.4,0.8,2.5,0.7
				c1.1-0.1,2.1-0.4,2.9-0.9c0.3-0.2,0.5-0.4,0.6-0.6c1.3,0,2.7,0,4,0.1c0.7,0.5,1.7,0.8,3.1,0.8c0.9,0,1.6-0.1,2.2-0.3
				c2,0.2,3.9,0.5,5.9,0.9c0.5,0.1,1,0.3,1.5,0.4c0.2,0,0.3,0.1,0.5,0.1c0.1,0.2,0.3,0.3,0.5,0.5c0.3,0.3,0.6,0.5,0.9,0.8
				c-0.1,0.1-0.2,0.2-0.3,0.3c-0.1,0.1-0.3,0.2-0.3,0.3c-0.3,0.3-0.6,0.5-1,0.8c-0.4,0.2-0.9,0.5-1.3,0.7c0.8,3-1.2,4.1-6,3.4
				c-1.7-0.3-3-0.7-3.8-1.2c-1.9,0.9-2.4,0.3-1.7-1.8c0-0.1,0.1-0.2,0.1-0.3c-0.1,0-0.2-0.1-0.2-0.1c-0.2,0-0.3,0-0.5-0.1
				c-0.2-0.1-0.3-0.1-0.5-0.1c0,0-0.1,0-0.1,0C144.6,74.4,143.7,74.5,141.3,73.1z M159.8,75.7c1.1-1,2.3-1.2,3.7-0.6
				c2,3.6,0.9,4.5-3.4,2.6C158.9,77.2,158.8,76.5,159.8,75.7z"/>
			<path fill-rule="evenodd" clip-rule="evenodd" fill="#CBCDDA" d="M177.3,82.2c4,1.3,4.7,0.4,2.1-2.8c-1.1-0.3-2,0-2.6,0.9
				C176.3,81.2,176.4,81.9,177.3,82.2z M163.5,71c0.4,1.7,1.8,2.9,4.1,3.7c1,0.3,1.8,0.1,2.3-0.7c0,0,0.1-0.1,0.1-0.1
				c0.3,0,0.6,0,0.9,0c0.6,0,1.2,0,1.7-0.1c0.5,0.2,1,0.3,1.5,0.5c0.7,0.6,1.6,0.9,2.6,1c1.1,0.4,2.2,0.7,3.2,1.1
				c0.6,0.9,1.5,1.3,2.8,1.4c0.4,0,0.7,0,1.1-0.1c0.1,0,0.1,0.1,0.2,0.1l0.4,1.3l0,0.4c0.3,0.2,0.3,0.5,0.2,0.8l0.1,0l0.1,0.1
				l1.1,0.6h0.1l1.3,0.8l0,0v0.1l-0.1,0.9l-0.2,0.4l0,0.7l-0.2,0.8v0l-0.4,0.8l-0.5,0.6l-0.2,0.5l-0.5,0.7l0,0.2c-0.1,0-0.2,0-0.3,0
				c-0.2,0.1-0.4,0.1-0.6,0.2c-0.6,0.1-1.1,0.2-1.6,0.4c-0.1-0.1-0.2-0.1-0.3,0c-0.2,0.1-0.4,0.1-0.6,0.1c-0.1,0-0.2,0-0.5,0.1
				c-0.2,0-0.4,0-0.4,0c-0.1,0-0.3,0.1-0.3,0.1c-0.3,0.1-0.7,0.1-1.2,0.2c-0.3,0-0.6,0.1-0.9,0.1c-0.3,0-0.6,0-0.9,0.1l-0.1-0.1
				l0,0.1c-0.1,0-0.2,0-0.4-0.1c-0.3,0-0.5,0-0.8,0.1c-0.6,0-1.2,0-1.7,0.1l-0.1-0.1c-0.3,0-0.6,0.1-0.8,0.1c0,0-0.1,0-0.2-0.1
				c-0.4,0-0.8,0.1-1.1,0.1c-0.4,0-0.8,0-1.2-0.1l-0.2,0l0,0c-0.5,0.1-1.1,0.1-1.6,0c-0.4-0.1-0.7-0.2-0.9-0.3
				c-0.3,0-0.5-0.1-0.8-0.1c-0.2,0-0.4-0.1-0.6-0.1c-0.2-0.1-0.3-0.1-0.5-0.1c-0.3-0.1-0.5-0.2-0.8-0.3c-0.5-0.1-1-0.2-1.5-0.4
				c-0.2-0.1-0.4-0.1-0.5-0.1c-0.2-0.1-0.4-0.1-0.6-0.2c-0.2-0.1-0.4-0.1-0.5-0.2c-0.4-0.1-0.7-0.2-1-0.4c-0.1,0-0.3,0-0.5-0.1
				c-0.3-0.1-0.6-0.2-1-0.3c-0.2-0.1-0.5-0.2-0.8-0.3c-0.6-0.1-1.3-0.3-2-0.5c-0.4-0.1-0.8-0.3-1.3-0.4c-0.2-0.1-0.4-0.1-0.6-0.1
				c-0.2-0.1-0.4-0.2-0.6-0.3c-0.1,0-0.2-0.1-0.3-0.1c-0.1-0.1-0.3-0.1-0.5-0.2c-0.3-0.1-0.6-0.2-0.9-0.4c-0.2-0.1-0.5-0.2-0.8-0.3
				c-0.4-0.1-0.8-0.3-1.3-0.4c-0.1,0-0.2-0.1-0.4-0.1c-0.7-0.3-1.4-0.6-2-0.8c-0.2-0.1-0.4-0.1-0.6-0.2c-0.2-0.1-0.4-0.1-0.6-0.1
				c-0.4-0.2-0.8-0.3-1.2-0.5c-0.2-0.1-0.3-0.1-0.5-0.2c-0.2-0.1-0.5-0.2-0.8-0.3l0-0.1c-0.1,0-0.2-0.1-0.4-0.1l0,0.1
				c-0.2-0.1-0.5-0.2-0.8-0.3c-0.3-0.1-0.6-0.3-0.8-0.4c-0.5-0.1-0.9-0.2-1.4-0.4c-1-0.4-2-0.8-3-1.2c0-0.1,0.1-0.1,0.2-0.2
				c0.2-0.3,0.3-0.7,0.5-1c0-0.1,0.1-0.2,0.2-0.3c0-0.2,0.1-0.3,0.2-0.5c0.2-0.3,0.3-0.6,0.5-1c0.1-0.1,0.1-0.3,0.2-0.3
				c0.2-0.4,0.4-0.7,0.6-1.1c0.1-0.1,0.1-0.2,0.3-0.4c0-0.1,0.1-0.3,0.1-0.4s0.1-0.2,0.2-0.3c2.4,1.3,3.4,1.2,2.9-0.3
				c0.1,0,0.1,0,0.1,0c0.2,0,0.3,0.1,0.5,0.1c0.2,0,0.3,0.1,0.5,0.1c0,0,0.1,0.1,0.2,0.1c0,0.1-0.1,0.2-0.1,0.3
				c-0.7,2.2-0.2,2.8,1.7,1.8c0.8,0.5,2.1,0.9,3.8,1.2c4.9,0.8,6.9-0.4,6-3.4c0.4-0.2,0.9-0.5,1.3-0.7c0.3-0.2,0.7-0.5,1-0.8
				c0.1-0.1,0.2-0.2,0.3-0.3c0.1-0.1,0.2-0.2,0.3-0.3c0.6,0.3,1.2,0.5,2,0.5C162.4,71.6,163,71.4,163.5,71z M159.8,75.7
				c-0.9,0.8-0.8,1.5,0.3,2c4.3,1.9,5.4,1.1,3.4-2.6C162,74.5,160.8,74.7,159.8,75.7z"/>
			<path fill-rule="evenodd" clip-rule="evenodd" fill="#CFD1DD" d="M141.3,73.1c-0.1,0.1-0.1,0.1-0.2,0.3s-0.1,0.2-0.1,0.4
				c-0.1,0.1-0.2,0.3-0.3,0.4c-0.2,0.4-0.4,0.7-0.6,1.1c-0.1,0.1-0.1,0.2-0.2,0.3c-0.2,0.4-0.3,0.7-0.5,1c-0.1,0.2-0.1,0.3-0.2,0.5
				c-0.1,0.1-0.2,0.2-0.2,0.3c-0.2,0.3-0.4,0.7-0.5,1c-0.1,0.1-0.1,0.1-0.2,0.2c-0.2-0.1-0.4-0.1-0.6-0.3c-0.4-0.1-0.8-0.2-1.2-0.4
				c-0.4-0.2-0.8-0.3-1.3-0.4c-0.4-0.2-0.8-0.3-1.3-0.5c-0.5-0.2-1-0.4-1.5-0.6c-0.1,0-0.2-0.1-0.3-0.1c-0.3-0.1-0.6-0.2-0.9-0.3h0
				c-0.2-0.1-0.3-0.1-0.4-0.2c-0.6-0.2-1.2-0.4-1.8-0.6c-0.5-0.2-1-0.4-1.6-0.6c-0.4-0.1-0.9-0.3-1.3-0.5c-0.6-0.2-1.1-0.4-1.7-0.6
				c-0.4-0.2-0.8-0.3-1.3-0.4c0,0-0.2-0.1-0.3-0.1c-0.2-0.1-0.5-0.2-0.8-0.3c-0.4-0.1-0.8-0.3-1.1-0.4c0.2-0.3,0.3-0.6,0.4-1
				c0-0.1,0.1-0.3,0.1-0.5c0.2,0,0.4-0.1,0.6-0.1c0,0,0.1,0.1,0.1,0.2c0.6,0.6,1.4,0.8,2.6,0.7c0.9-0.1,1.6-0.4,2.2-0.9
				c0.4-0.4,0.6-0.8,0.7-1.3v0c0.7-0.1,1.4-0.2,2-0.3c0,0.1,0.1,0.1,0.1,0.2c0.5,0.6,1.3,0.9,2.3,0.9c0.7-0.1,1.3-0.3,1.8-0.6
				c0,0,0.1,0,0.1,0.1c0.1,0,0.1,0,0.2,0c0.4,0.1,0.8,0.3,1.2,0.5c0.1,0,0.2,0.1,0.3,0.1c0.4,0.1,0.8,0.2,1.1,0.4
				c0.6,0.2,1.2,0.4,1.8,0.6c0.2,0,0.3,0.1,0.5,0.2c0.1,0.1,0.3,0.1,0.5,0.2c0.3,0.1,0.6,0.1,0.9,0.3c-0.3,0.5-0.2,0.9,0.3,1.1
				C140.8,72.9,141,73,141.3,73.1z"/>
		</g>
	</g>
	<g>
		<g>
			<path fill-rule="evenodd" clip-rule="evenodd" fill="#E8E8F4" d="M193.2,91c-0.1,0-0.1,0-0.2,0c-1.4,0.1-2.3,0.5-2.8,1.3
				c0-0.1,0-0.1,0-0.2c-0.1,0-0.2,0-0.3,0c-1,0-1.6-0.4-1.8-1.3c0-0.1,0-0.1,0-0.2c0.2-0.3,0.3-0.6,0.3-1c0-0.2,0-0.3,0-0.5
				c0.5-0.3,1.1-0.5,1.7-0.7c0,0,0,0.1,0,0.1c0,0,0-0.1,0-0.1c0.1,0,0.2-0.1,0.4-0.1c0.4-0.1,0.9-0.1,1.3-0.1c0.1,0,0.2,0,0.3,0
				c0.4,0.1,0.8,0.2,1.2,0.3c-0.1,0.5-0.2,1-0.3,1.6C193.2,90.4,193.2,90.6,193.2,91z M189.5,126.9c-0.4-0.2-0.9-0.3-1.5-0.3
				c-0.2,0-0.5,0-0.6,0c0-0.2-0.1-0.5-0.1-0.7c0-0.1,0-0.3,0-0.4c0-0.1,0-0.1,0-0.1c0.2-0.1,0.5-0.3,0.8-0.4
				c-0.2-0.5-0.3-1.1-0.5-1.7c-0.2,0.5-0.3,0.9-0.3,1.3h0c-0.5-4.3-1-8.1-1.3-11.5c0.9,0.1,1.7,0.6,2.4,1.4c0-0.5,0-1.1,0-1.9
				c0-3.2,0.4-4.8,1.3-4.9c0.1,0,0.2,0,0.3,0c0,0,0-0.1,0-0.1c0-0.1,0-0.1,0-0.2c0.5-0.1,1-0.3,1.5-0.4c0.5-0.2,0.9-0.4,1.2-0.6
				c0,0.1,0,0.1,0,0.2c0,0.1,0,0.1,0,0.2c0.5,0.3,0.9,0.8,1.2,1.5c-0.1,0.3-0.2,0.6-0.3,0.7c-0.1,0.3-0.5,0.5-1,0.5
				c-0.7,0-1.4-0.2-2-0.6c0.2,0.8,0.3,2.1,0.3,3.8c0,1.8-0.1,3.4-0.2,4.6c-0.3,0.1-0.5,0.2-0.8,0.3c0.1,0.4,0.2,0.7,0.3,1.1
				c0.2,3.9,0.3,6,0.3,6.3c0,0.7-0.1,1.3-0.2,1.8C189.9,126.6,189.7,126.8,189.5,126.9z M195.3,109.7c-0.1-0.3-0.1-1.1-0.1-2.2
				c0-2.3,0.3-3.7,0.8-4.1c0.4,3.1,0.7,5.9,0.9,8.4v0.1c0,0.2,0,0.3,0,0.5c-0.6,0.2-0.9,0.3-1,0.3c-0.5-0.2-0.8-0.3-0.9-0.4
				c-0.2-0.2-0.3-0.6-0.3-1.1c0-0.6,0.2-1,0.7-1.1C195.4,109.9,195.3,109.8,195.3,109.7z M185.8,107.3c0,0.4-0.1,1-0.3,1.6
				c-0.1-1.2-0.2-2.3-0.3-3.4C185.6,105.6,185.8,106.2,185.8,107.3z M188.5,146.7c0.8,0,1.3,0.7,1.3,2c0,0.7-0.1,1.3-0.2,1.8
				c-0.4,0.2-0.7,0.4-1,0.5c-0.2-0.2-0.3-0.3-0.5-0.5c0-1.3,0-2.5,0-3.8C188.1,146.7,188.3,146.7,188.5,146.7z M188.2,165
				c0,0.1,0.1,0.2,0.1,0.3l-0.1,0.2c0-0.1,0-0.1,0-0.2c0,0,0-0.1,0-0.1C188.2,165.1,188.2,165.1,188.2,165z M189,278
				c-0.1-0.6-0.2-1-0.2-1.2c0-0.3,0-0.5,0-0.5c-0.1,0.1-0.3,0.1-0.5,0.2c-0.5,0.2-0.9,0.3-1.3,0.4c0.1-2.5,0.1-4.8,0.2-7.1
				c0.3-0.2,0.5-0.4,0.7-0.6c0,0.1,0,0.1,0,0.2c1.1-1.4,1.7-1.1,1.7,1c0,0.9-0.4,2.3-1.1,4.1c0.1,0,0.3,0.1,0.3,0.1
				c0,0,0,0.1,0.2,0.1c0.1,0,0.1,0.3,0.1,0.8c0,0.2,0,0.4-0.2,0.5c1.3,0,2.4,0.5,3.2,1.5c0-0.5,0-1.1,0-1.8c0-1.7,0.1-2.9,0.3-3.7
				c0.1,0,0.3,0,0.4,0c0.7,0,1.7-0.4,3-1.3c0.3-0.2,0.6-0.5,0.9-0.7c0.3,0.3,0.6,0.7,0.8,1.3c-0.1,0.3-0.2,0.6-0.3,0.7
				c-0.1,0.3-0.5,0.5-1,0.5c-0.7,0-1.4-0.2-2-0.6c0,0.1,0.1,0.3,0.1,0.4c-0.1,0-0.2,0-0.3,0c-1.3,0-1.9,0.7-1.9,2
				c0,1.1,0.7,1.7,2,1.7c0.2,0,0.3,0,0.5,0c0,1.6,0,3-0.2,4c-1.9,0.7-2.8,1.7-2.8,3c0,0,0.1,0.4,0.2,1c0.3,0.7,1,1,2,1
				c0,0,0.1,0,0.2,0c0.1,1.8,0.1,2.8,0.1,3c0,0.7-0.1,1.3-0.2,1.8c-0.3,0.2-0.6,0.4-1,0.5c-0.1,0.4-0.2,0.9-0.3,1.5
				c-0.4,1.5-0.6,2.7-0.7,3.4c-0.1,0.1-0.3,0.1-0.3,0.1c-0.1,0.6-0.5,1.4-1,2.4l-0.8,0.3c-0.4-0.1-0.7-0.3-0.8-0.5H189
				c0,0.1,0,0.2,0,0.3c-0.2-1.1-0.9-1.5-2.2-1.3c0-0.4,0-0.9,0-1.4c0-0.2,0-0.5,0-0.7c0-1.4,0.1-2.9,0.1-4.3
				c0.1,0.2,0.2,0.5,0.3,0.8c0.7,1.9,1.2,3.4,1.5,4.3c0-0.4,0-0.7,0.2-0.8c0.2-0.3,0.5-0.5,0.8-0.5c0-0.3,0-0.7,0-1.2
				c0-1.5,0.1-2.4,0.2-2.8c0.3-0.5,1-1,2.1-1.6c-0.2-0.5-0.3-1.1-0.5-1.7c-0.2,0.5-0.3,0.9-0.3,1.3c-0.1,0-0.3,0.1-0.5,0.3
				c-0.3,0.2-0.6,0.3-0.8,0.4c-0.6-0.4-1-0.9-1.2-1.5c-0.1-0.2-0.1-0.8-0.1-1.6l0-1c0.2-0.3,0.3-0.6,0.3-1c0-0.2,0.1-0.5,0.3-0.9
				c0.3,0,0.6,0.1,0.9,0.1c-0.1-0.4-0.3-0.8-0.4-1.2c0.2-0.5,0.3-0.8,0.3-1C190,278.9,189.7,278.3,189,278z M198.7,260.2
				c0,2.1,0,4.3,0,6.6c0,0.1,0,0.3,0,0.5c0,0.1,0,0.1,0,0.2c-0.1,0-0.1,0-0.2,0c-0.4-0.4-0.8-0.9-1-1.5c-0.2-0.4-0.3-0.7-0.3-1
				c0-0.9,0.3-2.1,0.8-3.6C198.3,260.9,198.5,260.5,198.7,260.2z M186.5,315.5c0.1-0.2,0.1-0.5,0.1-0.8c0-0.4-0.1-0.7-0.2-1
				c0-0.9,0-1.8,0-2.7c0.2-0.3,0.7-0.5,1.4-0.4c-0.1-0.2-0.1-0.4-0.2-0.6c-0.2-0.7-0.3-1.5-0.3-2.3c-0.2-0.2-0.4-0.4-0.5-0.6
				c-0.1,0.1-0.2,0.3-0.3,0.5c0,0.5-0.1,1-0.2,1.4c0-1.5,0.1-3.1,0.1-4.8c0,0.1,0,0.1,0,0.3c0,0.1,0,0.1,0,0.2c0-0.1,0-0.2,0-0.4
				c0-1,0.1-1.6,0.2-1.7c0.2-0.3,0.7-0.4,1.6-0.3c0.3-0.2,0.6-0.3,1-0.5c0.2,0.1,0.5,0.2,0.8,0.2c0.3,0.1,0.4,0.4,0.4,0.9
				c0,0.4-0.2,0.9-0.5,1.4s-0.5,1-0.5,1.3c0,1,0.3,2.4,1,4.4c0.2,0.6,0.4,1.1,0.5,1.5c0-1.4,0.4-2,1.3-2s1.3,0.7,1.3,2
				c0,0.7-0.1,1.3-0.2,1.8c-0.4,0.2-0.7,0.4-1,0.5c-0.3-0.3-0.6-0.6-0.8-1l0,0.2c0,0.5,0,0.8-0.1,0.9h-0.1l-0.1,0.2
				c-0.1,0.1-0.3,0.1-0.7,0.2v4c0.3,1.7,0.5,3.3,0.5,4.8c0,0.5,0,0.8-0.1,0.9H191l-0.1,0.2c0,0-0.1,0.1-0.2,0.2
				c0.4,0.3,0.6,0.7,0.8,1.2c0.2,1.1,0.5,1.9,0.7,2.5l-0.3,0.3c-0.2,0.2-0.5,0.3-1,0.3c-0.9,0-1.5-0.5-2-1.4
				c-0.1-0.5-0.2-0.9-0.3-1.4c-0.1,0-0.2,0-0.3,0c-1,0-1.6-0.4-1.8-1.2c-0.1-0.4-0.1-0.9,0-1.4l0-2c0.2,0,0.5,0,1-0.1
				c0.2,0,0.5,0,0.8,0c-0.1-0.5-0.2-1.1-0.3-1.8c-0.2-1.1-0.3-2.2-0.4-3.3c-0.1,0-0.3,0.1-0.3,0.1
				C187.1,316.2,186.8,315.8,186.5,315.5z"/>
			<path fill-rule="evenodd" clip-rule="evenodd" fill="#C2C2C9" d="M193.3,91c0.6,0,1.1,0,1.5,0.1c0.2,1.1,0.3,2.2,0.5,3.4
				c-0.1,0-0.1,0.1-0.2,0.1c-0.6,0.4-1.3,0.6-2.3,0.7c-0.3,0-0.6,0.1-1,0.1c-0.5,0-0.9-0.1-1.2-0.2c-0.3-0.1-0.5-0.3-0.6-0.6
				c-0.1-0.2-0.2-0.5-0.2-0.9c0-0.6,0.1-1,0.4-1.4c0.5-0.7,1.4-1.2,2.8-1.3C193,91,193.1,91,193.3,91C193.2,91,193.2,91,193.3,91z
				 M187.3,91.2c-0.2,0-0.3,0.1-0.5,0.1c-0.1,0-0.2,0.1-0.3,0.1c0.1-0.3,0.3-0.6,0.5-0.9c0.4-0.6,1-1.1,1.6-1.5c0,0.2,0,0.3,0,0.5
				c0,0.4-0.1,0.7-0.3,1C188,90.8,187.7,91,187.3,91.2z M188,100.8c0.1,0.2,0.1,0.5,0.1,0.8c0,0.4-0.2,0.9-0.6,1.3
				c-0.3,0.3-0.7,0.6-1.1,0.8c-0.4,0.1-0.8,0.2-1.3,0.3c-0.1-1.5-0.2-2.9-0.2-4.2c0.2,0,0.4,0,0.6,0c0.1,0,0.1,0,0.2,0
				C186.9,99.6,187.7,100,188,100.8z M186.8,104.2c0.4-0.5,1.1-0.9,2.1-1c0.3-0.1,0.6-0.1,0.9-0.1c0.1,0,0.1,0,0.2,0
				c1.3,0,2.1,0.2,2.6,0.6c0.1,0,0.1,0.1,0.2,0.1c0.2,0.3,0.3,0.7,0.3,1.2c0,0.4-0.2,0.8-0.5,1.2c-0.3,0.2-0.7,0.4-1.2,0.6
				c-0.5,0.2-1,0.4-1.5,0.4c-0.4,0-0.7,0.1-1,0.1c-1.2,0-2-0.3-2.3-0.8c0-0.1,0-0.4,0-0.9C186.5,105,186.6,104.6,186.8,104.2z
				 M187.7,130.9c-0.1-1.4-0.2-2.8-0.3-4.2c0.2,0,0.4,0,0.6,0c0.6,0,1.1,0.1,1.5,0.3c0.1,0.1,0.3,0.1,0.4,0.3
				c0.4,0.3,0.6,0.8,0.6,1.4c0,0.6-0.3,1.1-0.8,1.6c0,0-0.1,0.1-0.2,0.1c-0.4,0.3-0.9,0.5-1.3,0.6
				C188.1,130.9,187.9,130.9,187.7,130.9L187.7,130.9z M191.1,138.8c-0.1,0.1-0.2,0.2-0.3,0.3c-0.3,0.2-0.6,0.3-1,0.3
				c-1,0-1.6-0.3-1.8-1c0-0.7,0-1.4,0-2.1c0.2-1,0.8-1.6,1.8-1.6c0.1,0,0.3,0,0.4,0c0.9,0,1.4,0.7,1.4,2c0,0.1,0,0.1,0,0.3
				C191.6,137.8,191.4,138.4,191.1,138.8z M193.7,147.9c-0.2,0-0.3,0-0.5,0c-0.2,0-0.3,0-0.5,0c-0.9-0.1-1.5-0.4-1.8-1
				c0,0,0-0.1,0-0.1c-0.1-0.3-0.2-0.7-0.1-1c0-1.5,0.8-2.2,2.4-1.9c1.6,0.3,2.3,1,2.3,2.1C195.6,147.1,195,147.7,193.7,147.9z
				 M193.5,151.9c0.7,0.4,1,1.4,1,3.1c0,0.9-0.4,1.4-1.3,1.7c-0.4,0.1-0.8,0.1-1.3,0.1c-0.4,0-0.7,0-1-0.1c-0.1,0-0.2-0.1-0.3-0.1
				c-0.6-0.2-1-0.5-1.2-0.9c-0.2-0.4-0.2-0.8-0.2-1.1c0-0.3,0-0.5,0.1-0.8c0.2-0.7,0.6-1.3,1.3-1.7c0.3-0.2,0.8-0.4,1.3-0.5
				C192.6,151.6,193.2,151.7,193.5,151.9z M191.1,182c0.1-0.2,0.3-0.4,0.5-0.5c0.4-0.3,1-0.4,1.7-0.4c0.3,0,0.6,0.1,0.8,0.2
				c0.9,0.2,1.4,0.7,1.5,1.5c0,0.1,0,0.3,0,0.4c0,0.4-0.1,0.8-0.3,1c-0.4,0.5-1,0.8-2,0.8c-1,0-1.6-0.2-2-0.5
				c-0.1-0.1-0.2-0.2-0.3-0.3c-0.1-0.1-0.2-0.5-0.2-1C190.8,182.6,190.9,182.3,191.1,182z M194.3,176.1c0.8-0.1,1.4-0.1,1.9,0.1
				c0,0,0,0,0,0c0.6,0.3,0.9,0.9,0.9,1.8c0,0.6-0.4,1.2-1.3,1.7c-0.3,0.1-0.6,0.3-0.9,0.4c-0.2,0.1-0.5,0.2-0.7,0.3
				c-0.9,0.3-1.6,0.4-2.2,0.4c-1.2,0-2-0.2-2.4-0.6c0-0.1-0.1-0.1-0.1-0.2c-0.1-0.1-0.2-0.5-0.2-1c0-0.5,0.3-1,0.9-1.4
				c0.6-0.5,1.6-0.9,3-1.3C193.6,176.3,194,176.2,194.3,176.1z M188.8,186c1.2,0.2,1.8,0.9,1.8,2.1c0,0.7-0.3,1.2-1,1.5
				c-0.3,0.1-0.6,0.2-1,0.3c0-1.3,0-2.6,0-3.8C188.6,186,188.7,186,188.8,186z M188.5,196c0.1,0,0.2,0,0.3,0c0.9,0.1,1.6,0.3,2,0.8
				c0.2,0.3,0.3,0.7,0.3,1.2c0,0.3-0.1,0.6-0.2,0.9c-0.2-0.2-0.4,0-0.5,0.5c-0.3,0.2-0.6,0.3-0.9,0.3c-0.2,0-0.5,0-0.8,0
				c-0.1,0-0.1,0-0.2,0c0-0.2,0-0.4,0-0.6c0-0.1,0-0.1,0-0.2C188.5,198,188.5,197,188.5,196z M193,204.8c-0.1,0-0.2,0-0.3,0
				c-0.9,0-1.5-0.3-1.8-1c-0.1-0.3-0.2-0.7-0.2-1.1c0-0.8,0.4-1.4,1.1-1.9c0.3-0.2,0.8-0.4,1.3-0.5c1.6-0.3,2.3,0.2,2.3,1.7
				c0,0.4-0.3,1-1,1.7C194,204.3,193.5,204.7,193,204.8z M193.8,218.8c-0.1,0-0.2,0-0.3,0c-1.3,0-2.1-0.3-2.5-1
				c-0.2-0.4-0.3-0.8-0.2-1.1c0-1.4,1-2.6,3.2-3.7c0.1,0,0.1-0.1,0.2-0.1c1.3-0.6,2.2-0.6,2.6,0.1c0.2,0.3,0.3,0.8,0.3,1.5
				c0,0.4-0.1,0.7-0.3,1c-0.1,0.1-0.1,0.1-0.2,0.2c-0.3,0.4-0.5,0.8-0.5,1.2C196,218.2,195.3,218.8,193.8,218.8z M198,219.2
				c0.1-0.6,0.3-1.2,0.6-1.8c0,1.8,0,3.6,0,5.5l-0.7-0.2c-0.1-0.3-0.2-0.8-0.2-1.7C197.8,220.5,197.9,219.9,198,219.2z M194.3,255.8
				l-0.3,0.3c-0.3,0.2-0.7,0.3-1.2,0.3c-0.4,0-0.8-0.1-1.1-0.3c-0.5-0.3-0.9-0.8-1.1-1.5l-0.3-1.7c0-0.2,0-0.5,0-0.7
				c0,0,0-0.1,0-0.1c0-0.8,0.2-1.3,0.4-1.6c0.3-0.4,0.7-0.5,1.3-0.2c0.3,0.1,0.5,0.3,0.8,0.5c0.7,0.7,1.3,1.9,1.8,3.5L194.3,255.8
				L194.3,255.8z M198.7,233.6c0,0.7,0,1.5,0,2.2c-0.4,0.5-1,1.1-2,1.8c0.2,0.3,0.3,0.8,0.3,1.4v0c0,0.9-0.7,1.7-2.1,2.3
				c0.2,0,0.3,0.1,0.5,0.2c0.6,0.2,1.2,0.4,1.6,0.6c1,0.5,1.5,1.1,1.5,1.9c0,0.8-0.3,1.3-1,1.6c-0.1,0-0.3,0.1-0.5,0.2
				c-0.4,0-0.8,0-1.3,0c-1.4,0-2.3-0.4-3-1.3v0c-0.3-0.5-0.5-1-0.5-1.6c0-0.5,0.1-0.9,0.4-1.1c-0.2-0.1-0.4-0.1-0.5-0.2
				c-0.6-0.3-0.9-0.8-0.9-1.5c0-1.1,0.5-1.9,1.5-2.5c0.3-0.2,0.7-0.3,1.2-0.4c-0.1-0.6-0.2-0.9-0.2-1c0-1.4,0.9-2.3,2.5-2.8
				c0,0,0.1-0.1,0.1-0.1C197.5,233,198.3,233.1,198.7,233.6z M190.8,233c-0.3,0.2-0.6,0.5-1,0.8c-0.2,0.1-0.4,0.3-0.5,0.4
				c-0.4,0.2-0.7,0.4-1,0.6c0.1-1.7,0.1-3.1,0.1-4.3c0-0.2,0-0.4,0-0.6c0.9,0,1.6,0.1,2.1,0.3c0.7,0.3,1.1,0.9,1.1,1.8
				C191.5,232.2,191.3,232.5,190.8,233z M188,269.1c-0.2,0.2-0.4,0.4-0.7,0.6c0-1.6,0-3.2,0.1-4.8c0.1,0,0.1,0,0.3,0
				c0.6,0,1,0.3,1.3,0.9c0.1,0.3,0.1,0.7,0.1,1.1C189,267.7,188.7,268.4,188,269.1z M196.9,269.8c-0.3,0.2-0.6,0.4-0.9,0.7
				c-1.3,0.9-2.3,1.3-3,1.3c-0.1,0-0.3,0-0.4,0c-1.2-0.1-1.8-0.7-1.8-1.7c0-0.8,1-1.7,2.9-2.8c0.2-0.2,0.5-0.3,0.8-0.5
				c0.9-0.5,1.6-0.7,2.2-0.7c0.9,0,1.4,0.6,1.4,1.9C198,268.5,197.7,269.1,196.9,269.8z M194.8,275.7c-0.2,0-0.3,0-0.5,0
				c-1.3,0-2-0.6-2-1.7c0-1.3,0.6-2,1.9-2c0.1,0,0.3,0,0.3,0c1,0.1,1.5,0.8,1.5,1.9c0,0.5-0.2,1-0.5,1.3
				C195.3,275.5,195,275.6,194.8,275.7z M194.6,279.8c0,0,0.1,0,0.1,0c0.6-0.2,1.1-0.3,1.5-0.3c0.9,0.1,1.3,0.7,1.3,2
				c0,1-0.6,1.8-1.7,2.5c0,0-0.1,0-0.1,0c-0.7,0.4-1.2,0.7-1.6,0.8c-0.1,0-0.1,0-0.2,0c-1,0-1.7-0.3-2-1c-0.1-0.7-0.2-1-0.2-1
				C191.8,281.4,192.7,280.4,194.6,279.8z M187.1,278c0,0,0.1,0,0.2,0c0.7-0.1,1.3-0.1,1.7,0c0.7,0.3,1.1,0.9,1.1,2
				c0,0.2-0.1,0.6-0.3,1c-0.1,0.1-0.2,0.3-0.3,0.5c-0.1,0.2-0.2,0.5-0.3,0.6c-0.2,0.4-0.3,0.7-0.3,0.9c0,0.4-0.1,0.7-0.3,1
				c-0.1,0.1-0.2,0.3-0.3,0.3c-0.3,0.3-0.7,0.5-1.2,0.5c-0.1,0-0.2,0-0.3,0c0-1.5,0.1-3.1,0.1-4.7c0-0.4,0-0.7,0-1
				C187,278.7,187.1,278.4,187.1,278z M186.8,296.2c1.3-0.2,2,0.2,2.2,1.3c0,0.2,0,0.3,0,0.5c0,0.8-0.7,1.7-2,2.8
				c-0.1,0.1-0.2,0.1-0.3,0.2C186.8,299.4,186.8,297.8,186.8,296.2z M197.5,291.3c-0.1-0.7-0.2-1-0.2-1c0-0.3,0.1-0.6,0.4-1
				c-0.1,0.7-0.1,1.5-0.2,2.2C197.5,291.4,197.5,291.3,197.5,291.3z M194.3,304.7c0.1,0,0.1-0.1,0.2-0.1c0.3-0.1,0.6-0.2,0.8-0.3
				c0.5-0.1,1-0.1,1.3,0.1c-0.1,1-0.2,2.1-0.2,3.1c-0.2,0.2-0.3,0.3-0.5,0.5c-0.9,0.8-1.5,1.3-2,1.3c-1.3,0-2-0.6-2-1.8
				c0-0.1,0-0.3,0-0.4C192,306.1,192.8,305.3,194.3,304.7z M195,322.8c0.2-0.1,0.5-0.1,0.8-0.1h0c0,1.7,0,3.2,0.2,4.6
				c0,0-0.1,0-0.2,0c-1.1,0-1.8-0.3-2-1c0-0.8,0-1.2,0-1.3c0-0.8,0.2-1.4,0.5-1.8C194.5,323,194.7,322.9,195,322.8z M186.5,313.7
				c0.1,0.3,0.2,0.6,0.2,1c0,0.3,0,0.5-0.1,0.8c0,0.1-0.1,0.3-0.1,0.3C186.5,315.1,186.5,314.4,186.5,313.7z M190.8,332.8
				c0.5-0.5,1.3-1,2.3-1.3c1.1-0.5,2-0.6,2.5-0.2c0.1,0.1,0.2,0.3,0.3,0.3c0.2,0.3,0.3,0.8,0.3,1.4c0,0.9-0.6,1.7-1.8,2.5
				c-0.5,0.3-1,0.5-1.4,0.7c-0.3,0.1-0.6,0.1-0.8,0.1c-0.3,0-0.6,0-0.8,0c-0.4-0.1-0.7-0.3-0.9-0.5c-0.1-0.1-0.2-0.2-0.3-0.3
				c-0.1-0.2-0.2-0.5-0.2-1C189.8,333.9,190.2,333.3,190.8,332.8z M190.8,338.1c0.5-0.4,0.9-0.6,1.3-0.5c0.6,0,1,0.5,1,1.4
				c0,0.2,0,0.3,0,0.5c0,0.1,0,0.3-0.1,0.6h-4.2c0.3-0.4,0.6-0.8,1-1.1C190.1,338.6,190.5,338.3,190.8,338.1z"/>
			<path fill-rule="evenodd" clip-rule="evenodd" fill="#FFFFFF" d="M194.8,91.1c-0.4-0.1-0.9-0.2-1.5-0.1c0-0.1,0-0.2,0-0.3
				c0-0.2,0.1-0.5,0.2-0.8c0.2-0.4,0.5-0.8,0.8-1.1c0,0.1,0.1,0.1,0.1,0.3v0C194.5,89.8,194.7,90.4,194.8,91.1z M190.6,95.1
				c0.3,0.1,0.7,0.2,1.2,0.2c0.4,0,0.7,0,1-0.1c0,0.2,0,0.3,0,0.5c-0.5,0.2-0.9,0.4-1.3,0.6C191.1,96.1,190.8,95.7,190.6,95.1z
				 M186.5,91.5c0.1,0,0.2-0.1,0.3-0.1c0.2-0.1,0.3-0.1,0.5-0.1c0.2,0.6,0.3,1.2,0.5,1.6l-0.3,0.4c-0.2,0.2-0.5,0.3-1,0.3
				c-0.3,0-0.5,0-0.7-0.1c0.1-0.4,0.2-0.8,0.4-1.3c0-0.1,0.1-0.1,0.1-0.2C186.3,91.7,186.4,91.6,186.5,91.5z M184.9,99.6
				c0-0.2-0.1-0.3-0.1-0.5c0,0,0-0.1,0-0.1v-0.2c0-1.1,0.1-2.4,0.5-3.9c0.1,0.4,0.2,0.9,0.3,1.6c0.1,0,0.3,0,0.3,0.1
				c0,0,0,0.1,0.2,0.1c0.1,0,0.1,0.3,0.1,0.8c0,0.2-0.2,0.4-0.5,0.8c0,0.1,0,0.3,0,0.4c0,0.3,0,0.7,0,1c-0.1,0-0.1,0-0.2,0
				C185.3,99.6,185.1,99.6,184.9,99.6z M186.4,103.6c0.4-0.2,0.8-0.4,1.1-0.8c0.4-0.4,0.6-0.9,0.6-1.3c0-0.3,0-0.6-0.1-0.8
				c0.4,0,1,0,1.5,0.1c0,0,0,0.1,0.2,0.1c0.1,0,0.1,0.3,0.1,0.8c0,0.3-0.3,0.8-0.8,1.5c-1,0.1-1.7,0.5-2.1,1
				C186.6,104,186.5,103.8,186.4,103.6z M192.8,103.9c0-0.1-0.1-0.1-0.2-0.1c-0.5-0.4-1.3-0.6-2.6-0.6c-0.1,0-0.1,0-0.2,0
				c0.1-1.6,0.6-2.3,1.5-2C192.2,101.5,192.7,102.4,192.8,103.9z M191.6,136.6c-0.1-1.3-0.5-2-1.4-2c-0.1-0.4-0.2-0.8-0.3-1.3
				c-0.1-0.4-0.1-1.5-0.1-3.2c0.6-0.5,0.8-1,0.8-1.6c0-0.7-0.2-1.1-0.6-1.4c0.2-1.1,0.6-0.7,1.3,1c1,2.7,1.5,4.7,1.5,6
				c0,0.9-0.1,1.5-0.2,2C192.2,136.4,191.9,136.5,191.6,136.6z M193.7,147.9c1.3-0.1,1.9-0.8,1.9-2c0-1.1-0.8-1.8-2.3-2.1
				c0-0.1,0-0.2,0-0.3c0-0.2,0-0.4,0-0.6c-0.1,0-0.2,0-0.3,0c-0.7,0-1.3-0.5-1.8-1.5c-0.3-0.7-0.5-1.3-0.5-1.6c0-0.4,0-0.6,0-0.6
				c0.1-0.1,0.2-0.2,0.3-0.3c0.7,0,1.5,0.3,2.2,0.9c0.2,0.2,0.4,0.3,0.5,0.5c0.1-0.3,0.2-0.5,0.3-0.6c-0.4-0.2-0.8-0.5-1.2-0.9
				c-0.5-0.6-0.9-1.1-1-1.7c0.9-0.4,1.7-0.4,2.4,0c0.7,0.3,1.3,0.9,1.6,1.9c0.2,0.4,0.3,0.9,0.5,1.5c0,0.2,0,0.5,0,0.9
				c0,0,0.1,0,0.1,0c0.3,0.1,0.4,0.4,0.4,0.9c0,0.2-0.2,0.7-0.5,1.4c-0.2,2.5-0.7,4.2-1.5,5.1c0.1,0,0.1,0.3,0.1,0.8
				c0,0.1-0.3,0.6-0.8,1.5c-0.2,0.3-0.4,0.7-0.4,1.2c-0.4-0.2-0.9-0.3-1.5-0.1c-0.5,0.1-0.9,0.3-1.3,0.5c0-0.2,0-0.4,0-0.6
				c-0.2-0.3-0.3-0.8-0.4-1.3c-0.1-0.7-0.1-1.2,0-1.6c0-1.2,0.2-1.9,0.7-2.1c0,0.1,0,0.1,0,0.1c0.3,0.6,0.9,0.9,1.8,1
				c0,0.1,0.1,0.3,0.2,0.5c0.4,0.1,1,0.2,1.5,0.4c0-0.1,0.1-0.1,0.1-0.1c0,0-0.1,0-0.1,0C194.2,148.3,193.9,148,193.7,147.9z
				 M187.7,130.9L187.7,130.9c0.2,0,0.4,0,0.5,0c-0.1,0.4-0.2,0.8-0.2,1.1c-0.1,0.1-0.2,0.1-0.3,0.1
				C187.7,131.7,187.7,131.3,187.7,130.9z M193.3,156.7c0,0.1,0,0.1,0,0.2c0.1,0,0.3,0.1,0.6,0.1c0.3,0.1,0.4,0.4,0.4,0.9
				c0,1.1-0.2,2.7-0.5,4.6c-0.3,2-0.5,3.9-0.5,5.6c-0.5,0.3-0.9,0.5-1.3,0.6c-0.6-0.4-1-1.2-1.2-2.2c-0.1-0.3-0.1-1-0.1-2.1
				c-0.1,0-0.2,0-0.3,0c-1,0-1.6-0.5-1.8-1.4c-0.1-0.4-0.1-0.8,0-1c0-1.3,0.3-2,1-2c0.4,0,0.7,0.3,1,0.8c0-0.4,0-0.7,0.1-0.9
				c0.1-0.8,0.4-1.5,0.8-2c-0.3-0.4-0.6-0.8-0.8-1.2c0.3,0,0.6,0.1,1,0.1C192.5,156.9,192.9,156.8,193.3,156.7z M190.7,156.7
				c-0.3,0.6-0.5,1.1-0.5,1.4c-0.1,0-0.3,0.1-0.5,0.3c-0.3,0.2-0.6,0.3-0.8,0.4c-0.4-0.3-0.7-0.7-0.9-1.2c0-1,0-2.1,0-3.1
				c0.3-0.3,0.8-0.5,1.4-0.5c-0.1,0.2-0.1,0.5-0.1,0.8c-0.1,0.4,0,0.8,0.2,1.1C189.7,156.3,190.1,156.5,190.7,156.7z M195.5,97.3
				c0.1,1.8,0.3,3.5,0.4,5.2c-0.1,0.6-0.3,1.1-0.4,1.6c-0.4,0.2-0.7,0.3-1,0.4c-0.4-0.4-0.8-0.9-1-1.5c-0.2-0.4-0.3-0.7-0.3-0.9
				c0-0.9,0.3-2.1,0.8-3.6c0.4-1,0.8-1.7,1.2-2.3c0-0.1,0-0.3,0.1-0.4C195.4,96.3,195.5,96.7,195.5,97.3L195.5,97.3z M191.8,120.1
				c0-1.2,0-2,0.1-2.4c0.1-1.1,0.5-1.9,1.2-2.2c0.6,0.2,1,0.6,1.3,1v7.5c-0.5,0.2-0.9,0.4-1.3,0.6c-0.6-0.3-1-1.1-1.2-2.2
				C191.8,122,191.8,121.3,191.8,120.1z M196.8,126.1c0.3,0.8,0.6,1.6,0.8,2.3c0,1,0,1.9,0,2.9v2.1c0,0-0.1,0-0.1,0
				c-1,0-1.7-1.1-2.3-3.2c-0.3-1-0.4-2-0.5-3C194.8,123.4,195.4,123,196.8,126.1z M188,139c0.4,0.1,0.8,0.3,1,0.6l0-0.1
				c0.6,0.2,1,0.6,1.3,1v4.6c-0.5,0.2-0.9,0.4-1.3,0.6c-0.5-0.3-0.8-0.6-1-1C188,142.8,188,140.9,188,139L188,139z M197.6,141.5
				c0,3.1,0.1,6.3,0.2,9.8c0,0.1,0,0.1,0,0.3c0,0.1,0,0.1,0,0.2c-0.3,0.1-0.5,0.2-0.8,0.3c-0.6-0.4-1-0.9-1.2-1.5
				c-0.1-0.2-0.1-0.7-0.1-1.4c0-1.3,0.1-2.1,0.2-2.3c0.2-0.4,0.7-0.6,1.5-0.5c-0.1-0.2-0.1-0.4-0.2-0.5c-0.3-1.5-0.5-3-0.5-4.5
				c0-1.1,0.1-1.7,0.2-2c0.1-0.2,0.3-0.5,0.6-0.8v2.9C197.6,141.4,197.6,141.5,197.6,141.5z M197.3,157c0.2,0,0.4,0,0.7,0
				c0.1,1.5,0.1,3,0.1,4.6c0,0-0.1,0-0.1,0c-1,0-1.6-0.4-1.8-1.2c-0.1-0.4-0.1-0.9,0-1.4l0-2C196.5,157,196.8,157,197.3,157z
				 M196.5,163c0.2,0.4,0.3,1,0.3,2c-0.1,0.3-0.2,0.5-0.3,0.6c-0.1,0.2-0.5,0.3-1,0.3c-0.7,0-1.2-0.4-1.5-1.3
				c-0.2-0.5-0.3-1-0.3-1.5c0-0.2,0.1-0.4,0.2-0.8c0.2-0.5,0.5-0.9,1-1.3C195.8,162,196.3,162.6,196.5,163z M194.3,176.1
				c-0.1-0.2-0.2-0.4-0.3-0.6c-0.2-0.4-0.3-0.7-0.3-1c0-0.9,0.3-2.1,0.8-3.6c0.4-1,0.8-1.7,1.2-2.3c0-0.3,0.1-0.5,0.2-0.6
				c0.4-0.4,1.2-0.6,2.3-0.6c0,1.1,0,2.3,0,3.4c-0.4,0.3-0.7,0.6-1,0.8c-0.1,0.2-0.1,0.4-0.2,0.6c-0.5,1.7-0.8,3-1,4.1
				C195.7,176,195.1,176,194.3,176.1z M195.3,184.1c0.2-0.3,0.3-0.6,0.3-1c0-0.1,0-0.3,0-0.4c0.1-0.1,0.2-0.2,0.3-0.2
				c0-0.1-0.1-0.2-0.1-0.3c-0.1-0.3-0.1-1.1-0.1-2.3c0-0.1,0-0.1,0-0.2c0.9-0.5,1.3-1,1.3-1.7c0-0.9-0.3-1.5-0.9-1.8
				c0.2-0.4,0.5-0.6,0.8-0.6c0.8,0.1,1.3,1.5,1.3,4.3c0,0.9,0,1.7,0,2.4c0.1,0,0.3,0.1,0.4,0.1c0,0.1,0,0.2,0,0.3
				c0,0.5,0.1,1.1,0.1,1.7c-0.1,0.1-0.2,0.1-0.3,0.2c-1.2,0.4-1.8,0.6-1.8,0.6c-0.5-0.2-0.8-0.3-0.9-0.4
				C195.5,184.6,195.4,184.4,195.3,184.1z M190.8,196.8c-0.4-0.5-1-0.7-2-0.8c-0.1,0-0.2,0-0.3,0c0-2.2,0-4.3,0-6.3
				c0.4,0,0.8-0.1,1-0.3c0.7-0.3,1-0.8,1-1.5c0-1.2-0.6-1.9-1.8-2.1c0-0.3,0-0.6,0-1c0-2.6,0.3-4.2,0.8-4.8c0.4,0.4,1.2,0.6,2.4,0.6
				c0.6,0,1.3-0.1,2.2-0.4c0,0,0.1,0.1,0.1,0.1c-0.1,0.3-0.1,0.5-0.2,0.7c-0.2-0.1-0.5-0.1-0.8-0.2c-0.7,0-1.3,0.1-1.7,0.4
				c-0.2-0.1-0.4-0.2-0.6-0.4c0.1,0.2,0.1,0.5,0.1,0.9c-0.2,0.3-0.3,0.7-0.3,1.1c0,0.5,0.1,0.8,0.2,1c0.1,0.1,0.2,0.2,0.3,0.3
				c0,0.2,0,0.4,0,0.7c0,1.8-0.1,3.3-0.2,4.5c-0.3,0.1-0.5,0.3-0.8,0.3c0.1,0.4,0.2,0.7,0.3,1.1
				C190.6,194.1,190.7,196.1,190.8,196.8z M190.5,199.5c0.1-0.5,0.3-0.7,0.5-0.5c0.2,0.2,0.5,0.7,0.8,1.6c0,0.1,0.1,0.2,0.2,0.3
				c-0.7,0.4-1.1,1.1-1.1,1.9c0,0.5,0.1,0.8,0.2,1.1c0.3,0.7,0.9,1,1.8,1c0.1,0,0.2,0,0.3,0c0.1,0.7,0.2,1.3,0.2,1.8
				c0,0.9-0.1,1.5-0.2,2c-0.4,0.2-0.7,0.4-1,0.5c-0.9-0.7-1.5-1.8-1.7-3.3c-0.1-0.4-0.1-1.6-0.1-3.6
				C190.3,200.9,190.3,200,190.5,199.5z M188.5,199.8c0.1,0,0.1,0,0.2,0c0.3,0,0.6,0,0.8,0c-0.1,0.3-0.2,0.7-0.3,1.2
				c-0.4,1.5-0.6,2.7-0.7,3.4C188.5,202.9,188.5,201.3,188.5,199.8z M193.3,176.3c-1.4,0.4-2.4,0.8-3,1.3c-0.1-0.6-0.1-1,0-1.4
				c0-2.1,0.5-3,1.5-2.6C192.7,173.9,193.2,174.8,193.3,176.3z M188.3,173.3c0,0,0-0.1,0-0.1c0.5,0,1,0.1,1.7,0.2c0,0,0,0.1,0.2,0.1
				c0.1,0,0.1,0.3,0.1,0.8c0,0.3-0.3,0.8-0.9,1.5c-0.4,0.4-0.7,0.8-0.9,1C188.4,175.5,188.3,174.3,188.3,173.3z M192.3,192.5
				c0-1.2,0-2,0.1-2.3c0.1-1.1,0.5-1.9,1.2-2.2c0.6,0.2,1,0.5,1.3,1v7.5c-0.5,0.2-0.9,0.4-1.3,0.6c-0.6-0.4-1-1.1-1.2-2.2
				C192.3,194.5,192.3,193.7,192.3,192.5z M195.3,199.5c0-3.7,0.7-4.1,2-1c0.6,1.7,1.1,3.1,1.5,4c0,1,0,2,0,3.1c-0.2,0-0.4,0-0.7,0
				c-1,0-1.7-1.1-2.3-3.2C195.5,201.5,195.3,200.5,195.3,199.5z M189.5,212c0.6,0.3,1,0.6,1.3,1v4.6c-0.5,0.2-0.9,0.4-1.3,0.6
				c-0.5-0.3-0.8-0.6-1-1c0-1.3,0-2.6,0-3.9C188.7,212.7,189,212.3,189.5,212z M191.2,221.3c0.1,0,0.1,0.3,0.1,0.8
				c0,0.7-0.3,1.7-1,3l-0.8,0.3c-0.5-0.2-0.9-0.4-1-0.8c0-1,0-2,0-3c0.3-0.6,1.2-0.7,2.5-0.4C191,221.2,191,221.2,191.2,221.3z
				 M194.2,213c0.3-1.2,0.8-2,1.3-2.4c0.6,0.3,1,1.1,1.2,2.2c0,0.1,0,0.2,0,0.3C196.3,212.3,195.5,212.3,194.2,213z M198.7,217.5
				c-0.3,0.6-0.5,1.2-0.6,1.8c-0.1-0.3-0.2-0.7-0.3-1c-0.3-1.5-0.5-3-0.5-4.5c0-1.1,0.1-1.7,0.2-2c0.2-0.4,0.6-0.7,1.2-1.1
				c0,0.4-0.1,0.8-0.1,1.2c0,0.2,0,0.3,0,0.5C198.6,214,198.6,215.7,198.7,217.5z M193.8,218.8c1.5-0.1,2.3-0.7,2.3-1.9
				c0-0.4,0.2-0.8,0.5-1.2c0.1-0.1,0.1-0.1,0.2-0.2c-0.2,2.8-0.8,4.7-1.8,5.5c-0.8-0.8-1.3-1.3-1.3-1.3
				C193.8,219.5,193.8,219.2,193.8,218.8z M198.7,228.2c0,0.6,0,1.1,0,1.7c0,0,0,0.1,0,0.2c-0.2,0-0.4,0-0.7,0c-0.6,0-1.1-0.3-1.7-1
				c-0.5-0.6-0.9-1.1-1-1.7c0.9-0.4,1.7-0.4,2.4-0.1C198,227.5,198.4,227.8,198.7,228.2z M196.3,233.4c-0.6-0.1-1.2-0.6-1.6-1.5
				c-0.3-0.7-0.5-1.3-0.5-1.7c0-0.4,0-0.7,0-0.7c0.1-0.1,0.2-0.1,0.2-0.3c0.8,0,1.5,0.3,2.3,0.9c0.7,0.6,1.1,1.1,1,1.6l-0.1,0.8
				c0.2-0.3,0.6-0.6,1-0.9c0,0.5,0,1,0,1.5c0,0.1,0,0.2,0,0.3c0,0,0,0.1,0,0.1c-0.4-0.5-1.1-0.5-2.2-0.3
				C196.4,233.3,196.4,233.4,196.3,233.4z M189.2,234.2c0,0.4-0.1,0.8-0.2,1.1c0,0.1,0,0.2,0,0.3c-0.1,0.2-0.4,0.3-0.9,0.3
				c0-0.4,0.1-0.7,0.1-1C188.5,234.6,188.8,234.4,189.2,234.2z M190.8,233c0.5-0.5,0.8-0.8,0.8-1c0-0.9-0.4-1.5-1.1-1.8
				c0.2-0.5,0.5-0.7,1-0.7c0.8,0.1,1.3,0.7,1.3,1.9c0,0.6-0.1,1.1-0.2,1.6c-0.4,0.2-0.7,0.3-1,0.4
				C191.2,233.3,190.9,233.2,190.8,233z M191.7,256l-0.2,0.2c-0.2,0.2-0.5,0.3-1,0.3c-0.9,0-1.5-0.5-2-1.5c-0.1-0.5-0.2-0.9-0.3-1.4
				c-0.1,0-0.2,0-0.3,0c-0.1,0-0.3,0-0.3,0c0-1.6,0.1-3.1,0.1-4.6c0.1,0,0.2,0,0.3,0c-0.1-0.4-0.1-0.9-0.3-1.4
				c0.1-2.9,0.1-5.6,0.2-8.2c0-0.3,0-0.5,0-0.8c0-0.1,0-0.1,0-0.2c0.2,0,0.3,0,0.5,0.1c0,0,0,0.1,0.2,0.1c0.1,0,0.1,0.3,0.1,0.8
				c0,0.3,0,0.7-0.1,1.3c0,0.1,0.1,0.2,0.1,0.3c0.1-0.1,0.2-0.2,0.3-0.3c0.6,0.2,1,0.6,1.3,1v4.5c0.3,1.5,0.5,3,0.5,4.4
				c-0.2,0.3-0.4,0.8-0.4,1.6c0,0-0.1,0-0.1,0c0,0,0.1,0,0.1,0c0,0.2,0,0.5,0,0.7l0.3,1.7C190.8,255.2,191.2,255.7,191.7,256z
				 M194.3,255.8L194.3,255.8l0.3-1.5c-0.4-1.6-1-2.8-1.8-3.5c0.1-0.1,0.3-0.2,0.5-0.2c0.4,0,0.7,0.3,1,0.8c0-0.4,0-0.7,0.1-0.9
				c0.1-0.8,0.4-1.5,0.8-2c-0.3-0.3-0.6-0.7-0.8-1.2c-0.1-0.1-0.1-0.3-0.2-0.4c0,0.1-0.1,0.1-0.1,0.2c-0.3,0.6-0.5,1.1-0.5,1.5
				c-0.1,0-0.3,0.1-0.5,0.3c-0.3,0.2-0.6,0.3-0.8,0.4c-0.4-0.4-0.8-0.8-1-1.4c-0.2-0.4-0.3-0.7-0.3-0.9c0-1,0.1-1.6,0.2-1.9
				c0.3-0.4,0.7-0.6,1.3-0.6c0.6,0.8,1.6,1.3,3,1.3c0.5,0,1,0,1.3,0c0,0.1-0.1,0.2-0.1,0.4c-0.1,0.5-0.2,0.9-0.3,1.3
				c0.1,0,0.3,0.1,0.6,0.1c0.3,0.1,0.4,0.4,0.4,0.9c0,1.1-0.2,2.7-0.5,4.6c-0.3,2-0.5,3.9-0.5,5.7c-0.5,0.2-0.9,0.4-1.3,0.6
				c-0.6-0.4-1-1.1-1.2-2.2C194.3,256.9,194.3,256.4,194.3,255.8z M197,242c-0.4-0.2-1-0.5-1.6-0.6c-0.2-0.1-0.4-0.1-0.5-0.2
				c1.4-0.6,2.1-1.3,2.1-2.3c0.3,0.1,0.6,0.2,1,0.3c0.2-0.5,0.3-0.3,0.3,0.5c0,0.1-0.3,0.6-0.8,1.5C197.2,241.5,197.1,241.8,197,242
				z M192.8,237.6c-1,0.6-1.5,1.4-1.5,2.5c0,0.7,0.3,1.2,0.9,1.5c-0.1,0-0.1,0-0.2,0c-0.4-0.4-0.8-0.9-1-1.4
				c-0.2-0.4-0.3-0.7-0.3-0.9c0-1.4,0.4-2,1.3-2C192.4,237.3,192.7,237.4,192.8,237.6z M198.5,251.6c0.1,0.1,0.1,0.1,0.2,0.2
				c0,0.1,0,0.3,0,0.5c0,0.1,0,0.3,0,0.5c0,1.2,0,2.4,0,3.6c-0.5-0.1-0.9-0.5-1.2-1.2c-0.2-0.5-0.3-1-0.3-1.5c0-0.2,0.1-0.5,0.2-0.8
				C197.7,252.4,198,252,198.5,251.6z M188.9,265.8c-0.2-0.6-0.6-0.9-1.3-0.9c-0.1-0.3-0.2-0.6-0.3-0.9c0-2,0.1-3.9,0.1-5.8
				c0.2-0.8,0.5-1.2,1-1.2c0.6,0,1,0.8,1.2,2.4c0.1,0,0.3,0,0.3,0c0,0,0,0.1,0.2,0.1c0.1,0,0.1,0.3,0.1,0.8c0,0.2-0.2,0.4-0.5,0.8
				c0,0.1,0,0.3,0,0.3c0,1.7-0.1,3-0.2,4C189.3,265.7,189.1,265.8,188.9,265.8z M196.7,266.1c-0.6,0-1.3,0.2-2.2,0.7
				c-0.3,0.1-0.5,0.3-0.8,0.5c0-0.2,0-0.4,0-0.5c0-2.1,0.5-3,1.5-2.7C196,264.4,196.5,265,196.7,266.1z M187.1,278L187.1,278
				c0.1,0,0.1,0,0.2,0C187.2,278,187.1,278,187.1,278z M195.8,284C195.8,284,195.8,284,195.8,284c1.2-0.8,1.8-1.6,1.8-2.5
				c0-1.3-0.5-1.9-1.3-2c0.2-0.4,0.4-0.8,0.8-1c0.6,0.2,1,0.5,1.3,1v0.8c-0.1,1.3-0.1,2.5-0.2,3.7c-0.1,1.1-0.1,2.2-0.2,3.3
				c-0.3,0.2-0.6,0.3-0.8,0.4c-0.6-0.3-1-1.1-1.2-2.2C195.8,285.1,195.8,284.7,195.8,284z M190.5,263.9c0.4-0.3,1.4-0.3,3-0.1
				c0,0,0,0.1,0.2,0.1c0.1,0,0.1,0.3,0.1,0.8c0,0.3-0.3,0.8-0.9,1.5c-0.5,0.6-1,1.1-1.3,1.3c-0.6-0.2-1-0.5-1.2-1
				c-0.1-0.2-0.1-0.5-0.1-1.1C190.3,264.5,190.3,264,190.5,263.9z M193.8,292.7c0-3.7,0.5-4.3,1.5-1.7c1,2.7,1.5,4.7,1.5,6
				c0,0.9-0.1,1.5-0.2,2c-0.4,0.2-0.7,0.4-1,0.5c-0.9-0.7-1.5-1.8-1.7-3.3C193.8,295.9,193.8,294.7,193.8,292.7z M196.8,299.6
				c0,0.6-0.1,1.2-0.1,1.8v0c-0.5-0.5-0.8-1.1-1-1.6C196.1,299.7,196.5,299.6,196.8,299.6z M191.8,307.2c-0.1-0.3-0.1-0.7-0.1-1.4
				c-0.5-0.2-0.8-0.5-0.9-0.8c-0.1-0.2-0.1-0.6-0.1-1.2c0-1.3,0.4-1.9,1.3-1.8c0.4,0.1,0.8,0.3,1,0.6l0,0c0.6,0.2,1,0.5,1.3,1v1.3
				C192.8,305.3,192,306.1,191.8,307.2z M196.5,304.5c-0.3-0.2-0.7-0.2-1.3-0.1c-0.3-0.7-0.5-1.3-0.5-1.6c0-0.4,0-0.7,0-0.7
				c0.1-0.1,0.2-0.2,0.2-0.3c0.6,0,1.1,0.2,1.7,0.5C196.6,303,196.5,303.7,196.5,304.5z M191.8,319.4c0-1,0.1-1.6,0.2-1.9
				c0.4-0.6,1.4-0.8,2.9-0.5c0-0.2,0-0.4,0.1-0.5c0,0,0-0.1,0-0.1c-0.1-0.2-0.2-0.4-0.2-0.7c-0.1-0.3-0.1-0.7-0.1-1.1
				c-0.2-0.3-0.3-0.8-0.4-1.3c-0.1-0.7-0.1-1.2,0-1.6c0-1.7,0.5-2.4,1.5-2.1c0.2,0,0.3,0.1,0.5,0.3c-0.1,0.9-0.1,1.9-0.2,2.8
				c-0.1,1.8-0.1,3.7-0.2,5.5c0,0.2,0,0.4,0,0.6c0,0.7,0,1.4,0,2c-0.3-0.4-0.6-0.8-0.8-1.2c-0.1-0.1-0.1-0.3-0.2-0.4
				c0,0.1-0.1,0.1-0.1,0.2c-0.3,0.6-0.5,1.1-0.5,1.5c-0.1,0-0.3,0.1-0.5,0.3c-0.3,0.2-0.6,0.3-0.8,0.4c-0.4-0.4-0.8-0.8-1-1.4
				C191.8,319.9,191.8,319.6,191.8,319.4z M195,322.8c0.1-0.7,0.4-1.3,0.8-1.8c0,0.6,0,1.1,0,1.7h0
				C195.4,322.7,195.2,322.7,195,322.8z M195.8,331.6c-0.1-0.1-0.2-0.2-0.3-0.3c-0.3-0.4-0.5-1-0.7-1.7c-0.1-0.3-0.1-1-0.1-2.1
				c-0.1,0-0.2,0-0.3,0c-1,0-1.6-0.5-1.8-1.4c-0.1-0.4-0.1-0.8,0-1c0-1.3,0.3-2,1-2c0.2,0,0.4,0.1,0.5,0.2c-0.4,0.4-0.5,1-0.5,1.8
				c0,0.1,0,0.5,0,1.3c0.2,0.7,0.9,1,2,1c0.1,0,0.1,0,0.2,0c0.1,1,0.1,1.9,0.3,2.8c0,0.2,0,0.4,0,0.6c0,0.1,0,0.2,0,0.3
				c0,0.2,0.1,0.4,0.1,0.6v0c-0.1,0.1-0.2,0.1-0.3,0.2C195.9,331.7,195.9,331.6,195.8,331.6z M192.8,336.2c0.3,0,0.7,0.1,1.2,0.1
				c0,0,0,0.1,0.2,0.1c0.1,0,0.1,0.3,0.1,0.8c0,0.3-0.3,0.8-0.9,1.4c-0.1,0.1-0.2,0.2-0.3,0.4c-0.1-0.9-0.4-1.4-1-1.4
				c-0.4,0-0.8,0.2-1.3,0.5c0-0.1,0-0.2,0-0.3c0-0.9,0.1-1.4,0.2-1.5c0.1,0,0.1-0.1,0.2-0.1c0.3,0,0.5,0,0.8,0
				C192.2,336.3,192.5,336.3,192.8,336.2z M190.8,332.8c-0.6,0.5-0.9,1.1-0.9,1.8c0,0.5,0.1,0.8,0.2,1c0.1,0.1,0.2,0.2,0.3,0.3
				c-0.1,0.9-0.1,1.6-0.2,2.2c-0.4,0.2-0.7,0.3-1,0.5c-0.6-0.3-1-1.1-1.2-2.3c0-0.1,0-0.2,0-0.3c-0.1,0.2-0.1,0.3-0.2,0.5
				c-0.3,1.1-0.6,2.2-0.8,3c-0.1-0.7-0.1-1.3-0.2-1.8c0,0,0-0.1,0-0.1c0-0.4-0.1-0.8-0.1-1.3c-0.1-1-0.1-2.2-0.1-3.8
				c0-0.1,0.1-0.2,0.1-0.3c0.3-0.3,0.7-0.4,1.3-0.5c0.2-1.5,0.6-2.3,1.2-2.3s1,0.8,1.2,2.4c0.1,0,0.3,0,0.3,0c0,0,0,0.1,0.2,0.1
				C190.7,332.1,190.8,332.4,190.8,332.8z M186.3,326.4c0.3,0.4,0.6,0.8,0.7,1c0.2,0.4,0.3,1,0.3,1.9c-0.1,0.3-0.2,0.5-0.3,0.6
				c-0.1,0.2-0.3,0.3-0.7,0.3c0-0.9,0-2,0-3c0-0.2,0-0.5,0-0.7C186.3,326.5,186.3,326.5,186.3,326.4z M194.3,339.2
				c0-2.1,0.5-3,1.5-2.7c0.6,0.2,1,0.7,1.3,1.4c0,0.6,0.1,1.3,0.2,2l0,0c-0.1,0-0.3,0.1-0.4,0.1h-2.6
				C194.2,339.8,194.2,339.5,194.3,339.2z"/>
		</g>
	</g>
	<g>
		<path fill-rule="evenodd" clip-rule="evenodd" fill="#FFFFFF" d="M179,88.5c0,1.2-0.9,1.9-2.6,1.9c-1.3,0-2.2-0.3-2.5-0.8
			c-0.1-0.2-0.2-0.5-0.2-1c0-1.5,0.9-2.1,2.7-2C178.2,86.7,179,87.4,179,88.5z M187.7,84.5c-0.5,0.2-0.9,0.6-1.2,1.4l0.1,0.8
			c0.1,0.1,0.3,0.3,0.4,0.5c0.1,0.1,0.5,0.1,1,0.1c0,0,0.3,0,0.8-0.1c-0.1,0.1-0.3,0.3-0.5,0.4c-0.4,0.3-0.9,0.4-1.3,0.4
			c-1.2,0-1.9-0.5-2.1-1.4l0-1c0-1.9,0.7-2.7,2.2-2.3c0.8,0.2,1.4,0.6,1.8,1.2C188.2,84.4,187.9,84.4,187.7,84.5z M190,92.8
			c-0.5,0.4-1.1,0.6-1.6,0.6c-0.6,0-1.1-0.1-1.4-0.3c0,0.1,0,0.2,0,0.4c0,0.7-0.3,1.2-0.8,1.5c-0.4,0.3-0.9,0.4-1.5,0.4
			c-1.3,0-2.1-0.6-2.4-1.8c-0.1-0.6-0.1-1,0-1.4c0-2.8,0.8-3.7,2.4-2.8c0.7,0.4,1.3,1,1.7,1.5c0.2-0.9,1-1.5,2.3-1.7
			c1.6-0.3,2.3,0.3,2.3,1.7C191,91.7,190.7,92.3,190,92.8z"/>
	</g>
</g>
</svg>
