<?xml version="1.0" encoding="utf-8"?>
<!-- Generator: Adobe Illustrator 16.0.0, SVG Export Plug-In . SVG Version: 6.00 Build 0)  -->
<!DOCTYPE svg PUBLIC "-//W3C//DTD SVG 1.1//EN" "http://www.w3.org/Graphics/SVG/1.1/DTD/svg11.dtd">
<svg version="1.1" id="Layer_1" xmlns="http://www.w3.org/2000/svg" xmlns:xlink="http://www.w3.org/1999/xlink" x="0px" y="0px"
	 width="210px" height="350px" viewBox="0 0 210 350" enable-background="new 0 0 210 350" xml:space="preserve">
<g>
	<g>
		<g>
			<linearGradient id="SVGID_1_" gradientUnits="userSpaceOnUse" x1="268.8037" y1="-44.7739" x2="171.378" y2="70.9847">
				<stop  offset="0" style="stop-color:#C4CDD2"/>
				<stop  offset="0.2824" style="stop-color:#E4F1F9"/>
				<stop  offset="0.4235" style="stop-color:#A2A29A"/>
				<stop  offset="0.6" style="stop-color:#A5A79C"/>
				<stop  offset="0.7529" style="stop-color:#EBF1EF"/>
				<stop  offset="1" style="stop-color:#A0A2A3"/>
			</linearGradient>
			<polygon fill-rule="evenodd" clip-rule="evenodd" fill="url(#SVGID_1_)" points="162.3,78.9 162.3,76.5 162.3,76.3 182.8,60.5 
				182.7,63 			"/>
			<linearGradient id="SVGID_2_" gradientUnits="userSpaceOnUse" x1="9.1592" y1="-2.9668" x2="154.7691" y2="114.6268">
				<stop  offset="0" style="stop-color:#C4CDD2"/>
				<stop  offset="0.2824" style="stop-color:#E4F1F9"/>
				<stop  offset="0.4235" style="stop-color:#A2A29A"/>
				<stop  offset="0.6" style="stop-color:#A5A79C"/>
				<stop  offset="0.7529" style="stop-color:#EBF1EF"/>
				<stop  offset="1" style="stop-color:#CBCFCE"/>
			</linearGradient>
			<polygon fill-rule="evenodd" clip-rule="evenodd" fill="url(#SVGID_2_)" points="162.3,76.3 5.2,70.7 26.3,54.8 182.8,60.4 
				182.8,60.5 			"/>
			<linearGradient id="SVGID_3_" gradientUnits="userSpaceOnUse" x1="4.4307" y1="71.9727" x2="162.2582" y2="77.5505">
				<stop  offset="0" style="stop-color:#C4CDD2"/>
				<stop  offset="0.2824" style="stop-color:#E4F1F9"/>
				<stop  offset="0.4235" style="stop-color:#A2A29A"/>
				<stop  offset="0.6" style="stop-color:#A5A79C"/>
				<stop  offset="0.7529" style="stop-color:#EBF1EF"/>
				<stop  offset="1" style="stop-color:#CBCFCE"/>
			</linearGradient>
			<polygon fill-rule="evenodd" clip-rule="evenodd" fill="url(#SVGID_3_)" points="162.3,78.9 5.3,73.3 5.2,70.7 162.3,76.3 
				162.3,76.5 			"/>
		</g>
		<g>
			<polygon fill-rule="evenodd" clip-rule="evenodd" fill="#FFFFFF" fill-opacity="0.502" points="182.5,61.1 162.3,76.9 
				162.3,76.8 5,71.2 5,70.7 162.3,76.3 162.3,76.4 182.6,60.6 			"/>
		</g>
	</g>
	<g>
		<g>
			<path fill-rule="evenodd" clip-rule="evenodd" fill="#CBCDDA" d="M121,72.9c0-0.1,0-0.2,0-0.3c0.1-0.3,0.1-0.7,0.2-1.1
				c0-0.1,0-0.2,0-0.3c0.1-0.2,0.1-0.3,0.1-0.5c0-0.4,0.1-0.8,0.1-1.1c0-0.1,0-0.3,0-0.4c0-0.4,0.1-0.8,0.2-1.2
				c0-0.2,0.1-0.3,0.1-0.4c0-0.1,0-0.3,0.1-0.4c0-0.1,0-0.3,0-0.4c2.7,0.5,3.6,0.1,2.7-1.1c0.1,0,0.1-0.1,0.1-0.1c0.2,0,0.4,0,0.6,0
				c0.1,0,0.3-0.1,0.4-0.1c0.1,0,0.2,0,0.3,0c0,0.1,0,0.2,0,0.3c0,2.3,0.7,2.7,2.2,1.2c0.9,0.3,2.3,0.3,4-0.1
				c4.8-0.8,6.4-2.5,4.7-5.1c0.4-0.4,0.7-0.7,1-1.1c0.3-0.3,0.5-0.6,0.6-1c0.1-0.1,0.1-0.3,0.2-0.4c0.2-0.4,0.3-0.8,0.4-1.2
				c0.1-0.2,0.1-0.5,0.2-0.8c0-0.1,0-0.3,0-0.4c0-0.1,0-0.3,0-0.4c0-0.1,0-0.3,0-0.4c0-0.1,0-0.2,0-0.3c0-0.2-0.1-0.3-0.1-0.5
				c0-0.3-0.1-0.5-0.2-0.7c-0.2-0.3-0.3-0.6-0.5-0.8c-0.1-0.2-0.3-0.3-0.4-0.5c0,0-0.1-0.1-0.1-0.1c-0.4-0.4-0.8-0.7-1.4-1
				c-0.2-0.1-0.3-0.1-0.5-0.2c-0.3-0.1-0.6-0.2-1-0.3c-0.5-0.1-1.1-0.3-1.8-0.4c-0.4-0.1-0.8-0.2-1.2-0.3c-0.3-0.1-0.7-0.1-1-0.1h0
				c-0.3-0.5-0.8-1.1-1.5-1.7c-0.9,0-1.5,0.4-1.9,1.2c-0.6-0.1-1.2-0.2-1.8-0.2c-0.3-0.1-0.6-0.2-1-0.2c0,0-0.1,0-0.1,0
				c2.5-1.9,1.6-3.7-2.8-5.4c-1.8,0.6-2.6,1.9-2.4,3.8c0,0-0.1-0.1-0.1-0.2c-0.6-0.4-1-0.8-1.4-1.3c-0.1-0.2-0.3-0.4-0.3-0.7
				c0-0.1-0.1-0.1-0.1-0.1c-0.1-0.2-0.1-0.4-0.1-0.6c-0.1-0.1-0.1-0.3-0.1-0.4c-0.1-0.3-0.1-0.7-0.1-1.1c0,0,0-0.1,0-0.1
				c0-0.2,0-0.3,0-0.4c0.1-0.3,0.2-0.5,0.4-0.8c0.1-0.2,0.3-0.4,0.5-0.5c0.1-0.1,0.3-0.2,0.5-0.3c0.3-0.1,0.5-0.3,0.8-0.4
				c0,0,0,0,0,0c0.1,0,0.3-0.1,0.5-0.1c0.2-0.1,0.5-0.1,0.8-0.2c0.3,0,0.6-0.1,0.9-0.2c0.1,0,0.2-0.1,0.4-0.1c0.1,0,0.3,0,0.4-0.1
				c0.6-0.1,1.2-0.3,1.9-0.4c0.3,0,0.5-0.1,0.8-0.1c0.1,0,0.2-0.1,0.3-0.1c0.3-0.1,0.6-0.2,1-0.2c0.1,0,0.1-0.1,0.2-0.1
				c0.1,0.1,0.3,0.1,0.4,0.1c4.4,0.3,5.6-0.5,3.6-2.4c0,0,0-0.1,0-0.1c0.1-0.2,0.3-0.4,0.4-0.6c0.1-0.1,0.2-0.2,0.3-0.4
				c0-0.1,0.1-0.2,0.1-0.3c0-0.1,0-0.1,0-0.2c0.1-0.3,0.2-0.6,0.3-1c0-0.2,0-0.3,0-0.5c0-0.1,0-0.2,0-0.3c0-0.2,0-0.5,0-0.7
				c0-0.4-0.1-0.8-0.2-1.2c-0.1-0.3-0.1-0.5-0.3-0.8c-0.1-0.1-0.1-0.3-0.1-0.4l0.4,0l4.3,3.8c0.1,0,0.3,0,0.5,0.1c0,0,0.1,0,0.2,0
				c0,0,0.1,0,0.1,0.1c0.8,0.3,1.5,0.6,2,1c0.5,0.3,1,0.6,1.5,1c0,0.1,0,0.3,0,0.4c0,0.1,0.1,0.2,0.2,0.3c0.1,0.3,0.2,0.5,0.4,0.8
				c0.2,0.3,0.5,0.7,0.8,1.1c0.3,0.5,0.7,1,1.1,1.5c0.1,0,0.2,0,0.2,0.1c1.2,0.5,2.2,1,3,1.7c0.3,0.3,0.6,0.7,1,1.1l0.1,0.1
				c0.3,0.4,0.5,0.8,0.8,1.4c0.2,0.3,0.3,0.7,0.5,1.1c0,0.1,0,0.2,0,0.3l4.5,2.9l0.2,0.1l0.3,0.4l0.3,0.6l0.9,1.5l0.1,0.1
				c0,0.2,0,0.4,0.2,0.5l0.3,0.4l0.2,0.2l2.9,0.9c0.1,0,0.3,0,0.5,0c0.1,0,0.2,0,0.4,0c0.1,0,0.3,0,0.4,0c0.2,0.1,0.5,0.3,0.7,0.6
				c0.1,0.1,0.2,0.3,0.3,0.5c0.1,0.1,0.1,0.2,0.2,0.3c0.1,0.1,0.2,0.2,0.3,0.3l0.1,0.2h0.5l2.5,0.4l1,1.5l0.1,0.3
				c0.3,0.1,0.4,0.3,0.4,0.6h0.1l0.1,0l1.2,0.2h0.1l1.5,0.4h0v0l0.1,0.9l0,0.4l0.2,0.7l0,0.9l-0.1,0.9l-0.2,0.6l-0.2,1.4v0.2
				c-0.1,0-0.2,0-0.3,0c-0.2,0.1-0.4,0.3-0.5,0.4c-0.5,0.3-1,0.6-1.4,0.9c-0.1,0-0.3,0-0.3,0.1c-0.2,0.1-0.3,0.2-0.5,0.3
				c-0.1,0-0.2,0.1-0.4,0.3c-0.2,0.1-0.3,0.2-0.4,0.2c-0.1,0.1-0.2,0.1-0.3,0.1c-0.3,0.2-0.7,0.4-1.1,0.6c-0.3,0.1-0.5,0.2-0.8,0.4
				c-0.3,0.1-0.6,0.2-0.9,0.4h0V70c-0.1,0-0.3,0.1-0.4,0.1c-0.3,0.1-0.5,0.2-0.7,0.3c-0.6,0.2-1.1,0.4-1.5,0.6h-0.2
				c-0.3,0.1-0.6,0.2-0.8,0.3c0,0-0.1,0-0.2,0c-0.4,0.2-0.7,0.3-1,0.4c-0.4,0.2-0.8,0.3-1.2,0.4L155,72v0.1
				c-0.5,0.2-1.1,0.4-1.6,0.5c-0.4,0-0.7,0-1,0c-0.3,0.1-0.5,0.1-0.8,0.1c-0.2,0-0.5,0-0.7,0c-0.2,0-0.3,0-0.5,0c-0.3,0-0.5,0-0.8,0
				c-0.5,0.1-1.1,0.1-1.6,0.1c-0.2,0-0.4,0-0.5,0.1c-0.2,0-0.4,0-0.6,0c-0.2,0-0.4,0-0.6,0c-0.4,0-0.7,0-1,0c-0.1,0-0.3,0-0.5,0
				c-0.3,0-0.6,0-1,0.1c-0.3,0-0.5,0-0.8,0c-0.7,0.1-1.4,0.1-2,0.1c-0.5,0-0.9,0-1.4,0c-0.2,0-0.4,0-0.6,0.1c-0.2,0-0.5-0.1-0.7-0.1
				c-0.1,0-0.2,0-0.3,0c-0.1,0-0.3,0-0.5,0c-0.3,0-0.6,0-0.9,0c-0.3,0-0.5,0-0.8,0c-0.4,0-0.9,0-1.4,0c-0.1,0-0.3,0-0.4,0
				c-0.8,0-1.5-0.1-2.2-0.1c-0.2,0-0.4,0-0.6-0.1c-0.2,0-0.4,0.1-0.6,0.2c-0.5,0-0.9-0.1-1.3-0.1c-0.2,0-0.4,0-0.6,0
				c-0.3,0-0.5,0-0.8,0V73c-0.1,0-0.3,0-0.5-0.1V73c-0.3,0-0.5,0-0.8,0c-0.4,0-0.7,0-1,0c-0.4,0-0.9,0-1.3,0
				C123.1,73,122.1,72.9,121,72.9z M158.2,62.3c-0.3,1,0,1.5,1,1.5c4.3,0,4.6-1.1,1-3.3C159.2,60.6,158.5,61.1,158.2,62.3z
				 M149.5,58.5c0.9-3.3-1.1-4.7-6-4.1c-1.5,0.1-2,0.9-1.5,2.2c0.7,2.1,2.5,3.2,5.5,3.3C148.6,59.8,149.3,59.3,149.5,58.5z
				 M140.4,63.3c-0.6,1.1-0.3,1.8,0.9,1.9c4.7,0.5,5.5-0.7,2.5-3.5C142.3,61.5,141.1,62,140.4,63.3z"/>
			<path fill-rule="evenodd" clip-rule="evenodd" fill="#DDDDE7" d="M109.5,41.1c-0.1,0-0.1-0.1-0.2-0.1h0
				C109.3,41.2,109.4,41.2,109.5,41.1L109.5,41.1c0,0,0.1,0,0.2,0.1c0.2,0,0.4,0,0.6,0.1c0.2,0,0.4,0,0.6,0c0,0,0.1,0,0.1,0
				c0,0,0.1,0,0.1,0c0.2,0,0.4,0,0.7-0.1c0.2-1.3,1-2.1,2.4-2.3c0.6,0.5,1,0.9,1.4,1.3c0,0,0-0.1,0-0.1c0.2-0.1,0.5-0.2,0.8-0.3
				c-0.1-0.2,0-0.5,0.2-0.9c0.9-1.7,2.1-2.9,3.8-3.6c0.2,0.2,0.3,0.4,0.5,0.6c0-0.2,0.1-0.3,0.2-0.5c0-0.1,0-0.2,0-0.3
				c0-0.2,0-0.3,0-0.5c0-0.1,0-0.1,0-0.2c0-0.3,0-0.7-0.1-1.1c0-0.1-0.1-0.3-0.1-0.4c0-0.2-0.1-0.3-0.2-0.4
				c-0.1-0.3-0.2-0.5-0.4-0.8c-0.1-0.3-0.3-0.5-0.5-0.8c-0.1-0.2-0.3-0.3-0.4-0.5c-0.2-0.4-0.5-0.7-0.8-1c-0.1-0.1-0.2-0.2-0.3-0.3
				c-0.1,0-0.1-0.1-0.2-0.1c-0.3-0.3-0.6-0.6-1-0.9c-0.1-0.1-0.2-0.2-0.3-0.3c-0.2-0.2-0.5-0.5-0.8-0.7c-0.1-0.1-0.3-0.2-0.4-0.3
				c-0.1-0.1-0.2-0.2-0.3-0.3h0.1c0.1,0,0.1,0,0.2,0c0.4,0,0.9,0,1.3,0c0,0,0.1-0.1,0.1-0.1c0.1-0.1,0.3-0.1,0.3-0.1v0.1
				c0.2-0.1,0.4-0.2,0.6-0.2c0.1,0,0.3-0.1,0.5-0.1l0.5,0.2l0.1,0.2l0.5,0.2l3.1,1.7l3.1,0.1l4.2,2.5l0,0l1.5,0.1
				c0,0.1,0.1,0.2,0.1,0.4c0.1,0.3,0.2,0.6,0.3,0.8c0.1,0.4,0.2,0.8,0.2,1.2c0,0.2,0,0.5,0,0.7c0,0.1,0,0.2,0,0.3c0,0.2,0,0.3,0,0.5
				c0,0.4-0.1,0.7-0.3,1c0,0.1,0,0.1,0,0.2c0,0.1-0.1,0.1-0.1,0.3c0,0.2-0.1,0.3-0.3,0.4c-0.1,0.2-0.3,0.4-0.4,0.6c0,0,0,0,0,0.1
				c2,2,0.8,2.8-3.6,2.4c-0.2,0-0.3,0-0.4-0.1c-0.1,0-0.1,0.1-0.2,0.1c-0.3,0-0.7,0.1-1,0.2c-0.1,0-0.2,0.1-0.3,0.1
				c-0.2,0-0.5,0.1-0.8,0.1c-0.7,0.1-1.3,0.2-1.9,0.4c-0.2,0-0.3,0.1-0.4,0.1c-0.2,0-0.3,0.1-0.4,0.1c-0.3,0.1-0.6,0.1-0.9,0.2
				c-0.3,0.1-0.5,0.1-0.8,0.2c-0.3,0-0.4,0.1-0.5,0.1c0,0,0,0,0,0c-0.3,0.1-0.6,0.2-0.8,0.4c-0.2,0.1-0.4,0.2-0.5,0.3
				c-0.2,0.1-0.4,0.3-0.5,0.5c-0.2,0.2-0.3,0.5-0.4,0.8c0,0.1,0,0.3,0,0.4c0,0,0,0.1,0,0.1c0,0.4,0,0.8,0.1,1.1c0,0.1,0,0.3,0.1,0.4
				c0,0.2,0,0.4,0.1,0.6c0,0,0.1,0.1,0.1,0.1c0.1,0.2,0.2,0.5,0.3,0.7c0.4,0.5,0.8,1,1.4,1.3c0.1,0.1,0.1,0.1,0.1,0.2
				c-0.3-1.9,0.5-3.1,2.4-3.8c4.4,1.7,5.4,3.5,2.8,5.4c0,0,0.1,0,0.1,0c0.3,0,0.6,0.1,1,0.2c0.6,0,1.2,0.1,1.8,0.2
				c0.4-0.8,1-1.2,1.9-1.2c0.6,0.6,1.1,1.2,1.5,1.7h0c0.3,0,0.7,0.1,1,0.1c0.4,0.1,0.8,0.1,1.2,0.3c0.7,0.1,1.3,0.2,1.8,0.4
				c0.4,0.1,0.7,0.2,1,0.3c0.2,0.1,0.3,0.1,0.5,0.2c0.6,0.3,1.1,0.6,1.4,1c0,0,0.1,0.1,0.1,0.1c0.1,0.1,0.3,0.3,0.4,0.5
				c0.2,0.2,0.3,0.5,0.5,0.8c0.1,0.2,0.2,0.4,0.2,0.7c0,0.2,0.1,0.3,0.1,0.5c0,0.1,0,0.2,0,0.3c0,0.1,0,0.3,0,0.4c0,0.1,0,0.3,0,0.4
				c0,0.2,0,0.3,0,0.4c-0.1,0.3-0.1,0.5-0.2,0.8c-0.1,0.4-0.2,0.8-0.4,1.2c-0.1,0.1-0.1,0.3-0.2,0.4c-0.2,0.4-0.4,0.7-0.6,1
				c-0.3,0.4-0.6,0.7-1,1.1c1.7,2.6,0.1,4.3-4.7,5.1c-1.7,0.3-3.1,0.3-4,0.1c-1.5,1.5-2.2,1.1-2.2-1.2c0-0.1,0-0.2,0-0.3
				c-0.1,0-0.2,0-0.3,0c-0.2,0-0.3,0.1-0.4,0.1c-0.2,0-0.4,0-0.6,0c0,0-0.1,0-0.1,0.1c0.9,1.2,0,1.6-2.7,1.1c-0.2,0-0.5-0.1-0.7-0.1
				c-0.5-0.1-0.7-0.4-0.5-1c-0.3,0-0.7,0-1,0c-0.2,0-0.4,0-0.5,0c-0.1,0-0.3,0-0.5,0c-0.6,0-1.2,0-1.9,0c-0.4,0-0.8,0-1.2,0
				c-0.1,0-0.2,0-0.3,0c-0.4,0-0.9-0.1-1.3-0.1c-0.1,0-0.1,0-0.2,0c-0.4,0-0.9,0-1.3,0c-0.6,0-1.3,0-2,0c0.4,1.1-0.7,1.2-3.5,0.4
				c-0.3-0.1-0.5-0.2-0.5-0.5c-0.4-0.1-0.8-0.1-1.3-0.1h-0.1c0,0.6-1.2,1-3.7,1c-0.9,0-1.3-0.4-1.2-1.2c-0.2,0-0.4,0-0.6-0.1
				c-0.3,0-0.5,0-0.8,0c-0.3,0-0.5,0-0.8,0c-0.4,0-0.7,0-1.1,0c-0.1,0-0.2,0-0.3,0c-0.1,0-0.2,0-0.3,0c0.3,0.9-0.9,1.1-3.7,0.5
				c-0.4-0.1-0.6-0.4-0.6-0.8c-0.4,0-0.9-0.1-1.3-0.1c-0.4,0-0.9,0-1.3-0.1c-0.2,0-0.3,0-0.5,0c-0.1,0.1-0.3,0.3-0.4,0.5
				c-0.4,0.3-0.9,0.5-1.7,0.4c-3.9-0.6-5.3-1.7-4.3-3.2c-0.2-0.2-0.4-0.5-0.6-0.7c-0.3-0.3-0.5-0.6-0.7-1c-0.1-0.2-0.3-0.4-0.4-0.7
				c0-0.1-0.1-0.1-0.1-0.3c-0.1-0.4-0.3-0.8-0.4-1.3c0,0,0-0.1,0-0.1c-0.1-0.5-0.1-1-0.1-1.5c0-0.2,0-0.3,0-0.5c0-0.1,0-0.2,0-0.4
				c0,0,0-0.1,0-0.1c0.1-0.3,0.1-0.6,0.1-0.9c0-0.2,0.1-0.4,0.1-0.6c0-0.1,0-0.1,0-0.2c0-0.5,0.1-1,0.2-1.4c0-0.3,0-0.5,0-0.8
				c0.1-0.3,0.1-0.6,0.1-0.8l0.1-1.9h0.1c0,0,0.1,0,0.2,0.1c0.3,0.1,0.5,0.1,0.7,0.3c0.5,0.2,0.9,0.4,1.3,0.8c0.1,0.1,0.3,0.4,0.8,1
				c0.2,0.2,0.4,0.5,0.7,0.9c0.7,0.7,1.1,1.3,1.4,1.7c0.1,0.1,0.1,0.1,0.3,0.2c0.2,0.1,0.4,0.2,0.5,0.4c0.2,0.1,0.4,0.3,0.6,0.5
				c0.3,0.2,0.6,0.3,0.9,0.5c0.3-0.3,0.8-0.5,1.3-0.5c0.6,0.6,1.1,1.1,1.4,1.5c0.1,0,0.2,0.1,0.3,0.1c0.7,0.2,1.6,0.4,2.5,0.5
				c0.4,0.1,0.8,0.1,1.3,0.1c0.9,0.1,1.9,0.2,2.9,0.3h0c0.4,0,0.7,0,1.1,0c0.5-1.1,1.4-1.7,2.8-1.6c0.8,0.6,1.3,1.1,1.7,1.5
				c0.1,0,0.1,0,0.3,0c0.1,0,0.3,0,0.4,0c0.3,0,0.5-0.1,0.8-0.1c0.3,0,0.5,0,0.8,0c0.7-0.1,1.3-0.1,1.9-0.3c0-0.1,0.1-0.2,0.2-0.4
				c0.7-1.2,1.7-1.8,3.1-1.7c0.3,0.2,0.5,0.4,0.7,0.7c0.3-0.2,0.6-0.5,0.8-0.7c0.1-0.2,0.3-0.4,0.4-0.5c-0.2,0-0.3,0-0.5,0
				c-0.6,0.1-1-0.2-1.3-0.9c-0.6-1.7-0.4-3,0.6-3.8c-0.1-0.1-0.3-0.2-0.4-0.3c-0.1-0.1-0.1-0.1-0.1-0.1c-0.4,0.1-0.9,0.1-1.4,0.1
				c-1.4,0.1-2.1-0.5-2.1-1.8c0-0.2,0-0.4,0-0.6c-0.6-0.4-1.3-0.7-2-1.1c-0.1-0.1-0.3-0.1-0.4-0.1c-1.6,0.8-2.9,0.5-3.7-0.9
				c-0.3-0.4-0.4-0.8-0.5-1c0,0-0.1-0.1-0.1-0.1c-0.3-0.2-0.6-0.4-0.9-0.4c-0.5-0.3-0.9-0.5-1.2-0.7c-0.2-0.1-0.4-0.2-0.5-0.3
				c-0.1-0.1-0.3-0.2-0.4-0.3c-0.1-0.1-0.2-0.1-0.3-0.1c-0.2-0.1-0.3-0.2-0.5-0.3c-0.1-0.1-0.2-0.1-0.3-0.3
				c-0.3-0.2-0.5-0.3-0.7-0.5c-0.3-0.2-0.5-0.4-0.8-0.7c-0.1-0.1-0.1-0.1-0.2-0.2v0c-0.2-0.3-0.4-0.5-0.6-0.8c0-0.1,0-0.1-0.1-0.2
				c-0.1-0.2-0.2-0.4-0.2-0.5c0-0.1,0-0.3,0-0.4c0-0.1-0.1-0.3-0.1-0.4c0-0.4,0.1-0.8,0.3-1.2c0-0.1,0-0.1,0.1-0.2
				c0.3-0.5,0.7-0.9,1.2-1.1c0.2,0,0.3-0.1,0.5-0.2c0,0,0.1-0.1,0.1-0.1c0.3-0.2,0.6-0.5,0.7-0.8c0.1-0.2,0.1-0.3,0.1-0.5
				c0-0.1-0.1-0.2-0.2-0.4c-0.2-0.2-0.5-0.4-0.9-0.7c-0.1-0.1-0.3-0.2-0.4-0.3c-0.2-0.1-0.3-0.2-0.4-0.3c-0.2-0.1-0.4-0.3-0.6-0.5
				c-0.2-0.1-0.3-0.2-0.4-0.3c-0.3-0.2-0.5-0.4-0.6-0.5l1.9-0.8c0.1,0,0.1,0,0.3,0c0.2,0,0.4,0,0.5,0c0.1,0,0.2,0,0.3,0
				c0.6,0.1,1.1,0.1,1.8,0.1c0.3,0,0.5,0,0.8,0c0.5,0,1-0.1,1.4-0.2c0.2-0.1,0.4-0.1,0.6-0.2c0.4-0.2,0.8-0.5,1.2-0.8
				c0.1,0,0.2-0.1,0.3-0.2c0.2-0.1,0.3-0.2,0.5-0.2c-0.1,0.1-0.2,0.1-0.3,0.2c0,0-0.1,0.1-0.1,0.2c-0.1,0.1-0.3,0.3-0.4,0.4
				c0,0.5-0.1,0.7-0.5,0.6l0,0c0,0-0.1,0.1-0.1,0.1c-0.2,0.2-0.3,0.4-0.4,0.6c-0.3,0.4-0.6,0.8-0.8,1.1c-0.2,0.3-0.4,0.6-0.5,0.9
				c-0.1,0.3-0.2,0.5-0.2,0.7c-0.1,0.2-0.2,0.3-0.2,0.5v0c0,0.2,0,0.4,0.1,0.6c0,0.3,0,0.6,0,0.9c0.1,0.3,0.1,0.6,0.3,0.9
				c0,0.1,0.1,0.3,0.2,0.4c0.1,0.2,0.2,0.4,0.3,0.6c0,0,0.1,0.1,0.1,0.1c0.1,0.1,0.2,0.2,0.3,0.4c0.2,0.2,0.4,0.3,0.6,0.5
				c0.1,0.1,0.2,0.2,0.3,0.3c0.3,0.3,0.7,0.5,1,0.7c0.2,0.1,0.4,0.2,0.6,0.3c0.1,0.1,0.3,0.1,0.5,0.2c-0.5-1.1,0.2-1.9,2-2.4
				c4.1,0.8,5.2,2,3.3,3.4c0.1,0,0.3,0,0.5,0.1C109.9,40.9,109.7,41,109.5,41.1z M89.4,39.6c2.9,2.5,2.8,3.6-0.5,3.1
				c2.2,2.1,1.9,4-0.9,5.5c-0.6,0.4-1.2,0.2-1.7-0.6c-1.7-2.7-1.5-4.6,0.8-5.9c0-0.2,0-0.4,0.1-0.6C87.6,40.2,88.4,39.7,89.4,39.6z
				 M109,29.4c5.2,0.5,6.5,2.1,3.9,5c-0.6,0.7-1.5,0.9-2.5,0.6C105.6,33.6,105.1,31.8,109,29.4z M110.6,58c-1.5-0.1-2.5,0.5-3,1.8
				c-0.6,1.5-0.1,2.2,1.5,2C114.1,61.4,114.6,60.1,110.6,58z M149.5,58.5c-0.2,0.8-0.9,1.3-2,1.3c-3,0-4.8-1.1-5.5-3.3
				c-0.5-1.3,0-2.1,1.5-2.2C148.4,53.8,150.4,55.2,149.5,58.5z M158.2,62.3c0.3-1.1,1-1.7,2.1-1.8c3.6,2.2,3.2,3.3-1,3.3
				C158.3,63.8,157.9,63.3,158.2,62.3z M125.5,56.4c-0.9,0-1.6,0.5-2,1.4c-0.3,0.7-0.2,1.1,0.3,1.3
				C127.8,60.2,128.4,59.4,125.5,56.4z M140.4,63.3c0.7-1.2,1.8-1.8,3.3-1.6c3,2.8,2.2,4-2.5,3.5C140.1,65,139.8,64.4,140.4,63.3z"
				/>
			<path fill-rule="evenodd" clip-rule="evenodd" fill="#EAECF8" d="M74,48.3L74,48.3c0.1-0.4,0.3-0.6,0.5-0.8
				c0.1-0.2,0.2-0.4,0.3-0.6c0.3-0.4,0.6-0.7,0.9-1l0.1,0c0.7-0.6,1.4-1,2.2-1.4c0.1,0,0.1-0.1,0.1-0.1c0.1-0.1,0.2-0.2,0.2-0.3
				c0-0.2,0.1-0.3,0.2-0.4c0.3-0.3,0.8-0.4,1.4-0.4c0.2,0,0.4,0,0.6,0c0.1,0.1,0.1,0.1,0.3,0.1c0-0.1,0.1-0.2,0.1-0.4
				c0.3-0.4,0.6-0.8,1-1.2c0.2-0.2,0.4-0.4,0.5-0.6c0.1-0.1,0.2-0.3,0.3-0.4c0.2-0.2,0.4-0.4,0.7-0.5c0.1-0.1,0.2-0.2,0.3-0.3
				c0.1-0.1,0.3-0.1,0.5-0.3c0.4-0.3,0.8-0.5,1.3-0.8c0.1,0,0.2-0.1,0.2-0.3c0.3-0.2,0.6-0.5,0.9-0.8c0.3-0.3,0.6-0.7,0.9-1
				c0.1,0.2,0.1,0.2,0.1,0c0.3-0.3,0.5-0.6,0.8-0.9c0.2-0.1,0.4-0.3,0.5-0.5c0.7-0.7,1.4-1.4,2.1-2.1c0.1-0.1,0.3-0.3,0.4-0.4
				c0.2-0.2,0.4-0.4,0.6-0.6c0.2-0.2,0.4-0.4,0.6-0.5c0.3-0.4,0.7-0.8,1-1.1c0.1-0.1,0.2-0.2,0.3-0.3c0.1,0.2,0.3,0.3,0.6,0.5
				c0.1,0.1,0.3,0.2,0.4,0.3c0.2,0.2,0.4,0.3,0.6,0.5c0.1,0.1,0.2,0.2,0.4,0.3c0.1,0.1,0.3,0.2,0.4,0.3c0.4,0.3,0.7,0.5,0.9,0.7
				c0.1,0.2,0.2,0.3,0.2,0.4c0,0.2,0,0.3-0.1,0.5c-0.1,0.3-0.4,0.5-0.7,0.8c-0.1,0-0.1,0.1-0.1,0.1c-0.1,0.1-0.3,0.2-0.5,0.2
				c-0.5,0.3-0.9,0.6-1.2,1.1c0,0.1-0.1,0.1-0.1,0.2c-0.1,0.3-0.2,0.7-0.3,1.2c0,0.1,0,0.3,0.1,0.4c0,0.1,0,0.3,0,0.4
				c0,0.2,0.1,0.4,0.2,0.5c0.1,0.1,0.1,0.1,0.1,0.2c0.1,0.2,0.3,0.5,0.6,0.8v0c0.1,0,0.1,0.1,0.2,0.2c0.2,0.3,0.5,0.5,0.8,0.7
				c0.2,0.2,0.4,0.3,0.7,0.5c0.1,0.1,0.2,0.2,0.3,0.3c0.1,0.1,0.3,0.1,0.5,0.3c0.1,0,0.1,0.1,0.3,0.1c0.1,0.1,0.3,0.2,0.4,0.3
				c0.1,0.1,0.3,0.2,0.5,0.3c0.3,0.2,0.7,0.4,1.2,0.7c0.3,0.1,0.6,0.3,0.9,0.4c0,0,0.1,0,0.1,0.1c0.1,0.3,0.2,0.6,0.5,1
				c0.8,1.4,2.1,1.7,3.7,0.9c0.1,0,0.2,0.1,0.4,0.1c0.7,0.4,1.4,0.7,2,1.1c0,0.2,0,0.4,0,0.6c0.1,1.3,0.8,1.9,2.1,1.8
				c0.5,0,1,0,1.4-0.1c0,0,0.1,0,0.1,0.1c0.1,0.1,0.3,0.2,0.4,0.3c-1,0.8-1.2,2.1-0.6,3.8c0.3,0.7,0.7,1,1.3,0.9c0.1,0,0.3,0,0.5,0
				c-0.1,0.2-0.3,0.4-0.4,0.5c-0.2,0.2-0.5,0.5-0.8,0.7c-0.2-0.3-0.4-0.5-0.7-0.7c-1.4-0.1-2.4,0.5-3.1,1.7
				c-0.1,0.1-0.2,0.3-0.2,0.4c-0.6,0.1-1.2,0.2-1.9,0.3c-0.2,0-0.5,0-0.8,0c-0.3,0-0.5,0.1-0.8,0.1c-0.1,0-0.3,0-0.4,0
				c-0.1,0-0.2,0-0.3,0c-0.4-0.4-0.9-1-1.7-1.5c-1.4-0.1-2.3,0.5-2.8,1.6c-0.4,0-0.7,0-1.1,0h0c-1,0-2-0.1-2.9-0.3
				c-0.5,0-0.9-0.1-1.3-0.1c-0.9-0.1-1.7-0.3-2.5-0.5c-0.1,0-0.2-0.1-0.3-0.1c-0.3-0.4-0.8-0.9-1.4-1.5c-0.5,0-1,0.2-1.3,0.5
				c-0.3-0.1-0.6-0.3-0.9-0.5c-0.2-0.2-0.4-0.3-0.6-0.5c-0.1-0.2-0.3-0.3-0.5-0.4c-0.1-0.1-0.2-0.1-0.3-0.2c-0.2-0.4-0.7-1-1.4-1.7
				c-0.3-0.3-0.5-0.6-0.7-0.9c-0.5-0.6-0.7-1-0.8-1c-0.4-0.3-0.8-0.6-1.3-0.8c-0.2-0.1-0.4-0.2-0.7-0.3c-0.1,0-0.1-0.1-0.2-0.1
				c0-0.5,0-1.2,0-2.1l0,2.1C81.3,49,81.1,49,81,49c-0.5-0.1-1-0.2-1.5-0.2c0-0.2-0.3-0.4-0.8-0.5c-0.2,0-0.3,0-0.5,0
				c-0.5,0-1,0-1.7,0c-0.5,0-1,0.1-1.6,0.1C74.6,48.3,74.3,48.3,74,48.3z M89.4,39.6c-1,0-1.7,0.5-2.1,1.5c-0.1,0.2-0.1,0.5-0.1,0.6
				c-2.3,1.2-2.5,3.2-0.8,5.9c0.5,0.8,1.1,1,1.7,0.6c2.7-1.5,3-3.4,0.9-5.5C92.1,43.2,92.3,42.2,89.4,39.6z M110.6,58
				c4,2.1,3.5,3.4-1.5,3.9c-1.6,0.1-2.1-0.5-1.5-2C108.1,58.5,109.1,58,110.6,58z M125.5,56.4c3,3,2.4,3.9-1.7,2.6
				c-0.5-0.2-0.6-0.6-0.3-1.3C123.8,56.9,124.5,56.4,125.5,56.4z"/>
			<path fill-rule="evenodd" clip-rule="evenodd" fill="#EAEAF4" d="M115.2,26.8c0.1,0.1,0.2,0.2,0.3,0.3c0.1,0.1,0.3,0.2,0.4,0.3
				c0.3,0.2,0.6,0.5,0.8,0.7c0.1,0.1,0.3,0.2,0.3,0.3c0.4,0.3,0.7,0.6,1,0.9c0,0,0.1,0.1,0.2,0.1c0.1,0.1,0.2,0.1,0.3,0.3
				c0.3,0.3,0.6,0.6,0.8,1c0.1,0.1,0.3,0.3,0.4,0.5c0.2,0.3,0.4,0.5,0.5,0.8c0.2,0.3,0.3,0.5,0.4,0.8c0.1,0.1,0.2,0.3,0.2,0.4
				c0,0.1,0.1,0.3,0.1,0.4c0.1,0.4,0.1,0.7,0.1,1.1c0,0.1,0,0.1,0,0.2c0,0.1,0,0.3,0,0.5c0,0.1,0,0.1,0,0.3
				c-0.1,0.2-0.1,0.3-0.2,0.5c-0.2-0.2-0.3-0.4-0.5-0.6c-1.6,0.7-2.9,1.9-3.8,3.6c-0.2,0.4-0.3,0.7-0.2,0.9
				c-0.3,0.1-0.5,0.1-0.8,0.3c0,0,0,0,0,0.1c-0.4-0.4-0.8-0.8-1.4-1.3c-1.4,0.2-2.2,0.9-2.4,2.3c-0.2,0-0.5,0.1-0.7,0.1
				c-0.1,0-0.1,0-0.1,0c0,0-0.1,0-0.1,0c-0.2,0-0.4,0-0.6,0c-0.2-0.1-0.4-0.1-0.6-0.1c-0.1,0-0.1-0.1-0.2-0.1
				c0.2-0.2,0.4-0.2,0.5-0.2c-0.2,0-0.4-0.1-0.5-0.1c1.8-1.4,0.7-2.5-3.3-3.4c-1.8,0.5-2.4,1.3-2,2.4c-0.2-0.1-0.3-0.1-0.5-0.2
				c-0.2-0.1-0.4-0.2-0.6-0.3c-0.4-0.2-0.7-0.4-1-0.7c-0.1-0.1-0.1-0.1-0.3-0.3c-0.2-0.2-0.4-0.3-0.6-0.5c-0.1-0.1-0.2-0.3-0.3-0.4
				c0-0.1-0.1-0.1-0.1-0.1c-0.1-0.2-0.2-0.4-0.3-0.6c-0.1-0.2-0.2-0.3-0.2-0.4c-0.1-0.3-0.2-0.6-0.3-0.9c-0.1-0.3-0.1-0.6,0-0.9
				c0-0.2-0.1-0.4-0.1-0.6v0c0-0.2,0.1-0.3,0.2-0.5c0-0.2,0.1-0.4,0.2-0.7c0.1-0.3,0.3-0.6,0.5-0.9c0.2-0.4,0.5-0.8,0.8-1.1
				c0.1-0.2,0.3-0.4,0.4-0.6c0,0,0-0.1,0.1-0.1l0,0c0.4,0.1,0.5-0.1,0.5-0.6c0.1-0.1,0.2-0.3,0.4-0.4c0-0.1,0.1-0.1,0.1-0.2
				c0.1-0.1,0.1-0.1,0.3-0.2c0,0,0.1-0.1,0.1-0.1c0.1-0.1,0.2-0.1,0.2-0.1c0.3,0,0.5-0.1,0.7-0.4c0.1-0.1,0.3-0.2,0.5-0.3
				c0.5-0.3,1-0.5,1.6-0.8c0.4-0.1,0.9-0.3,1.3-0.5c0.1,0,0.2,0,0.2,0c0.1,0,0.2,0,0.3,0c0.2,0,0.5,0.1,0.7,0.1
				c0.2,0.1,0.4,0.1,0.6,0.1c0.2,0.1,0.6,0.2,1,0.1c0.2,0,0.4,0,0.8,0.1c0.3,0,0.5,0,0.8,0c0.2,0,0.3,0,0.5,0c0.2,0,0.5,0,0.8,0.1
				c0.1-0.1,0.2-0.2,0.4-0.2c0.3,0,0.7,0.1,1,0.1C114.9,26.8,115,26.8,115.2,26.8z M109,29.4c-3.9,2.4-3.4,4.3,1.5,5.6
				c1,0.3,1.8,0.1,2.5-0.6C115.5,31.5,114.2,29.9,109,29.4z"/>
			<path fill-rule="evenodd" clip-rule="evenodd" fill="#F5F6FB" d="M81.5,49l0-2.1C81.5,47.8,81.5,48.5,81.5,49L81.5,49z"/>
			<path fill-rule="evenodd" clip-rule="evenodd" fill="#EFEFF9" d="M88.8,72.3c0.1-0.1,0.3-0.1,0.5,0c0.1,0,0.1,0,0.3,0h0
				c0.2,0.1,0.5,0.1,0.9,0.3l-0.3,0c-0.2,0-0.4-0.1-0.6-0.3c-0.1,0-0.2,0-0.3,0C89,72.3,88.9,72.3,88.8,72.3z M74,48.3
				c-0.1,0-0.1,0-0.1,0.1C73.9,48.3,74,48.3,74,48.3C74,48.3,74,48.3,74,48.3z M109.5,41.1L109.5,41.1c-0.1,0.1-0.2,0-0.2-0.1h0
				C109.4,41.1,109.4,41.1,109.5,41.1z M79.5,48.8L79.5,48.8c-0.1,0-0.1,0-0.2,0C79.4,48.7,79.4,48.7,79.5,48.8z"/>
			<path fill-rule="evenodd" clip-rule="evenodd" fill="#CFD1DD" d="M81.5,49L81.4,51c0,0.3,0,0.5-0.1,0.8c0,0.2,0,0.5,0,0.8
				C81.1,53,81,53.5,81,54c0,0.1,0,0.1,0,0.2c-0.1,0.2-0.1,0.4-0.1,0.6c0,0.3-0.1,0.6-0.1,0.9c0,0,0,0.1,0,0.1c0,0.1,0,0.3,0,0.4
				c0,0.2,0,0.3,0,0.5c0,0.5,0,1,0.1,1.5c0,0,0,0.1,0,0.1c0.1,0.5,0.2,0.9,0.4,1.3c0,0.1,0.1,0.2,0.1,0.3c0.1,0.3,0.2,0.5,0.4,0.7
				c0.2,0.4,0.4,0.7,0.7,1c0.2,0.2,0.4,0.5,0.6,0.7c-1.1,1.5,0.4,2.6,4.3,3.2c0.8,0.1,1.3,0,1.7-0.4c0.2-0.2,0.3-0.3,0.4-0.5
				c0.2,0,0.3,0,0.5,0c0.4,0.1,0.8,0.1,1.3,0.1c0.4,0,0.8,0.1,1.3,0.1c0,0.4,0.2,0.6,0.6,0.8c2.8,0.6,4,0.4,3.7-0.5
				c0.1,0,0.1,0,0.3,0c0.1,0,0.3,0,0.3,0c0.4,0,0.7,0,1.1,0c0.2,0,0.5,0,0.8,0c0.2,0,0.5,0,0.8,0c0.2,0,0.4,0.1,0.6,0.1
				c-0.1,0.8,0.3,1.2,1.2,1.2c2.5,0,3.7-0.4,3.7-1h0.1c0.5,0,0.9,0,1.3,0.1c0,0.3,0.2,0.4,0.5,0.5c2.8,0.8,3.9,0.7,3.5-0.4
				c0.7,0,1.3,0,2,0c0.5,0,0.9,0,1.3,0c0.1,0,0.1,0,0.2,0c0.4,0,0.8,0,1.3,0.1c0.1,0,0.2,0,0.3,0c0.4,0,0.8,0,1.2,0
				c0.7,0,1.3,0,1.9,0c0.2,0,0.3,0,0.5,0c0.2,0,0.3,0,0.5,0c0.3,0,0.6,0,1,0c-0.1,0.5,0,0.9,0.5,1c0.2,0.1,0.5,0.1,0.7,0.1
				c0,0.1,0,0.2,0,0.4c-0.1,0.1-0.1,0.2-0.1,0.4c0,0.1-0.1,0.3-0.1,0.4c-0.1,0.4-0.1,0.8-0.2,1.2c0,0.1,0,0.3,0,0.4
				c-0.1,0.4-0.1,0.8-0.1,1.1c0,0.2,0,0.3-0.1,0.5c0,0.1,0,0.2,0,0.3c-0.1,0.4-0.1,0.8-0.2,1.1c0,0.1,0,0.2,0,0.3
				c-0.2,0-0.5,0-0.7,0c-0.4,0-0.9,0-1.3,0c-0.5,0-0.9-0.1-1.3-0.1c-0.4,0-0.9,0-1.4,0c-0.5,0-1.1,0-1.6,0c-0.1,0-0.2,0-0.3,0
				c-0.3,0-0.7,0-1-0.1h0c-0.2,0-0.3,0-0.4,0c-0.6,0-1.3,0-1.9,0c-0.5,0-1.1,0-1.7,0c-0.5,0-0.9-0.1-1.3-0.1c-0.6,0-1.2,0-1.8,0
				c-0.5,0-0.9-0.1-1.3-0.1c-0.1,0-0.2,0-0.4,0c-0.3,0-0.6,0-0.9-0.1c-0.5,0-0.9,0-1.4,0c-0.6,0-1.2,0-1.7,0.1c-0.1,0-0.3,0-0.4,0
				s-0.2,0-0.3-0.1c-0.2,0-0.4,0-0.6,0c-0.6,0-1.2,0-1.8,0c-0.2,0-0.3-0.1-0.4-0.1c-0.4,0-0.7,0-0.9,0l-0.1,0c-0.2,0-0.4,0-0.5,0
				c-0.5,0-1,0-1.5,0c-0.6,0-1.2-0.1-1.8-0.1c-0.1,0-0.2,0-0.3,0l-1,0.1l-0.6,0.2c-0.3-0.1-0.6-0.2-0.9-0.3h0c-0.1,0-0.2,0-0.3,0
				c-0.2,0-0.3,0-0.5,0c-0.1,0-0.3-0.1-0.3-0.1c-0.6-0.1-1.3-0.2-2-0.3c-0.5-0.1-1.1-0.2-1.8-0.3c-0.7-0.1-1.4-0.2-2.2-0.3
				c-0.1,0-0.3,0-0.4-0.1c-0.3,0-0.6,0-0.9,0l-0.1-0.1c0,0-0.1,0-0.3-0.1c-0.1,0-0.3,0-0.6,0C79.8,71,79.2,71,78.6,71
				c-0.1-0.1-0.1-0.2-0.3-0.2c-0.2,0-0.5,0-0.7,0c-0.3,0-0.7,0-1,0l-3.9-1.4c0-0.1,0-0.2,0-0.3c0-0.1,0-0.1,0-0.2
				c0-0.2-0.1-0.4-0.4-0.5c-0.1-0.2-0.2-0.3-0.4-0.3L69.7,68l-0.2-0.3l-0.3-0.2l-1-1.1l-0.9-0.8l-0.2-0.3l-3.9,0.1c0,0-0.1,0-0.2,0
				l-3.4-0.1c0,0-0.1-0.1-0.1-0.1c-0.1-0.1-0.2-0.1-0.3-0.2c-0.2-0.1-0.3-0.2-0.4-0.2c-0.2-0.1-0.3-0.2-0.3-0.4
				c-0.2-0.1-0.3-0.3-0.4-0.5c-0.2-0.3-0.2-0.6-0.2-1c0-0.1,0-0.2,0-0.3l0.9,0.8l0.1-3.2c0.1-0.1,0.1-0.2,0.1-0.3
				c0,0,0.1-0.1,0.1-0.1c0.1-0.2,0.2-0.3,0.3-0.4c0.1-0.1,0.2-0.2,0.3-0.3v-0.1c0,0,0.1,0,0.1,0c0.2-0.2,0.4-0.5,0.6-0.6
				c0.1-0.1,0.1-0.1,0.1-0.1c0.2-0.1,0.4-0.3,0.6-0.5c0.2-0.2,0.4-0.4,0.5-0.5c0.2-0.2,0.5-0.3,0.7-0.5c0.1-0.2,0.3-0.3,0.4-0.4
				c0.2-0.2,0.4-0.3,0.6-0.4c0.3-0.2,0.5-0.3,0.8-0.4c0.3-0.2,0.7-0.4,1-0.6c0.3-0.2,0.7-0.4,1.1-0.6c0.2,0,0.3,0,0.4,0
				c0.5-0.3,1-0.5,1.5-0.6c0,0,0.1,0,0.2-0.1l0.1-0.1l0.9-1.9l4-2.6c0-0.1,0-0.3,0.1-0.4c0.1-0.2,0.2-0.4,0.3-0.5c0,0,0.1,0,0.1-0.1
				c0.3,0,0.5,0,0.8,0c0.6,0,1.1-0.1,1.6-0.1c0.7,0,1.2,0,1.7,0c0.2,0,0.3,0,0.5,0c0.5,0.1,0.8,0.3,0.8,0.5c-0.1,0-0.1,0-0.2,0
				c0.1,0,0.1,0,0.2,0.1v0c0.5,0,1,0.1,1.5,0.2C81.1,49,81.3,49,81.5,49z"/>
		</g>
	</g>
	<g>
		<g>
			<path fill-rule="evenodd" clip-rule="evenodd" fill="#FFFFFF" d="M182.4,71.4c0,0.9,0.3,2.4,1,4.4c0.7,1.9,1,2.9,1,2.9
				c0,0.5,0,0.9-0.1,1h-0.1l-0.2,0.1c-0.1,0.1-0.4,0.2-0.9,0.2c-1.2,0-2.1-1.5-2.7-4.4c-0.3-1.5-0.5-3-0.5-4.5c0-1.1,0.1-1.7,0.2-2
				c0.2-0.5,0.9-1,2.1-1.6c0.2,0.1,0.5,0.2,0.8,0.2c0.3,0.1,0.4,0.4,0.4,0.9c0,0.4-0.2,0.9-0.5,1.4C182.6,70.5,182.4,71,182.4,71.4z
				 M185.7,74.2c-0.6-0.4-1-0.9-1.2-1.5c-0.1-0.2-0.1-0.7-0.1-1.6c0-1.5,0.4-2.6,1.3-3.1c0.6,0.3,1,0.6,1.3,1v4.6
				C186.4,73.8,186,74,185.7,74.2z M179.4,72.5c-0.1,1.6-0.3,2.9-0.6,4c0.1-2.4,0.2-4.8,0.3-7.3c0.1,0.3,0.2,0.6,0.3,1
				C179.4,70.5,179.4,71.3,179.4,72.5z M181,87.5c-0.1,0-0.2,0-0.3,0c-0.6,0-1.1-0.3-1.7-0.9c-0.1-0.2-0.3-0.3-0.4-0.4
				c0-0.5,0-1,0-1.5c0.6-0.1,1.2-0.1,1.7,0.1c0.7,0.3,1.2,0.9,1.5,1.8C181.4,86.8,181.2,87.1,181,87.5z M186.9,89
				c0.5-0.5,0.8-0.8,0.8-1c0-0.9-0.4-1.5-1.1-1.8c0.2-0.5,0.6-0.7,1.1-0.6c0.5,0.1,0.8,0.3,1,0.6V89c-0.3,0.1-0.7,0.3-1,0.4
				C187.3,89.3,187.1,89.2,186.9,89z M182.9,91.3c0.7-0.1,1.5-0.5,2.4-1c0,0.4-0.1,0.8-0.1,1.1c0,0.1,0,0.2,0,0.3
				c-0.1,0.2-0.5,0.3-1,0.3C183.6,91.8,183.2,91.6,182.9,91.3z M180.6,89.7c0,0.2,0,0.3,0.1,0.5c0.3,0.7,0.8,1,1.8,1h0
				c-0.1,0.2-0.3,0.4-0.4,0.6c-0.6,1-1.1,1.6-1.4,1.8c-0.5-0.5-0.9-0.8-1-1c-0.2-0.2-0.3-0.5-0.3-0.7c0-0.5,0.1-0.9,0.3-1.2
				c-0.1,0-0.3,0-0.5,0c-0.2,0-0.4,0-0.6-0.1c0-1,0-2,0-3.3c0-0.1,0-0.3,0-0.4c0.3,0.1,0.6,0.3,0.9,0.5c0.7,0.6,1.1,1.1,1,1.6
				l-0.1,0.8C180.4,89.9,180.5,89.8,180.6,89.7z M179.7,99.7c-0.2,0-0.5,0-0.8,0c-0.1,0-0.1,0-0.2,0c-0.1-2.4-0.1-3.7-0.1-4.1v-0.4
				c0.2,0.2,0.3,0.6,0.4,1c0.4,0.1,1,0.2,1.6,0.4c0.2-0.5,0.3-0.3,0.3,0.5c0,0.1-0.3,0.6-0.9,1.4C179.8,99,179.7,99.3,179.7,99.7z
				 M186.5,108.1c0,0.2,0,0.5,0,0.7l0.3,1.7c0.2,0.7,0.6,1.2,1.1,1.5l-0.1,0.1c-0.2,0.2-0.5,0.3-1,0.3c-0.9,0-1.6-0.5-2-1.4
				c-0.1-0.5-0.2-0.9-0.3-1.4c-0.1,0-0.2,0-0.3,0c-1,0-1.6-0.4-1.8-1.2c-0.1-0.4-0.1-0.9,0-1.4l0-2c0.2,0,0.5,0,1-0.1
				c0.2,0,0.5,0,0.8,0c-0.1-0.5-0.2-1.1-0.3-1.8c-0.2-1.1-0.3-2.2-0.4-3.3c-0.1,0-0.3,0.1-0.3,0.1c-0.6-0.4-1-0.9-1.2-1.6
				c-0.1-0.2-0.1-0.7-0.1-1.4c0-1.3,0.1-2,0.2-2.3c0.3-0.6,1.2-0.7,2.6-0.3c0,0,0,0.1,0.1,0.1c0.1,0,0.1,0.3,0.1,0.8
				c0,0.3,0,0.7-0.1,1.3c0,0.1,0.1,0.1,0.1,0.3c0.1-0.1,0.1-0.2,0.3-0.3c0.6,0.2,1,0.5,1.3,0.9v4.5c0.3,1.5,0.5,3,0.5,4.4
				c-0.2,0.3-0.4,0.8-0.4,1.6C186.5,108,186.4,108,186.5,108.1C186.4,108.1,186.5,108.1,186.5,108.1z M187.3,77.3
				c0.1,0,0.1,0.3,0.1,0.8c0,0.7-0.3,1.7-1,3l-0.8,0.3c-0.6-0.2-1-0.5-1.2-1c-0.1-0.2-0.1-0.5-0.1-1.1c0-0.8,0.1-1.4,0.2-1.6
				c0.3-0.6,1.2-0.7,2.6-0.4C187.2,77.2,187.2,77.2,187.3,77.3z M188.7,93.9c-0.8,0.5-1.2,1.3-1.2,2.2c0,0.7,0.3,1.2,0.8,1.5
				c-0.1,0-0.1,0-0.1,0c-0.4-0.4-0.8-0.9-1-1.4c-0.2-0.4-0.3-0.6-0.3-0.9c0-1.4,0.4-2,1.3-2c0.2,0,0.4,0,0.5,0.1V93.9z M187.6,101.1
				c0.2-0.3,0.6-0.5,1.1-0.6v4.7c-0.4-0.4-0.8-0.8-1-1.4c-0.2-0.4-0.3-0.7-0.3-0.9C187.4,102,187.5,101.4,187.6,101.1z M183,121
				c-0.5,0.1-1.2,0.3-1.9,0.7c-0.5,0.2-0.9,0.5-1.3,0.7c0-0.9,0.3-2.1,0.8-3.5c0.4-1,0.8-1.7,1.2-2.3c0-0.3,0.1-0.6,0.2-0.7
				c0.3-0.3,0.7-0.4,1.3-0.5c0.2-1.5,0.5-2.3,1.2-2.3c0.6,0,1,0.8,1.1,2.4c0.1,0,0.3,0,0.4,0c0,0,0,0.1,0.1,0.1
				c0.1,0,0.1,0.3,0.1,0.8c0,0.2-0.2,0.4-0.5,0.8c0,0.1,0,0.3,0,0.3c0,1.7-0.1,3-0.2,4c-0.2,0.1-0.5,0.2-0.7,0.3
				c-0.2-0.6-0.6-0.9-1.3-1c-0.1-0.3-0.2-0.7-0.3-1.1c0-0.1,0-0.2,0-0.3c0,0.2-0.1,0.4-0.2,0.6C183.2,120.4,183.1,120.7,183,121z
				 M180,143.8c0.2-0.3,0.3-0.5,0.3-0.8c0-0.4-0.1-0.8-0.3-1.1c-0.1-2-0.1-4-0.2-5.9c0.3,0.1,0.5,0.3,0.8,0.5c0,0.1,0,0.3,0,0.4
				c0,0.1,0.1,0.7,0.4,1.9v5.5c-0.3,0.2-0.6,0.3-0.8,0.5C180.1,144.5,180,144.1,180,143.8z M183.4,134c-0.3,0.1-0.6,0.1-0.8,0.2
				c0.2-0.1,0.4-0.2,0.6-0.2C183.3,134,183.3,134,183.4,134z M182.7,113.5c-0.1,0.2-0.5,0.4-1,0.4c-0.7,0-1.2-0.4-1.5-1.3
				c-0.2-0.5-0.3-1-0.3-1.4c0-0.2,0.1-0.5,0.2-0.8c0.2-0.5,0.6-0.9,1.1-1.3c0.8,0.9,1.3,1.5,1.5,1.9c0.2,0.4,0.3,1,0.3,1.9
				C182.8,113.2,182.8,113.4,182.7,113.5z M186.4,121.4c0-0.9,0.1-1.4,0.2-1.5c0.3-0.2,1-0.3,2.1-0.1v2c0,0.3,0,0.5,0,0.8
				c-0.4,0.4-0.8,0.8-1,1c-0.6-0.2-1-0.5-1.2-1C186.4,122.3,186.4,122,186.4,121.4z M179.7,129.6c0-0.8-0.1-1.6-0.1-2.4
				c0.3,0.3,0.6,0.7,0.9,1.2c-0.1,0.3-0.2,0.5-0.3,0.7C180,129.4,179.9,129.6,179.7,129.6z M190,146.6c0.1,2.7,0.2,5.1,0.3,7.1
				c-0.2-0.5-0.3-1-0.3-1.5c-0.1-0.4-0.1-1.6-0.1-3.6c0-1.1,0-1.9,0.1-2.5C190,146.4,190,146.5,190,146.6z M190.4,160.7
				c-1.5,0.6-2.3,1.4-2.4,2.4c-0.1-0.3-0.1-0.7-0.1-1.4c-0.5-0.2-0.8-0.5-0.9-0.9c-0.1-0.2-0.1-0.5-0.1-1.1c0-1.3,0.4-1.9,1.3-1.8
				c0.4,0.1,0.8,0.3,0.9,0.6l0.1,0c0.6,0.2,1,0.5,1.3,1V160.7z M190.5,169.4c-0.1-0.7-0.1-1.2,0-1.6c0-0.6,0.1-1.1,0.2-1.5
				c0,0.9-0.1,2-0.1,3.4C190.5,169.5,190.5,169.5,190.5,169.4z M180.4,183.5c0-0.2,0.1-0.4,0.2-0.7c0.2-0.5,0.6-0.9,1.1-1.3
				c0.8,0.9,1.3,1.5,1.5,1.9c0.2,0.4,0.3,1,0.3,1.9c-0.1,0.3-0.2,0.5-0.3,0.6c-0.1,0.2-0.5,0.3-1,0.3c-0.7,0-1.2-0.4-1.5-1.3
				C180.5,184.5,180.4,184,180.4,183.5z M186.4,191.8c-0.1,0.9-0.1,1.6-0.2,2.2c-0.4,0.2-0.7,0.3-1,0.5c-0.6-0.3-1-1.1-1.2-2.3
				c0-0.1,0-0.2,0-0.3c-0.1,0.2-0.1,0.3-0.2,0.5c-0.5,1.8-0.9,3.3-1.1,4.5c-0.4,0.2-0.7,0.3-1,0.4c-0.4-0.4-0.8-0.9-1-1.4
				c-0.2-0.4-0.3-0.7-0.3-1c0-0.9,0.3-2.1,0.8-3.7c0.1-0.3,0.2-0.5,0.3-0.8c0.2-0.5,0.5-1,0.8-1.3c0-0.1,0.1-0.1,0.1-0.2
				c0-0.3,0.1-0.6,0.2-0.7c0.3-0.3,0.7-0.4,1.3-0.5c0.2-1.5,0.5-2.3,1.2-2.3c0.6,0,1,0.8,1.1,2.4c0.1,0,0.3,0,0.4,0
				c0,0,0,0.1,0.1,0.1c0.1,0,0.1,0.3,0.1,0.7c-0.6,0.5-0.9,1.1-0.9,1.8c0,0.5,0,0.8,0.2,1C186.2,191.6,186.3,191.7,186.4,191.8z
				 M189,192.2c0.3,0,0.6,0.1,0.9,0.1c0,0.6,0,1.2-0.1,1.9c-0.1,0.1-0.2,0.3-0.3,0.4c-0.1,0.1-0.2,0.2-0.3,0.4
				c-0.1-0.9-0.5-1.4-1-1.4c-0.4,0-0.8,0.2-1.3,0.5c0-0.1,0-0.2,0-0.3c0-0.9,0.1-1.4,0.2-1.5c0.1,0,0.1-0.1,0.2-0.1
				c0.3,0,0.5,0,0.9,0C188.4,192.3,188.7,192.3,189,192.2z M185.9,203.3c0,0.1,0,0.2,0,0.4c0,0.2-0.1,0.4-0.2,0.6
				c1.3,0,2.4,0.5,3.2,1.5c0-0.5,0-1.1,0-1.8c0-1.4,0.1-2.5,0.3-3.3c0,0,0,0.1,0,0.1c0.1,0.3,0.3,0.5,0.5,0.7
				c-0.2,6.2-0.4,13.2-0.6,21c-0.1,0.4-0.3,0.8-0.5,1.3c0,0.1-0.1,0.2-0.1,0.3l-0.8,0.3c-0.6-0.2-1-0.5-1.2-1
				c-0.1-0.2-0.1-0.5-0.1-1.1c0-0.8,0.1-1.4,0.2-1.6c0.2-0.3,0.4-0.4,0.8-0.5c0,0,0.1,0,0.1,0c-0.5-0.1-0.8-0.1-1.1,0
				c0-1.1,0.1-1.8,0.2-2c0.3-0.5,1-1,2.1-1.7c-0.2-0.5-0.4-1.1-0.5-1.7c-0.2,0.5-0.3,0.9-0.3,1.3c-0.1,0-0.3,0.1-0.5,0.3
				c-0.3,0.2-0.6,0.3-0.8,0.4c-0.6-0.4-1-0.9-1.2-1.5c-0.1-0.2-0.1-0.8-0.1-1.6l0-2.9c0.5,0,1,0,1.3,0.1c-0.9-2.9-1.4-4.7-1.4-5.4
				c0-0.3,0-0.5,0-0.5c-0.1,0-0.2,0.1-0.3,0.1C185.4,204.3,185.7,203.8,185.9,203.3z M190.3,179.6c-0.2,0.4-0.3,0.8-0.3,1.4
				c0,0.1,0,0.5,0,1.3c0,0.2,0.1,0.3,0.3,0.5c0,0.2,0,0.5,0,0.7c-0.7-0.1-1.1-0.6-1.3-1.3c-0.1-0.4-0.1-0.8,0-1c0-1.3,0.3-2,1-2
				c0.1,0,0.2,0,0.3,0.1C190.3,179.3,190.3,179.4,190.3,179.6z M184.5,196.8c-1.2,1.8-1.9,3.6-1.9,5.5c0,0.1,0,0.8,0,2.1
				c0.1,0.4,0.2,0.7,0.3,1c-0.3-0.1-0.6-0.2-0.7-0.3c-0.2-0.2-0.3-0.6-0.3-1.1c0-0.6,0.2-0.9,0.6-1.1c0-0.1,0-0.3,0-0.3
				c-0.1-0.3-0.1-1-0.1-2.2c0-2.9,0.4-4.3,1.3-4.3C184,196.1,184.3,196.3,184.5,196.8z M179.9,197.1c0,0.4,0,0.8-0.1,1.1
				c0,0.3-0.1,0.5-0.1,0.8c0-1.1,0.1-2.2,0.1-3.2C179.9,196.2,179.9,196.6,179.9,197.1z M188.2,176.3c-0.2-0.4-0.3-0.7-0.3-0.9
				c0-1,0.1-1.6,0.2-1.9c0.4-0.5,1.2-0.7,2.4-0.6c-0.1,1.3-0.1,2.6-0.2,4.1c-0.1,0-0.2,0.1-0.4,0.2c-0.3,0.2-0.6,0.3-0.8,0.4
				C188.7,177.3,188.4,176.8,188.2,176.3z M184.9,209c0,0.9-0.1,1.7-0.2,2.3c-0.4,0.2-0.7,0.3-1,0.4c-0.8-0.8-1.3-1.7-1.3-2.8
				c0-1.6,0.4-2.4,1.3-2.5C184.5,206.3,184.9,207.2,184.9,209z M179.7,202.2c0-0.9,0-1.8,0-2.7c0.5,0.3,0.9,0.8,1.2,1.5
				c-0.1,0.3-0.2,0.5-0.3,0.7C180.5,202,180.2,202.2,179.7,202.2z M179.4,211.3c0.1,0,0.1,0,0.3,0c0.7,0,1.3-0.1,1.8-0.3v5.9
				c-0.5,0.3-0.9,0.5-1.3,0.7c-0.4-0.2-0.7-0.6-0.9-1.2C179.3,214.6,179.3,212.9,179.4,211.3z M180.9,227.6c0.5-0.1,1,0,1.4,0.2
				c0.8,0.3,1.3,1,1.6,2l-0.3,0.4c-0.2,0.2-0.5,0.3-1,0.3c-0.6,0-1.1-0.3-1.7-0.9c-0.1-0.2-0.3-0.3-0.4-0.5
				c-0.3-0.4-0.5-0.8-0.6-1.3C180.2,227.7,180.6,227.6,180.9,227.6z M179.1,222.8c0.5,1.7,0.8,3.1,0.8,4.2c0,0.2,0,0.4,0,0.6
				c-0.3,0-0.7,0.1-1,0.3C179,226.2,179,224.5,179.1,222.8z M181.3,233.8C181.2,233.8,181.2,233.8,181.3,233.8
				c-0.8,0-1.4-0.5-1.8-1.5c-0.3-0.7-0.5-1.3-0.5-1.6c0-0.4,0-0.7,0-0.7c0.1-0.1,0.2-0.2,0.2-0.3c0.8,0,1.5,0.3,2.3,0.8
				c0.2,0.2,0.4,0.3,0.5,0.5c0.1-0.1,0.1-0.1,0.2-0.2c0.4,0.2,0.7,0.6,0.9,1.1c-0.2,0-0.3-0.1-0.4-0.1c-0.1,0.1-0.1,0.1-0.2,0.1
				c0,0.1,0,0.1,0,0.2l-0.1,0.5C181.8,232.7,181.5,233,181.3,233.8z M183.9,239.8c0.1,0,0.1,0,0.3,0c0.7,0,1.2-0.2,1.6-0.6
				c0.3-0.4,0.5-0.8,0.5-1.4c0-0.9-0.5-1.9-1.5-3c0.1,0,0.2,0,0.4,0c0.2,0,0.4,0,0.6,0c-0.4-0.1-0.7-0.2-0.8-0.5
				c-0.1-0.1-0.2-0.3-0.3-0.5c-0.1,0.1-0.2,0.3-0.3,0.5c-0.2-0.2-0.4-0.5-0.7-0.7c-0.5-0.4-0.9-0.7-1.2-0.8c0.3-0.3,0.7-0.6,1.2-0.9
				c0.1,0.1,0.3,0.1,0.4,0.1c0.1,0,0.2,0,0.3,0c0-0.3,0-0.6,0-1c0-1,0.1-1.6,0.2-1.7c0.3-0.4,1.1-0.4,2.6-0.2
				c0.1,0.3,0.2,0.7,0.2,1.3c0,0.3,0.1,0.6,0.1,0.9c0,0,0,0.1,0,0.1v0c0,0,0,0.1,0,0.2c0,1-0.1,1.8-0.2,2.5c0,0.1,0,0.2,0,0.3
				c-0.1,0.1-0.3,0.2-0.7,0.3c0.1,0.9,0.4,2.2,1,3.9c0.2,0.5,0.3,0.9,0.4,1.3c0.2,0.2,0.4,0.3,0.6,0.5v4.5c0.3,1.7,0.5,3.3,0.5,4.8
				c0,0.5,0,0.8-0.1,0.9h-0.1l-0.2,0.2c0,0-0.1,0.1-0.1,0.1c0.3,0.3,0.5,0.6,0.7,1c0.1,1,0.1,2.1,0.2,3.3c-0.2,0-0.4,0.1-0.6,0.1
				c-0.9,0-1.6-0.5-2-1.5c-0.1-0.5-0.2-0.9-0.3-1.4c-0.1,0-0.2,0-0.3,0c-1,0-1.6-0.4-1.8-1.2c-0.1-0.4-0.1-0.9,0-1.4l0-2
				c0.2,0,0.5,0,1-0.1c0.2,0,0.5,0,0.8,0c-0.1-0.5-0.2-1.1-0.3-1.8c-0.2-1.1-0.3-2.2-0.4-3.3c-0.1,0-0.3,0.1-0.3,0.1
				c-0.6-0.4-1-0.9-1.2-1.5c-0.1-0.2-0.1-0.7-0.1-1.5C183.9,239.9,183.9,239.8,183.9,239.8z M181.2,236.3v1.5c0.3,1,0.8,1.6,1.8,2
				c0,0.1,0,0.3,0,0.5c0,0.1-0.2,0.4-0.6,1c-0.1,0.1-0.2,0.3-0.3,0.5c-0.4,0.6-0.5,1.3-0.3,2.1c0,0,0.1,0.2,0.1,0.4v0
				c0,0.1,0,0.2,0,0.3c0,0.4-0.1,1.1-0.3,2c-0.1,0.5-0.2,0.9-0.3,1.3c0.1,0,0.3,0.1,0.6,0.1c0.3,0.1,0.4,0.4,0.4,0.9
				c0,1.1-0.2,2.7-0.5,4.7c-0.3,2-0.5,3.9-0.5,5.6c-0.5,0.3-0.9,0.5-1.3,0.7c-0.6-0.4-1-1.2-1.2-2.2c-0.1-0.3-0.1-1-0.1-2.1h-0.1
				c0-1.3-0.1-2.6-0.1-3.9c0.1,0.1,0.2,0.2,0.3,0.3c0-0.4,0-0.6,0-0.8c0.1-0.8,0.4-1.5,0.9-2c-0.3-0.4-0.6-0.8-0.8-1.2
				c-0.1-0.1-0.1-0.3-0.2-0.4c0,0.1-0.1,0.1-0.1,0.2c-0.1,0.1-0.1,0.3-0.2,0.5c0-1,0-2,0-3c0.1,0,0.2,0,0.3,0c0-0.3,0-0.4,0.1-0.5
				c0,0,0-0.1,0.1-0.1c-0.1-0.2-0.2-0.4-0.2-0.7c-0.1-0.3-0.1-0.7-0.1-1.1c-0.1-0.1-0.1-0.3-0.2-0.5c0-1.3,0-2.7,0-4
				c0.2-0.5,0.6-0.7,1.2-0.5c0.2,0.1,0.4,0.2,0.6,0.3c0-1.1,0-1.9,0-2.5c0,0.1,0.1,0.2,0.2,0.3C180.7,235.8,180.9,236,181.2,236.3z
				 M178.9,229.5c0-0.5,0-1,0-1.5c0.1,0.4,0.3,0.8,0.6,1.2C179.3,229.2,179.1,229.3,178.9,229.5z M182.4,223c-0.3-1-0.4-2-0.5-3
				c0-3.8,0.7-4.1,2-1c1.3,3.8,2,5.7,2,5.8c0,0.5,0,0.8-0.1,0.9h-0.1c0,0.1,0,0.2,0,0.3c-0.1,0.1-0.5,0.2-1,0.2
				C183.7,226.1,182.9,225,182.4,223z M188.7,232.4c0.1,0,0.1-0.1,0.2-0.1c-0.1,1.3-0.1,2.6-0.1,3.9c-0.1-0.2-0.1-0.4-0.2-0.6
				c-0.1-0.2-0.1-0.7-0.1-1.6C188.4,233.4,188.5,232.9,188.7,232.4z M188.4,230.3c0-0.9,0.2-1.4,0.5-1.6c-0.1,1.1-0.1,2.2-0.1,3.3
				c-0.2-0.2-0.3-0.3-0.3-0.5C188.4,231.3,188.4,230.9,188.4,230.3z M182,265.8c0-0.1,0-0.3,0-0.3c0-0.9,0.3-2.1,0.8-3.7
				c0.4-1,0.8-1.7,1.2-2.3c0-0.3,0.1-0.6,0.2-0.7c0.3-0.3,0.7-0.4,1.3-0.5c0.2-1.5,0.5-2.3,1.2-2.3c0.6,0,1,0.8,1.1,2.4
				c0.1,0,0.3,0,0.4,0c0,0,0,0.1,0.1,0.1c0.1,0,0.1,0.3,0.1,0.8c0,0.2-0.2,0.4-0.5,0.8c0,0.1,0,0.3,0,0.3c0,1.7-0.1,3-0.2,4
				c-0.4,0.2-0.7,0.4-1,0.5c-0.6-0.3-1-1.1-1.2-2.3c0-0.1,0-0.2,0-0.3c0,0.2-0.1,0.4-0.2,0.6c-0.5,1.8-0.9,3.3-1.1,4.5
				c-0.4,0.2-0.7,0.3-1,0.4C182.7,266.6,182.3,266,182,265.8z M182.9,284.7c-0.5-0.5-1.3-0.8-2.5-0.7c0-0.2,0-0.3,0-0.5
				c0-1.2,0-2,0.1-2.3c0.1-1.1,0.5-1.9,1.2-2.2c0.6,0.2,1,0.5,1.3,1V284.7z M181.3,266.7c-0.2,0.8-0.3,2-0.3,3.8c0,0.1,0,0.8,0,2.3
				c-0.6,0-1.1-0.2-1.7-0.5c-0.1-2.5-0.2-5-0.3-7.7c0.2-0.2,0.5-0.2,0.8,0C180.7,264.8,181.2,265.5,181.3,266.7z M184.9,255.9
				c-0.1,0.3-0.2,0.5-0.3,0.6c-0.1,0.2-0.5,0.3-1,0.3c-0.7,0-1.2-0.4-1.5-1.3c-0.2-0.5-0.3-1-0.3-1.5c0-0.2,0.1-0.4,0.2-0.8
				c0.2-0.5,0.6-0.9,1.1-1.3c0.8,0.9,1.3,1.5,1.5,1.9C184.8,254.3,184.9,255,184.9,255.9z M189.7,265c0,0.5,0,0.9,0,1.4c0,0,0,0,0,0
				c-0.6-0.2-1-0.5-1.2-1c-0.1-0.2-0.1-0.5-0.1-1.1c0-0.9,0.1-1.4,0.2-1.5c0.2-0.1,0.5-0.2,1-0.2C189.6,263.5,189.6,264.3,189.7,265
				z M181.5,288c0.2-0.1,0.4-0.2,0.6-0.3c0.3-0.2,0.6-0.4,0.8-0.6v0.4c-0.5,0.3-0.9,0.5-1.3,0.6C181.6,288,181.5,288,181.5,288z
				 M181,294.9c0.3,1.1,0.4,1.9,0.4,2.6c0,0.3,0,0.7,0,1c-0.1-0.7-0.2-1.4-0.3-2.1C181.1,295.9,181,295.4,181,294.9z M183.9,279.5
				c0-1.6,0.4-2.4,1.3-2.5c0.8-0.1,1.3,0.8,1.3,2.5c0,0.9-0.1,1.7-0.2,2.4c-0.4,0.2-0.7,0.3-1,0.4
				C184.3,281.5,183.9,280.6,183.9,279.5z M185,302.5c0-0.4,0.1-0.6,0.1-0.7c0.2-0.3,0.7-0.4,1.6-0.3c0.3-0.2,0.6-0.3,1-0.5
				c0.2,0.1,0.5,0.2,0.8,0.2c0.3,0.1,0.4,0.4,0.4,0.9c0,0.3-0.1,0.6-0.2,0.9c-0.2-1.1-1-1.4-2.5-1
				C185.7,302.1,185.3,302.3,185,302.5z M190.6,301.1c-0.1,0.1-0.1,0.3-0.1,0.5c0,0.5,0,0.8,0.2,1c0.1,0.2,0.2,0.3,0.3,0.4
				c0.1,1.7,0.2,3.3,0.3,4.8c0,0-0.1,0-0.1,0c-0.6-0.4-1-0.9-1.2-1.5c-0.1-0.2-0.1-0.7-0.1-1.5c-0.5-0.2-0.8-0.5-0.9-0.8
				c-0.1-0.2-0.1-0.6-0.1-1.2c0-1.3,0.4-1.9,1.3-1.8C190.3,301,190.5,301,190.6,301.1z M189.4,321.3c-0.3-0.1-0.6-0.2-1-0.2
				c-1.3,0-1.9,0.8-1.9,2.3c0,0.1,0,0.5,0,1.3c0,0.1,0.1,0.2,0.1,0.3c-1,0-1.5-0.4-1.7-1.2c-0.1-0.4-0.1-0.9,0-1.4l0-2
				c0.2,0,0.5,0,1-0.1c0.2,0,0.5,0,0.8,0c-0.1-0.5-0.2-1-0.3-1.6c0.3-0.1,0.6-0.3,1-0.5c0.9-0.5,1.3-1.1,1.3-1.7
				c0-1.2-0.9-1.8-2.6-1.8c-0.5,0-0.9,0-1.2,0.1c-0.2-0.3-0.4-0.6-0.5-1c-0.1-0.2-0.1-0.7-0.1-1.4c0-1.3,0.1-2,0.2-2.3
				c0.2-0.4,0.7-0.6,1.5-0.5c-0.1-0.2-0.1-0.4-0.1-0.6c-0.1-0.6-0.2-1.1-0.3-1.8c0.5,0,1.2-0.5,1.9-1.4c0.1-0.2,0.3-0.3,0.4-0.5
				c0.1,0.9,0.4,2.2,1,3.7c0.2,0.6,0.4,1.1,0.5,1.5c0-1.4,0.4-2,1.3-2c0.3,0,0.5,0.1,0.6,0.2c0.1,1.3,0.2,2.6,0.3,3.8
				c-0.3,0.2-0.6,0.3-0.9,0.4c-0.3-0.3-0.6-0.6-0.8-1l0.1,0.2c0,0.5,0,0.8-0.1,0.9h-0.1l-0.2,0.2c-0.1,0.1-0.3,0.1-0.6,0.2v4
				C189.2,318.8,189.3,320.1,189.4,321.3z M189.8,325.2c0.2,0.8,0.4,1.5,0.6,2l-0.3,0.3c-0.2,0.2-0.5,0.3-1,0.3
				c-0.9,0-1.6-0.5-2-1.4c-0.1-0.3-0.2-0.6-0.2-0.9c0.3,0.2,0.8,0.3,1.4,0.3C189,325.8,189.5,325.6,189.8,325.2z M192.8,323
				c-0.2,0.4-0.3,1-0.3,1.8c0,0.5,0,0.9,0.2,1.1c0.1,0.3,0.3,0.5,0.5,0.7c0.1,1.1,0.1,2.2,0.2,3.4c-0.2-0.4-0.3-0.9-0.4-1.4
				c-0.1-0.3-0.1-1-0.1-2.1c-0.1,0-0.2,0-0.3,0c-1,0-1.6-0.5-1.8-1.4c-0.1-0.4-0.1-0.8,0-1c0-1.3,0.3-2,1-2c0.3,0,0.6,0.2,0.8,0.5
				C192.8,322.7,192.8,322.8,192.8,323z M190.1,316.5c0.3-0.5,1-0.7,1.9-0.6c0.1,1.2,0.2,2.2,0.4,3.2c0,0.2,0.1,0.4,0.1,0.6
				c0,0.1,0,0.3,0,0.3c-0.1,0-0.3,0.1-0.5,0.3c-0.3,0.2-0.6,0.3-0.8,0.4c-0.4-0.4-0.8-0.8-1-1.4c-0.2-0.4-0.3-0.7-0.3-0.9
				C189.9,317.4,190,316.8,190.1,316.5z M183.7,324.5c0.8,0.9,1.3,1.5,1.5,1.9c0.2,0.4,0.3,1,0.3,1.9c-0.1,0.3-0.2,0.5-0.3,0.6
				c-0.1,0.2-0.5,0.3-1,0.3c-0.2,0-0.5,0-0.7-0.1c-0.1-1.5-0.1-2.9-0.2-4.4C183.4,324.7,183.5,324.6,183.7,324.5z M187.4,337.4
				c-0.1,0-0.2,0-0.3,0c-0.6-0.3-1-1.1-1.2-2.3c0-0.1,0-0.2,0-0.3c-0.1,0.2-0.1,0.3-0.2,0.5c-0.5,1.8-0.9,3.3-1.1,4.5
				c-0.4,0.2-0.7,0.3-1,0.4c0-0.3,0-0.5,0-0.6c0-2,0-4.1-0.1-6.2c0.3-0.6,0.6-1.1,0.9-1.5c0-0.3,0.1-0.6,0.2-0.7
				c0.3-0.3,0.7-0.4,1.3-0.5c0.2-1.5,0.5-2.3,1.2-2.3c0.6,0,1,0.8,1.1,2.4c0.1,0,0.3,0,0.4,0c0,0,0,0.1,0.1,0.1
				c0.1,0,0.1,0.3,0.1,0.8c0,0.2-0.2,0.4-0.5,0.8c0,0.1,0,0.3,0,0.3c0,1.5-0.1,2.7-0.2,3.5C187.9,336.8,187.6,337.1,187.4,337.4z
				 M191.5,335.2c-1,0.3-1.9,0.6-2.5,1c0-0.4,0-0.7,0.1-0.8C189.4,335.1,190.2,335,191.5,335.2z"/>
			<path fill-rule="evenodd" clip-rule="evenodd" fill="#C2C2C9" d="M187,72.7c0-1,0.6-1.9,1.7-2.8v4.8c-0.7-0.2-1.2-0.5-1.5-0.9
				C187,73.5,186.9,73.1,187,72.7z M180.8,67.7c-0.4,0.4-0.9,0.6-1.6,0.6v-0.1c0.1-1.8,0.4-3.2,0.9-4.1c0.8,0.1,1.3,0.8,1.3,2
				C181.3,66.8,181.1,67.3,180.8,67.7z M186.6,86.1c0.7,0.3,1.1,0.9,1.1,1.8c0,0.2-0.3,0.6-0.8,1c-0.3,0.2-0.6,0.5-1,0.8
				c-0.2,0.1-0.4,0.3-0.6,0.4c-0.9,0.6-1.7,0.9-2.4,1c-0.2,0-0.3,0-0.5,0h0c-0.9,0-1.5-0.3-1.8-1c0-0.2-0.1-0.4-0.1-0.5
				c0-0.3,0-0.5,0-0.5c0-0.7,0.1-1.3,0.4-1.8c0.2-0.4,0.5-0.7,0.8-0.9c0.6-0.4,1.4-0.6,2.4-0.7C185.2,85.8,186,85.9,186.6,86.1z
				 M179.7,103.3c-0.3,0.1-0.5,0.2-0.9,0.4c0-1.5-0.1-2.7-0.1-3.8c0.1,0,0.1,0,0.2,0c0.3-0.1,0.5-0.1,0.8,0c1.1,0,1.6,0.5,1.6,1.8
				C181.3,102.1,180.8,102.8,179.7,103.3z M187.8,112c-0.5-0.3-0.9-0.8-1.1-1.5l-0.3-1.7c0-0.2,0-0.5,0-0.7c0,0,0-0.1,0-0.1
				c0-0.8,0.2-1.3,0.4-1.6c0.3-0.4,0.7-0.4,1.3-0.1c0.2,0.1,0.3,0.2,0.5,0.3v5.7C188.3,112.2,188,112.1,187.8,112z M188.3,97.5
				c-0.6-0.3-0.8-0.8-0.8-1.5c0-0.9,0.4-1.7,1.2-2.2v3.8C188.5,97.6,188.4,97.5,188.3,97.5z M188.7,98v1.9c-0.1-0.3-0.2-0.7-0.2-1
				S188.5,98.2,188.7,98z M188.8,127.8c-1.2-0.1-1.8-0.7-1.8-1.7c0-0.6,0.6-1.3,1.8-2.1c0.1,1.2,0.2,2.5,0.3,3.9
				C189,127.8,188.8,127.8,188.8,127.8z M184.2,125.1c-0.3,0.3-0.7,0.5-1.1,0.8c-0.4,0.2-0.7,0.4-1.1,0.6c-0.8,0.3-1.6,0.6-2.4,0.7
				c0-1.6-0.1-3.1-0.1-4.5c0.1-0.1,0.3-0.2,0.5-0.3c0.4-0.2,0.8-0.5,1.3-0.7c0.7-0.4,1.4-0.6,1.9-0.7c0.3-0.1,0.5-0.1,0.8-0.1
				c0.6,0,1,0.4,1.3,1c0.1,0.3,0.2,0.7,0.2,1.1C185.2,123.7,184.8,124.4,184.2,125.1z M189.1,128.4c0.1,1,0.1,2.1,0.2,3.1
				c-0.6-0.3-0.8-0.8-0.8-1.5C188.5,129.3,188.7,128.7,189.1,128.4z M180.6,136.5c0.1-1.2,0.8-1.9,2-2.3c0.2-0.1,0.5-0.1,0.8-0.2
				c0.7-0.1,1.3-0.1,1.7,0c0.7,0.3,1.1,0.9,1.1,2c0,0.2-0.1,0.6-0.3,1c-0.1,0.1-0.2,0.3-0.3,0.5c-0.1,0.2-0.2,0.4-0.3,0.6
				c-0.2,0.4-0.3,0.7-0.3,0.9c0,0.4-0.1,0.7-0.3,0.9c-0.1,0.1-0.2,0.3-0.4,0.4c-0.3,0.3-0.7,0.5-1.2,0.5c-1.2,0-2-0.6-2.5-1.9
				c-0.2-1.2-0.4-1.9-0.4-1.9C180.5,136.8,180.6,136.7,180.6,136.5z M189.8,140.8c-0.8-0.1-1.3-0.4-1.6-1c-0.1-0.7-0.2-1-0.2-1
				c0-1,0.5-1.8,1.6-2.4C189.6,137.7,189.7,139.2,189.8,140.8z M180.5,158.3c-0.1-1.8-0.1-3.6-0.2-5.3c0.4-0.2,0.8-0.4,1.3-0.5
				c0.3-0.1,0.6-0.2,0.8-0.2c1.6-0.4,2.5,0,2.7,1.2c0,0.2,0,0.3,0,0.5c0,0.8-0.7,1.7-2,2.8c-0.6,0.4-1.1,0.8-1.5,1.1
				C181.2,158,180.8,158.2,180.5,158.3z M180.5,168.4c0.4,0,0.7,0.1,1,0.3c0.4,0.1,0.7,0.4,0.9,0.6c0.3,0.3,0.4,0.8,0.4,1.4
				c0,0.3,0,0.5-0.1,0.8c-0.2,0.9-0.8,1.3-1.8,1.3c-0.2,0-0.3,0-0.5,0C180.5,171.1,180.5,169.7,180.5,168.4z M180,141.9
				c0.2,0.3,0.3,0.6,0.3,1.1c0,0.3-0.1,0.5-0.3,0.8C180,143.1,180,142.5,180,141.9z M188,163.1c0.1-1,0.9-1.9,2.4-2.4
				c0.1,0,0.1-0.1,0.2-0.1c0,1.3,0.1,2.2,0.1,2.7c0,0.2,0,0.8,0,1.8c-0.3,0.1-0.6,0.2-0.8,0.2c-1.3,0-2-0.6-2-1.8
				C188,163.4,188,163.3,188,163.1z M186.9,188.8c0.5-0.5,1.3-1,2.3-1.3c0.3-0.1,0.6-0.2,0.9-0.3c0,1.4-0.1,2.9-0.1,4.5
				c-0.4,0.2-0.7,0.3-1,0.5c-0.3,0.1-0.6,0.1-0.8,0.1c-0.3,0-0.6,0-0.9,0c-0.4-0.1-0.7-0.3-0.9-0.5c-0.1-0.1-0.2-0.2-0.3-0.3
				c-0.1-0.2-0.2-0.5-0.2-1C186,189.9,186.3,189.3,186.9,188.8z M189.3,195c0,0.2,0,0.3,0,0.5c0,0.6-1.1,3.2-3.3,7.8
				c-0.2,0.5-0.5,1-0.8,1.5c-0.2,0.5-0.5,1-0.8,1.5c-0.7,0-1.2-0.3-1.5-0.9c-0.1-0.3-0.2-0.6-0.3-1c0-1.3,0-2,0-2.1
				c0-1.9,0.6-3.7,1.9-5.5c0.4-0.6,0.9-1.3,1.5-1.8c0.3-0.4,0.6-0.7,1-0.9c0.5-0.4,0.9-0.6,1.3-0.5C188.8,193.5,189.2,194,189.3,195
				z M190.3,179.6c0,1,0,2,0,3.1c-0.1-0.1-0.2-0.3-0.3-0.5c0-0.8,0-1.2,0-1.3C190,180.4,190,180,190.3,179.6z M189.7,201.5
				c-0.2-0.2-0.4-0.4-0.5-0.7c0-0.1,0-0.1,0-0.1c-0.1-0.6-0.2-0.9-0.2-1c0-0.6,0.3-1.2,0.8-1.5C189.7,199.2,189.7,200.3,189.7,201.5
				z M181.4,211c-0.4,0.2-1,0.3-1.8,0.3c-0.1,0-0.2,0-0.3,0c0-2.1,0.1-4.1,0.1-6c0.1,0,0.1,0,0.2,0c1.7-0.3,2.6,0.6,2.6,2.9
				c0,1-0.1,1.7-0.3,2.1C181.9,210.5,181.7,210.8,181.4,211z M181.3,233.8c0.2-0.8,0.6-1.2,1.1-1.1c0,0,0.1,0,0.2,0
				c0.3,0.1,0.7,0.4,1.2,0.8c0.3,0.2,0.5,0.5,0.7,0.7c0.1,0.2,0.3,0.3,0.4,0.5c1,1.1,1.5,2.2,1.5,3c0,0.5-0.2,1-0.5,1.4
				c-0.4,0.4-0.9,0.6-1.6,0.6c-0.1,0-0.2,0-0.3,0c-0.4,0-0.7-0.1-1-0.1c-0.9-0.3-1.5-1-1.8-2v-1.5l-0.1-0.7
				C181.1,234.9,181.2,234.3,181.3,233.8z M182.9,284.7c0.3,0.3,0.4,0.8,0.4,1.3c0,0.4-0.1,0.7-0.4,1c-0.2,0.2-0.5,0.4-0.8,0.6
				c-0.2,0.1-0.4,0.2-0.6,0.3c-0.4,0.1-0.7,0.3-1.1,0.3c-0.1-1.4-0.3-2.9-0.4-4.3c0.1,0,0.3,0,0.4,0
				C181.6,283.9,182.4,284.1,182.9,284.7z M182,265.8c0.3,0.1,0.8,0.8,1.3,2.1c0.2,0.6,0.5,1.3,0.8,2c0.4,1.2,0.8,2.7,1.3,4.4
				l-0.3,1.4l-0.4,0.3v0c-0.3,0.2-0.7,0.3-1.2,0.3c-1.3,0-2.1-1-2.3-2.8c0-0.3,0-0.5,0-0.8c0-1.4,0-2.2,0-2.3c0-1.7,0.1-3,0.3-3.8
				C181.5,266,181.7,265.8,182,265.8z M187.3,272.2c-0.2-0.3-0.3-0.6-0.3-0.9c0-0.9,0.3-1.4,0.9-1.6c0.5-0.2,1.1-0.2,1.9,0
				c0.1,1.5,0.1,3,0.2,4.4c-0.7-0.2-1.3-0.5-1.8-0.9C187.8,272.8,187.5,272.5,187.3,272.2z M189.3,256.8c0.1,1.5,0.1,3.1,0.2,4.9
				c-0.5-0.2-0.8-0.5-1-1c0-0.8,0-1.3,0-1.4C188.5,258.1,188.8,257.3,189.3,256.8z M185.7,307.3c-0.3,0-0.6,0-0.9,0
				c-0.7-0.2-1.1-0.5-1.3-1c0-0.8,0-1.2,0-1.3c0-1,0.4-1.7,1.2-2.3c0.1-0.1,0.2-0.2,0.3-0.2c0.3-0.2,0.7-0.4,1.2-0.5
				c1.5-0.4,2.3-0.1,2.5,1c0,0.2,0,0.3,0,0.5c0,0.6-0.3,1.2-0.8,2c-0.1,0.1-0.2,0.3-0.4,0.5C186.8,306.9,186.2,307.3,185.7,307.3z
				 M190.6,301.1c0.1-0.2,0.2-0.4,0.3-0.5c0,0.8,0.1,1.6,0.1,2.4c-0.2-0.1-0.3-0.2-0.3-0.4c-0.1-0.2-0.2-0.5-0.2-1
				C190.5,301.4,190.5,301.2,190.6,301.1z M185,314.8c0.3-0.1,0.7-0.1,1.2-0.1c1.7,0,2.6,0.6,2.6,1.8c0,0.6-0.5,1.2-1.3,1.7
				c-0.4,0.2-0.7,0.4-1,0.5c-0.3,0.1-0.6,0.1-0.8,0.1c-1,0-1.7-0.3-2-0.8c-0.1-0.2-0.2-0.5-0.2-1C183.5,315.8,184,315.1,185,314.8z
				 M192.8,323c0.1,1.2,0.3,2.4,0.4,3.6c-0.2-0.2-0.4-0.4-0.5-0.7c-0.1-0.2-0.2-0.6-0.2-1.1C192.5,324,192.6,323.4,192.8,323z
				 M189.8,325.2c-0.3,0.4-0.8,0.6-1.4,0.6c-0.6,0-1.1-0.1-1.4-0.3c-0.2-0.1-0.3-0.3-0.4-0.5c0-0.1-0.1-0.2-0.1-0.3
				c0-0.8,0-1.2,0-1.3c0-1.5,0.6-2.3,1.9-2.3c0.4,0,0.7,0.1,1,0.2c0.6,0.3,0.8,1,0.8,2C190.3,324.2,190.1,324.8,189.8,325.2z
				 M189,336.2c0.6-0.4,1.5-0.7,2.5-1c0.1-0.1,0.3-0.1,0.5-0.2c0.6-0.2,1.2-0.3,1.7-0.3c0,1.3,0.1,2.6,0.1,4
				c-0.4,0.3-0.9,0.5-1.3,0.7c-1.3,0.6-2.5,0.9-3.5,0.9c-0.3,0-0.5,0-0.7,0s-0.3-0.1-0.3-0.1c-0.1-0.1-0.2-0.2-0.3-0.3
				c-0.1-0.1-0.3-0.2-0.4-0.3c-0.1,0.1-0.2-0.3-0.2-1.2c0-0.4,0.1-0.8,0.4-1.1c0.2-0.3,0.5-0.6,0.8-0.9
				C188.5,336.4,188.7,336.3,189,336.2z"/>
			<path fill-rule="evenodd" clip-rule="evenodd" fill="#E8E8F4" d="M178.8,103.6c0.3-0.1,0.6-0.3,0.9-0.4c0,0.1,0,0.2,0,0.3
				c-0.1,0.5-0.2,0.9-0.3,1.3c0.1,0,0.3,0.1,0.6,0.1c0.3,0.1,0.4,0.4,0.4,0.9c0,1.1-0.2,2.7-0.5,4.6c-0.3,2-0.5,3.9-0.5,5.6
				c-0.1,0-0.1,0.1-0.2,0.1C179.1,111,179,106.8,178.8,103.6z M184.2,125.1c0,0.1,0,0.1,0,0.2c1.1-1.4,1.7-1.1,1.7,1
				c0,0.9-0.4,2.3-1.1,4.1c0.1,0,0.3,0,0.4,0c0,0,0,0.1,0.1,0.1c0.1,0,0.1,0.3,0.1,0.8c0,0.2-0.1,0.4-0.2,0.6c1.3,0,2.4,0.5,3.2,1.4
				c0-0.5,0-1.1,0-1.8c0-1.7,0.1-2.9,0.3-3.7c0.1,0,0.2,0,0.3,0c0,0.2,0,0.4,0,0.6c-0.4,0.3-0.6,0.9-0.6,1.6c0,0.7,0.3,1.2,0.8,1.5
				c0.1,1.5,0.2,3.1,0.3,4.8c-1.1,0.6-1.6,1.4-1.6,2.4c0,0,0.1,0.4,0.2,1c0.3,0.6,0.8,0.9,1.6,1c0.1,1.6,0.1,3.2,0.2,4.9
				c-0.3,0.1-0.5,0.3-0.8,0.4c-0.1,0.4-0.2,0.9-0.3,1.5c-0.4,1.5-0.6,2.7-0.7,3.4c-0.1,0.1-0.3,0.1-0.4,0.1
				c-0.1,0.6-0.4,1.4-0.9,2.4l-0.8,0.3c-0.4-0.1-0.7-0.3-0.9-0.5h-0.1c0,0.1,0,0.2,0,0.3c-0.2-1.2-1.1-1.6-2.7-1.2
				c-0.2-0.5-0.4-1.1-0.6-1.8c-0.3-1-0.4-2-0.5-3c0-3.7,0.7-4.1,2-1c0.7,1.9,1.2,3.4,1.5,4.4c0-0.4,0-0.7,0.1-0.9
				c0.2-0.3,0.5-0.5,0.9-0.5c0-0.3,0-0.7,0-1.2c0-1.5,0.1-2.4,0.2-2.8c0.3-0.5,1-1,2.1-1.6c-0.2-0.5-0.4-1.1-0.5-1.7
				c-0.2,0.5-0.3,0.9-0.3,1.3c-0.1,0-0.3,0.1-0.5,0.3c-0.3,0.2-0.6,0.3-0.8,0.4c-0.6-0.4-1-0.9-1.2-1.5c-0.1-0.2-0.1-0.8-0.1-1.6
				l0-1.1c0.2-0.3,0.3-0.6,0.3-0.9c0-0.2,0.1-0.5,0.3-0.9c0.3,0,0.6,0.1,0.8,0.1c-0.1-0.4-0.3-0.8-0.3-1.2c0.2-0.5,0.3-0.8,0.3-1
				c0-1-0.4-1.7-1.1-2c-0.1-0.6-0.2-1-0.2-1.2c0-0.3,0-0.4,0-0.5c-0.1,0.1-0.3,0.1-0.5,0.2c-1.2,0.4-1.8,0.6-1.8,0.6
				c-0.5-0.2-0.8-0.3-0.9-0.4c-0.2-0.2-0.3-0.6-0.3-1.1s0.2-0.9,0.6-1.1c0-0.1,0-0.2,0-0.3c-0.1-0.3-0.1-1.1-0.1-2.3
				c0-0.5,0-1,0-1.4c0.4-0.2,0.7-0.4,1.1-0.6C183.5,125.6,183.8,125.4,184.2,125.1z M181.5,168.6c-0.3-0.1-0.6-0.2-1-0.3
				c0.1-3.3,0.1-5.2,0.1-5.6c0-0.9-0.1-1.8-0.1-2.8c0-0.1,0.1-0.1,0.1-0.2c0,0-0.1,0-0.1-0.1c0-0.5,0-1,0-1.5
				c0.3-0.1,0.7-0.3,1.2-0.4c0.3,0.3,0.5,0.8,0.8,1.4c0.2,0.4,0.3,0.9,0.4,1.5c0,0.1,0,0.1,0.1,0.2c0-0.1,0-0.2,0-0.4
				c0-1,0.1-1.6,0.2-1.7c0.2-0.3,0.7-0.4,1.6-0.3c0.3-0.2,0.6-0.3,1-0.5c0.2,0.1,0.5,0.2,0.8,0.2c0.3,0.1,0.4,0.4,0.4,0.9
				c0,0.4-0.2,0.9-0.5,1.4c-0.3,0.5-0.5,1-0.5,1.4c0,1,0.3,2.4,1,4.4c0.2,0.6,0.4,1.1,0.5,1.5c0-1.4,0.4-2.1,1.3-2.1
				c0.8,0,1.3,0.7,1.3,2.1c0,0.7-0.1,1.3-0.2,1.8c-0.4,0.2-0.7,0.4-1,0.5c-0.3-0.3-0.6-0.6-0.8-1l0.1,0.2c0,0.5,0,0.8-0.1,0.9h-0.1
				l-0.2,0.2c-0.1,0.1-0.3,0.1-0.6,0.2v4c0.3,1.7,0.5,3.3,0.5,4.8c0,0.5,0,0.8-0.1,0.9h-0.1l-0.2,0.2c0,0-0.1,0.1-0.1,0.2
				c0.4,0.3,0.6,0.7,0.8,1.2c0.2,1.1,0.5,1.9,0.7,2.5l-0.3,0.3c-0.2,0.2-0.5,0.3-1,0.3c-0.9,0-1.6-0.5-2-1.4
				c-0.1-0.5-0.2-0.9-0.3-1.4c-0.1,0-0.2,0-0.3,0c-1,0-1.6-0.4-1.8-1.2c-0.1-0.4-0.1-0.9,0-1.4l0-2c0.2,0,0.5,0,1-0.1
				c0.2,0,0.5,0,0.8,0c-0.1-0.5-0.2-1.1-0.3-1.8c-0.2-1.1-0.3-2.2-0.4-3.3c-0.1,0-0.3,0.1-0.3,0.1c-0.4-0.2-0.8-0.5-1-0.9
				c0.1-0.2,0.1-0.5,0.1-0.8c0-0.6-0.1-1.1-0.4-1.4c0-1.2,0.1-1.9,0.2-2.1c0.2-0.4,0.7-0.6,1.5-0.5c-0.1-0.2-0.1-0.4-0.1-0.5
				c-0.2-0.7-0.3-1.5-0.4-2.3c-0.2-0.2-0.3-0.4-0.4-0.6c-0.1,0.1-0.2,0.3-0.3,0.5C182.7,166.1,182.3,167.7,181.5,168.6z M184.6,276
				L184.6,276l0.4-0.3l0.3-1.4c-0.5-1.7-0.9-3.2-1.3-4.4c0.1-2.3,0.5-3.5,1.2-3.4c0.5,0.1,0.8,0.6,1,1.7c1.1-1.4,1.7-1.1,1.7,1
				c0,0.1,0,0.3,0,0.4c-0.6,0.2-0.9,0.8-0.9,1.6c0,0.3,0.1,0.5,0.3,0.9c-0.1,0.4-0.3,0.8-0.5,1.2c0.1,0,0.3,0.1,0.4,0.1
				c0,0,0,0.1,0.1,0.1c0.1,0,0.1,0.3,0.1,0.8c0,0.2-0.1,0.4-0.2,0.5c1.1,0,2.1,0.4,2.9,1.1c0.3,8.4,0.5,13,0.5,13.8
				c0,0.6,0,1.1,0,1.7c-0.3,1.1-0.4,1.9-0.5,2.5c-0.1,0.1-0.3,0.1-0.4,0.1c-0.1,0.6-0.4,1.4-0.9,2.4l-0.8,0.3
				c-0.4-0.1-0.7-0.3-0.9-0.5h-0.1c0,0.1,0,0.2,0,0.3c-0.1,0.2-0.5,0.3-1,0.3c-1,0-1.7-1.1-2.3-3.2c-0.3-1-0.4-2-0.5-3
				c0-3.7,0.7-4.1,2-1c0.7,1.9,1.2,3.4,1.5,4.3c0-0.4,0-0.7,0.1-0.8c0.2-0.3,0.5-0.5,0.9-0.5c0-0.3,0-0.7,0-1.2
				c0-1.5,0.1-2.4,0.2-2.8c0.3-0.5,1-1,2.1-1.6c-0.2-0.5-0.4-1.1-0.5-1.7c-0.2,0.5-0.3,0.9-0.3,1.3c-0.1,0-0.3,0.1-0.5,0.3
				c-0.3,0.2-0.6,0.3-0.8,0.4c-0.6-0.4-1-0.9-1.2-1.5c-0.1-0.2-0.1-0.8-0.1-1.6l0-2.9c0.5,0,1,0,1.3,0.1c-0.9-2.9-1.4-4.7-1.4-5.4
				c0-0.3,0-0.5,0-0.5c-0.1,0.1-0.3,0.1-0.5,0.2C185.3,275.8,184.7,276,184.6,276L184.6,276z M184.7,302.8c-0.8,0.5-1.2,1.3-1.2,2.3
				c0,0.1,0,0.5,0,1.3c0.2,0.5,0.6,0.9,1.3,1c-0.2,2.3-0.7,3.8-1.5,4.6c0.1,0,0.1,0.3,0.1,0.8c0,0.1-0.2,0.5-0.7,1.3
				c0-0.7-0.1-1.3-0.1-1.9c0.2,0,0.4,0.1,0.6,0.2c0-0.1,0.1-0.1,0.1-0.2c0,0-0.1,0-0.1,0c-0.2-0.2-0.4-0.4-0.6-0.6
				c-0.2-2.8-0.5-5.6-0.7-8.5l0.1,0c0.2,0.2,0.4,0.3,0.5,0.5c0.1-0.3,0.1-0.5,0.3-0.7c-0.3-0.1-0.6-0.3-0.9-0.5
				c-0.1-0.8-0.1-1.5-0.2-2.3c0.4-0.1,0.9,0,1.3,0.2c0.7,0.3,1.3,1,1.6,2C184.5,302.4,184.6,302.5,184.7,302.8z"/>
		</g>
	</g>
	<g>
		<path fill-rule="evenodd" clip-rule="evenodd" fill="#FFFFFF" d="M166.3,66.1c0-1.5,1.5-2.1,4.4-2c2.9,0.1,4.3,0.9,4.3,2.4
			c0,0.5-0.1,0.9-0.5,1.3c-0.4,0.4-0.8,0.6-1.4,0.6c-0.3,0-0.8,0-1.5-0.1c-0.8-0.1-2-0.3-3.5-0.4c-0.4-0.3-0.9-0.6-1.5-1
			C166.5,66.6,166.3,66.4,166.3,66.1z M163.8,70.3c0-1.6,1.1-2.3,3.4-2c2.2,0.3,3.3,1,3.3,2.3c0,0.8-0.3,1.3-1,1.6
			c-0.4,0.2-1.2,0.3-2.3,0.3c-1.8,0-2.9-0.3-3.3-1C163.8,71.3,163.8,70.9,163.8,70.3z M175.8,70v-1.1c0-2.5,0.9-3.3,2.7-2.4
			c1.7,0.9,2.6,1.9,2.6,3c0,1.2-0.9,1.9-2.6,1.9C177,71.4,176.1,70.9,175.8,70z M157.5,70.6c-0.1-0.2-0.2-0.5-0.2-1
			c0-1.5,0.9-2.1,2.7-2c1.7,0.1,2.6,0.8,2.6,1.9c0,1.2-0.9,1.9-2.6,1.9C158.6,71.4,157.8,71.1,157.5,70.6z"/>
	</g>
</g>
</svg>
