<?xml version="1.0" encoding="utf-8"?>
<!-- Generator: Adobe Illustrator 16.0.0, SVG Export Plug-In . SVG Version: 6.00 Build 0)  -->
<!DOCTYPE svg PUBLIC "-//W3C//DTD SVG 1.1//EN" "http://www.w3.org/Graphics/SVG/1.1/DTD/svg11.dtd">
<svg version="1.1" id="Layer_2" xmlns="http://www.w3.org/2000/svg" xmlns:xlink="http://www.w3.org/1999/xlink" x="0px" y="0px"
	 width="700px" height="700px" viewBox="0 0 700 700" enable-background="new 0 0 700 700" xml:space="preserve">
<g>
	<g>
		<path fill-opacity="0.251" d="M521,573.7c1.1,1.1,1.6,2.4,1.6,3.9s-0.5,2.8-1.6,3.9s-2.4,1.6-3.9,1.6s-2.8-0.5-3.9-1.6
			c-1.1-1.1-1.6-2.4-1.6-3.9s0.5-2.8,1.6-3.9c1.1-1.1,2.4-1.6,3.9-1.6S519.9,572.6,521,573.7z"/>
	</g>
	<g>
		
			<radialGradient id="SVGID_1_" cx="735.5596" cy="-72.0605" r="6.05" gradientTransform="matrix(1 0 0 -1 -220.96 503.3398)" gradientUnits="userSpaceOnUse">
			<stop  offset="0" style="stop-color:#FFF7F7"/>
			<stop  offset="0.5922" style="stop-color:#B8BDC0"/>
			<stop  offset="1" style="stop-color:#ACB3B7"/>
		</radialGradient>
		<path fill="url(#SVGID_1_)" d="M519,573.2c1.1,1.1,1.6,2.4,1.6,3.9s-0.5,2.8-1.6,3.9s-2.4,1.6-3.9,1.6s-2.8-0.5-3.9-1.6
			c-1.1-1.1-1.6-2.4-1.6-3.9s0.5-2.8,1.6-3.9c1.1-1.1,2.4-1.6,3.9-1.6C516.6,571.5,517.9,572.1,519,573.2z"/>
	</g>
</g>
<g>
	<g>
		<path fill-opacity="0.251" d="M452.2,529.8c0-1.5,0.5-2.8,1.6-3.9c1.1-1.1,2.4-1.6,3.9-1.6s2.8,0.5,3.9,1.6
			c1.1,1.1,1.6,2.4,1.6,3.9s-0.5,2.8-1.6,3.9c-1.1,1.1-2.4,1.6-3.9,1.6s-2.8-0.5-3.9-1.6C452.7,532.6,452.2,531.3,452.2,529.8z"/>
	</g>
	<g>
		
			<radialGradient id="SVGID_2_" cx="676.1602" cy="-24.2598" r="6.05" gradientTransform="matrix(1 0 0 -1 -220.96 503.3398)" gradientUnits="userSpaceOnUse">
			<stop  offset="0" style="stop-color:#FFF7F7"/>
			<stop  offset="0.5922" style="stop-color:#B8BDC0"/>
			<stop  offset="1" style="stop-color:#ACB3B7"/>
		</radialGradient>
		<path fill="url(#SVGID_2_)" d="M451.8,525.3c1.1-1.1,2.4-1.6,3.9-1.6s2.8,0.5,3.9,1.6c1.1,1.1,1.6,2.4,1.6,3.9s-0.5,2.8-1.6,3.9
			c-1.1,1.1-2.4,1.6-3.9,1.6s-2.8-0.5-3.9-1.6c-1.1-1.1-1.6-2.4-1.6-3.9S450.7,526.4,451.8,525.3z"/>
	</g>
</g>
<g>
	<g>
		<path fill-opacity="0.251" d="M269.4,278.7c1.1-1.1,2.4-1.6,3.9-1.6s2.8,0.5,3.9,1.6c1.1,1.1,1.6,2.4,1.6,3.9s-0.5,2.8-1.6,3.9
			c-1.1,1.1-2.4,1.6-3.9,1.6s-2.8-0.5-3.9-1.6s-1.6-2.4-1.6-3.9S268.3,279.8,269.4,278.7z"/>
	</g>
	<g>
		
			<radialGradient id="SVGID_3_" cx="491.7598" cy="222.9399" r="6.05" gradientTransform="matrix(1 0 0 -1 -220.96 503.3398)" gradientUnits="userSpaceOnUse">
			<stop  offset="0" style="stop-color:#FFF7F7"/>
			<stop  offset="0.5922" style="stop-color:#B8BDC0"/>
			<stop  offset="1" style="stop-color:#ACB3B7"/>
		</radialGradient>
		<path fill="url(#SVGID_3_)" d="M267.4,286c-1.1-1.1-1.6-2.4-1.6-3.9s0.5-2.8,1.6-3.9c1.1-1.1,2.4-1.6,3.9-1.6s2.8,0.5,3.9,1.6
			c1.1,1.1,1.6,2.4,1.6,3.9s-0.5,2.8-1.6,3.9c-1.1,1.1-2.4,1.6-3.9,1.6C269.8,287.5,268.5,287,267.4,286z"/>
	</g>
</g>
<g>
	<g>
		
			<radialGradient id="SVGID_4_" cx="753.8096" cy="-44.9634" r="8.5625" gradientTransform="matrix(1 0 0 -1.3051 -220.96 477.2637)" gradientUnits="userSpaceOnUse">
			<stop  offset="0" style="stop-color:#000000;stop-opacity:0.4471"/>
			<stop  offset="1" style="stop-color:#000000;stop-opacity:0"/>
		</radialGradient>
		<path fill="url(#SVGID_4_)" d="M529.8,529.9c-0.1-1,0.2-1.8,0.9-2.5c0.6-0.7,1.5-0.9,2.5-0.8c1,0.1,1.8,0.6,2.5,1.4
			c0.8,0.8,1.3,1.7,1.4,2.7c0.1,0.9-0.1,1.6-0.6,2.2c0,0.6,0,1.2,0,2c1.1,1.3,1.8,2.8,2.2,4.4c0.4,2,0,3.8-1.1,5.3
			c-1.1,1.5-2.5,2.2-4.5,2.2c-1.7,0-3.3-0.6-4.8-1.8c-0.2-0.2-0.3-0.3-0.5-0.5c-0.6-0.6-1.2-1.2-1.6-1.8c-0.7-1-1.1-2.2-1.4-3.4
			c-0.3-1.2-0.2-2.3,0.1-3.3c0.2-0.7,0.5-1.3,1-2c0.1-0.1,0.2-0.3,0.3-0.3c0.8-0.9,1.8-1.5,3-1.7l0.7-1.7
			C529.9,530.2,529.8,530,529.8,529.9z"/>
	</g>
	<g>
		<path d="M529.5,527.4c0.8-0.6,1.6-0.9,2.6-0.8c1,0.1,1.8,0.6,2.4,1.3c0.6,0.8,0.9,1.6,0.8,2.5c-0.1,0.9-0.6,1.7-1.4,2.3
			c-0.7,0.6-1.6,0.8-2.6,0.8c-1-0.1-1.8-0.5-2.4-1.3c-0.6-0.7-0.9-1.5-0.8-2.5C528.3,528.8,528.7,528,529.5,527.4z"/>
	</g>
	<g>
		
			<linearGradient id="SVGID_5_" gradientUnits="userSpaceOnUse" x1="748.4609" y1="-26.1523" x2="756.8109" y2="-29.8022" gradientTransform="matrix(1 0 0 -1 -220.96 503.3398)">
			<stop  offset="0" style="stop-color:#2C3D45"/>
			<stop  offset="0.4392" style="stop-color:#618796"/>
			<stop  offset="1" style="stop-color:#2A3B42"/>
		</linearGradient>
		<path fill="url(#SVGID_5_)" d="M534.6,530.6c-0.1,0.2-0.1,0.6-0.2,1.1c-0.2,1-0.5,2.5-0.9,4.4c0,0,0,0,0-0.1
			c-0.3-0.6-0.7-1.1-1.2-1.5c-0.3-0.3-0.5-0.5-0.8-0.7c-0.7-0.5-1.4-0.8-2.3-0.9c-0.4-0.1-0.8-0.1-1.3-0.1c-0.3,0-0.6,0-0.9,0.1
			c-0.3,0-0.5,0-0.6,0.1l2.8-4.5l0,0c0.6-0.6,1.4-1,2.2-1c0.9,0,1.6,0.3,2.2,1C534.3,529,534.6,529.8,534.6,530.6z"/>
	</g>
	<g>
		
			<radialGradient id="SVGID_6_" cx="748.2588" cy="-33.2598" r="8.2757" gradientTransform="matrix(1 0 0 -1 -220.96 503.3398)" gradientUnits="userSpaceOnUse">
			<stop  offset="0" style="stop-color:#D1D9DC"/>
			<stop  offset="0.251" style="stop-color:#95A6AD"/>
			<stop  offset="0.5882" style="stop-color:#6A818A"/>
			<stop  offset="1" style="stop-color:#46626C"/>
		</radialGradient>
		<path fill="url(#SVGID_6_)" d="M533.3,543.3c-1.4,1.4-3,2.1-4.9,2.1c-1.9,0-3.5-0.7-4.9-2.1c-1.3-1.3-2-2.9-2-4.8s0.7-3.5,2-4.9
			c1.4-1.4,3-2,4.9-2c1.9,0,3.5,0.7,4.9,2c1.4,1.4,2,3,2,4.9S534.6,542,533.3,543.3z"/>
	</g>
</g>
</svg>
