<?xml version="1.0" encoding="utf-8"?>
<!-- Generator: Adobe Illustrator 16.0.0, SVG Export Plug-In . SVG Version: 6.00 Build 0)  -->
<!DOCTYPE svg PUBLIC "-//W3C//DTD SVG 1.1//EN" "http://www.w3.org/Graphics/SVG/1.1/DTD/svg11.dtd">
<svg version="1.1" id="Layer_1" xmlns="http://www.w3.org/2000/svg" xmlns:xlink="http://www.w3.org/1999/xlink" x="0px" y="0px"
	 width="115px" height="50px" viewBox="0 0 115 50" enable-background="new 0 0 115 50" xml:space="preserve">
<g>
	<g>
		<path fill-rule="evenodd" clip-rule="evenodd" fill="#DDDDE7" d="M74.2,5.8c0,0.1,0.1,0.2,0.1,0.4c0.1,0.3,0.2,0.5,0.3,0.8
			c0.1,0.4,0.2,0.8,0.3,1.1c0,0.2,0,0.5,0,0.7C75,8.9,75,9,75,9c0,0.2,0,0.3,0,0.5c0,0.4-0.1,0.7-0.2,1c0,0.1,0,0.1,0,0.2
			c0,0.1-0.1,0.1-0.1,0.3c0,0.2-0.1,0.4-0.3,0.5c-0.1,0.2-0.2,0.4-0.3,0.6c0,0,0,0,0,0.1c2,1.9,0.9,2.7-3.5,2.6
			c-0.2,0-0.3,0-0.5-0.1c-0.1,0-0.1,0.1-0.2,0.1c-0.3,0.1-0.6,0.1-1,0.3c-0.1,0-0.2,0.1-0.3,0.1c-0.2,0-0.5,0.1-0.8,0.2
			c-0.7,0.1-1.3,0.3-1.8,0.4c-0.2,0-0.3,0.1-0.5,0.1c-0.2,0-0.3,0.1-0.4,0.1c-0.3,0.1-0.6,0.1-0.9,0.2c-0.3,0.1-0.5,0.1-0.8,0.2
			c-0.3,0.1-0.5,0.1-0.5,0.1c0,0,0,0,0,0c-0.3,0.1-0.6,0.2-0.8,0.4c-0.2,0.1-0.4,0.2-0.5,0.4c-0.2,0.1-0.4,0.3-0.5,0.5
			c-0.2,0.2-0.3,0.5-0.3,0.8c0,0.1,0,0.3,0,0.4c0,0,0,0.1,0,0.1c0,0.4,0,0.8,0.1,1.1c0,0.1,0,0.3,0.1,0.4c0,0.2,0.1,0.4,0.2,0.6
			c0,0,0.1,0.1,0.1,0.2c0.1,0.2,0.2,0.4,0.4,0.6c0.4,0.5,0.8,0.9,1.4,1.3c0.1,0,0.1,0.1,0.2,0.1c-0.4-1.8,0.4-3.1,2.2-3.8
			c4.5,1.5,5.5,3.3,3,5.3c0,0,0.1,0,0.1,0c0.3,0,0.6,0.1,1,0.1c0.6,0,1.2,0.1,1.8,0.1c0.4-0.8,1-1.2,1.9-1.3
			c0.7,0.6,1.2,1.2,1.5,1.6h0c0.3,0,0.7,0.1,1,0.1c0.4,0.1,0.8,0.1,1.2,0.2c0.7,0.1,1.3,0.2,1.8,0.3c0.4,0.1,0.7,0.1,1,0.3
			c0.2,0.1,0.3,0.1,0.5,0.2c0.6,0.2,1.1,0.5,1.5,0.9c0,0,0.1,0.1,0.1,0.1c0.1,0.1,0.3,0.2,0.4,0.4c0.2,0.2,0.4,0.5,0.5,0.8
			c0.1,0.2,0.2,0.4,0.3,0.7c0,0.2,0.1,0.3,0.1,0.5c0,0.1,0,0.2,0,0.3c0,0.1,0,0.3,0,0.4s0,0.3,0,0.4c0,0.2,0,0.3,0,0.4
			c-0.1,0.3-0.1,0.5-0.2,0.8c-0.1,0.4-0.2,0.8-0.3,1.2c-0.1,0.1-0.1,0.3-0.2,0.4c-0.2,0.4-0.4,0.7-0.6,1c-0.3,0.4-0.6,0.7-1,1.1
			c1.8,2.5,0.3,4.3-4.5,5.4c-1.7,0.4-3.1,0.4-4,0.2c-1.4,1.5-2.2,1.2-2.3-1.1c0-0.1,0-0.2,0-0.3c-0.1,0-0.2,0-0.3,0
			c-0.2,0-0.3,0.1-0.5,0.1c-0.2,0-0.4,0-0.5,0.1c0,0-0.1,0-0.2,0c1,1.2,0.1,1.6-2.6,1.3c-0.2,0-0.5-0.1-0.7-0.1
			c-0.5-0.1-0.7-0.4-0.6-0.9c-0.3,0-0.6,0-0.9,0c-0.2,0-0.4,0-0.6,0c-0.1,0-0.3,0-0.4,0c-0.6,0-1.2,0-1.9,0c-0.4,0-0.8,0-1.2,0
			c-0.1,0-0.2,0-0.3,0c-0.4,0-0.8,0-1.3,0c-0.1,0-0.1,0-0.2,0c-0.4,0-0.9,0-1.3,0c-0.6,0-1.3,0-2,0c0.5,1.1-0.6,1.3-3.4,0.6
			c-0.3-0.1-0.5-0.2-0.5-0.5c-0.4,0-0.9,0-1.3,0h0c0,0.6-1.2,1-3.7,1.1c-0.9,0-1.3-0.3-1.2-1.1c-0.2,0-0.4,0-0.6,0
			c-0.3,0-0.5,0-0.8,0c-0.3,0-0.5,0-0.8,0c-0.4,0-0.7,0-1.1,0c-0.1,0-0.2,0-0.4,0c-0.1,0-0.2,0-0.3,0c0.4,0.9-0.9,1.2-3.6,0.7
			c-0.4-0.1-0.7-0.3-0.7-0.7c-0.5,0-0.9-0.1-1.3-0.1c-0.4,0-0.9,0-1.3,0c-0.2,0-0.3,0-0.5,0c-0.1,0.1-0.3,0.3-0.5,0.5
			c-0.4,0.4-0.9,0.5-1.7,0.5C27.5,41,26,40,27,38.4c-0.2-0.2-0.5-0.4-0.6-0.7c-0.3-0.3-0.6-0.6-0.8-1c-0.1-0.2-0.3-0.4-0.4-0.7
			c0-0.1-0.1-0.1-0.1-0.3c-0.2-0.4-0.3-0.8-0.4-1.3c0,0,0-0.1,0-0.1c-0.1-0.5-0.2-1-0.2-1.5c0-0.2,0-0.3,0-0.5c0-0.1,0-0.2,0-0.4
			c0,0,0-0.1,0-0.1c0-0.3,0.1-0.6,0.1-0.8c0-0.2,0.1-0.5,0.1-0.7c0-0.1,0-0.1,0-0.2c0-0.5,0.1-1,0.1-1.4c0-0.3,0-0.5,0.1-0.8
			c0-0.3,0-0.6,0-0.9v-1.9H25c0,0,0.1,0,0.1,0c0.3,0,0.5,0.1,0.8,0.2c0.5,0.2,0.9,0.4,1.3,0.7c0.1,0.1,0.4,0.4,0.9,1
			c0.2,0.2,0.5,0.5,0.8,0.9c0.7,0.7,1.1,1.2,1.4,1.6c0.1,0.1,0.1,0.1,0.3,0.2c0.2,0,0.4,0.2,0.5,0.4c0.2,0.1,0.4,0.3,0.6,0.4
			c0.3,0.1,0.5,0.3,0.9,0.4c0.3-0.3,0.8-0.5,1.4-0.5c0.6,0.6,1.1,1.1,1.4,1.5c0.1,0,0.2,0.1,0.3,0.1c0.7,0.2,1.5,0.3,2.4,0.4
			c0.4,0,0.8,0.1,1.3,0.1c0.9,0.1,1.8,0.1,2.8,0.1h0.1c0.4,0,0.7,0,1.1,0c0.5-1.1,1.4-1.7,2.8-1.7c0.8,0.6,1.4,1.1,1.8,1.5
			c0.1,0,0.1,0,0.3,0c0.1,0,0.3,0,0.4,0c0.3,0,0.5-0.1,0.8-0.1s0.5-0.1,0.8-0.1c0.7-0.1,1.3-0.2,1.9-0.3c0-0.1,0.1-0.3,0.1-0.4
			c0.6-1.2,1.6-1.8,3.1-1.8c0.3,0.2,0.5,0.4,0.8,0.6c0.3-0.2,0.5-0.5,0.8-0.7c0.1-0.2,0.3-0.4,0.4-0.6c-0.2,0-0.3,0.1-0.5,0.1
			c-0.6,0.1-1-0.2-1.4-0.9c-0.7-1.7-0.5-2.9,0.5-3.8c-0.1-0.1-0.3-0.2-0.4-0.3C55,24.4,55,24.4,55,24.4c-0.4,0.1-0.9,0.1-1.4,0.1
			c-1.4,0.1-2.1-0.5-2.3-1.8c0-0.2,0-0.4,0-0.6c-0.7-0.3-1.4-0.7-2.1-1C49.1,21.1,49,21,48.9,21c-1.6,0.9-2.9,0.7-3.8-0.7
			c-0.3-0.4-0.4-0.8-0.5-1c-0.1,0-0.1,0-0.1,0c-0.3-0.2-0.6-0.3-0.9-0.4c-0.5-0.2-0.9-0.4-1.2-0.6C42.2,18.1,42,18,41.9,18
			c-0.1-0.1-0.3-0.1-0.4-0.2c-0.1-0.1-0.2-0.1-0.3-0.1c-0.2-0.1-0.3-0.2-0.5-0.3c-0.1-0.1-0.2-0.1-0.3-0.2c-0.3-0.2-0.5-0.3-0.8-0.5
			c-0.3-0.2-0.6-0.4-0.8-0.6c-0.1-0.1-0.1-0.1-0.2-0.1v-0.1c-0.3-0.3-0.5-0.5-0.6-0.8c0-0.1,0-0.1-0.1-0.2c-0.1-0.2-0.2-0.3-0.2-0.5
			c-0.1-0.1-0.1-0.3-0.1-0.4c0-0.1,0-0.3,0-0.4c0-0.4,0.1-0.8,0.2-1.1c0-0.1,0-0.1,0.1-0.2c0.2-0.5,0.6-0.9,1.1-1.2
			c0.2-0.1,0.3-0.1,0.4-0.3c0,0,0.1-0.1,0.2-0.1c0.3-0.2,0.5-0.5,0.6-0.8c0.1-0.2,0.1-0.3,0.1-0.5c0-0.1-0.1-0.2-0.3-0.4
			c-0.2-0.2-0.5-0.4-0.9-0.7c-0.1-0.1-0.3-0.2-0.4-0.3c-0.2-0.1-0.3-0.2-0.4-0.3c-0.2-0.1-0.4-0.3-0.6-0.4c-0.2-0.1-0.3-0.2-0.5-0.3
			c-0.3-0.2-0.5-0.4-0.6-0.6l1.9-0.8c0.1,0,0.1,0,0.3,0c0.2,0,0.4,0,0.5,0c0.1,0,0.2,0,0.3,0c0.6,0,1.1,0,1.8,0c0.3,0,0.5,0,0.8,0
			c0.5,0,1-0.1,1.4-0.3c0.2-0.1,0.4-0.1,0.5-0.2C44.6,5,45,4.8,45.4,4.5c0.1,0,0.2-0.1,0.3-0.2c0.1-0.1,0.3-0.2,0.4-0.2
			C46,4.2,46,4.2,45.9,4.3c0,0-0.1,0.1-0.1,0.2c-0.1,0.1-0.3,0.3-0.3,0.4c0.1,0.4-0.1,0.6-0.5,0.6l0,0c0,0-0.1,0.1-0.1,0.1
			c-0.2,0.2-0.3,0.4-0.4,0.6c-0.3,0.4-0.6,0.8-0.8,1.2c-0.2,0.3-0.3,0.6-0.5,0.9C43.1,8.6,43.1,8.9,43,9C43,9.3,43,9.4,43,9.6v0
			c0,0.2,0,0.4,0,0.6c0,0.3,0,0.6,0.1,0.9c0.1,0.3,0.2,0.6,0.3,0.9c0,0.1,0.1,0.3,0.2,0.5c0.1,0.2,0.2,0.4,0.4,0.6
			c0,0,0.1,0.1,0.1,0.1c0.1,0.1,0.2,0.2,0.3,0.3c0.2,0.2,0.4,0.3,0.5,0.5c0.1,0.1,0.2,0.2,0.3,0.3c0.3,0.2,0.7,0.5,1,0.7
			c0.2,0.1,0.4,0.1,0.6,0.3c0.1,0.1,0.3,0.1,0.5,0.2c-0.5-1.1,0.1-1.9,1.9-2.4c4.1,0.7,5.3,1.7,3.5,3.2c0.1,0,0.3,0,0.5,0
			c-0.2,0-0.4,0.1-0.6,0.3c-0.1,0-0.1-0.1-0.1-0.1h0c0,0.1,0.1,0.2,0.1,0.1h0c0,0,0.1,0,0.1,0.1c0.2,0,0.4,0,0.6,0
			c0.2,0,0.4,0,0.6,0c0,0,0.1,0,0.1,0c0,0,0.1-0.1,0.1-0.1c0.2,0,0.4-0.1,0.6-0.1c0.1-1.3,0.9-2.1,2.3-2.3c0.6,0.4,1.1,0.8,1.5,1.3
			c0,0,0-0.1,0-0.1c0.2-0.1,0.5-0.2,0.8-0.3c-0.1-0.2,0-0.6,0.1-1c0.8-1.7,2-3,3.6-3.7c0.2,0.2,0.4,0.4,0.5,0.6
			c0-0.2,0.1-0.3,0.1-0.5c0-0.1,0.1-0.2,0.1-0.3c0-0.2,0-0.3,0-0.4c0-0.1,0-0.1,0-0.2c0-0.3,0-0.7-0.2-1c0-0.1-0.1-0.3-0.1-0.4
			c-0.1-0.2-0.2-0.3-0.3-0.5C63.3,7.2,63.2,7,63,6.8c-0.2-0.3-0.4-0.5-0.6-0.8c-0.1-0.2-0.3-0.3-0.4-0.5c-0.3-0.3-0.6-0.6-0.9-1
			c-0.1-0.1-0.2-0.2-0.3-0.3c-0.1,0-0.1-0.1-0.2-0.1c-0.3-0.3-0.7-0.6-1-0.9c-0.1-0.1-0.2-0.2-0.4-0.3c-0.3-0.2-0.5-0.4-0.8-0.6
			c-0.1-0.1-0.3-0.2-0.4-0.3C58,2,57.9,1.9,57.8,1.9h0.1c0.1,0,0.1,0,0.2-0.1c0.4,0,0.9-0.1,1.4-0.1c0,0,0,0,0,0
			c0.1-0.1,0.3-0.1,0.3-0.1v0.1c0.2-0.1,0.4-0.2,0.6-0.2c0.1-0.1,0.3-0.1,0.5-0.1l0.5,0.2l0.1,0.1l0.6,0.1l3.1,1.6h3.2l4.3,2.4l0,0
			H74.2z M51.7,4.7c5.2,0.2,6.5,1.8,4.1,4.8c-0.6,0.7-1.4,1-2.4,0.8C48.5,9,47.9,7.2,51.7,4.7z M69.2,31c-0.9,0.1-1.6,0.5-2,1.5
			c-0.3,0.7-0.2,1.1,0.3,1.3C71.7,34.7,72.3,33.8,69.2,31z M54.5,33.2c-1.5,0-2.5,0.6-3,2c-0.5,1.5,0,2.1,1.6,1.9
			C58,36.5,58.5,35.2,54.5,33.2z M85.8,30.5c-0.5-1.3,0-2,1.5-2.3c4.9-0.7,7,0.6,6.1,3.9c-0.2,0.9-0.8,1.3-1.9,1.4
			C88.5,33.6,86.5,32.6,85.8,30.5z M104.2,33.7c3.6,2,3.3,3.1-0.9,3.3c-1,0-1.4-0.5-1.1-1.5C102.4,34.4,103.1,33.8,104.2,33.7z
			 M30.4,17.3c0.4-1,1.1-1.5,2.1-1.6c3,2.4,2.9,3.4-0.4,3.1c2.3,2,2.1,3.9-0.6,5.6c-0.6,0.4-1.2,0.2-1.8-0.6
			c-1.8-2.6-1.6-4.5,0.5-5.8C30.3,17.8,30.3,17.5,30.4,17.3z M84.5,37.3c0.7-1.3,1.8-1.9,3.3-1.8c3.2,2.7,2.4,3.9-2.3,3.6
			C84.2,39,83.9,38.4,84.5,37.3z"/>
		<path fill-rule="evenodd" clip-rule="evenodd" fill="#CBCDDA" d="M65.4,47.6c0-0.1,0-0.2,0-0.3c0-0.3,0.1-0.7,0.1-1.1
			c0-0.1,0-0.2,0.1-0.4c0-0.2,0-0.3,0-0.5c0-0.4,0.1-0.8,0.1-1.1c0-0.1,0-0.3,0-0.4c0-0.4,0.1-0.8,0.1-1.2c0-0.2,0.1-0.3,0.1-0.4
			c0-0.1,0-0.3,0-0.4c0-0.1,0-0.3,0.1-0.3c2.7,0.4,3.6,0,2.6-1.3c0.1,0,0.1,0,0.2,0c0.2,0,0.3-0.1,0.5-0.1c0.1,0,0.3-0.1,0.5-0.1
			c0.1,0,0.1,0,0.3,0c0,0.1,0,0.2,0,0.3c0.1,2.3,0.8,2.6,2.3,1.1c0.9,0.2,2.3,0.2,4-0.2c4.8-1,6.3-2.8,4.5-5.4
			c0.3-0.4,0.6-0.7,1-1.1c0.2-0.3,0.4-0.7,0.6-1c0.1-0.1,0.1-0.3,0.2-0.4c0.1-0.4,0.3-0.8,0.3-1.2c0-0.2,0.1-0.5,0.2-0.8
			c0-0.1,0-0.3,0-0.4c0-0.1,0-0.3,0-0.4s0-0.3,0-0.4c0-0.1,0-0.2,0-0.3c0-0.2-0.1-0.3-0.1-0.5c-0.1-0.3-0.1-0.5-0.3-0.7
			c-0.2-0.3-0.3-0.6-0.5-0.8c-0.1-0.2-0.3-0.3-0.4-0.4c0,0-0.1-0.1-0.1-0.1c-0.4-0.4-1-0.7-1.5-0.9c-0.2-0.1-0.3-0.1-0.5-0.2
			c-0.3-0.1-0.6-0.2-1-0.3c-0.5-0.1-1.1-0.2-1.8-0.3c-0.4-0.1-0.8-0.1-1.2-0.2c-0.3,0-0.7-0.1-1-0.1h0c-0.3-0.5-0.8-1-1.5-1.6
			c-0.9,0.1-1.5,0.5-1.9,1.3c-0.6-0.1-1.2-0.1-1.8-0.1c-0.3-0.1-0.6-0.1-1-0.1c0,0-0.1,0-0.1,0c2.4-2,1.4-3.7-3-5.3
			c-1.8,0.7-2.6,2-2.2,3.8c0,0-0.1-0.1-0.2-0.1c-0.6-0.4-1.1-0.8-1.4-1.3c-0.2-0.2-0.3-0.4-0.4-0.6c0-0.1-0.1-0.1-0.1-0.2
			C61,20.8,61,20.6,61,20.4c-0.1-0.1-0.1-0.3-0.1-0.4c-0.1-0.3-0.1-0.7-0.1-1.1c0,0,0-0.1,0-0.1c0-0.2,0-0.3,0-0.4
			c0.1-0.3,0.2-0.5,0.3-0.8c0.1-0.2,0.3-0.4,0.5-0.5c0.1-0.1,0.3-0.3,0.5-0.4c0.2-0.1,0.5-0.3,0.8-0.4c0,0,0,0,0,0
			c0.1,0,0.3-0.1,0.5-0.1c0.2-0.1,0.5-0.1,0.8-0.2c0.3-0.1,0.6-0.1,0.9-0.2c0.1,0,0.2-0.1,0.4-0.1c0.1,0,0.3-0.1,0.5-0.1
			c0.5-0.1,1.2-0.3,1.8-0.4c0.3-0.1,0.5-0.1,0.8-0.2c0.1,0,0.2-0.1,0.3-0.1c0.3-0.1,0.6-0.2,1-0.3c0.1,0,0.1-0.1,0.2-0.1
			c0.1,0.1,0.3,0.1,0.5,0.1c4.4,0.1,5.5-0.7,3.5-2.6c0,0,0-0.1,0-0.1c0.1-0.2,0.3-0.4,0.3-0.6c0.1-0.1,0.2-0.3,0.3-0.5
			c0-0.1,0.1-0.2,0.1-0.3c0-0.1,0-0.1,0-0.2c0.1-0.3,0.2-0.6,0.2-1c0-0.2,0-0.3,0-0.5c0-0.1,0-0.2,0-0.3c0-0.2,0-0.5,0-0.7
			c-0.1-0.4-0.2-0.8-0.3-1.1c-0.1-0.3-0.2-0.5-0.3-0.8c-0.1-0.1-0.1-0.3-0.1-0.4h0.4L79,9.4c0.1,0,0.3,0,0.5,0c0,0,0.1,0.1,0.1,0.1
			c0,0,0.1,0,0.1,0.1c0.8,0.2,1.5,0.5,2.1,0.9c0.5,0.3,1,0.6,1.5,0.9c0,0.1,0,0.3,0.1,0.4c0,0.1,0.1,0.2,0.2,0.3
			c0.1,0.3,0.2,0.5,0.4,0.8c0.2,0.3,0.5,0.7,0.8,1.1c0.4,0.5,0.8,1,1.2,1.4c0.1,0,0.2,0.1,0.2,0.1c1.2,0.4,2.2,1,3,1.6
			c0.3,0.3,0.7,0.7,1,1.1l0.1,0.1c0.3,0.4,0.5,0.8,0.8,1.3c0.2,0.3,0.4,0.7,0.6,1.1c0,0.1,0,0.2,0,0.3l0.3,0.2H92l4.3,2.5l0.2,0.1
			l0.3,0.4l0.3,0.6l0.5,0.7l0.4,0.8l0.1,0.1c0,0.2,0.1,0.4,0.3,0.4l0.3,0.5l0.2,0.2l3,0.8c0.1,0,0.3,0,0.5,0c0.1,0,0.2,0,0.3,0
			c0.1,0,0.3,0,0.4,0c0.2,0.1,0.5,0.3,0.7,0.5c0.1,0.1,0.2,0.3,0.3,0.5c0.1,0.1,0.1,0.2,0.2,0.3c0.1,0.1,0.2,0.2,0.3,0.3l0.1,0.2
			h0.5l2.5,0.3l1.1,1.5l0.1,0.3c0.3,0.1,0.5,0.3,0.5,0.7h0.1l0.2,0l1.2,0.2h0.1l1.5,0.3h0v0l0.2,0.9v0.4l0.2,0.7l0.1,0.8v0.1
			l-0.1,0.9l-0.2,0.6v0.6l-0.2,0.8v0.2c-0.1,0-0.2,0.1-0.3,0.1c-0.2,0.1-0.3,0.3-0.4,0.4c-0.5,0.3-1,0.6-1.4,0.9
			c-0.1,0-0.2,0-0.3,0.1c-0.2,0.1-0.3,0.2-0.5,0.3c-0.1,0-0.2,0.1-0.4,0.3c-0.2,0.1-0.3,0.2-0.4,0.2c-0.1,0.1-0.2,0.1-0.3,0.1
			c-0.3,0.2-0.6,0.4-1,0.6c-0.3,0.1-0.5,0.3-0.8,0.5c-0.3,0.1-0.6,0.2-0.9,0.4h0v0c-0.1,0-0.2,0.1-0.3,0.1c-0.3,0.1-0.5,0.2-0.7,0.3
			c-0.6,0.2-1.1,0.4-1.5,0.7h-0.2c-0.3,0.1-0.5,0.3-0.8,0.3c0,0-0.1,0-0.2,0c-0.4,0.2-0.7,0.3-1,0.5c-0.4,0.2-0.8,0.3-1.2,0.4h-0.2
			v0c-0.5,0.2-1,0.4-1.6,0.5c-0.4,0-0.7,0-1,0c-0.3,0.1-0.5,0.1-0.8,0.1c-0.2,0.1-0.4,0.1-0.6,0.1c-0.2,0-0.4,0-0.5,0
			c-0.3,0-0.5,0-0.8,0.1c-0.5,0.1-1.1,0.1-1.6,0.1c-0.2,0-0.4,0-0.5,0.2c-0.2,0-0.4,0-0.7,0c-0.2,0-0.3,0-0.5,0c-0.4,0-0.7,0-1,0
			c-0.1,0-0.3,0-0.5,0c-0.3,0-0.6,0-1,0.1c-0.3,0-0.5,0-0.8,0c-0.7,0.1-1.4,0.2-2.1,0.2c-0.5,0-0.9,0-1.3,0c-0.2,0-0.4,0-0.6,0.1
			c-0.2,0-0.5,0-0.7,0c-0.1,0-0.2,0-0.3,0c-0.1,0-0.3,0-0.6,0c-0.3,0-0.6,0-0.9,0c-0.3,0-0.5,0-0.8,0c-0.4,0-0.9,0-1.3,0.1
			c-0.1,0-0.3,0-0.5,0c-0.8,0-1.5,0-2.2,0c-0.2,0-0.4,0-0.6,0s-0.5,0-0.7,0.1c-0.5,0-0.9,0-1.3,0c-0.2,0-0.3,0-0.5,0
			c-0.3,0-0.5,0-0.8,0v-0.1c-0.1,0-0.3,0-0.5,0v0.1c-0.3,0-0.5,0-0.8,0c-0.4,0-0.7,0-1,0c-0.4,0-0.9,0-1.4,0
			C67.5,47.6,66.5,47.6,65.4,47.6z M104.2,33.7c-1.1,0.1-1.8,0.7-2,1.8c-0.2,1.1,0.1,1.6,1.1,1.5C107.5,36.8,107.8,35.7,104.2,33.7z
			 M85.8,30.5c0.8,2.1,2.7,3.1,5.7,3c1.1-0.1,1.7-0.5,1.9-1.4c0.8-3.3-1.3-4.6-6.1-3.9C85.7,28.4,85.3,29.2,85.8,30.5z M84.5,37.3
			c-0.6,1.1-0.3,1.7,1,1.8c4.7,0.3,5.5-0.9,2.3-3.6C86.2,35.4,85.1,36,84.5,37.3z"/>
		<path fill-rule="evenodd" clip-rule="evenodd" fill="#EAEAF4" d="M46.1,4.1c0,0,0.1-0.1,0.1-0.1c0.1-0.1,0.2-0.1,0.2-0.1
			c0.3,0,0.5-0.2,0.7-0.4c0.1-0.1,0.3-0.2,0.5-0.3c0.5-0.3,1-0.6,1.5-0.9c0.4-0.2,0.9-0.4,1.3-0.6c0.1,0,0.2,0,0.2,0
			c0.1,0,0.2,0,0.3,0c0.2,0,0.5,0,0.7,0c0.2,0.1,0.4,0.1,0.7,0.1c0.2,0.1,0.5,0.1,0.9,0c0.2,0,0.4,0.1,0.8,0.1c0.3,0,0.5,0,0.8,0
			c0.2,0,0.3,0,0.5,0c0.2,0,0.5,0,0.8,0C56,2,56.2,1.9,56.4,1.9c0.3,0,0.7,0,1,0c0.1,0,0.3,0,0.5,0C57.9,1.9,58,2,58.1,2
			c0.1,0.1,0.3,0.2,0.4,0.3c0.3,0.2,0.6,0.4,0.8,0.6c0.1,0.1,0.3,0.2,0.4,0.3c0.4,0.3,0.7,0.6,1,0.9c0,0,0.1,0.1,0.2,0.1
			c0.1,0.1,0.2,0.2,0.3,0.3c0.3,0.3,0.6,0.6,0.9,1c0.1,0.1,0.3,0.3,0.4,0.5c0.2,0.3,0.4,0.5,0.6,0.8c0.2,0.2,0.3,0.5,0.4,0.8
			c0.1,0.1,0.2,0.3,0.3,0.5c0,0.1,0.1,0.3,0.1,0.4c0.1,0.4,0.2,0.7,0.2,1c0,0.1,0,0.1,0,0.2c0,0.1,0,0.3,0,0.4c0,0.1,0,0.2-0.1,0.3
			c0,0.2-0.1,0.3-0.1,0.5c-0.2-0.2-0.3-0.4-0.5-0.6c-1.6,0.7-2.8,2-3.6,3.7c-0.2,0.4-0.2,0.7-0.1,1c-0.3,0.1-0.5,0.2-0.8,0.3
			c0,0,0,0,0,0.1c-0.4-0.4-0.9-0.8-1.5-1.3c-1.4,0.2-2.2,1-2.3,2.3c-0.2,0-0.4,0.1-0.6,0.1c-0.1,0-0.1,0-0.1,0.1c0,0-0.1,0-0.1,0
			c-0.2,0-0.4,0-0.6,0c-0.2-0.1-0.4-0.1-0.6,0c-0.1,0-0.1-0.1-0.1-0.1c0.2-0.2,0.4-0.2,0.6-0.3c-0.2,0-0.4,0-0.5,0
			c1.8-1.5,0.6-2.5-3.5-3.2c-1.7,0.6-2.4,1.4-1.9,2.4c-0.2-0.1-0.3-0.1-0.5-0.2c-0.2-0.1-0.4-0.2-0.6-0.3c-0.4-0.2-0.7-0.4-1-0.7
			c-0.1-0.1-0.2-0.1-0.3-0.3c-0.2-0.2-0.4-0.3-0.5-0.5c-0.1-0.1-0.2-0.2-0.3-0.3c0-0.1-0.1-0.1-0.1-0.1c-0.1-0.2-0.3-0.4-0.4-0.6
			c-0.1-0.2-0.2-0.3-0.2-0.5c-0.1-0.3-0.2-0.6-0.3-0.9C43,10.9,43,10.5,43,10.3c0-0.2,0-0.4,0-0.6v0C43,9.4,43,9.3,43,9
			c0-0.2,0.1-0.4,0.2-0.7c0.1-0.3,0.3-0.6,0.5-0.9c0.2-0.4,0.4-0.8,0.8-1.2c0.1-0.2,0.3-0.4,0.4-0.6c0,0,0-0.1,0.1-0.1l0,0
			c0.4,0,0.5-0.2,0.5-0.6c0.1-0.2,0.2-0.3,0.3-0.4c0-0.1,0.1-0.1,0.1-0.2C46,4.2,46,4.2,46.1,4.1z M51.7,4.7
			c-3.8,2.5-3.3,4.3,1.6,5.5c1,0.2,1.9,0,2.4-0.8C58.2,6.5,56.9,4.9,51.7,4.7z"/>
		<path fill-rule="evenodd" clip-rule="evenodd" fill="#EFEFF9" d="M52.6,16.4L52.6,16.4c-0.1,0.1-0.2,0-0.2-0.1h0
			C52.5,16.3,52.6,16.4,52.6,16.4z M33.2,48.3c0.1-0.1,0.3-0.1,0.5,0c0.1,0,0.1,0,0.3,0h0c0.2,0,0.5,0.1,0.9,0.2l-0.3,0
			c-0.2,0-0.5-0.1-0.6-0.2c-0.1,0-0.2,0-0.3,0C33.5,48.3,33.3,48.3,33.2,48.3z M17.5,25c-0.1,0-0.1,0-0.1,0c0,0,0-0.1,0-0.1
			C17.4,24.9,17.5,24.9,17.5,25z M23,25.2c-0.1,0-0.1,0-0.2,0C22.8,25.2,22.9,25.2,23,25.2L23,25.2z"/>
		<path fill-rule="evenodd" clip-rule="evenodd" fill="#EAECF8" d="M25,25.4c0-0.5-0.1-1.2-0.1-2.2v2.2c-0.2-0.1-0.3-0.1-0.5-0.1
			c-0.5-0.1-0.9-0.1-1.4-0.1c0-0.2-0.3-0.3-0.8-0.4c-0.2,0-0.3,0-0.5,0c-0.5,0-1,0-1.7,0c-0.5,0-1.1,0.1-1.7,0.1
			c-0.3,0-0.5,0-0.8,0.1l-0.1-0.1c0.2-0.3,0.4-0.5,0.6-0.7c0.1-0.2,0.2-0.4,0.3-0.6c0.3-0.4,0.6-0.7,0.9-1l0.1,0
			c0.6-0.6,1.4-1,2.1-1.5c0.1,0,0.1-0.1,0.1-0.1c0.1-0.1,0.2-0.3,0.2-0.4c0-0.2,0-0.3,0.1-0.5c0.3-0.3,0.8-0.4,1.4-0.4
			c0.2,0,0.4,0,0.6,0c0.1,0.1,0.1,0.1,0.3,0.1c0-0.1,0.1-0.2,0.1-0.4c0.3-0.4,0.6-0.8,0.9-1.2c0.2-0.2,0.4-0.4,0.5-0.6
			c0.1-0.1,0.2-0.3,0.3-0.4c0.2-0.2,0.4-0.4,0.6-0.6c0.1-0.1,0.2-0.2,0.4-0.4c0.1-0.1,0.3-0.1,0.5-0.3c0.4-0.3,0.8-0.6,1.3-0.8
			c0.1,0,0.2-0.1,0.2-0.3c0.3-0.2,0.6-0.5,0.9-0.8c0.3-0.3,0.6-0.7,0.9-1c0.1,0.2,0.1,0.2,0.1,0c0.2-0.3,0.5-0.6,0.8-0.9
			c0.2-0.2,0.3-0.3,0.5-0.5c0.7-0.7,1.3-1.4,2-2.2c0.1-0.1,0.3-0.3,0.4-0.5c0.2-0.2,0.4-0.3,0.6-0.5c0.2-0.2,0.4-0.4,0.6-0.5
			c0.3-0.4,0.6-0.8,1-1.1c0.1-0.1,0.2-0.2,0.2-0.3c0.2,0.2,0.4,0.4,0.6,0.6c0.1,0.1,0.3,0.2,0.5,0.3c0.2,0.1,0.4,0.3,0.6,0.4
			c0.1,0.1,0.3,0.2,0.4,0.3c0.1,0.1,0.3,0.1,0.4,0.3C39.7,8.6,40,8.9,40.2,9c0.2,0.2,0.3,0.3,0.3,0.4c0,0.2,0,0.3-0.1,0.5
			c-0.1,0.3-0.4,0.5-0.6,0.8c-0.1,0-0.1,0.1-0.2,0.1c-0.1,0.1-0.3,0.2-0.4,0.3c-0.5,0.3-0.9,0.7-1.1,1.2c0,0.1-0.1,0.1-0.1,0.2
			c-0.1,0.3-0.2,0.7-0.2,1.1c0,0.1,0,0.3,0,0.4c0,0.1,0,0.3,0.1,0.4c0,0.2,0.1,0.3,0.2,0.5c0.1,0.1,0.1,0.1,0.1,0.2
			c0.1,0.2,0.3,0.5,0.6,0.8v0.1c0.1,0,0.1,0.1,0.2,0.1c0.2,0.2,0.4,0.5,0.8,0.6c0.2,0.2,0.5,0.3,0.8,0.5c0.1,0.1,0.2,0.1,0.3,0.2
			c0.1,0.1,0.3,0.1,0.5,0.3c0.1,0,0.1,0.1,0.3,0.1c0.1,0.1,0.3,0.1,0.4,0.2c0.2,0.1,0.4,0.1,0.5,0.3c0.3,0.2,0.7,0.4,1.2,0.6
			c0.3,0.1,0.6,0.2,0.9,0.4c0,0,0.1,0,0.1,0c0.1,0.3,0.2,0.6,0.5,1c0.9,1.4,2.1,1.6,3.8,0.7c0.1,0,0.2,0.1,0.4,0.1
			c0.7,0.3,1.4,0.7,2.1,1c0,0.2,0,0.4,0,0.6c0.1,1.3,0.9,1.9,2.3,1.8c0.5,0,0.9-0.1,1.4-0.1c0,0,0.1,0,0.1,0.1
			c0.1,0.1,0.3,0.2,0.4,0.3c-1,0.9-1.1,2.1-0.5,3.8c0.3,0.7,0.8,1,1.4,0.9c0.1,0,0.3-0.1,0.5-0.1c-0.1,0.2-0.3,0.4-0.4,0.6
			c-0.2,0.2-0.5,0.5-0.8,0.7c-0.2-0.2-0.5-0.4-0.8-0.6c-1.4,0-2.4,0.6-3.1,1.8c-0.1,0.1-0.1,0.3-0.1,0.4c-0.6,0.1-1.2,0.2-1.9,0.3
			c-0.2,0-0.5,0.1-0.8,0.1s-0.5,0.1-0.8,0.1c-0.1,0-0.3,0-0.4,0c-0.1,0-0.2,0-0.3,0c-0.4-0.4-1-0.9-1.8-1.5c-1.4,0-2.3,0.6-2.8,1.7
			c-0.4,0-0.7,0-1.1,0H42c-1,0-1.9,0-2.8-0.1c-0.5,0-0.9-0.1-1.3-0.1c-0.9-0.1-1.7-0.2-2.4-0.4c-0.1,0-0.2-0.1-0.3-0.1
			c-0.3-0.4-0.8-0.9-1.4-1.5c-0.6,0-1,0.2-1.4,0.5c-0.3-0.1-0.6-0.3-0.9-0.4c-0.2-0.2-0.5-0.3-0.6-0.4c-0.1-0.2-0.3-0.3-0.5-0.4
			c-0.1-0.1-0.2-0.1-0.3-0.2c-0.3-0.4-0.7-1-1.4-1.6c-0.3-0.3-0.5-0.6-0.8-0.9c-0.5-0.6-0.8-0.9-0.9-1c-0.4-0.3-0.8-0.5-1.3-0.7
			c-0.2-0.1-0.5-0.2-0.8-0.2C25.1,25.4,25,25.4,25,25.4z M54.5,33.2c4,2,3.6,3.3-1.4,3.9c-1.6,0.2-2.1-0.4-1.6-1.9
			C52,33.8,53,33.2,54.5,33.2z M69.2,31c3.1,2.9,2.5,3.8-1.6,2.7c-0.5-0.1-0.6-0.6-0.3-1.3C67.6,31.5,68.3,31,69.2,31z M30.4,17.3
			c-0.1,0.2-0.1,0.5-0.1,0.7c-2.2,1.3-2.4,3.3-0.5,5.8c0.6,0.8,1.1,1,1.8,0.6c2.7-1.7,2.9-3.5,0.6-5.6c3.3,0.3,3.4-0.7,0.4-3.1
			C31.5,15.8,30.8,16.3,30.4,17.3z"/>
		<path fill-rule="evenodd" clip-rule="evenodd" fill="#CFD1DD" d="M66.2,41.5c0,0.1-0.1,0.2-0.1,0.3c0,0.1,0,0.2,0,0.4
			c0,0.1-0.1,0.3-0.1,0.4c0,0.4-0.1,0.8-0.1,1.2c0,0.1,0,0.3,0,0.4c0,0.4-0.1,0.8-0.1,1.1c0,0.2,0,0.3,0,0.5c0,0.1-0.1,0.3-0.1,0.4
			c-0.1,0.4-0.1,0.8-0.1,1.1c0,0.1,0,0.2,0,0.3c-0.2,0-0.5,0-0.7,0c-0.4,0-0.9,0.1-1.3,0.1c-0.5,0-0.9,0-1.4,0c-0.4,0-0.9,0-1.4,0
			c-0.5,0-1.1,0-1.6,0c-0.1,0-0.2,0-0.3,0c-0.3,0-0.7,0-1,0h0c-0.2,0-0.3,0-0.4,0c-0.6,0-1.3,0-1.9,0.1c-0.5,0-1.1,0-1.7,0
			c-0.5,0-0.9,0-1.4,0c-0.6,0-1.2,0-1.8,0c-0.5,0-0.9,0-1.3,0c-0.1,0-0.2,0-0.4,0c-0.3,0-0.6,0-0.9,0c-0.5,0-0.9,0-1.4,0
			c-0.6,0-1.2,0.1-1.7,0.2c-0.1,0-0.3,0-0.4,0c-0.1,0-0.2,0-0.3,0c-0.2,0-0.4,0-0.6,0c-0.6,0-1.2,0-1.8,0c-0.2,0-0.3,0-0.4,0
			c-0.4,0-0.7,0-1,0h-0.1c-0.2,0-0.4,0-0.5,0c-0.5,0-1,0-1.5,0c-0.6,0-1.2,0-1.8,0c-0.1,0-0.2,0-0.3,0l-1,0.2l-0.5,0.2
			c-0.3-0.1-0.6-0.2-0.9-0.2h0c-0.1,0-0.2,0-0.3,0c-0.2,0-0.4,0-0.5,0c-0.1,0-0.3,0-0.4,0c-0.7-0.1-1.3-0.2-2-0.2
			c-0.5-0.1-1.1-0.2-1.8-0.2c-0.7-0.1-1.4-0.2-2.2-0.2c-0.1,0-0.3,0-0.4,0c-0.3,0-0.6,0-0.9,0l-0.1-0.1c0,0-0.1,0-0.3,0
			c-0.1,0-0.3,0-0.6,0c-0.6,0-1.2-0.1-1.8-0.1c-0.1-0.1-0.2-0.1-0.3-0.1c-0.2,0-0.5,0-0.7,0c-0.3,0-0.7,0-1,0L17,46
			c0-0.1,0-0.2,0-0.3c0-0.1,0-0.1,0-0.2c0-0.2-0.1-0.4-0.4-0.5c-0.1-0.1-0.2-0.2-0.4-0.2H14l-0.2-0.3l-0.3-0.2l-1-1.1l-1-0.7
			l-0.2-0.3l-3.9,0.3c0,0-0.1,0-0.2,0l-3.4,0.1c0,0-0.1-0.1-0.1-0.1c-0.1-0.1-0.2-0.1-0.3-0.2c-0.2-0.1-0.3-0.2-0.4-0.2
			c-0.2,0-0.3-0.2-0.3-0.3c-0.2-0.1-0.4-0.3-0.4-0.5c-0.2-0.3-0.3-0.7-0.3-1.1c0-0.1,0-0.2,0-0.3L3,40.8v-3.2
			c0.1-0.1,0.1-0.2,0.1-0.3c0,0,0.1-0.1,0.1-0.1c0.1-0.2,0.2-0.3,0.3-0.4c0-0.1,0.1-0.2,0.2-0.3v-0.1c0,0,0.1,0,0.1,0
			C4,36.2,4.2,36,4.4,35.8c0.1-0.1,0.1-0.1,0.1-0.2c0.2-0.1,0.4-0.3,0.6-0.5c0.2-0.2,0.4-0.4,0.5-0.5c0.2-0.2,0.4-0.3,0.6-0.5
			c0.1-0.2,0.3-0.3,0.4-0.4c0.2-0.2,0.4-0.3,0.6-0.5c0.2-0.2,0.5-0.3,0.8-0.5c0.3-0.2,0.7-0.4,1-0.6c0.3-0.2,0.7-0.4,1-0.6
			c0.2,0,0.3-0.1,0.4-0.1c0.5-0.3,1-0.5,1.5-0.7c0,0,0.1,0,0.2-0.1l0.1-0.1l0.8-1.9l3.9-2.8c0-0.1,0-0.3,0.1-0.4
			c0.1-0.2,0.1-0.4,0.2-0.5c0,0,0.1,0,0.1,0c0.3,0,0.5-0.1,0.8-0.1c0.6-0.1,1.2-0.1,1.7-0.1c0.7,0,1.2,0,1.7,0c0.2,0,0.3,0,0.5,0
			c0.5,0.1,0.8,0.2,0.8,0.4c0.5,0,1,0,1.4,0.1c0.2,0,0.3,0,0.5,0.1v1.9c0,0.3,0,0.5,0,0.9c0,0.2-0.1,0.5-0.1,0.8
			c-0.1,0.4-0.1,0.9-0.1,1.4c0,0.1,0,0.1,0,0.2c0,0.2-0.1,0.4-0.1,0.7c0,0.3-0.1,0.5-0.1,0.8c0,0,0,0.1,0,0.1c0,0.1,0,0.3,0,0.4
			c0,0.2,0,0.3,0,0.5c0,0.5,0.1,1,0.2,1.5c0,0,0,0.1,0,0.1c0.1,0.5,0.2,0.9,0.4,1.3c0,0.1,0.1,0.2,0.1,0.3c0.1,0.2,0.2,0.5,0.4,0.7
			c0.2,0.4,0.4,0.7,0.8,1c0.2,0.2,0.4,0.5,0.6,0.7c-1,1.6,0.5,2.6,4.4,3c0.8,0.1,1.3-0.1,1.7-0.5c0.2-0.2,0.3-0.3,0.5-0.5
			c0.2,0,0.3,0,0.5,0c0.4,0,0.8,0,1.3,0c0.4,0,0.8,0,1.3,0.1c0,0.4,0.2,0.6,0.7,0.7c2.8,0.5,4,0.2,3.6-0.7c0.1,0,0.1,0,0.3,0
			c0.1,0,0.3,0,0.4,0c0.4,0,0.7,0,1.1,0c0.2,0,0.5,0,0.8,0c0.2,0,0.5,0,0.8,0c0.2,0,0.4,0,0.6,0c-0.1,0.8,0.3,1.2,1.2,1.1
			c2.5-0.1,3.7-0.5,3.7-1.1h0c0.4,0,0.9,0,1.3,0c0,0.3,0.2,0.4,0.5,0.5c2.8,0.7,3.9,0.5,3.4-0.6c0.7,0,1.3,0,2,0c0.5,0,0.9,0,1.3,0
			c0.1,0,0.1,0,0.2,0c0.4,0,0.8,0,1.3,0c0.1,0,0.2,0,0.3,0c0.4,0,0.8,0,1.2,0c0.7,0,1.3,0,1.9,0c0.2,0,0.3,0,0.4,0
			c0.2,0,0.4,0,0.6,0c0.3,0,0.6,0,0.9,0c-0.1,0.5,0.1,0.8,0.6,0.9C65.7,41.4,65.9,41.4,66.2,41.5z M23,25.2L23,25.2
			c-0.1,0-0.1,0-0.2,0C22.8,25.2,22.9,25.2,23,25.2z"/>
		<path fill-rule="evenodd" clip-rule="evenodd" fill="#F5F6FB" d="M24.9,25.4v-2.2c0,0.9,0.1,1.6,0.1,2.2H24.9z"/>
	</g>
</g>
</svg>
