<?xml version="1.0" encoding="utf-8"?>
<!-- Generator: Adobe Illustrator 16.0.0, SVG Export Plug-In . SVG Version: 6.00 Build 0)  -->
<!DOCTYPE svg PUBLIC "-//W3C//DTD SVG 1.1//EN" "http://www.w3.org/Graphics/SVG/1.1/DTD/svg11.dtd">
<svg version="1.1" id="Layer_1" xmlns="http://www.w3.org/2000/svg" xmlns:xlink="http://www.w3.org/1999/xlink" x="0px" y="0px"
	 width="58px" height="205px" viewBox="0 0 58 205" enable-background="new 0 0 58 205" xml:space="preserve">
<g>
	<g>
		
			<radialGradient id="SVGID_1_" cx="9.6001" cy="90.7002" r="4.0875" gradientTransform="matrix(1 0 0 44.2997 0 -3927.2908)" gradientUnits="userSpaceOnUse">
			<stop  offset="0" style="stop-color:#FFFFFF"/>
			<stop  offset="0.8941" style="stop-color:#CDCCCB"/>
		</radialGradient>
		<path fill-rule="evenodd" clip-rule="evenodd" fill="url(#SVGID_1_)" d="M14.4,176.8c-0.3-1.1-0.3-0.8,0,0.8
			c-2.8,1.5-5.6,1.5-8.4,0c0.2-3.4,0.4-6.4,0.5-8.9l0.1-161h7.3v157.8l0.1,0C14.1,167.4,14.2,171.2,14.4,176.8z"/>
		
			<radialGradient id="SVGID_2_" cx="9.8501" cy="186.4502" r="20.8875" gradientTransform="matrix(1 0 0 0.8157 0 34.3666)" gradientUnits="userSpaceOnUse">
			<stop  offset="0" style="stop-color:#FFFFFF"/>
			<stop  offset="0.4941" style="stop-color:#CDCCCB"/>
			<stop  offset="0.9373" style="stop-color:#FFFFFF"/>
		</radialGradient>
		<path fill-rule="evenodd" clip-rule="evenodd" fill="url(#SVGID_2_)" d="M6,177.5c2.8,1.5,5.6,1.5,8.4,0c-0.3-1.6-0.3-1.8,0-0.8
			c0,0,0,0.1,0,0.1c0.3,1,0.6,1.7,0.9,2.2c0.4,0.5,0.6,0.7,0.6,0.8c1.2,1.7,2,2.9,2.4,3.8c0.5,1,0.8,2.1,0.8,3.1
			c0,2.5-0.8,4.6-2.5,6.3c-1.7,1.7-3.7,2.5-6,2.5c-2.3,0-4.3-0.8-6-2.5c-1.7-1.8-2.5-3.9-2.5-6.3c0-2.3,0.7-4.2,2.1-5.9
			c0.2-0.3,0.4-0.5,0.5-0.6c0.1-0.1,0.3-0.5,0.6-1C5.6,178.7,5.9,178.1,6,177.5z"/>
		
			<path fill-rule="evenodd" clip-rule="evenodd" fill="none" stroke="#A7A7A3" stroke-linecap="round" stroke-linejoin="round" stroke-miterlimit="3" d="
			M6,177.5c0.2-3.4,0.4-6.4,0.5-8.9l0.1-161h7.3v157.8l0.1,0c0.1,2,0.2,5.7,0.4,11.3c0,0,0,0.1,0,0.1c0.3,1,0.6,1.7,0.9,2.2
			c0.4,0.5,0.6,0.7,0.6,0.8c1.2,1.7,2,2.9,2.4,3.8c0.5,1,0.8,2.1,0.8,3.1c0,2.5-0.8,4.6-2.5,6.3c-1.7,1.7-3.7,2.5-6,2.5
			c-2.3,0-4.3-0.8-6-2.5c-1.7-1.8-2.5-3.9-2.5-6.3c0-2.3,0.7-4.2,2.1-5.9c0.2-0.3,0.4-0.5,0.5-0.6c0.1-0.1,0.3-0.5,0.6-1
			C5.6,178.7,5.9,178.1,6,177.5z"/>
	</g>
</g>
</svg>
