<?xml version="1.0" encoding="utf-8"?>
<!-- Generator: Adobe Illustrator 16.0.0, SVG Export Plug-In . SVG Version: 6.00 Build 0)  -->
<!DOCTYPE svg PUBLIC "-//W3C//DTD SVG 1.1//EN" "http://www.w3.org/Graphics/SVG/1.1/DTD/svg11.dtd">
<svg version="1.1" id="Layer_1" xmlns="http://www.w3.org/2000/svg" xmlns:xlink="http://www.w3.org/1999/xlink" x="0px" y="0px"
	 width="58px" height="205px" viewBox="0 0 58 205" enable-background="new 0 0 58 205" xml:space="preserve">
<g>
	<g>
		
			<radialGradient id="SVGID_1_" cx="43.9004" cy="93.6001" r="4.0875" gradientTransform="matrix(1 0 0 44.2997 0 -4052.8555)" gradientUnits="userSpaceOnUse">
			<stop  offset="0" style="stop-color:#FFFFFF"/>
			<stop  offset="0.8941" style="stop-color:#CDCCCB"/>
		</radialGradient>
		<path fill-rule="evenodd" clip-rule="evenodd" fill="url(#SVGID_1_)" d="M48.7,179.8L48.7,179.8c-0.3-1.1-0.3-0.9,0,0.7
			c-2.8,1.5-5.6,1.5-8.4,0c0.3-3.4,0.5-6.4,0.5-8.9h0v-161h7.4v157.9l0.1,0C48.4,170.3,48.5,174.1,48.7,179.8z"/>
		
			<radialGradient id="SVGID_2_" cx="44.1504" cy="189.3496" r="20.8875" gradientTransform="matrix(1 0 0 0.8157 0 34.9011)" gradientUnits="userSpaceOnUse">
			<stop  offset="0" style="stop-color:#FFFFFF"/>
			<stop  offset="0.4941" style="stop-color:#CDCCCB"/>
			<stop  offset="0.9373" style="stop-color:#FFFFFF"/>
		</radialGradient>
		<path fill-rule="evenodd" clip-rule="evenodd" fill="url(#SVGID_2_)" d="M40.3,180.5c2.8,1.5,5.6,1.5,8.4,0
			c-0.3-1.5-0.3-1.8-0.1-0.7l0.1,0c0.2,1,0.5,1.8,0.9,2.2c0.3,0.5,0.5,0.7,0.5,0.8c1.2,1.7,2.1,2.9,2.5,3.8c0.5,1,0.8,2,0.8,3.1
			c0,2.5-0.8,4.6-2.5,6.3c-1.6,1.7-3.6,2.6-5.9,2.6c-2.4,0-4.4-0.9-6-2.6c-1.7-1.7-2.5-3.8-2.5-6.3c0-2.3,0.7-4.2,2.1-5.9
			c0.2-0.3,0.4-0.5,0.5-0.6c0.1-0.1,0.3-0.5,0.6-1C39.9,181.6,40.1,181,40.3,180.5z"/>
		
			<path fill-rule="evenodd" clip-rule="evenodd" fill="none" stroke="#A7A7A3" stroke-linecap="round" stroke-linejoin="round" stroke-miterlimit="3" d="
			M40.8,171.6v-161h7.4v157.9l0.1,0c0.1,1.9,0.2,5.7,0.4,11.4c0.2,1,0.5,1.8,0.9,2.2c0.3,0.5,0.5,0.7,0.5,0.8
			c1.2,1.7,2.1,2.9,2.5,3.8c0.5,1,0.8,2,0.8,3.1c0,2.5-0.8,4.6-2.5,6.3c-1.6,1.7-3.6,2.6-5.9,2.6c-2.4,0-4.4-0.9-6-2.6
			c-1.7-1.7-2.5-3.8-2.5-6.3c0-2.3,0.7-4.2,2.1-5.9c0.2-0.3,0.4-0.5,0.5-0.6c0.1-0.1,0.3-0.5,0.6-1c0.3-0.5,0.5-1.1,0.7-1.7
			C40.5,177,40.7,174.1,40.8,171.6"/>
	</g>
</g>
</svg>
