<?xml version="1.0" encoding="utf-8"?>
<!-- Generator: Adobe Illustrator 16.0.0, SVG Export Plug-In . SVG Version: 6.00 Build 0)  -->
<!DOCTYPE svg PUBLIC "-//W3C//DTD SVG 1.1//EN" "http://www.w3.org/Graphics/SVG/1.1/DTD/svg11.dtd">
<svg version="1.1" xmlns="http://www.w3.org/2000/svg" xmlns:xlink="http://www.w3.org/1999/xlink" x="0px" y="0px" width="47.8px"
	 height="142.8px" viewBox="0 0 47.8 142.8" enable-background="new 0 0 47.8 142.8" xml:space="preserve">
<g id="Layer_28">
</g>
<g id="Layer_6">
	<g>
		<g>
			<g>
				
					<linearGradient id="SVGID_1_" gradientUnits="userSpaceOnUse" x1="-247.8252" y1="-219.7559" x2="-208.0752" y2="-219.7559" gradientTransform="matrix(1.0275 0 0 1.0275 260.8171 297.8322)">
					<stop  offset="0" style="stop-color:#FFFFFF;stop-opacity:0"/>
					<stop  offset="0.1765" style="stop-color:#EAEAEA;stop-opacity:6.666667e-002"/>
					<stop  offset="0.2078" style="stop-color:#EAEAEA;stop-opacity:9.803922e-002"/>
					<stop  offset="0.2235" style="stop-color:#DCDCDC;stop-opacity:0.1098"/>
					<stop  offset="0.4314" style="stop-color:#8C8C8C;stop-opacity:0.1765"/>
					<stop  offset="0.5804" style="stop-color:#848484;stop-opacity:0"/>
					<stop  offset="0.8824" style="stop-color:#474747;stop-opacity:0.298"/>
					<stop  offset="1" style="stop-color:#272727;stop-opacity:0.3098"/>
				</linearGradient>
				<path fill-rule="evenodd" clip-rule="evenodd" fill="url(#SVGID_1_)" d="M3.7,4.1c1,0,2.2,0.1,3.6,0.2c1.3,0.1,2.8,0.2,4.3,0.2
					l11.5,0.2c0.1,0,0.2,0,0.3,0c1.9,0,3.7,0,5.4-0.1l7.3-0.2c0.9,0,1.8-0.1,2.6-0.2c1.8-0.1,3.2-0.2,4.3-0.3v54.6v75.4
					c-1.4,3.4-7,5.5-16.5,6.1c-9.7,0.7-17.3-0.9-23-4.7l0.1-76.8V4.1z"/>
				
					<linearGradient id="SVGID_2_" gradientUnits="userSpaceOnUse" x1="-231.0273" y1="-279.2124" x2="-231.0188" y2="-121.3874" gradientTransform="matrix(1.0275 0 0 1.0275 260.8171 297.8322)">
					<stop  offset="0" style="stop-color:#AEAEAE"/>
					<stop  offset="1" style="stop-color:#272727"/>
				</linearGradient>
				<path fill-rule="evenodd" clip-rule="evenodd" fill="url(#SVGID_2_)" d="M43.1,3.9c0.2,0,0.5-0.1,0.7-0.1c0.1,0,0.2,0,0.3-0.1
					l0.1,54.8h-1.1V3.9z M3.7,4.1v54.5H2.6V3.9C2.9,3.9,3.3,4,3.7,4.1z"/>
				
					<linearGradient id="SVGID_3_" gradientUnits="userSpaceOnUse" x1="-231.0781" y1="-263.3125" x2="-231.0726" y2="-159.7875" gradientTransform="matrix(1.0275 0 0 1.0275 260.8171 297.8322)">
					<stop  offset="0" style="stop-color:#AEAEAE"/>
					<stop  offset="1" style="stop-color:#272727"/>
				</linearGradient>
				<path fill-rule="evenodd" clip-rule="evenodd" fill="url(#SVGID_3_)" d="M2.6,58.5h1.1l-0.1,76.8c5.7,3.8,13.4,5.4,23,4.7
					c9.6-0.7,15.1-2.7,16.5-6.1V58.5h1.1v76.2c-3.2,4.4-9.6,6.7-19.4,7c-9.8,0.2-17.3-1.9-22.4-6.4L2.6,58.5z"/>
			</g>
		</g>
		<g>
			
				<linearGradient id="SVGID_4_" gradientUnits="userSpaceOnUse" x1="-252.7998" y1="-286" x2="-209.5493" y2="-286" gradientTransform="matrix(1.0275 0 0 1.0275 260.8171 297.8322)">
				<stop  offset="0" style="stop-color:#000000"/>
				<stop  offset="0.2196" style="stop-color:#383838"/>
				<stop  offset="0.4" style="stop-color:#E2E2E2"/>
				<stop  offset="0.7216" style="stop-color:#969696"/>
				<stop  offset="1" style="stop-color:#272727"/>
			</linearGradient>
			<path fill-rule="evenodd" clip-rule="evenodd" fill="url(#SVGID_4_)" d="M44.3,2.4h1.2c0,0.2-0.1,0.4-0.3,0.6
				c-0.2,0.1-0.5,0.3-0.9,0.5c0,0.1-0.1,0.2-0.3,0.2c-0.2,0-0.5,0.1-0.7,0.2c-1.1,0.4-2.6,0.7-4.4,0.9c-0.9,0.1-1.7,0.3-2.7,0.4
				l-7.2,0.3c-1.7,0.1-3.5,0.2-5.4,0.2c-0.1,0-0.2,0-0.4,0L11.9,5.1c-1.5-0.2-3-0.3-4.4-0.5C6,4.4,4.9,4.2,3.9,4.1
				C3.5,3.9,3.2,3.7,2.9,3.7c-0.1,0-0.2-0.1-0.3-0.1C2,3.5,1.6,3.3,1.5,3C1.2,2.8,1.1,2.6,1.1,2.4h1.2c0.1,0.1,0.2,0.1,0.3,0.3
				C2.7,2.7,3,2.9,3.4,3c0,0,0.1,0,0.2,0c1,0.3,2.6,0.5,4.7,0.7c4.1,0.3,9.1,0.5,15,0.5c5.9,0,10.8-0.2,14.9-0.5
				C40.4,3.5,42,3.3,43,3c0.1,0,0.2,0,0.3,0c0.3-0.1,0.6-0.2,0.8-0.4C44.2,2.5,44.3,2.4,44.3,2.4z"/>
		</g>
		<g>
			
				<linearGradient id="SVGID_5_" gradientUnits="userSpaceOnUse" x1="-214.0752" y1="-219.3496" x2="-228.0252" y2="-219.3496" gradientTransform="matrix(1.0275 0 0 1.0275 260.8171 297.8322)">
				<stop  offset="0" style="stop-color:#FFFFFF"/>
				<stop  offset="1" style="stop-color:#FFFFFF;stop-opacity:0"/>
			</linearGradient>
			<path fill-rule="evenodd" clip-rule="evenodd" fill="url(#SVGID_5_)" d="M39.3,5.4v54.4v12.7v1.7V137c0,0.4-1,0.9-2.9,1.4
				c-2,0.6-3.9,0.9-5.7,1.1V74.2v-1.7V59.8v-54L39.3,5.4z"/>
		</g>
		<g>
			
				<linearGradient id="SVGID_6_" gradientUnits="userSpaceOnUse" x1="-218.5127" y1="-218.9233" x2="-243.0877" y2="-218.9233" gradientTransform="matrix(1.0275 0 0 1.0275 260.8171 297.8322)">
				<stop  offset="0" style="stop-color:#262626;stop-opacity:0.298"/>
				<stop  offset="1" style="stop-color:#FFFFFF;stop-opacity:0"/>
			</linearGradient>
			<path fill-rule="evenodd" clip-rule="evenodd" fill="url(#SVGID_6_)" d="M30.7,5.7v54.4v12.7v1.7v65c-5.1,0.4-8.1,0.6-8.8,0.6
				c-2.3,0-4.5-0.2-6.4-0.8V74.5v-1.7V60.1V6L30.7,5.7z"/>
		</g>
	</g>
</g>
</svg>
