<?xml version="1.0" encoding="utf-8"?>
<!-- Generator: Adobe Illustrator 16.0.0, SVG Export Plug-In . SVG Version: 6.00 Build 0)  -->
<!DOCTYPE svg PUBLIC "-//W3C//DTD SVG 1.1//EN" "http://www.w3.org/Graphics/SVG/1.1/DTD/svg11.dtd">
<svg version="1.1" xmlns="http://www.w3.org/2000/svg" xmlns:xlink="http://www.w3.org/1999/xlink" x="0px" y="0px" width="47.5px"
	 height="7.5px" viewBox="0 0 47.5 7.5" enable-background="new 0 0 47.5 7.5" xml:space="preserve">
<g id="Layer_28">
</g>
<g id="Layer_6">
	<g>
		<g>
			<linearGradient id="SVGID_1_" gradientUnits="userSpaceOnUse" x1="1.6206" y1="4.5815" x2="46.0205" y2="4.5815">
				<stop  offset="0" style="stop-color:#000000"/>
				<stop  offset="0.2196" style="stop-color:#383838"/>
				<stop  offset="0.4" style="stop-color:#E2E2E2"/>
				<stop  offset="0.7216" style="stop-color:#969696"/>
				<stop  offset="1" style="stop-color:#272727"/>
			</linearGradient>
			<path fill-rule="evenodd" clip-rule="evenodd" fill="url(#SVGID_1_)" d="M1.7,4.5h1.1l0.1,0.1L1.7,4.5C1.7,4.6,1.7,4.6,1.7,4.5z
				 M44.9,4.6L44.9,4.6l1.2-0.1c0,0,0,0.1,0,0.1H44.9z"/>
			<linearGradient id="SVGID_2_" gradientUnits="userSpaceOnUse" x1="6.7832" y1="4.5063" x2="47.5832" y2="4.5063">
				<stop  offset="0" style="stop-color:#FFFFFF;stop-opacity:0"/>
				<stop  offset="0.1765" style="stop-color:#EAEAEA;stop-opacity:6.666667e-002"/>
				<stop  offset="0.2078" style="stop-color:#EAEAEA;stop-opacity:9.803922e-002"/>
				<stop  offset="0.2235" style="stop-color:#DCDCDC;stop-opacity:0.1098"/>
				<stop  offset="0.4314" style="stop-color:#8C8C8C;stop-opacity:0.1765"/>
				<stop  offset="0.5804" style="stop-color:#848484;stop-opacity:0"/>
				<stop  offset="0.8824" style="stop-color:#474747;stop-opacity:0.298"/>
				<stop  offset="1" style="stop-color:#272727;stop-opacity:0.3098"/>
			</linearGradient>
			<path fill-rule="evenodd" clip-rule="evenodd" fill="url(#SVGID_2_)" d="M44.9,4.5L44.9,4.5c-0.1,0.2-0.1,0.3-0.3,0.4
				c-0.2,0.2-0.5,0.3-0.8,0.4c-0.1,0-0.2,0-0.3,0c-1,0.3-2.6,0.5-4.8,0.6c-4.1,0.3-9,0.5-14.9,0.5C18,6.4,13.1,6.3,8.9,5.9
				C6.8,5.8,5.2,5.5,4.2,5.3c-0.1,0-0.1,0-0.1,0C3.6,5.1,3.3,5,3.2,4.9C3,4.8,2.9,4.7,2.9,4.6L2.8,4.5c0-0.6,2-1,6.1-1.3
				c4.1-0.4,9.1-0.6,14.9-0.6c5.9,0,10.8,0.2,14.9,0.6C42.9,3.5,44.9,3.9,44.9,4.5z"/>
			<linearGradient id="SVGID_3_" gradientUnits="userSpaceOnUse" x1="1.6206" y1="2.9565" x2="46.0205" y2="2.9565">
				<stop  offset="0" style="stop-color:#000000"/>
				<stop  offset="0.1412" style="stop-color:#BBBBBB"/>
				<stop  offset="0.2863" style="stop-color:#5B5B5B"/>
				<stop  offset="0.4941" style="stop-color:#040404"/>
				<stop  offset="0.7451" style="stop-color:#AEAEAE"/>
				<stop  offset="1" style="stop-color:#272727"/>
			</linearGradient>
			<path fill-rule="evenodd" clip-rule="evenodd" fill="url(#SVGID_3_)" d="M46.1,4.5h-1.1c0-0.6-2.1-1-6.1-1.3
				c-4.1-0.4-9-0.6-14.9-0.6C18,2.6,13.1,2.8,8.9,3.2C4.8,3.5,2.8,3.9,2.8,4.5H1.7c0-0.3,0.4-0.7,1.3-1.1c1-0.4,2.7-0.9,5.1-1.3
				c4.4-0.5,9.7-0.8,15.8-0.8c6.2,0,11.4,0.3,15.7,0.8C42,2.6,43.8,3,44.9,3.5C45.7,3.8,46.1,4.2,46.1,4.5z"/>
		</g>
	</g>
</g>
</svg>
