<?xml version="1.0" encoding="utf-8"?>
<!-- Generator: Adobe Illustrator 16.0.0, SVG Export Plug-In . SVG Version: 6.00 Build 0)  -->
<!DOCTYPE svg PUBLIC "-//W3C//DTD SVG 1.1//EN" "http://www.w3.org/Graphics/SVG/1.1/DTD/svg11.dtd">
<svg version="1.1" id="Layer_1" xmlns="http://www.w3.org/2000/svg" xmlns:xlink="http://www.w3.org/1999/xlink" x="0px" y="0px"
	 width="66.15px" height="184.3px" viewBox="0 0 66.15 184.3" enable-background="new 0 0 66.15 184.3" xml:space="preserve">
<g id="Layer_1_1_">
	<g>
		<g>
			<g>
				<g>
					
						<linearGradient id="SVGID_1_" gradientUnits="userSpaceOnUse" x1="343.908" y1="735.3208" x2="359.433" y2="735.3208" gradientTransform="matrix(1 0 0 1 -318.6201 -633.3203)">
						<stop  offset="0" style="stop-color:#000000"/>
						<stop  offset="0.5098" style="stop-color:#5A5958"/>
						<stop  offset="0.5882" style="stop-color:#E7E6E4"/>
						<stop  offset="0.7137" style="stop-color:#67635C"/>
						<stop  offset="0.8" style="stop-color:#B1ADAB"/>
						<stop  offset="0.8627" style="stop-color:#827D7D"/>
						<stop  offset="1" style="stop-color:#1C1B20"/>
					</linearGradient>
					<path fill="url(#SVGID_1_)" d="M38.701,144.701h-5.9V59.3h3c0.199,0,0.4,0,0.699,0h2.201V144.701z"/>
					
						<linearGradient id="SVGID_2_" gradientUnits="userSpaceOnUse" x1="343.908" y1="797.8706" x2="359.433" y2="797.8706" gradientTransform="matrix(1 0 0 1 -318.6201 -633.3203)">
						<stop  offset="0" style="stop-color:#000000"/>
						<stop  offset="0.5098" style="stop-color:#5A5958"/>
						<stop  offset="0.5882" style="stop-color:#E7E6E4"/>
						<stop  offset="0.7137" style="stop-color:#67635C"/>
						<stop  offset="0.8" style="stop-color:#B1ADAB"/>
						<stop  offset="0.8627" style="stop-color:#827D7D"/>
						<stop  offset="1" style="stop-color:#1C1B20"/>
					</linearGradient>
					<rect x="32.8" y="144.701" fill="url(#SVGID_2_)" width="5.9" height="39.699"/>
				</g>
			</g>
			<g>
				<g>
					
						<linearGradient id="SVGID_3_" gradientUnits="userSpaceOnUse" x1="336.9695" y1="686.0708" x2="371.9709" y2="686.0708" gradientTransform="matrix(1 0 0 1 -318.6201 -633.3203)">
						<stop  offset="0" style="stop-color:#000000"/>
						<stop  offset="0.102" style="stop-color:#61605B"/>
						<stop  offset="0.1765" style="stop-color:#554A46"/>
						<stop  offset="0.2588" style="stop-color:#FAFFFB"/>
						<stop  offset="0.3216" style="stop-color:#F3F7F3"/>
						<stop  offset="0.4863" style="stop-color:#685F5A"/>
						<stop  offset="0.6157" style="stop-color:#B6B4B0"/>
						<stop  offset="0.6941" style="stop-color:#FFFFFF"/>
						<stop  offset="0.7725" style="stop-color:#9F998B"/>
						<stop  offset="0.8314" style="stop-color:#67635C"/>
						<stop  offset="1" style="stop-color:#1C1B20"/>
					</linearGradient>
					<path fill="url(#SVGID_3_)" d="M43.8,59.5c0.101-0.1,0.199-0.1,0.301-0.2c-0.899,0.3-1.7,0.5-2.602,0.6
						C35.4,60.7,29.6,60,24.2,57.6c1.5,0.9,3.3,1.6,5.6,2.1C30.9,60,31.9,60.2,33,60.3c-3.1-0.4-6.1-1.3-9.2-2.7V45.2
						c3.5,0.6,7.5,0.9,11.901,0.9c4.199,0,8.1-0.3,11.5-0.8L47.1,58.4C46,58.7,44.9,59.2,43.8,59.5z"/>
					
						<linearGradient id="SVGID_4_" gradientUnits="userSpaceOnUse" x1="342.7693" y1="692.5708" x2="362.8948" y2="692.5708" gradientTransform="matrix(1 0 0 1 -318.6201 -633.3203)">
						<stop  offset="0" style="stop-color:#000000"/>
						<stop  offset="0.5098" style="stop-color:#5A5958"/>
						<stop  offset="0.5882" style="stop-color:#E7E6E4"/>
						<stop  offset="0.7137" style="stop-color:#67635C"/>
						<stop  offset="0.8" style="stop-color:#B1ADAB"/>
						<stop  offset="0.8627" style="stop-color:#827D7D"/>
						<stop  offset="1" style="stop-color:#1C1B20"/>
					</linearGradient>
					<path fill="url(#SVGID_4_)" d="M43.8,59.5l-0.5,0.1c-2.399,0.7-4.801,1.1-7.199,1.1L33,60.5c-1.1-0.2-2.1-0.4-3.2-0.6
						c-2.3-0.5-4.1-1.2-5.6-2.1c5.4,2.3,11.2,3.1,17.299,2.3c0.9-0.1,1.701-0.3,2.602-0.6C44,59.4,43.8,59.5,43.8,59.5z"/>
				</g>
			</g>
			<g>
				<g>
					
						<linearGradient id="SVGID_5_" gradientUnits="userSpaceOnUse" x1="331.2332" y1="676.02" x2="377.2081" y2="676.02" gradientTransform="matrix(1 0 0 1 -318.6201 -633.3203)">
						<stop  offset="0" style="stop-color:#737373"/>
						<stop  offset="0.0863" style="stop-color:#61605B"/>
						<stop  offset="0.1765" style="stop-color:#91908C"/>
						<stop  offset="0.2588" style="stop-color:#888480"/>
						<stop  offset="0.3059" style="stop-color:#F3F7F3"/>
						<stop  offset="0.4118" style="stop-color:#FBFFF9"/>
						<stop  offset="0.4627" style="stop-color:#685F5A"/>
						<stop  offset="0.5216" style="stop-color:#4C413D"/>
						<stop  offset="0.6157" style="stop-color:#B6B4B0"/>
						<stop  offset="0.6627" style="stop-color:#FFFFFF"/>
						<stop  offset="0.7216" style="stop-color:#5A5150"/>
						<stop  offset="0.7725" style="stop-color:#B5B0B3"/>
						<stop  offset="0.8314" style="stop-color:#888888"/>
						<stop  offset="0.9294" style="stop-color:#ABAAA9"/>
						<stop  offset="1" style="stop-color:#4D4D4F"/>
					</linearGradient>
					<path fill="url(#SVGID_5_)" d="M12.5,39.3c0.101,0.2,0.2,0.4,0.4,0.6c1.7,1.1,4.899,2.1,9.5,2.8l1.1,0.2c0.101,0,0.2,0,0.3,0
						c0.101,0,0.2,0,0.301,0h0.1c0.1,0,0.1,0,0.2,0l0.1,0.1c0.7,0.1,1.4,0.1,2,0.1h-0.3c5.9,0.7,12.5,0.6,19.7,0
						c3.6-0.3,7.1-1,10.399-2c1.199-0.5,2-1.1,2.4-1.8v2.8c-0.5,0.5-1.301,0.9-2.301,1.3c-14,3.6-27.9,3.6-41.5,0
						C14,43,13.1,42.6,12.5,42V39.3z"/>
					
						<linearGradient id="SVGID_6_" gradientUnits="userSpaceOnUse" x1="496.9275" y1="46.2671" x2="597.7995" y2="46.2671" gradientTransform="matrix(0.8342 0.5514 -0.1252 1.116 -415.1614 -314.2318)">
						<stop  offset="0" style="stop-color:#000000"/>
						<stop  offset="0.1765" style="stop-color:#554A46"/>
						<stop  offset="0.3216" style="stop-color:#F3F7F3"/>
						<stop  offset="0.4863" style="stop-color:#685F5A"/>
						<stop  offset="0.6157" style="stop-color:#B6B4B0"/>
						<stop  offset="0.6941" style="stop-color:#FFFFFF"/>
						<stop  offset="0.7725" style="stop-color:#9F998B"/>
						<stop  offset="0.8314" style="stop-color:#67635C"/>
						<stop  offset="1" style="stop-color:#1C1B20"/>
					</linearGradient>
					<path fill="url(#SVGID_6_)" d="M58.8,39.3C58.4,40,57.6,40.5,56.4,41.1c-3.3,1-6.8,1.7-10.4,2c-7.199,0.7-13.799,0.7-19.7,0
						H26.6c-0.7,0-1.301-0.1-2-0.1L24.5,42.9c-0.1,0-0.1,0-0.2,0H24c-0.1,0-0.1,0-0.3,0c-0.1,0-0.3,0-0.3,0L22.3,42.7
						c-4.6-0.7-7.8-1.6-9.5-2.8c-0.199-0.2-0.3-0.4-0.399-0.6c0-1.1,2.3-2.1,6.8-2.9c1.3-0.2,2.7-0.4,4.1-0.5
						c3.301-0.4,7-0.6,11-0.6c0.4,0,0.9,0,1.4,0c6.399,0,11.899,0.4,16.399,1.1C56.6,37.2,58.8,38.2,58.8,39.3z"/>
				</g>
			</g>
			<g>
				<g>
					
						<linearGradient id="SVGID_7_" gradientUnits="userSpaceOnUse" x1="654.6365" y1="-136.6929" x2="669.3254" y2="-136.6929" gradientTransform="matrix(0.7403 0.6722 -0.1017 1.2584 -469.2091 -243.5386)">
						<stop  offset="0" style="stop-color:#000000"/>
						<stop  offset="0.1765" style="stop-color:#554A46"/>
						<stop  offset="0.3216" style="stop-color:#F3F7F3"/>
						<stop  offset="0.4863" style="stop-color:#685F5A"/>
						<stop  offset="0.6157" style="stop-color:#B6B4B0"/>
						<stop  offset="0.6941" style="stop-color:#FFFFFF"/>
						<stop  offset="0.7725" style="stop-color:#9F998B"/>
						<stop  offset="0.8314" style="stop-color:#67635C"/>
						<stop  offset="1" style="stop-color:#1C1B20"/>
					</linearGradient>
					<path fill="url(#SVGID_7_)" d="M40.201,29.5C40.1,29.7,39.8,29.9,39.5,30l0,0c0,0-0.1,0-0.199,0c-0.699,0.3-1.5,0.5-2.301,0.6
						c-1.6,0.2-3.1,0.3-4.398,0l0,0c-0.2,0-0.399,0-0.5,0H32v-0.1h-0.3c-1.1-0.2-1.8-0.5-2.2-0.9l-0.1-0.1v-0.1
						c0.1-0.3,0.6-0.6,1.5-0.8c0.3-0.1,0.6-0.1,0.899-0.1c0.801-0.1,1.601-0.2,2.5-0.3c0.101,0,0.199,0,0.301,0
						c1.5,0,2.8,0.1,3.8,0.4C39.5,28.9,40.1,29.2,40.201,29.5z"/>
					
						<linearGradient id="SVGID_8_" gradientUnits="userSpaceOnUse" x1="345.6082" y1="668.3159" x2="361.5331" y2="668.3159" gradientTransform="matrix(1 0 0 1 -318.6201 -633.3203)">
						<stop  offset="0" style="stop-color:#000000"/>
						<stop  offset="0.102" style="stop-color:#61605B"/>
						<stop  offset="0.1765" style="stop-color:#554A46"/>
						<stop  offset="0.2588" style="stop-color:#FAFFFB"/>
						<stop  offset="0.3216" style="stop-color:#F3F7F3"/>
						<stop  offset="0.4863" style="stop-color:#685F5A"/>
						<stop  offset="0.6157" style="stop-color:#B6B4B0"/>
						<stop  offset="0.6941" style="stop-color:#FFFFFF"/>
						<stop  offset="0.7725" style="stop-color:#9F998B"/>
						<stop  offset="0.8314" style="stop-color:#67635C"/>
						<stop  offset="1" style="stop-color:#1C1B20"/>
					</linearGradient>
					<path fill="url(#SVGID_8_)" d="M38.201,40.4c-0.301,0.1-0.5,0.1-0.701,0.1c-2.799,0.5-5.398,0-7.898-1.3
						c0.5,0.4,1.1,0.7,1.8,0.9c-0.7-0.2-1.3-0.5-1.9-0.9v-1.5v-8.3v-0.1l0,0v0.1c0,0.1,0.101,0.1,0.101,0.1
						c0.399,0.4,1.1,0.7,2.199,0.9H32v0.1H32.1c0.199,0,0.398,0,0.5,0l0,0c1.398,0.2,2.8,0.2,4.398,0c0.801-0.1,1.5-0.3,2.301-0.6
						c0.101,0,0.199,0,0.199,0l0,0c0.301-0.2,0.5-0.4,0.701-0.5L40,37.9v1.8c-0.398,0.2-0.799,0.4-1.299,0.6
						c-0.101,0-0.101,0-0.101,0.1l0,0H38.5h-0.2H38.201L38.201,40.4z"/>
					
						<linearGradient id="SVGID_9_" gradientUnits="userSpaceOnUse" x1="348.2957" y1="673.4702" x2="357.4462" y2="673.4702" gradientTransform="matrix(1 0 0 1 -318.6201 -633.3203)">
						<stop  offset="0" style="stop-color:#000000"/>
						<stop  offset="0.5098" style="stop-color:#5A5958"/>
						<stop  offset="0.5882" style="stop-color:#E7E6E4"/>
						<stop  offset="0.7137" style="stop-color:#67635C"/>
						<stop  offset="0.8" style="stop-color:#B1ADAB"/>
						<stop  offset="0.8627" style="stop-color:#827D7D"/>
						<stop  offset="1" style="stop-color:#1C1B20"/>
					</linearGradient>
					<path fill="url(#SVGID_9_)" d="M31.4,40.2c-0.7-0.3-1.3-0.6-1.8-0.9c2.5,1.3,5.101,1.7,7.898,1.3c0.201,0,0.4,0,0.701-0.1
						c-1,0.3-2.101,0.5-3.101,0.5L33.7,40.8c-0.5,0-1-0.1-1.5-0.3c-0.2-0.1-0.3-0.1-0.5-0.2C31.6,40.3,31.5,40.3,31.4,40.2z"/>
				</g>
			</g>
		</g>
		<g>
			<path d="M37.034,27.9c0,0.7-0.2,1.3-0.7,1.8s-1.1,0.8-1.8,0.8s-1.3-0.2-1.8-0.7s-0.8-1-0.8-1.7"/>
		</g>
	</g>
</g>
<g id="Layer_2">
	<path fill="none" stroke="#000000" stroke-width="5" stroke-miterlimit="10" d="M34.372,26.865
		c0.064,0.836,0.103,0.704,0.112,1.602"/>
</g>
</svg>
