<?xml version="1.0" encoding="utf-8"?>
<!-- Generator: Adobe Illustrator 16.0.0, SVG Export Plug-In . SVG Version: 6.00 Build 0)  -->
<!DOCTYPE svg PUBLIC "-//W3C//DTD SVG 1.1//EN" "http://www.w3.org/Graphics/SVG/1.1/DTD/svg11.dtd">
<svg version="1.1" id="Layer_1" xmlns="http://www.w3.org/2000/svg" xmlns:xlink="http://www.w3.org/1999/xlink" x="0px" y="0px"
	 width="700px" height="700px" viewBox="0 0 700 700" enable-background="new 0 0 700 700" xml:space="preserve">
<symbol  id="obj1" viewBox="-18.5 -10 38 21.85">
	<g id="Layer_1_3_">
		<polygon fill-rule="evenodd" clip-rule="evenodd" fill="#3F3335" points="19.5,1 6.85,-1.65 6.7,-0.77 4.95,11.8 4.83,11.85 
			17.4,9.65 		"/>
		<polygon fill-rule="evenodd" clip-rule="evenodd" fill="#585659" points="4.95,11.8 6.7,-0.77 6.85,-1.65 6.65,-1.65 -18.5,-1.65 
			-18.5,11.8 		"/>
		<polygon fill-rule="evenodd" clip-rule="evenodd" fill="#030406" points="-18.5,-1.65 6.65,-1.65 6.85,-1.65 6.85,-10 -18.5,-10 
					"/>
		<polygon fill-rule="evenodd" clip-rule="evenodd" fill="#161616" points="6.85,-1.65 19.5,1 19.5,-6.52 19.45,-6.55 6.85,-10 		
			"/>
	</g>
	<g id="Layer_2_3_">
		<line fill-rule="evenodd" clip-rule="evenodd" fill="none" x1="6.75" y1="-1.6" x2="19.15" y2="1"/>
		<line fill-rule="evenodd" clip-rule="evenodd" fill="none" x1="-18.45" y1="-1.6" x2="6.75" y2="-1.6"/>
	</g>
</symbol>
<symbol  id="obj19" viewBox="-37 -24 79.35 47.83">
	<g id="Layer_8_1_">
		<g>
			
				<linearGradient id="SVGID_1_" gradientUnits="userSpaceOnUse" x1="42.3267" y1="-16742.5254" x2="90.1715" y2="-16742.5254" gradientTransform="matrix(-0.1505 -0.9886 1.0089 -0.0173 16932.8223 -223.7227)">
				<stop  offset="0" style="stop-color:#737173"/>
				<stop  offset="0.098" style="stop-color:#FDFDFD"/>
				<stop  offset="0.2863" style="stop-color:#AFB3CE"/>
				<stop  offset="0.549" style="stop-color:#A1A5C0"/>
				<stop  offset="0.7216" style="stop-color:#F8FBFF"/>
				<stop  offset="0.8353" style="stop-color:#818082"/>
				<stop  offset="1" style="stop-color:#1F1D1E"/>
			</linearGradient>
			<path fill-rule="evenodd" clip-rule="evenodd" fill="url(#SVGID_1_)" d="M38.25,23.8c0.63-0.03,1.12-0.35,1.45-0.95
				c0.7-1.5,1.22-3.32,1.55-5.45c0.5-3.37,0.82-7.25,0.95-11.65V5.7c0.1-1.7,0.15-3.47,0.15-5.3c-0.03-2.07-0.05-4.05-0.05-5.95
				c0-0.03-0.02-0.07-0.05-0.1c-0.17-4.13-0.47-7.85-0.9-11.15c-0.6-4.17-1.28-6.55-2.05-7.15H22.6c0.83,0.37,1.58,2.77,2.25,7.2
				c0.43,3.23,0.73,6.92,0.9,11.05c0.03,0.03,0.05,0.07,0.05,0.1c0,1.87,0.02,3.83,0.05,5.9c0,1.83-0.05,3.58-0.15,5.25V5.6
				c-0.13,4.37-0.45,8.22-0.95,11.55c-0.5,3.37-1.08,5.48-1.75,6.35c-0.07,0.07-0.12,0.12-0.15,0.15s-0.05,0.07-0.05,0.1h-0.05
				L22.7,23.8H38.25z"/>
		</g>
	</g>
	<g id="Layer_7_1_">
		<g>
			
				<linearGradient id="SVGID_2_" gradientUnits="userSpaceOnUse" x1="-238.7163" y1="-17190.1484" x2="-177.1998" y2="-17190.1484" gradientTransform="matrix(-0.2207 -0.9753 1.0254 7.604354e-004 17613.0449 -186.3584)">
				<stop  offset="0" style="stop-color:#0D0D0D"/>
				<stop  offset="0.4941" style="stop-color:#070707;stop-opacity:0.3608"/>
				<stop  offset="1" style="stop-color:#000000;stop-opacity:0.5765"/>
			</linearGradient>
			<path fill-rule="evenodd" clip-rule="evenodd" fill="url(#SVGID_2_)" d="M27.95,7.1c0.03,0.03,0.08,0.03,0.15,0h13.2
				c0.07,0.03,0.12,0.03,0.15,0c0.07-0.03,0.1-0.07,0.1-0.1S41.5,6.93,41.4,6.9c-0.07-0.03-0.12-0.05-0.15-0.05H28
				c-0.03,0-0.08,0.02-0.15,0.05c0,0.03,0.03,0.07,0.1,0.1C27.88,7.03,27.88,7.07,27.95,7.1z M27.25,11.7
				c0.03,0.03,0.08,0.03,0.15,0h13.2c0.07,0.03,0.12,0.03,0.15,0c0.07-0.03,0.1-0.07,0.1-0.1s-0.03-0.07-0.1-0.1
				c-0.1-0.03-0.17-0.05-0.2-0.05H27.3c-0.03,0-0.05,0.02-0.05,0.05c-0.07,0.03-0.07,0.07,0,0.1C27.18,11.63,27.18,11.67,27.25,11.7
				z M27.95,9.3c0.03,0.03,0.08,0.03,0.15,0h13.2c0.07,0.03,0.12,0.03,0.15,0c0.07-0.03,0.1-0.07,0.1-0.1c0-0.03-0.03-0.07-0.1-0.1
				c-0.03-0.03-0.08-0.05-0.15-0.05H28.1c-0.07,0-0.12,0.02-0.15,0.05c-0.07,0.03-0.07,0.07,0,0.1C27.88,9.23,27.88,9.27,27.95,9.3z
				 M27.15,13.55c-0.07,0-0.12,0.02-0.15,0.05c-0.07,0.03-0.07,0.07,0,0.1c-0.07,0.03-0.07,0.07,0,0.1c0.03,0.03,0.08,0.03,0.15,0
				h13.2c0.07,0.03,0.12,0.03,0.15,0c0.07-0.03,0.1-0.07,0.1-0.1c0-0.03-0.03-0.07-0.1-0.1c-0.03-0.03-0.08-0.05-0.15-0.05H27.15z
				 M39.2,18.2c0.07,0.03,0.12,0.03,0.15,0c0.07-0.03,0.1-0.07,0.1-0.1c-0.07-0.03-0.12-0.07-0.15-0.1
				c-0.07-0.03-0.12-0.05-0.15-0.05H25.9c-0.03,0-0.08,0.02-0.15,0.05c-0.03,0.03,0,0.07,0.1,0.1c-0.07,0.03-0.07,0.07,0,0.1
				c0.03,0.03,0.08,0.03,0.15,0H39.2z M40.15,15.8c-0.07-0.03-0.12-0.05-0.15-0.05H26.75c-0.03,0-0.08,0.02-0.15,0.05
				c-0.03,0.03-0.03,0.07,0,0.1c-0.03,0.03,0,0.07,0.1,0.1c0.03,0.03,0.08,0.03,0.15,0h13.2c0.07,0.03,0.12,0.03,0.15,0
				c0-0.03,0-0.07,0-0.1S40.18,15.83,40.15,15.8z M38.3,20.6c0.07,0.03,0.12,0.03,0.15,0c0.07-0.03,0.07-0.07,0-0.1
				c0-0.03-0.02-0.07-0.05-0.1c-0.07-0.03-0.13-0.05-0.2-0.05H25c-0.03,0-0.08,0.02-0.15,0.05c-0.03,0.03-0.03,0.07,0,0.1
				c0,0.03,0.03,0.07,0.1,0.1c0.03,0.03,0.08,0.03,0.15,0H38.3z M36.25,22.7c0.03,0.03,0.08,0.03,0.15,0
				c0.03-0.03,0.05-0.07,0.05-0.1c-0.03-0.03-0.08-0.07-0.15-0.1c-0.03-0.03-0.08-0.05-0.15-0.05h-13.2c-0.03,0-0.08,0.02-0.15,0.05
				c-0.03,0.03,0,0.07,0.1,0.1c-0.07,0.03-0.07,0.07,0,0.1c0.03,0.03,0.08,0.03,0.15,0H36.25z M24.45-19.95
				c-0.07,0-0.12,0.02-0.15,0.05c0,0.03,0.02,0.07,0.05,0.1c-0.03,0.03-0.03,0.07,0,0.1c0.07,0.03,0.12,0.03,0.15,0h13.2
				c0.07,0.03,0.13,0.03,0.2,0c0.03-0.03,0.05-0.07,0.05-0.1c0-0.03-0.05-0.07-0.15-0.1c-0.07-0.03-0.12-0.05-0.15-0.05H24.45z
				 M22.8-22.15c-0.03,0-0.08,0.02-0.15,0.05c-0.03,0.03-0.03,0.07,0,0.1c0,0.03,0.03,0.07,0.1,0.1c0.03,0.03,0.08,0.03,0.15,0h13.2
				c0.03,0.03,0.08,0.03,0.15,0c0.03-0.03,0.03-0.07,0-0.1c0-0.03-0.03-0.07-0.1-0.1c-0.03-0.03-0.08-0.05-0.15-0.05H22.8z
				 M25.1-17.5c0.07,0.03,0.12,0.03,0.15,0H38.5c0.03,0.03,0.08,0.03,0.15,0c0.03-0.03,0.05-0.07,0.05-0.1s-0.02-0.07-0.05-0.1
				c-0.07-0.03-0.12-0.05-0.15-0.05H25.25c-0.03,0-0.08,0.02-0.15,0.05c-0.03,0.03-0.03,0.07,0,0.1
				C25.07-17.57,25.07-17.53,25.1-17.5z M26.05-15.3c-0.03,0.03-0.03,0.07,0,0.1c-0.03,0.03-0.03,0.07,0,0.1
				c0.07,0.03,0.12,0.03,0.15,0h13.25c0.03,0.03,0.08,0.03,0.15,0c0.03-0.03,0.05-0.07,0.05-0.1c0-0.03-0.02-0.07-0.05-0.1
				c-0.1-0.03-0.18-0.05-0.25-0.05h-13.2C26.08-15.35,26.05-15.33,26.05-15.3z M26.55-13.1c-0.03,0.03-0.03,0.07,0,0.1
				c0.07,0.03,0.12,0.03,0.15,0h13.25c0.03,0.03,0.08,0.03,0.15,0c0.03-0.03,0.05-0.07,0.05-0.1s-0.02-0.07-0.05-0.1
				c-0.07-0.03-0.12-0.05-0.15-0.05H26.7c-0.03,0-0.08,0.02-0.15,0.05C26.52-13.17,26.52-13.13,26.55-13.1z M40.85-10.8
				c0.03,0.03,0.08,0.03,0.15,0c0-0.03,0-0.07,0-0.1s-0.03-0.07-0.1-0.1c-0.03-0.03-0.08-0.05-0.15-0.05h-13.2
				c-0.07,0-0.12,0.02-0.15,0.05c-0.07,0.03-0.07,0.07,0,0.1c-0.07,0.03-0.05,0.07,0.05,0.1c0.07,0.03,0.12,0.03,0.15,0H40.85z
				 M41.1-8.8c-0.03-0.03-0.08-0.05-0.15-0.05h-13.2c-0.07,0-0.12,0.02-0.15,0.05c-0.07,0.03-0.05,0.07,0.05,0.1
				c-0.03,0.03-0.03,0.07,0,0.1c0.07,0.03,0.12,0.03,0.15,0h13.25c0.03,0.03,0.08,0.03,0.15,0c0.03-0.03,0.05-0.07,0.05-0.1
				C41.22-8.73,41.17-8.77,41.1-8.8z M41.5-6.3c0-0.03-0.03-0.07-0.1-0.1c-0.03-0.03-0.08-0.05-0.15-0.05h-13.2
				c-0.07,0-0.12,0.02-0.15,0.05c-0.07,0.03-0.07,0.07,0,0.1c0,0.03,0.02,0.07,0.05,0.1c0.07,0.03,0.12,0.03,0.15,0h13.25
				c0.03,0.03,0.08,0.03,0.15,0C41.53-6.23,41.53-6.27,41.5-6.3z M41.9-4.3c-0.03-0.03-0.08-0.05-0.15-0.05h-13.2
				c-0.07,0-0.12,0.02-0.15,0.05c-0.07,0.03-0.05,0.07,0.05,0.1c-0.03,0.03-0.03,0.07,0,0.1c0.07,0.03,0.12,0.03,0.15,0h13.25
				c0.03,0.03,0.08,0.03,0.15,0c0.03-0.03,0.05-0.07,0.05-0.1C42.02-4.23,41.97-4.27,41.9-4.3z M41.8-1.9
				c0.07,0.03,0.12,0.03,0.15,0C41.98-1.93,42-1.97,42-2s-0.03-0.07-0.1-0.1c-0.1-0.03-0.17-0.05-0.2-0.05H28.45
				c-0.03,0-0.05,0.02-0.05,0.05c-0.07,0.03-0.07,0.07,0,0.1c-0.07,0.03-0.05,0.07,0.05,0.1c0.03,0.03,0.08,0.03,0.15,0H41.8z
				 M28.45,0.05c-0.07,0-0.12,0.02-0.15,0.05c-0.07,0.03-0.07,0.07,0,0.1c-0.07,0.03-0.07,0.07,0,0.1c0.1,0.03,0.15,0.03,0.15,0
				h13.2c0.1,0.03,0.15,0.03,0.15,0c0.07-0.03,0.1-0.07,0.1-0.1c0-0.03-0.03-0.07-0.1-0.1c-0.03-0.03-0.08-0.05-0.15-0.05H28.45z
				 M28.35,2.5c-0.07,0.03-0.07,0.07,0,0.1c-0.07,0.03-0.07,0.07,0,0.1c0.03,0.03,0.08,0.03,0.15,0h13.2c0.07,0.03,0.12,0.03,0.15,0
				c0.07-0.03,0.1-0.07,0.1-0.1s-0.03-0.07-0.1-0.1c-0.03-0.03-0.08-0.05-0.15-0.05H28.5C28.43,2.45,28.38,2.47,28.35,2.5z"/>
			
				<linearGradient id="SVGID_3_" gradientUnits="userSpaceOnUse" x1="-229.106" y1="-17187.1367" x2="-180.5078" y2="-17187.1367" gradientTransform="matrix(-0.2207 -0.9753 1.0255 7.604380e-004 17613.1875 -186.3848)">
				<stop  offset="0" style="stop-color:#0D0D0D;stop-opacity:0.4235"/>
				<stop  offset="0.4941" style="stop-color:#070707;stop-opacity:0.1608"/>
				<stop  offset="1" style="stop-color:#000000"/>
			</linearGradient>
			<path fill-rule="evenodd" clip-rule="evenodd" fill="url(#SVGID_3_)" d="M28.2,4.55c-0.07,0-0.12,0.02-0.15,0.05
				c-0.07,0.03-0.07,0.07,0,0.1c-0.07,0.03-0.07,0.07,0,0.1c0.1,0.03,0.15,0.03,0.15,0h13.2c0.1,0.03,0.15,0.03,0.15,0
				c0.07-0.03,0.1-0.07,0.1-0.1c0-0.03-0.03-0.07-0.1-0.1c-0.03-0.03-0.08-0.05-0.15-0.05H28.2z"/>
		</g>
	</g>
	<g id="Layer_6_1_">
		<g>
			
				<path fill-rule="evenodd" clip-rule="evenodd" fill="none" stroke="#FFFFFF" stroke-width="0.1" stroke-linecap="round" stroke-linejoin="round" stroke-miterlimit="3" stroke-opacity="0.4196" d="
				M27.9,13.3h12.35 M27.5,15.5h12.35 M26.7,17.7h12.45 M25.8,20.1h12.35 M23.8,22.2h12.4 M28.25,11.2H40.6 M29,6.6h12.3 M29.3,2.2
				h12.5 M29.1,4.3h12.35 M28.85,8.8H41.3 M28-13.5h12.45 M27.55-15.6h12.5 M26.75-18h12.4 M26.1-20.2h12.4 M24.6-22.4h12.5
				 M29.3-0.2h12.5 M28.85-11.3H41.2 M29-9.1h12.3 M29.25-6.7H41.6 M29.65-4.6H42 M29.55-2.4h12.4"/>
		</g>
	</g>
	<g id="Layer_5_1_">
		<g>
			
				<radialGradient id="SVGID_4_" cx="-1087.625" cy="16.3501" r="1.7875" gradientTransform="matrix(1 0 0.1189 0.8392 1111.1812 2.6299)" gradientUnits="userSpaceOnUse">
				<stop  offset="0" style="stop-color:#FFFFFF"/>
				<stop  offset="1" style="stop-color:#F6F6F6;stop-opacity:0"/>
			</radialGradient>
			<path fill-rule="evenodd" clip-rule="evenodd" fill="url(#SVGID_4_)" d="M24.9,16.3c0.07,0.07,0.15,0.1,0.25,0.1h3.55
				c0.07,0,0.13-0.03,0.2-0.1c0.03-0.03,0.05-0.08,0.05-0.15c0-0.07-0.03-0.13-0.1-0.2c-0.1-0.03-0.18-0.05-0.25-0.05h-3.55
				c-0.1,0-0.17,0.02-0.2,0.05c-0.03,0.07-0.05,0.13-0.05,0.2C24.8,16.22,24.83,16.27,24.9,16.3z"/>
			
				<radialGradient id="SVGID_5_" cx="-1086.9697" cy="14.2002" r="1.7875" gradientTransform="matrix(1 0 0.1189 0.8392 1111.1323 2.2842)" gradientUnits="userSpaceOnUse">
				<stop  offset="0" style="stop-color:#FFFFFF"/>
				<stop  offset="1" style="stop-color:#F6F6F6;stop-opacity:0"/>
			</radialGradient>
			<path fill-rule="evenodd" clip-rule="evenodd" fill="url(#SVGID_5_)" d="M25.2,14c0,0.07,0.03,0.12,0.1,0.15
				c0.1,0.07,0.18,0.1,0.25,0.1h3.55c0.1,0,0.17-0.03,0.2-0.1c0.03-0.03,0.05-0.08,0.05-0.15s-0.03-0.13-0.1-0.2
				c-0.07-0.03-0.15-0.05-0.25-0.05h-3.55c-0.07,0-0.13,0.02-0.2,0.05C25.22,13.87,25.2,13.93,25.2,14z"/>
			
				<radialGradient id="SVGID_6_" cx="-1086.3799" cy="12.1499" r="1.7875" gradientTransform="matrix(1 0 0.1189 0.8392 1111.0854 1.9541)" gradientUnits="userSpaceOnUse">
				<stop  offset="0" style="stop-color:#FFFFFF"/>
				<stop  offset="1" style="stop-color:#F6F6F6;stop-opacity:0"/>
			</radialGradient>
			<path fill-rule="evenodd" clip-rule="evenodd" fill="url(#SVGID_6_)" d="M29.6,12.1c0.03-0.03,0.05-0.08,0.05-0.15
				c0-0.07-0.03-0.13-0.1-0.2c-0.07-0.03-0.15-0.05-0.25-0.05h-3.55c-0.1,0-0.17,0.02-0.2,0.05c-0.03,0.07-0.05,0.13-0.05,0.2
				c0,0.07,0.03,0.12,0.1,0.15c0.07,0.07,0.15,0.1,0.25,0.1h3.55C29.5,12.2,29.57,12.17,29.6,12.1z"/>
			
				<radialGradient id="SVGID_7_" cx="-1085.5039" cy="9.8501" r="1.7875" gradientTransform="matrix(1 0 0.1189 0.8392 1111.0332 1.5845)" gradientUnits="userSpaceOnUse">
				<stop  offset="0" style="stop-color:#FFFFFF"/>
				<stop  offset="1" style="stop-color:#F6F6F6;stop-opacity:0"/>
			</radialGradient>
			<path fill-rule="evenodd" clip-rule="evenodd" fill="url(#SVGID_7_)" d="M30.1,9.45C30,9.42,29.92,9.4,29.85,9.4H26.3
				c-0.1,0-0.17,0.02-0.2,0.05C26.03,9.52,26,9.58,26,9.65c0.03,0.07,0.08,0.12,0.15,0.15c0.03,0.07,0.1,0.1,0.2,0.1h3.55
				c0.07,0,0.15-0.03,0.25-0.1c0.03-0.03,0.03-0.08,0-0.15C30.15,9.58,30.13,9.52,30.1,9.45z"/>
			
				<radialGradient id="SVGID_8_" cx="-1085.1348" cy="7.6001" r="1.7875" gradientTransform="matrix(1 0 0.1189 0.8392 1110.9819 1.2227)" gradientUnits="userSpaceOnUse">
				<stop  offset="0" style="stop-color:#FFFFFF"/>
				<stop  offset="1" style="stop-color:#F6F6F6;stop-opacity:0"/>
			</radialGradient>
			<path fill-rule="evenodd" clip-rule="evenodd" fill="url(#SVGID_8_)" d="M26.2,7.55c0.07,0.07,0.15,0.1,0.25,0.1H30
				c0.1,0,0.17-0.03,0.2-0.1c0.03-0.03,0.05-0.08,0.05-0.15c0-0.07-0.03-0.13-0.1-0.2C30.08,7.17,30,7.15,29.9,7.15h-3.55
				c-0.1,0-0.17,0.02-0.2,0.05c-0.03,0.07-0.05,0.13-0.05,0.2C26.1,7.47,26.13,7.52,26.2,7.55z"/>
			
				<radialGradient id="SVGID_9_" cx="-1084.459" cy="5.2998" r="1.7875" gradientTransform="matrix(1 0 0.1189 0.8392 1110.9292 0.8525)" gradientUnits="userSpaceOnUse">
				<stop  offset="0" style="stop-color:#FFFFFF"/>
				<stop  offset="1" style="stop-color:#F6F6F6;stop-opacity:0"/>
			</radialGradient>
			<path fill-rule="evenodd" clip-rule="evenodd" fill="url(#SVGID_9_)" d="M26.4,5.1c0.03,0.07,0.08,0.12,0.15,0.15
				c0.07,0.07,0.13,0.1,0.2,0.1h3.55c0.1,0,0.18-0.03,0.25-0.1c0.03-0.03,0.03-0.08,0-0.15c0-0.07-0.02-0.13-0.05-0.2
				c-0.07-0.03-0.15-0.05-0.25-0.05H26.7c-0.07,0-0.13,0.02-0.2,0.05C26.43,4.97,26.4,5.03,26.4,5.1z"/>
			
				<radialGradient id="SVGID_10_" cx="-1084.1543" cy="3.1499" r="1.7875" gradientTransform="matrix(1 0 0.1189 0.8392 1110.8804 0.5068)" gradientUnits="userSpaceOnUse">
				<stop  offset="0" style="stop-color:#FFFFFF"/>
				<stop  offset="1" style="stop-color:#F6F6F6;stop-opacity:0"/>
			</radialGradient>
			<path fill-rule="evenodd" clip-rule="evenodd" fill="url(#SVGID_10_)" d="M26.5,3.1c0.07,0.07,0.15,0.1,0.25,0.1h3.55
				c0.1,0,0.17-0.03,0.2-0.1c0.03-0.03,0.05-0.08,0.05-0.15c0-0.07-0.03-0.13-0.1-0.2C30.38,2.72,30.3,2.7,30.2,2.7h-3.55
				c-0.1,0-0.17,0.02-0.2,0.05c-0.03,0.07-0.05,0.13-0.05,0.2C26.4,3.02,26.43,3.07,26.5,3.1z"/>
			
				<radialGradient id="SVGID_11_" cx="-1083.6221" cy="0.7998" r="1.7875" gradientTransform="matrix(1 0 0.1189 0.8392 1110.8267 0.1289)" gradientUnits="userSpaceOnUse">
				<stop  offset="0" style="stop-color:#FFFFFF"/>
				<stop  offset="1" style="stop-color:#F6F6F6;stop-opacity:0"/>
			</radialGradient>
			<path fill-rule="evenodd" clip-rule="evenodd" fill="url(#SVGID_11_)" d="M26.75,0.75c0.03,0.07,0.1,0.1,0.2,0.1h3.55
				c0.07,0,0.15-0.03,0.25-0.1c0.03-0.03,0.03-0.08,0-0.15c0-0.07-0.02-0.13-0.05-0.2c-0.1-0.03-0.18-0.05-0.25-0.05H26.9
				c-0.1,0-0.17,0.02-0.2,0.05c-0.07,0.07-0.1,0.13-0.1,0.2C26.63,0.67,26.68,0.72,26.75,0.75z"/>
			
				<radialGradient id="SVGID_12_" cx="-1083.21" cy="-1.3999" r="1.7875" gradientTransform="matrix(1 0 0.1189 0.8392 1110.7769 -0.2251)" gradientUnits="userSpaceOnUse">
				<stop  offset="0" style="stop-color:#FFFFFF"/>
				<stop  offset="1" style="stop-color:#F6F6F6;stop-opacity:0"/>
			</radialGradient>
			<path fill-rule="evenodd" clip-rule="evenodd" fill="url(#SVGID_12_)" d="M30.75-1.8c-0.07-0.03-0.15-0.05-0.25-0.05h-3.55
				c-0.1,0-0.17,0.02-0.2,0.05c-0.03,0.07-0.05,0.13-0.05,0.2c0,0.07,0.03,0.12,0.1,0.15c0.07,0.07,0.15,0.1,0.25,0.1h3.55
				c0.1,0,0.17-0.03,0.2-0.1c0.03-0.03,0.05-0.08,0.05-0.15C30.85-1.67,30.82-1.73,30.75-1.8z"/>
			
				<radialGradient id="SVGID_13_" cx="-1082.6504" cy="-5.7002" r="1.7875" gradientTransform="matrix(1 0 0.1189 0.8392 1110.6787 -0.917)" gradientUnits="userSpaceOnUse">
				<stop  offset="0" style="stop-color:#FFFFFF"/>
				<stop  offset="1" style="stop-color:#F6F6F6;stop-opacity:0"/>
			</radialGradient>
			<path fill-rule="evenodd" clip-rule="evenodd" fill="url(#SVGID_13_)" d="M30.75-6.1c-0.1-0.03-0.18-0.05-0.25-0.05h-3.55
				c-0.1,0-0.17,0.02-0.2,0.05c-0.07,0.07-0.08,0.13-0.05,0.2c0,0.07,0.03,0.12,0.1,0.15c0.03,0.07,0.1,0.1,0.2,0.1h3.55
				c0.07,0,0.15-0.03,0.25-0.1c0.03-0.03,0.05-0.08,0.05-0.15C30.82-5.97,30.78-6.03,30.75-6.1z"/>
			
				<radialGradient id="SVGID_14_" cx="-1083.041" cy="-3.6499" r="1.7875" gradientTransform="matrix(1 0 0.1189 0.8392 1110.7256 -0.5869)" gradientUnits="userSpaceOnUse">
				<stop  offset="0" style="stop-color:#FFFFFF"/>
				<stop  offset="1" style="stop-color:#F6F6F6;stop-opacity:0"/>
			</radialGradient>
			<path fill-rule="evenodd" clip-rule="evenodd" fill="url(#SVGID_14_)" d="M30.45-3.6c0.07,0,0.15-0.03,0.25-0.1
				c0.03-0.03,0.05-0.08,0.05-0.15c-0.03-0.07-0.07-0.13-0.1-0.2c-0.1-0.03-0.18-0.05-0.25-0.05h-3.6c-0.07,0-0.12,0.02-0.15,0.05
				c-0.1,0.07-0.13,0.13-0.1,0.2c0,0.07,0.05,0.12,0.15,0.15c0.03,0.07,0.08,0.1,0.15,0.1H30.45z"/>
			
				<radialGradient id="SVGID_15_" cx="-1082.3066" cy="-10.25" r="1.7875" gradientTransform="matrix(1 0 0.1189 0.8392 1110.5752 -1.6484)" gradientUnits="userSpaceOnUse">
				<stop  offset="0" style="stop-color:#FFFFFF"/>
				<stop  offset="1" style="stop-color:#F6F6F6;stop-opacity:0"/>
			</radialGradient>
			<path fill-rule="evenodd" clip-rule="evenodd" fill="url(#SVGID_15_)" d="M30.55-10.45c-0.03-0.07-0.07-0.13-0.1-0.2
				c-0.07-0.03-0.15-0.05-0.25-0.05h-3.55c-0.07,0-0.13,0.02-0.2,0.05c-0.07,0.07-0.08,0.13-0.05,0.2c0,0.07,0.03,0.12,0.1,0.15
				c0.07,0.07,0.13,0.1,0.2,0.1h3.55c0.1,0,0.18-0.03,0.25-0.1C30.53-10.33,30.55-10.38,30.55-10.45z"/>
			
				<radialGradient id="SVGID_16_" cx="-1082.3184" cy="-8.0498" r="1.7875" gradientTransform="matrix(1 0 0.1189 0.8392 1110.625 -1.2949)" gradientUnits="userSpaceOnUse">
				<stop  offset="0" style="stop-color:#FFFFFF"/>
				<stop  offset="1" style="stop-color:#F6F6F6;stop-opacity:0"/>
			</radialGradient>
			<path fill-rule="evenodd" clip-rule="evenodd" fill="url(#SVGID_16_)" d="M30.8-8.1c0.03-0.03,0.05-0.08,0.05-0.15
				s-0.03-0.13-0.1-0.2C30.68-8.48,30.6-8.5,30.5-8.5h-3.55c-0.07,0-0.13,0.02-0.2,0.05c-0.03,0.07-0.05,0.13-0.05,0.2
				s0.03,0.12,0.1,0.15C26.9-8.03,26.98-8,27.05-8h3.55C30.7-8,30.77-8.03,30.8-8.1z"/>
			
				<radialGradient id="SVGID_17_" cx="-1082.3662" cy="-12.2998" r="1.7875" gradientTransform="matrix(1 0 0.1189 0.8392 1110.5283 -1.978)" gradientUnits="userSpaceOnUse">
				<stop  offset="0" style="stop-color:#FFFFFF"/>
				<stop  offset="1" style="stop-color:#F6F6F6;stop-opacity:0"/>
			</radialGradient>
			<path fill-rule="evenodd" clip-rule="evenodd" fill="url(#SVGID_17_)" d="M26.15-12.35c0.03,0.07,0.1,0.1,0.2,0.1h3.55
				c0.07,0,0.15-0.03,0.25-0.1c0.03-0.03,0.05-0.08,0.05-0.15c-0.03-0.07-0.07-0.13-0.1-0.2c-0.1-0.03-0.18-0.05-0.25-0.05H26.3
				c-0.1,0-0.17,0.02-0.2,0.05c-0.07,0.07-0.08,0.13-0.05,0.2C26.05-12.43,26.08-12.38,26.15-12.35z"/>
			
				<radialGradient id="SVGID_18_" cx="-1082.3613" cy="-14.4502" r="1.7875" gradientTransform="matrix(1 0 0.1189 0.8392 1110.4795 -2.3242)" gradientUnits="userSpaceOnUse">
				<stop  offset="0" style="stop-color:#FFFFFF"/>
				<stop  offset="1" style="stop-color:#F6F6F6;stop-opacity:0"/>
			</radialGradient>
			<path fill-rule="evenodd" clip-rule="evenodd" fill="url(#SVGID_18_)" d="M29.8-14.85c-0.1-0.03-0.18-0.05-0.25-0.05H26
				c-0.1,0-0.17,0.02-0.2,0.05c-0.07,0.07-0.08,0.13-0.05,0.2c0,0.07,0.03,0.12,0.1,0.15c0.03,0.07,0.1,0.1,0.2,0.1h3.55
				c0.07,0,0.15-0.03,0.25-0.1c0.03-0.03,0.05-0.08,0.05-0.15C29.87-14.72,29.83-14.78,29.8-14.85z"/>
			
				<radialGradient id="SVGID_19_" cx="-1082.6572" cy="-16.9502" r="1.7875" gradientTransform="matrix(1 0 0.1189 0.8392 1110.4224 -2.7261)" gradientUnits="userSpaceOnUse">
				<stop  offset="0" style="stop-color:#FFFFFF"/>
				<stop  offset="1" style="stop-color:#F6F6F6;stop-opacity:0"/>
			</radialGradient>
			<path fill-rule="evenodd" clip-rule="evenodd" fill="url(#SVGID_19_)" d="M29.2-17.15c0-0.07-0.02-0.13-0.05-0.2
				c-0.1-0.03-0.18-0.05-0.25-0.05h-3.55c-0.1,0-0.17,0.02-0.2,0.05c-0.07,0.07-0.1,0.13-0.1,0.2c0.03,0.07,0.08,0.12,0.15,0.15
				c0.03,0.07,0.1,0.1,0.2,0.1h3.55c0.07,0,0.15-0.03,0.25-0.1C29.23-17.03,29.23-17.08,29.2-17.15z"/>
			
				<radialGradient id="SVGID_20_" cx="-1082.8672" cy="-19" r="1.7875" gradientTransform="matrix(1 0 0.1189 0.8392 1110.3755 -3.0562)" gradientUnits="userSpaceOnUse">
				<stop  offset="0" style="stop-color:#FFFFFF"/>
				<stop  offset="1" style="stop-color:#F6F6F6;stop-opacity:0"/>
			</radialGradient>
			<path fill-rule="evenodd" clip-rule="evenodd" fill="url(#SVGID_20_)" d="M24.75-19.05c0.03,0.07,0.08,0.1,0.15,0.1h3.6
				c0.07,0,0.13-0.03,0.2-0.1c0.03-0.03,0.03-0.08,0-0.15c0-0.07-0.02-0.13-0.05-0.2c-0.07-0.03-0.13-0.05-0.2-0.05h-3.6
				c-0.07,0-0.12,0.02-0.15,0.05c-0.1,0.07-0.15,0.13-0.15,0.2C24.58-19.13,24.65-19.08,24.75-19.05z"/>
			
				<radialGradient id="SVGID_21_" cx="-1083.4551" cy="-21.2002" r="1.7875" gradientTransform="matrix(1 0 0.1189 0.8392 1110.3257 -3.4097)" gradientUnits="userSpaceOnUse">
				<stop  offset="0" style="stop-color:#FFFFFF"/>
				<stop  offset="1" style="stop-color:#F6F6F6;stop-opacity:0"/>
			</radialGradient>
			<path fill-rule="evenodd" clip-rule="evenodd" fill="url(#SVGID_21_)" d="M23.85-21.25c0.03,0.07,0.08,0.1,0.15,0.1h3.6
				c0.07,0,0.13-0.03,0.2-0.1c0.03-0.03,0.05-0.08,0.05-0.15c0-0.07-0.03-0.13-0.1-0.2c-0.1-0.03-0.18-0.05-0.25-0.05h-3.6
				c-0.07,0-0.1,0.02-0.1,0.05c-0.1,0.07-0.15,0.13-0.15,0.2C23.65-21.33,23.72-21.28,23.85-21.25z"/>
		</g>
	</g>
	<g id="Layer_4_1_">
		<g>
			
				<linearGradient id="SVGID_22_" gradientUnits="userSpaceOnUse" x1="-22.9116" y1="-16921.8594" x2="28.5336" y2="-16921.8594" gradientTransform="matrix(-0.1779 -0.9841 1.0136 -0.0142 17184.6738 -235.4526)">
				<stop  offset="0" style="stop-color:#363535"/>
				<stop  offset="0.1765" style="stop-color:#FFFFFF"/>
				<stop  offset="0.1961" style="stop-color:#FDFDFD;stop-opacity:0.9725"/>
				<stop  offset="0.302" style="stop-color:#BEBEBE;stop-opacity:0.298"/>
				<stop  offset="0.5412" style="stop-color:#D1D0D0;stop-opacity:0"/>
				<stop  offset="0.5882" style="stop-color:#5C5B5B;stop-opacity:0"/>
				<stop  offset="1" style="stop-color:#1F1D1E"/>
			</linearGradient>
			<path fill-rule="evenodd" clip-rule="evenodd" fill="url(#SVGID_22_)" d="M22.4,23.55h7c0.03-0.09,0.05-0.19,0.05-0.27v0.27h8.45
				c0.5-0.13,0.87-0.38,1.1-0.75h-0.1c0.9-1.4,1.6-3.2,2.1-5.4c0.6-3.37,1-7.25,1.2-11.65V5.7c0.1-1.7,0.15-3.47,0.15-5.3
				c-0.03-2.07-0.05-4.05-0.05-5.95c0-0.03-0.02-0.07-0.05-0.1c-0.17-4.13-0.52-7.85-1.05-11.15c-0.67-4.3-1.5-6.7-2.5-7.2h-0.4
				c-0.1,0-0.17,0-0.2,0h-9.15v0.35c0-0.1-0.04-0.22-0.1-0.35H23.5c0.13,0.5,0.63,3.23,1.5,8.2c0.9,4.97,1.05,12.37,0.45,22.2
				C25.62,14.1,24.6,19.82,22.4,23.55z"/>
		</g>
	</g>
	<g id="Layer_10_1_">
		<g>
			<path fill-rule="evenodd" clip-rule="evenodd" fill="#171715" d="M19.9,16.75c0.37,2.8,0.78,4.78,1.25,5.95
				c0.1,0.23,0.2,0.43,0.3,0.6c0.27,0.43,0.65,0.6,1.15,0.5l0.2-0.05c0-0.03,0.02-0.07,0.05-0.1s0.08-0.08,0.15-0.15
				c0.67-0.87,1.28-2.98,1.85-6.35c0.53-3.33,0.9-7.18,1.1-11.55V5.55c0.1-1.67,0.17-3.42,0.2-5.25c0-2.07,0-4.03,0-5.9
				c0-0.03-0.02-0.07-0.05-0.1c-0.1-4.13-0.35-7.82-0.75-11.05C24.72-21.52,23.93-23.93,23-24c-0.03,0-0.07,0-0.1,0
				c-0.13,0-0.27,0.05-0.4,0.15c-0.2,0.17-0.38,0.43-0.55,0.8c-0.57,1.1-1.08,3.07-1.55,5.9c-0.13,1.03-0.27,2.1-0.4,3.2
				c-0.5,3.93-0.8,8.48-0.9,13.65c-0.07,5.33,0.1,10.07,0.5,14.2C19.67,14.9,19.77,15.85,19.9,16.75z"/>
		</g>
	</g>
	<g id="Layer_3_1_">
		<g>
			<g>
				
					<linearGradient id="SVGID_23_" gradientUnits="userSpaceOnUse" x1="-463.5479" y1="0.0264" x2="-438.5229" y2="0.0264" gradientTransform="matrix(1 0 0.0588 1 461.2354 0)">
					<stop  offset="0" style="stop-color:#878B8C"/>
					<stop  offset="0.0706" style="stop-color:#9AA2AD"/>
					<stop  offset="0.1765" style="stop-color:#FFFFFF"/>
					<stop  offset="0.298" style="stop-color:#828692"/>
					<stop  offset="0.3686" style="stop-color:#797BCE"/>
					<stop  offset="0.5216" style="stop-color:#282E57"/>
					<stop  offset="0.5961" style="stop-color:#7E808C"/>
					<stop  offset="0.6627" style="stop-color:#6A6D77"/>
					<stop  offset="0.7686" style="stop-color:#242528"/>
					<stop  offset="0.8667" style="stop-color:#585B64"/>
					<stop  offset="0.9804" style="stop-color:#383745"/>
				</linearGradient>
				<path fill-rule="evenodd" clip-rule="evenodd" fill="url(#SVGID_23_)" d="M19.15,13.6v-0.05c0.27-0.4,0.48-1.62,0.65-3.65
					c0.1-1,0.2-2.08,0.3-3.25c0.03-1.1,0.07-2.23,0.1-3.4c0-0.6,0.02-1.22,0.05-1.85V0.25c0-1.2-0.02-2.32-0.05-3.35v-0.1
					c-0.03-1.07-0.07-2.12-0.1-3.15v-0.1c-0.07-1.07-0.15-2.07-0.25-3c-0.2-2.37-0.45-3.73-0.75-4.1h-0.3h-0.05
					c-0.07,0.1-0.12,0.22-0.15,0.35c-0.03,0.1-0.1,0.33-0.2,0.7c-0.13,0.4-0.27,2.85-0.4,7.35s-0.12,8.43,0.05,11.8
					c0.13,3.37,0.28,5.37,0.45,6C18.63,13.32,18.85,13.63,19.15,13.6z M19-9.6c-0.03,0-0.05,0.02-0.05,0.05V-9.6H19z"/>
				
					<linearGradient id="SVGID_24_" gradientUnits="userSpaceOnUse" x1="-12.4043" y1="-16446.7598" x2="13.39" y2="-16446.7598" gradientTransform="matrix(-0.1056 -0.9944 1.0051 -5.017111e-003 16551.4004 -82.2222)">
					<stop  offset="0" style="stop-color:#878B8C"/>
					<stop  offset="0.0706" style="stop-color:#9AA2AD"/>
					<stop  offset="0.1765" style="stop-color:#FFFFFF"/>
					<stop  offset="0.298" style="stop-color:#828692"/>
					<stop  offset="0.3686" style="stop-color:#797BCE"/>
					<stop  offset="0.5216" style="stop-color:#282E57"/>
					<stop  offset="0.5961" style="stop-color:#7E808C"/>
					<stop  offset="0.6627" style="stop-color:#6A6D77"/>
					<stop  offset="0.7686" style="stop-color:#242528"/>
					<stop  offset="0.8667" style="stop-color:#585B64"/>
					<stop  offset="0.9804" style="stop-color:#383745"/>
				</linearGradient>
				<path fill-rule="evenodd" clip-rule="evenodd" fill="url(#SVGID_24_)" d="M19.15,13.6h3.05c0.27-0.5,0.48-1.77,0.65-3.8
					c0.1-1,0.2-2.08,0.3-3.25c0.03-1.07,0.07-2.22,0.1-3.45c0-0.57,0.02-1.17,0.05-1.8V0.15c0-1.23-0.02-2.37-0.05-3.4V-3.3
					c-0.03-1.13-0.07-2.22-0.1-3.25v-0.1C23.08-7.72,23-8.73,22.9-9.7c-0.17-1.97-0.37-3.22-0.6-3.75c-0.1-0.1-0.18-0.15-0.25-0.15
					H18.8v0.05h0.3c0.3,0.37,0.55,1.73,0.75,4.1c0.1,0.93,0.18,1.93,0.25,3v0.1c0.03,1.03,0.07,2.08,0.1,3.15v0.1
					c0.03,1.03,0.05,2.15,0.05,3.35V1.4c-0.03,0.63-0.05,1.25-0.05,1.85c-0.03,1.17-0.07,2.3-0.1,3.4C20,7.82,19.9,8.9,19.8,9.9
					c-0.17,2.03-0.38,3.25-0.65,3.65V13.6z"/>
			</g>
			<g>
				
					<linearGradient id="SVGID_25_" gradientUnits="userSpaceOnUse" x1="-201.0083" y1="-17289.5996" x2="-189.5234" y2="-17289.5996" gradientTransform="matrix(-0.2307 -0.973 1.0272 -2.104986e-003 17705.9785 -227.1138)">
					<stop  offset="0" style="stop-color:#878B8C"/>
					<stop  offset="0.0706" style="stop-color:#9AA2AD"/>
					<stop  offset="0.1765" style="stop-color:#FFFFFF"/>
					<stop  offset="0.298" style="stop-color:#828692"/>
					<stop  offset="0.3686" style="stop-color:#797BCE"/>
					<stop  offset="0.5216" style="stop-color:#282E57"/>
					<stop  offset="0.5961" style="stop-color:#7E808C"/>
					<stop  offset="0.6627" style="stop-color:#6A6D77"/>
					<stop  offset="0.7686" style="stop-color:#242528"/>
					<stop  offset="0.8667" style="stop-color:#585B64"/>
					<stop  offset="0.9804" style="stop-color:#383745"/>
				</linearGradient>
				<path fill-rule="evenodd" clip-rule="evenodd" fill="url(#SVGID_25_)" d="M18.15-6.55H-37V5l56.15,0.1
					C19.12,1.7,18.78-2.18,18.15-6.55z"/>
			</g>
		</g>
	</g>
	<g id="Layer_1_2_">
		<g>
			
				<path fill-rule="evenodd" clip-rule="evenodd" fill="none" stroke="#000000" stroke-width="0.1" stroke-linecap="round" stroke-linejoin="round" stroke-miterlimit="3" stroke-opacity="0.4314" d="
				M1.55,3.25C1.58,3.12,1.65,3,1.75,2.9c0.67-1.1,1.03-2.43,1.1-4c0.03-1.27-0.13-2.38-0.5-3.35 M7.25,3.25
				C7.28,3.12,7.35,3,7.45,2.9c0.7-1.1,1.07-2.43,1.1-4c0.03-1.27-0.13-2.38-0.5-3.35 M4.5,3.25C4.53,3.12,4.6,3,4.7,2.9
				c0.7-1.1,1.07-2.43,1.1-4c0.03-1.27-0.13-2.38-0.5-3.35 M12.8,3.25C12.83,3.12,12.9,3,13,2.9c0.7-1.1,1.07-2.43,1.1-4
				c0.03-1.27-0.13-2.38-0.5-3.35 M10.05,3.25c0.03-0.13,0.1-0.25,0.2-0.35c0.67-1.1,1.02-2.43,1.05-4c0.07-1.27-0.1-2.38-0.5-3.35
				 M15.75,3.25c0.03-0.13,0.1-0.25,0.2-0.35c0.7-1.1,1.07-2.43,1.1-4c0.03-1.27-0.13-2.38-0.5-3.35 M-9.85,3.25
				C-9.82,3.12-9.73,3-9.6,2.9c0.67-1.1,1.02-2.43,1.05-4c0.03-1.27-0.13-2.38-0.5-3.35 M-12.6,3.25c0.03-0.13,0.1-0.25,0.2-0.35
				c0.7-1.1,1.07-2.43,1.1-4c0.03-1.27-0.13-2.38-0.5-3.35 M-6.85,3.25C-6.82,3.12-6.75,3-6.65,2.9c0.67-1.1,1.03-2.43,1.1-4
				c0.03-1.27-0.13-2.38-0.5-3.35 M-4.1,3.25C-4.07,3.12-4,3-3.9,2.9c0.7-1.1,1.07-2.43,1.1-4c0.03-1.27-0.13-2.38-0.5-3.35
				 M-1.25,3.25C-1.22,3.12-1.15,3-1.05,2.9c0.7-1.1,1.07-2.43,1.1-4c0.03-1.27-0.13-2.38-0.5-3.35"/>
		</g>
	</g>
	<g id="Layer_9_1_">
		<g>
			<path fill-rule="evenodd" clip-rule="evenodd" fill="none" d="M16.15,4.6c0.03-0.2,0.1-0.37,0.2-0.5c0.7-1.5,1.07-3.32,1.1-5.45
				c0.03-1.73-0.13-3.27-0.5-4.6 M10.45,4.6c0.03-0.2,0.1-0.37,0.2-0.5c0.67-1.5,1.02-3.32,1.05-5.45c0.07-1.73-0.1-3.27-0.5-4.6
				 M13.2,4.6c0.03-0.2,0.1-0.37,0.2-0.5c0.7-1.5,1.07-3.32,1.1-5.45c0.03-1.73-0.13-3.27-0.5-4.6 M4.9,4.6C4.93,4.4,5,4.23,5.1,4.1
				c0.7-1.5,1.07-3.32,1.1-5.45c0.03-1.73-0.13-3.27-0.5-4.6 M7.65,4.6c0.03-0.2,0.1-0.37,0.2-0.5c0.7-1.5,1.07-3.32,1.1-5.45
				c0.03-1.73-0.13-3.27-0.5-4.6 M1.95,4.6c0.03-0.2,0.1-0.37,0.2-0.5c0.67-1.5,1.03-3.32,1.1-5.45c0.03-1.73-0.13-3.27-0.5-4.6
				 M-0.85,4.6c0.03-0.2,0.1-0.37,0.2-0.5c0.7-1.5,1.07-3.32,1.1-5.45c0.03-1.73-0.13-3.27-0.5-4.6 M-3.7,4.6
				c0.03-0.2,0.1-0.37,0.2-0.5c0.7-1.5,1.07-3.32,1.1-5.45c0.03-1.73-0.13-3.27-0.5-4.6 M-6.45,4.6c0.03-0.2,0.1-0.37,0.2-0.5
				c0.67-1.5,1.03-3.32,1.1-5.45c0.03-1.73-0.13-3.27-0.5-4.6 M-12.2,4.6c0.03-0.2,0.1-0.37,0.2-0.5c0.7-1.5,1.07-3.32,1.1-5.45
				c0.03-1.73-0.13-3.27-0.5-4.6 M-9.45,4.6c0.03-0.2,0.12-0.37,0.25-0.5c0.67-1.5,1.02-3.32,1.05-5.45c0.03-1.73-0.13-3.27-0.5-4.6
				"/>
		</g>
	</g>
	<g id="Layer_2_2_">
	</g>
</symbol>
<g>
	<linearGradient id="SVGID_26_" gradientUnits="userSpaceOnUse" x1="351.3994" y1="596.4375" x2="351.3994" y2="332.4625">
		<stop  offset="0.051" style="stop-color:#294619"/>
		<stop  offset="0.098" style="stop-color:#3E622B"/>
		<stop  offset="1" style="stop-color:#3E622B"/>
	</linearGradient>
	<rect x="-16.05" y="-3.3" fill-rule="evenodd" clip-rule="evenodd" fill="url(#SVGID_26_)" width="734.9" height="588.1"/>
</g>
<g>
	<g>
		<rect x="-82.8" y="680" fill-rule="evenodd" clip-rule="evenodd" width="900.55" height="42.2"/>
		
			<polyline fill-rule="evenodd" clip-rule="evenodd" fill="none" stroke="#FFFFFF" stroke-linecap="round" stroke-linejoin="round" stroke-miterlimit="3" stroke-opacity="0.2471" points="
			-82.8,722.2 -82.8,680 817.75,680 817.75,722.2 		"/>
	</g>
	<g>
		
			<radialGradient id="SVGID_27_" cx="190.7002" cy="601.9004" r="385.675" gradientTransform="matrix(1 0 0 1.3902 0 -234.8765)" gradientUnits="userSpaceOnUse">
			<stop  offset="0" style="stop-color:#595B5D"/>
			<stop  offset="0.3882" style="stop-color:#4E5152"/>
			<stop  offset="1" style="stop-color:#1F2525"/>
		</radialGradient>
		<polygon fill-rule="evenodd" clip-rule="evenodd" fill="url(#SVGID_27_)" points="817.3,685.05 -84.9,685.05 -84.9,668.05 
			-38.55,584.8 742.35,584.8 817.15,668.95 		"/>
	</g>
	<g>
		<polygon fill-rule="evenodd" clip-rule="evenodd" fill="#222727" points="817.3,691.2 -85.55,691.2 -85.55,675.35 815.9,675.35 
			817.15,676.55 		"/>
	</g>
	<g>
		
			<line fill-rule="evenodd" clip-rule="evenodd" fill="none" stroke="#FFFFFF" stroke-width="0.1" stroke-linecap="round" stroke-linejoin="round" stroke-miterlimit="3" stroke-opacity="0.2471" x1="-85" y1="675.15" x2="810.65" y2="675.15"/>
	</g>
</g>
<g>
	<g>
		<path fill-rule="evenodd" clip-rule="evenodd" fill-opacity="0.2471" d="M454.02,613.8c-0.06,0.06-0.11,0.17-0.17,0.33
			c-0.84,0.62-1.12,1.4-0.84,2.35c0.17,1.06,0.81,2.07,1.93,3.03c0.11,0.06,0.25,0.08,0.42,0.08c1.34,1.01,2.75,1.46,4.2,1.35
			c1.63,0.11,2.86-0.22,3.7-1.01c0.95-0.9,1.29-1.91,1.01-3.03c-0.22-1.18-0.95-2.1-2.19-2.77c-1.4-1.01-2.91-1.54-4.54-1.6
			C456.15,612.54,454.97,612.96,454.02,613.8z M426.54,606.07c0.5,0.06,0.9,0.2,1.18,0.42c1.51,0.39,3,1.21,4.45,2.44
			c0.62,0.56,1.21,1.01,1.76,1.35c0.95,0.56,2.1,1.01,3.45,1.34l1.68,0.5h0.08c0.28,0,0.59,0.08,0.92,0.25
			c0.28,0.11,1.71,0.31,4.29,0.59c0.56,0.11,1.18,0.17,1.85,0.17c1.12,0.17,2.07,0.34,2.86,0.5c0-0.22,0.06-0.39,0.17-0.5
			c0.06-0.06,0.06-0.11,0-0.17c0.17-0.22,0.31-0.36,0.42-0.42c0.06-0.11,0.08-0.25,0.08-0.42c0.34-0.28,0.59-0.5,0.76-0.67
			c0.73-0.62,1.51-1.09,2.35-1.43c1.29-0.39,2.72-0.59,4.29-0.59c2.8,0.11,5.38,0.95,7.73,2.52c2.24,1.51,3.59,3.22,4.03,5.13
			c0.5,2.07-0.11,3.87-1.85,5.38c-1.57,1.29-3.75,1.9-6.56,1.85c-1.63,0-3.19-0.28-4.71-0.84c-0.45-0.17-0.92-0.42-1.43-0.76
			c-0.56-0.17-1.06-0.42-1.51-0.76c-0.06-0.06-0.17-0.14-0.34-0.25c-0.78-0.56-1.51-1.18-2.19-1.85c-8.4,0.17-13.31,1.29-14.71,3.36
			c-0.95,1.51-2.6,2.61-4.96,3.28l-18.83-0.59l0.08,1.51l-57.07-1.68l0.17,4.96c-3.98,2.02-8.29,2.18-12.94,0.5l-0.34-5.88
			l-11.77-0.33v5.29l-17.9,5.29l0.84,19.92L30.1,653.13l3.19-70.68l230.62-2.61l40.85,8.83l1.85,7.06v1.18l23.45,4.79v2.61
			l10.59,0.42l-0.17-4.2c3.47-1.23,7.76-1.06,12.86,0.5l0.25,4.03l58.24,1.68v-1.51l11.01,0.34v-0.17c0.56,0,1.21,0.06,1.93,0.17
			l1.18,0.08C426.12,605.7,426.31,605.84,426.54,606.07z"/>
	</g>
	<g>
		
			<linearGradient id="SVGID_28_" gradientUnits="userSpaceOnUse" x1="-0.6499" y1="71.4502" x2="-0.6499" y2="73.4502" gradientTransform="matrix(1.6809 0 0 1.6809 146.25 531.1003)">
			<stop  offset="0" style="stop-color:#000000"/>
			<stop  offset="0.098" style="stop-color:#000000"/>
			<stop  offset="1" style="stop-color:#000000;stop-opacity:0"/>
		</linearGradient>
		<polygon fill-rule="evenodd" clip-rule="evenodd" fill="url(#SVGID_28_)" points="265.34,650.61 267.19,654.98 265.93,657.59 
			25.73,657.59 23.12,657.76 28,649.86 		"/>
	</g>
	<g>
		
			<linearGradient id="SVGID_29_" gradientUnits="userSpaceOnUse" x1="70.2998" y1="51.25" x2="72.2998" y2="51.25" gradientTransform="matrix(1.6809 0 0 1.6809 146.25 531.1003)">
			<stop  offset="0" style="stop-color:#000000"/>
			<stop  offset="0.098" style="stop-color:#000000"/>
			<stop  offset="1" style="stop-color:#000000;stop-opacity:0"/>
		</linearGradient>
		<polygon fill-rule="evenodd" clip-rule="evenodd" fill="url(#SVGID_29_)" points="263.83,577.58 270.8,577.58 268.37,656.92 
			264.75,650.02 263.83,651.79 		"/>
	</g>
	<g>
		
			<linearGradient id="SVGID_30_" gradientUnits="userSpaceOnUse" x1="65.6943" y1="-51.2002" x2="68.1943" y2="-51.2002" gradientTransform="matrix(-1.6809 0 0.097 -1.6809 146.2509 531.0989)">
			<stop  offset="0" style="stop-color:#000000"/>
			<stop  offset="0.098" style="stop-color:#000000"/>
			<stop  offset="1" style="stop-color:#000000;stop-opacity:0"/>
		</linearGradient>
		<polygon fill-rule="evenodd" clip-rule="evenodd" fill="url(#SVGID_30_)" points="33.8,577.58 29.6,651.7 28.59,649.94 
			23.63,656.75 25.06,577.58 		"/>
	</g>
	<g>
		
			<use xlink:href="#obj19"  width="79.35" height="47.83" x="-37" y="-24" transform="matrix(1.1761 0 -0.0738 -1.1761 290.3999 437.6504)" overflow="visible"/>
		
			<use xlink:href="#obj1"  width="38" height="21.85" x="-18.5" y="-10" transform="matrix(2.0956 0 0 -2.0956 262.5498 444.3496)" overflow="visible"/>
	</g>
	<g>
		<path fill-rule="evenodd" clip-rule="evenodd" d="M288.37,430.75c1.68,0,3.11,0.2,4.29,0.59c1.18,0.45,1.76,0.98,1.76,1.6
			c0,0.62-0.59,1.12-1.76,1.51c-1.18,0.45-2.61,0.67-4.29,0.67s-3.11-0.22-4.29-0.67c-1.18-0.39-1.76-0.9-1.76-1.51
			c0-0.62,0.59-1.15,1.76-1.6C285.26,430.95,286.69,430.75,288.37,430.75z"/>
	</g>
	<g>
		
			<linearGradient id="SVGID_31_" gradientUnits="userSpaceOnUse" x1="81.6748" y1="-61.6992" x2="87.3248" y2="-61.6992" gradientTransform="matrix(1.6809 0 0 1.6809 146.25 531.1003)">
			<stop  offset="0" style="stop-color:#666666"/>
			<stop  offset="0.2275" style="stop-color:#A3A3A3"/>
			<stop  offset="0.2745" style="stop-color:#FFFFFF"/>
			<stop  offset="0.3922" style="stop-color:#FFF7F7"/>
			<stop  offset="0.5569" style="stop-color:#878686"/>
			<stop  offset="0.7137" style="stop-color:#A39D9D"/>
			<stop  offset="1" style="stop-color:#000000"/>
		</linearGradient>
		<path fill-rule="evenodd" clip-rule="evenodd" fill="url(#SVGID_31_)" d="M283.58,238.96c0,0.5,0.45,0.95,1.34,1.34
			c0.95,0.39,2.07,0.59,3.36,0.59s2.38-0.2,3.28-0.59c0.95-0.39,1.43-0.84,1.43-1.34h0.08v193.22c-0.15,1.18-1.72,1.8-4.71,1.85
			c-2.53,0-4.15-0.45-4.87-1.34V238.96H283.58z M293.08,460.67v152.54c0,0.67-0.48,1.26-1.43,1.76c-0.95,0.56-2.07,0.84-3.36,0.84
			c-0.06,0-0.14,0-0.25,0c-1.29,0-2.41-0.28-3.36-0.84c-0.5-0.28-0.9-0.62-1.18-1.01c-0.11-0.28-0.17-0.56-0.17-0.84
			c0-0.28,0.06-0.56,0.17-0.84V463.57L293.08,460.67z"/>
		<path fill-rule="evenodd" clip-rule="evenodd" fill="#DCD6D6" d="M292.99,238.96c0,0.5-0.48,0.95-1.43,1.34
			c-0.9,0.39-1.99,0.59-3.28,0.59s-2.41-0.2-3.36-0.59c-0.9-0.39-1.34-0.84-1.34-1.34c0-0.56,0.45-1.04,1.34-1.43
			c0.95-0.39,2.07-0.59,3.36-0.59s2.38,0.2,3.28,0.59C292.52,237.92,292.99,238.4,292.99,238.96z"/>
	</g>
	<g>
		<g>
			
				<linearGradient id="SVGID_32_" gradientUnits="userSpaceOnUse" x1="24.6416" y1="87.8071" x2="-26.1289" y2="-59.4294" gradientTransform="matrix(1.6809 0 0 1.6809 146.25 531.1003)">
				<stop  offset="0" style="stop-color:#7B5B24"/>
				<stop  offset="1" style="stop-color:#C09542"/>
			</linearGradient>
			<polygon fill-rule="evenodd" clip-rule="evenodd" fill="url(#SVGID_32_)" points="255.84,587.41 255.84,464.96 264.58,464.96 
				264.58,651.7 27.75,651.7 27.75,464.96 36.57,464.96 36.57,643.47 36.57,644.81 255.84,644.81 			"/>
			
				<linearGradient id="SVGID_33_" gradientUnits="userSpaceOnUse" x1="2.064" y1="-19.8994" x2="2.6446" y2="94.1006" gradientTransform="matrix(1.6809 0 0 1.6809 146.25 531.1003)">
				<stop  offset="0" style="stop-color:#201104"/>
				<stop  offset="1" style="stop-color:#AD8539"/>
			</linearGradient>
			<polygon fill-rule="evenodd" clip-rule="evenodd" fill="url(#SVGID_33_)" points="255.84,464.96 255.84,587.41 43.88,587.41 
				43.88,464.96 43.88,464.87 255.84,464.87 			"/>
			
				<linearGradient id="SVGID_34_" gradientUnits="userSpaceOnUse" x1="-62.4346" y1="-23.9521" x2="-66.4526" y2="107.9004" gradientTransform="matrix(1.6809 0 0 1.6809 146.25 531.1003)">
				<stop  offset="0" style="stop-color:#040200"/>
				<stop  offset="1" style="stop-color:#AD8539"/>
			</linearGradient>
			<polygon fill-rule="evenodd" clip-rule="evenodd" fill="url(#SVGID_34_)" points="43.88,464.96 43.88,587.41 43.55,587.33 
				36.57,643.47 36.57,464.96 			"/>
			
				<linearGradient id="SVGID_35_" gradientUnits="userSpaceOnUse" x1="1.4092" y1="30.8896" x2="-0.1419" y2="70.2136" gradientTransform="matrix(1.6809 0 0 1.6809 146.25 531.1003)">
				<stop  offset="0" style="stop-color:#482D15"/>
				<stop  offset="1" style="stop-color:#AD8539"/>
			</linearGradient>
			<polygon fill-rule="evenodd" clip-rule="evenodd" fill="url(#SVGID_35_)" points="43.88,587.41 255.84,587.41 255.84,644.81 
				36.57,644.81 36.57,643.47 43.55,587.33 			"/>
		</g>
		<g>
			
				<radialGradient id="SVGID_36_" cx="-1.6001" cy="50.5498" r="35.1375" gradientTransform="matrix(1.6809 0 0 0.6123 146.25 585.1165)" gradientUnits="userSpaceOnUse">
				<stop  offset="0" style="stop-color:#43250C;stop-opacity:0"/>
				<stop  offset="0.7608" style="stop-color:#3C220C;stop-opacity:0"/>
				<stop  offset="1" style="stop-color:#271A0E"/>
			</radialGradient>
			<path fill-rule="evenodd" clip-rule="evenodd" fill="url(#SVGID_36_)" d="M196.09,614.14c0,0.56-0.39,1.65-1.18,3.28
				c-0.84,1.63-1.71,2.49-2.61,2.61c-4.15-8.24-6.28-10.76-6.39-7.56c0.84,3.64-0.45,4.96-3.87,3.95
				c-9.8-2.97-21.68-4.45-35.63-4.45c-14.01,0-25.66,1.71-34.96,5.13c-4.31,1.63-7.76,2.88-10.34,3.78c-0.9,0.28-1.9,0.42-3.02,0.42
				c-1.91-1.23-3.47-3.56-4.71-6.98v-13.2c33.45-18.04,67.8-18.04,103.04,0L196.09,614.14z"/>
		</g>
		<g>
			<polygon fill-rule="evenodd" clip-rule="evenodd" fill="#1F170A" points="191.3,601.45 197.43,623.38 92.63,623.38 96.08,601.45 
							"/>
		</g>
		<g>
			
				<linearGradient id="SVGID_37_" gradientUnits="userSpaceOnUse" x1="-29.0249" y1="4.1875" x2="27.6251" y2="4.1875" gradientTransform="matrix(1.6809 0 0 1.6809 146.25 531.1003)">
				<stop  offset="0" style="stop-color:#271A0E"/>
				<stop  offset="0.2941" style="stop-color:#291D12"/>
				<stop  offset="0.698" style="stop-color:#8A5122"/>
				<stop  offset="0.9294" style="stop-color:#5F3716"/>
				<stop  offset="1" style="stop-color:#43250C"/>
			</linearGradient>
			<path fill-rule="evenodd" clip-rule="evenodd" fill="url(#SVGID_37_)" d="M192.73,465.13v146.11c-0.01-0.56-0.09-1.08-0.25-1.55
				c-1.18-3.98-5.74-7.42-13.7-10.34c-9.3-3.42-20.54-5.13-33.7-5.13c-13.11,0-24.32,1.71-33.62,5.13
				c-7.96,2.91-12.49,6.36-13.61,10.34c-0.06,0.05-0.08,0.11-0.08,0.17V465.13v-0.08h94.97V465.13z"/>
			<polygon fill-rule="evenodd" clip-rule="evenodd" fill="#EC9F5B" points="97.76,609.85 97.76,611.7 192.73,611.7 192.73,611.24 
				192.73,465.13 196.42,465.13 196.42,620.94 93.39,620.94 93.39,465.13 97.76,465.13 			"/>
			
				<linearGradient id="SVGID_38_" gradientUnits="userSpaceOnUse" x1="-0.6372" y1="32.4165" x2="-0.5943" y2="50.3665" gradientTransform="matrix(1.6809 0 0 1.6809 146.25 531.1003)">
				<stop  offset="0" style="stop-color:#623917"/>
				<stop  offset="0.7922" style="stop-color:#7B481E"/>
				<stop  offset="0.8471" style="stop-color:#EC9F5B"/>
				<stop  offset="1" style="stop-color:#EC9F5B"/>
			</linearGradient>
			<path fill-rule="evenodd" clip-rule="evenodd" fill="url(#SVGID_38_)" d="M97.84,609.68h94.63c0.16,0.47,0.24,0.99,0.25,1.55
				v0.46H97.76v-1.85C97.76,609.79,97.79,609.74,97.84,609.68z"/>
			
				<linearGradient id="SVGID_39_" gradientUnits="userSpaceOnUse" x1="-16.4697" y1="23.4678" x2="10.8398" y2="63.2999" gradientTransform="matrix(1.6809 0 0 1.6809 146.25 531.1003)">
				<stop  offset="0" style="stop-color:#242626"/>
				<stop  offset="0.2941" style="stop-color:#5C422C"/>
				<stop  offset="0.6" style="stop-color:#9C704C"/>
				<stop  offset="1" style="stop-color:#5D4024"/>
			</linearGradient>
			<path fill-rule="evenodd" clip-rule="evenodd" fill="url(#SVGID_39_)" d="M192.47,609.68H97.84c1.12-3.98,5.66-7.42,13.61-10.34
				c9.3-3.42,20.51-5.13,33.62-5.13c13.17,0,24.4,1.71,33.7,5.13C186.73,602.26,191.3,605.7,192.47,609.68z"/>
		</g>
		<g>
			<g>
				<path fill-rule="evenodd" clip-rule="evenodd" fill="#0099FF" fill-opacity="0.0863" d="M98.51,518.41h93.54
					c0,0.11,0,0.22,0,0.33v93.12H98.18L98.51,519c-0.06-0.11-0.08-0.2-0.08-0.25C98.43,518.63,98.46,518.52,98.51,518.41z"/>
				<path fill-rule="evenodd" clip-rule="evenodd" fill="#BFE6FF" fill-opacity="0.302" d="M192.05,518.41H98.51
					c0.56-1.51,5.1-2.83,13.62-3.95c9.19-1.18,20.23-1.76,33.11-1.76c12.89,0,23.9,0.59,33.03,1.76
					C186.84,515.58,191.44,516.9,192.05,518.41z"/>
			</g>
			<g>
				<path fill-rule="evenodd" clip-rule="evenodd" fill="#FFFFFF" d="M158.69,517.99c0.39-0.17,0.64-0.11,0.76,0.17
					c0,0.06-0.03,0.11-0.08,0.17h0.08v0.08c-0.39,0.33-0.7,0.33-0.93,0c-0.11,0.06-0.25,0.03-0.42-0.08h-0.08l0.08,0.08v0.08
					c-0.45,0.39-0.81,0.42-1.09,0.08c-0.22,0-0.42-0.14-0.59-0.42c-0.06-0.06-0.03-0.08,0.08-0.08v-0.08c0.34-0.11,0.62-0.11,0.84,0
					c0.22-0.06,0.42-0.06,0.59,0h0.17C158.38,517.88,158.58,517.88,158.69,517.99z M154.91,518.41c-0.5,0.22-0.67,0.17-0.5-0.17
					v-0.08h0.08c0.22-0.06,0.36-0.03,0.42,0.08v0.08l0.08-0.08c0-0.06,0.03-0.08,0.08-0.08c0.28-0.06,0.42,0,0.42,0.17v0.08
					l-0.08,0.08v0.17C154.96,518.89,154.79,518.8,154.91,518.41z M161.13,518.07h0.08c0.45-0.06,0.81,0.03,1.09,0.25
					c-0.06,0.06-0.11,0.11-0.17,0.17c0.06,0,0.08,0.03,0.08,0.08c-0.5,0.39-0.87,0.42-1.09,0.08c-0.28,0.06-0.5-0.11-0.67-0.5
					c0-0.06,0.06-0.08,0.17-0.08C160.79,518.07,160.96,518.07,161.13,518.07z M162.64,518.33c0.17-0.06,0.34-0.06,0.5,0h0.08
					c0.28-0.11,0.48-0.06,0.59,0.17c-0.06,0.06-0.08,0.11-0.08,0.17v0.08c-0.28,0.34-0.53,0.31-0.76-0.08
					c-0.17,0.17-0.34,0.08-0.5-0.25C162.41,518.35,162.47,518.33,162.64,518.33z M148.35,518.41c0-0.06,0.06-0.08,0.17-0.08
					c0.28-0.11,0.48-0.14,0.59-0.08c0.39-0.11,0.67-0.03,0.84,0.25c-0.06,0.06-0.08,0.11-0.08,0.17v0.08
					c-0.39,0.34-0.67,0.34-0.84,0C148.74,518.8,148.52,518.69,148.35,518.41z M151.8,518.58c-0.06,0-0.08,0.03-0.08,0.08v0.08
					c0.06,0.06,0.06,0.08,0,0.08c-0.45,0.17-0.62,0.08-0.5-0.25c-0.45,0.22-0.62,0.14-0.5-0.25v-0.08h0.08
					c0.17,0,0.31,0.06,0.42,0.17l0.08-0.08c0-0.06,0.03-0.08,0.08-0.08c0.28,0,0.42,0.08,0.42,0.25V518.58z M173.31,518.75v0.08
					c-0.39,0.28-0.7,0.25-0.92-0.08c-0.22,0.06-0.42-0.03-0.59-0.25c0.06-0.06,0.11-0.11,0.17-0.17c0.17-0.11,0.39-0.14,0.67-0.08
					h0.08c0.11-0.06,0.28-0.06,0.5,0c0.17,0.06,0.22,0.14,0.17,0.25v0.08h-0.08C173.31,518.63,173.31,518.69,173.31,518.75z
					 M178.1,518.24c0.11-0.06,0.28-0.08,0.5-0.08c0.06,0,0.11,0,0.17,0v0.08c0.11-0.06,0.25-0.08,0.42-0.08c0.06,0,0.11,0,0.17,0
					c0.11,0.22,0.11,0.36,0,0.42c0.06,0.34-0.22,0.39-0.84,0.17v-0.08c-0.11,0-0.28-0.06-0.5-0.17h-0.08
					C177.99,518.38,178.05,518.3,178.1,518.24z M177.85,518.33c-0.06,0.06-0.08,0.11-0.08,0.17v0.08c-0.34,0.39-0.62,0.39-0.84,0
					c-0.22,0.11-0.42,0.03-0.59-0.25c-0.06-0.11-0.03-0.17,0.08-0.17c0.28-0.11,0.5-0.11,0.67,0
					C177.43,518.04,177.68,518.1,177.85,518.33z M166.25,518.16c0,0.06,0,0.11,0,0.17h-0.08
					C166.17,518.27,166.2,518.21,166.25,518.16z M167.51,518.33c0.22,0,0.36,0.06,0.42,0.17v0.08c0-0.06,0.03-0.11,0.08-0.17
					l0.08-0.08c0.28,0,0.42,0.08,0.42,0.25v0.08c-0.06,0-0.08,0.03-0.08,0.08v0.17c-0.45,0.22-0.62,0.14-0.5-0.25
					c-0.45,0.22-0.62,0.14-0.5-0.25L167.51,518.33z M169.61,518.33c0.22,0,0.36,0.06,0.42,0.17c0.06,0,0.08,0.03,0.08,0.08v0.08
					c0-0.06,0.03-0.14,0.08-0.25l0.08-0.08c0.22,0,0.36,0.08,0.42,0.25v0.08c-0.06,0-0.08,0.03-0.08,0.08v0.17
					c-0.45,0.22-0.62,0.14-0.5-0.25c-0.5,0.22-0.7,0.14-0.59-0.25L169.61,518.33z M189.36,518.66c0.06,0.11,0.03,0.22-0.08,0.33
					h-0.08c-0.28-0.11-0.31-0.22-0.08-0.33c-0.11-0.17-0.06-0.28,0.17-0.34C189.5,518.44,189.53,518.55,189.36,518.66z
					 M181.46,518.49c-0.06,0-0.08,0.03-0.08,0.08l0.08,0.08c0,0.06-0.03,0.08-0.08,0.08c-0.45,0.28-0.64,0.2-0.59-0.25
					c-0.45,0.28-0.62,0.2-0.5-0.25h0.08c0.22-0.06,0.39-0.03,0.5,0.08v-0.08h0.08c0.28-0.06,0.45,0,0.5,0.17V518.49z M182.47,518.33
					c0-0.11,0.06-0.17,0.17-0.17c0.22-0.06,0.39-0.06,0.5,0h0.08c0.28-0.11,0.48-0.06,0.59,0.17c0,0.06-0.03,0.11-0.08,0.17
					l0.08,0.08c-0.34,0.34-0.59,0.31-0.76-0.08C182.84,518.66,182.64,518.61,182.47,518.33z M185.92,517.99
					c0.06,0.06,0.11,0.11,0.17,0.17c0.06,0.06,0.03,0.14-0.08,0.25h-0.08c0.17,0.17,0.14,0.25-0.08,0.25
					c0.28,0.22,0.06,0.31-0.67,0.25h-0.08c0-0.11,0.03-0.2,0.08-0.25c-0.11,0-0.31,0-0.59,0c0-0.11,0.03-0.2,0.08-0.25
					c0.06-0.06,0.11-0.08,0.17-0.08c0.06,0,0.11,0,0.17,0c0.11,0,0.2,0.03,0.25,0.08c0.06-0.06,0.11-0.08,0.17-0.08
					c0.11,0,0.2,0,0.25,0h0.08c-0.11-0.11-0.11-0.22,0-0.34H185.92z M186.51,517.99c0.22,0.11,0.25,0.22,0.08,0.34
					c0.06,0.11,0.03,0.22-0.08,0.34h-0.08c-0.28-0.11-0.34-0.25-0.17-0.42c-0.06-0.11,0-0.2,0.17-0.25H186.51z M188.69,518.83
					c-0.28-0.17-0.34-0.31-0.17-0.42c0.06-0.06,0.11-0.08,0.17-0.08c0.11,0,0.17,0.03,0.17,0.08c0.06,0.11,0.03,0.22-0.08,0.33
					C188.72,518.75,188.69,518.77,188.69,518.83z M107.42,517.99c0.22-0.06,0.45-0.06,0.67,0c0.28,0.22,0.31,0.34,0.08,0.34
					c0.22,0.34-0.14,0.39-1.09,0.17H107c0.06-0.06,0.08-0.11,0.08-0.17c-0.11,0-0.31-0.03-0.59-0.08c0.06-0.11,0.14-0.17,0.25-0.17
					C106.86,517.96,107.09,517.93,107.42,517.99z M105.74,518.07c0.11-0.11,0.28-0.14,0.5-0.08c0.11,0.22,0.11,0.34,0,0.34
					c0.06,0.34-0.2,0.39-0.76,0.17v-0.08c-0.11,0-0.28-0.06-0.5-0.17h-0.08c0.06-0.06,0.14-0.11,0.25-0.17
					c0.11-0.11,0.28-0.14,0.5-0.08L105.74,518.07z M103.81,518.41l-0.08,0.08v0.17c-0.28,0.33-0.5,0.31-0.67-0.08
					c-0.22,0.11-0.42,0.03-0.59-0.25c0-0.06,0.06-0.08,0.17-0.08c0.22-0.06,0.39-0.06,0.5,0h0.08c0.28-0.11,0.48-0.08,0.59,0.08
					V518.41z M110.36,518.24c0.06,0,0.08,0.03,0.08,0.08c-0.45,0.39-0.84,0.39-1.18,0c-0.22,0.06-0.42-0.08-0.59-0.42
					c-0.11-0.06-0.08-0.11,0.08-0.17c0.22-0.06,0.45-0.06,0.67,0c0.5-0.06,0.87,0.06,1.09,0.34
					C110.48,518.13,110.42,518.19,110.36,518.24z M98.76,518.16c0.17,0.22,0.2,0.36,0.08,0.42c0.11,0.22-0.14,0.31-0.76,0.25v-0.08
					c0-0.06,0-0.11,0-0.17c-0.11,0.06-0.28,0.06-0.5,0l-0.08-0.08c0-0.06,0.03-0.11,0.08-0.17c0.11-0.11,0.28-0.17,0.5-0.17h0.08
					c0,0.06,0.03,0.08,0.08,0.08c0.11-0.06,0.25-0.08,0.42-0.08H98.76z M100.11,518.33c-0.06-0.06-0.06-0.08,0-0.08
					c0.06,0,0.11-0.03,0.17-0.08c0.22,0,0.42,0,0.59,0c0.5-0.06,0.92,0.06,1.26,0.34c-0.06,0.06-0.11,0.11-0.17,0.17l0.08,0.08
					c-0.5,0.34-0.93,0.34-1.26,0C100.5,518.75,100.28,518.61,100.11,518.33z M122.3,518.16c0.28,0,0.5,0.08,0.67,0.25
					c-0.06,0.06-0.11,0.11-0.17,0.17c0.06,0,0.08,0.03,0.08,0.08c-0.34,0.28-0.59,0.25-0.76-0.08c-0.28,0.11-0.45,0-0.5-0.34
					c-0.06-0.06-0.03-0.08,0.08-0.08c0.22,0,0.39,0.03,0.5,0.08C122.16,518.19,122.19,518.16,122.3,518.16z M121.63,518.49
					c-0.06,0-0.08,0.03-0.08,0.08v0.17c-0.45,0.22-0.62,0.14-0.5-0.25c-0.45,0.22-0.62,0.17-0.5-0.17v-0.08h0.08
					c0.17-0.06,0.28-0.03,0.34,0.08c0.06,0,0.08,0.03,0.08,0.08v0.08c0-0.06,0.03-0.11,0.08-0.17c0-0.06,0.03-0.08,0.08-0.08
					c0.22-0.06,0.36,0,0.42,0.17V518.49z M127.59,518.83c0-0.06,0.03-0.11,0.08-0.17c-0.17,0.06-0.36,0.03-0.59-0.08
					c0-0.11,0.03-0.2,0.08-0.25c0.17-0.11,0.39-0.14,0.67-0.08v0.08c0.17-0.11,0.36-0.14,0.59-0.08c0.11,0.17,0.11,0.31,0,0.42
					c0.06,0.28-0.2,0.33-0.76,0.17H127.59z M113.98,518.24c0.28-0.11,0.48-0.08,0.59,0.08v0.08l-0.08,0.08v0.17
					c-0.28,0.33-0.5,0.31-0.67-0.08c-0.22,0.11-0.42,0.03-0.59-0.25c0-0.06,0.06-0.08,0.17-0.08c0.22-0.06,0.39-0.06,0.5,0H113.98z
					 M115.74,518.49c0-0.11,0.06-0.17,0.17-0.17c0.17-0.06,0.31-0.06,0.42,0c0.06,0,0.11,0,0.17,0c0.34-0.06,0.56,0.03,0.67,0.25
					c-0.06,0.06-0.08,0.11-0.08,0.17v0.08c-0.34,0.34-0.59,0.31-0.76-0.08C116.11,518.86,115.91,518.77,115.74,518.49z
					 M118.52,518.24c0.17-0.06,0.34-0.03,0.5,0.08c0-0.06,0.03-0.08,0.08-0.08c0.28-0.06,0.5,0.03,0.67,0.25
					c-0.06,0.06-0.11,0.11-0.17,0.17c0.06,0,0.08,0.03,0.08,0.08h0.08c-0.39,0.28-0.64,0.25-0.76-0.08
					c-0.11,0.06-0.2,0.08-0.25,0.08v0.08c-0.34,0.34-0.62,0.34-0.84,0c-0.22,0.06-0.42-0.06-0.59-0.34
					c-0.06-0.06-0.03-0.11,0.08-0.17c0.28-0.06,0.48-0.06,0.59,0c0.17,0,0.31,0,0.42,0C118.38,518.27,118.4,518.24,118.52,518.24z
					 M139.36,518.66c-0.28,0.28-0.64,0.33-1.09,0.17v-0.17c-0.17,0.06-0.34,0.03-0.5-0.08l-0.08-0.08c0-0.06,0.03-0.11,0.08-0.17
					c0.11-0.06,0.22-0.08,0.34-0.08c0.06,0,0.11,0,0.17,0c0.17-0.06,0.34-0.06,0.5,0c0.06,0,0.11,0,0.17,0
					c0.22-0.06,0.39-0.03,0.5,0.08v0.08l-0.08,0.08V518.66z M136.75,518.07c0.22-0.11,0.39-0.08,0.5,0.08v0.08
					c0,0.06-0.03,0.08-0.08,0.08v0.08c-0.11,0.33-0.36,0.45-0.76,0.33l-0.08-0.08c0-0.06,0-0.11,0-0.17c-0.11,0.06-0.28,0.06-0.5,0
					c0-0.06-0.03-0.08-0.08-0.08c0-0.11,0.03-0.2,0.08-0.25h0.08c0.11-0.06,0.2-0.08,0.25-0.08c0.17-0.11,0.31-0.11,0.42,0
					C136.64,518.07,136.7,518.07,136.75,518.07z"/>
			</g>
			<g>
				<path fill-rule="evenodd" clip-rule="evenodd" fill="#FFFFFF" fill-opacity="0.251" d="M152.97,525.47
					c3.08,0.06,6.16,0.14,9.24,0.25l0.08,0.17c-3.31,2.58-6.44,2.47-9.41-0.33L152.97,525.47z M152.05,529.84
					c-2.47,0.78-5.46,0.76-8.99-0.08c0.06-0.11,0.14-0.17,0.25-0.17c1.12-0.22,2.24-0.37,3.36-0.42c1.68-0.11,3.36,0.06,5.04,0.5
					C151.83,529.67,151.94,529.73,152.05,529.84z M149.61,522.86c-1.51,0.95-2.94,0.64-4.29-0.93l0.42,0.25
					c1.23-0.17,2.46,0,3.7,0.5C149.5,522.75,149.56,522.81,149.61,522.86z M176.17,524.63c1.74,0.06,3.47,0.2,5.21,0.42
					c0.06,0,0.11,0.06,0.17,0.17c-3.92,1.06-7.9,1.21-11.93,0.42v-0.17C171.86,524.85,174.04,524.57,176.17,524.63z M172.81,522.28
					v0.17c-1.46,2.13-2.69,1.68-3.7-1.34l0.67,0.08C170.85,520.68,171.86,521.04,172.81,522.28z M187.26,523.37
					c-2.13,2.3-4.17,1.68-6.14-1.85l0.92,0.59c1.79-1.23,3.53-0.87,5.21,1.09V523.37z M105.07,524.13v0.17
					c-1.34,2.07-2.35,1.48-3.03-1.77l0.59,0.08C103.47,522.61,104.28,523.12,105.07,524.13z M118.6,523.37l-0.08,0.17
					c-3.31,1.51-6.56,1.51-9.75,0c2.52-1.29,5.01-1.6,7.48-0.92C117.03,522.39,117.81,522.64,118.6,523.37z M130.53,521.52
					l0.67,0.17c1.51-0.95,2.94-0.62,4.29,1.01v0.17C133.59,525.44,131.93,524.99,130.53,521.52z M129.52,526.06
					c2.86-0.45,5.83-0.81,8.91-1.09c-0.11,1.18-3.05,1.6-8.82,1.26L129.52,526.06z M142.8,522.44c-2.02,2.75-3.84,2.3-5.46-1.34
					l0.67,0.08c1.68-1.12,3.28-0.76,4.79,1.09V522.44z M118.1,529.84c0.39,1.06-1.29,1.99-5.04,2.77c-2.8,0.62-5.41-0.11-7.82-2.18
					C109.55,530.15,113.84,529.95,118.1,529.84z M143.22,535.22c0.06,0,0.08,0.06,0.08,0.17c-1.68,1.96-3,1.37-3.95-1.76h0.5
					C141.04,533.62,142.16,534.15,143.22,535.22z M135.49,533.45c-2.86,0.73-5.72,0.48-8.57-0.76c2.8-0.34,5.63-0.11,8.49,0.67
					C135.46,533.37,135.49,533.4,135.49,533.45z M133.9,551.52c1.85-0.17,3.73-0.06,5.63,0.34c0.06,0,0.11,0.03,0.17,0.08
					c-2.47,1.68-4.62,1.46-6.47-0.67L133.9,551.52z M131.29,541.94c2.97-0.56,6-0.7,9.08-0.42h0.08c-2.97,2.13-5.97,2.35-8.99,0.67
					C131.4,542.19,131.35,542.11,131.29,541.94z M113.3,546.65c-2.02,0.9-3.73-0.98-5.13-5.63l0.42,0.25
					c1.51,1.96,3.05,3.67,4.62,5.13C113.22,546.45,113.25,546.54,113.3,546.65z M124.57,543.46c0.06,0,0.08,0.06,0.08,0.17
					c-4.2,1.4-7.98,0.98-11.35-1.26h0.25C117.2,542.31,120.87,542.67,124.57,543.46z M123.56,554.72c2.3,0.67,4.59,1.34,6.89,2.02
					l0.08,0.17c-2.86,1.23-5.29,0.48-7.31-2.27L123.56,554.72z M137.09,562.37c3.59,0.33,7.09,0.78,10.51,1.34v0.17
					c-3.87,1.74-7.65,1.23-11.35-1.51H137.09z M144.82,573.96c2.47,0.45,4.93,1.01,7.4,1.68l0.08,0.25
					c-2.69,1.29-5.35,0.62-7.98-2.02L144.82,573.96z M182.89,542.03c-0.06,0.06-0.11,0.03-0.17-0.08c2.3-1.29,3.33-4.12,3.11-8.49
					c0-0.22,0.11-0.34,0.34-0.34C187.74,537.66,186.65,540.63,182.89,542.03z M175.08,534.38c-3.36,1.4-5.63,1.2-6.81-0.59h0.08
					c2.24-0.62,4.43-0.48,6.56,0.42C174.97,534.27,175.02,534.32,175.08,534.38z M169.61,542.78c1.9-0.5,3.78-0.78,5.63-0.84h0.08
					c-0.56,2.3-2.46,2.63-5.71,1.01V542.78z M173.9,551.02c2.02,3.36,0.81,5.29-3.61,5.8c-0.22,0-0.48,0.03-0.76,0.08
					c3.59-1.63,4.9-3.59,3.95-5.88H173.9z M155.07,534.38c-1.85,0.62-3.67,0.73-5.46,0.34v-0.17c1.01-0.39,2.02-0.53,3.03-0.42
					c0.11,0,0.22-0.03,0.34-0.08c0.62,0,1.29,0.08,2.02,0.25L155.07,534.38z M154.07,551.86c-1.96,1.4-3.84,1.18-5.63-0.67l0.5,0.33
					c1.68,0,3.36,0.08,5.04,0.25C154.04,551.77,154.07,551.8,154.07,551.86z M146.5,542.61l0.59,0.5c2.13,0,4.26,0.45,6.39,1.35
					l-0.08,0.25C151.04,545.61,148.74,544.91,146.5,542.61z M162.22,544.04v0.17c-2.8,2.02-5.32,1.46-7.56-1.68l0.67,0.67
					C157.68,542.19,159.98,542.47,162.22,544.04z M153.65,565.56c0.62,0.78,1.23,1.48,1.85,2.1l-0.08,0.08
					c-1.4,1.57-2.13,0.9-2.19-2.02C153.23,565.5,153.37,565.45,153.65,565.56z M156.92,553.62c2.35-0.5,4.82-1.18,7.4-2.02
					c0.11,4.54-2.35,5.29-7.4,2.27C156.92,553.82,156.92,553.74,156.92,553.62z"/>
			</g>
		</g>
	</g>
	<g>
		<g>
			<path fill-rule="evenodd" clip-rule="evenodd" fill="#C08D3A" d="M241.81,415.46c0.06,0,0.11-0.03,0.17-0.08
				c-6.19-0.11-12.38-0.17-18.57-0.17c2.92,0.06,5.86,0.12,8.82,0.17c-0.28,0-0.56,0-0.84,0c-0.67,0-1.34,0-2.02,0
				c-0.84-0.06-1.71-0.08-2.61-0.08c-0.06,0-0.11,0-0.17,0c-1.06,0-2.1,0-3.11,0c-0.73,0.06-1.48,0.11-2.27,0.17
				c-0.78,0-1.6,0.03-2.44,0.08c-0.17,0-0.33,0-0.5,0c-1.65-0.02-3.41-0.1-5.29-0.25c0.06,0,0.11-0.03,0.17-0.08
				c-0.06,0-0.14,0-0.25,0c-0.22,0-0.42,0-0.59,0c-0.73-0.06-1.48-0.11-2.27-0.17c-0.73-0.06-1.43-0.08-2.1-0.08
				c-0.17,0-0.34,0-0.5,0h-0.08c-0.5,0-1.04-0.03-1.6-0.08h1.01c0.65,0,1.34,0,2.06,0c-0.21-0.01-0.39-0.03-0.55-0.08
				c2.91-0.11,5.85-0.17,8.82-0.17c0.06,0,0.11,0,0.17,0c0.78,0,1.57-0.03,2.35-0.08c0,0.06,0.08,0.08,0.25,0.08
				c1.68,0.28,3.5,0.42,5.46,0.42h0.08c6.56,0.06,13.08,0.11,19.58,0.17l-0.08,0.08c-0.34,0.11-0.64,0.17-0.93,0.17
				C243.21,415.46,242.48,415.46,241.81,415.46z M243.99,414.36c3.19,0.06,6.39,0.17,9.58,0.34l-0.08,0.08
				c-4.93,0.9-8.24,0.78-9.92-0.34C243.52,414.39,243.66,414.36,243.99,414.36z M227.77,414.53h-0.08
				c-0.59-0.04-1.16-0.08-1.72-0.13c0.62,0.03,1.25,0.04,1.89,0.04L227.77,414.53z M204.83,414.19c0.67,0,1.32,0.03,1.93,0.08
				c-0.62,0-1.23,0-1.85,0L204.83,414.19z"/>
			
				<linearGradient id="SVGID_40_" gradientUnits="userSpaceOnUse" x1="1.7251" y1="-68.5874" x2="1.7251" y2="-60.4124" gradientTransform="matrix(1.6809 0 0 1.6809 146.25 531.1003)">
				<stop  offset="0" style="stop-color:#C28824"/>
				<stop  offset="0.2824" style="stop-color:#D09F42"/>
				<stop  offset="0.7294" style="stop-color:#C3933B"/>
				<stop  offset="1" style="stop-color:#BA8A35"/>
			</linearGradient>
			<path fill-rule="evenodd" clip-rule="evenodd" fill="url(#SVGID_40_)" d="M225.42,415.04c1.34-0.06,2.75-0.17,4.2-0.34
				c-0.73,0-1.51-0.03-2.35-0.08c0.11,0,0.2,0,0.25,0c0.06,0,0.11,0,0.17,0l0.08-0.08l0.08-0.08c-0.64,0-1.27-0.01-1.89-0.04
				l-0.55-0.04c-3.81-0.22-7.73-0.28-11.77-0.17c-0.22,0-0.48,0-0.76,0c-0.17,0-0.34,0-0.5,0c-2.63-0.22-5.29-0.39-7.98-0.5
				c5.99,0,13.36,0,22.1,0c16.42,0.22,25.02,0.34,25.8,0.34c1.9,0,4.43-0.03,7.56-0.08l1.6,15.88c-0.42,0-0.84,0-1.26,0
				c-2.9-0.04-7.2-0.07-12.9-0.08l-6.18-0.08c-2.13,0-4.26-0.03-6.39-0.08c0.38,0.05,0.75,0.08,1.13,0.08c-0.22,0-0.46,0-0.71,0
				c-1.9,0-3.84,0.03-5.8,0.08c-0.39-0.06-0.81-0.08-1.26-0.08h-1.18c-0.67-0.02-1.34-0.05-2.02-0.08h-0.42
				c0.39,0.05,0.76,0.08,1.09,0.08c-3.69,0-7.42,0-11.18,0c-0.34,0-0.67,0.03-1.01,0.08c-0.28,0-0.59,0-0.92,0c-0.17,0-0.34,0-0.5,0
				c-1.9,0-3.78,0-5.63,0c-4.03-0.06-12.44-0.11-25.21-0.17c5.32-0.17,10.67-0.28,16.05-0.34c-2.66-0.11-5.35-0.2-8.07-0.25
				c-5.83,0.11-11.68,0.28-17.57,0.5h-0.71c-5.53-0.06-11.65-0.11-18.36-0.17c-29.19-0.16-67.73-0.84-115.65-2.06l0.34-1.13
				c12.93,0.55,26.52,0.8,40.76,0.76c-0.06-0.06-0.14-0.08-0.25-0.08c-13.53-0.26-27.01-0.58-40.43-0.97l2.4-8.36
				c1.27,0.01,2.91,0.04,4.92,0.08c9.52,0.22,18.91,0.39,28.15,0.5v-0.08c-10.9-0.38-21.91-0.61-33.03-0.67l0.38-1.3
				c0.68-0.01,1.37-0.02,2.06-0.04l0.08-0.08c-0.68-0.04-1.37-0.08-2.06-0.13l0.17-0.5c3.23,0.13,6.94,0.28,11.14,0.46
				c20.73,0.78,37.12,1.18,49.17,1.18c2.07,0,4.17,0,6.3,0c5.49,0.22,11.26,0.25,17.31,0.08c-4.23,0-8.29-0.06-12.19-0.17
				c3.75-0.06,7.54-0.17,11.35-0.34c8.18,0.17,16.28,0.06,24.29-0.34c-0.11-0.06-0.22-0.08-0.34-0.08
				c-6.11,0.17-12.19,0.22-18.24,0.17c1.96-0.06,3.89-0.14,5.8-0.25c0.9-0.06,1.82-0.11,2.77-0.17c7.79,0.17,15.55,0.17,23.28,0
				c-3.36,0-6.72,0-10.09,0c2.47-0.22,4.45-0.5,5.97-0.84c-0.22,0-0.48,0-0.76,0c-3.19-0.11-5.1,0.17-5.71,0.84
				c-3.03-0.06-6.05-0.11-9.08-0.17c4.76-0.28,10.53-0.62,17.31-1.01c8.29,0.06,16.58,0.17,24.88,0.34
				c-0.17-0.06-0.36-0.08-0.59-0.08c-6.83-0.22-13.7-0.39-20.59-0.5c1.23-0.06,2.47-0.14,3.7-0.25c3.42-0.17,7.34-0.31,11.77-0.42
				c9.08,0.06,18.1,0.22,27.06,0.5l0.08,0.08c-1.4,0.06-2.75,0.11-4.03,0.17c0.78,0.11,1.63,0.17,2.52,0.17
				c-6,0.34-11.96,0.76-17.9,1.26c-3.59,0.28-5.58,0.25-5.97-0.08c-0.5,0-1.01,0-1.51,0c-0.78,0.06-1.48,0.17-2.1,0.34
				c-0.11,0-0.22,0.03-0.34,0.08c4.03,0.22,8.38,0.14,13.03-0.25c5.68-0.49,11.39-0.85,17.14-1.09c0.85-0.03,1.69-0.06,2.52-0.08
				c0.15,0.05,0.33,0.08,0.55,0.08c-0.72,0-1.41,0-2.06,0h-1.01c0.56,0.05,1.09,0.08,1.6,0.08c-0.9,0.11-1.51,0.25-1.85,0.42
				c-1.06,0-2.13,0-3.19,0c0,0.06,0.03,0.08,0.08,0.08c3.08,0.39,5.55,0.56,7.4,0.5c2.13,0.22,4.62,0.25,7.48,0.08
				c6.67-0.34,13.33-0.5,20-0.5v-0.08c-1.96,0-3.92-0.03-5.88-0.08c0.28,0,0.56,0,0.84,0c3.08,0.06,6.19,0.08,9.33,0.08
				c0.06,0,0.14,0,0.25,0c0.67,0,1.4,0,2.18,0c0.28,0,0.59-0.06,0.93-0.17l0.08-0.08C238.5,415.15,231.98,415.09,225.42,415.04z
				 M231.98,416.88c0.17,0,0.34,0,0.5,0l0.08-0.08c-5.44-0.06-10.87-0.11-16.31-0.17h-0.5C221.13,416.8,226.54,416.88,231.98,416.88
				z M212.98,415.29c1.88,0.15,3.65,0.24,5.29,0.25c-1.51,0.06-3.03,0.11-4.54,0.17c-0.73,0-1.43,0.03-2.1,0.08
				C212.25,415.68,212.7,415.51,212.98,415.29z M212.31,415.2c-1.57,0.06-3.14,0.11-4.71,0.17c0.22-0.11,0.34-0.25,0.34-0.42
				c0.67,0,1.37,0.03,2.1,0.08C210.82,415.09,211.58,415.15,212.31,415.2z M226.6,415.29c-1.79,0.06-3.59,0.11-5.38,0.17
				c0.78-0.06,1.54-0.11,2.27-0.17C224.5,415.29,225.53,415.29,226.6,415.29z M243.99,414.36c-0.34,0-0.48,0.03-0.42,0.08
				c1.68,1.12,4.99,1.23,9.92,0.34l0.08-0.08C250.38,414.53,247.19,414.42,243.99,414.36z M218.19,428.73h-0.17
				c5.49,0.33,11.43,0.56,17.82,0.67l0.08-0.08C230.27,428.82,224.36,428.62,218.19,428.73z M151.38,424.2
				c-0.67,0.06-1.34,0.08-2.02,0.08c-6,0.28-10.48,0.48-13.45,0.59c0,0.11,0.03,0.17,0.08,0.17c5.38,0.56,9.97,0.56,13.78,0
				c10.2,0.79,20.9,0.9,32.1,0.34l0.17-0.08c-10.09-0.11-20.28-0.28-30.59-0.5c0.5-0.11,1.04-0.25,1.6-0.42
				c2.47,0.17,5.16,0.11,8.07-0.17c-0.06-0.06-0.17-0.08-0.34-0.08c-3.53-0.67-7.62-0.84-12.27-0.5h-0.5
				C149.08,423.89,150.2,424.08,151.38,424.2z M149.44,422.18l0.17-0.08c-6.72-0.56-13.75-0.87-21.09-0.92l-0.5,0.08
				C134.46,422.15,141.6,422.46,149.44,422.18z M207.94,423.61c-0.22-0.11-0.5-0.17-0.84-0.17c-7.34-0.45-14.79-0.76-22.36-0.92
				c0,0.06,0.03,0.08,0.08,0.08C190.37,423.66,198.08,424,207.94,423.61z M88.43,421.93l0.08-0.08
				c-15.13-0.95-30.73-1.34-46.81-1.18l-0.5,0.08C56.43,421.65,72.18,422.04,88.43,421.93z M99.86,423.27l0.17-0.08
				c-14.24-0.22-28.51-0.5-42.82-0.84C70.46,423.55,84.68,423.86,99.86,423.27z"/>
			<path fill-rule="evenodd" clip-rule="evenodd" fill="#B4812E" d="M207.35,414.95h0.08c0.17,0,0.34,0,0.5,0
				c0,0.17-0.11,0.31-0.34,0.42c1.57-0.06,3.14-0.11,4.71-0.17c0.17,0,0.36,0,0.59,0c0.11,0,0.2,0,0.25,0
				c-0.06,0.06-0.11,0.08-0.17,0.08c-0.28,0.22-0.73,0.39-1.35,0.5c0.67-0.06,1.37-0.08,2.1-0.08c1.51-0.06,3.03-0.11,4.54-0.17
				c0.17,0,0.34,0,0.5,0c0.84-0.06,1.65-0.08,2.44-0.08c1.79-0.06,3.59-0.11,5.38-0.17c0.06,0,0.11,0,0.17,0
				c0.9,0,1.77,0.03,2.61,0.08c0.67,0,1.34,0,2.02,0c1.96,0.06,3.92,0.08,5.88,0.08v0.08c-6.67,0-13.33,0.17-20,0.5
				c-2.86,0.17-5.35,0.14-7.48-0.08c-1.85,0.06-4.31-0.11-7.4-0.5c-0.06,0-0.08-0.03-0.08-0.08c1.06,0,2.13,0,3.19,0
				C205.84,415.2,206.45,415.06,207.35,414.95z M231.98,416.88c-5.44,0-10.84-0.08-16.22-0.25h0.5c5.44,0.06,10.87,0.11,16.31,0.17
				l-0.08,0.08C232.31,416.88,232.14,416.88,231.98,416.88z M212.9,414.19c0.28,0,0.53,0,0.76,0c4.03-0.11,7.96-0.06,11.77,0.17
				l0.55,0.04c0.56,0.04,1.14,0.08,1.72,0.13h0.08l-0.08,0.08c-0.06,0-0.11,0-0.17,0c-0.06,0-0.14,0-0.25,0
				c0.84,0.06,1.62,0.08,2.35,0.08c-1.46,0.17-2.86,0.28-4.2,0.34h-0.08c-1.96,0-3.78-0.14-5.46-0.42c-0.17,0-0.25-0.03-0.25-0.08
				c-0.78,0.06-1.57,0.08-2.35,0.08v-0.08C215.81,414.42,214.35,414.31,212.9,414.19z M208.27,414.78
				c-0.83,0.03-1.68,0.06-2.52,0.08c-5.75,0.24-11.47,0.6-17.14,1.09c-4.65,0.39-8.99,0.48-13.03,0.25
				c0.11-0.06,0.22-0.08,0.34-0.08c0.62-0.17,1.32-0.28,2.1-0.34c0.5,0,1.01,0,1.51,0c0.39,0.34,2.38,0.36,5.97,0.08
				c5.94-0.5,11.91-0.92,17.9-1.26c-0.9,0-1.74-0.06-2.52-0.17c1.29-0.06,2.63-0.11,4.03-0.17c0.62,0,1.23,0,1.85,0
				c0.95,0,1.88,0.03,2.77,0.08c2.52,0.06,5.04,0.14,7.56,0.25C214.13,414.61,211.19,414.67,208.27,414.78z M241.81,415.46
				c-0.11,0-0.2,0-0.25,0c-3.14,0-6.25-0.03-9.33-0.08c-2.97-0.05-5.91-0.11-8.82-0.17c6.19,0,12.38,0.06,18.57,0.17
				C241.92,415.42,241.87,415.45,241.81,415.46z M40.14,415.75c0.69,0.04,1.38,0.08,2.06,0.13l-0.08,0.08
				c-0.69,0.02-1.38,0.03-2.06,0.04L40.14,415.75z M40.94,412.98l0.08-0.29c10.13,0.16,20.21,0.3,30.26,0.42v0.08
				C60.87,413.34,50.76,413.27,40.94,412.98z M40.48,414.66l0.04-0.21c0.38,0.03,0.78,0.06,1.18,0.08v0.08
				C41.28,414.63,40.88,414.64,40.48,414.66z M43.55,413.86c3.87-0.34,7.34-0.28,10.42,0.17c0.67,0.06,1.32,0.14,1.93,0.25
				c-1.61,0.11-2.95,0.14-4.03,0.08c-3.08,0.11-5.91-0.06-8.49-0.5H43.55z M39.68,417.3c11.12,0.06,22.13,0.29,33.03,0.67v0.08
				c-9.25-0.11-18.63-0.28-28.15-0.5c-2.01-0.04-3.65-0.07-4.92-0.08L39.68,417.3z"/>
			<path fill-rule="evenodd" clip-rule="evenodd" fill="#C48B29" d="M177.77,413.69c-4.51-0.03-9.01-0.06-13.49-0.08
				c5.71-0.15,11.44-0.29,17.19-0.42c7.79-0.06,15.44,0.11,22.94,0.5c2.69,0.11,5.35,0.28,7.98,0.5c0.16,0,0.33,0,0.5,0
				c1.46,0.11,2.91,0.22,4.37,0.34v0.08c-0.06,0-0.11,0-0.17,0c-2.52-0.11-5.04-0.2-7.56-0.25c-0.9-0.06-1.82-0.08-2.77-0.08
				c-0.62-0.06-1.26-0.08-1.93-0.08C195.86,413.91,186.84,413.75,177.77,413.69z M141.29,415.62c3.03,0.06,6.05,0.11,9.08,0.17
				c0.62-0.67,2.52-0.95,5.71-0.84c0.28,0,0.53,0,0.76,0c-1.51,0.34-3.5,0.62-5.97,0.84c3.36,0,6.72,0,10.09,0
				c-7.73,0.17-15.49,0.17-23.28,0c-3.03-0.06-6.05-0.14-9.08-0.25c-7.06-0.22-14.12-0.53-21.18-0.92c-1.51-0.06-2.63-0.2-3.36-0.42
				c0.06,0,0.14,0,0.25,0c2.35-0.06,4.73-0.11,7.14-0.17c0.28,0,0.56-0.03,0.84-0.08c16.75-0.06,33.42,0.08,50.01,0.42
				c6.89,0.11,13.76,0.28,20.59,0.5c0.22,0,0.42,0.03,0.59,0.08c-8.29-0.17-16.58-0.28-24.88-0.34
				c-15.86-0.22-31.85-0.31-47.99-0.25c2.02,0.17,4.03,0.31,6.05,0.42C124.9,415.17,133.11,415.46,141.29,415.62z M129.1,416.21
				c6.05,0.06,12.13,0,18.24-0.17c0.11,0,0.22,0.03,0.34,0.08c-8.01,0.39-16.11,0.5-24.29,0.34c-5.77-0.11-11.6-0.36-17.48-0.76
				c-0.5-0.06-0.45-0.11,0.17-0.17C113.75,415.99,121.43,416.21,129.1,416.21z M112.04,416.8c3.9,0.11,7.96,0.17,12.19,0.17
				c-6.05,0.17-11.82,0.14-17.31-0.08c-6.44-0.28-12.52-0.81-18.24-1.6h0.92C96.5,416.07,103.98,416.58,112.04,416.8z"/>
			<path fill-rule="evenodd" clip-rule="evenodd" fill="#BE8E38" d="M229.37,429.74c2.86,0,5.69,0.03,8.49,0.08
				c-0.56-0.06-1.15-0.11-1.76-0.17h-0.21c-0.38-0.01-0.76-0.04-1.13-0.08c2.13,0.06,4.26,0.08,6.39,0.08l6.18,0.08
				c4.75,0.12,9.48,0.24,14.2,0.38l0.04,0.46v0.17c-1.32-0.03-2.64-0.05-3.95-0.08c-9.02,0.17-17.65-0.03-25.89-0.59
				c-6.49-0.08-12.97-0.13-19.46-0.13l-2.14-0.04c-1.26,0-2.52,0-3.78,0c0.4-0.04,0.79-0.07,1.18-0.08c0.17,0,0.34,0,0.5,0
				c1.29,0,2.6-0.03,3.95-0.08c0.17,0,0.34,0,0.5,0c0.34,0,0.64,0,0.92,0c0.34-0.06,0.67-0.08,1.01-0.08c3.76,0,7.49,0,11.18,0h0.17
				c0.39,0,0.78,0,1.18,0h1.18C228.56,429.66,228.98,429.69,229.37,429.74z M207.35,431.34c2.41,0,4.82-0.03,7.23-0.08
				c8.07-0.06,16.11-0.14,24.12-0.25c2.75-0.06,5.29,0.06,7.65,0.34c-9.02,0.11-18.01,0.17-26.98,0.17c-2.35,0-4.71,0-7.06,0
				c-5.43,0-10.84-0.06-16.22-0.17C199.84,431.34,203.6,431.34,207.35,431.34z M261.69,432.01l0.04,0.21
				c-12.73,0.1-25.48,0.37-38.24,0.8c-3.53,0.11-6.61,0.06-9.24-0.17c1.47-0.08,2.96-0.15,4.45-0.21l1.51-0.04
				c2.07-0.06,4.17-0.11,6.3-0.17c1.51-0.06,3.03-0.08,4.54-0.08c7.84-0.22,15.63-0.36,23.36-0.42
				C256.84,431.96,259.26,431.98,261.69,432.01z"/>
			<path fill-rule="evenodd" clip-rule="evenodd" fill="#BC8737" d="M212.31,431.51c2.35,0,4.71,0,7.06,0
				c1.85,0.11,3.7,0.22,5.55,0.34v0.08C220.6,431.82,216.4,431.68,212.31,431.51z M226.93,429.66c-0.39,0-0.78,0-1.18,0h-0.17
				c-0.34-0.01-0.7-0.03-1.09-0.08h0.42C225.59,429.61,226.26,429.64,226.93,429.66z M181.13,429.57
				c12.77,0.06,21.18,0.11,25.21,0.17c1.85,0,3.73,0,5.63,0c-1.35,0.06-2.66,0.08-3.95,0.08c-0.16,0-0.33,0-0.5,0
				c-3.64,0.06-7.25,0.14-10.84,0.25l-10.76,0.17c-2.89,0-5.81,0.03-8.74,0.08c0.53,0,1.06,0,1.6,0c-4.03,0.11-8.07,0.22-12.1,0.34
				c-3.64,0.11-7.2,0.22-10.67,0.34c13.95,0.34,27.88,0.62,41.77,0.84l-0.08,0.08c-6.93,0.11-13.71,0.11-20.34,0
				c0.4,0.02,0.82,0.04,1.26,0.08c-7.3-0.15-14.45-0.35-21.43-0.59l-0.08,0.08c-4.2-0.06-8.4-0.14-12.61-0.25
				c-1.85,0.06-3.7,0.08-5.55,0.08c2.97,0.17,5.91,0.31,8.82,0.42c0.11,0,0.2,0.06,0.25,0.17c2.16,0.06,4.32,0.11,6.47,0.17
				c0.11,0,0.2,0.03,0.25,0.08c-12.89-0.06-25.55-0.22-37.99-0.5c3.33,0.17,6.61,0.36,9.83,0.59c-1,0-1.98-0.01-2.94-0.04
				c0.84,0.04,1.68,0.08,2.52,0.13l-0.08,0.08c-14.57-0.5-28.6-0.98-42.11-1.43c-2.77-0.06-5.55-0.08-8.32-0.08
				c-3.64-0.11-7.31-0.2-11.01-0.25c1.46,0.06,2.94,0.14,4.45,0.25c2.52,0.06,5.07,0.17,7.65,0.34c0.17,0,0.34,0,0.5,0h0.8
				c0.61,0.02,1.24,0.05,1.89,0.08c1.29,0.06,2.55,0.11,3.78,0.17c1.18,0.06,2.33,0.11,3.45,0.17c0.11,0,0.2,0,0.25,0
				c14.17,0.5,28.35,0.98,42.53,1.43c2.35,0.11,4.76,0.2,7.23,0.25c0.17,0,0.36,0,0.59,0c0.11,0,0.2,0.06,0.25,0.17
				c-1.12-0.06-2.24-0.08-3.36-0.08c-3.03-0.06-6-0.11-8.91-0.17c-12.05-0.28-23.9-0.7-35.55-1.26c-5.88-0.17-11.68-0.31-17.4-0.42
				c-1.46-0.06-2.88-0.11-4.29-0.17c-0.11,0-0.22,0-0.34,0c-1.85-0.06-3.67-0.12-5.46-0.17c-9.21,0.05-18.17-0.12-26.89-0.5
				l0.04-0.13c1.79,0.03,3.57,0.04,5.34,0.04c-1.29-0.06-2.55-0.08-3.78-0.08c-0.53-0.01-1.05-0.02-1.55-0.04l0.21-0.71l0.76-2.56
				c47.91,1.22,86.46,1.9,115.65,2.06c6.71,0.05,12.83,0.11,18.36,0.17c-0.71,0.01-1.43,0.04-2.14,0.08
				c-5.1,0.17-10.11,0.34-15.04,0.5c1.57,0.28,3.61,0.36,6.13,0.25C166.9,429.99,174.01,429.74,181.13,429.57z M36.07,429.83
				c3.11,0.23,6.25,0.45,9.41,0.67c-0.5,0-0.98,0-1.43,0c0.93,0.05,1.84,0.08,2.73,0.08h0.46c0.22,0,0.45,0.03,0.67,0.08
				c1.79,0,3.61,0.03,5.46,0.08c1.96,0,3.92,0.03,5.88,0.08c0.65,0.05,1.28,0.08,1.89,0.08c-0.31-0.01-0.61-0.04-0.88-0.08
				c-2.35-0.06-4.68-0.14-6.98-0.25c-1.46-0.06-2.94-0.08-4.46-0.08c-4.15-0.22-8.29-0.45-12.44-0.67H36.07z M191.97,430.5
				c7.62,0.17,15.16,0.42,22.61,0.76c-2.41,0.06-4.82,0.08-7.23,0.08c-6.67-0.28-13.17-0.59-19.5-0.92h-0.46
				c-0.45-0.01-0.88-0.04-1.3-0.08h0.17C188.16,430.39,190.07,430.44,191.97,430.5z M87.76,431.42l-2.23-0.04
				c-0.3-0.01-0.6-0.03-0.88-0.04c1.29,0,2.6,0.03,3.95,0.08C88.32,431.42,88.04,431.42,87.76,431.42z M120.36,432.01
				c-0.06-0.06-0.14-0.08-0.25-0.08c-0.87-0.03-1.75-0.06-2.65-0.08C118.44,431.9,119.4,431.95,120.36,432.01z M133.98,431.42
				c-1.79,0.06-3.56,0.08-5.3,0.08c4.1,0.08,8.21,0.15,12.31,0.21C138.64,431.6,136.31,431.51,133.98,431.42z M37.24,425.83
				c13.42,0.38,26.89,0.71,40.43,0.97c0.11,0,0.2,0.03,0.25,0.08c-14.24,0.04-27.83-0.21-40.76-0.76L37.24,425.83z M35.65,431.3
				c0.46,0.05,0.94,0.09,1.43,0.13c-0.45,0-0.9,0-1.34,0c-0.04,0-0.08,0-0.13,0L35.65,431.3z M35.52,431.76l0.04-0.21
				c0.07,0,0.12,0.02,0.17,0.04c11.49,0.56,22.89,0.59,34.21,0.08v0.08c-10.25,0.73-20.81,0.79-31.69,0.17
				c-0.95,0-1.74-0.06-2.35-0.17C35.78,431.75,35.65,431.75,35.52,431.76z"/>
			<path fill-rule="evenodd" clip-rule="evenodd" fill="#CE973C" d="M79.94,431.34c-0.65-0.04-1.29-0.07-1.89-0.08h-0.8
				c-0.17,0-0.33,0-0.5,0c-2.58-0.17-5.13-0.28-7.65-0.34c2.19,0,4.37,0,6.56,0c2.77,0,5.55,0.03,8.32,0.08
				c13.5,0.45,27.54,0.92,42.11,1.43l0.08-0.08c-0.84-0.04-1.68-0.08-2.52-0.13c0.96,0.03,1.94,0.04,2.94,0.04
				c-3.22-0.23-6.5-0.42-9.83-0.59c12.44,0.28,25.1,0.45,37.99,0.5c-0.06-0.06-0.14-0.08-0.25-0.08c-2.16-0.06-4.31-0.11-6.47-0.17
				c-0.06-0.11-0.14-0.17-0.25-0.17c-2.91-0.11-5.86-0.25-8.82-0.42c1.85,0,3.7-0.03,5.55-0.08c4.2,0.11,8.4,0.2,12.61,0.25
				l0.08-0.08c6.98,0.24,14.13,0.44,21.43,0.59c-0.44-0.04-0.86-0.07-1.26-0.08c6.63,0.11,13.4,0.11,20.34,0l0.08-0.08
				c-13.9-0.22-27.82-0.5-41.77-0.84c3.47-0.11,7.03-0.22,10.67-0.34c4.03-0.11,8.07-0.22,12.1-0.34c2.82,0.05,5.69,0.08,8.61,0.08
				h0.46c6.33,0.33,12.83,0.64,19.5,0.92c-3.75,0-7.51,0-11.26,0c5.38,0.11,10.79,0.17,16.22,0.17c4.09,0.17,8.29,0.31,12.61,0.42
				v-0.08c-1.85-0.11-3.7-0.22-5.55-0.34c8.97,0,17.96-0.06,26.98-0.17c-2.35-0.28-4.9-0.39-7.65-0.34
				c-8.01,0.11-16.05,0.2-24.12,0.25c-7.45-0.34-14.99-0.59-22.61-0.76c8.8,0,17.71-0.11,26.73-0.33c-2.14-0.08-4.29-0.15-6.43-0.21
				c6.49,0,12.97,0.04,19.46,0.13c8.24,0.56,16.86,0.76,25.89,0.59c1.31,0.03,2.63,0.06,3.95,0.08l0.13,1.26
				c-2.42-0.03-4.85-0.05-7.27-0.08c-7.73,0.06-15.52,0.2-23.36,0.42c-1.51,0-3.03,0.03-4.54,0.08c-5.44-0.06-10.9-0.08-16.39-0.08
				c-2.19,0-4.43,0.03-6.72,0.08c-0.45,0-0.92,0.03-1.43,0.08c-4.26,0.06-8.52,0.11-12.78,0.17c-0.06,0-0.14,0-0.25,0
				c5.04,0.28,10.42,0.33,16.14,0.17c4.54-0.1,9.08-0.17,13.62-0.21c-1.5,0.06-2.98,0.13-4.45,0.21c2.63,0.22,5.71,0.28,9.24,0.17
				c12.76-0.43,25.51-0.7,38.24-0.8l0.21,2.14H34.76l0.76-2.61c0.13,0,0.25,0,0.38,0c0.62,0.11,1.4,0.17,2.35,0.17
				c10.87,0.62,21.43,0.56,31.69-0.17v-0.08c-11.32,0.5-22.72,0.48-34.21-0.08c-0.05-0.02-0.1-0.04-0.17-0.04l0.04-0.13
				c0.05,0,0.09,0,0.13,0c0.45,0,0.9,0,1.34,0c-0.49-0.03-0.97-0.08-1.43-0.13l0.17-0.55c8.72,0.39,17.69,0.56,26.89,0.5
				c1.8,0.05,3.62,0.11,5.46,0.17c0.9,0.06,1.77,0.11,2.61,0.17c0.67,0,1.34,0,2.02,0c5.72,0.11,11.51,0.25,17.4,0.42
				c11.65,0.56,23.5,0.98,35.55,1.26c-1.68,0.06-3.33,0.14-4.96,0.25c0,0.22,0.56,0.31,1.68,0.25c4.09-0.11,8.15-0.22,12.19-0.34
				c1.12,0,2.24,0.03,3.36,0.08c-0.06-0.11-0.14-0.17-0.25-0.17c-0.22,0-0.42,0-0.59,0c1.57-0.06,3.14-0.11,4.71-0.17
				c-1.6-0.11-3.19-0.17-4.79-0.17c-1.34,0-2.77,0.03-4.29,0.08c-0.95,0-1.9,0-2.86,0c-14.17-0.45-28.35-0.92-42.53-1.43
				c-0.06,0-0.14,0-0.25,0c-1.12-0.06-2.27-0.11-3.45-0.17c0.28,0,0.59,0,0.93,0v-0.08c-0.39,0-0.78-0.03-1.18-0.08
				c0.68,0.01,1.37,0.03,2.06,0.04l2.23,0.04c1.35,0.03,2.69,0.06,4.03,0.08l-0.08-0.08c-1.06,0-2.1,0-3.11,0
				c-1.35-0.06-2.66-0.08-3.95-0.08c-0.17,0-0.34,0-0.5,0c-0.22,0-0.45,0-0.67,0C82.29,431.34,81.12,431.34,79.94,431.34z
				 M210.12,429.91c-0.73,0.06-1.43,0.08-2.1,0.08c-3.79,0.03-7.58,0.06-11.35,0.08c3.59-0.11,7.2-0.19,10.84-0.25
				c-0.39,0.02-0.78,0.04-1.18,0.08C207.6,429.91,208.86,429.91,210.12,429.91z M45.48,430.5c-3.16-0.22-6.3-0.45-9.41-0.67h0.34
				c4.15,0.22,8.29,0.45,12.44,0.67c1.51,0.06,3.03,0.14,4.54,0.25c-1.85-0.06-3.67-0.08-5.46-0.08c-0.22-0.06-0.45-0.08-0.67-0.08
				h-0.46C46.33,430.57,45.9,430.54,45.48,430.5z M60.27,430.83c0.27,0.04,0.57,0.07,0.88,0.08c-0.61-0.01-1.24-0.03-1.89-0.08
				C59.6,430.83,59.94,430.83,60.27,430.83z M35.86,430.63v-0.08c0.51,0.02,1.02,0.03,1.55,0.04c1.23,0,2.49,0.03,3.78,0.08
				C39.43,430.67,37.65,430.65,35.86,430.63z M120.36,432.01c-0.96-0.06-1.93-0.11-2.9-0.17c0.9,0.03,1.78,0.06,2.65,0.08
				C120.22,431.93,120.31,431.96,120.36,432.01z M133.98,431.42c2.33,0.08,4.66,0.18,7.02,0.29c-4.1-0.06-8.21-0.13-12.31-0.21
				C130.42,431.51,132.19,431.48,133.98,431.42z M63.8,431.51c-0.84,0-1.63,0.03-2.35,0.08c1.06,0,2.13,0,3.19,0
				C64.36,431.54,64.08,431.51,63.8,431.51z"/>
			<path fill-rule="evenodd" clip-rule="evenodd" fill="#C38F2A" d="M218.7,432.64c-4.54,0.04-9.08,0.11-13.62,0.21
				c-5.71,0.17-11.09,0.11-16.14-0.17c0.11,0,0.2,0,0.25,0c4.26-0.06,8.52-0.11,12.78-0.17c0.5-0.06,0.98-0.08,1.43-0.08
				c2.3-0.06,4.54-0.08,6.72-0.08c5.49,0,10.95,0.03,16.39,0.08c-2.13,0.06-4.23,0.11-6.3,0.17L218.7,432.64z"/>
			<path fill-rule="evenodd" clip-rule="evenodd" fill="#B77C1E" d="M196.68,430.08c3.77-0.03,7.55-0.05,11.35-0.08
				c0.67,0,1.37-0.03,2.1-0.08l2.14,0.04c2.14,0.06,4.29,0.13,6.43,0.21c-9.02,0.22-17.93,0.33-26.73,0.33
				c-1.91-0.06-3.81-0.11-5.72-0.17h-0.17c0.42,0.04,0.85,0.07,1.3,0.08c-2.92,0-5.79-0.03-8.61-0.08c-0.53,0-1.06,0-1.6,0
				c2.93-0.06,5.85-0.08,8.74-0.08L196.68,430.08z M218.19,428.73c6.16-0.11,12.07,0.08,17.73,0.59l-0.08,0.08
				c-6.39-0.11-12.33-0.34-17.82-0.67H218.19z M170.83,429.49h0.71c5.88-0.22,11.74-0.39,17.57-0.5c2.72,0.05,5.41,0.14,8.07,0.25
				c-5.38,0.06-10.73,0.17-16.05,0.34c-7.12,0.17-14.23,0.42-21.35,0.76c-2.52,0.11-4.57,0.03-6.13-0.25
				c4.93-0.17,9.95-0.34,15.04-0.5C169.4,429.53,170.12,429.5,170.83,429.49z"/>
			
				<linearGradient id="SVGID_41_" gradientUnits="userSpaceOnUse" x1="2.7715" y1="-72.4004" x2="2.784" y2="-41.3004" gradientTransform="matrix(1.6809 0 0 1.6809 146.25 531.1003)">
				<stop  offset="0" style="stop-color:#BC8221"/>
				<stop  offset="0.1569" style="stop-color:#CD9429"/>
				<stop  offset="0.5686" style="stop-color:#BF913B"/>
				<stop  offset="1" style="stop-color:#CCA45C"/>
			</linearGradient>
			<path fill-rule="evenodd" clip-rule="evenodd" fill="url(#SVGID_41_)" d="M235.88,429.66h0.21c0.62,0.06,1.2,0.11,1.76,0.17
				c-2.8-0.06-5.63-0.08-8.49-0.08c1.96-0.06,3.89-0.08,5.8-0.08C235.42,429.66,235.66,429.66,235.88,429.66z M261.48,429.83
				l0.04,0.29c-4.72-0.13-9.46-0.26-14.2-0.38c5.7,0.01,10,0.04,12.9,0.08C260.64,429.83,261.06,429.83,261.48,429.83z
				 M204.41,413.69c-7.51-0.39-15.16-0.56-22.94-0.5c-5.75,0.13-11.47,0.27-17.19,0.42c4.48,0.03,8.98,0.06,13.49,0.08
				c-4.43,0.11-8.35,0.25-11.77,0.42c-1.23,0.11-2.47,0.2-3.7,0.25c-16.58-0.33-33.25-0.48-50.01-0.42
				c-0.28,0.06-0.56,0.08-0.84,0.08c-2.41,0.06-4.79,0.11-7.14,0.17c-0.11,0-0.2,0-0.25,0c0.73,0.22,1.85,0.36,3.36,0.42
				c7.06,0.39,14.12,0.7,21.18,0.92c3.03,0.11,6.05,0.2,9.08,0.25c-0.95,0.06-1.88,0.11-2.77,0.17c-1.9,0.11-3.84,0.2-5.8,0.25
				c-7.68,0-15.35-0.22-23.03-0.67c-0.62,0.06-0.67,0.11-0.17,0.17c5.88,0.39,11.71,0.64,17.48,0.76
				c-3.81,0.17-7.59,0.28-11.35,0.34c-8.07-0.22-15.55-0.73-22.44-1.51h-0.92c5.72,0.78,11.79,1.32,18.24,1.6c-2.13,0-4.23,0-6.3,0
				c-12.05,0-28.44-0.39-49.17-1.18c-4.19-0.18-7.91-0.34-11.14-0.46l0.17-0.59c0.4-0.01,0.8-0.03,1.22-0.04v-0.08
				c-0.4-0.03-0.79-0.05-1.18-0.08l0.42-1.47c9.82,0.29,19.93,0.37,30.34,0.21v-0.08c-10.04-0.12-20.13-0.26-30.26-0.42l0.59-2.1
				h217.93l0.34,3.36c-3.14,0.06-5.66,0.08-7.56,0.08c-0.78,0-9.39-0.11-25.8-0.34C217.77,413.69,210.4,413.69,204.41,413.69z
				 M141.29,415.62c-8.18-0.17-16.39-0.45-24.63-0.84c-2.02-0.11-4.03-0.25-6.05-0.42c16.14-0.06,32.13,0.03,47.99,0.25
				C151.83,415.01,146.05,415.34,141.29,415.62z M43.55,413.86h-0.17c2.58,0.45,5.41,0.62,8.49,0.5c1.08,0.05,2.43,0.03,4.03-0.08
				c-0.62-0.11-1.26-0.2-1.93-0.25C50.89,413.58,47.41,413.52,43.55,413.86z"/>
			<path fill-rule="evenodd" clip-rule="evenodd" fill="#CD9737" d="M149.44,422.18c-7.84,0.28-14.99-0.03-21.43-0.92l0.5-0.08
				c7.34,0.06,14.37,0.36,21.09,0.92L149.44,422.18z M151.38,424.2c-1.18-0.11-2.3-0.31-3.36-0.59h0.5
				c4.65-0.34,8.74-0.17,12.27,0.5c0.17,0,0.28,0.03,0.34,0.08c-2.91,0.28-5.6,0.34-8.07,0.17c-0.56,0.17-1.09,0.31-1.6,0.42
				c10.31,0.22,20.51,0.39,30.59,0.5l-0.17,0.08c-11.21,0.56-21.91,0.45-32.1-0.34c-3.81,0.56-8.4,0.56-13.78,0
				c-0.06,0-0.08-0.06-0.08-0.17c2.97-0.11,7.45-0.31,13.45-0.59C150.03,424.28,150.7,424.25,151.38,424.2z M207.94,423.61
				c-9.86,0.39-17.57,0.06-23.11-1.01c-0.06,0-0.08-0.03-0.08-0.08c7.56,0.17,15.02,0.48,22.36,0.92
				C207.43,423.44,207.71,423.5,207.94,423.61z M99.86,423.27c-15.18,0.59-29.4,0.28-42.65-0.92c14.31,0.34,28.58,0.62,42.82,0.84
				L99.86,423.27z M88.43,421.93c-16.25,0.11-31.99-0.28-47.23-1.18l0.5-0.08c16.08-0.17,31.69,0.22,46.81,1.18L88.43,421.93z"/>
			<path fill-rule="evenodd" clip-rule="evenodd" fill="#BB8A2B" d="M48.84,430.5c1.51,0,3,0.03,4.46,0.08
				c2.3,0.11,4.62,0.2,6.98,0.25c-0.34,0-0.67,0-1.01,0c-1.96-0.06-3.92-0.08-5.88-0.08C51.87,430.64,50.36,430.55,48.84,430.5z
				 M45.48,430.5c0.42,0.04,0.85,0.07,1.3,0.08c-0.89-0.01-1.8-0.04-2.73-0.08C44.5,430.5,44.98,430.5,45.48,430.5z M72.79,431.59
				c-0.67,0-1.34,0-2.02,0c-0.84-0.06-1.71-0.11-2.61-0.17c0.11,0,0.22,0,0.34,0C69.91,431.48,71.34,431.54,72.79,431.59z
				 M134.65,433.44c-4.03,0.11-8.1,0.22-12.19,0.34c-1.12,0.06-1.68-0.03-1.68-0.25c1.63-0.11,3.28-0.2,4.96-0.25
				C128.66,433.33,131.63,433.38,134.65,433.44z M129.94,433.1c0.95,0,1.91,0,2.86,0c1.51-0.06,2.94-0.08,4.29-0.08
				c1.6,0,3.19,0.06,4.79,0.17c-1.57,0.06-3.14,0.11-4.71,0.17C134.71,433.3,132.3,433.22,129.94,433.1z M83.72,431.51
				c-1.23-0.06-2.49-0.11-3.78-0.17c1.18,0,2.35,0,3.53,0c0.22,0,0.45,0,0.67,0c0.17,0,0.34,0,0.5,0c0.29,0.01,0.58,0.03,0.88,0.04
				c-0.69-0.01-1.38-0.03-2.06-0.04c0.39,0.06,0.78,0.08,1.18,0.08v0.08C84.31,431.51,84,431.51,83.72,431.51z M75.65,430.92
				c-2.18,0-4.37,0-6.56,0c-1.51-0.11-3-0.2-4.45-0.25C68.34,430.72,72.01,430.81,75.65,430.92z M88.6,431.42c1.01,0,2.04,0,3.11,0
				l0.08,0.08c-1.34-0.03-2.69-0.05-4.03-0.08C88.04,431.42,88.32,431.42,88.6,431.42z M63.8,431.51c0.28,0,0.56,0.03,0.84,0.08
				c-1.06,0-2.13,0-3.19,0C62.18,431.54,62.96,431.51,63.8,431.51z"/>
		</g>
		<g>
			<path fill-rule="evenodd" clip-rule="evenodd" fill="#6C4A27" fill-opacity="0.498" d="M254.54,433.52h-1.68l-0.17-2.31
				l-1.09-14.58H41.28c-0.08,0-0.17-0.01-0.25-0.04c-0.12-0.04-0.23-0.11-0.34-0.21c-0.17-0.16-0.25-0.36-0.25-0.59
				c0-0.23,0.09-0.43,0.25-0.59c0.16-0.17,0.36-0.25,0.59-0.25H252.4c0.22,0,0.42,0.06,0.59,0.21c0.16,0.16,0.24,0.36,0.25,0.59
				L254.54,433.52z"/>
			<path fill-rule="evenodd" clip-rule="evenodd" fill="#C9923F" d="M41.03,416.59l-5.08,16.94h-0.92l6.6-22.94h3.28h214.65
				l2.31,22.94h-7.31l-1.3-17.78c-0.01-0.23-0.1-0.43-0.25-0.59c-0.17-0.15-0.36-0.21-0.59-0.21H41.28c-0.23,0-0.43,0.09-0.59,0.25
				c-0.17,0.16-0.25,0.36-0.25,0.59c0,0.23,0.09,0.43,0.25,0.59C40.79,416.48,40.9,416.55,41.03,416.59z"/>
			
				<linearGradient id="SVGID_42_" gradientUnits="userSpaceOnUse" x1="-1.6499" y1="-58.29" x2="63.5501" y2="-58.29" gradientTransform="matrix(1.6809 0 0 1.6809 146.25 531.1003)">
				<stop  offset="0" style="stop-color:#060402"/>
				<stop  offset="0.4863" style="stop-color:#644B1E"/>
				<stop  offset="1" style="stop-color:#000000"/>
			</linearGradient>
			<path fill-rule="evenodd" clip-rule="evenodd" fill="url(#SVGID_42_)" d="M252.86,433.52l0.13,1.51h-104.8
				c1.22-0.44,1.98-0.94,2.27-1.51c0.11-0.19,0.17-0.38,0.17-0.59c0-0.63-0.48-1.19-1.43-1.68h103.29c0.05-0.05,0.12-0.06,0.21-0.04
				L252.86,433.52z"/>
			
				<linearGradient id="SVGID_43_" gradientUnits="userSpaceOnUse" x1="-2.2676" y1="-36.9438" x2="-0.3524" y2="-74.2694" gradientTransform="matrix(1.6809 0 0 1.6809 146.25 531.1003)">
				<stop  offset="0" style="stop-color:#B88834;stop-opacity:0"/>
				<stop  offset="1" style="stop-color:#644B20"/>
			</linearGradient>
			<path fill-rule="evenodd" clip-rule="evenodd" fill="url(#SVGID_43_)" d="M35.94,433.52l5.08-16.94
				c0.08,0.03,0.17,0.04,0.25,0.04H251.6l1.09,14.58c-0.09-0.02-0.16,0-0.21,0.04H149.19c-0.42-0.21-0.93-0.4-1.51-0.59
				c-1.9-0.62-4.23-0.92-6.98-0.92c-2.75,0-5.1,0.31-7.06,0.92c-1.91,0.62-2.86,1.37-2.86,2.27c0,0.2,0.06,0.4,0.17,0.59H35.94z"/>
			
				<linearGradient id="SVGID_44_" gradientUnits="userSpaceOnUse" x1="-9.2002" y1="-58.3994" x2="2.6001" y2="-58.3994" gradientTransform="matrix(1.6809 0 0 1.6809 146.25 531.1003)">
				<stop  offset="0" style="stop-color:#060402"/>
				<stop  offset="0.4863" style="stop-color:#644B1E"/>
				<stop  offset="1" style="stop-color:#000000"/>
			</linearGradient>
			<path fill-rule="evenodd" clip-rule="evenodd" fill="url(#SVGID_44_)" d="M148.18,435.04c-0.16,0.06-0.33,0.11-0.5,0.17
				c-1.9,0.62-4.23,0.92-6.98,0.92c-2.75,0-5.1-0.31-7.06-0.92c-1.47-0.48-2.37-1.04-2.69-1.68c-0.11-0.19-0.17-0.38-0.17-0.59
				c0-0.9,0.95-1.65,2.86-2.27c1.96-0.62,4.31-0.92,7.06-0.92c2.75,0,5.07,0.31,6.98,0.92c0.58,0.18,1.09,0.38,1.51,0.59
				c0.95,0.49,1.43,1.05,1.43,1.68c0,0.2-0.06,0.4-0.17,0.59C150.16,434.09,149.4,434.6,148.18,435.04z"/>
		</g>
	</g>
</g>
</svg>
