<?xml version="1.0" encoding="utf-8"?>
<!-- Generator: Adobe Illustrator 16.0.0, SVG Export Plug-In . SVG Version: 6.00 Build 0)  -->
<!DOCTYPE svg PUBLIC "-//W3C//DTD SVG 1.1//EN" "http://www.w3.org/Graphics/SVG/1.1/DTD/svg11.dtd">
<svg version="1.1" xmlns="http://www.w3.org/2000/svg" xmlns:xlink="http://www.w3.org/1999/xlink" x="0px" y="0px" width="700px"
	 height="700px" viewBox="0 0 700 700" enable-background="new 0 0 700 700" xml:space="preserve">
<g id="Layer_2">
	<rect x="27.91" y="457.64" fill="#6C4A27" width="236.59" height="194.82"/>
</g>
<g id="Layer_1">
	<g>
		<g>
			<g>
				<path fill="none" d="M199.1,568.811c1.675,0.242,3.411,0.166,5.188-0.116c-1.475,0.011-2.949,0.018-4.428,0.036L199.1,568.811z"
					/>
				<linearGradient id="SVGID_1_" gradientUnits="userSpaceOnUse" x1="51.6289" y1="572.0947" x2="291.2416" y2="572.0947">
					<stop  offset="0" style="stop-color:#6C4A27"/>
					<stop  offset="0.1843" style="stop-color:#875F2E"/>
					<stop  offset="0.7647" style="stop-color:#875F2E"/>
					<stop  offset="1" style="stop-color:#825724"/>
				</linearGradient>
				<path fill="url(#SVGID_1_)" d="M264.51,567.75c-0.007,0-0.013,0-0.02,0.001V547.05c-5.77,0.72-11.52,1.37-17.23,1.931
					c-17.2,1.85-30.73,2.77-40.59,2.77c-19.27,0-38.6,0.9-57.99,2.69c-16.03,1.739-25.64,2.609-28.83,2.609
					c-12.16-0.79-18.86-1.18-20.09-1.18c-3.2,0-12.86,1.149-29,3.45c-14.45,2.069-28.74,3.39-42.86,3.949v33.87
					c12.05-1.62,23.59-3.58,34.63-5.88c-4.94,0.34-9.89,0.681-14.88,1.01c-0.96,0.11-1.83,0.051-2.61-0.17
					c5.22-1.84,11.07-2.569,17.57-2.18c2.08,0.17,4.12,0.17,6.14,0c0.17-0.06,0.37-0.109,0.59-0.17c1.74-0.39,3.47-0.729,5.21-1.01
					c-1.68,0.109-3.33,0.31-4.96,0.59c-1.8,0.22-2.81-0.11-3.03-1.01c5.54-0.45,11.18-0.87,16.89-1.26
					c0.17-0.051,0.37-0.08,0.59-0.08c6.17-0.9,12.11-1.511,17.82-1.851c-8.79-0.22-17.48-0.59-26.05-1.09l0.17-0.08
					c18.82,0.17,37.62,0.56,56.39,1.18c0.06,0,0.11,0.08,0.17,0.25c-5.15,0-10.36,0-15.63,0c2.86,0.28,6.5,0.641,10.93,1.091
					c12.16,0.5,24.35,0.729,36.56,0.67c0.11,0,0.19,0.08,0.25,0.25c-9.08,0.34-18.13,0.39-27.15,0.17
					c9.8,0.949,16.81,1.43,21.01,1.43c2.41,0,5.1-0.02,8.07-0.08c16.13-1.79,32.3-2.99,48.49-3.61c7.01-0.5,13.98-1.06,20.93-1.68
					c0.9,0.11,1.79,0.25,2.69,0.42l-0.08,0.17c-4.65,0.5-9.3,0.92-13.95,1.261c-0.002,0-0.005,0.001-0.007,0.001
					c-7.614,0.559-15.208,0.898-22.763,1.009c-8.52,0.72-17.17,1.45-25.97,2.18c7.79-0.34,16.97-0.76,27.57-1.26
					c6.992-0.609,14.043-1.259,21.155-1.928c-2.405,0.389-4.831,0.749-7.295,1.088c13.73-0.84,29.44-1.88,47.15-3.11h-0.01
					L264.51,567.75z"/>
			</g>
			<path fill="#6C4A27" d="M241.53,544.3c1.62,0.11,3.17,0.2,4.62,0.25c6.05-0.34,12.16-0.67,18.32-1.01v3.53
				c-5.77,0.729-11.51,1.369-17.23,1.93c-17.2,1.85-30.73,2.77-40.59,2.77c-19.27,0-38.6,0.9-57.99,2.69
				c-16.02,1.74-25.63,2.61-28.83,2.61c-12.16-0.79-18.85-1.181-20.09-1.181c-3.19,0-12.86,1.15-29,3.45
				c-14.46,2.07-28.74,3.39-42.86,3.95v-8.07h0.04c5.83-2.13,11.54-4.34,17.14-6.64c-1.85,0.17-3.7,0.25-5.55,0.25v-0.17
				c2.75-0.45,5.52-0.87,8.32-1.26c0-0.061,0.03-0.08,0.08-0.08c4.82-1.681,10.67-2.58,17.57-2.69c-2.58-0.45-5.18-1.01-7.82-1.68
				c-4.26,0.22-8.43,0.84-12.52,1.85c-2.02,0.45-3.73,0.7-5.13,0.76c0.56-0.899,1.82-1.51,3.78-1.85c3.98-0.67,7.98-1.15,12.02-1.43
				c2.07,0.109,4.09,0.25,6.05,0.42v0.08c-1.06,0-2.16,0.029-3.28,0.08c3.64,0.729,7.34,1.34,11.09,1.85
				c3.47,0.11,7.59,0.59,12.35,1.43c1.63,0.11,3.25,0.221,4.88,0.341v0.17c-0.73,0-1.43,0-2.1,0c2.3,0.39,4.82,0.899,7.56,1.51
				c10.53,2.35,20.56,3.56,30.09,3.609v0.08 M122.45,551.85c0.1-0.05,0.23-0.08,0.38-0.08c-0.1,0-0.23,0-0.38,0
				c0-0.22,17.43-1.34,52.28-3.359c15.86-2.021,31.88-3.33,48.07-3.95c0.45-0.06,0.95-0.08,1.51-0.08
				c-12.1,1.06-24.43,2.19-36.98,3.36c6.89-0.391,14.32-0.811,22.27-1.261"/>
			<path fill="#825724" d="M264.5,583.46v8.24c-5.1,0.06-10.87,0.14-17.31,0.25c-5.1,0.109-15.69,1.18-31.77,3.189
				c-0.11,0-0.25,0-0.42,0c-16.81,0.78-33.51,1.761-50.09,2.94l-34.71-0.76c-8.18,0-16.33,0.359-24.46,1.09
				c-3.87-0.17-7.7-0.45-11.51-0.84l-0.34,0.08c2.47,0.5,4.93,0.899,7.4,1.18c-11.04,1.12-21.91,2.939-32.61,5.46
				c-8.01,0.729-16,1.01-23.95,0.84c6.5,0.391,13.08,0.45,19.75,0.17c-1.29,0.28-2.58,0.62-3.87,1.011
				c-1.06-0.11-2.16-0.171-3.28-0.171c-0.28,0.061-0.64,0.11-1.09,0.171c-8.52,0.729-16.98,1.26-25.38,1.6
				c8.8,0.22,17.73-0.03,26.81-0.76c-3.47,1.01-6.89,2.069-10.25,3.189c-0.39,0.11-0.76,0.22-1.09,0.34
				c0.17-0.22,0.11-0.449-0.17-0.67c-3.08,0.17-5.94,0.641-8.57,1.431c2.35,0,3.89,0.22,4.62,0.67c-2.47,0.899-4.96,1.819-7.48,2.77
				c-0.22,0.061-0.39,0.11-0.5,0.17v0.08c-2.07,0.84-4.17,1.681-6.3,2.521V597.14c12.05-1.63,23.59-3.59,34.63-5.88
				c-4.93,0.34-9.89,0.67-14.88,1.011c-0.95,0.109-1.82,0.06-2.61-0.171c5.21-1.85,11.07-2.579,17.57-2.18
				c2.07,0.17,4.12,0.17,6.14,0c0.17-0.06,0.36-0.109,0.59-0.17c1.74-0.39,3.47-0.729,5.21-1.01c-1.68,0.109-3.33,0.31-4.96,0.59
				c-1.79,0.22-2.8-0.11-3.03-1.01c5.55-0.45,11.18-0.87,16.89-1.26c0.17-0.061,0.36-0.08,0.59-0.08
				c6.16-0.9,12.1-1.511,17.82-1.851c-8.8-0.22-17.48-0.59-26.05-1.09l0.17-0.08c18.83,0.17,37.62,0.561,56.39,1.18
				c0.06,0,0.11,0.08,0.17,0.25c-5.15,0-10.37,0-15.63,0c2.86,0.28,6.5,0.641,10.93,1.091c12.16,0.5,24.35,0.729,36.56,0.67
				c0.11,0,0.2,0.08,0.25,0.25c-9.08,0.34-18.13,0.39-27.15,0.17c9.81,0.95,16.81,1.43,21.01,1.43c2.41,0,5.1-0.03,8.07-0.08
				c16.14-1.79,32.3-3,48.49-3.609c7-0.5,13.98-1.061,20.93-1.681c0.9,0.11,1.79,0.25,2.69,0.42l-0.08,0.17
				c-4.65,0.5-9.3,0.92-13.95,1.261c-2.41,0.39-4.85,0.76-7.31,1.09C231.08,585.73,246.8,584.69,264.5,583.46z M243.07,580.35
				c-4.87,0-9.41-0.33-13.62-1.01l0.17-0.08c4.71-0.45,9.22-0.109,13.53,1.01L243.07,580.35z M173.56,598.25
				c10.14-0.56,20.31-1.15,30.51-1.77c-11.21,1.35-17.62,2.02-19.25,2.02L173.56,598.25z M175.92,588.67
				c7.79-0.34,16.98-0.76,27.57-1.26c7-0.62,14.06-1.26,21.18-1.93c-7.62,0.56-15.21,0.899-22.78,1.01
				C193.37,587.21,184.71,587.94,175.92,588.67z"/>
			<path fill="#784817" d="M204.07,596.49c-10.2,0.62-20.37,1.21-30.51,1.77c-13.33,0.78-26.64,1.57-39.92,2.351v-0.17
				c10.36-0.841,20.79-1.631,31.26-2.351c16.58-1.18,33.28-2.16,50.09-2.939c0.17,0,0.31,0,0.42,0c0.9-0.061,1.79-0.11,2.69-0.17
				c1.29,0.06,2.55,0.17,3.78,0.34l-0.08,0.17C215.87,595.81,209.96,596.15,204.07,596.49z M196.93,609.43
				c-6.44-0.17-12.94-0.449-19.5-0.84h0.17c11.65-0.729,23.31-1.01,34.96-0.84c9.25,0.17,18.46,0.64,27.65,1.43
				c0.11,0,0.2,0.061,0.25,0.17C226.12,609.85,211.61,609.88,196.93,609.43z M236.26,605.82c4.71,0.33,9.3,1.06,13.78,2.18
				c0.11,0,0.2,0.03,0.25,0.08c-6.67-0.73-13.25-1.37-19.75-1.93c-3.02-0.221-6.08-0.42-9.16-0.591
				C226.48,605.28,231.44,605.37,236.26,605.82z M101.29,598.84c-2.47-0.28-4.93-0.67-7.4-1.18l0.34-0.08
				c3.81,0.39,7.65,0.67,11.51,0.84c4.09,0.17,8.24,0.22,12.44,0.17v0.08C112.41,599.34,106.78,599.4,101.29,598.84z M60.61,606.32
				c0.78,0.06,1.57,0.109,2.35,0.17v0.17c-1.79,0.22-3.56,0.39-5.3,0.5c-9.08,0.729-18.01,0.979-26.81,0.76
				c8.4-0.34,16.86-0.87,25.38-1.6c0.45-0.061,0.81-0.11,1.09-0.17C58.45,606.15,59.54,606.21,60.61,606.32z M64.47,605.31
				c-6.67,0.28-13.25,0.221-19.75-0.17c7.96,0.17,15.94-0.109,23.95-0.84c2.41-0.22,4.85-0.5,7.31-0.84
				c1.46,0.06,2.83,0.2,4.12,0.42v0.08C74.9,604.64,69.69,605.09,64.47,605.31z M76.07,612.54c-3.81,0.11-7.59,0.22-11.35,0.33
				c0.39-0.45,0.87-0.76,1.43-0.92c-4.76,0.22-9.53,0.14-14.29-0.25c0-0.061-0.06-0.141-0.17-0.25c2.97-0.11,6.05-0.22,9.25-0.34
				c2.52-0.17,5.07-0.341,7.65-0.5c1.85,0.06,3.7,0.199,5.55,0.42v0.08c-1.51,0.22-3.05,0.42-4.62,0.59
				c3.81,0.17,8.32,0.34,13.53,0.5v0.08C80.75,612.4,78.43,612.48,76.07,612.54z M94.48,614.98c-10.31-0.221-20.76-0.45-31.35-0.671
				l0.17-0.079c7.12-0.391,14.23-0.591,21.35-0.591c11.54-0.06,23.11,0.42,34.71,1.431c0.06,0,0.11,0.08,0.17,0.25
				C111.23,615.26,102.88,615.14,94.48,614.98z M174.32,612.29c0.84,0,1.65-0.03,2.44-0.08c0.9,0,1.68-0.03,2.35-0.08
				c11.15-0.11,22.19,0.11,33.11,0.67v0.08c-14.9-0.06-29.86,0.28-44.88,1.01c-1.62,0.11-3.22,0.11-4.79,0
				c-1.29-0.109-2.49-0.31-3.61-0.59c0.28-0.5,0.73-0.7,1.35-0.59c1.79,0.39,3.7,0.45,5.71,0.17c0.95-0.22,2.02-0.33,3.19-0.33
				C170.99,612.43,172.7,612.34,174.32,612.29z M184.57,601.36c9.08-1.23,18.15-2.66,27.23-4.29c0.06,0,0.14,0,0.25,0
				c-8.35,2.58-17.51,4.029-27.48,4.37V601.36z M186.51,616.24c-13.5,1.51-26.56,1.37-39.17-0.42c0.06,0,0.14,0,0.25,0
				c12.89-0.11,25.8-0.061,38.75,0.17C186.4,615.99,186.45,616.07,186.51,616.24z M94.81,602.54c12.72-0.11,25.35-0.95,37.9-2.521
				c-11.43,2.521-24.01,3.45-37.74,2.771C94.93,602.73,94.87,602.65,94.81,602.54z M42.2,612.12c-0.73-0.45-2.27-0.67-4.62-0.67
				c2.63-0.78,5.49-1.26,8.57-1.431c0.28,0.221,0.34,0.45,0.17,0.671c-0.28,0.5-1.46,0.979-3.53,1.43
				C42.62,612.18,42.43,612.18,42.2,612.12z M34.22,615.14v-0.08c0.11-0.06,0.28-0.109,0.5-0.17c3.25-0.67,6.47-1.569,9.67-2.689
				c0.06-0.061,0.14-0.08,0.25-0.08C41.89,614.19,38.42,615.2,34.22,615.14z M143.22,615.14c-0.5-0.06-0.95-0.14-1.35-0.25
				c-0.67-0.109-0.62-0.199,0.17-0.25C142.38,614.81,142.78,614.98,143.22,615.14z"/>
			<path fill="#784817" d="M204.07,596.49c-10.2,0.62-20.37,1.21-30.51,1.77c-13.33,0.78-26.64,1.57-39.92,2.351v-0.17
				c10.36-0.841,20.79-1.631,31.26-2.351c16.58-1.18,33.28-2.16,50.09-2.939c0.17,0,0.31,0,0.42,0c0.9-0.061,1.79-0.11,2.69-0.17
				c1.29,0.06,2.55,0.17,3.78,0.34l-0.08,0.17C215.87,595.81,209.96,596.15,204.07,596.49z M196.93,609.43
				c-6.44-0.17-12.94-0.449-19.5-0.84h0.17c11.65-0.729,23.31-1.01,34.96-0.84c9.25,0.17,18.46,0.64,27.65,1.43
				c0.11,0,0.2,0.061,0.25,0.17C226.12,609.85,211.61,609.88,196.93,609.43z M236.26,605.82c4.71,0.33,9.3,1.06,13.78,2.18
				c0.11,0,0.2,0.03,0.25,0.08c-6.67-0.73-13.25-1.37-19.75-1.93c-3.02-0.221-6.08-0.42-9.16-0.591
				C226.48,605.28,231.44,605.37,236.26,605.82z M101.29,598.84c-2.47-0.28-4.93-0.67-7.4-1.18l0.34-0.08
				c3.81,0.39,7.65,0.67,11.51,0.84c4.09,0.17,8.24,0.22,12.44,0.17v0.08C112.41,599.34,106.78,599.4,101.29,598.84z M60.61,606.32
				c0.78,0.06,1.57,0.109,2.35,0.17v0.17c-1.79,0.22-3.56,0.39-5.3,0.5c-9.08,0.729-18.01,0.979-26.81,0.76
				c8.4-0.34,16.86-0.87,25.38-1.6c0.45-0.061,0.81-0.11,1.09-0.17C58.45,606.15,59.54,606.21,60.61,606.32z M64.47,605.31
				c-6.67,0.28-13.25,0.221-19.75-0.17c7.96,0.17,15.94-0.109,23.95-0.84c2.41-0.22,4.85-0.5,7.31-0.84
				c1.46,0.06,2.83,0.2,4.12,0.42v0.08C74.9,604.64,69.69,605.09,64.47,605.31z M76.07,612.54c-3.81,0.11-7.59,0.22-11.35,0.33
				c0.39-0.45,0.87-0.76,1.43-0.92c-4.76,0.22-9.53,0.14-14.29-0.25c0-0.061-0.06-0.141-0.17-0.25c2.97-0.11,6.05-0.22,9.25-0.34
				c2.52-0.17,5.07-0.341,7.65-0.5c1.85,0.06,3.7,0.199,5.55,0.42v0.08c-1.51,0.22-3.05,0.42-4.62,0.59
				c3.81,0.17,8.32,0.34,13.53,0.5v0.08C80.75,612.4,78.43,612.48,76.07,612.54z M94.48,614.98c-10.31-0.221-20.76-0.45-31.35-0.671
				l0.17-0.079c7.12-0.391,14.23-0.591,21.35-0.591c11.54-0.06,23.11,0.42,34.71,1.431c0.06,0,0.11,0.08,0.17,0.25
				C111.23,615.26,102.88,615.14,94.48,614.98z M174.32,612.29c0.84,0,1.65-0.03,2.44-0.08c0.9,0,1.68-0.03,2.35-0.08
				c11.15-0.11,22.19,0.11,33.11,0.67v0.08c-14.9-0.06-29.86,0.28-44.88,1.01c-1.62,0.11-3.22,0.11-4.79,0
				c-1.29-0.109-2.49-0.31-3.61-0.59c0.28-0.5,0.73-0.7,1.35-0.59c1.79,0.39,3.7,0.45,5.71,0.17c0.95-0.22,2.02-0.33,3.19-0.33
				C170.99,612.43,172.7,612.34,174.32,612.29z M184.57,601.36c9.08-1.23,18.15-2.66,27.23-4.29c0.06,0,0.14,0,0.25,0
				c-8.35,2.58-17.51,4.029-27.48,4.37V601.36z M186.51,616.24c-13.5,1.51-26.56,1.37-39.17-0.42c0.06,0,0.14,0,0.25,0
				c12.89-0.11,25.8-0.061,38.75,0.17C186.4,615.99,186.45,616.07,186.51,616.24z M94.81,602.54c12.72-0.11,25.35-0.95,37.9-2.521
				c-11.43,2.521-24.01,3.45-37.74,2.771C94.93,602.73,94.87,602.65,94.81,602.54z M42.2,612.12c-0.73-0.45-2.27-0.67-4.62-0.67
				c2.63-0.78,5.49-1.26,8.57-1.431c0.28,0.221,0.34,0.45,0.17,0.671c-0.28,0.5-1.46,0.979-3.53,1.43
				C42.62,612.18,42.43,612.18,42.2,612.12z M34.22,615.14v-0.08c0.11-0.06,0.28-0.109,0.5-0.17c3.25-0.67,6.47-1.569,9.67-2.689
				c0.06-0.061,0.14-0.08,0.25-0.08C41.89,614.19,38.42,615.2,34.22,615.14z M143.22,615.14c-0.5-0.06-0.95-0.14-1.35-0.25
				c-0.67-0.109-0.62-0.199,0.17-0.25C142.38,614.81,142.78,614.98,143.22,615.14z"/>
			
				<linearGradient id="SVGID_2_" gradientUnits="userSpaceOnUse" x1="166.3628" y1="575.2275" x2="189.7409" y2="575.2275" gradientTransform="matrix(0.1132 1.6771 1.6799 -0.0713 -829.4066 359.8667)">
				<stop  offset="0" style="stop-color:#825724"/>
				<stop  offset="0.0745" style="stop-color:#784817"/>
				<stop  offset="0.1843" style="stop-color:#784817"/>
				<stop  offset="0.7176" style="stop-color:#78491A"/>
				<stop  offset="1" style="stop-color:#764B20"/>
			</linearGradient>
			<path fill="url(#SVGID_2_)" d="M230.55,606.15c-5.99,0.5-11.99,1.04-17.98,1.6c-11.65-0.17-23.31,0.11-34.96,0.84h-0.17
				c6.56,0.391,13.06,0.67,19.5,0.84c-4.09,0.45-8.24,0.95-12.44,1.511c-3.64,0.5-7.03,0.949-10.17,1.34
				c-1.63,0.06-3.33,0.14-5.13,0.25c-1.18,0-2.24,0.109-3.19,0.33c-2.02,0.28-3.92,0.22-5.71-0.17c-0.62-0.11-1.06,0.08-1.35,0.59
				c1.12,0.28,2.33,0.479,3.61,0.59c-7.4,0.9-11.54,1.43-12.44,1.6c-11.82,1.29-22.16,1.931-31.01,1.931
				c-4.15,0-12.35-0.811-24.62-2.44c8.4,0.17,16.75,0.28,25.04,0.34c-0.06-0.17-0.11-0.25-0.17-0.25
				c-11.6-1.01-23.17-1.479-34.71-1.43c-3.31-0.45-6.16-0.81-8.57-1.09c2.35-0.061,4.68-0.14,6.98-0.25v-0.08
				c-5.21-0.17-9.72-0.34-13.53-0.5c1.57-0.17,3.11-0.36,4.62-0.59v-0.08c-1.85-0.22-3.7-0.36-5.55-0.42
				c-2.58,0.17-5.13,0.34-7.65,0.5c-4.15-0.5-8.57-0.761-13.28-0.761c-0.06,0-0.14,0-0.25,0c3.36-1.119,6.78-2.189,10.25-3.189
				c1.74-0.11,3.5-0.28,5.3-0.5v-0.17c-0.78-0.061-1.57-0.11-2.35-0.17c1.29-0.391,2.58-0.73,3.87-1.01
				c5.21-0.221,10.42-0.67,15.63-1.341v-0.08c-1.29-0.22-2.66-0.359-4.12-0.42c-2.47,0.341-4.9,0.62-7.31,0.841
				c10.7-2.521,21.57-4.341,32.61-5.461c5.49,0.561,11.12,0.5,16.89-0.17v-0.08c-4.2,0.061-8.35,0-12.44-0.17
				c8.12-0.729,16.28-1.09,24.46-1.09l34.71,0.76c-10.48,0.73-20.9,1.511-31.26,2.351v0.17c13.28-0.79,26.59-1.57,39.92-2.35
				l11.26,0.25c1.62,0,8.04-0.671,19.25-2.021c5.88-0.33,11.79-0.67,17.73-1.01l0.08-0.17c-1.23-0.17-2.49-0.28-3.78-0.34
				c-0.9,0.06-1.79,0.109-2.69,0.17c16.08-2.021,26.67-3.08,31.77-3.19c6.44-0.11,12.21-0.2,17.31-0.25v12.86
				c-9.19,0.22-18.6,0.64-28.24,1.26c-4.82-0.45-9.78-0.53-14.88-0.25C224.47,605.73,227.52,605.93,230.55,606.15z M184.57,601.36
				v0.08c9.97-0.341,19.13-1.79,27.48-4.37c-0.11,0-0.2,0-0.25,0C202.73,598.7,193.65,600.13,184.57,601.36z M94.81,602.54
				c0.06,0.11,0.11,0.2,0.17,0.25c13.73,0.67,26.31-0.25,37.74-2.771C120.17,601.58,107.53,602.43,94.81,602.54z M143.22,615.14
				c-0.45-0.17-0.84-0.34-1.18-0.5c-0.78,0.061-0.84,0.141-0.17,0.25C142.27,615,142.72,615.09,143.22,615.14z"/>
			
				<linearGradient id="SVGID_3_" gradientUnits="userSpaceOnUse" x1="166.3628" y1="575.2275" x2="189.7409" y2="575.2275" gradientTransform="matrix(0.1132 1.6771 1.6799 -0.0713 -829.4066 359.8667)">
				<stop  offset="0" style="stop-color:#825724"/>
				<stop  offset="0.0745" style="stop-color:#784817"/>
				<stop  offset="0.1843" style="stop-color:#784817"/>
				<stop  offset="0.7176" style="stop-color:#78491A"/>
				<stop  offset="1" style="stop-color:#764B20"/>
			</linearGradient>
			<path fill="url(#SVGID_3_)" d="M230.55,606.15c-5.99,0.5-11.99,1.04-17.98,1.6c-11.65-0.17-23.31,0.11-34.96,0.84h-0.17
				c6.56,0.391,13.06,0.67,19.5,0.84c-4.09,0.45-8.24,0.95-12.44,1.511c-3.64,0.5-7.03,0.949-10.17,1.34
				c-1.63,0.06-3.33,0.14-5.13,0.25c-1.18,0-2.24,0.109-3.19,0.33c-2.02,0.28-3.92,0.22-5.71-0.17c-0.62-0.11-1.06,0.08-1.35,0.59
				c1.12,0.28,2.33,0.479,3.61,0.59c-7.4,0.9-11.54,1.43-12.44,1.6c-11.82,1.29-22.16,1.931-31.01,1.931
				c-4.15,0-12.35-0.811-24.62-2.44c8.4,0.17,16.75,0.28,25.04,0.34c-0.06-0.17-0.11-0.25-0.17-0.25
				c-11.6-1.01-23.17-1.479-34.71-1.43c-3.31-0.45-6.16-0.81-8.57-1.09c2.35-0.061,4.68-0.14,6.98-0.25v-0.08
				c-5.21-0.17-9.72-0.34-13.53-0.5c1.57-0.17,3.11-0.36,4.62-0.59v-0.08c-1.85-0.22-3.7-0.36-5.55-0.42
				c-2.58,0.17-5.13,0.34-7.65,0.5c-4.15-0.5-8.57-0.761-13.28-0.761c-0.06,0-0.14,0-0.25,0c3.36-1.119,6.78-2.189,10.25-3.189
				c1.74-0.11,3.5-0.28,5.3-0.5v-0.17c-0.78-0.061-1.57-0.11-2.35-0.17c1.29-0.391,2.58-0.73,3.87-1.01
				c5.21-0.221,10.42-0.67,15.63-1.341v-0.08c-1.29-0.22-2.66-0.359-4.12-0.42c-2.47,0.341-4.9,0.62-7.31,0.841
				c10.7-2.521,21.57-4.341,32.61-5.461c5.49,0.561,11.12,0.5,16.89-0.17v-0.08c-4.2,0.061-8.35,0-12.44-0.17
				c8.12-0.729,16.28-1.09,24.46-1.09l34.71,0.76c-10.48,0.73-20.9,1.511-31.26,2.351v0.17c13.28-0.79,26.59-1.57,39.92-2.35
				l11.26,0.25c1.62,0,8.04-0.671,19.25-2.021c5.88-0.33,11.79-0.67,17.73-1.01l0.08-0.17c-1.23-0.17-2.49-0.28-3.78-0.34
				c-0.9,0.06-1.79,0.109-2.69,0.17c16.08-2.021,26.67-3.08,31.77-3.19c6.44-0.11,12.21-0.2,17.31-0.25v12.86
				c-9.19,0.22-18.6,0.64-28.24,1.26c-4.82-0.45-9.78-0.53-14.88-0.25C224.47,605.73,227.52,605.93,230.55,606.15z M184.57,601.36
				v0.08c9.97-0.341,19.13-1.79,27.48-4.37c-0.11,0-0.2,0-0.25,0C202.73,598.7,193.65,600.13,184.57,601.36z M94.81,602.54
				c0.06,0.11,0.11,0.2,0.17,0.25c13.73,0.67,26.31-0.25,37.74-2.771C120.17,601.58,107.53,602.43,94.81,602.54z M143.22,615.14
				c-0.45-0.17-0.84-0.34-1.18-0.5c-0.78,0.061-0.84,0.141-0.17,0.25C142.27,615,142.72,615.09,143.22,615.14z"/>
			<path fill="#764B20" d="M236.26,605.82c9.64-0.62,19.05-1.04,28.24-1.261v35.971c-6.11,0.84-11.91,1.46-17.4,1.85
				c-4.26,0.95-8.68,2.021-13.28,3.19c-0.06,0-0.11-0.03-0.17-0.08c2.63-1.12,5.38-2.04,8.24-2.771c-2.86,0.11-5.63,0.17-8.32,0.17
				c-0.22,0-0.42,0-0.59,0c-9.08,0.95-18.32,1.82-27.73,2.601c-0.06,0-0.08-0.08-0.08-0.25c6.67-0.9,13.62-1.681,20.84-2.351
				c-0.17-0.06-0.34-0.06-0.5,0c-4.31,0.5-8.74,0.87-13.28,1.091l-0.08-0.25c2.97-0.28,6-0.62,9.08-1.011
				c-4.71-0.22-9.39-0.53-14.04-0.92c-0.62-0.06-1.18-0.08-1.68-0.08c-0.11,0-0.22-0.06-0.34-0.17c-2.24-0.22-4.48-0.45-6.72-0.67
				c7.12-0.56,14.32-0.979,21.6-1.26v-0.08c-1.74-0.11-3.5-0.22-5.29-0.34c-15.07,1.34-31.1,1.79-48.07,1.34
				c-4.43-0.17-8.88-0.28-13.36-0.34c11.26-0.28,22.69-0.561,34.29-0.84c-1.96-0.341-3.92-0.641-5.88-0.921
				c0.45-0.17,0.98-0.279,1.6-0.34c-0.84,0.061-1.54,0.11-2.1,0.17c-0.11,0-0.22-0.029-0.34-0.08c-0.39-0.06-0.78-0.109-1.18-0.17
				c-1.96,0.11-3.87,0.25-5.71,0.42c-3.75,0.33-7.17,0.25-10.25-0.25c2.91-0.22,5.94-0.42,9.08-0.59
				c-7.56-0.17-15.07-0.56-22.52-1.18c7.12,0.17,14.2,0.2,21.26,0.08c-2.97-0.561-5.38-0.98-7.23-1.26
				c5.04-0.45,9.92-1.011,14.62-1.681c-0.11,0-0.2,0-0.25,0c-6.16,0.391-12.24,0.73-18.24,1.011c-0.45-0.11-0.87-0.17-1.26-0.17
				c-0.06,0.109-0.08,0.25-0.08,0.42c-0.11,0-0.25-0.03-0.42-0.08c-0.22-0.11-0.48-0.2-0.76-0.25c-0.17-0.061-0.39-0.11-0.67-0.17
				c-0.06,0-0.11,0-0.17,0c-0.56,0.06-0.93-0.061-1.09-0.341c-0.73-0.109-1.43-0.17-2.1-0.17c1.01-0.109,2.04-0.2,3.11-0.25
				c0.67-0.109,1.35-0.22,2.02-0.34c-2.13-0.11-4.26-0.25-6.39-0.42c-1.68,0.22-3.36,0.42-5.04,0.59c-0.06,0-0.14,0-0.25,0
				c-1.74,0-5.99,0.34-12.77,1.011c5.21,0.06,10.42,0.279,15.63,0.67c1.63-0.341,3.19-0.7,4.71-1.091
				c0.62,0.17,1.26,0.311,1.93,0.42l-0.08,0.171c-1.12,0.22-2.21,0.449-3.28,0.67c4.2,0.22,8.43,0.529,12.69,0.92
				c0.06,0,0.11,0.08,0.17,0.25c-5.55-0.221-11.12-0.42-16.73-0.591c-19.72,3.03-39.84,4.591-60.34,4.71
				c-0.28,0-0.53-0.029-0.76-0.079c18.49-1.62,37.34-3.221,56.56-4.79c-5.49-0.221-10.93-0.45-16.3-0.67
				c-4.26,0.39-9.27,0.869-15.04,1.43c-19.11,1.96-31.94,2.939-38.49,2.939c-2.41,0-10.7-0.279-24.88-0.84
				c-9.64-0.39-17.12-0.64-22.44-0.76v-20.09c2.13-0.84,4.23-1.68,6.3-2.521c4.2,0.061,7.68-0.95,10.42-3.029
				c-0.11,0-0.2,0.029-0.25,0.079c-3.19,1.12-6.42,2.021-9.67,2.69c2.52-0.95,5.01-1.88,7.48-2.77c0.22,0.06,0.42,0.06,0.59,0
				c2.07-0.45,3.25-0.921,3.53-1.431c0.34-0.109,0.7-0.22,1.09-0.34c0.11,0,0.2,0,0.25,0c4.71,0,9.13,0.25,13.28,0.76
				c-3.19,0.11-6.28,0.221-9.25,0.34c0.11,0.11,0.17,0.2,0.17,0.25c4.76,0.391,9.52,0.48,14.29,0.25
				c-0.56,0.171-1.04,0.48-1.43,0.921c3.75-0.11,7.54-0.221,11.35-0.33c2.41,0.279,5.27,0.64,8.57,1.09
				c-7.12,0-14.23,0.2-21.35,0.59l-0.17,0.08c10.59,0.22,21.04,0.45,31.35,0.67c12.27,1.63,20.48,2.44,24.62,2.44
				c8.85,0,19.19-0.641,31.01-1.931c0.9-0.17,5.04-0.7,12.44-1.6c1.57,0.11,3.17,0.11,4.79,0c15.02-0.73,29.98-1.061,44.88-1.01
				v-0.08c-10.93-0.561-21.96-0.79-33.11-0.67c-0.67,0.06-1.46,0.08-2.35,0.08c-0.78,0.06-1.6,0.079-2.44,0.079
				c3.14-0.39,6.53-0.84,10.17-1.34c4.2-0.56,8.35-1.06,12.44-1.51c14.68,0.45,29.19,0.42,43.54-0.08
				c-0.06-0.109-0.14-0.17-0.25-0.17c-9.19-0.78-18.41-1.26-27.65-1.43c5.99-0.561,11.99-1.09,17.98-1.601
				c6.5,0.561,13.08,1.21,19.75,1.931c-0.06-0.061-0.14-0.08-0.25-0.08C245.56,606.88,240.97,606.15,236.26,605.82z M195,637.17
				c-0.78,0.061-1.6,0.08-2.44,0.08c-1.68,0.11-3.33,0.17-4.96,0.17c-0.95,0.061-1.9,0.11-2.86,0.17
				c9.19,0.34,18.46,0.73,27.82,1.18c-0.06-0.17-0.14-0.25-0.25-0.25C206.54,637.89,200.77,637.44,195,637.17z M186.51,616.24
				c-0.06-0.17-0.11-0.25-0.17-0.25c-12.94-0.221-25.86-0.28-38.75-0.17c-0.11,0-0.2,0-0.25,0
				C159.95,617.61,173,617.75,186.51,616.24z M81.03,643.3c-1.4,0.11-2.89,0.25-4.46,0.42c-10.37,0.84-21.21,1.23-32.52,1.181
				l-0.17-0.25c9.58-0.62,19.33-1.061,29.25-1.341c0.56,0,1.12,0,1.68,0c2.8-0.109,5.6-0.199,8.4-0.25
				C82.49,643.1,81.76,643.19,81.03,643.3z M173.4,644.64c8.91-0.22,17.82-0.76,26.73-1.6c-7.96,1.85-16.86,2.41-26.73,1.68V644.64z
				 M83.81,644.64c-17.43,2.13-34.71,1.931-51.86-0.59c17.09,1.62,34.35,1.74,51.77,0.34L83.81,644.64z M106.08,649.43
				c25.33-3.64,51.13-5.569,77.4-5.8c-25.16,1.061-50.85,3.08-77.07,6.05C106.36,649.69,106.25,649.6,106.08,649.43z"/>
			<path fill="#7A5125" d="M264.5,640.53v11.93H27.92v-14.71c5.32,0.11,12.8,0.36,22.44,0.76c14.18,0.561,22.47,0.84,24.88,0.84
				c6.56,0,19.39-0.979,38.49-2.939c5.77-0.561,10.79-1.04,15.04-1.43c5.38,0.22,10.81,0.449,16.3,0.67
				c-19.22,1.569-38.07,3.17-56.56,4.79c0.22,0.06,0.48,0.079,0.76,0.079c20.51-0.109,40.62-1.68,60.34-4.71
				c5.6,0.171,11.18,0.36,16.73,0.591c-0.06-0.17-0.11-0.25-0.17-0.25c-4.26-0.391-8.49-0.7-12.69-0.92
				c1.06-0.221,2.16-0.45,3.28-0.67l0.08-0.171c-0.67-0.109-1.32-0.25-1.93-0.42c-1.51,0.391-3.08,0.761-4.71,1.091
				c-5.21-0.391-10.42-0.62-15.63-0.67c6.78-0.671,11.04-1.011,12.77-1.011c0.11,0,0.2,0,0.25,0c1.68-0.17,3.36-0.359,5.04-0.59
				c2.13,0.17,4.26,0.31,6.39,0.42c-0.67,0.11-1.35,0.22-2.02,0.34c-1.06,0.061-2.1,0.141-3.11,0.25c0.67,0,1.37,0.061,2.1,0.17
				c0.17,0.28,0.53,0.391,1.09,0.341c0.06,0,0.11,0,0.17,0c0.28,0.06,0.5,0.109,0.67,0.17c0.28,0.06,0.53,0.14,0.76,0.25
				c0.17,0.06,0.31,0.08,0.42,0.08c0-0.17,0.03-0.311,0.08-0.42c0.39,0,0.81,0.06,1.26,0.17c5.99-0.28,12.07-0.62,18.24-1.011
				c0.06,0,0.14,0,0.25,0c-4.71,0.67-9.58,1.23-14.62,1.681c1.85,0.279,4.26,0.699,7.23,1.26c-7.06,0.109-14.15,0.08-21.26-0.08
				c7.45,0.62,14.96,1.01,22.52,1.18c-3.14,0.17-6.16,0.36-9.08,0.59c3.08,0.5,6.5,0.591,10.25,0.25c1.85-0.17,3.75-0.31,5.71-0.42
				c0.39,0.061,0.78,0.11,1.18,0.17c0.11,0.061,0.22,0.08,0.34,0.08c0.56-0.06,1.26-0.109,2.1-0.17c-0.62,0.061-1.15,0.17-1.6,0.34
				c1.96,0.28,3.92,0.591,5.88,0.921c-11.6,0.279-23.03,0.56-34.29,0.84c4.48,0.06,8.94,0.17,13.36,0.34c16.98,0.45,33,0,48.07-1.34
				c1.79,0.109,3.56,0.22,5.29,0.34v0.08c-7.28,0.28-14.48,0.7-21.6,1.26c2.24,0.22,4.48,0.45,6.72,0.67
				c0.11,0.11,0.22,0.17,0.34,0.17c0.5,0,1.06,0.03,1.68,0.08c4.65,0.391,9.33,0.7,14.04,0.92c-3.08,0.391-6.11,0.73-9.08,1.011
				l0.08,0.25c4.54-0.221,8.96-0.591,13.28-1.091c0.17-0.06,0.34-0.06,0.5,0c-7.23,0.67-14.18,1.46-20.84,2.351
				c0,0.17,0.03,0.25,0.08,0.25c9.41-0.78,18.66-1.65,27.73-2.601c0.17,0,0.36,0,0.59,0c2.69,0,5.46-0.06,8.32-0.17
				c-2.86,0.73-5.6,1.65-8.24,2.771c0.06,0.06,0.11,0.08,0.17,0.08c4.59-1.181,9.02-2.24,13.28-3.19
				C252.59,641.98,258.39,641.37,264.5,640.53z M195,637.17c5.77,0.28,11.54,0.73,17.31,1.34c0.11,0,0.2,0.08,0.25,0.25
				c-9.36-0.45-18.63-0.84-27.82-1.18c0.95-0.061,1.91-0.11,2.86-0.17c1.63,0,3.28-0.061,4.96-0.17
				C193.4,637.25,194.21,637.22,195,637.17z"/>
			<path fill="#674424" d="M58.17,489.92c0.17,0.061,0.25,0.14,0.25,0.25c0-0.22,0-0.36,0-0.42l-0.08-0.08
				C58.34,489.72,58.28,489.81,58.17,489.92c-1.63-0.56-8.4-0.479-20.34,0.25c-3.64,0.28-6.95,0.59-9.92,0.92v-33.45H264.5v40.681
				c-17.31,1.29-27.37,1.93-30.17,1.93c-9.02,0-39.53-1.71-91.52-5.13c-37.82-2.41-63.29-3.95-76.4-4.62
				c4.48,0.95,8.94,1.96,13.36,3.03v0.08c-6.5-1.011-12.77-2.13-18.83-3.36c-1.56-0.06-2.73-0.08-3.53-0.08
				C57.59,490.17,57.85,490.08,58.17,489.92z"/>
			
				<linearGradient id="SVGID_4_" gradientUnits="userSpaceOnUse" x1="74.2397" y1="593.9932" x2="74.4079" y2="556.868" gradientTransform="matrix(1.6809 0 0 -1.6809 21.8195 1494.981)">
				<stop  offset="0" style="stop-color:#674424"/>
				<stop  offset="0.2824" style="stop-color:#825C2F"/>
				<stop  offset="0.4941" style="stop-color:#825C2F"/>
				<stop  offset="0.549" style="stop-color:#825C2F"/>
				<stop  offset="1" style="stop-color:#6C4A27"/>
			</linearGradient>
			<path fill="url(#SVGID_4_)" d="M210.15,546.48c-7.96,0.449-15.38,0.869-22.27,1.26c12.55-1.18,24.88-2.3,36.98-3.36
				c-0.56,0-1.06,0.03-1.51,0.08c-16.19,0.62-32.22,1.931-48.07,3.95c-34.85,2.02-52.28,3.14-52.28,3.36
				c-9.53-0.061-19.55-1.261-30.09-3.61c-2.75-0.62-5.27-1.12-7.56-1.51c0.67,0,1.37,0,2.1,0v-0.17c-1.63-0.11-3.25-0.221-4.88-0.34
				c-4.76-0.841-8.88-1.32-12.35-1.431c-3.75-0.5-7.45-1.12-11.09-1.85c1.12-0.061,2.21-0.08,3.28-0.08v-0.08
				c-1.96-0.17-3.98-0.31-6.05-0.42c-4.03,0.28-8.04,0.76-12.02,1.43c-1.96,0.34-3.22,0.95-3.78,1.851
				c1.4-0.061,3.11-0.311,5.13-0.761c4.09-1.01,8.26-1.63,12.52-1.85c2.63,0.67,5.24,1.229,7.82,1.68
				c-6.89,0.11-12.75,1.011-17.57,2.69c-0.06,0-0.08,0.03-0.08,0.08c-2.8,0.39-5.58,0.81-8.32,1.26v0.17c1.85,0,3.7-0.08,5.55-0.25
				c-5.6,2.3-11.32,4.51-17.14,6.64v-64.13c2.97-0.34,6.28-0.64,9.92-0.92c11.93-0.729,18.71-0.81,20.34-0.25
				c-0.33,0.16-0.58,0.25-0.76,0.25c0.8,0,1.97,0.03,3.53,0.08c6.05,1.23,12.33,2.351,18.83,3.36v-0.08
				c-4.43-1.061-8.88-2.07-13.36-3.03c13.11,0.67,38.58,2.21,76.4,4.62c52,3.42,82.5,5.13,91.52,5.13
				c2.76,0.01,12.82-0.64,30.13-1.93v45.22c-6.16,0.34-12.27,0.67-18.32,1.01c-1.46-0.06-3-0.14-4.62-0.25"/>
		</g>
		<g>
			
				<polyline fill="none" stroke="#FFFFFF" stroke-width="0.1" stroke-linecap="round" stroke-linejoin="round" stroke-miterlimit="3" stroke-opacity="0.498" points="
				28.08,457.64 99.94,457.64 114.31,457.64 264.25,457.64 			"/>
			
				<polyline fill="none" stroke="#FFFFFF" stroke-width="0.1" stroke-linecap="round" stroke-linejoin="round" stroke-miterlimit="3" stroke-opacity="0.498" points="
				28.08,457.64 99.94,457.64 114.31,457.64 264.25,457.64 			"/>
		</g>
	</g>
</g>
</svg>
