<?xml version="1.0" encoding="utf-8"?>
<!-- Generator: Adobe Illustrator 16.0.0, SVG Export Plug-In . SVG Version: 6.00 Build 0)  -->
<!DOCTYPE svg PUBLIC "-//W3C//DTD SVG 1.1//EN" "http://www.w3.org/Graphics/SVG/1.1/DTD/svg11.dtd">
<svg version="1.1" xmlns="http://www.w3.org/2000/svg" xmlns:xlink="http://www.w3.org/1999/xlink" x="0px" y="0px" width="98px"
	 height="55.67px" viewBox="0 0 98 55.67" enable-background="new 0 0 98 55.67" xml:space="preserve">
<g id="Layer_2">
</g>
<g id="Layer_1">
	<g>
		<path fill-rule="evenodd" clip-rule="evenodd" fill="#FFFFFF" fill-opacity="0.498" d="M42.11,42.31
			c-11.49,0-21.26-2.02-29.33-6.05c-8.07-3.98-12.1-8.85-12.1-14.62c0-5.71,4.03-10.59,12.1-14.62c8.07-3.98,17.85-5.97,29.33-5.97
			c9.86,0,18.46,1.48,25.8,4.46c0.95,0.34,1.88,0.73,2.77,1.18c0.22,0.11,0.45,0.22,0.67,0.34c8.07,4.03,12.1,8.91,12.1,14.62
			c0,3.36-1.4,6.47-4.2,9.33l17.31,23.95L64.89,38.95C58.22,41.19,50.63,42.31,42.11,42.31z"/>
		
			<path fill-rule="evenodd" clip-rule="evenodd" fill="none" stroke="#FFFFFF" stroke-linecap="round" stroke-linejoin="round" stroke-miterlimit="3" stroke-opacity="0.902" d="
			M42.11,42.31c8.52,0,16.11-1.12,22.78-3.36l31.68,15.97L79.26,30.96c2.8-2.86,4.2-5.97,4.2-9.33c0-5.71-4.04-10.59-12.1-14.62
			c-0.22-0.11-0.45-0.22-0.67-0.34c-0.9-0.45-1.82-0.84-2.77-1.18c-7.34-2.97-15.94-4.46-25.8-4.46c-11.49,0-21.26,1.99-29.33,5.97
			c-8.07,4.03-12.1,8.91-12.1,14.62c0,5.77,4.03,10.65,12.1,14.62C20.85,40.29,30.63,42.31,42.11,42.31z"/>
	</g>
</g>
</svg>
