<?xml version="1.0" encoding="utf-8"?>
<!-- Generator: Adobe Illustrator 16.0.0, SVG Export Plug-In . SVG Version: 6.00 Build 0)  -->
<!DOCTYPE svg PUBLIC "-//W3C//DTD SVG 1.1//EN" "http://www.w3.org/Graphics/SVG/1.1/DTD/svg11.dtd">
<svg version="1.1" id="Layer_1" xmlns="http://www.w3.org/2000/svg" xmlns:xlink="http://www.w3.org/1999/xlink" x="0px" y="0px"
	 width="700px" height="700px" viewBox="0 0 700 700" enable-background="new 0 0 700 700" xml:space="preserve">
<g>
	<g>
		<g>
			<path fill-rule="evenodd" clip-rule="evenodd" fill="#CE973C" d="M136.75,439.58c-1.12-0.06-2.3-0.11-3.53-0.17l-0.25,0.08
				l0.08,0.08c-1.46-0.06-2.89-0.08-4.29-0.08c-1.01,0-1.99,0-2.94,0c2.8,0.06,5.63,0.14,8.49,0.25c1.68,0.22,3.5,0.28,5.46,0.17
				c16.64,0.5,33.87,1.01,51.69,1.51c-0.06-0.11-0.14-0.17-0.25-0.17c-2.07-0.06-4.12-0.14-6.14-0.25
				c13.9,0.28,27.96,0.5,42.19,0.67c-0.11-0.06-0.2-0.08-0.25-0.08c-15.18-0.5-30.42-0.73-45.72-0.67
				C166.45,440.3,151.6,439.86,136.75,439.58z M216.26,440.67c-0.22,0-0.42,0-0.59,0c-4.37,0.06-8.52,0.11-12.44,0.17
				c0.11,0.11,0.22,0.17,0.34,0.17c7.96,0.06,15.86,0,23.7-0.17C223.63,440.72,219.96,440.67,216.26,440.67z M215.17,447.9
				c-3.14-0.11-5.77-0.2-7.9-0.25c-0.95-0.06-1.88-0.08-2.77-0.08c0.34-0.06,0.7-0.08,1.09-0.08l0.08-0.08
				c-2.97-0.11-6.05-0.22-9.25-0.34c-16.7-1.01-28.91-1.68-36.64-2.02c-6.64-0.3-13.21-0.53-19.71-0.67
				c2.21,0.11,4.41,0.25,6.6,0.42l-0.08,0.08c-29.19-0.11-58.38-0.06-87.57,0.17c2.19,0.11,4.37,0.22,6.56,0.34
				c8.46,0.22,16.95,0.39,25.47,0.5c0.11,0,0.2,0.06,0.25,0.17c-17.54,0-33.98-0.39-49.33-1.18c-3.24,0-6.65,0-10.21,0l1.47-5.04
				c3.79,0.11,6.26,0.17,7.4,0.17c0.9,0,1.96,0,3.19,0c1.68-0.06,3.36-0.11,5.04-0.17c-5.53,0-10.67-0.25-15.42-0.76l0.08-0.25
				c6.89,0.56,14.41,0.84,22.57,0.84c1.29,0,2.58,0,3.87,0c1.79-0.06,3.7-0.11,5.71-0.17c0.39-0.05,0.74-0.08,1.05-0.08h0.13
				c1.79,0.06,3.53,0.08,5.21,0.08c11.82,0.22,23.81,0.36,35.97,0.42c-0.11-0.06-0.2-0.08-0.25-0.08
				c-6.16-0.11-12.3-0.22-18.41-0.34c-13.39,0.06-26.78-0.25-40.17-0.92c-5.22,0-10.42-0.01-15.59-0.04v-0.08
				c2.88-0.03,5.76-0.08,8.66-0.13h1.93c0.16,0,0.31,0,0.46,0c-0.39-0.01-0.81-0.03-1.26-0.08c-0.45-0.06-0.39-0.08,0.17-0.08
				c1.01,0.06,2.02,0.11,3.03,0.17c0.34,0,0.7,0,1.09,0c6.89-0.06,13.81-0.14,20.76-0.25c2.58,0,5.18,0,7.82,0
				c0.76-0.05,1.51-0.08,2.27-0.08c-0.59-0.01-1.18-0.04-1.77-0.08c0.06,0,0.14-0.03,0.25-0.08c-2.02-0.06-4.03-0.11-6.05-0.17
				h-0.08c-1.85-0.06-3.7-0.11-5.55-0.17c0.06,0,0.11-0.03,0.17-0.08c6.65,0.17,13.34,0.31,20.04,0.42
				c-0.48,0.01-0.95,0.04-1.39,0.08c-0.5,0-0.98,0-1.43,0c-0.31,0.02-0.63,0.03-0.97,0.04c2.11-0.03,4.22-0.04,6.35-0.04
				c0.56,0,1.15,0,1.77,0c3.67,0,7.31,0.06,10.93,0.17c-16.03,0.28-31.91,0.45-47.65,0.5c6.28,0.22,12.55,0.39,18.83,0.5
				c1.79,0.06,3.61,0.08,5.46,0.08h0.04c0.4,0,0.78,0,1.13,0c-0.2-0.01-0.43-0.04-0.67-0.08c-1.18,0-2.35-0.03-3.53-0.08
				c0.59,0,1.18,0,1.76,0c0.95,0,1.91,0,2.86,0c2.07,0,4.15,0,6.22,0c1.96-0.06,3.45-0.08,4.45-0.08l-0.25-0.08
				c-0.17-0.06-0.25-0.11-0.25-0.17c-0.62-0.06-1.57-0.14-2.86-0.25c4.71-0.11,9.41-0.17,14.12-0.17c1.85,0.06,3.73,0.11,5.63,0.17
				c-0.05-0.11-0.17-0.17-0.34-0.17c4.93-0.05,9.81-0.05,14.62,0l0.08-0.08c-9.13-0.34-18.43-0.48-27.9-0.42
				c-1.4-0.06-2.83-0.08-4.29-0.08c-10.33-0.15-20.56-0.38-30.68-0.71c0.89,0.01,1.79,0.02,2.69,0.04
				c-1.01-0.06-1.99-0.11-2.94-0.17c1.79,0,3.53,0,5.21,0c-5.38-0.06-10.73-0.11-16.05-0.17c-2.75-0.06-5.46-0.08-8.15-0.08h-0.59
				c4.43,0.11,8.85,0.17,13.28,0.17c-1.23,0.06-2.47,0.11-3.7,0.17c-2.07-0.06-4.12-0.08-6.13-0.08c0.25,0.05,0.51,0.08,0.8,0.08
				c-2.67,0-5.34,0.01-7.98,0.04l0.76-2.56h96.99c0.47,0.3,1.1,0.58,1.89,0.84c1.96,0.62,4.31,0.92,7.06,0.92
				c2.75,0,5.07-0.31,6.98-0.92c0.17-0.05,0.34-0.11,0.5-0.17h104.8l-0.04-0.67h8.99l1.6,16.3c-2.77-0.08-5.53-0.2-8.28-0.33
				c-10.53-0.45-23.06-1.09-37.57-1.93c2.8-0.06,5.6-0.06,8.4,0l0.08-0.08c-1.23-0.11-2.52-0.2-3.87-0.25c1.29,0,2.55,0,3.78,0
				c0.9,0.11,2.52,0.2,4.87,0.25c1.85,0.06,3.39,0,4.62-0.17v0.08c0.06,0,0.14,0,0.25,0c7.31-0.11,14.12-0.25,20.42-0.42
				c-4.31-0.11-8.71-0.17-13.19-0.17c-1.35,0.06-2.69,0.08-4.03,0.08c-0.62,0-1.15,0-1.6,0c-0.06,0-0.14,0-0.25,0
				c-3.98-0.11-7.98-0.2-12.02-0.25c-0.06,0-0.08,0.03-0.08,0.08c-1.85-0.06-3.64-0.11-5.38-0.17c-1.01,0-2.05,0.03-3.11,0.08
				c-0.22,0-0.42,0.03-0.59,0.08c-0.56,0-1.04,0.06-1.43,0.17c1.06,0.06,2.1,0.11,3.11,0.17C216.85,447.9,216.01,447.9,215.17,447.9
				z M252.57,442.85c-0.11-0.06-0.2-0.08-0.25-0.08c-29.42,0-58.86-0.14-88.33-0.42c9.25-0.28,18.41-0.48,27.48-0.59
				c-3.78-0.11-7.59-0.17-11.43-0.17c-0.84,0-1.79,0.03-2.86,0.08c-4.87,0.11-9.72,0.11-14.54,0c-2.91-0.06-5.07,0.14-6.47,0.59
				c-0.95,0-1.9-0.03-2.86-0.08c-8.18,0.28-16.45,0.45-24.79,0.5c-14.85,0.11-29.53,0.03-44.04-0.25
				c5.16,0.39,10.76,0.64,16.81,0.76c13.33,0.17,26.61,0.22,39.84,0.17C178.38,443.08,215.53,442.91,252.57,442.85z M246.35,436.55
				c-0.28,0-0.53,0-0.76,0c-7.4,0.06-14.68,0.17-21.85,0.34c8.96,0.28,18.24,0.25,27.82-0.08l0.08-0.08
				C249.9,436.66,248.14,436.61,246.35,436.55z M254.42,447.06c0.73,0,0.5-0.03-0.67-0.08c-6.67-0.22-13.36-0.14-20.09,0.25
				C240.6,447.28,247.52,447.22,254.42,447.06z M138.01,446.38c5.66-0.06,11.37-0.11,17.14-0.17c1.46,0,2.94,0,4.46,0l-0.08,0.08
				c-6.33,0.06-13.08,0.14-20.25,0.25C138.55,446.61,138.13,446.55,138.01,446.38z M143.73,446.05c-1.04,0.04-2.07,0.06-3.11,0.08
				c0.28-0.06,0.53-0.08,0.76-0.08C142.1,446.05,142.89,446.05,143.73,446.05z M198.61,438.82h-0.5c4.26,0.17,8.57,0.25,12.94,0.25
				c0.17,0,0.34-0.03,0.5-0.08C207.29,438.88,202.98,438.82,198.61,438.82z M202.48,437.31l-0.25,0.08c1.74,0.9,4.85,0.95,9.33,0.17
				c4.03,0.22,5.6,0.03,4.71-0.59c-1.21,0.33-2.98,0.5-5.29,0.5c0.12,0,0.2,0.03,0.25,0.08
				C208.3,437.45,205.39,437.36,202.48,437.31z M79.27,443.36v0.08c3.75,0.17,6.42,0,7.98-0.5c-0.06,0-0.14,0-0.25,0
				C84.31,442.99,81.73,443.13,79.27,443.36z M88.47,444.41c1.84-0.02,3.71-0.04,5.59-0.04c-1.1-0.02-2.19-0.05-3.28-0.08
				C90,444.33,89.23,444.37,88.47,444.41z M108.43,441.17c0.17,0,0.34,0,0.5,0l0.08-0.08c-4.9-0.03-9.78-0.04-14.67-0.04
				C99.03,441.13,103.72,441.17,108.43,441.17z M106.75,440.25c-11.21,0-22.38-0.06-33.53-0.17h-0.08c-4.87-0.06-9.72-0.06-14.54,0
				c15.8,0.39,31.94,0.48,48.41,0.25C106.95,440.28,106.86,440.25,106.75,440.25z M96.92,444.03c3.25,0.11,6.5,0.2,9.75,0.25
				c3.47-0.14,6.95-0.26,10.42-0.34c-1.68,0-3.36,0-5.04,0C105.1,443.95,100.05,443.97,96.92,444.03z M47.41,444.79
				c-0.67,0-1.37,0.03-2.1,0.08c1.76,0.05,3.54,0.09,5.34,0.13C49.54,444.94,48.46,444.87,47.41,444.79z M58.25,444.95
				c2.05-0.06,4.12-0.11,6.22-0.17c-3.01,0-6.26,0-9.75,0C55.9,444.84,57.08,444.9,58.25,444.95z"/>
			<path fill-rule="evenodd" clip-rule="evenodd" fill="#C38F2A" d="M133.05,439.58c1.23,0,2.47,0,3.7,0
				c14.85,0.28,29.7,0.73,44.54,1.34c15.3-0.06,30.54,0.17,45.72,0.67c0.06,0,0.14,0.03,0.25,0.08c-14.23-0.17-28.3-0.39-42.19-0.67
				c2.02,0.11,4.06,0.2,6.14,0.25c0.11,0,0.2,0.06,0.25,0.17c-17.82-0.5-35.05-1.01-51.69-1.51c-1.96,0.11-3.78,0.06-5.46-0.17
				c-2.86-0.11-5.69-0.2-8.49-0.25c0.95,0,1.93,0,2.94,0C130.17,439.49,131.6,439.52,133.05,439.58z M216.26,440.67
				c3.7,0,7.37,0.06,11.01,0.17c-7.84,0.17-15.74,0.22-23.7,0.17c-0.11,0-0.22-0.06-0.34-0.17c3.92-0.06,8.07-0.11,12.44-0.17
				C215.84,440.67,216.04,440.67,216.26,440.67z M246.35,436.55c1.79,0.06,3.56,0.11,5.3,0.17l-0.08,0.08
				c-9.58,0.34-18.85,0.36-27.82,0.08c7.17-0.17,14.46-0.28,21.85-0.34C245.81,436.55,246.07,436.55,246.35,436.55z M252.57,442.85
				c-37.04,0.06-74.18,0.22-111.44,0.5c-13.22,0.06-26.5,0-39.84-0.17c-6.05-0.11-11.65-0.36-16.81-0.76
				c14.51,0.28,29.19,0.37,44.04,0.25c8.35-0.06,16.61-0.22,24.79-0.5c0.95,0.06,1.9,0.08,2.86,0.08c1.4-0.45,3.56-0.64,6.47-0.59
				c4.82,0.11,9.67,0.11,14.54,0c1.06-0.06,2.02-0.08,2.86-0.08c3.84,0,7.65,0.06,11.43,0.17c-9.08,0.11-18.24,0.31-27.48,0.59
				c29.47,0.28,58.92,0.42,88.33,0.42C252.37,442.77,252.45,442.8,252.57,442.85z M202.48,437.31c2.91,0.06,5.83,0.14,8.74,0.25
				c-0.05-0.05-0.14-0.08-0.25-0.08c2.32,0,4.08-0.17,5.29-0.5c0.9,0.62-0.67,0.81-4.71,0.59c-4.48,0.78-7.59,0.73-9.33-0.17
				L202.48,437.31z M198.61,438.82c4.37,0,8.69,0.06,12.94,0.17c-0.17,0.06-0.34,0.08-0.5,0.08c-4.37,0-8.68-0.08-12.94-0.25H198.61
				z M79.27,443.36c2.47-0.22,5.04-0.36,7.73-0.42c0.11,0,0.2,0,0.25,0c-1.57,0.5-4.23,0.67-7.98,0.5V443.36z M108.43,441.17
				c-4.71,0-9.4-0.04-14.08-0.13c4.88,0,9.77,0.01,14.67,0.04l-0.08,0.08C108.77,441.17,108.6,441.17,108.43,441.17z"/>
			<path fill-rule="evenodd" clip-rule="evenodd" fill="#A57231" d="M197.01,447.31c-0.39-0.06-0.76-0.11-1.09-0.17l0.17-0.08
				c0.11,0,0.22,0,0.34,0c3.19,0.11,6.28,0.22,9.25,0.34l-0.08,0.08c-0.39,0-0.76,0.03-1.09,0.08c-0.17,0-0.31,0-0.42,0
				c-2.02,0.11-3.81,0.11-5.38,0c-1.68,0.84-5.44,0.95-11.26,0.34c-0.06,0-0.08-0.03-0.08-0.08c3.7,0.06,7.42-0.06,11.18-0.34
				C197.97,447.48,197.46,447.42,197.01,447.31z M217.69,448.4c-6.61,0.06-13.25,0.28-19.92,0.67c-2.75,0.11-5.1,0.06-7.06-0.17
				c3.14-0.22,6.33-0.39,9.58-0.5c3.36-0.06,6.75-0.17,10.17-0.33c0.45,0,0.84-0.03,1.18-0.08c0.06,0,0.11,0,0.17,0
				c1.12-0.06,2.24-0.08,3.36-0.08c0.84,0,1.68,0,2.52,0c-1.01-0.06-2.05-0.11-3.11-0.17c0.39-0.11,0.87-0.17,1.43-0.17
				c0.17-0.06,0.36-0.08,0.59-0.08c1.06-0.06,2.1-0.08,3.11-0.08c1.74,0.06,3.53,0.11,5.38,0.17c0-0.06,0.03-0.08,0.08-0.08
				c4.03,0.06,8.04,0.14,12.02,0.25c0.11,0,0.2,0,0.25,0c0.45,0,0.98,0,1.6,0c1.34,0,2.69-0.03,4.03-0.08
				c4.48,0,8.88,0.06,13.19,0.17c-6.31,0.17-13.12,0.31-20.42,0.42c-0.11,0-0.2,0-0.25,0v-0.08c-1.23,0.17-2.77,0.22-4.62,0.17
				c-2.35-0.06-3.98-0.14-4.87-0.25c-1.23,0-2.49,0-3.78,0c1.34,0.06,2.63,0.14,3.87,0.25l-0.08,0.08
				C223.29,448.34,220.49,448.34,217.69,448.4z M254.42,447.06c-6.89,0.17-13.81,0.22-20.76,0.17c6.72-0.39,13.42-0.48,20.09-0.25
				C254.92,447.03,255.14,447.06,254.42,447.06z M209.7,455.04c5.02,0.11,10.17,0.17,15.46,0.17c-6.5,0.62-11.77,0.56-15.8-0.17
				H209.7z M211.22,452.85c0.67-0.34,1.82-0.48,3.45-0.42c0.11,0,0.2,0,0.25,0c0,0.34-1.15,0.48-3.45,0.42
				C211.36,452.85,211.27,452.85,211.22,452.85z M201.47,453.36c-0.11,0-0.2,0-0.25,0c0.9-0.34,2.27-0.48,4.12-0.42
				C205.11,453.33,203.82,453.47,201.47,453.36z M177.35,453.02h-0.08c0.06,0,0.17-0.03,0.34-0.08h0.08
				C177.51,452.99,177.4,453.02,177.35,453.02z M200.38,450.92c1.01,0.06,1.99,0.11,2.94,0.17l-0.08,0.08
				c-1.63,0.28-2.63,0.22-3.02-0.17C200.15,450.95,200.21,450.92,200.38,450.92z M181.21,456.05c0.06-0.06,0.14-0.08,0.25-0.08
				c1.4,0,2.61-0.06,3.61-0.17c18.43-0.11,36.81,0.06,55.13,0.5c0.06,0,0.14,0.03,0.25,0.08c-19.39-0.11-39.05-0.2-59-0.25
				C181.35,456.13,181.27,456.1,181.21,456.05z M174.15,449.58c-19.05,0.62-36.95,0.45-53.7-0.5c10.42,0.22,20.93,0.36,31.52,0.42
				c-1.57-0.11-3.14-0.22-4.71-0.34c-0.5-0.06-0.45-0.08,0.17-0.08c9.02,0.33,18.07,0.45,27.15,0.33c-0.11,0.06-0.25,0.08-0.42,0.08
				h-0.08L174.15,449.58z M163.65,448.57c9.97-0.11,19.49-0.06,28.58,0.17c-10.03,0.78-19.61,0.73-28.74-0.17H163.65z M169.28,456.3
				c0.95-0.11,1.93-0.2,2.94-0.25c1.51,0.39,0.76,0.5-2.27,0.33h-0.08c-0.17,0.06-0.34,0.08-0.5,0.08c-4.03,0-8.04-0.06-12.02-0.17
				c2.35-0.22,4.76-0.31,7.23-0.25C166.2,456.16,167.77,456.24,169.28,456.3z M146.59,456.64c0.06-0.06,0.17-0.08,0.34-0.08
				c3.56,0.06,7.06,0.14,10.51,0.25c-0.34,0.11-0.7,0.2-1.09,0.25c-2.24,0.39-5.13,0.34-8.66-0.17c-0.28-0.06-0.56-0.08-0.84-0.08
				C146.46,456.7,146.37,456.64,146.59,456.64z M257.36,452.77c0.06,0.62,0.03,0.62-0.08,0H257.36z M264.16,456.68
				c-0.55-0.06-1.08-0.13-1.6-0.21h0.25c0.44-0.01,0.88-0.03,1.3-0.04L264.16,456.68z M250.89,453.28c-2.63,0.28-4.23,0.11-4.79-0.5
				h0.25c1.51,0.22,3.08,0.36,4.71,0.42L250.89,453.28z M252.82,452.1c-3.42,0.11-6.7-0.06-9.83-0.5h0.34
				c3.36,0,6.56,0.14,9.58,0.42L252.82,452.1z M238.28,455.46c5.16,0.28,10.31,0.42,15.46,0.42c-6.22,0.5-11.49,0.36-15.8-0.42
				H238.28z M231.14,454.37c0.56,0.62,0.53,0.62-0.08,0H231.14z M226.09,452.6c-1.57,0.17-2.75,0.06-3.53-0.34h0.25
				c1.29-0.06,2.38,0.03,3.28,0.25C226.15,452.52,226.15,452.55,226.09,452.6z M214.41,451.76c0.78,0.56,0.76,0.56-0.08,0H214.41z
				 M51.11,457.06c-0.17,0.06-0.34,0.08-0.5,0.08c-4.03,0-8.01-0.08-11.93-0.25l0.5-0.08c3.7,0.06,7.34,0.14,10.93,0.25h0.76
				C50.94,457.06,51.03,457.06,51.11,457.06z M61.95,456.97c-0.56,0-1.09,0-1.6,0c-9.25-0.45-18.41-0.45-27.48,0
				c0.78-0.22,1.99-0.39,3.61-0.5c2.46-0.17,4.96-0.31,7.48-0.42C50.19,456.05,56.18,456.36,61.95,456.97z M121.75,456.47
				c0.22,0.01,0.62,0.04,1.22,0.08c1.12,0,2.8,0.03,5.04,0.08c-1.29,0-2.55,0-3.78,0c-8.85,0.11-17.65,0.31-26.39,0.59
				c-2.8,0.11-5.6,0.14-8.4,0.08c-1.96-0.06-3.95-0.08-5.97-0.08c-1.46-0.11-2.91-0.2-4.37-0.25c5.04-0.17,10.79-0.36,17.23-0.59
				c2.3-0.06,4.62-0.11,6.98-0.17c0.28,0,0.5,0,0.67,0c3.18,0.03,9.06,0.12,17.65,0.25H121.75z"/>
			<path fill-rule="evenodd" clip-rule="evenodd" fill="#D6AC56" d="M30.65,448.69l1.09-3.82c3.57,0,6.97,0,10.21,0
				c15.35,0.78,31.8,1.18,49.33,1.18c-0.06-0.11-0.14-0.17-0.25-0.17c-8.52-0.11-17.01-0.28-25.47-0.5
				c-2.19-0.11-4.37-0.22-6.56-0.34c29.19-0.22,58.38-0.28,87.57-0.17l0.08-0.08c-2.19-0.17-4.38-0.31-6.6-0.42
				c6.5,0.15,13.07,0.37,19.71,0.67c7.73,0.34,19.95,1.01,36.64,2.02c-0.11,0-0.22,0-0.34,0l-0.17,0.08
				c0.34,0.06,0.7,0.11,1.09,0.17c-9.36-0.22-18.99-0.34-28.91-0.34c-12.44,0.22-25.35,0.45-38.74,0.67
				c-1.29-0.11-2.63-0.17-4.03-0.17c21.12-0.39,42.22-0.64,63.29-0.76l0.08-0.08c-5.55-0.06-11.12-0.11-16.73-0.17
				c-17.82,0.17-35.72,0.36-53.7,0.59c-0.73,0-1.46,0-2.19,0c-1.12,0-2.24-0.03-3.36-0.08c-0.34,0.06-0.5,0.11-0.5,0.17
				c-2.19,0.06-4.34,0.11-6.47,0.17l-0.29-0.04c0.05,0.01,0.09,0.02,0.13,0.04c-5.71,0.11-11.32,0.25-16.81,0.42
				c3.7,0.22,7.76,0.28,12.19,0.17c0.73,0.06,1.46,0.08,2.19,0.08c-1.29,0.06-2.58,0.08-3.87,0.08c-5.99-0.11-11.99-0.25-17.98-0.42
				h-0.5c3.47,0.22,6.95,0.39,10.42,0.5c-0.28,0-0.53,0-0.76,0c-8.82-0.14-17.65-0.26-26.47-0.38c5.53,0.23,11.08,0.41,16.64,0.55
				c-6.72,0.06-13.11,0.11-19.16,0.17c-8.1-0.14-16.21-0.25-24.33-0.34c4.48,0.16,9.04,0.3,13.66,0.42
				C43.52,448.61,36.81,448.65,30.65,448.69z M155.16,446.21c4.65-0.11,9.3-0.22,13.95-0.34v-0.08c-2.86-0.06-5.74-0.11-8.66-0.17
				c-2.8,0.06-5.66,0.14-8.57,0.25c-2.75,0.06-5.46,0.11-8.15,0.17c-0.84,0-1.63,0-2.35,0c-0.22,0-0.48,0.03-0.76,0.08
				c-0.53,0-1.06,0-1.6,0c-5.6,0.11-11.21,0.2-16.81,0.25v0.08c5.21,0,10.48-0.03,15.8-0.08c0.11,0.17,0.53,0.22,1.26,0.17
				c7.17-0.11,13.92-0.2,20.25-0.25l0.08-0.08C158.1,446.21,156.62,446.21,155.16,446.21z M88.47,444.41
				c0.77-0.04,1.54-0.08,2.31-0.13c1.09,0.03,2.18,0.06,3.28,0.08C92.17,444.37,90.31,444.39,88.47,444.41z M96.92,444.03
				c3.14-0.06,8.18-0.08,15.13-0.08c1.68,0,3.36,0,5.04,0c-3.47,0.08-6.95,0.19-10.42,0.34
				C103.42,444.23,100.17,444.14,96.92,444.03z M112.8,447.64c2.07,0,4.12-0.03,6.14-0.08c1.34,0.06,2.69,0.11,4.03,0.17
				c-2.18,0-4.43,0.03-6.72,0.08C115.13,447.76,113.98,447.7,112.8,447.64z M47.41,444.79c1.05,0.08,2.13,0.15,3.24,0.21
				c-1.8-0.04-3.57-0.08-5.34-0.13C46.04,444.81,46.74,444.79,47.41,444.79z M58.25,444.95c-1.18-0.06-2.35-0.11-3.53-0.17
				c3.49,0,6.74,0,9.75,0C62.37,444.84,60.3,444.9,58.25,444.95z"/>
			<path fill-rule="evenodd" clip-rule="evenodd" fill="#B88834" d="M217.69,448.4c14.51,0.84,27.03,1.49,37.57,1.93
				c2.74,0.14,5.5,0.25,8.28,0.33l0.59,5.76c-0.43,0.02-0.86,0.03-1.3,0.04h-0.25c0.52,0.08,1.05,0.15,1.6,0.21l0.08,0.97h-0.08
				H85.44c-1.35-0.06-2.74-0.15-4.16-0.25c-10.14,0.06-20.2-0.06-30.17-0.34c3.08-0.06,6.16-0.08,9.25-0.08c0.5,0,1.04,0,1.6,0
				c4.48,0,8.94,0.03,13.36,0.08c-1.68-0.11-3.39-0.22-5.13-0.34c-1.85-0.17-3.56-0.31-5.13-0.42c-9.47-0.11-18.8-0.48-27.99-1.09
				c-1.79,0-3.64,0-5.55,0c-0.88,0-1.79,0-2.73,0l1.85-6.51c6.16-0.04,12.87-0.08,20.13-0.13c-4.62-0.13-9.17-0.27-13.66-0.42
				c8.12,0.08,16.23,0.2,24.33,0.34c6.05-0.06,12.44-0.11,19.16-0.17c-5.56-0.14-11.11-0.32-16.64-0.55
				c8.83,0.12,17.65,0.24,26.47,0.38c0.22,0,0.48,0,0.76,0c-3.47-0.11-6.95-0.28-10.42-0.5h0.5c5.99,0.17,11.99,0.31,17.98,0.42
				c1.29,0,2.58-0.03,3.87-0.08c-0.73,0-1.46-0.03-2.19-0.08c-4.43,0.11-8.49,0.06-12.19-0.17c5.49-0.17,11.09-0.31,16.81-0.42
				c-0.04-0.02-0.08-0.03-0.13-0.04l0.29,0.04c2.13-0.06,4.29-0.11,6.47-0.17c0-0.06,0.17-0.11,0.5-0.17
				c1.12,0.06,2.24,0.08,3.36,0.08c0.73,0,1.46,0,2.19,0c17.99-0.22,35.89-0.42,53.7-0.59c5.6,0.06,11.18,0.11,16.73,0.17
				l-0.08,0.08c-21.07,0.11-42.16,0.36-63.29,0.76c1.4,0,2.75,0.06,4.03,0.17c13.39-0.22,26.31-0.45,38.74-0.67
				c9.92,0,19.55,0.11,28.91,0.34c0.45,0.11,0.95,0.17,1.51,0.17c-3.75,0.28-7.48,0.39-11.18,0.34c0,0.06,0.03,0.08,0.08,0.08
				c5.83,0.62,9.58,0.5,11.26-0.34c1.57,0.11,3.36,0.11,5.38,0c0.11,0,0.25,0,0.42,0c2.41,0.17,4.79,0.31,7.14,0.42
				c-0.34,0.06-0.73,0.08-1.18,0.08c-3.42,0.17-6.81,0.28-10.17,0.33c-3.25,0.11-6.44,0.28-9.58,0.5c1.96,0.22,4.31,0.28,7.06,0.17
				C204.44,448.68,211.08,448.46,217.69,448.4z M155.16,446.21c-5.77,0.06-11.49,0.11-17.14,0.17c-5.32,0.06-10.59,0.08-15.8,0.08
				v-0.08c5.6-0.06,11.21-0.14,16.81-0.25c0.53,0,1.06,0,1.6,0c1.04-0.02,2.07-0.05,3.11-0.08c2.69-0.06,5.41-0.11,8.15-0.17
				c2.91-0.11,5.77-0.2,8.57-0.25c2.91,0.06,5.8,0.11,8.66,0.17v0.08C164.46,445.99,159.81,446.1,155.16,446.21z M144.06,456.55
				l0.08-0.08c-0.16,0.05-0.3,0.08-0.42,0.08C143.85,456.55,143.96,456.55,144.06,456.55z M201.47,453.36
				c2.35,0.11,3.64-0.03,3.87-0.42c-1.85-0.06-3.22,0.08-4.12,0.42C201.27,453.36,201.35,453.36,201.47,453.36z M211.22,452.85
				c0.06,0,0.14,0,0.25,0c2.3,0.06,3.45-0.08,3.45-0.42c-0.06,0-0.14,0-0.25,0C213.04,452.38,211.89,452.52,211.22,452.85z
				 M209.7,455.04h-0.34c4.03,0.73,9.3,0.78,15.8,0.17C219.87,455.21,214.72,455.15,209.7,455.04z M200.38,450.92
				c-0.17,0-0.22,0.03-0.17,0.08c0.39,0.39,1.4,0.45,3.02,0.17l0.08-0.08C202.36,451.03,201.38,450.98,200.38,450.92z
				 M177.35,453.02c0.06,0,0.17-0.03,0.34-0.08h-0.08c-0.16,0.05-0.27,0.08-0.34,0.08c-8.96-0.34-17.94-0.56-26.94-0.67
				c17.15,0.61,34.53,1.29,52.15,2.02c-0.11-0.06-0.22-0.11-0.34-0.17C193.9,453.75,185.64,453.36,177.35,453.02z M194.66,450.5
				c0.45,0.22,1.29,0.34,2.52,0.34c14.23-0.28,28.38-0.53,42.44-0.76c-2.38-0.11-4.76-0.17-7.14-0.17c-0.56,0-1.12,0-1.68,0
				C218.7,450.14,206.65,450.33,194.66,450.5z M174.15,449.58l-0.08-0.08h0.08c0.17,0,0.31-0.03,0.42-0.08
				c-9.08,0.11-18.13,0-27.15-0.33c-0.62,0-0.67,0.03-0.17,0.08c1.57,0.11,3.14,0.22,4.71,0.34c-10.59-0.06-21.09-0.2-31.52-0.42
				C137.2,450.03,155.1,450.19,174.15,449.58z M181.21,456.05c0.06,0.06,0.14,0.08,0.25,0.08c19.95,0.06,39.61,0.14,59,0.25
				c-0.11-0.06-0.2-0.08-0.25-0.08c-18.32-0.45-36.7-0.62-55.13-0.5c-1.01,0.11-2.21,0.17-3.61,0.17
				C181.35,455.96,181.27,455.99,181.21,456.05z M257.36,452.77h-0.08C257.39,453.39,257.41,453.39,257.36,452.77z M146.59,456.64
				c-0.21,0-0.13,0.06,0.25,0.17c0.28,0,0.56,0.03,0.84,0.08c3.53,0.5,6.42,0.56,8.66,0.17c0.39-0.06,0.76-0.14,1.09-0.25
				c-3.45-0.11-6.95-0.2-10.51-0.25C146.75,456.55,146.64,456.58,146.59,456.64z M169.28,456.3c-1.51-0.06-3.08-0.14-4.71-0.25
				c-2.47-0.06-4.87,0.03-7.23,0.25c3.98,0.11,7.98,0.17,12.02,0.17c0.17,0,0.34-0.03,0.5-0.08h0.08c3.03,0.17,3.78,0.06,2.27-0.33
				C171.21,456.1,170.23,456.19,169.28,456.3z M163.65,448.57h-0.17c9.13,0.9,18.71,0.95,28.74,0.17
				C183.14,448.51,173.62,448.46,163.65,448.57z M214.41,451.76h-0.08C215.17,452.32,215.19,452.32,214.41,451.76z M226.09,452.6
				c0.06-0.06,0.06-0.08,0-0.08c-0.9-0.22-1.99-0.31-3.28-0.25h-0.25C223.35,452.66,224.52,452.77,226.09,452.6z M231.14,454.37
				h-0.08C231.67,454.98,231.7,454.98,231.14,454.37z M238.28,455.46h-0.34c4.31,0.78,9.58,0.92,15.8,0.42
				C248.59,455.88,243.43,455.74,238.28,455.46z M252.82,452.1l0.08-0.08c-3.03-0.28-6.22-0.42-9.58-0.42h-0.34
				C246.12,452.04,249.4,452.21,252.82,452.1z M250.89,453.28l0.17-0.08c-1.63-0.06-3.19-0.2-4.71-0.42h-0.25
				C246.66,453.39,248.25,453.55,250.89,453.28z M112.8,447.64c1.18,0.06,2.33,0.11,3.45,0.17c2.3-0.06,4.54-0.08,6.72-0.08
				c-1.34-0.06-2.69-0.11-4.03-0.17C116.92,447.62,114.87,447.64,112.8,447.64z M70.78,452.1l0.08-0.08
				c-1.12-0.06-2.27-0.11-3.45-0.17c-0.17,0.06-0.36,0.08-0.59,0.08c-2.3,0.06-4.54,0.17-6.72,0.34
				C63.41,452.49,66.97,452.43,70.78,452.1z M59.43,455.88c-1.91-0.11-3.5-0.2-4.79-0.25c-4.87-0.22-10.39-0.36-16.56-0.42
				C45.2,455.49,52.32,455.71,59.43,455.88z M52.62,451.59l0.08-0.08c-3.98-0.06-7.98-0.11-12.02-0.17h-0.5
				c3.98,0.17,7.98,0.25,12.02,0.25C52.32,451.59,52.46,451.59,52.62,451.59z M141.38,454.03c-2.05-0.06-4.12-0.11-6.22-0.17h-0.17
				C136.11,454.54,138.24,454.59,141.38,454.03z M122.97,456.55l1.09-0.04l-2.31-0.04h-0.13c-8.59-0.14-14.47-0.22-17.65-0.25
				c-0.17,0-0.39,0-0.67,0c-2.35,0.06-4.68,0.11-6.98,0.17c-6.44,0.22-12.19,0.42-17.23,0.59c1.46,0.06,2.91,0.14,4.37,0.25
				c2.02,0,4.01,0.03,5.97,0.08c2.8,0.06,5.6,0.03,8.4-0.08c8.74-0.28,17.54-0.48,26.39-0.59c1.23,0,2.49,0,3.78,0
				C125.77,456.58,124.09,456.55,122.97,456.55z M65.99,452.94c14.96,0.28,30.4,0.56,46.31,0.84
				C97.11,453.05,81.68,452.77,65.99,452.94z M112.97,452.52h-0.42c2.02,0.67,4.34,0.73,6.98,0.17c-0.11-0.06-0.2-0.08-0.25-0.08
				C117.14,452.71,115.04,452.69,112.97,452.52z"/>
			
				<linearGradient id="SVGID_1_" gradientUnits="userSpaceOnUse" x1="37.8154" y1="-72.4146" x2="37.8279" y2="-41.3145" gradientTransform="matrix(1.6809 0 0 1.6809 146.25 531.1003)">
				<stop  offset="0" style="stop-color:#BC8221"/>
				<stop  offset="0.1569" style="stop-color:#CD9429"/>
				<stop  offset="0.5686" style="stop-color:#BF913B"/>
				<stop  offset="1" style="stop-color:#CCA45C"/>
			</linearGradient>
			<path fill-rule="evenodd" clip-rule="evenodd" fill="url(#SVGID_1_)" d="M215.17,447.9c-1.12,0-2.24,0.03-3.36,0.08
				c-0.06,0-0.11,0-0.17,0c-2.35-0.11-4.73-0.25-7.14-0.42c0.9,0,1.82,0.03,2.77,0.08C209.4,447.7,212.03,447.78,215.17,447.9z"/>
			<path fill-rule="evenodd" clip-rule="evenodd" fill="#C6943D" d="M177.26,453.02h0.08c8.29,0.34,16.56,0.73,24.79,1.18
				c0.11,0.06,0.22,0.11,0.34,0.17c-17.62-0.73-35-1.4-52.15-2.02C159.32,452.46,168.3,452.69,177.26,453.02z M194.66,450.5
				c11.99-0.17,24.04-0.36,36.14-0.59c0.56,0,1.12,0,1.68,0c2.38,0,4.76,0.06,7.14,0.17c-14.06,0.22-28.21,0.48-42.44,0.76
				C195.95,450.84,195.11,450.72,194.66,450.5z M70.78,452.1c-3.81,0.34-7.37,0.39-10.67,0.17c2.19-0.17,4.43-0.28,6.72-0.34
				c0.22,0,0.42-0.03,0.59-0.08c1.18,0.06,2.33,0.11,3.45,0.17L70.78,452.1z M52.62,451.59c-0.17,0-0.31,0-0.42,0
				c-4.03,0-8.04-0.08-12.02-0.25h0.5c4.03,0.06,8.04,0.11,12.02,0.17L52.62,451.59z M141.38,454.03c-3.14,0.56-5.27,0.5-6.39-0.17
				h0.17C137.26,453.92,139.33,453.97,141.38,454.03z M112.97,452.52c2.07,0.17,4.17,0.2,6.3,0.08c0.06,0,0.14,0.03,0.25,0.08
				c-2.63,0.56-4.96,0.5-6.98-0.17H112.97z M65.99,452.94c15.69-0.17,31.12,0.11,46.31,0.84C96.39,453.5,80.95,453.22,65.99,452.94z
				"/>
			<path fill-rule="evenodd" clip-rule="evenodd" fill="#E1B457" d="M105.74,438.23h-1.68c-1.23,0-2.44,0-3.61,0
				c-4.71,0-9.41,0.06-14.12,0.17c1.29,0.11,2.24,0.2,2.86,0.25c0,0.06,0.08,0.11,0.25,0.17l0.25,0.08c-1.01,0-2.49,0.03-4.45,0.08
				c-2.07,0-4.15,0-6.22,0c0.34-0.06,0.7-0.11,1.09-0.17c-1.34,0.06-2.66,0.11-3.95,0.17c-0.59,0-1.18,0-1.76,0
				c-0.84,0.06-1.65,0.08-2.44,0.08c-6.27-0.11-12.55-0.28-18.83-0.5c15.74-0.06,31.63-0.22,47.65-0.5
				c-3.61-0.11-7.26-0.17-10.93-0.17c-0.62,0-1.21,0-1.77,0c-2.12,0-4.24,0.01-6.35,0.04c0.33-0.01,0.66-0.03,0.97-0.04
				c0.45,0,0.92,0,1.43,0c0.44-0.05,0.9-0.08,1.39-0.08h0.21c2.3,0,4.57-0.03,6.81-0.08c9.47-0.06,18.77,0.08,27.9,0.42l-0.08,0.08
				C115.55,438.18,110.67,438.18,105.74,438.23z M77.46,439.16c0.15,0,0.3-0.03,0.46-0.08c0.24,0.05,0.47,0.08,0.67,0.08
				C78.24,439.16,77.86,439.16,77.46,439.16z M76.24,438.06c0.11-0.06,0.28-0.11,0.5-0.17c0.59,0.05,1.18,0.08,1.77,0.08
				C77.75,437.98,77,438.01,76.24,438.06z M70.86,437.64c-1.63,0-3.25,0-4.87,0c-0.62,0-0.67,0.06-0.17,0.17
				c0.9,0.11,1.77,0.2,2.61,0.25c-6.95,0.11-13.87,0.2-20.76,0.25c-0.39,0-0.76,0-1.09,0c0.28-0.06,0.56-0.08,0.84-0.08v-0.08
				c-3.87-0.39-8.01-0.48-12.44-0.25h-0.17c2.19,0.26,4.67,0.4,7.44,0.42c-2.9,0.05-5.78,0.09-8.66,0.13l0.42-1.43
				c2.87,0.03,5.74,0.04,8.61,0.04c0.29,0.05,0.59,0.08,0.88,0.08c-1.81,0-3.7,0.06-5.67,0.17l-0.17,0.08
				c5.1,0.5,11.04,0.62,17.82,0.34l0.08-0.08c-0.9-0.11-1.79-0.2-2.69-0.25c1.18,0,2.41,0.03,3.7,0.08
				c2.35,0.06,4.68,0.11,6.98,0.17c0.78,0,1.37-0.06,1.77-0.17C67.16,437.53,69.01,437.59,70.86,437.64z M72.04,439.49
				c-2.75-0.06-5.44-0.11-8.07-0.17c0.91,0.05,1.82,0.08,2.73,0.08c-0.31,0.01-0.66,0.03-1.05,0.08c-2.02,0.06-3.92,0.11-5.71,0.17
				c-1.29,0-2.58,0-3.87,0c-8.15,0-15.67-0.28-22.57-0.84l0.08-0.29c5.17,0.03,10.37,0.04,15.59,0.04
				c13.39,0.67,26.78,0.98,40.17,0.92c6.11,0.11,12.24,0.22,18.41,0.34c0.06,0,0.14,0.03,0.25,0.08
				C95.85,439.86,83.86,439.72,72.04,439.49z M33.42,439.07c4.76,0.5,9.9,0.76,15.42,0.76c-1.68,0.06-3.36,0.11-5.04,0.17
				c-1.23,0-2.3,0-3.19,0c-1.14,0-3.6-0.06-7.4-0.17L33.42,439.07z M106.75,440.25c0.11,0,0.2,0.03,0.25,0.08
				c-16.47,0.22-32.61,0.14-48.41-0.25c4.82-0.06,9.67-0.06,14.54,0h0.08C84.36,440.19,95.54,440.25,106.75,440.25z"/>
			<path fill-rule="evenodd" clip-rule="evenodd" fill="#BB8A2B" d="M136.75,439.58c-1.23,0-2.47,0-3.7,0l-0.08-0.08l0.25-0.08
				C134.46,439.46,135.63,439.52,136.75,439.58z M85.53,437.81c-6.71-0.11-13.39-0.25-20.04-0.42c-0.06,0.06-0.11,0.08-0.17,0.08
				c-0.39,0.11-0.98,0.17-1.77,0.17c-2.3-0.06-4.62-0.11-6.98-0.17c-1.29-0.06-2.52-0.08-3.7-0.08c0.9,0.06,1.79,0.14,2.69,0.25
				l-0.08,0.08c-6.78,0.28-12.72,0.17-17.82-0.34l0.17-0.08c1.97-0.11,3.86-0.17,5.67-0.17c-0.29-0.01-0.59-0.04-0.88-0.08
				c-2.88,0-5.75-0.01-8.61-0.04v-0.08c2.65-0.03,5.31-0.04,7.98-0.04c-0.29-0.01-0.55-0.04-0.8-0.08c2.02,0,4.06,0.03,6.13,0.08
				c1.23-0.06,2.47-0.11,3.7-0.17c-4.43,0-8.85-0.06-13.28-0.17h0.59c2.69,0,5.41,0.03,8.15,0.08c5.32,0.06,10.67,0.11,16.05,0.17
				c-1.68,0-3.42,0-5.21,0c0.95,0.06,1.93,0.11,2.94,0.17c-0.9-0.02-1.8-0.04-2.69-0.04c10.12,0.33,20.34,0.57,30.68,0.71
				c1.46,0,2.89,0.03,4.29,0.08c-2.24,0.06-4.51,0.08-6.81,0.08H85.53z M76.16,438.99c1.29-0.06,2.61-0.11,3.95-0.17
				c-0.39,0.06-0.76,0.11-1.09,0.17C78.06,438.99,77.11,438.99,76.16,438.99z M100.45,438.23c1.18,0,2.38,0,3.61,0h1.68
				c0.17,0,0.28,0.06,0.34,0.17C104.17,438.34,102.29,438.29,100.45,438.23z M72.04,439.49c-1.68,0-3.42-0.03-5.21-0.08H66.7
				c-0.91,0-1.82-0.03-2.73-0.08C66.6,439.38,69.29,439.44,72.04,439.49z M68.42,438.06c-0.84-0.06-1.71-0.14-2.61-0.25
				c-0.5-0.11-0.45-0.17,0.17-0.17c1.63,0,3.25,0,4.87,0h0.08c2.02,0.06,4.03,0.11,6.05,0.17c-0.11,0.06-0.2,0.08-0.25,0.08
				c-0.22,0.06-0.39,0.11-0.5,0.17C73.61,438.06,71,438.06,68.42,438.06z M77.92,439.07c-0.16,0.05-0.31,0.08-0.46,0.08h-0.04
				c-1.85,0-3.67-0.03-5.46-0.08c0.78,0,1.6-0.03,2.44-0.08C75.57,439.04,76.75,439.07,77.92,439.07z M42.24,438.31
				c-2.76-0.02-5.24-0.16-7.44-0.42h0.17c4.43-0.22,8.57-0.14,12.44,0.25v0.08c-0.28,0-0.56,0.03-0.84,0.08
				c-1.01-0.06-2.02-0.11-3.03-0.17c-0.56,0-0.62,0.03-0.17,0.08c0.45,0.05,0.87,0.08,1.26,0.08c-0.15,0-0.3,0-0.46,0H42.24z"/>
			<path fill-rule="evenodd" clip-rule="evenodd" fill="#C19044" d="M61.95,456.97c-5.77-0.62-11.77-0.92-17.99-0.92
				c-2.52,0.11-5.01,0.25-7.48,0.42c-1.63,0.11-2.83,0.28-3.61,0.5c9.08-0.45,18.24-0.45,27.48,0c-3.08,0-6.16,0.03-9.25,0.08
				c-0.08,0-0.17,0-0.25,0H50.1c-3.59-0.11-7.23-0.2-10.93-0.25l-0.5,0.08c3.92,0.17,7.9,0.25,11.93,0.25c0.17,0,0.34-0.03,0.5-0.08
				c9.97,0.28,20.03,0.39,30.17,0.34c1.42,0.11,2.81,0.19,4.16,0.25H28.08l0.71-2.44c0.94,0,1.85,0,2.73,0c1.9,0,3.75,0,5.55,0
				c9.19,0.62,18.52,0.98,27.99,1.09c1.57,0.11,3.28,0.25,5.13,0.42c1.74,0.11,3.45,0.22,5.13,0.34
				C70.89,457,66.44,456.97,61.95,456.97z M59.43,455.88c-7.12-0.17-14.23-0.39-21.35-0.67c6.16,0.06,11.68,0.2,16.56,0.42
				C55.93,455.68,57.53,455.77,59.43,455.88z"/>
		</g>
		<g>
			<path fill-rule="evenodd" clip-rule="evenodd" fill="#6C4A27" fill-opacity="0.498" d="M29.85,451.51
				c0.16-0.17,0.36-0.25,0.59-0.25h0.21h223.52l-1.18-16.22l-0.13-1.51h1.68l1.39,18.53c0.01,0.15-0.01,0.29-0.08,0.42
				c-0.08,0.14-0.19,0.25-0.34,0.34c-0.13,0.08-0.27,0.13-0.42,0.13H30.44c-0.23,0-0.43-0.09-0.59-0.25
				c-0.11-0.11-0.19-0.24-0.21-0.38c-0.03-0.07-0.04-0.14-0.04-0.21C29.6,451.87,29.68,451.67,29.85,451.51z"/>
			<path fill-rule="evenodd" clip-rule="evenodd" fill="#C9923F" d="M29.64,452.31c0.02,0.14,0.1,0.27,0.21,0.38
				c0.16,0.17,0.36,0.25,0.59,0.25h224.65c0.15,0,0.29-0.04,0.42-0.13c0.14-0.08,0.26-0.2,0.34-0.34c0.07-0.13,0.1-0.27,0.08-0.42
				l-1.39-18.53h7.31l2.4,24.12h-0.08H28.08L29.64,452.31z M35.94,433.52l-5.29,17.73h-0.21c-0.23,0-0.43,0.09-0.59,0.25l5.17-17.99
				H35.94z"/>
			
				<linearGradient id="SVGID_2_" gradientUnits="userSpaceOnUse" x1="-2.8276" y1="-36.9727" x2="-0.9125" y2="-74.2982" gradientTransform="matrix(1.6809 0 0 1.6809 146.25 531.1003)">
				<stop  offset="0" style="stop-color:#B88834;stop-opacity:0"/>
				<stop  offset="1" style="stop-color:#644B20"/>
			</linearGradient>
			<path fill-rule="evenodd" clip-rule="evenodd" fill="url(#SVGID_2_)" d="M30.65,451.26l5.29-17.73h95.01
				c0.32,0.64,1.22,1.2,2.69,1.68c1.96,0.62,4.31,0.92,7.06,0.92c2.75,0,5.07-0.31,6.98-0.92c0.17-0.05,0.34-0.11,0.5-0.17h104.8
				l1.18,16.22H30.65z"/>
		</g>
	</g>
	<g>
		
			<linearGradient id="SVGID_3_" gradientUnits="userSpaceOnUse" x1="42.2734" y1="81.1177" x2="-8.2344" y2="-65.3571" gradientTransform="matrix(1.6809 0 0 1.6809 146.25 531.1003)">
			<stop  offset="0" style="stop-color:#7B5B24"/>
			<stop  offset="1" style="stop-color:#C09542"/>
		</linearGradient>
		<polygon fill-rule="evenodd" clip-rule="evenodd" fill="url(#SVGID_3_)" points="44.3,464.96 36.99,464.96 36.99,465.04 
			28.17,465.04 28.17,457.48 264.25,457.48 264.25,465.04 255.59,465.04 255.59,464.96 		"/>
	</g>
</g>
</svg>
