<?xml version="1.0" encoding="utf-8"?>
<!-- Generator: Adobe Illustrator 16.0.0, SVG Export Plug-In . SVG Version: 6.00 Build 0)  -->
<!DOCTYPE svg PUBLIC "-//W3C//DTD SVG 1.1//EN" "http://www.w3.org/Graphics/SVG/1.1/DTD/svg11.dtd">
<svg version="1.1" id="Layer_1" xmlns="http://www.w3.org/2000/svg" xmlns:xlink="http://www.w3.org/1999/xlink" x="0px" y="0px"
	 width="700px" height="700px" viewBox="0 0 700 700" enable-background="new 0 0 700 700" xml:space="preserve">
<g>
	
		<linearGradient id="SVGID_1_" gradientUnits="userSpaceOnUse" x1="30.6938" y1="855.1169" x2="124.7939" y2="855.1169" gradientTransform="matrix(1.6809 0 0 -1.6809 90.2869 1765.5796)">
		<stop  offset="0" style="stop-color:#AAAAAA"/>
		<stop  offset="0.2627" style="stop-color:#FFFFFF"/>
		<stop  offset="1" style="stop-color:#737373"/>
	</linearGradient>
	<rect x="170.71" y="315.44" fill="url(#SVGID_1_)" width="111.78" height="25.55"/>
	
		<linearGradient id="SVGID_2_" gradientUnits="userSpaceOnUse" x1="114.3457" y1="855.0291" x2="120.9434" y2="855.0291" gradientTransform="matrix(1.6809 0 0 -1.6809 90.2869 1765.5796)">
		<stop  offset="0" style="stop-color:#747474"/>
		<stop  offset="0.2627" style="stop-color:#FFFFFF"/>
		<stop  offset="1" style="stop-color:#323232"/>
	</linearGradient>
	<path fill="url(#SVGID_2_)" d="M282.49,314.6v-0.84c3.7,0.62,7.4,0.62,11.09,0v28.41c-3.7,1.06-7.4,1.06-11.09,0v-1.18v-25.55
		V314.6z"/>
	
		<linearGradient id="SVGID_3_" gradientUnits="userSpaceOnUse" x1="114.2676" y1="861.2332" x2="41.2906" y2="865.0455" gradientTransform="matrix(1.6809 0 0 -1.6809 90.2869 1765.5796)">
		<stop  offset="0" style="stop-color:#AAAAAA"/>
		<stop  offset="0.2627" style="stop-color:#FFFFFF"/>
		<stop  offset="1" style="stop-color:#737373"/>
	</linearGradient>
	<rect x="170.71" y="314.6" fill="url(#SVGID_3_)" width="111.78" height="0.84"/>
	
		<linearGradient id="SVGID_4_" gradientUnits="userSpaceOnUse" x1="43.3477" y1="855.0291" x2="47.8452" y2="855.0291" gradientTransform="matrix(1.6809 0 0 -1.6809 90.2869 1765.5796)">
		<stop  offset="0" style="stop-color:#AAAAAA"/>
		<stop  offset="0.2627" style="stop-color:#FFFFFF"/>
		<stop  offset="1" style="stop-color:#323232"/>
	</linearGradient>
	<path fill="url(#SVGID_4_)" d="M170.71,340.99v1.18c-2.52,1.06-5.04,1.06-7.56,0v-28.41c2.52,0.62,5.04,0.62,7.56,0v0.84v0.84
		V340.99z"/>
</g>
</svg>
