<?xml version="1.0" encoding="utf-8"?>
<!-- Generator: Adobe Illustrator 16.0.0, SVG Export Plug-In . SVG Version: 6.00 Build 0)  -->
<!DOCTYPE svg PUBLIC "-//W3C//DTD SVG 1.1//EN" "http://www.w3.org/Graphics/SVG/1.1/DTD/svg11.dtd">
<svg version="1.1" id="Layer_1" xmlns="http://www.w3.org/2000/svg" xmlns:xlink="http://www.w3.org/1999/xlink" x="0px" y="0px"
	 width="700px" height="700px" viewBox="0 0 700 700" enable-background="new 0 0 700 700" xml:space="preserve">
<g>
	<g>
		
			<radialGradient id="SVGID_1_" cx="-1.25" cy="41.5" r="23.1625" gradientTransform="matrix(1.6809 0 0 0.1597 146.25 594.2318)" gradientUnits="userSpaceOnUse">
			<stop  offset="0.4588" style="stop-color:#999999"/>
			<stop  offset="0.6667" style="stop-color:#FFFFFF"/>
			<stop  offset="1" style="stop-color:#636363"/>
		</radialGradient>
		<path fill-rule="evenodd" clip-rule="evenodd" fill="url(#SVGID_1_)" d="M157.68,602.03c0.23,0,0.47-0.01,0.71-0.04l5.76-0.63
			c-0.62-0.17-1.4-0.31-2.35-0.42c-0.22,0-0.48-0.03-0.76-0.08c-0.28,0-0.59-0.03-0.92-0.08c-2.18-0.22-4.57-0.36-7.14-0.42
			c-2.58-0.17-5.44-0.25-8.57-0.25c-6.05,0-11.23,0.22-15.55,0.67c-0.78,0.06-1.48,0.14-2.1,0.25c-0.56,0.06-1.04,0.14-1.43,0.25
			c-0.28,0.06-0.5,0.08-0.67,0.08c0.84,0.06,2.35,0.22,4.54,0.5l-0.34-0.08c4.31,0.45,9.5,0.67,15.55,0.67c1.57,0,3.05,0,4.45,0
			l4.62-0.17C154.82,602.23,156.22,602.15,157.68,602.03z M161.13,598.5c0.45,0.11,0.87,0.17,1.26,0.17h0.08
			c2.97,0.39,4.79,0.87,5.46,1.43l0.08,0.08c0.11,0,0.17,0.06,0.17,0.17c0.22,0.22,0.34,0.53,0.34,0.92c0.34,1.29-2.3,2.24-7.9,2.86
			c-4.54,0.45-9.94,0.67-16.22,0.67s-11.63-0.22-16.05-0.67c-4.03-0.45-6.56-1.04-7.56-1.76c-1.06-0.62-1.06-1.34,0-2.19
			c0.62-0.5,1.85-0.9,3.7-1.18c0.62-0.17,3.98-0.42,10.09-0.76c6-0.45,11.82-0.5,17.48-0.17c5.66,0.28,8.66,0.42,8.99,0.42H161.13z"
			/>
	</g>
	<g>
		
			<linearGradient id="SVGID_2_" gradientUnits="userSpaceOnUse" x1="10.9502" y1="-55.7002" x2="13.25" y2="-55.7002" gradientTransform="matrix(1.6809 0 0 1.6809 146.25 531.1003)">
			<stop  offset="0" style="stop-color:#5D5D5D"/>
			<stop  offset="0.2471" style="stop-color:#AAAAAA"/>
			<stop  offset="0.4745" style="stop-color:#FFFFFF"/>
			<stop  offset="0.7608" style="stop-color:#AAAAAA"/>
			<stop  offset="1" style="stop-color:#323232"/>
		</linearGradient>
		<rect x="164.66" y="273.59" fill-rule="evenodd" clip-rule="evenodd" fill="url(#SVGID_2_)" width="3.87" height="327.77"/>
	</g>
	<g>
		
			<radialGradient id="SVGID_3_" cx="14.8999" cy="-156.2002" r="4.2411" fx="14.7502" fy="-156.2002" gradientTransform="matrix(1.6797 -0.0626 0.1554 4.1659 170.5357 920.1867)" gradientUnits="userSpaceOnUse">
			<stop  offset="0.0235" style="stop-color:#646464"/>
			<stop  offset="0.3647" style="stop-color:#474747"/>
			<stop  offset="0.4431" style="stop-color:#808080"/>
			<stop  offset="0.5333" style="stop-color:#BEBEBE"/>
			<stop  offset="0.6353" style="stop-color:#F8F8F8"/>
			<stop  offset="0.7529" style="stop-color:#B1B1B1"/>
			<stop  offset="0.898" style="stop-color:#717171"/>
			<stop  offset="0.9529" style="stop-color:#676767"/>
		</radialGradient>
		<path fill-rule="evenodd" clip-rule="evenodd" fill="url(#SVGID_3_)" d="M166.8,258.63c0.2,0.1,0.44,0.24,0.71,0.42
			c-0.04,0.37,0.01,0.23,0.17-0.42c-0.09,0.52,0.02,0.63,0.34,0.34c-0.41,0.91-0.6,1.39-0.59,1.43c0.17-0.22,0.56-0.81,1.18-1.77
			c-0.36,1.07-0.5,1.66-0.42,1.77c0.04,0.01,0.24-0.46,0.59-1.43l-0.5,1.6c0.15-0.02,0.28,0.01,0.38,0.08
			c0.11,0.06-0.05,0.54-0.46,1.43c0.4-0.7,0.6-0.94,0.59-0.72v0.08c-0.02,0.18,0.05,0.13,0.21-0.17c0.17-0.28,0.31-0.27,0.42,0.04
			c0.11,0.3,0.19,0.44,0.25,0.42c-0.06,0.15-0.12,0.3-0.17,0.46c-0.03,0.08-0.05,0.17-0.08,0.25c-0.27,0.97-0.48,2.16-0.63,3.57
			c-0.21,1.31-0.61,1.87-1.18,1.68c-0.2,0.31-0.36-0.11-0.5-1.26c-0.32,0.85-0.62,1.66-0.92,2.44c-0.06-1.57-0.15-2.77-0.25-3.61
			l-0.08,2.69l-0.17-2.52l-0.17,1.39l-0.55-0.8c0.21-2.02,0.52-3.66,0.92-4.92c0.2-0.65,0.43-1.27,0.67-1.85
			c0.02-0.08,0.05-0.17,0.08-0.25C166.68,258.88,166.74,258.76,166.8,258.63z"/>
		
			<radialGradient id="SVGID_4_" cx="17.3999" cy="-160.25" r="7.5875" fx="17.2511" fy="-160.25" gradientTransform="matrix(1.6809 0 0 1.6809 146.25 531.1003)" gradientUnits="userSpaceOnUse">
			<stop  offset="0.0235" style="stop-color:#646464"/>
			<stop  offset="0.298" style="stop-color:#474747"/>
			<stop  offset="0.3725" style="stop-color:#474747"/>
			<stop  offset="0.6039" style="stop-color:#F8F8F8"/>
			<stop  offset="0.7373" style="stop-color:#7E7E7E"/>
			<stop  offset="1" style="stop-color:#474747"/>
		</radialGradient>
		<path fill-rule="evenodd" clip-rule="evenodd" fill="url(#SVGID_4_)" d="M184.57,258.88c0.48,2.99-0.14,3.36-1.85,1.09
			c-0.14,0.02-0.28-0.04-0.42-0.17c0.12,0.7,0.23,1.29,0.34,1.76c-0.08-0.23-0.16-0.48-0.25-0.76c-0.03,0.97-0.14,0.97-0.34,0
			c-0.34-0.35-0.51-0.24-0.5,0.34c0.01,0.58-0.04,0.38-0.17-0.59c0.03,0.57,0.05,0.96,0.04,1.18c-0.02-0.14-0.05-0.28-0.08-0.42
			c-0.21-0.78-0.43-1.44-0.67-1.97c-1.26-2.7-3.29-3.8-6.09-3.32c-2.16,0.49-3.8,2.4-4.92,5.71c-0.06,0.02-0.14-0.12-0.25-0.42
			c-0.11-0.31-0.25-0.32-0.42-0.04c-0.16,0.29-0.23,0.35-0.21,0.17v-0.08c0.01-0.22-0.19,0.02-0.59,0.72
			c0.41-0.89,0.57-1.37,0.46-1.43c-0.1-0.07-0.23-0.1-0.38-0.08l0.5-1.6c-0.35,0.96-0.55,1.44-0.59,1.43
			c-0.08-0.11,0.06-0.7,0.42-1.77c-0.62,0.96-1.01,1.54-1.18,1.77c-0.01-0.04,0.18-0.52,0.59-1.43c-0.32,0.29-0.43,0.18-0.34-0.34
			c-0.15,0.65-0.21,0.79-0.17,0.42c-0.28-0.18-0.52-0.32-0.71-0.42c1.66-3.79,4.03-5.9,7.1-6.3c4.7-0.86,8.11,0.94,10.21,5.42
			C184.28,258.08,184.43,258.45,184.57,258.88z"/>
		
			<linearGradient id="SVGID_5_" gradientUnits="userSpaceOnUse" x1="10.9502" y1="-154.6367" x2="13.8502" y2="-154.6367" gradientTransform="matrix(1.6809 0 0 1.6809 146.25 531.1003)">
			<stop  offset="0.0235" style="stop-color:#646464"/>
			<stop  offset="0.2157" style="stop-color:#B7B7B7"/>
			<stop  offset="0.3922" style="stop-color:#F8F8F8"/>
			<stop  offset="0.5843" style="stop-color:#B8B8B8"/>
			<stop  offset="0.6784" style="stop-color:#7E7E7E"/>
			<stop  offset="0.7922" style="stop-color:#474747"/>
		</linearGradient>
		<path fill-rule="evenodd" clip-rule="evenodd" fill="url(#SVGID_5_)" d="M168.77,266.02c-0.11,3.98-0.22,7.03-0.34,9.16
			c0,0.5-0.2,0.95-0.59,1.34c-0.34,0.34-0.74,0.52-1.22,0.55c-0.52,0-0.97-0.18-1.34-0.55c-0.42-0.34-0.63-0.76-0.63-1.26
			c-0.06-3.19,0.04-6.27,0.29-9.25l0.55,0.8l0.17-1.39l0.17,2.52l0.08-2.69c0.1,0.84,0.19,2.05,0.25,3.61
			c0.3-0.78,0.61-1.59,0.92-2.44c0.14,1.15,0.31,1.57,0.5,1.26C168.17,267.89,168.56,267.33,168.77,266.02z"/>
		
			<linearGradient id="SVGID_6_" gradientUnits="userSpaceOnUse" x1="21.0234" y1="-156.144" x2="24.3979" y2="-156.598" gradientTransform="matrix(1.6809 0 0 1.6809 146.25 531.1003)">
			<stop  offset="0" style="stop-color:#777171"/>
			<stop  offset="0.1843" style="stop-color:#B0B0B0"/>
			<stop  offset="0.302" style="stop-color:#CECECE"/>
			<stop  offset="0.4431" style="stop-color:#F8F8F8"/>
			<stop  offset="0.5843" style="stop-color:#B8B8B8"/>
			<stop  offset="0.7765" style="stop-color:#7E7E7E"/>
			<stop  offset="0.9569" style="stop-color:#888888"/>
		</linearGradient>
		<path fill-rule="evenodd" clip-rule="evenodd" fill="url(#SVGID_6_)" d="M184.57,258.88c1.11,3.12,1.74,8.71,1.89,16.77
			c0,0.52-0.18,0.97-0.55,1.34c-0.36,0.38-0.79,0.58-1.3,0.59c-0.52,0-0.97-0.18-1.35-0.55c-0.38-0.36-0.58-0.79-0.59-1.3
			c-0.13-6.32-0.55-10.98-1.26-13.99c0-0.21-0.01-0.6-0.04-1.18c0.13,0.97,0.18,1.17,0.17,0.59c0-0.57,0.17-0.69,0.5-0.34
			c0.19,0.97,0.31,0.97,0.34,0c0.09,0.27,0.17,0.52,0.25,0.76c-0.1-0.48-0.22-1.07-0.34-1.76c0.14,0.13,0.28,0.19,0.42,0.17
			C184.44,262.24,185.05,261.87,184.57,258.88z"/>
	</g>
</g>
</svg>
