<?xml version="1.0" encoding="utf-8"?>
<!-- Generator: Adobe Illustrator 16.0.0, SVG Export Plug-In . SVG Version: 6.00 Build 0)  -->
<!DOCTYPE svg PUBLIC "-//W3C//DTD SVG 1.1//EN" "http://www.w3.org/Graphics/SVG/1.1/DTD/svg11.dtd">
<svg version="1.1" id="Layer_1" xmlns="http://www.w3.org/2000/svg" xmlns:xlink="http://www.w3.org/1999/xlink" x="0px" y="0px"
	 width="700px" height="700px" viewBox="0 0 700 700" enable-background="new 0 0 700 700" xml:space="preserve">
<g>
	<g>
		
			<linearGradient id="SVGID_1_" gradientUnits="userSpaceOnUse" x1="-6.2627" y1="14.6006" x2="-0.5377" y2="14.6006" gradientTransform="matrix(1.6809 0 0 1.6809 146.25 531.1003)">
			<stop  offset="0" style="stop-color:#434343"/>
			<stop  offset="0.1843" style="stop-color:#AFAFAF"/>
			<stop  offset="0.3333" style="stop-color:#C9C9C9"/>
			<stop  offset="0.3647" style="stop-color:#FFFFFF"/>
			<stop  offset="0.5216" style="stop-color:#FFFFFF"/>
			<stop  offset="0.5569" style="stop-color:#D2D2D2"/>
			<stop  offset="0.7294" style="stop-color:#727272"/>
			<stop  offset="0.8745" style="stop-color:#8A7979"/>
			<stop  offset="1" style="stop-color:#403838"/>
		</linearGradient>
		<path fill-rule="evenodd" clip-rule="evenodd" fill="url(#SVGID_1_)" d="M137.43,568.67c-0.95-0.73-1.43-1.6-1.43-2.61v-15.3
			c-0.06-3.19-0.92-6.28-2.61-9.25c1.85,2.97,4.85,4.15,8.99,3.53c2.52-0.39,4.12-1.4,4.79-3.03c-1.4,3.81-2.07,6.78-2.02,8.91
			v15.13c0,1.01-0.42,1.88-1.26,2.61c-0.9,0.73-2.02,1.09-3.36,1.09C139.3,569.76,138.27,569.4,137.43,568.67z"/>
	</g>
	<g>
		<path fill-rule="evenodd" clip-rule="evenodd" fill="#FFFFFF" d="M146.33,543.29c-0.11,0.73-0.39,1.6-0.84,2.61
			c-0.39,0.73-0.59,3.33-0.59,7.82c-0.56-5.32-0.11-8.77,1.34-10.34C146.25,543.31,146.28,543.29,146.33,543.29z M138.01,549.25
			v18.99c-0.9-0.62-1.26-1.23-1.09-1.85c-0.17-5.71-0.11-11.07,0.17-16.05C137.37,545.75,137.68,545.39,138.01,549.25z
			 M134.48,543.12l1.93,2.27c0,0.28-0.06,1.21-0.17,2.77C135.86,546.26,135.27,544.58,134.48,543.12z"/>
	</g>
	<g>
		<path fill-rule="evenodd" clip-rule="evenodd" fill="#868683" d="M146.25,57.85c-0.34-0.95-0.98-1.71-1.93-2.27
			c-1.4-0.95-2.3-3.5-2.69-7.65h0.08c0.28-0.11,0.53-0.22,0.76-0.34c0.34,4.37,1.21,7.03,2.61,7.98c1.01,0.62,1.77,1.57,2.27,2.86
			h-0.08C146.75,58.1,146.42,57.9,146.25,57.85z"/>
		
			<linearGradient id="SVGID_2_" gradientUnits="userSpaceOnUse" x1="-7.8125" y1="-136.8564" x2="0.6125" y2="-136.8564" gradientTransform="matrix(1.6809 0 0 1.6809 146.25 531.1003)">
			<stop  offset="0" style="stop-color:#626262;stop-opacity:0.651"/>
			<stop  offset="0.1255" style="stop-color:#FFFFFF;stop-opacity:0.6"/>
			<stop  offset="0.2235" style="stop-color:#979386;stop-opacity:0.3333"/>
			<stop  offset="0.3608" style="stop-color:#FFFFFF;stop-opacity:0.4314"/>
			<stop  offset="0.4706" style="stop-color:#F7F7F6;stop-opacity:0.4353"/>
			<stop  offset="0.6824" style="stop-color:#918E83;stop-opacity:0.4941"/>
			<stop  offset="0.8196" style="stop-color:#686864;stop-opacity:0.7255"/>
			<stop  offset="0.9529" style="stop-color:#FFFFFF;stop-opacity:0.7255"/>
			<stop  offset="1" style="stop-color:#565554;stop-opacity:0.7255"/>
		</linearGradient>
		<path fill-rule="evenodd" clip-rule="evenodd" fill="url(#SVGID_2_)" d="M133.39,58.52c5.55-1.9,9.83-2.13,12.86-0.67
			c0.17,0.06,0.5,0.25,1.01,0.59h0.08l0.08,481.91c0,0.17-0.03,0.36-0.08,0.59c0,0.11-0.03,0.25-0.08,0.42
			c0,0.06-0.03,0.14-0.08,0.25c-0.34,0.73-0.87,1.37-1.6,1.93c-0.39,0.34-0.81,0.62-1.26,0.84c-0.56,0.28-1.18,0.5-1.85,0.67
			c-0.62,0.11-1.26,0.17-1.93,0.17c-1.96,0-3.61-0.56-4.96-1.68c-1.06-0.78-1.74-1.65-2.02-2.6l-0.17-1.18v-7.65l-0.08-472.16v-1.01
			v-0.42H133.39z"/>
		<path fill-rule="evenodd" clip-rule="evenodd" fill="#878784" fill-opacity="0.902" d="M133.39,532.11v7.65l0.17,1.18
			c0.28,0.95,0.95,1.82,2.02,2.6c1.35,1.12,3,1.68,4.96,1.68c0.67,0,1.32-0.06,1.93-0.17c0.67-0.17,1.29-0.39,1.85-0.67
			c0.45-0.22,0.87-0.5,1.26-0.84c0.73-0.56,1.26-1.2,1.6-1.93c-0.06,0.22-0.11,0.42-0.17,0.59c-0.39,0.73-0.95,1.37-1.68,1.93
			c-0.11,0.06-0.22,0.14-0.34,0.25c-0.73,0.56-1.57,0.95-2.52,1.18c-0.67,0.17-1.4,0.25-2.18,0.25c-1.9,0-3.56-0.56-4.96-1.68
			c-1.01-0.78-1.65-1.68-1.93-2.69l-0.17-1.18L133.39,532.11z"/>
		
			<radialGradient id="SVGID_3_" cx="-3.1001" cy="-285.1001" r="6.2125" gradientTransform="matrix(-7.347416e-008 1.6809 -2.0394 -8.914472e-008 -440.3922 57.0885)" gradientUnits="userSpaceOnUse">
			<stop  offset="0" style="stop-color:#8E8E8B;stop-opacity:0.902"/>
			<stop  offset="1" style="stop-color:#B8B8B6;stop-opacity:0.251"/>
		</radialGradient>
		<path fill-rule="evenodd" clip-rule="evenodd" fill="url(#SVGID_3_)" d="M146.25,57.85c-3.03-1.46-7.31-1.23-12.86,0.67
			c0.45-1.35,1.21-2.33,2.27-2.94c1.4-0.95,2.27-3.61,2.6-7.98c0.45,0.22,0.92,0.36,1.43,0.42c0.28,0,0.5,0,0.67,0
			c0.45,0,0.87-0.03,1.26-0.08c0.39,4.15,1.29,6.7,2.69,7.65C145.27,56.14,145.91,56.89,146.25,57.85z"/>
		
			<radialGradient id="SVGID_4_" cx="-3" cy="-285.6499" r="6.95" gradientTransform="matrix(-7.347416e-008 1.6809 -2.0407 -8.919975e-008 -441.7049 55.9961)" gradientUnits="userSpaceOnUse">
			<stop  offset="0" style="stop-color:#8E8E8B;stop-opacity:0.902"/>
			<stop  offset="1" style="stop-color:#B8B8B6;stop-opacity:0.251"/>
		</radialGradient>
		<path fill-rule="evenodd" clip-rule="evenodd" fill="url(#SVGID_4_)" d="M133.31,58.94v1.01h-0.08
			C133.22,59.67,133.25,59.33,133.31,58.94z"/>
	</g>
	<g>
		
			<linearGradient id="SVGID_5_" gradientUnits="userSpaceOnUse" x1="-49.3125" y1="-283.6357" x2="-48.0563" y2="-283.6357" gradientTransform="matrix(1.6726 0.1673 -0.2575 1.6635 146.2501 531.0998)">
			<stop  offset="0" style="stop-color:#989898;stop-opacity:0.902"/>
			<stop  offset="0.5569" style="stop-color:#383838;stop-opacity:0.298"/>
			<stop  offset="1" style="stop-color:#000000;stop-opacity:0"/>
		</linearGradient>
		<path fill-rule="evenodd" clip-rule="evenodd" fill="url(#SVGID_5_)" d="M141.54,49.36c0.11,0.11,0.22,0.2,0.34,0.25v0.08
			c0,0.11,0,0.22,0,0.34c-0.06,0-0.14,0-0.25,0C141.57,49.75,141.54,49.52,141.54,49.36z M141.04,49.02
			c0.06,0.17,0.08,0.34,0.08,0.5c0,0.11,0,0.22,0,0.34c0,0.11,0,0.25,0,0.42c0,0.22-0.03,0.5-0.08,0.84
			c-0.34,1.74-1.26,2.94-2.77,3.61v0.08c-0.34-0.17-0.76-0.36-1.26-0.59c0-0.13,0.06-0.38,0.17-0.76c0.03-0.12,0.06-0.23,0.08-0.34
			c0.11-0.28,0.22-0.64,0.34-1.09c0.17-0.22,0.34-1.26,0.5-3.11c0.06-0.62,0.11-1.09,0.17-1.43l0.5,0.08
			c0.67,0.39,1.23,0.73,1.68,1.01c0.22,0.17,0.42,0.28,0.59,0.34V49.02z"/>
		
			<radialGradient id="SVGID_6_" cx="-2.7002" cy="-285.6499" r="2.1" gradientTransform="matrix(-7.347416e-008 1.6809 -2.0411 -8.921863e-008 -441.3243 55.4922)" gradientUnits="userSpaceOnUse">
			<stop  offset="0" style="stop-color:#FEFEFE;stop-opacity:0.902"/>
			<stop  offset="1" style="stop-color:#FEFEFE;stop-opacity:0"/>
		</radialGradient>
		<path fill-rule="evenodd" clip-rule="evenodd" fill="url(#SVGID_6_)" d="M141.04,49.02c0.06-0.34,0.11-0.67,0.17-1.01l0.25,1.01
			c0,0.11,0.03,0.22,0.08,0.34c0,0.17,0.03,0.39,0.08,0.67c0.17,0.9,0.34,1.63,0.5,2.19c0.28,0.67,0.34,1.18,0.17,1.51
			c-0.11,0.34-0.36-0.17-0.76-1.51c-0.17-0.67-0.31-1.32-0.42-1.93c0-0.17,0-0.31,0-0.42c0-0.11,0-0.22,0-0.34
			C141.12,49.36,141.09,49.19,141.04,49.02z"/>
		
			<radialGradient id="SVGID_7_" cx="-1.0498" cy="-282.3501" r="0.925" gradientTransform="matrix(-7.347416e-008 1.6809 -2.0443 -8.936047e-008 -432.7312 58.2647)" gradientUnits="userSpaceOnUse">
			<stop  offset="0" style="stop-color:#FEFEFE;stop-opacity:0.902"/>
			<stop  offset="1" style="stop-color:#FEFEFE;stop-opacity:0"/>
		</radialGradient>
		<path fill-rule="evenodd" clip-rule="evenodd" fill="url(#SVGID_7_)" d="M144.15,56.5c-0.56-0.62-0.78-0.9-0.67-0.84
			c-0.17-0.39,0.2-0.17,1.09,0.67c0.95,0.84,1.26,1.23,0.92,1.18C145.1,57.45,144.65,57.12,144.15,56.5z"/>
		
			<linearGradient id="SVGID_8_" gradientUnits="userSpaceOnUse" x1="-174.0903" y1="-249.7686" x2="-173.0282" y2="-249.7686" gradientTransform="matrix(1.5034 0.7517 -1.0032 1.3777 146.2496 531.0999)">
			<stop  offset="0" style="stop-color:#989898;stop-opacity:0.902"/>
			<stop  offset="0.5569" style="stop-color:#383838;stop-opacity:0.298"/>
			<stop  offset="1" style="stop-color:#000000;stop-opacity:0"/>
		</linearGradient>
		<path fill-rule="evenodd" clip-rule="evenodd" fill="url(#SVGID_8_)" d="M137.17,53.47c-0.11,0.37-0.17,0.62-0.17,0.76
			c0.5,0.22,0.92,0.42,1.26,0.59c-0.06,0.11-0.42,0.48-1.09,1.09c-0.56,0.73-1.09,1.35-1.6,1.85c-0.28,0.34-0.36,0.53-0.25,0.59
			l-2.02,0.59l0.08-0.5c0.11-0.22,0.22-0.48,0.34-0.76c0.28-0.73,0.87-1.4,1.77-2.02c0.67-0.5,1.18-1.09,1.51-1.76
			C137.07,53.74,137.12,53.6,137.17,53.47z"/>
	</g>
	<g>
		
			<path fill-rule="evenodd" clip-rule="evenodd" fill="none" stroke="#000000" stroke-width="0.75" stroke-linecap="round" stroke-linejoin="round" stroke-miterlimit="3" stroke-opacity="0.7059" d="
			M140.7,65.91H146 M143.22,70.7H146 M143.22,84.74H146 M142.38,89.28H146 M143.22,93.98H146 M143.22,75.33H146 M143.22,80.03H146
			 M143.22,98.61H146 M143.22,103.4H146 M143.22,108.02H146 M140.87,112.73H146 M143.22,126.76H146 M143.22,131.47H146
			 M143.22,122.05H146 M143.22,117.52H146 M143.22,154.75H146 M143.22,150.13H146 M142.38,136.17H146 M143.22,140.88H146
			 M143.22,145.5H146 M143.22,164.16H146 M143.22,173.57H146 M143.22,168.87H146 M140.87,159.45H146 M143.22,178.2H146
			 M142.38,182.9H146 M143.22,192.23H146 M143.22,197.02H146 M143.22,187.53H146 M140.87,206.27H146 M143.22,215.6H146
			 M143.22,201.65H146 M143.22,210.89H146 M143.22,238.96H146 M142.38,229.72H146 M143.22,225.01H146 M143.22,234.25H146
			 M143.22,220.3H146 M143.22,248.37H146 M143.22,257.79H146 M141.04,253.08H146 M143.22,243.75H146 M143.22,271.74H146
			 M142.38,276.44H146 M143.22,267.03H146 M143.22,262.49H146 M143.22,281.07H146 M143.22,295.1H146 M143.22,290.4H146
			 M143.22,309.22H146 M143.22,304.52H146 M143.22,285.86H146 M143.22,313.84H146 M143.22,318.64H146 M140.96,299.81H146
			 M143.22,327.88H146 M143.22,341.92H146 M143.22,337.21H146 M143.22,332.67H146 M142.38,323.26H146 M143.22,351.24H146
			 M143.22,360.57H146 M143.22,355.95H146 M140.87,346.54H146 M142.38,369.99H146 M143.22,365.36H146 M143.22,379.4H146
			 M143.22,384.02H146 M143.22,374.69H146 M143.22,388.73H146 M143.22,398.06H146 M143.22,402.68H146 M140.96,393.44H146
			 M143.22,407.3H146 M143.22,426.21H146 M143.22,421.42H146 M143.22,412.09H146 M142.38,416.72H146 M140.96,440.16H146
			 M143.22,444.87H146 M143.22,435.46H146 M143.22,430.83H146 M142.38,463.44H146 M143.22,468.15H146 M143.22,454.2H146
			 M143.22,458.91H146 M143.22,449.49H146 M141.21,486.98H146 M143.22,482.27H146 M143.22,477.56H146 M143.22,472.86H146
			 M143.22,496.22H146 M143.22,500.93H146 M143.22,505.72H146 M143.22,491.68H146 M142.38,510.34H146 M143.22,515.05H146
			 M143.22,519.75H146 M143.22,524.29H146 M143.22,529H146 M141.71,534.21H146"/>
	</g>
	<g>
		<g>
			<path fill-rule="evenodd" clip-rule="evenodd" d="M137.68,64.74c0.11,0.17,0.2,0.34,0.25,0.5c0,0.22,0,0.5,0,0.84
				c0,0.45-0.03,0.78-0.08,1.01c-0.11,0.28-0.22,0.48-0.34,0.59c-0.17,0.11-0.39,0.17-0.67,0.17c-0.34,0-0.59-0.11-0.76-0.34
				c-0.28-0.34-0.42-0.81-0.42-1.43c0-0.45,0.06-0.76,0.17-0.92c0.11-0.28,0.22-0.5,0.34-0.67c0.17-0.11,0.39-0.17,0.67-0.17
				c0.17,0,0.34,0.03,0.5,0.08C137.45,64.51,137.57,64.62,137.68,64.74z M136.84,64.65c-0.22,0-0.39,0.08-0.5,0.25
				c-0.11,0.22-0.17,0.62-0.17,1.18c0,0.56,0.06,0.95,0.17,1.18c0.11,0.17,0.28,0.25,0.5,0.25s0.39-0.08,0.5-0.25
				c0.11-0.22,0.17-0.62,0.17-1.18c0-0.56-0.06-0.95-0.17-1.18C137.23,64.74,137.06,64.65,136.84,64.65z M134.65,64.32v3.53h-0.5
				v-2.77c-0.06,0.11-0.17,0.22-0.34,0.34c-0.22,0.06-0.39,0.11-0.5,0.17v-0.42c0.28-0.06,0.5-0.17,0.67-0.34
				c0.17-0.17,0.31-0.34,0.42-0.5H134.65z M140.62,65.24c0,0.22,0,0.5,0,0.84c0,0.45-0.03,0.78-0.08,1.01
				c-0.11,0.28-0.22,0.48-0.34,0.59c-0.17,0.11-0.39,0.17-0.67,0.17c-0.34,0-0.59-0.11-0.76-0.34c-0.22-0.34-0.34-0.81-0.34-1.43
				c0-0.45,0.03-0.76,0.08-0.92c0.11-0.28,0.22-0.5,0.34-0.67c0.17-0.11,0.39-0.17,0.67-0.17c0.17,0,0.34,0.03,0.5,0.08
				c0.17,0.11,0.28,0.22,0.34,0.34C140.48,64.9,140.56,65.07,140.62,65.24z M139.02,64.9c-0.11,0.22-0.17,0.62-0.17,1.18
				c0,0.56,0.06,0.95,0.17,1.18c0.11,0.17,0.28,0.25,0.5,0.25s0.39-0.08,0.5-0.25c0.17-0.22,0.25-0.62,0.25-1.18
				c0-0.56-0.08-0.95-0.25-1.18c-0.11-0.17-0.28-0.25-0.5-0.25S139.13,64.74,139.02,64.9z"/>
		</g>
		<g>
			<path fill-rule="evenodd" clip-rule="evenodd" d="M136.16,112.31c0,0.28,0.06,0.48,0.17,0.59c0.11,0.17,0.28,0.25,0.5,0.25
				s0.39-0.08,0.5-0.25c0.11-0.11,0.17-0.31,0.17-0.59c0-0.22-0.06-0.42-0.17-0.59c-0.17-0.11-0.34-0.17-0.5-0.17
				c-0.17,0-0.34,0.06-0.5,0.17C136.22,111.89,136.16,112.08,136.16,112.31z M137.43,111.38c0.17,0.11,0.31,0.28,0.42,0.5
				c0.11,0.22,0.17,0.56,0.17,1.01c0,0.39-0.06,0.73-0.17,1.01c-0.11,0.28-0.25,0.5-0.42,0.67c-0.17,0.11-0.42,0.17-0.76,0.17
				c-0.22,0-0.42-0.08-0.59-0.25c-0.17-0.11-0.28-0.34-0.34-0.67h0.42c0,0.17,0.06,0.31,0.17,0.42c0.11,0.11,0.25,0.17,0.42,0.17
				c0.11,0,0.22-0.03,0.34-0.08c0.11-0.06,0.2-0.14,0.25-0.25c0.06-0.11,0.11-0.25,0.17-0.42c0-0.17,0-0.34,0-0.5v-0.08
				c-0.06,0.11-0.17,0.22-0.34,0.34c-0.11,0.06-0.28,0.08-0.5,0.08c-0.28,0-0.5-0.11-0.67-0.34c-0.22-0.17-0.34-0.45-0.34-0.84
				c0-0.28,0.11-0.53,0.34-0.76c0.22-0.28,0.5-0.42,0.84-0.42C137.06,111.13,137.26,111.21,137.43,111.38z M140.37,111.63
				c0.06,0.17,0.14,0.34,0.25,0.5c0,0.22,0,0.5,0,0.84c0,0.39-0.03,0.73-0.08,1.01c-0.11,0.22-0.22,0.42-0.34,0.59
				c-0.22,0.11-0.45,0.17-0.67,0.17c-0.34,0-0.59-0.11-0.76-0.34c-0.28-0.34-0.42-0.81-0.42-1.43c0-0.45,0.06-0.78,0.17-1.01
				c0.11-0.22,0.22-0.42,0.34-0.59c0.17-0.17,0.39-0.25,0.67-0.25c0.17,0,0.34,0.06,0.5,0.17
				C140.14,111.35,140.25,111.47,140.37,111.63z M139.02,111.8c-0.11,0.17-0.17,0.56-0.17,1.18c0,0.56,0.06,0.92,0.17,1.09
				c0.11,0.22,0.28,0.34,0.5,0.34s0.39-0.11,0.5-0.34c0.11-0.17,0.17-0.53,0.17-1.09c0-0.62-0.06-1.01-0.17-1.18
				c-0.11-0.17-0.28-0.25-0.5-0.25S139.13,111.63,139.02,111.8z"/>
		</g>
		<g>
			<path fill-rule="evenodd" clip-rule="evenodd" d="M140.62,159.2c0,0.45-0.03,0.78-0.08,1.01c-0.11,0.22-0.22,0.42-0.34,0.59
				c-0.22,0.11-0.45,0.17-0.67,0.17c-0.34,0-0.59-0.11-0.76-0.34c-0.28-0.34-0.42-0.81-0.42-1.43c0-0.45,0.06-0.78,0.17-1.01
				c0.11-0.22,0.22-0.42,0.34-0.59c0.17-0.17,0.39-0.25,0.67-0.25c0.17,0,0.34,0.06,0.5,0.17c0.11,0.06,0.22,0.17,0.34,0.34
				c0.06,0.17,0.14,0.34,0.25,0.5C140.62,158.59,140.62,158.87,140.62,159.2z M140.03,158.03c-0.11-0.17-0.28-0.25-0.5-0.25
				s-0.39,0.08-0.5,0.25c-0.11,0.17-0.17,0.56-0.17,1.18c0,0.56,0.06,0.92,0.17,1.09c0.11,0.22,0.28,0.34,0.5,0.34
				s0.39-0.11,0.5-0.34c0.11-0.17,0.17-0.53,0.17-1.09C140.2,158.59,140.14,158.19,140.03,158.03z M138.01,159.96
				c0,0.22-0.11,0.45-0.34,0.67s-0.5,0.34-0.84,0.34c-0.34,0-0.62-0.11-0.84-0.34s-0.34-0.45-0.34-0.67c0-0.28,0.08-0.48,0.25-0.59
				c0.06-0.17,0.2-0.28,0.42-0.34c-0.17-0.11-0.28-0.22-0.34-0.34c-0.11-0.11-0.17-0.25-0.17-0.42c0-0.22,0.08-0.45,0.25-0.67
				c0.17-0.17,0.42-0.25,0.76-0.25c0.28,0,0.5,0.08,0.67,0.25c0.22,0.22,0.34,0.45,0.34,0.67c0,0.17-0.06,0.31-0.17,0.42
				c-0.11,0.11-0.22,0.22-0.34,0.34c0.22,0.06,0.36,0.17,0.42,0.34C137.93,159.54,138.01,159.74,138.01,159.96z M136.84,157.77
				c-0.17,0-0.31,0.06-0.42,0.17c-0.11,0.11-0.17,0.22-0.17,0.34c0,0.17,0.06,0.31,0.17,0.42c0.11,0.06,0.25,0.08,0.42,0.08
				c0.17,0,0.31-0.03,0.42-0.08c0.11-0.11,0.17-0.25,0.17-0.42c0-0.11-0.06-0.22-0.17-0.34C137.15,157.83,137,157.77,136.84,157.77z
				 M137.51,159.96c0-0.22-0.06-0.42-0.17-0.59c-0.11-0.11-0.28-0.17-0.5-0.17s-0.39,0.06-0.5,0.17c-0.17,0.17-0.25,0.36-0.25,0.59
				c0,0.06,0.03,0.14,0.08,0.25c0.06,0.17,0.17,0.28,0.34,0.34c0.06,0.06,0.17,0.08,0.34,0.08c0.22,0,0.39-0.06,0.5-0.17
				C137.45,160.29,137.51,160.13,137.51,159.96z"/>
		</g>
		<g>
			<path fill-rule="evenodd" clip-rule="evenodd" d="M140.62,205.68c0,0.45-0.03,0.78-0.08,1.01c-0.11,0.22-0.22,0.42-0.34,0.59
				c-0.22,0.11-0.45,0.17-0.67,0.17c-0.34,0-0.59-0.11-0.76-0.34c-0.28-0.28-0.42-0.76-0.42-1.43c0-0.45,0.06-0.78,0.17-1.01
				c0.11-0.22,0.22-0.42,0.34-0.59c0.17-0.11,0.39-0.17,0.67-0.17c0.17,0,0.34,0.03,0.5,0.08c0.11,0.06,0.22,0.17,0.34,0.34
				c0.06,0.17,0.14,0.34,0.25,0.5C140.62,205.06,140.62,205.34,140.62,205.68z M140.03,204.5c-0.11-0.17-0.28-0.25-0.5-0.25
				s-0.39,0.08-0.5,0.25c-0.11,0.22-0.17,0.62-0.17,1.18c0,0.56,0.06,0.92,0.17,1.09c0.11,0.22,0.28,0.34,0.5,0.34
				s0.39-0.11,0.5-0.34c0.11-0.17,0.17-0.53,0.17-1.09C140.2,205.12,140.14,204.73,140.03,204.5z M138.01,204.25
				c-0.22,0.28-0.45,0.62-0.67,1.01c-0.22,0.39-0.39,0.78-0.5,1.18c-0.11,0.28-0.17,0.59-0.17,0.92h-0.5c0-0.28,0.06-0.59,0.17-0.92
				c0.11-0.39,0.28-0.78,0.5-1.18c0.17-0.34,0.36-0.64,0.59-0.92h-1.68v-0.42h2.27V204.25z"/>
		</g>
		<g>
			<path fill-rule="evenodd" clip-rule="evenodd" d="M136.92,251.4c-0.17,0-0.31,0.06-0.42,0.17c-0.11,0.11-0.22,0.25-0.34,0.42
				c-0.06,0.17-0.08,0.42-0.08,0.76c0.11-0.17,0.25-0.28,0.42-0.34c0.11-0.06,0.25-0.08,0.42-0.08c0.34,0,0.59,0.11,0.76,0.34
				c0.22,0.17,0.34,0.42,0.34,0.76c0,0.22-0.06,0.45-0.17,0.67c-0.11,0.17-0.25,0.31-0.42,0.42c-0.17,0.06-0.34,0.08-0.5,0.08
				c-0.39,0-0.7-0.11-0.92-0.34c-0.22-0.28-0.34-0.73-0.34-1.34c0-0.67,0.14-1.15,0.42-1.43c0.17-0.28,0.45-0.42,0.84-0.42
				c0.28,0,0.5,0.08,0.67,0.25c0.17,0.17,0.25,0.36,0.25,0.59l-0.34,0.08c-0.06-0.17-0.11-0.31-0.17-0.42
				C137.23,251.46,137.09,251.4,136.92,251.4z M137.51,253.5c0-0.28-0.06-0.48-0.17-0.59c-0.11-0.17-0.28-0.25-0.5-0.25
				c-0.17,0-0.34,0.08-0.5,0.25c-0.11,0.11-0.17,0.28-0.17,0.5c0,0.17,0.03,0.31,0.08,0.42c0.06,0.17,0.14,0.28,0.25,0.34
				c0.11,0.06,0.22,0.08,0.34,0.08c0.22,0,0.39-0.06,0.5-0.17C137.45,253.92,137.51,253.72,137.51,253.5z M140.62,251.99
				c0,0.22,0,0.53,0,0.92c0,0.39-0.03,0.7-0.08,0.92c-0.11,0.28-0.22,0.48-0.34,0.59c-0.22,0.11-0.45,0.17-0.67,0.17
				c-0.34,0-0.59-0.11-0.76-0.34c-0.28-0.28-0.42-0.73-0.42-1.34c0-0.5,0.06-0.84,0.17-1.01c0.11-0.28,0.22-0.5,0.34-0.67
				c0.17-0.11,0.39-0.17,0.67-0.17c0.17,0,0.34,0.03,0.5,0.08c0.11,0.11,0.22,0.22,0.34,0.34
				C140.42,251.65,140.51,251.82,140.62,251.99z M139.02,251.74c-0.11,0.17-0.17,0.56-0.17,1.18c0,0.5,0.06,0.87,0.17,1.09
				c0.11,0.17,0.28,0.25,0.5,0.25s0.39-0.08,0.5-0.25c0.11-0.22,0.17-0.59,0.17-1.09c0-0.62-0.06-1.01-0.17-1.18
				c-0.11-0.22-0.28-0.34-0.5-0.34S139.13,251.51,139.02,251.74z"/>
		</g>
		<g>
			<path fill-rule="evenodd" clip-rule="evenodd" d="M137.68,299.39c0.22,0.22,0.34,0.48,0.34,0.76c0,0.34-0.11,0.62-0.34,0.84
				c-0.17,0.28-0.45,0.42-0.84,0.42c-0.34,0-0.59-0.06-0.76-0.17c-0.22-0.22-0.36-0.48-0.42-0.76l0.5-0.08
				c0,0.22,0.06,0.39,0.17,0.5c0.17,0.11,0.34,0.17,0.5,0.17c0.22,0,0.39-0.06,0.5-0.17c0.11-0.17,0.17-0.39,0.17-0.67
				c0-0.22-0.06-0.39-0.17-0.5c-0.11-0.17-0.28-0.25-0.5-0.25c-0.17,0-0.31,0.03-0.42,0.08c-0.11,0.06-0.2,0.14-0.25,0.25
				l-0.42-0.08l0.34-1.77h1.76v0.42h-1.43l-0.17,0.93c0.22-0.17,0.45-0.25,0.67-0.25C137.26,299.05,137.51,299.16,137.68,299.39z
				 M140.62,298.8c0,0.22,0,0.53,0,0.93c0,0.39-0.03,0.7-0.08,0.92c-0.11,0.28-0.22,0.48-0.34,0.59c-0.22,0.11-0.45,0.17-0.67,0.17
				c-0.34,0-0.59-0.11-0.76-0.34c-0.28-0.28-0.42-0.73-0.42-1.34c0-0.5,0.06-0.87,0.17-1.09c0.11-0.22,0.22-0.42,0.34-0.59
				c0.17-0.11,0.39-0.17,0.67-0.17c0.17,0,0.34,0.03,0.5,0.08c0.11,0.11,0.22,0.22,0.34,0.34
				C140.42,298.46,140.51,298.63,140.62,298.8z M139.02,298.55c-0.11,0.17-0.17,0.56-0.17,1.18c0,0.5,0.06,0.87,0.17,1.09
				c0.11,0.17,0.28,0.25,0.5,0.25s0.39-0.08,0.5-0.25c0.11-0.22,0.17-0.59,0.17-1.09c0-0.62-0.06-1.01-0.17-1.18
				c-0.11-0.22-0.28-0.34-0.5-0.34S139.13,298.32,139.02,298.55z"/>
		</g>
		<g>
			<path fill-rule="evenodd" clip-rule="evenodd" d="M140.62,345.7c0,0.22,0,0.53,0,0.92c0,0.39-0.03,0.7-0.08,0.92
				c-0.11,0.28-0.22,0.48-0.34,0.59c-0.22,0.11-0.45,0.17-0.67,0.17c-0.34,0-0.59-0.11-0.76-0.34c-0.28-0.28-0.42-0.73-0.42-1.34
				c0-0.45,0.06-0.78,0.17-1.01c0.11-0.28,0.22-0.48,0.34-0.59c0.17-0.17,0.39-0.25,0.67-0.25c0.17,0,0.34,0.03,0.5,0.08
				c0.11,0.11,0.22,0.22,0.34,0.34C140.42,345.36,140.51,345.53,140.62,345.7z M139.02,345.36c-0.11,0.22-0.17,0.64-0.17,1.26
				c0,0.56,0.06,0.92,0.17,1.09c0.11,0.17,0.28,0.25,0.5,0.25s0.39-0.08,0.5-0.25c0.11-0.17,0.17-0.53,0.17-1.09
				c0-0.62-0.06-1.04-0.17-1.26c-0.11-0.17-0.28-0.25-0.5-0.25S139.13,345.19,139.02,345.36z M137.93,347.46h-0.42v0.84h-0.42v-0.84
				h-1.51v-0.42l1.6-2.27h0.34v2.27h0.42V347.46z M137.09,347.04v-1.6l-1.09,1.6H137.09z"/>
		</g>
		<g>
			<path fill-rule="evenodd" clip-rule="evenodd" d="M140.37,392.09c0.06,0.17,0.14,0.34,0.25,0.5c0,0.22,0,0.5,0,0.84
				c0,0.45-0.03,0.78-0.08,1.01c-0.11,0.28-0.22,0.48-0.34,0.59c-0.22,0.11-0.45,0.17-0.67,0.17c-0.34,0-0.59-0.11-0.76-0.34
				c-0.28-0.28-0.42-0.76-0.42-1.43c0-0.39,0.06-0.7,0.17-0.93c0.11-0.28,0.22-0.5,0.34-0.67c0.17-0.11,0.39-0.17,0.67-0.17
				c0.17,0,0.34,0.03,0.5,0.08C140.14,391.87,140.25,391.98,140.37,392.09z M139.02,392.26c-0.11,0.22-0.17,0.62-0.17,1.18
				c0,0.62,0.06,1.01,0.17,1.18c0.11,0.17,0.28,0.25,0.5,0.25s0.39-0.08,0.5-0.25c0.11-0.17,0.17-0.56,0.17-1.18
				c0-0.56-0.06-0.95-0.17-1.18c-0.11-0.17-0.28-0.25-0.5-0.25S139.13,392.09,139.02,392.26z M138.01,394.11
				c0,0.34-0.11,0.62-0.34,0.84c-0.22,0.17-0.5,0.25-0.84,0.25c-0.34,0-0.59-0.08-0.76-0.25c-0.22-0.17-0.36-0.39-0.42-0.67
				l0.42-0.08c0.06,0.28,0.14,0.45,0.25,0.5c0.11,0.11,0.28,0.17,0.5,0.17c0.17,0,0.34-0.08,0.5-0.25c0.11-0.11,0.17-0.28,0.17-0.5
				c0-0.17-0.06-0.31-0.17-0.42c-0.11-0.17-0.28-0.25-0.5-0.25c-0.11,0-0.22,0.03-0.34,0.08l0.08-0.33h0.08
				c0.17,0,0.34-0.06,0.5-0.17s0.25-0.25,0.25-0.42s-0.08-0.31-0.25-0.42c-0.06-0.11-0.17-0.17-0.34-0.17
				c-0.22,0-0.39,0.06-0.5,0.17c-0.11,0.11-0.17,0.28-0.17,0.5l-0.42-0.08c0.06-0.34,0.17-0.56,0.34-0.67
				c0.17-0.17,0.39-0.25,0.67-0.25c0.22,0,0.42,0.03,0.59,0.08c0.11,0.11,0.22,0.22,0.34,0.34c0.06,0.17,0.08,0.34,0.08,0.5
				s-0.03,0.31-0.08,0.42c-0.11,0.11-0.22,0.2-0.34,0.25c0.17,0.06,0.31,0.14,0.42,0.25C137.93,393.69,138.01,393.88,138.01,394.11z
				"/>
		</g>
		<g>
			<path fill-rule="evenodd" clip-rule="evenodd" d="M137.68,438.65c0.17,0.22,0.25,0.45,0.25,0.67c0,0.17-0.03,0.31-0.08,0.42
				c-0.06,0.11-0.17,0.25-0.34,0.42c-0.06,0.17-0.25,0.39-0.59,0.67c-0.28,0.22-0.45,0.36-0.5,0.42c-0.11,0.06-0.17,0.11-0.17,0.17
				h1.68v0.5h-2.27c0-0.11,0-0.22,0-0.34c0.06-0.17,0.17-0.31,0.34-0.42c0.11-0.17,0.28-0.36,0.5-0.59c0.39-0.28,0.64-0.5,0.76-0.67
				c0.17-0.22,0.25-0.42,0.25-0.59s-0.06-0.31-0.17-0.42c-0.11-0.11-0.28-0.17-0.5-0.17s-0.39,0.06-0.5,0.17
				c-0.11,0.11-0.17,0.28-0.17,0.5h-0.42c0-0.34,0.11-0.59,0.34-0.76c0.17-0.17,0.42-0.25,0.76-0.25
				C137.17,438.4,137.45,438.48,137.68,438.65z M140.37,438.82c0.06,0.17,0.14,0.34,0.25,0.5c0,0.22,0,0.5,0,0.84
				c0,0.45-0.03,0.78-0.08,1.01c-0.11,0.28-0.22,0.48-0.34,0.59c-0.22,0.11-0.45,0.17-0.67,0.17c-0.34,0-0.59-0.11-0.76-0.34
				c-0.28-0.28-0.42-0.76-0.42-1.43c0-0.39,0.06-0.7,0.17-0.92c0.11-0.28,0.22-0.5,0.34-0.67c0.17-0.11,0.39-0.17,0.67-0.17
				c0.17,0,0.34,0.03,0.5,0.08C140.14,438.59,140.25,438.71,140.37,438.82z M139.02,438.99c-0.11,0.22-0.17,0.62-0.17,1.18
				c0,0.62,0.06,1.01,0.17,1.18c0.11,0.17,0.28,0.25,0.5,0.25s0.39-0.08,0.5-0.25c0.11-0.17,0.17-0.56,0.17-1.18
				c0-0.56-0.06-0.95-0.17-1.18c-0.11-0.17-0.28-0.25-0.5-0.25S139.13,438.82,139.02,438.99z"/>
		</g>
		<g>
			<path fill-rule="evenodd" clip-rule="evenodd" d="M137.26,484.37v3.53h-0.42v-2.77c-0.11,0.11-0.22,0.2-0.34,0.25
				c-0.22,0.17-0.39,0.25-0.5,0.25v-0.42c0.22-0.06,0.45-0.17,0.67-0.34c0.17-0.17,0.31-0.34,0.42-0.5H137.26z M140.62,486.22
				c0,0.39-0.03,0.7-0.08,0.92c-0.11,0.28-0.22,0.48-0.34,0.59c-0.22,0.11-0.45,0.17-0.67,0.17c-0.34,0-0.59-0.08-0.76-0.25
				c-0.28-0.33-0.42-0.81-0.42-1.43c0-0.45,0.06-0.81,0.17-1.09c0.11-0.22,0.22-0.42,0.34-0.59c0.17-0.11,0.39-0.17,0.67-0.17
				c0.17,0,0.34,0.03,0.5,0.08c0.11,0.11,0.22,0.22,0.34,0.34c0.06,0.17,0.14,0.34,0.25,0.5
				C140.62,485.52,140.62,485.83,140.62,486.22z M140.03,485.04c-0.11-0.22-0.28-0.34-0.5-0.34s-0.39,0.11-0.5,0.34
				c-0.11,0.17-0.17,0.56-0.17,1.18c0,0.56,0.06,0.92,0.17,1.09c0.11,0.22,0.28,0.33,0.5,0.33s0.39-0.11,0.5-0.33
				c0.11-0.17,0.17-0.53,0.17-1.09C140.2,485.6,140.14,485.21,140.03,485.04z"/>
		</g>
		<g>
			<path fill-rule="evenodd" clip-rule="evenodd" d="M140.37,532.36c0.06,0.17,0.14,0.37,0.25,0.59c0,0.17,0,0.42,0,0.76
				c0,0.45-0.03,0.79-0.08,1.01c-0.11,0.28-0.22,0.48-0.34,0.59c-0.22,0.11-0.45,0.17-0.67,0.17c-0.34,0-0.59-0.11-0.76-0.34
				c-0.28-0.28-0.42-0.76-0.42-1.43c0-0.39,0.06-0.7,0.17-0.92c0.11-0.28,0.22-0.5,0.34-0.67c0.17-0.11,0.39-0.17,0.67-0.17
				c0.17,0,0.34,0.03,0.5,0.08C140.14,532.14,140.25,532.25,140.37,532.36z M139.02,532.53c-0.11,0.22-0.17,0.62-0.17,1.18
				c0,0.56,0.06,0.95,0.17,1.18c0.11,0.17,0.28,0.25,0.5,0.25s0.39-0.08,0.5-0.25c0.11-0.22,0.17-0.62,0.17-1.18
				c0-0.56-0.06-0.95-0.17-1.18c-0.11-0.17-0.28-0.25-0.5-0.25S139.13,532.36,139.02,532.53z"/>
		</g>
	</g>
	<g>
		
			<radialGradient id="SVGID_9_" cx="-3.1499" cy="-290.8999" r="5.0875" gradientTransform="matrix(-7.347416e-008 1.6809 -1.6479 -7.202995e-008 -338.4051 47.4234)" gradientUnits="userSpaceOnUse">
			<stop  offset="0.1569" style="stop-color:#979795;stop-opacity:0"/>
			<stop  offset="0.298" style="stop-color:#979795;stop-opacity:0.3216"/>
			<stop  offset="0.4784" style="stop-color:#515151;stop-opacity:0.5765"/>
			<stop  offset="0.6627" style="stop-color:#FFFFFF;stop-opacity:0.7098"/>
			<stop  offset="0.7294" style="stop-color:#C3C3C2;stop-opacity:0.8392"/>
			<stop  offset="0.7882" style="stop-color:#555555;stop-opacity:0.902"/>
			<stop  offset="0.8784" style="stop-color:#FFFFFF;stop-opacity:0.5765"/>
			<stop  offset="1" style="stop-color:#989895;stop-opacity:0.7922"/>
		</radialGradient>
		<path fill-rule="evenodd" clip-rule="evenodd" fill="url(#SVGID_9_)" d="M143.98,42.21c0-1.06-0.34-1.96-1.01-2.69
			c-0.78-0.73-1.65-1.09-2.6-1.09c-1.01,0-1.85,0.36-2.52,1.09c-0.78,0.73-1.18,1.63-1.18,2.69c0,0.95,0.39,1.79,1.18,2.52
			c0,0.06,0.06,0.11,0.17,0.17c0.62,0.67,1.4,1.01,2.35,1.01c0.84,0,1.63-0.34,2.35-1.01c0.06-0.06,0.14-0.11,0.25-0.17
			C143.65,44.01,143.98,43.17,143.98,42.21z M144.99,37.42c1.23,1.29,1.85,2.86,1.85,4.71c0,1.01-0.22,1.93-0.67,2.77
			c-0.17,0.39-0.36,0.73-0.59,1.01c-0.17,0.22-0.36,0.48-0.59,0.76c-0.11,0.06-0.2,0.14-0.25,0.25c-0.5,0.45-1.06,0.81-1.68,1.09
			c-0.28,0.17-0.59,0.31-0.93,0.42h-0.08c-0.5,0.11-1.06,0.17-1.68,0.17c-0.22,0-0.48,0-0.76,0c-0.67-0.11-1.29-0.31-1.85-0.59
			c-0.11-0.06-0.22-0.11-0.34-0.17c-0.06-0.06-0.11-0.08-0.17-0.08c-0.17-0.11-0.34-0.22-0.5-0.34c-0.06-0.06-0.11-0.11-0.17-0.17
			c-0.28-0.22-0.48-0.42-0.59-0.59c-0.62-0.5-1.09-1.09-1.43-1.76c-0.39-0.84-0.59-1.76-0.59-2.77c0-1.85,0.67-3.42,2.02-4.71
			c1.18-1.29,2.63-1.93,4.37-1.93C142.1,35.49,143.65,36.13,144.99,37.42z"/>
	</g>
</g>
</svg>
