<?xml version="1.0" encoding="utf-8"?>
<!-- Generator: Adobe Illustrator 16.0.0, SVG Export Plug-In . SVG Version: 6.00 Build 0)  -->
<!DOCTYPE svg PUBLIC "-//W3C//DTD SVG 1.1//EN" "http://www.w3.org/Graphics/SVG/1.1/DTD/svg11.dtd">
<svg version="1.1" id="Layer_1" xmlns="http://www.w3.org/2000/svg" xmlns:xlink="http://www.w3.org/1999/xlink" x="0px" y="0px"
	 width="700px" height="700px" viewBox="0 0 700 700" enable-background="new 0 0 700 700" xml:space="preserve">
<g id="Layer_1_1_">
	<g id="Layer_29">
		<g>
			<g>
				
					<radialGradient id="SVGID_1_" cx="819.041" cy="880.2881" r="458.4799" gradientTransform="matrix(1 0 0 0.9302 -513.9404 -209.0117)" gradientUnits="userSpaceOnUse">
					<stop  offset="0" style="stop-color:#FFFFFF"/>
					<stop  offset="0.6" style="stop-color:#FEFEFE;stop-opacity:0.7804"/>
					<stop  offset="0.7804" style="stop-color:#FCFCFC;stop-opacity:0.2706"/>
					<stop  offset="1" style="stop-color:#FAFAFA;stop-opacity:0"/>
				</radialGradient>
				<path fill="url(#SVGID_1_)" d="M735.2,609.1c0.2,0,0.3,0.1,0.5,0.3c0.2,0.2,0.3,0.3,0.3,0.5c0,0.2-0.1,0.4-0.3,0.6
					c-0.2,0.1-0.3,0.1-0.5,0.1h-860.3c-0.2,0-0.4,0-0.4-0.1c-0.2-0.2-0.3-0.4-0.3-0.6c0-0.2,0.1-0.3,0.3-0.5
					c0.1-0.2,0.3-0.3,0.4-0.3H735.2z"/>
				<g>
					<rect x="-125.6" y="611.7" fill="#342921" width="860.3" height="105.9"/>
				</g>
				<g>
					<line fill="none" x1="-79.6" y1="610.5" x2="646.3" y2="610.5"/>
				</g>
				<g>
					
						<radialGradient id="SVGID_2_" cx="809.54" cy="738.002" r="504.2875" gradientTransform="matrix(1 0 0 1.2439 -513.9404 -407.4694)" gradientUnits="userSpaceOnUse">
						<stop  offset="0" style="stop-color:#709589"/>
						<stop  offset="0.7451" style="stop-color:#415452"/>
						<stop  offset="1" style="stop-color:#395257"/>
						<stop  offset="1" style="stop-color:#25363A"/>
					</radialGradient>
					<rect x="-125.6" y="-127.3" fill="url(#SVGID_2_)" width="860.3" height="654.6"/>
				</g>
				<g>
					
						<linearGradient id="SVGID_3_" gradientUnits="userSpaceOnUse" x1="818.7129" y1="790.375" x2="818.7425" y2="764.2" gradientTransform="matrix(1 0 0 1 -513.9404 -258.54)">
						<stop  offset="0" style="stop-color:#000000"/>
						<stop  offset="0.1529" style="stop-color:#000000;stop-opacity:0.6588"/>
						<stop  offset="1" style="stop-color:#000000;stop-opacity:0"/>
					</linearGradient>
					<path fill="url(#SVGID_3_)" d="M734.7,543c0,4.9-0.9,7.3-2.8,7.3h-854.2c-1.8,0-2.8-2.4-2.8-7.3v-72.3h859.8V543z"/>
				</g>
				<g>
					<g>
						<rect x="-131.9" y="675.5" fill="#493A25" width="877.6" height="20.6"/>
						
							<radialGradient id="SVGID_4_" cx="787.04" cy="948.5869" r="500.7873" gradientTransform="matrix(1 0 0 0.6557 -513.9404 -15.215)" gradientUnits="userSpaceOnUse">
							<stop  offset="0" style="stop-color:#CEB197"/>
							<stop  offset="0.9882" style="stop-color:#474430"/>
						</radialGradient>
						<rect x="-131.9" y="513.5" fill="url(#SVGID_4_)" width="877.6" height="162"/>
					</g>
				</g>
				<g>
					
						<radialGradient id="SVGID_5_" cx="863.9688" cy="806.0049" r="426.0452" gradientTransform="matrix(1 0 -0.2927 5.2311 -324.7231 -3540.5906)" gradientUnits="userSpaceOnUse">
						<stop  offset="0" style="stop-color:#FFFFFF"/>
						<stop  offset="0.749" style="stop-color:#FFFFFF;stop-opacity:0.498"/>
						<stop  offset="1" style="stop-color:#FFFFFF;stop-opacity:0"/>
					</radialGradient>
					<polygon fill="url(#SVGID_5_)" points="729.4,675.4 729.3,677 -122.8,677 -122.7,675.4 					"/>
				</g>
			</g>
		</g>
	</g>
	<g id="Layer_28">
		<g>
			<g>
				<polygon fill-opacity="0.2471" points="250.5,670.8 267,653.1 333.6,581.8 347.2,567.2 653.3,567.2 592.8,676.8 333.6,676.8 
					244.8,676.8 				"/>
			</g>
			<g>
				<polygon points="519.2,570 644.7,570 606,635.2 519.2,635.2 333.6,635.2 292.1,635.2 333.6,591.6 354.2,570 				"/>
			</g>
		</g>
	</g>
	<g id="Layer_26">
		<g>
			<polygon fill="#C0C4C7" points="605.2,616.8 605.2,634 519.2,634 388.8,634 333.6,634 294.4,634 294.4,616.8 			"/>
			<polygon fill="#CDD0D4" points="643.4,556.2 643.4,570.1 605.5,634 605.2,634 605.2,616.8 605.3,616.8 			"/>
			
				<linearGradient id="SVGID_6_" gradientUnits="userSpaceOnUse" x1="787.9424" y1="733.2744" x2="964.2491" y2="834.2877" gradientTransform="matrix(1 0 0 1 -513.9404 -258.54)">
				<stop  offset="0.1216" style="stop-color:#8B8A8E"/>
				<stop  offset="1" style="stop-color:#B1B2B6"/>
			</linearGradient>
			<polygon fill="url(#SVGID_6_)" points="643.4,556.2 605.3,616.8 605.2,616.8 294.4,616.8 294.4,616.8 350.8,556 643.4,556 			"/>
		</g>
	</g>
	<g id="Layer_25">
		<path fill="#F0E8F0" d="M643.4,557l-16.2,25.5v-0.8l16.2-25.5V557z M294.4,617.4v-0.6h39.2H432h87.2H605l13.5-21.1v0.8l-13.3,21
			h-85.9H432h-98.4L294.4,617.4L294.4,617.4z"/>
	</g>
	<g id="Layer_24">
		<g>
			
				<linearGradient id="SVGID_7_" gradientUnits="userSpaceOnUse" x1="1077.5225" y1="725.4219" x2="1135.3257" y2="772.3668" gradientTransform="matrix(1 0 0 1 -513.9404 -258.54)">
				<stop  offset="0" style="stop-color:#757C84"/>
				<stop  offset="0.1961" style="stop-color:#C7CACD"/>
				<stop  offset="1" style="stop-color:#E3E8EB"/>
			</linearGradient>
			<polygon fill="url(#SVGID_7_)" points="597.3,604.9 590.1,398.9 616.1,398.9 628.1,556.5 			"/>
			
				<radialGradient id="SVGID_8_" cx="1021.9893" cy="654.3809" r="182.0506" gradientTransform="matrix(1 0 0 0.8594 -513.9404 -192.4643)" gradientUnits="userSpaceOnUse">
				<stop  offset="0" style="stop-color:#757C84"/>
				<stop  offset="0.6039" style="stop-color:#A4A9AE"/>
				<stop  offset="0.7451" style="stop-color:#C7CACD"/>
				<stop  offset="1" style="stop-color:#C7CACD"/>
			</radialGradient>
			<polygon fill="url(#SVGID_8_)" points="590.1,398.9 597.3,604.9 519.2,604.9 432,604.9 388.8,604.9 369,604.9 388.8,485.3 
				393.3,457.8 396.7,437.6 403,398.9 			"/>
		</g>
	</g>
	<g id="Layer_23">
		<g>
			<polygon fill="#373637" points="627.2,582 618.4,595.8 618.4,577.9 618.4,561 627.2,548 			"/>
			<polygon fill="#A8A2A8" points="616.8,559.5 616.8,598 602,598 602,559.5 602,559.5 602,559.5 			"/>
			<polygon fill="#CAC4CB" points="629.2,542.1 616.8,559.5 616.8,559.5 602,559.5 618.2,541.3 629.2,541.3 			"/>
			<polygon fill="#F3EAF0" points="616.8,598 616.8,559.5 616.8,559.5 629.2,542.1 629.2,578.8 627.2,582 627.2,548 618.4,561 
				618.4,577.9 618.4,595.8 618.4,595.8 617.3,597.5 617.3,597.7 			"/>
		</g>
	</g>
	<g id="Layer_22">
		<g>
			<path fill-opacity="0.251" d="M653.9,591c3.6-0.1,6.2,0.5,7.7,1.7c2.5,1.6,3.3,4,2.3,7.4c-0.7,2.1-0.4,4,0.8,5.8v-0.1
				c1.8,2.1,7.2,4.5,16.3,7.3h-0.1c12.8,3.5,35.5,5.3,68.1,5.3v7c-33.5,0-56.8-1.8-69.9-5.5c-0.1,0-0.1,0-0.2,0
				c-11.2-3.4-17.8-6.7-19.8-9.9c-2.5-3.5-3.2-7.4-1.8-11.7c-0.7-0.2-1.7-0.3-3.1-0.2l-26.8,0.1c-0.9,0-1.7-0.3-2.4-0.8
				c-0.6-0.6-1-1.3-1.1-2.2l-1.9-16.8c-1-0.7-2-1.2-3.3-1.4v-7.6c4.3,0.1,7.6,2.2,9.7,6.2c0.2,0.4,0.3,0.8,0.4,1.2l1.6,14.6
				L653.9,591z"/>
		</g>
		<g>
			<g>
				<path d="M664.6,589c4.7-4.7,7.6-8.2,8.8-10.3c-1.6,0-3.8,0.4-6.5,1.1c-16.9,4.2-31.5,2.1-43.8-6.5l0.2,0.2
					c-1.4-0.8-3-1.4-4.8-1.8v-8.5c3.5,0.5,6.5,1.6,9.1,3.3c0,0,0.1,0,0.2,0c10.4,7.1,22.7,8.9,37.1,5.3c4.5-1.2,7.9-1.6,10.2-1.3
					c4.7,0.4,7,2.4,7,6c0.8,3.5-3.1,9.7-11.7,18.3c-1.9,1.9-2.7,3.5-2.4,4.8c1.4,2,4.9,3.8,10.4,5.4c13.4,3.9,37,6.2,70.7,7v8.3
					c-34.9-0.8-59.2-3.2-73-7.3c-8.3-2.4-13.4-5.4-15.3-9.1C658,599.3,659.2,594.5,664.6,589z"/>
			</g>
			<g>
				<g>
					
						<radialGradient id="SVGID_9_" cx="1162.4395" cy="835.04" r="14.8013" gradientTransform="matrix(1 0 0 1 -513.9404 -258.54)" gradientUnits="userSpaceOnUse">
						<stop  offset="0" style="stop-color:#FFFFFF"/>
						<stop  offset="1" style="stop-color:#FFFFFF;stop-opacity:0"/>
						<stop  offset="1" style="stop-color:#000000"/>
					</radialGradient>
					<path fill="url(#SVGID_9_)" d="M655.7,578.1c-4.8,0.9-9.8,0.4-15-1.4c-5.3-1.8-7.4-2.7-6.5-2.7c7.1,2.9,13.6,4,19.6,3.5
						S660.4,577.2,655.7,578.1z"/>
					
						<radialGradient id="SVGID_10_" cx="1217.1406" cy="872.0381" r="25.3502" gradientTransform="matrix(1 0 0 1 -513.9404 -258.54)" gradientUnits="userSpaceOnUse">
						<stop  offset="0" style="stop-color:#FFFFFF"/>
						<stop  offset="1" style="stop-color:#FFFFFF;stop-opacity:0"/>
						<stop  offset="1" style="stop-color:#000000"/>
					</radialGradient>
					<path fill="url(#SVGID_10_)" d="M728.5,615c-14.2,0-28.4-1.2-42.5-3.6c-0.2,0-0.2-0.1,0-0.1c13,1.6,26.1,2.8,39.2,3.5
						C726.3,614.8,727.4,614.8,728.5,615z"/>
					
						<radialGradient id="SVGID_11_" cx="1177.5391" cy="856.7881" r="7.1023" gradientTransform="matrix(1 0 0 1 -513.9404 -258.54)" gradientUnits="userSpaceOnUse">
						<stop  offset="0" style="stop-color:#FFFFFF"/>
						<stop  offset="1" style="stop-color:#FFFFFF;stop-opacity:0"/>
						<stop  offset="1" style="stop-color:#000000"/>
					</radialGradient>
					<path fill="url(#SVGID_11_)" d="M663,599.8c-0.6-1.8,0.4-4.3,3.1-7.3c-3.6,4.5-3.2,8.3,1.2,11.3
						C665,602.9,663.6,601.6,663,599.8z"/>
				</g>
			</g>
		</g>
	</g>
	<g id="Layer_21">
		<g>
			<polygon fill="#A7AEB4" points="576.5,495.5 576.7,495.5 579,492 579.2,492 579.3,495.5 581.3,577 581.7,584 581.8,588 
				582,591.3 579,588 579,588 578.8,584 578.5,577 576.5,495.7 			"/>
			<polygon fill="#78838B" points="390.5,588 405,495.5 576.5,495.5 576.5,495.7 578.5,577 578.8,584 579,588 579,588 			"/>
			<polygon fill="#687279" points="576.5,495.5 405,495.5 390.5,588 390.5,588.1 388.8,589.5 386.3,591.5 386.3,591.5 388.8,575.4 
				402,492 405.7,492 576.3,492 579,492 576.7,495.5 			"/>
			<polygon fill="#F7F9F9" points="386.3,591.5 388.8,589.5 390.5,588.1 390.5,588 579,588 579,588 579,588 582,591.3 582,591.5 
				579.2,591.5 388.8,591.5 			"/>
		</g>
	</g>
	<g id="Layer_19">
		<g enable-background="new    ">
			<path d="M418.9,576.4c0,2.3-1.4,3.5-3.2,3.5c-1.9,0-3.1-1.4-3.1-3.4c0-2.1,1.3-3.5,3.2-3.5C417.8,573,418.9,574.4,418.9,576.4z
				 M413.9,576.5c0,1.4,0.7,2.5,1.9,2.5s1.9-1.1,1.9-2.5c0-1.3-0.6-2.5-1.9-2.5C414.5,573.9,413.9,575.1,413.9,576.5z"/>
			<path d="M420,573.1h3.9v1h-2.7v1.9h2.5v1h-2.5v2.9H420V573.1z"/>
			<path d="M425.1,573.1h3.9v1h-2.7v1.9h2.5v1h-2.5v2.9h-1.2V573.1L425.1,573.1z"/>
		</g>
		<g enable-background="new    ">
			<path d="M428,524.8c0,2.3-1.4,3.5-3.2,3.5c-1.9,0-3.1-1.4-3.1-3.4c0-2.1,1.3-3.5,3.2-3.5C426.9,521.4,428,522.8,428,524.8z
				 M423,524.9c0,1.4,0.7,2.5,1.9,2.5c1.2,0,1.9-1.1,1.9-2.5c0-1.3-0.6-2.5-1.9-2.5C423.7,522.3,423,523.5,423,524.9z"/>
			<path d="M429.1,528.2v-6.7h1.4l1.7,2.9c0.5,0.7,0.8,1.5,1.1,2.3l0,0c-0.1-0.9-0.1-1.8-0.1-2.8v-2.3h1.1v6.7H433l-1.8-3
				c-0.4-0.7-0.9-1.6-1.2-2.3l0,0c0.1,0.9,0.1,1.8,0.1,2.9v2.4L429.1,528.2L429.1,528.2z"/>
		</g>
		<g>
			<path d="M418.6,505.2c0.1,0,0.3,0,0.5,0c0.7,0,1.3-0.2,1.7-0.5c0.5-0.3,0.8-0.8,0.8-1.4c0.1-0.6,0-1-0.3-1.3s-0.8-0.4-1.5-0.4
				c-0.3,0-0.5,0-0.6,0c-0.2,0-0.3,0.1-0.4,0.1l-0.5,3.4C418.3,505.1,418.4,505.2,418.6,505.2z M421.7,500.4
				c0.5,0.1,0.9,0.3,1.1,0.6c0.3,0.2,0.5,0.5,0.6,1c0.1,0.4,0.1,0.8,0,1.3c-0.1,0.5-0.2,0.9-0.4,1.3c-0.2,0.4-0.5,0.7-0.8,1
				c-0.4,0.4-1,0.7-1.5,0.8c-0.6,0.2-1.2,0.3-1.9,0.3c-0.2,0-0.3,0-0.5,0c-0.1,0-0.2,0-0.3,0l-0.6,3.8h-1.9l1.5-9.9
				c0.4-0.1,0.8-0.1,1.3-0.2c0.5-0.1,1-0.1,1.7-0.1C420.6,500.2,421.2,500.2,421.7,500.4z M429.5,501.5c-0.6,0-1.1,0.2-1.6,0.5
				c-0.4,0.3-0.8,0.8-1.2,1.4c-0.3,0.6-0.5,1.2-0.6,1.9c-0.1,0.7-0.1,1.3,0.1,1.9c0.1,0.6,0.3,1,0.7,1.3c0.4,0.3,0.8,0.5,1.5,0.5
				c0.6,0,1.1-0.2,1.6-0.5s0.8-0.7,1.2-1.3c0.3-0.6,0.5-1.2,0.6-2c0.1-0.6,0-1.2-0.1-1.8c-0.1-0.6-0.3-1-0.7-1.4
				C430.6,501.8,430.2,501.6,429.5,501.5z M427.2,500.8c0.8-0.4,1.6-0.7,2.6-0.7s1.8,0.2,2.4,0.7c0.6,0.5,1.1,1.1,1.3,1.8
				c0.2,0.7,0.3,1.6,0.2,2.6c-0.2,1.1-0.6,2.1-1.1,2.8c-0.6,0.8-1.2,1.4-2,1.9c-0.8,0.4-1.7,0.6-2.6,0.6c-1,0-1.8-0.2-2.4-0.7
				c-0.6-0.4-1-1-1.3-1.8c-0.2-0.8-0.3-1.7-0.1-2.7s0.5-1.9,1-2.8C425.8,501.8,426.4,501.2,427.2,500.8z M446,500.3h1.8l-4.3,10.1
				h-2l-0.3-4.8c0-0.6,0-1.1,0-1.6s0-1,0-1.5c-0.2,0.5-0.3,1-0.5,1.5s-0.4,1.1-0.7,1.6l-1.9,4.8h-2l-0.9-10.1h2l0.3,4.6
				c0,0.6,0,1.2,0,1.9c0,0.6,0,1.1,0,1.6l0,0c0.1-0.5,0.3-1.1,0.5-1.7c0.2-0.6,0.5-1.2,0.8-1.9l1.8-4.5h2l0.3,4.7
				c0,0.6,0.1,1.2,0.1,1.8c0,0.6,0,1.1,0,1.6l0,0c0.2-0.5,0.4-1.1,0.5-1.7c0.2-0.6,0.5-1.2,0.7-1.8L446,500.3z M450.3,504.3h3.8
				l-0.2,1.5H450l-0.5,3h4.3l-0.2,1.5h-6.1l1.5-10.1h5.9l-0.3,1.5h-4L450.3,504.3z M459.6,501.5c-0.3,0-0.5,0-0.8,0
				c-0.2,0-0.3,0-0.4,0.1l-0.5,3.2h1.1c0.6,0,1.1-0.1,1.5-0.4c0.4-0.3,0.7-0.7,0.8-1.2c0.1-0.6,0-1-0.3-1.3
				C460.7,501.6,460.2,501.5,459.6,501.5z M461.5,500.3c0.5,0.1,0.8,0.4,1.1,0.7c0.3,0.2,0.4,0.5,0.5,0.8c0.1,0.3,0.1,0.7,0.1,1.2
				c-0.1,0.4-0.2,0.8-0.4,1.2c-0.3,0.3-0.5,0.6-0.8,0.8s-0.6,0.4-1,0.5l0,0c0.4,0.1,0.6,0.4,0.8,0.7s0.3,0.8,0.3,1.3
				c0.1,0.4,0.1,0.8,0.1,1.2c0,0.4,0.1,0.7,0.1,1s0,0.5,0.1,0.6h-1.9c0-0.2-0.1-0.4-0.2-0.8c-0.1-0.4-0.1-0.9-0.1-1.5
				s-0.2-1.1-0.5-1.4c-0.2-0.3-0.6-0.4-1.1-0.4h-0.9l-0.7,4.1h-1.8l1.5-9.9c0.4-0.1,0.8-0.1,1.3-0.2c0.5-0.1,1-0.1,1.5-0.1
				C460.3,500.2,461,500.2,461.5,500.3z"/>
		</g>
		<g>
			<path d="M520.5,502c-0.2,0.6-0.4,1.2-0.6,1.8c-0.3,0.7-0.6,1.3-0.8,2l-1.9,4.5h-1.4l-1.1-4.4c-0.2-0.6-0.3-1.3-0.4-2
				c-0.2-0.7-0.3-1.3-0.3-1.9c-0.1,0.6-0.2,1.3-0.3,2c-0.1,0.8-0.2,1.5-0.3,2.2l-0.5,4h-1.8l1.5-10h2.4l1,4c0.1,0.6,0.3,1.2,0.4,1.8
				c0,0.5,0.1,1.1,0.3,1.7h0.1c0.1-0.6,0.3-1.1,0.6-1.7c0.2-0.6,0.4-1.2,0.7-1.8l1.6-4h2.4v10h-1.8v-4.1c0-0.7,0-1.4,0-2.1
				C520.5,503.3,520.5,502.6,520.5,502L520.5,502z M531.2,503.3c-0.2-0.6-0.4-1-0.8-1.3c-0.4-0.3-1-0.5-1.6-0.5
				c-0.6,0-1.1,0.2-1.5,0.5c-0.5,0.3-0.8,0.7-1.1,1.3c-0.2,0.6-0.4,1.2-0.4,1.9c-0.1,0.7,0,1.3,0.3,1.8c0.1,0.5,0.4,1,0.9,1.4
				c0.4,0.3,0.9,0.5,1.5,0.5s1.1-0.2,1.5-0.5c0.4-0.3,0.8-0.7,1-1.3c0.3-0.6,0.4-1.2,0.4-1.9C531.5,504.5,531.4,503.9,531.2,503.3z
				 M528.9,500.1c1,0,1.8,0.2,2.5,0.7c0.7,0.4,1.2,1,1.5,1.8c0.4,0.7,0.5,1.6,0.5,2.5c-0.1,1.1-0.4,2.1-0.8,2.9
				c-0.5,0.8-1.1,1.4-1.8,1.9c-0.8,0.4-1.6,0.6-2.6,0.6s-1.9-0.2-2.5-0.7c-0.7-0.5-1.2-1.1-1.6-1.9c-0.3-0.8-0.5-1.7-0.3-2.7
				c0-1,0.2-1.9,0.7-2.7c0.4-0.8,1-1.4,1.8-1.8C527.1,500.3,527.9,500.1,528.9,500.1z M538.3,501.5c-0.3,0-0.5,0-0.8,0
				c-0.2,0-0.4,0-0.5,0.1l-0.2,7.2c0.1,0,0.3,0,0.5,0s0.4,0.1,0.6,0.1c1.2,0,2.1-0.3,2.8-1c0.7-0.6,1-1.6,1.1-2.9
				c0-1.1-0.3-1.9-0.9-2.5C540.3,501.9,539.4,501.5,538.3,501.5z M538.2,500.2c0.9,0,1.7,0.1,2.4,0.3c0.7,0.2,1.2,0.5,1.7,0.8
				c0.5,0.4,0.9,0.9,1.2,1.5c0.2,0.6,0.3,1.3,0.3,2.2s-0.2,1.7-0.4,2.3c-0.3,0.7-0.7,1.2-1.2,1.7s-1.2,0.8-2,1.1
				c-0.8,0.2-1.7,0.4-2.7,0.4c-0.6,0-1.1-0.1-1.5-0.1s-0.8-0.1-1-0.1l0.3-9.8c0.4-0.1,0.9-0.1,1.3-0.2
				C537,500.2,537.5,500.2,538.2,500.2z M551.4,500.3v1.5h-4.2v2.6h3.9v1.5h-3.9v3h4.4v1.5h-6.3v-10.1H551.4z"/>
		</g>
		<g enable-background="new    ">
			<path d="M525.3,581.3V575h1.3v2.5h2.5V575h1.3v6.4h-1.3v-2.8h-2.5v2.8H525.3z"/>
			<path d="M531.7,581.3V575h4.7v1.1H533v1.4h3.2v1.1H533v1.7h3.6v1.1H531.7z"/>
			<path d="M543.4,581.3H542l-0.6-1.4h-2.5l-0.5,1.4H537l2.5-6.4h1.4L543.4,581.3z M541,578.8l-0.9-2.4l-0.9,2.4H541z"/>
			<path d="M544.8,581.3V576h-1.9V575h5.1v1.1h-1.9v5.3H544.8z"/>
			<path d="M548.8,581.3V575h1.3v6.4H548.8z"/>
			<path d="M551.3,581.3V575h1.3l2.6,4.3V575h1.2v6.4h-1.3l-2.6-4.2v4.2H551.3z"/>
			<path d="M560.7,579v-1.1h2.8v2.5c-0.3,0.3-0.7,0.5-1.2,0.7c-0.5,0.2-1,0.3-1.6,0.3c-0.7,0-1.2-0.1-1.7-0.4
				c-0.5-0.3-0.9-0.7-1.1-1.2s-0.4-1.1-0.4-1.7c0-0.7,0.1-1.3,0.4-1.8c0.3-0.5,0.7-0.9,1.2-1.2c0.4-0.2,0.9-0.3,1.5-0.3
				c0.8,0,1.4,0.2,1.9,0.5s0.7,0.8,0.9,1.4l-1.3,0.2c-0.1-0.3-0.3-0.6-0.5-0.7c-0.2-0.2-0.6-0.3-0.9-0.3c-0.6,0-1,0.2-1.3,0.5
				s-0.5,0.9-0.5,1.6c0,0.8,0.2,1.3,0.5,1.7c0.3,0.4,0.8,0.6,1.3,0.6c0.3,0,0.5-0.1,0.8-0.2s0.5-0.2,0.7-0.4V579H560.7z"/>
		</g>
	</g>
	<g id="Layer_17">
		<g>
			<g>
				<g>
					
						<linearGradient id="SVGID_12_" gradientUnits="userSpaceOnUse" x1="872.4404" y1="568.9902" x2="1163.4404" y2="568.9902" gradientTransform="matrix(1 0 0 1 -513.9404 -258.54)">
						<stop  offset="1.960784e-002" style="stop-color:#716A6B"/>
						<stop  offset="0.4392" style="stop-color:#A39DA1"/>
						<stop  offset="0.9725" style="stop-color:#777273"/>
					</linearGradient>
					<path fill="url(#SVGID_12_)" d="M649.5,331c-0.2-2.2-1-4.4-2.3-6.5c-0.7-1-1.5-2-2.5-3c-6.4-6.6-19-12.6-37.8-17.8
						C578.5,295.9,544.3,292,504,292c-40.2,0-74.5,3.9-102.9,11.8c-18.8,5.2-31.4,11.1-37.8,17.8c-2.9,3-4.5,6.2-4.8,9.5
						c0-0.4,0-0.8,0-1.1c0-3.8,1.7-7.5,5.1-11c6.4-6.5,18.9-12.3,37.5-17.4c28.4-7.8,62.7-11.8,102.9-11.8s74.5,3.9,102.9,11.8
						c18.6,5.1,31.1,11,37.5,17.5c1.2,1.2,2.1,2.4,2.9,3.6c1.5,2.3,2.2,4.8,2.2,7.3C649.5,330.2,649.5,330.6,649.5,331z"/>
					
						<radialGradient id="SVGID_13_" cx="1019.9404" cy="589.4395" r="144.2345" gradientTransform="matrix(1 0 0 1 -513.9404 -258.54)" gradientUnits="userSpaceOnUse">
						<stop  offset="1.176471e-002" style="stop-color:#AEA6A4"/>
						<stop  offset="0.4706" style="stop-color:#F0F0F2"/>
						<stop  offset="1" style="stop-color:#6E6869"/>
					</radialGradient>
					<path fill="url(#SVGID_13_)" d="M649.5,331c-0.3,2.8-1.4,5.5-3.5,8.1c-0.2,0.2-0.3,0.3-0.5,0.5c-0.8,0.9-1.6,1.7-2.5,2.6
						c-6.8,5.9-18.8,11.2-36.1,16C578.5,366,544.3,370,504,370c-40.2,0-74.5-3.9-102.9-11.8c-19.7-5.4-32.6-11.6-38.6-18.6
						c0-0.5,0-1.1,0-1.6c0-5.6,0.3-11.2,0.9-16.6c6.3-6.6,18.9-12.6,37.8-17.8c28.4-7.8,62.7-11.8,102.9-11.8
						c40.2,0,74.5,3.9,102.9,11.8c18.9,5.2,31.5,11.1,37.8,17.8c0.9,1,1.8,2,2.5,3C648.5,326.6,649.3,328.8,649.5,331z M632,328
						c0.1-0.4,0.1-0.8,0.1-1.3c0-8.3-12.5-15.4-37.5-21.3s-55.2-8.8-90.6-8.8s-65.6,2.9-90.7,8.8c-25,5.9-37.5,13-37.5,21.3
						c0,0.4,0,0.9,0.1,1.3c-0.1,0.4-0.1,0.8-0.1,1.3c0,0.4,0,0.9,0.1,1.3c0.7,4.8,5.7,9.1,14.8,13.1c4.6,2,10.4,3.9,17.3,5.7
						c0.4,0.1,0.9,0.2,1.4,0.4c3.9,1.2,8.3,2.4,13.3,3.6c22.1,5.1,48.8,7.6,80,7.6s57.9-2.5,80-7.6c0.6-0.1,1.2-0.3,1.8-0.4h0.1
						c3.4-0.7,6.8-1.4,10-2.2c23.8-5.6,36.3-12.2,37.5-20c0.1-0.4,0.1-0.8,0.1-1.3C632,328.9,632,328.5,632,328z"/>
					
						<linearGradient id="SVGID_14_" gradientUnits="userSpaceOnUse" x1="889.6406" y1="585.9902" x2="1145.9404" y2="585.9902" gradientTransform="matrix(1 0 0 1 -513.9404 -258.54)">
						<stop  offset="0" style="stop-color:#4D4445"/>
						<stop  offset="0.1137" style="stop-color:#857C7D"/>
						<stop  offset="0.298" style="stop-color:#F0EBEB"/>
						<stop  offset="0.4118" style="stop-color:#A39A99"/>
						<stop  offset="0.5647" style="stop-color:#A8A09E"/>
						<stop  offset="0.6471" style="stop-color:#D0CECF"/>
						<stop  offset="0.7098" style="stop-color:#D5D3D4"/>
						<stop  offset="0.7961" style="stop-color:#FFFFFF"/>
						<stop  offset="1" style="stop-color:#514D4D"/>
					</linearGradient>
					<path fill="url(#SVGID_14_)" d="M375.8,328c-0.1-0.4-0.1-0.8-0.1-1.3c0-8.3,12.5-15.4,37.5-21.3c25.1-5.9,55.3-8.8,90.7-8.8
						c35.4,0,65.6,2.9,90.6,8.8s37.5,13,37.5,21.3c0,0.4,0,0.9-0.1,1.3c-1.2,7.8-13.7,14.5-37.5,20.1c-3.3,0.8-6.6,1.5-10,2.1
						c-0.6,0.2-1.3,0.3-1.9,0.5c-22.1,5.1-48.7,7.6-80,7.6s-58-2.5-80-7.6c-5-1.1-9.4-2.3-13.3-3.6
						C388.1,341.8,376.9,335.4,375.8,328z"/>
					
						<linearGradient id="SVGID_15_" gradientUnits="userSpaceOnUse" x1="889.54" y1="602.9395" x2="1145.9404" y2="602.9395" gradientTransform="matrix(1 0 0 1 -513.9404 -258.54)">
						<stop  offset="1.960784e-002" style="stop-color:#6F6067"/>
						<stop  offset="0.2275" style="stop-color:#A39A99"/>
						<stop  offset="0.6627" style="stop-color:#BDBBBB"/>
						<stop  offset="1" style="stop-color:#514D4D"/>
					</linearGradient>
					<path fill="url(#SVGID_15_)" d="M375.8,328c1.1,7.3,12.3,13.7,33.4,19.1c3.9,1.2,8.3,2.4,13.3,3.6c22.1,5.1,48.8,7.6,80,7.6
						s57.9-2.5,80-7.6c0.6-0.1,1.3-0.3,1.9-0.5c3.4-0.7,6.8-1.4,10-2.1c23.8-5.6,36.3-12.3,37.5-20.1c0.1,0.4,0.1,0.8,0.1,1.3
						c0,0.4,0,0.9-0.1,1.3c-1.2,7.8-13.7,14.5-37.5,20c-3.3,0.8-6.6,1.5-10,2.2h-0.1c-0.6,0.1-1.2,0.3-1.8,0.4
						c-22.1,5.1-48.7,7.6-80,7.6s-58-2.5-80-7.6c-5-1.1-9.4-2.3-13.3-3.6c-0.5-0.1-0.9-0.3-1.4-0.4c-6.9-1.8-12.6-3.7-17.3-5.7
						c-9.1-3.9-14.1-8.3-14.8-13.1c-0.1-0.4-0.1-0.8-0.1-1.3C375.7,328.9,375.7,328.5,375.8,328z"/>
					
						<linearGradient id="SVGID_16_" gradientUnits="userSpaceOnUse" x1="874.5156" y1="614.2402" x2="1130.6655" y2="614.2402" gradientTransform="matrix(1 0 0 1 -513.9404 -258.54)">
						<stop  offset="1.960784e-002" style="stop-color:#6F6067"/>
						<stop  offset="0.2275" style="stop-color:#A39A99"/>
						<stop  offset="0.6627" style="stop-color:#BDBBBB"/>
						<stop  offset="1" style="stop-color:#514D4D"/>
					</linearGradient>
					<path fill="url(#SVGID_16_)" d="M362.5,339.6c6,7,18.9,13.1,38.6,18.6C429.6,366,463.9,370,504,370c40.2,0,74.5-3.9,102.9-11.8
						c17.3-4.7,29.3-10.1,36.1-16c0.9-0.9,1.8-1.7,2.5-2.6c0.1-0.2,0.3-0.3,0.5-0.5l-0.5,3.3c0-0.2,0-0.3,0-0.5
						c-0.4,0.5-0.9,1-1.3,1.4c-6.5,6.3-18.7,12-36.7,17c-0.2,0-0.5,0.1-0.6,0.2c-28.4,7.9-62.7,11.8-102.9,11.8
						s-74.5-3.9-102.9-11.8c-0.2-0.1-0.4-0.1-0.6-0.2l0,0c-19.3-5.4-32-11.5-38-18.4l-0.3-2.5l-0.1-0.2
						C362.3,339.3,362.4,339.4,362.5,339.6z"/>
					<path fill="#716A6B" d="M363.4,321.5c-0.6,5.4-0.9,11-0.9,16.6c0,0.5,0,1,0,1.6c-0.1-0.2-0.3-0.3-0.4-0.5
						c-2.1-2.6-3.3-5.4-3.6-8.1C358.9,327.7,360.5,324.5,363.4,321.5z"/>
					
						<radialGradient id="SVGID_17_" cx="1006.8906" cy="717.2686" r="193.9883" gradientTransform="matrix(1 0 0 0.6879 -513.9404 -106.6216)" gradientUnits="userSpaceOnUse">
						<stop  offset="0" style="stop-color:#FFFFFF"/>
						<stop  offset="0.502" style="stop-color:#D0D6D9"/>
						<stop  offset="1" style="stop-color:#C5C5C6"/>
					</radialGradient>
					<path fill="url(#SVGID_17_)" d="M362.6,341.9c6,6.9,18.6,13,38,18.4l0,0c0.2,0,0.4,0.1,0.6,0.2c28.4,7.9,62.7,11.8,102.9,11.8
						c40.2,0,74.5-3.9,102.9-11.8c0.2-0.1,0.4-0.1,0.6-0.2c18-5,30.2-10.6,36.7-17c0.5-0.5,0.9-0.9,1.3-1.4c0,0.2,0,0.3,0,0.5
						c-1,38.2-14.8,70.8-41.5,98c-27.6,28.4-60.9,42.7-100,42.7c-39.1,0-72.4-14.2-100-42.7c-26.5-27.1-40.3-59.6-41.3-97.5
						C362.6,342.5,362.6,342.2,362.6,341.9z"/>
				</g>
			</g>
			
				<radialGradient id="SVGID_18_" cx="676.5273" cy="935.458" r="26.032" gradientTransform="matrix(0.9334 0.335 -0.1307 0.3031 -108.3997 -162.9453)" gradientUnits="userSpaceOnUse">
				<stop  offset="0" style="stop-color:#FFFFFF"/>
				<stop  offset="0.1059" style="stop-color:#FFFFFF"/>
				<stop  offset="0.251" style="stop-color:#FFFFFF;stop-opacity:0.4235"/>
				<stop  offset="0.4902" style="stop-color:#FFFFFF;stop-opacity:0.2314"/>
				<stop  offset="0.651" style="stop-color:#FFFFFF;stop-opacity:8.235294e-002"/>
				<stop  offset="1" style="stop-color:#FFFFFF;stop-opacity:0"/>
			</radialGradient>
			<path fill="url(#SVGID_18_)" d="M420,347.8c4.2,3.3,5.8,6,4.9,8.1c-1,2.3-4.2,3.2-9.6,2.8c-5.3-0.1-11.2-1.3-17.9-3.7
				c-6.7-2.4-11.9-5.2-15.8-8.4c-4-3-5.5-5.7-4.6-8c0.9-2,4-3,9.2-2.9c5.2,0,11.2,1.2,17.8,3.6C410.8,341.8,416.1,344.6,420,347.8z"
				/>
			
				<radialGradient id="SVGID_19_" cx="1409.6914" cy="1589.5264" r="39.2336" gradientTransform="matrix(0.9947 0.1032 -0.108 0.123 -668.3227 -41.2487)" gradientUnits="userSpaceOnUse">
				<stop  offset="0" style="stop-color:#FFFFFF"/>
				<stop  offset="0.1765" style="stop-color:#FFFFFF"/>
				<stop  offset="0.3059" style="stop-color:#FFFFFF;stop-opacity:0.4235"/>
				<stop  offset="0.4902" style="stop-color:#FFFFFF;stop-opacity:0.2314"/>
				<stop  offset="0.651" style="stop-color:#FFFFFF;stop-opacity:8.235294e-002"/>
				<stop  offset="1" style="stop-color:#FFFFFF;stop-opacity:0"/>
			</radialGradient>
			<path fill="url(#SVGID_19_)" d="M558,304.5c-10.7-1.1-19.2-2.6-25.7-4.3c-6.6-1.6-9.3-3.1-8.2-4.5c1.1-1.3,5.7-2,14-2.1
				c8.2-0.2,17.6,0.2,28.3,1.3c10.7,1.1,19.4,2.5,26,4.3c6.9,1.8,9.8,3.3,8.7,4.5c-1.2,1.4-6.1,2.1-14.6,2.1
				C578.1,306.1,568.7,305.6,558,304.5z"/>
			
				<radialGradient id="SVGID_20_" cx="706.9932" cy="991.5527" r="26.0366" gradientTransform="matrix(2.0682 -8.762088e-002 -0.189 0.2663 -748.2835 165.5215)" gradientUnits="userSpaceOnUse">
				<stop  offset="0" style="stop-color:#FFFFFF"/>
				<stop  offset="0.1059" style="stop-color:#FFFFFF"/>
				<stop  offset="0.251" style="stop-color:#FFFFFF;stop-opacity:0.4235"/>
				<stop  offset="0.4902" style="stop-color:#FFFFFF;stop-opacity:0.2314"/>
				<stop  offset="0.651" style="stop-color:#FFFFFF;stop-opacity:8.235294e-002"/>
				<stop  offset="1" style="stop-color:#FFFFFF;stop-opacity:0"/>
			</radialGradient>
			<path fill="url(#SVGID_20_)" d="M567.3,361.3c9.7,1,14,2.3,12.7,4.1c-1.4,2-7.9,3.8-19.5,5.5c-11.2,1.8-24.1,3-38.9,3.7
				c-14.7,0.6-26.7,0.4-35.8-0.5c-9.4-0.8-13.3-2.2-12-4.2c1.3-1.8,7.5-3.6,18.7-5.4c11.1-1.8,24-3.1,38.6-3.7
				C546,360.2,558,360.3,567.3,361.3z"/>
		</g>
	</g>
	<g id="Layer_16">
		<g>
			<path fill="#79CAFF" fill-opacity="0.6039" d="M385.7,334.4c0-2.1,1-4.1,3.1-6c4.8-4.5,15.3-8.5,31.5-11.9
				c23.1-4.9,51-7.4,83.6-7.4c32.7,0,60.5,2.5,83.5,7.4c23.1,5,34.6,10.9,34.6,17.9c0,0.2,0,0.3,0,0.5H385.8
				C385.7,334.7,385.7,334.6,385.7,334.4z"/>
		</g>
	</g>
	<g id="Layer_11">
		<g>
			
				<radialGradient id="SVGID_21_" cx="-788.6699" cy="468.6895" r="84.9251" gradientTransform="matrix(4.533422e-002 0.999 -0.1216 -0.4436 687.5097 1526.9734)" gradientUnits="userSpaceOnUse">
				<stop  offset="0" style="stop-color:#FFFFFF"/>
				<stop  offset="0.1059" style="stop-color:#FFFFFF"/>
				<stop  offset="0.251" style="stop-color:#FFFFFF;stop-opacity:0.4235"/>
				<stop  offset="0.4902" style="stop-color:#FFFFFF;stop-opacity:0.2314"/>
				<stop  offset="0.651" style="stop-color:#FFFFFF;stop-opacity:8.235294e-002"/>
				<stop  offset="1" style="stop-color:#FFFFFF;stop-opacity:0"/>
			</radialGradient>
			<path fill="url(#SVGID_21_)" d="M589,364.7c-1.9,0.4-3.8,0.8-5.8,1.1c0-2.4-0.1-4.8-0.1-7.1c-0.8-38.5-0.2-54.4,1.7-47.6
				c1.3,4.9,3.2,22.7,5.5,53.3C589.8,364.5,589.4,364.6,589,364.7z"/>
			
				<radialGradient id="SVGID_22_" cx="1099.1895" cy="630.0313" r="3.369" gradientTransform="matrix(0.9982 -5.998462e-002 3.2401 53.9179 -2543.9612 -33376.8438)" gradientUnits="userSpaceOnUse">
				<stop  offset="0" style="stop-color:#FFFFFF"/>
				<stop  offset="0.1059" style="stop-color:#FFFFFF"/>
				<stop  offset="0.251" style="stop-color:#FFFFFF;stop-opacity:0.4235"/>
				<stop  offset="0.4902" style="stop-color:#FFFFFF;stop-opacity:0.2314"/>
				<stop  offset="0.651" style="stop-color:#FFFFFF;stop-opacity:8.235294e-002"/>
				<stop  offset="1" style="stop-color:#FFFFFF;stop-opacity:0"/>
			</radialGradient>
			<path fill="url(#SVGID_22_)" d="M594.8,449.2c0.3-0.2,0.6-0.5,0.9-0.8c1.9,32.6,3.7,67.9,5.5,106c0.8,17.8,1.5,34.6,2.1,50.4
				h-10.2c-1.7-30.2-3.4-62.7-5-97.5c-0.8-18-1.5-35-2.2-51c0.9-0.7,1.8-1.4,2.7-2.1L594.8,449.2z"/>
			
				<radialGradient id="SVGID_23_" cx="1130.7402" cy="803.3398" r="0.85" gradientTransform="matrix(1 0 0 1 -513.9404 -258.54)" gradientUnits="userSpaceOnUse">
				<stop  offset="0" style="stop-color:#FFFFFF"/>
				<stop  offset="0.1059" style="stop-color:#FFFFFF"/>
				<stop  offset="0.251" style="stop-color:#FFFFFF;stop-opacity:0.4235"/>
				<stop  offset="0.4902" style="stop-color:#FFFFFF;stop-opacity:0.2314"/>
				<stop  offset="0.651" style="stop-color:#FFFFFF;stop-opacity:8.235294e-002"/>
				<stop  offset="1" style="stop-color:#FFFFFF;stop-opacity:0"/>
			</radialGradient>
			<path fill="url(#SVGID_23_)" d="M617.3,544.7c0,0.3-0.2,0.5-0.5,0.6c-0.2-0.1-0.3-0.1-0.5-0.3v-0.3c0-0.2,0.2-0.3,0.5-0.5
				C617,544.4,617.2,544.5,617.3,544.7z"/>
			
				<radialGradient id="SVGID_24_" cx="1001.3252" cy="558.501" r="14.3446" gradientTransform="matrix(0.9925 0.122 -4.6899 29.1171 2011.0847 -15880.4902)" gradientUnits="userSpaceOnUse">
				<stop  offset="0" style="stop-color:#FFFFFF"/>
				<stop  offset="0.251" style="stop-color:#FFFFFF;stop-opacity:0.4235"/>
				<stop  offset="0.4902" style="stop-color:#FFFFFF;stop-opacity:0.2314"/>
				<stop  offset="0.651" style="stop-color:#FFFFFF;stop-opacity:8.235294e-002"/>
				<stop  offset="1" style="stop-color:#FFFFFF;stop-opacity:0"/>
			</radialGradient>
			<path fill="url(#SVGID_24_)" d="M397.4,433.2c2.1,2.4,4.3,4.8,6.6,7.1c13.9,14.3,29.3,25,46.1,32.1c0.1,12.1-0.9,25-3.1,38.5
				c-5.3,32.8-15.8,60.1-31.7,81.8c-3.3,4.5-6.6,8.5-9.9,12.1h-16.6H369l19.8-119.7L397.4,433.2z"/>
		</g>
	</g>
	<g id="Layer_2">
	</g>
	<g>
		<g>
			
				<linearGradient id="SVGID_25_" gradientUnits="userSpaceOnUse" x1="300.6519" y1="52.4375" x2="300.6519" y2="71.9871" gradientTransform="matrix(3.514 0 0 4.0983 -959.2917 302.6807)">
				<stop  offset="0" style="stop-color:#000000;stop-opacity:0.4118"/>
				<stop  offset="1" style="stop-color:#000000;stop-opacity:0"/>
			</linearGradient>
			<polygon fill="url(#SVGID_25_)" points="254.2,600.3 -143.4,600.3 -143.4,514.8 337.8,514.8 			"/>
		</g>
		<g>
			
				<linearGradient id="SVGID_26_" gradientUnits="userSpaceOnUse" x1="299.1577" y1="28.6377" x2="299.1577" y2="48.1883" gradientTransform="matrix(3.514 0 0 4.0983 -959.2917 302.6807)">
				<stop  offset="0" style="stop-color:#000000;stop-opacity:0.6"/>
				<stop  offset="1" style="stop-color:#000000;stop-opacity:0"/>
			</linearGradient>
			<polygon fill="url(#SVGID_26_)" points="327.3,369.7 326.9,508.1 -143.4,508.1 -143.4,369.7 			"/>
		</g>
		<g>
			<polygon points="332.6,515.8 293,556.8 276.7,556.8 317.6,515.8 			"/>
		</g>
		<g>
			<g>
				<g>
					
						<linearGradient id="SVGID_27_" gradientUnits="userSpaceOnUse" x1="353.0293" y1="25.9473" x2="367.7828" y2="48.1452" gradientTransform="matrix(3.514 0 0 4.0983 -959.2917 302.6807)">
						<stop  offset="0" style="stop-color:#311611"/>
						<stop  offset="0.2588" style="stop-color:#614223"/>
						<stop  offset="1" style="stop-color:#614223"/>
					</linearGradient>
					<polygon fill="url(#SVGID_27_)" points="292.7,556.4 292.7,393.3 304.3,393.3 331.5,369.9 331.5,516.2 					"/>
					
						<linearGradient id="SVGID_28_" gradientUnits="userSpaceOnUse" x1="354.167" y1="23.8877" x2="354.167" y2="55.6381" gradientTransform="matrix(3.514 0 0 4.0983 -959.2917 302.6807)">
						<stop  offset="0" style="stop-color:#7E492F"/>
						<stop  offset="1" style="stop-color:#A7733F"/>
					</linearGradient>
					<rect x="277.8" y="393.3" fill="url(#SVGID_28_)" width="14.9" height="163.1"/>
				</g>
			</g>
			<g>
				<g>
					<polygon fill="#7C542C" points="334.3,368.1 334.7,368.1 334.7,382 297.4,422 297.4,407.9 297.6,407.7 					"/>
					<polygon fill="#BF8A55" points="297.6,407.7 -204,407.7 -167.8,368.1 334.3,368.1 					"/>
					
						<linearGradient id="SVGID_29_" gradientUnits="userSpaceOnUse" x1="286.2808" y1="36.1377" x2="286.2808" y2="25.8877" gradientTransform="matrix(3.514 0 0 4.0983 -959.2917 302.6807)">
						<stop  offset="0" style="stop-color:#7E452F"/>
						<stop  offset="1" style="stop-color:#A7733F"/>
					</linearGradient>
					<polygon fill="url(#SVGID_29_)" points="297.4,422 -204.2,422 -204.2,407.9 -204,407.7 297.6,407.7 297.4,407.9 					"/>
				</g>
			</g>
		</g>
		
			<polyline fill="none" stroke="#FFFFFF" stroke-linecap="round" stroke-linejoin="round" stroke-miterlimit="3" stroke-opacity="0.4471" points="
			-204,407.7 297.3,407.7 334.5,368.1 		"/>
	</g>
	<g id="Layer_8">
		<g>
			<g>
				<path d="M333.7,359.8c0.3-0.6,0.7-1.1,1.4-1.3c0.6-0.3,1.3-0.3,1.9,0s1.1,0.7,1.4,1.4c0.2,0.6,0.2,1.3-0.1,1.9
					c-5,11.9-16.1,18.2-33.3,19.1c-0.7,0-1.3-0.2-1.8-0.7s-0.8-1-0.9-1.7c0-0.7,0.2-1.3,0.7-1.8s1-0.8,1.8-0.8
					C319.6,375.2,329.2,369.8,333.7,359.8z"/>
			</g>
			<g>
				<g>
					<g>
						
							<linearGradient id="SVGID_30_" gradientUnits="userSpaceOnUse" x1="685.9619" y1="579.8926" x2="789.5388" y2="709.7158" gradientTransform="matrix(1 0 0 1 -513.9404 -258.54)">
							<stop  offset="0" style="stop-color:#D2E6DD"/>
							<stop  offset="0.3333" style="stop-color:#9AB5B0"/>
							<stop  offset="0.7882" style="stop-color:#DBE6E8"/>
							<stop  offset="0.9176" style="stop-color:#FFFFFF"/>
							<stop  offset="1" style="stop-color:#587E8D"/>
						</linearGradient>
						<path fill="url(#SVGID_30_)" d="M67.3,293.6c-0.1,0-0.1,0.1,0,0.3c0,0.2,0.1,0.3,0.2,0.3c1,0,1.9,0,2.8,0
							c70.8,0.3,141.6,0.4,212.4,0.3c0.9,0,1.9,0,2.9,0c0.2,0,0.4-0.1,0.6-0.3c0,0,0-0.1,0.1-0.2c-0.1-0.5-0.4-0.7-0.8-0.7
							c-1,0-1.9,0-2.8,0h-0.1c-70.6,0-141.2,0-211.9,0c-1,0-1.9,0-2.9,0C67.6,293.2,67.4,293.4,67.3,293.6z M56.7,266.6
							c0-1.9,1-2.9,2.9-2.9H273h21.8c2,0,3,1,3,2.9v16.7v33.1v72.8c0,1.9-1,2.9-3,2.9H59.6c-1.9,0-2.9-1-2.9-2.9V266.6z M69.3,385.7
							c-0.3,0-0.5,0.2-0.6,0.5c-0.1,0-0.1,0.1,0,0.2c0,0.2,0.1,0.3,0.2,0.3c46.3,0.2,92.7,0.3,139,0.3c25.5,0,51,0,76.5,0
							c0.2,0,0.4-0.1,0.6-0.3c0,0,0-0.1,0.1-0.2c0-0.4-0.3-0.7-0.7-0.7c-25.5,0-51,0-76.5,0C161.7,385.7,115.5,385.7,69.3,385.7z
							 M65.7,383.5c0.8-0.8,1.1-1.8,1.1-3.1c0.1-28.8-0.3-57.3-1.1-85.5c-0.8,0.7-1.2,1.8-1.2,3.2C64.5,327,64.9,355.5,65.7,383.5z"
							/>
						<path fill="#9CB7B2" d="M67.3,293.6c0.1-0.3,0.3-0.4,0.6-0.4c1,0,1.9,0,2.9,0c70.7,0,141.3,0,211.9,0h0.1c0.9,0,1.8,0,2.8,0
							c0.4,0,0.6,0.2,0.8,0.7c-0.1,0.1-0.1,0.2-0.1,0.2c-0.2,0.2-0.4,0.3-0.6,0.3c-1,0-1.9,0-2.9,0c-70.8,0.1-141.6,0-212.4-0.3
							c-0.9,0-1.9,0-2.8,0c-0.1,0-0.2-0.1-0.2-0.3C67.2,293.8,67.2,293.7,67.3,293.6z"/>
						<path fill="#FFFFFF" d="M65.7,383.5c-0.8-28.1-1.2-56.6-1.2-85.4c0-1.4,0.4-2.5,1.2-3.2c0.9,28.2,1.3,56.6,1.1,85.5
							C66.9,381.7,66.5,382.8,65.7,383.5z M69.3,385.7c46.2,0,92.4,0,138.6,0c25.5,0,51,0,76.5,0c0.4,0,0.7,0.2,0.7,0.7
							c0,0.1-0.1,0.2-0.1,0.2c-0.2,0.2-0.4,0.3-0.6,0.3c-25.5,0-51,0-76.5,0c-46.3,0-92.7-0.1-139-0.3c-0.1,0-0.2-0.1-0.2-0.3
							c-0.1-0.1-0.1-0.2,0-0.2C68.8,385.9,69,385.7,69.3,385.7z"/>
					</g>
				</g>
				<g>
					<path fill="#626262" d="M93.5,278.3c0.3,0.1,0.5,0.3,0.7,0.6c0.2,0.3,0.3,0.6,0.3,1s-0.1,0.7-0.2,1c-0.1,0.3-0.3,0.6-0.5,0.8
						c-0.2,0.2-0.4,0.4-0.6,0.5c-0.2,0.1-0.5,0.2-0.9,0.2c-0.2,0-0.7,0.1-1.3,0.1h-1l-0.6,2.8h-1.5l1.5-7.2h2.9
						C92.8,278,93.3,278.1,93.5,278.3z M92.6,279.3c-0.1-0.1-0.4-0.1-0.9-0.1h-1.1l-0.4,2.1h0.4c0.8,0,1.3,0,1.6-0.1
						c0.3-0.1,0.5-0.3,0.6-0.5c0.2-0.2,0.3-0.4,0.3-0.7c0-0.2,0-0.3-0.1-0.4C92.9,279.4,92.7,279.3,92.6,279.3z M96.3,284h4.1
						l-0.3,1.2h-5.6L96,278h5.3l-0.3,1.2h-3.8l-0.3,1.6h3.7l-0.3,1.2h-3.7L96.3,284z M88.1,278l-1.5,7.2h-1.4l1.4-6l-2.8,6h-1.4
						l-0.3-6l-1.1,6h-1.3l1.5-7.2h2.1l0.2,5l2.5-5H88.1z M113.5,278l1.2,7.2h-1.4l-0.3-1.6h-2.9l-0.9,1.6h-1.5l4.1-7.2H113.5z
						 M112.5,279.5l-1.8,2.9h2.1L112.5,279.5z M116.4,279.3l0.3-1.2h5.6l-0.3,1.2h-2l-1.2,6h-1.5l1.3-6H116.4z M105.9,278
						c0.6,0,1,0.1,1.3,0.2c0.3,0.1,0.5,0.3,0.8,0.6c0.2,0.3,0.3,0.6,0.3,1c0,0.6-0.2,1.1-0.6,1.6c-0.4,0.4-0.9,0.6-1.6,0.7
						c0.2,0.2,0.4,0.4,0.5,0.7c0.3,0.5,0.7,1.3,1.1,2.4H106c-0.1-0.4-0.4-1-0.8-1.9c-0.2-0.5-0.4-0.8-0.6-0.9
						c-0.1-0.1-0.4-0.1-0.7-0.1h-0.6l-0.6,3h-1.5l1.5-7.2h3.2V278z M104,279.3l-0.4,1.9h0.8c0.8,0,1.3,0,1.5-0.1
						c0.3-0.1,0.5-0.2,0.6-0.4c0.2-0.2,0.3-0.5,0.3-0.6c0-0.3-0.1-0.5-0.3-0.6c-0.1-0.1-0.4-0.1-0.9-0.1H104V279.3z M134.9,278.2
						c0.3,0.1,0.6,0.3,0.8,0.6c0.2,0.3,0.3,0.6,0.3,1c0,0.6-0.2,1.1-0.5,1.6c-0.4,0.4-0.9,0.6-1.6,0.7c0.2,0.2,0.4,0.4,0.5,0.7
						c0.3,0.5,0.7,1.3,1.1,2.4h-1.6c-0.1-0.4-0.4-1-0.8-1.9c-0.2-0.5-0.4-0.8-0.6-0.9c-0.1-0.1-0.4-0.1-0.7-0.1H131l-0.6,3H129
						l1.5-7.2h3.1C134.2,278,134.6,278.1,134.9,278.2z M134.5,280c0-0.3-0.1-0.5-0.3-0.6c-0.1-0.1-0.4-0.1-0.9-0.1h-1.6l-0.4,1.9
						h0.8c0.8,0,1.3,0,1.6-0.1c0.3-0.1,0.5-0.2,0.6-0.4C134.4,280.4,134.5,280.1,134.5,280z M137.8,284h4.2l-0.3,1.2h-5.6l1.5-7.2
						h5.3l-0.3,1.2h-3.8l-0.4,1.6h3.7L142,282h-3.7L137.8,284z M129,278l-0.8,3.9c-0.2,0.8-0.4,1.5-0.6,1.9c-0.2,0.4-0.6,0.8-1,1
						c-0.4,0.3-1,0.4-1.7,0.4c-0.8,0-1.5-0.2-1.9-0.6c-0.5-0.4-0.7-0.9-0.7-1.6c0-0.1,0-0.3,0-0.4s0-0.4,0.1-0.9l0.8-3.8h1.5
						l-1.1,4.9c0,0.1,0,0.1,0,0.2c0,0.3,0.1,0.5,0.3,0.7c0.2,0.2,0.5,0.3,0.9,0.3c0.4,0,0.7-0.1,0.9-0.2c0.2-0.1,0.4-0.3,0.5-0.6
						c0.1-0.3,0.2-0.7,0.4-1.3l0.9-3.9H129z M153.2,282.4c0-0.4,0.1-0.9,0.2-1.4c0.2-0.6,0.4-1.2,0.8-1.6c0.3-0.4,0.8-0.8,1.3-1
						c0.5-0.3,1.1-0.5,1.8-0.5c0.9,0,1.6,0.3,2.1,0.9c0.5,0.5,0.8,1.3,0.8,2.2c0,0.7-0.2,1.4-0.6,2.1c-0.3,0.7-0.8,1.3-1.4,1.6
						c-0.6,0.4-1.3,0.6-2.1,0.6c-0.7,0-1.2-0.2-1.7-0.5c-0.4-0.3-0.8-0.7-1-1.1C153.2,283.3,153.2,282.9,153.2,282.4z M155.1,283.6
						c0.3,0.3,0.7,0.5,1.1,0.5c0.4,0,0.8-0.1,1.2-0.4c0.4-0.3,0.7-0.7,0.9-1.2c0.2-0.5,0.4-1,0.4-1.5c0-0.6-0.2-1-0.5-1.3
						c-0.3-0.3-0.7-0.5-1.1-0.5c-0.7,0-1.3,0.3-1.8,1c-0.4,0.7-0.6,1.4-0.6,2.2C154.7,282.9,154.9,283.3,155.1,283.6z M146.6,280
						c0.3-0.7,0.8-1.2,1.4-1.5c0.6-0.4,1.3-0.6,1.9-0.6c0.8,0,1.4,0.2,1.9,0.6s0.8,1,0.9,1.7l-1.4,0.1c-0.1-0.4-0.2-0.8-0.5-0.9
						c-0.2-0.2-0.5-0.3-0.9-0.3s-0.8,0.1-1.1,0.3c-0.3,0.3-0.6,0.7-0.9,1.2c-0.2,0.5-0.3,1.1-0.3,1.6c0,0.6,0.1,1,0.4,1.3
						s0.6,0.5,1,0.5s0.7-0.1,1-0.4c0.3-0.2,0.5-0.6,0.7-1.1l1.5,0.3c-0.3,0.8-0.7,1.4-1.3,1.9c-0.6,0.4-1.3,0.6-2.1,0.6
						c-0.9,0-1.5-0.3-2-0.8s-0.8-1.3-0.8-2.3C146.1,281.4,146.3,280.7,146.6,280z M160.6,285.2l1.5-7.2h1.4l1.9,4.8l1-4.8h1.4
						l-1.5,7.2h-1.4l-1.9-4.8l-1,4.8H160.6z M71.3,279.3l-1.2,6h-1.5l1.3-6h-2.1L68,278h5.6l-0.3,1.2L71.3,279.3L71.3,279.3z
						 M75.5,280.9h3.7l-0.3,1.2h-3.7l-0.5,2h4.1l-0.3,1.2H73l1.5-7.2h5.3l-0.3,1.2h-3.8L75.5,280.9z M179.9,278.2
						c0.3,0.1,0.5,0.3,0.8,0.6c0.2,0.3,0.3,0.6,0.3,1c0,0.6-0.2,1.1-0.6,1.6c-0.4,0.4-0.9,0.6-1.6,0.7c0.2,0.2,0.4,0.4,0.6,0.7
						c0.3,0.5,0.7,1.3,1.1,2.4h-1.6c-0.1-0.4-0.4-1-0.8-1.9c-0.2-0.5-0.4-0.8-0.7-0.9c-0.1-0.1-0.4-0.1-0.7-0.1H176l-0.6,3h-1.5
						l1.5-7.2h3.1C179.1,278,179.5,278.1,179.9,278.2z M177,281.1c0.8,0,1.3,0,1.5-0.1c0.3-0.1,0.5-0.2,0.6-0.4
						c0.2-0.2,0.3-0.5,0.3-0.6c0-0.3-0.1-0.5-0.3-0.6c-0.1-0.1-0.4-0.1-0.9-0.1h-1.6l-0.4,1.9h0.8V281.1L177,281.1z M181.5,282.4
						c0-0.4,0.1-0.9,0.2-1.4c0.2-0.6,0.4-1.2,0.8-1.6c0.3-0.4,0.8-0.8,1.3-1c0.5-0.3,1.1-0.5,1.8-0.5c0.9,0,1.6,0.3,2.2,0.9
						c0.5,0.5,0.8,1.3,0.8,2.2c0,0.7-0.2,1.4-0.5,2.1c-0.3,0.7-0.8,1.3-1.5,1.6c-0.6,0.4-1.3,0.6-2,0.6c-0.7,0-1.2-0.2-1.7-0.5
						c-0.4-0.3-0.8-0.7-1-1.1C181.6,283.3,181.5,282.9,181.5,282.4z M174.2,279.3h-2.1l-1.2,6h-1.5l1.3-6h-2.1l0.3-1.2h5.7
						L174.2,279.3z M198,278l-1.3,6h3.6l-0.3,1.2h-5l1.5-7.2H198z M191.9,278l-1.3,6h3.6l-0.3,1.2h-5.1l1.5-7.2H191.9z M185.4,279.1
						c-0.7,0-1.3,0.3-1.8,1c-0.4,0.7-0.6,1.4-0.6,2.2c0,0.5,0.1,0.9,0.5,1.3c0.3,0.3,0.7,0.5,1.1,0.5s0.8-0.1,1.1-0.4
						c0.4-0.3,0.7-0.7,0.9-1.2c0.2-0.5,0.4-1,0.4-1.5c0-0.6-0.1-1-0.5-1.3C186.3,279.3,185.9,279.1,185.4,279.1z M214.7,279.9
						c0,0.6-0.2,1.1-0.6,1.6c-0.4,0.4-0.9,0.6-1.6,0.7c0.2,0.2,0.4,0.4,0.5,0.7c0.3,0.5,0.7,1.3,1.1,2.4h-1.6
						c-0.1-0.4-0.4-1-0.8-1.9c-0.2-0.5-0.4-0.8-0.6-0.9c-0.1-0.1-0.4-0.1-0.7-0.1h-0.6l-0.6,3h-1.5l1.5-7.2h3.1c0.6,0,1,0.1,1.3,0.2
						c0.3,0.1,0.5,0.3,0.8,0.6C214.6,279.1,214.7,279.5,214.7,279.9z M213.3,280c0-0.3-0.1-0.5-0.3-0.6c-0.1-0.1-0.4-0.1-0.9-0.1
						h-1.6l-0.4,1.9h0.8c0.8,0,1.3,0,1.5-0.1c0.3-0.1,0.5-0.2,0.6-0.4C213.2,280.4,213.3,280.1,213.3,280z M203.2,282l-0.5,2h4.1
						l-0.3,1.2H201l1.5-7.2h5.3l-0.3,1.2h-3.8l-0.3,1.6h3.7l-0.3,1.2H203.2L203.2,282z"/>
				</g>
				<g>
					<path fill="#7D9EA5" d="M69.1,385.7c-1.5,0-2.3-0.8-2.3-2.3V297c0-1.6,0.8-2.4,2.3-2.4h216.1c1.8,0,2.6,0.8,2.6,2.4v86.3
						c0,1.6-0.9,2.4-2.6,2.4H69.1L69.1,385.7z"/>
				</g>
				<g>
					<path fill="#516371" d="M79.6,374.2V309c0-1.9,1-2.9,3-2.9h165.8c0.8,0,1.5,0.3,2,0.8c0.4,0.4,0.6,1.1,0.6,2.1v65.3
						c0,1.8-0.9,2.8-2.6,2.8H82.6C80.6,377,79.6,376.1,79.6,374.2z"/>
				</g>
				<g>
					<g>
						<path fill="#073938" d="M89.8,317.5c0-1.9,0.9-2.8,2.7-2.8h142.8c1.5,0,2.4,0.6,2.8,1.8c0.1,0.3,0.2,0.7,0.2,1.1V357
							c0,1.9-1,2.8-2.9,2.8H92.5c-0.9,0-1.5-0.3-2-0.6c-0.5-0.5-0.8-1.2-0.8-2.2L89.8,317.5L89.8,317.5z"/>
						<path fill="none" d="M89.8,317.5V357c0,1,0.3,1.7,0.8,2.2c0.4,0.4,1.1,0.6,2,0.6h142.8c1.9,0,2.9-0.9,2.9-2.8v-39.5
							c0-0.4-0.1-0.8-0.2-1.1c-0.3-1.2-1.3-1.8-2.8-1.8H92.5C90.6,314.7,89.8,315.7,89.8,317.5z"/>
					</g>
				</g>
				<g>
					<path fill="#4D4D4D" d="M262,330.8c0.9,0,1.7,0.3,2.3,0.9c0.6,0.6,0.9,1.5,0.9,2.5c0,0.9-0.1,1.5-0.4,2
						c-0.3,0.5-0.6,0.9-1.1,1.2c-0.5,0.3-1,0.4-1.6,0.4c-0.9,0-1.7-0.3-2.3-0.9c-0.6-0.6-0.9-1.5-0.9-2.6c0-1.3,0.3-2.2,1-2.8
						C260.5,331,261.2,330.8,262,330.8z M260.6,332.4c-0.4,0.4-0.6,1.1-0.6,2c0,0.8,0.2,1.5,0.6,1.9c0.4,0.4,0.9,0.6,1.4,0.6
						c0.6,0,1-0.2,1.4-0.6c0.4-0.4,0.5-1.1,0.5-2c0-0.8-0.2-1.5-0.5-1.9c-0.4-0.4-0.8-0.6-1.4-0.6C261.5,331.8,261,332,260.6,332.4z
						 M277,330.6c1,0.7,1.7,1.8,2.1,3l-1.9,0.5c-0.3-1-0.8-1.8-1.5-2.3c-0.6-0.5-1.4-0.7-2.4-0.7c-1.1,0-2,0.3-2.8,0.8
						s-1.3,1.3-1.5,2.1c-0.3,0.9-0.5,1.8-0.5,2.7c0,1.2,0.2,2.3,0.6,3.2c0.3,0.9,0.9,1.6,1.6,2c0.7,0.4,1.5,0.6,2.4,0.6
						c1.1,0,2-0.3,2.7-0.9c0.7-0.6,1.2-1.5,1.5-2.7l1.9,0.5c-0.4,1.6-1.1,2.8-2.1,3.5c-1,0.8-2.3,1.3-3.8,1.3s-2.8-0.3-3.8-0.9
						c-1-0.6-1.7-1.6-2.2-2.8s-0.8-2.4-0.8-3.8c0-1.5,0.3-2.8,0.8-3.9c0.6-1.1,1.4-2,2.5-2.5c1-0.6,2.2-0.9,3.5-0.9
						C274.9,329.5,276.1,329.9,277,330.6z"/>
				</g>
				<g>
					
						<linearGradient id="SVGID_31_" gradientUnits="userSpaceOnUse" x1="815.3398" y1="632.6523" x2="815.3398" y2="641.6273" gradientTransform="matrix(1 0 0 1 -513.9404 -258.54)">
						<stop  offset="0" style="stop-color:#B7CBC9"/>
						<stop  offset="0.1804" style="stop-color:#BFD0D0"/>
						<stop  offset="0.4314" style="stop-color:#7D9EA5"/>
						<stop  offset="0.8157" style="stop-color:#7B9D9D"/>
						<stop  offset="1" style="stop-color:#AFC5C2"/>
					</linearGradient>
					<path fill="url(#SVGID_31_)" d="M297.8,373.6h6.3c1.2,4.4,1.2,7.8,0,10h-6.3V373.6z"/>
				</g>
				<g>
					<g>
						<path fill="#79B098" d="M57,390.8L57,390.8c0,0.3,0,0.5,0.1,0.8c0.1,0.4,0.4,0.8,0.8,1.2c0.3,0.3,0.7,0.6,1.2,0.8
							c-0.5,0-1-0.2-1.4-0.3l-0.2-0.1c-0.5-0.3-0.9-0.6-1.3-0.9c-0.3-0.4-0.5-0.9-0.8-1.4c-0.2-0.2-0.3-0.5-0.2-0.8
							c-0.1-5.5-0.1-25.7,0-60.4c0-34.2,0-54.8,0-61.6c0.6-3.2,2.5-4.9,5.6-5.3h230.3c2.6-0.1,4.4-0.1,5.3,0.1
							c0.9,0.3,1.5,1.3,1.6,3.1v5.5v1.2v10.6v33.1v74.1c-0.2,0.9-0.6,1.5-1,2l0.2-1.7c-0.1,0.1-0.3,0.3-0.4,0.4v-74.8v-33.1v-10.6
							v-1.2v-6v-1.2c-0.3-0.1-0.6-0.2-0.9-0.3H60.3c-2,0.8-3.2,2.1-3.5,3.9v121.5L57,390.8L57,390.8z"/>
						<path fill="#9AB5B0" d="M297.1,392.5c-0.4,0.5-1.1,0.9-2.1,1H59.1c-0.5-0.2-0.9-0.5-1.2-0.8c-0.4-0.4-0.6-0.8-0.8-1.2
							c-0.1-0.2-0.1-0.5-0.1-0.7v-0.1c0.4,0.5,1.2,1,2.4,1.4h0.1c5.2,0,10.5,0,15.9,0c43.7,0,87.8,0,132.4,0c28.4,0,57,0,85.8,0
							c1.4,0,2.4-0.3,3.2-0.9c0.1-0.1,0.3-0.3,0.4-0.4L297.1,392.5z"/>
					</g>
				</g>
				<g>
					
						<radialGradient id="SVGID_32_" cx="696.9404" cy="13386.0605" r="441.3368" gradientTransform="matrix(1 0 0 1.217889e-002 -513.9404 105.4227)" gradientUnits="userSpaceOnUse">
						<stop  offset="0" style="stop-color:#FFFFFF"/>
						<stop  offset="0.1059" style="stop-color:#FFFFFF"/>
						<stop  offset="0.251" style="stop-color:#FFFFFF;stop-opacity:0.4235"/>
						<stop  offset="0.4902" style="stop-color:#FFFFFF;stop-opacity:0.2314"/>
						<stop  offset="0.651" style="stop-color:#FFFFFF;stop-opacity:8.235294e-002"/>
						<stop  offset="1" style="stop-color:#FFFFFF;stop-opacity:0"/>
					</radialGradient>
					<path fill="url(#SVGID_32_)" d="M55.3,271.4c-0.4-4.3,1.7-7.1,6.3-8.4c35.7,0.5,76.2,0.8,121.5,0.8c40.2,0,78.2,0.1,114.1,0.2
						v7.5H55.3V271.4z"/>
				</g>
				<g>
					
						<radialGradient id="SVGID_33_" cx="670.835" cy="538.9658" r="2.294" gradientTransform="matrix(0.7748 -0.6322 0.5294 0.6487 -567.7759 433.2211)" gradientUnits="userSpaceOnUse">
						<stop  offset="0" style="stop-color:#FFFFFF"/>
						<stop  offset="0.1059" style="stop-color:#FFFFFF"/>
						<stop  offset="0.251" style="stop-color:#FFFFFF;stop-opacity:0.4235"/>
						<stop  offset="0.4902" style="stop-color:#FFFFFF;stop-opacity:0.2314"/>
						<stop  offset="0.651" style="stop-color:#FFFFFF;stop-opacity:8.235294e-002"/>
						<stop  offset="1" style="stop-color:#FFFFFF;stop-opacity:0"/>
					</radialGradient>
					<path fill="url(#SVGID_33_)" d="M236.9,360.8c-0.6,0-1-0.2-1.4-0.6c-0.3-0.4-0.4-0.9-0.3-1.5c0.1-0.6,0.4-1,0.9-1.5
						c0.5-0.4,1-0.6,1.6-0.5c0.6,0,1,0.2,1.3,0.6c0.3,0.4,0.5,0.9,0.4,1.5c-0.1,0.6-0.4,1-0.9,1.5
						C238,360.6,237.5,360.8,236.9,360.8z"/>
				</g>
				<g>
					
						<radialGradient id="SVGID_34_" cx="-10998.7207" cy="5623.8906" r="81.4264" gradientTransform="matrix(0.9998 -1.779678e-002 0.683 1.825704e-002 7320.4878 61.5808)" gradientUnits="userSpaceOnUse">
						<stop  offset="0" style="stop-color:#FFFFFF"/>
						<stop  offset="0.1059" style="stop-color:#FFFFFF"/>
						<stop  offset="0.251" style="stop-color:#FFFFFF;stop-opacity:0.4235"/>
						<stop  offset="0.4902" style="stop-color:#FFFFFF;stop-opacity:0.2314"/>
						<stop  offset="0.651" style="stop-color:#FFFFFF;stop-opacity:8.235294e-002"/>
						<stop  offset="1" style="stop-color:#FFFFFF;stop-opacity:0"/>
					</radialGradient>
					<path fill="url(#SVGID_34_)" d="M89.8,359c5.7-0.2,12.3-0.3,20-0.5c22.9-0.4,47.4-0.6,73.4-0.5c22.5,0,40.9,0.1,55.4,0.5v2.6
						c-5.4,0.1-11.6,0.3-18.7,0.4c-21.4,0.4-45.9,0.6-73.5,0.5c-23.1,0-39.6-0.4-49.6-1.2L89.8,359z"/>
				</g>
				<g>
					
						<radialGradient id="SVGID_35_" cx="-15132.9092" cy="7255.9531" r="157.5936" gradientTransform="matrix(0.9999 -1.356265e-002 0.683 1.395922e-002 10353.6992 71.722)" gradientUnits="userSpaceOnUse">
						<stop  offset="0" style="stop-color:#FFFFFF"/>
						<stop  offset="0.1059" style="stop-color:#FFFFFF"/>
						<stop  offset="0.251" style="stop-color:#FFFFFF;stop-opacity:0.4235"/>
						<stop  offset="0.4902" style="stop-color:#FFFFFF;stop-opacity:0.2314"/>
						<stop  offset="0.651" style="stop-color:#FFFFFF;stop-opacity:8.235294e-002"/>
						<stop  offset="1" style="stop-color:#FFFFFF;stop-opacity:0"/>
					</radialGradient>
					<path fill="url(#SVGID_35_)" d="M142.5,381.2c-24.7,0-43.5,0.1-56.5,0.2c-3.2-0.1-5.2-1.9-6-5.5c41.9-0.5,86.4-0.8,133.5-0.8
						c12.1,0,24.6,0,37.5,0.1c1,0.8,0,2.7-3,5.5C215.9,381.1,180.7,381.2,142.5,381.2z"/>
				</g>
			</g>
		</g>
	</g>
	<g>
		
			<linearGradient id="SVGID_36_" gradientUnits="userSpaceOnUse" x1="358.793" y1="532.6953" x2="358.793" y2="552.2453" gradientTransform="matrix(1 0 0 1 -195.3203 -140.9199)">
			<stop  offset="0" style="stop-color:#000000;stop-opacity:0.4118"/>
			<stop  offset="1" style="stop-color:#000000;stop-opacity:0"/>
		</linearGradient>
		<path fill="url(#SVGID_36_)" d="M297.8,391.1c1.1,0.1,1.2,0.6,0.5,1.4l-15.9,15.1H28.2l28-16.5H297.8z"/>
	</g>
</g>
<g id="Layer_3">
</g>
</svg>
