<?xml version="1.0" encoding="utf-8"?>
<!-- Generator: Adobe Illustrator 16.0.0, SVG Export Plug-In . SVG Version: 6.00 Build 0)  -->
<!DOCTYPE svg PUBLIC "-//W3C//DTD SVG 1.1//EN" "http://www.w3.org/Graphics/SVG/1.1/DTD/svg11.dtd">
<svg version="1.1" id="Layer_1" xmlns="http://www.w3.org/2000/svg" xmlns:xlink="http://www.w3.org/1999/xlink" x="0px" y="0px"
	 width="210px" height="350px" viewBox="0 0 210 350" enable-background="new 0 0 210 350" xml:space="preserve">
<g>
	<g>
		<g>
			<linearGradient id="SVGID_1_" gradientUnits="userSpaceOnUse" x1="284.2285" y1="-26.9312" x2="174.5343" y2="76.9528">
				<stop  offset="0" style="stop-color:#C4CDD2"/>
				<stop  offset="0.2824" style="stop-color:#E4F1F9"/>
				<stop  offset="0.4235" style="stop-color:#A2A29A"/>
				<stop  offset="0.6" style="stop-color:#A5A79C"/>
				<stop  offset="0.7529" style="stop-color:#EBF1EF"/>
				<stop  offset="1" style="stop-color:#A0A2A3"/>
			</linearGradient>
			<polygon fill-rule="evenodd" clip-rule="evenodd" fill="url(#SVGID_1_)" points="164.5,83.8 164.8,81.4 165,81.3 187,67.9 
				186.5,70.4 			"/>
			<linearGradient id="SVGID_2_" gradientUnits="userSpaceOnUse" x1="21.8403" y1="-14.665" x2="153.1223" y2="118.4278">
				<stop  offset="0" style="stop-color:#C4CDD2"/>
				<stop  offset="0.2824" style="stop-color:#E4F1F9"/>
				<stop  offset="0.4235" style="stop-color:#A2A29A"/>
				<stop  offset="0.6" style="stop-color:#A5A79C"/>
				<stop  offset="0.7529" style="stop-color:#EBF1EF"/>
				<stop  offset="1" style="stop-color:#CBCFCE"/>
			</linearGradient>
			<polygon fill-rule="evenodd" clip-rule="evenodd" fill="url(#SVGID_2_)" points="165,81.3 9.6,58 32.4,44.6 187,67.8 187,67.9 
							"/>
			<linearGradient id="SVGID_3_" gradientUnits="userSpaceOnUse" x1="8.7705" y1="59.1279" x2="164.7354" y2="82.5454">
				<stop  offset="0" style="stop-color:#C4CDD2"/>
				<stop  offset="0.2824" style="stop-color:#E4F1F9"/>
				<stop  offset="0.4235" style="stop-color:#A2A29A"/>
				<stop  offset="0.6" style="stop-color:#A5A79C"/>
				<stop  offset="0.7529" style="stop-color:#EBF1EF"/>
				<stop  offset="1" style="stop-color:#CBCFCE"/>
			</linearGradient>
			<polygon fill-rule="evenodd" clip-rule="evenodd" fill="url(#SVGID_3_)" points="164.5,83.8 9.4,60.5 9.6,58 165,81.3 
				164.8,81.4 			"/>
		</g>
		<g>
			<polygon fill-rule="evenodd" clip-rule="evenodd" fill="#FFFFFF" fill-opacity="0.502" points="186.7,68.5 164.8,81.8 
				164.8,81.7 9.5,58.5 9.5,58 164.8,81.2 164.8,81.3 186.8,68 			"/>
		</g>
	</g>
	<g>
		<g>
			<path fill-rule="evenodd" clip-rule="evenodd" fill="#CBCDDA" d="M127.6,75.3c0-0.1,0-0.2,0.1-0.3c0.1-0.3,0.2-0.7,0.3-1
				c0-0.1,0.1-0.2,0.1-0.4c0.1-0.2,0.1-0.3,0.2-0.5c0.1-0.4,0.2-0.7,0.3-1.1c0-0.1,0.1-0.3,0.2-0.4c0.1-0.4,0.2-0.8,0.3-1.1
				c0.1-0.2,0.1-0.3,0.2-0.5c0-0.1,0-0.3,0.1-0.4c0-0.1,0.1-0.3,0.1-0.4c2.6,0.8,3.5,0.6,2.8-0.8c0.1,0,0.1,0,0.2,0
				c0.2,0,0.3,0,0.5,0c0.1,0,0.3,0,0.5,0c0.1,0,0.2,0,0.3,0c0,0.1,0,0.2,0,0.3c-0.3,2.2,0.4,2.7,2,1.4c0.9,0.4,2.2,0.5,4,0.5
				c4.9-0.2,6.7-1.8,5.3-4.6c0.4-0.3,0.7-0.6,1.1-0.9c0.3-0.3,0.6-0.6,0.8-0.9c0.1-0.1,0.2-0.3,0.3-0.4c0.2-0.4,0.3-0.8,0.5-1.1
				c0.1-0.2,0.2-0.4,0.3-0.7c0-0.1,0-0.3,0-0.4c0-0.1,0-0.3,0-0.4c0-0.1,0.1-0.3,0.1-0.4c0-0.1,0-0.2,0-0.3c0-0.2-0.1-0.3-0.1-0.5
				c0-0.3-0.1-0.5-0.1-0.7c-0.1-0.3-0.2-0.6-0.4-0.9c-0.1-0.2-0.2-0.4-0.3-0.4c0,0-0.1-0.1-0.1-0.2c-0.4-0.4-0.8-0.8-1.3-1
				c-0.1-0.1-0.3-0.2-0.5-0.3c-0.3-0.1-0.6-0.3-0.9-0.4c-0.5-0.2-1.1-0.4-1.7-0.6c-0.4-0.1-0.8-0.2-1.2-0.4c-0.3-0.1-0.7-0.2-1-0.3
				h0c-0.3-0.5-0.7-1.1-1.2-1.8c-0.9-0.1-1.6,0.2-2,1c-0.6-0.2-1.2-0.3-1.8-0.5c-0.3-0.1-0.6-0.2-0.9-0.3c0,0-0.1,0-0.1,0
				c2.7-1.6,2-3.5-2.2-5.7c-1.9,0.4-2.8,1.5-2.8,3.4c0,0-0.1-0.1-0.1-0.1c-0.5-0.4-0.9-0.9-1.2-1.5c-0.1-0.2-0.2-0.5-0.3-0.7
				c0-0.1-0.1-0.1-0.1-0.1c-0.1-0.3-0.1-0.5-0.1-0.7c0-0.1,0-0.3,0-0.4c0-0.3,0-0.7,0-1.1c0,0,0-0.1,0-0.1c0-0.2,0.1-0.3,0.1-0.4
				c0.1-0.2,0.3-0.5,0.5-0.7c0.2-0.2,0.4-0.3,0.6-0.4c0.1-0.1,0.3-0.2,0.5-0.3c0.2-0.1,0.5-0.2,0.8-0.3c0,0,0-0.1,0-0.1
				c0.1,0,0.3,0,0.5,0c0.2,0,0.5,0,0.8,0c0.3,0,0.6,0,0.9-0.1c0.1,0,0.2,0,0.4,0c0.1,0,0.3,0,0.5,0c0.5-0.1,1.1-0.1,1.8-0.1
				c0.2,0,0.4,0,0.5,0c0.1,0.1,0.2,0.1,0.4,0.1c0.3,0.2,0.7,0.3,1,0.4c0.4,0.1,0.9,0.3,1.4,0.4c0.3,0,0.6,0.1,0.8,0.1
				c0.4,0.1,0.7,0.1,1,0c0.2,0.1,0.4,0.1,0.6,0.1c0.3,0,0.7,0,1,0c0.5,0.1,0.9,0.2,1.3,0.3c0.2,0.1,0.4,0.1,0.6,0.2
				c0.6,0.2,1.2,0.4,1.9,0.4c0.4,0.1,0.7,0.1,1.1,0.1c0.3,0,0.7,0,1,0c0.3,0.1,0.6,0.1,0.9,0.2c0.8,0.3,1.7,0.5,2.7,0.6
				c0,0,0.1,0,0.1,0c0.3,0,0.7,0.1,1,0.1c0.2,0,0.3,0.1,0.5,0.1c0.1,0,0.1,0.1,0.1,0.2c1.1,0.6,2,1.3,2.7,2c0.3,0.3,0.6,0.8,0.9,1.3
				l0.1,0.1c0.2,0.4,0.4,0.9,0.6,1.4c0.1,0.4,0.2,0.8,0.3,1.2c0,0.1,0,0.2,0,0.3l0.3,0.2l3.8,3.1l0.2,0.1l0.3,0.5l0.2,0.6l0.4,0.8
				l0.3,0.9l0.1,0.1c0,0.2,0,0.3,0.1,0.4l0.2,0.5l0.2,0.3l2.8,1.3c0.1,0,0.3,0,0.5,0c0.1,0,0.2,0,0.3,0c0.1,0,0.3,0.1,0.4,0.1
				c0.2,0.1,0.4,0.3,0.6,0.6c0.1,0.2,0.2,0.4,0.3,0.5c0.1,0.1,0.1,0.2,0.1,0.4c0.1,0.1,0.2,0.2,0.3,0.3l0.1,0.1l2.8,0.7l0.9,1.7
				l0,0.3c0.3,0.2,0.4,0.4,0.3,0.8h0.1l1.3,0.4l0.1,0l1.5,0.5l0.1,0l-0.1,2.9l-0.3,0.9l-0.3,0.5l-0.3,1.6c-0.1,0-0.2,0-0.3,0.1
				c-0.2,0.1-0.4,0.2-0.5,0.3c-0.5,0.2-1,0.5-1.5,0.7c-0.1,0-0.3,0-0.4,0c-0.2,0.1-0.3,0.1-0.5,0.1c-0.1,0-0.2,0.1-0.4,0.2
				c-0.2,0.1-0.3,0.1-0.4,0.1c-0.1,0-0.2,0.1-0.3,0.1c-0.3,0.2-0.7,0.3-1.2,0.4c-0.3,0.1-0.6,0.2-0.9,0.3c-0.3,0-0.6,0.1-0.9,0.3
				h-0.1v0c-0.1,0-0.2,0.1-0.3,0.1c-0.3,0.1-0.5,0.1-0.8,0.3c-0.6,0.1-1.1,0.2-1.7,0.4H165c-0.3,0.1-0.5,0.1-0.9,0.1
				c0,0-0.1,0-0.2,0c-0.4,0.1-0.7,0.2-1.1,0.3c-0.4,0.1-0.8,0.2-1.3,0.2h-0.2v0c-0.5,0.1-1.1,0.2-1.6,0.3c-0.4,0-0.8-0.1-1-0.1
				c-0.3,0-0.5,0-0.8,0c-0.2,0-0.5,0-0.6,0c-0.2,0-0.4,0-0.6,0c-0.2-0.1-0.5-0.1-0.8-0.1c-0.5,0-1.1,0-1.6-0.1c-0.2,0-0.4,0-0.6,0
				c-0.2,0-0.4-0.1-0.6-0.1c-0.1,0-0.3,0-0.5,0c-0.4,0-0.7-0.1-1-0.2c-0.1,0-0.3,0-0.5,0c-0.3-0.1-0.6-0.1-1,0
				c-0.3-0.1-0.5-0.1-0.8-0.1c-0.7,0-1.4,0-2.1-0.1c-0.5-0.1-0.9-0.2-1.3-0.2c-0.2,0-0.4,0-0.7,0c-0.2-0.1-0.4-0.1-0.6-0.1
				c-0.1,0-0.2-0.1-0.4-0.1c-0.1,0-0.3,0-0.5-0.1c-0.3-0.1-0.6-0.1-1-0.1c-0.2-0.1-0.5-0.1-0.8-0.1c-0.4-0.1-0.9-0.1-1.3-0.1
				c-0.1,0-0.3-0.1-0.5-0.1c-0.8-0.1-1.5-0.3-2.1-0.4c-0.2,0-0.4-0.1-0.6-0.1c-0.2,0-0.5,0-0.6,0c-0.5-0.1-0.9-0.2-1.3-0.2
				c-0.1,0-0.3-0.1-0.5-0.1c-0.3,0-0.5-0.1-0.8-0.2v-0.1c-0.1,0-0.3,0-0.5,0v0.1c-0.3,0-0.5-0.1-0.8-0.1c-0.4,0-0.7-0.1-1-0.1
				c-0.4,0-0.8-0.1-1.3-0.2C129.7,75.6,128.6,75.5,127.6,75.3z M165.7,69.1c-0.4,1-0.1,1.6,0.9,1.8c4.2,0.4,4.7-0.6,1.4-3.1
				C166.9,67.6,166.1,68.1,165.7,69.1z M155.5,65.5c1.1,0.1,1.8-0.3,2.1-1.1c1.3-3.2-0.5-4.8-5.4-4.8c-1.5,0-2.1,0.6-1.8,1.9
				C150.8,63.8,152.5,65.1,155.5,65.5z M151.5,66.8c-1.5-0.3-2.6,0.1-3.5,1.3c-0.7,1-0.5,1.6,0.7,1.9
				C153.2,71,154.2,69.9,151.5,66.8z"/>
			<path fill-rule="evenodd" clip-rule="evenodd" fill="#DDDDE7" d="M129.3,69.3c-0.2-0.1-0.5-0.1-0.7-0.2c-0.5-0.2-0.6-0.5-0.4-1
				c-0.3,0-0.7-0.1-1-0.1c-0.2,0-0.4,0-0.5,0c-0.1,0-0.3-0.1-0.5-0.1c-0.6-0.1-1.2-0.2-1.9-0.3c-0.4-0.1-0.8-0.1-1.1-0.1
				c-0.1,0-0.2,0-0.3,0c-0.4-0.1-0.8-0.1-1.2-0.2c-0.1,0-0.1,0-0.2,0c-0.4-0.1-0.9-0.1-1.3-0.2c-0.6-0.1-1.3-0.2-1.9-0.3
				c0.3,1.1-0.9,1.1-3.5,0c-0.3-0.1-0.5-0.3-0.5-0.6c-0.4-0.1-0.8-0.2-1.3-0.2h0c-0.1,0.6-1.3,0.8-3.8,0.5c-0.8-0.1-1.2-0.5-1-1.3
				c-0.2,0-0.4-0.1-0.6-0.1c-0.3,0-0.5-0.1-0.8-0.1c-0.3,0-0.5-0.1-0.8-0.1c-0.4-0.1-0.7-0.1-1-0.1c-0.1,0-0.2-0.1-0.3-0.1
				c-0.1,0-0.2,0-0.3,0c0.2,1-1,1-3.7,0c-0.4-0.1-0.6-0.4-0.5-0.8c-0.4-0.1-0.9-0.2-1.3-0.3c-0.4-0.1-0.8-0.1-1.2-0.3
				c-0.2,0-0.3,0-0.5,0c-0.2,0.1-0.4,0.2-0.5,0.3c-0.4,0.3-1,0.4-1.8,0.2c-3.8-1-5-2.3-3.8-3.7c-0.2-0.2-0.4-0.5-0.6-0.8
				c-0.3-0.3-0.5-0.6-0.6-1c-0.1-0.2-0.2-0.5-0.3-0.7c0-0.1,0-0.2,0-0.3c-0.1-0.4-0.2-0.9-0.2-1.4c0,0,0-0.1,0-0.1c0-0.5,0-1,0-1.5
				c0-0.2,0-0.3,0-0.5c0-0.1,0.1-0.2,0.1-0.4c0,0,0-0.1,0-0.1c0.1-0.3,0.1-0.6,0.2-0.8c0.1-0.2,0.1-0.4,0.2-0.6
				c0-0.1,0.1-0.1,0.1-0.2c0.1-0.5,0.2-0.9,0.4-1.3c0,0,0-0.1,0-0.2c0.3-0.2,0.7-0.4,1-0.6c0.1-0.1,0.2-0.2,0.3-0.3
				c0.2-0.1,0.5-0.1,0.7-0.3c0,0,0.1,0,0.1,0c0.2-0.1,0.4-0.1,0.6-0.3c0.1-0.1,0.2-0.1,0.3-0.2c0.1,0.2,0.3,0.4,0.5,0.8
				c0.2,0.3,0.4,0.6,0.6,1c0.5,0.8,0.9,1.4,1.1,1.9c0.1,0.1,0.1,0.2,0.3,0.3c0.2,0.1,0.3,0.2,0.4,0.4c0.1,0.2,0.3,0.4,0.5,0.5
				c0.3,0.2,0.5,0.4,0.8,0.6c0.4-0.3,0.9-0.4,1.5-0.4c0.5,0.7,0.9,1.3,1.1,1.8c0.1,0,0.2,0.1,0.3,0.1c0.7,0.3,1.5,0.5,2.3,0.8
				c0.4,0.1,0.8,0.2,1.3,0.3c0.9,0.2,1.8,0.4,2.8,0.5h0.1c0.4,0,0.7,0.1,1.1,0.1c0.6-1.1,1.6-1.5,3-1.3c0.7,0.7,1.2,1.3,1.5,1.8
				c0.1,0,0.2,0,0.3,0c0.1,0,0.3,0.1,0.4,0.1c0.2,0,0.5,0,0.8,0s0.5,0,0.8,0c0.7,0,1.3,0,1.9,0c0.1-0.1,0.1-0.3,0.2-0.4
				c0.8-1.1,1.9-1.5,3.3-1.3c0.2,0.2,0.4,0.4,0.6,0.7c0.3-0.2,0.6-0.3,0.8-0.5c0.2-0.2,0.3-0.4,0.5-0.6c-0.2,0-0.3,0-0.5,0.1
				c-0.6,0-1-0.3-1.1-1.1c-0.4-1.7-0.1-3,1-3.6c-0.1-0.1-0.2-0.3-0.4-0.4c0-0.1-0.1-0.1-0.1-0.1c-0.4,0-0.9,0-1.4-0.1
				c-1.3-0.1-2-0.8-1.9-2c0-0.2,0-0.4,0.1-0.6c-0.6-0.4-1.3-0.9-2-1.4c-0.1-0.1-0.3-0.1-0.3-0.2c-1.7,0.7-2.9,0.2-3.6-1.3
				c-0.2-0.4-0.3-0.8-0.3-1c-0.1-0.1-0.1-0.1-0.1-0.1c-0.3-0.2-0.6-0.4-0.9-0.5c-0.4-0.3-0.8-0.6-1.1-0.8c-0.2-0.1-0.3-0.3-0.5-0.4
				c-0.1-0.1-0.3-0.2-0.3-0.3c-0.1-0.1-0.1-0.2-0.2-0.2c-0.2-0.1-0.3-0.2-0.4-0.3c-0.1-0.1-0.2-0.2-0.3-0.3c0.1,0,0.2,0,0.3,0
				c0.7,0,1.4,0,2.2-0.1c0.2,0,0.5-0.1,0.7-0.1c0,0,0.1,0,0.1,0c0.2,0,0.5-0.1,0.7-0.1c0.5,0,1,0,1.4,0c0.2,0,0.5,0.1,0.8,0.1
				c0.1,0,0.3,0,0.4,0c0.4,0,0.8,0,1.2,0c0.2,0,0.4,0.1,0.6,0.1c0.7,0.1,1.4,0,2.2,0c0.7-0.1,1.4-0.3,1.9-0.5c0.1,0,0.1-0.1,0.2-0.1
				c0.1,0,0.3-0.1,0.4-0.1c0.5,0.6,0.3,1.2-0.8,1.8c0.1,0,0.3,0.1,0.5,0.1c-0.2,0-0.4,0-0.6,0.1c0,0,0.1,0,0.1,0
				c0.2,0,0.4,0.1,0.5,0.2c0.2,0,0.4,0,0.7,0c0,0,0.1,0,0.1,0c0,0,0.1,0,0.2,0c0.2,0,0.4,0,0.7,0c0.3-1,0.9-1.6,1.8-1.9
				c0.1,0,0.1,0,0.2,0c0.2,0,0.4,0,0.6,0c0.5,0.5,0.9,1,1.2,1.4c0,0,0.1,0,0.1,0c0.2-0.1,0.5-0.1,0.8-0.2c0-0.2,0-0.3,0.2-0.5
				c0.2,0,0.5,0,0.7,0c0.2,0.1,0.3,0.1,0.5,0.1c0.1,0,0.1,0,0.2,0.1c0.7,0.3,1.5,0.4,2.3,0.5c0.1,0,0.1,0,0.2,0
				c0.3,0,0.5,0.1,0.8,0.2c0.3,0,0.7,0,1,0c0.3,0.1,0.5,0.1,0.8,0.2c0.4,0.3,0.9,0.5,1.5,0.7c0.2,0.1,0.4,0.2,0.5,0.4
				c-0.2,0-0.3,0-0.5,0c-0.7,0-1.3,0-1.8,0.1c-0.2,0-0.3,0-0.5,0c-0.2,0-0.3,0-0.4,0c-0.4,0-0.7,0.1-0.9,0.1c-0.3,0-0.6,0-0.8,0
				c-0.3,0-0.4,0-0.5,0c0,0,0,0,0,0.1c-0.3,0.1-0.6,0.1-0.8,0.3c-0.2,0.1-0.4,0.1-0.5,0.3c-0.2,0.1-0.4,0.2-0.6,0.4
				c-0.2,0.2-0.3,0.5-0.5,0.7c-0.1,0.1-0.1,0.3-0.1,0.4c0,0,0,0.1,0,0.1c-0.1,0.4-0.1,0.8,0,1.1c0,0.1,0,0.3,0,0.4
				c0,0.2,0,0.4,0.1,0.7c0,0,0.1,0.1,0.1,0.1c0.1,0.2,0.2,0.5,0.3,0.7c0.3,0.6,0.7,1.1,1.2,1.5c0,0,0.1,0.1,0.1,0.1
				c0-1.8,0.9-2.9,2.8-3.4c4.2,2.2,4.9,4.1,2.2,5.7c0,0,0.1,0,0.1,0c0.3,0.1,0.6,0.2,0.9,0.3c0.5,0.1,1.1,0.3,1.8,0.5
				c0.5-0.8,1.2-1.1,2-1c0.5,0.7,0.9,1.3,1.2,1.8h0c0.3,0.1,0.6,0.2,1,0.3c0.4,0.1,0.8,0.3,1.2,0.4c0.6,0.2,1.2,0.4,1.7,0.6
				c0.3,0.1,0.6,0.3,0.9,0.4c0.2,0.1,0.3,0.2,0.5,0.3c0.5,0.3,1,0.6,1.3,1c0,0.1,0.1,0.1,0.1,0.2c0.1,0.1,0.3,0.3,0.3,0.4
				c0.2,0.3,0.3,0.6,0.4,0.9c0.1,0.2,0.1,0.4,0.1,0.7c0,0.2,0,0.4,0.1,0.5c0,0.1,0,0.2,0,0.3c0,0.1-0.1,0.2-0.1,0.4
				c0,0.1,0,0.3,0,0.4c0,0.2,0,0.3,0,0.4c-0.1,0.3-0.2,0.5-0.3,0.7c-0.2,0.4-0.3,0.8-0.5,1.1c-0.1,0.1-0.2,0.3-0.3,0.4
				c-0.2,0.3-0.4,0.6-0.8,0.9c-0.4,0.3-0.7,0.6-1.1,0.9c1.4,2.8-0.3,4.3-5.3,4.6c-1.8,0.1-3.1-0.1-4-0.5c-1.7,1.3-2.3,0.8-2-1.4
				c0-0.1,0-0.2,0-0.3c-0.1,0-0.2,0-0.3,0c-0.2,0-0.3,0-0.5,0c-0.2,0-0.4,0-0.5,0c0,0-0.1,0-0.2,0C132.8,69.9,131.9,70.1,129.3,69.3
				z M99.2,46.3c-0.4,0.2-0.9,0.5-1.4,0.7c-0.4,0.2-0.8,0.2-1.1-0.1c0,0,0.1-0.1,0.1-0.1c0.2,0,0.4,0,0.6,0c0.1,0,0.1-0.1,0.1-0.1
				C98.1,46.5,98.7,46.4,99.2,46.3z M165.7,69.1c0.4-1,1.2-1.5,2.3-1.4c3.3,2.5,2.8,3.6-1.4,3.1C165.6,70.7,165.3,70.1,165.7,69.1z
				 M119.9,42.5c-0.1,0-0.1-0.1-0.2-0.1h0C119.7,42.5,119.8,42.5,119.9,42.5L119.9,42.5z M119,59.4c-1.5-0.3-2.6,0.2-3.2,1.4
				c-0.8,1.4-0.3,2.1,1.3,2.2C122.1,63.2,122.7,62,119,59.4z M151.5,66.8c2.7,3.1,1.8,4.2-2.8,3.2c-1.2-0.3-1.4-0.9-0.7-1.9
				C148.8,66.9,150,66.5,151.5,66.8z M155.5,65.5c-3-0.4-4.7-1.7-5.1-4c-0.3-1.3,0.3-2,1.8-1.9c4.9,0,6.7,1.6,5.4,4.8
				C157.2,65.2,156.5,65.6,155.5,65.5z M134,59.5c-0.9-0.1-1.7,0.3-2.2,1.1c-0.4,0.6-0.3,1.1,0.2,1.3
				C135.8,63.6,136.5,62.8,134,59.5z"/>
			<path fill-rule="evenodd" clip-rule="evenodd" fill="#EAEAF4" d="M124.8,40.9c0,0,0.1-0.1,0.2-0.1c0.5,0.3,1.1,0.5,1.8,0.7
				c0.1,0,0.1,0,0.2,0c-0.1,0.2-0.2,0.4-0.2,0.5c-0.3,0.1-0.5,0.1-0.8,0.2c0,0-0.1,0-0.1,0C125.7,41.8,125.3,41.4,124.8,40.9z
				 M124,40.9c-1,0.2-1.6,0.9-1.8,1.9c-0.2,0-0.5,0-0.7,0c-0.1,0-0.1,0-0.2,0c0,0-0.1,0-0.1,0c-0.2,0-0.5,0-0.7,0
				c-0.2-0.1-0.4-0.2-0.5-0.2c-0.1,0-0.1,0-0.1,0c0.2-0.1,0.4-0.2,0.6-0.1c-0.2,0-0.4-0.1-0.5-0.1c1-0.6,1.3-1.2,0.8-1.8
				c0.1-0.1,0.2-0.2,0.3-0.3c0.6,0.4,1.2,0.6,2,0.6c0.2,0,0.3,0,0.5,0C123.7,40.9,123.9,40.9,124,40.9z"/>
			<path fill-rule="evenodd" clip-rule="evenodd" fill="#EAECF8" d="M96.6,46.9c0.3,0.3,0.7,0.4,1.1,0.1c0.5-0.2,1-0.5,1.4-0.7
				c0.1-0.1,0.2-0.1,0.3-0.1c0.1,0,0.1,0,0.2,0c0.4-0.1,0.7-0.3,0.9-0.4c0,0,0.1,0,0.1,0c0.4-0.1,0.8-0.2,1.1-0.3c0.1,0,0.1,0,0.3,0
				c0.1,0,0.3,0,0.4,0v0.1c0.1,0,0.1,0,0.2,0c0.5,0.1,0.9,0,1.3-0.2c0.2-0.1,0.4-0.3,0.6-0.4v0c0.1-0.1,0.1-0.1,0.2-0.2
				c0.1-0.1,0.2-0.2,0.3-0.3c0.2-0.1,0.3-0.2,0.3-0.4c0.1-0.3,0.2-0.6,0.3-0.8c0-0.1,0-0.2,0-0.3c0-0.1,0-0.1,0-0.1
				c0.1-0.1,0.2-0.3,0.2-0.4h0c0.1-0.2,0.2-0.3,0.3-0.5l0,0c0.1-0.2,0.1-0.4,0.2-0.6c0.2,0,0.5,0,0.8,0c0.1,0,0.3,0.1,0.5,0.1
				c0.1,0.1,0.2,0.1,0.3,0.3c0.1,0.1,0.2,0.2,0.4,0.3c0.1,0,0.1,0.1,0.2,0.2c0.1,0.1,0.2,0.1,0.3,0.3c0.2,0.1,0.3,0.2,0.5,0.4
				c0.3,0.2,0.7,0.4,1.1,0.8c0.3,0.2,0.6,0.3,0.9,0.5c0,0,0.1,0,0.1,0.1c0,0.3,0.1,0.6,0.3,1c0.7,1.5,1.9,2,3.6,1.3
				c0.1,0.1,0.2,0.1,0.3,0.2c0.7,0.5,1.3,0.9,2,1.4c-0.1,0.2-0.1,0.4-0.1,0.6c-0.1,1.3,0.6,1.9,1.9,2c0.5,0,1,0.1,1.4,0.1
				c0,0,0.1,0,0.1,0.1c0.1,0.1,0.3,0.2,0.4,0.4c-1.1,0.7-1.4,1.9-1,3.6c0.2,0.8,0.5,1.1,1.1,1.1c0.1,0,0.3-0.1,0.5-0.1
				c-0.2,0.2-0.3,0.4-0.5,0.6c-0.3,0.2-0.5,0.3-0.8,0.5c-0.2-0.3-0.4-0.5-0.6-0.7c-1.4-0.2-2.5,0.2-3.3,1.3
				c-0.1,0.1-0.1,0.2-0.2,0.4c-0.6,0-1.2,0-1.9,0c-0.2,0-0.5,0-0.8,0s-0.5,0-0.8,0c-0.1,0-0.3,0-0.4-0.1c-0.1,0-0.2,0-0.3,0
				c-0.3-0.5-0.8-1-1.5-1.8c-1.3-0.2-2.3,0.2-3,1.3c-0.4-0.1-0.7-0.1-1.1-0.1h-0.1c-1-0.2-1.9-0.4-2.8-0.5c-0.5-0.1-0.9-0.2-1.3-0.3
				c-0.9-0.3-1.6-0.5-2.3-0.8c-0.1-0.1-0.2-0.1-0.3-0.1c-0.3-0.5-0.6-1.1-1.1-1.8c-0.6,0-1,0.1-1.5,0.4c-0.3-0.2-0.5-0.4-0.8-0.6
				c-0.2-0.2-0.4-0.4-0.5-0.5c-0.1-0.2-0.2-0.3-0.4-0.4c-0.1-0.1-0.2-0.1-0.3-0.3c-0.2-0.5-0.6-1.1-1.1-1.9c-0.3-0.4-0.5-0.7-0.6-1
				c-0.2-0.3-0.4-0.6-0.5-0.8c0.1-0.1,0.2-0.1,0.3-0.2c0.2-0.1,0.4-0.3,0.5-0.5c0.1-0.1,0.2-0.2,0.3-0.3c0,0,0.1-0.1,0.1-0.1
				c0.2-0.1,0.3-0.1,0.5-0.3c0.1,0,0.1,0,0.2,0c0.3,0,0.7-0.1,1-0.3C96.3,47,96.5,46.9,96.6,46.9z M119,59.4c3.7,2.6,3,3.8-2,3.6
				c-1.6-0.1-2-0.8-1.3-2.2C116.5,59.6,117.5,59.1,119,59.4z M134,59.5c2.5,3.3,1.8,4.1-2,2.4c-0.5-0.2-0.6-0.7-0.2-1.3
				C132.3,59.8,133,59.4,134,59.5z"/>
			<path fill-rule="evenodd" clip-rule="evenodd" fill="#EFEFF9" d="M95.8,70.9c0.1-0.1,0.3-0.1,0.5,0c0.1,0,0.1,0.1,0.3,0.1h0
				c0.2,0.1,0.5,0.2,0.8,0.3H97c-0.2-0.1-0.4-0.2-0.6-0.3c-0.1,0-0.2,0-0.3,0C96,70.9,95.9,70.9,95.8,70.9z M119.9,42.5L119.9,42.5
				c-0.2,0-0.2,0-0.2-0.1h0C119.8,42.4,119.8,42.5,119.9,42.5z"/>
			<path fill-rule="evenodd" clip-rule="evenodd" fill="#CFD1DD" d="M129.3,69.3c0,0.1-0.1,0.2-0.1,0.4c-0.1,0.1-0.1,0.2-0.1,0.4
				c-0.1,0.1-0.1,0.3-0.2,0.5c-0.1,0.4-0.2,0.8-0.3,1.1c-0.1,0.1-0.1,0.3-0.2,0.4c-0.1,0.4-0.2,0.7-0.3,1.1c0,0.2-0.1,0.3-0.2,0.5
				c0,0.1-0.1,0.3-0.1,0.4c-0.1,0.4-0.2,0.7-0.3,1c-0.1,0.1-0.1,0.2-0.1,0.3c-0.2,0-0.5-0.1-0.7-0.1c-0.5,0-0.9-0.1-1.4-0.2
				c-0.4-0.1-0.9-0.1-1.3-0.3c-0.4,0-0.9-0.1-1.4-0.2c-0.5-0.1-1-0.1-1.5-0.2c-0.1,0-0.2,0-0.3,0c-0.3,0-0.7-0.1-1-0.1h0
				c-0.2,0-0.3-0.1-0.4-0.1c-0.6-0.1-1.3-0.2-1.8-0.2c-0.5-0.1-1.1-0.2-1.7-0.3c-0.5-0.1-0.9-0.1-1.3-0.2c-0.6-0.1-1.2-0.2-1.8-0.3
				c-0.5-0.1-0.9-0.1-1.3-0.2c-0.1,0-0.2,0-0.4,0c-0.2,0-0.5-0.1-0.8-0.2c-0.5-0.1-0.9-0.1-1.4-0.2c-0.6-0.1-1.2-0.1-1.7-0.1
				c-0.1,0-0.3-0.1-0.3-0.1c-0.1,0-0.2,0-0.3,0c-0.2-0.1-0.4-0.1-0.6-0.1c-0.6-0.1-1.2-0.2-1.8-0.3c-0.2,0-0.3-0.1-0.4-0.1
				c-0.4-0.1-0.7-0.1-0.9-0.1l-0.1,0c-0.2,0-0.4,0-0.6,0c-0.5-0.1-1-0.2-1.5-0.3c-0.6-0.1-1.2-0.2-1.7-0.3c-0.1,0-0.2,0-0.3,0
				l-1,0.1l-0.6,0.1C97,71.1,96.8,71,96.5,71h0c-0.1,0-0.2-0.1-0.3-0.1c-0.2-0.1-0.4-0.1-0.5,0c-0.1-0.1-0.3-0.1-0.4-0.1
				c-0.7-0.2-1.3-0.4-1.9-0.5c-0.5-0.1-1.1-0.3-1.7-0.4c-0.7-0.2-1.4-0.4-2.1-0.5c-0.1,0-0.3-0.1-0.4-0.1C89,69.1,88.7,69,88.4,69
				l-0.1-0.1c0,0-0.1,0-0.3-0.1c-0.1,0-0.3-0.1-0.6-0.1c-0.6-0.1-1.1-0.2-1.7-0.3c0-0.1-0.1-0.1-0.2-0.1c-0.2,0-0.5-0.1-0.7-0.1
				c-0.3-0.1-0.7-0.1-1-0.2l-3.8-1.8c0-0.1,0-0.2,0-0.3c0-0.1,0-0.1,0-0.2c0-0.2-0.1-0.4-0.2-0.5c-0.1-0.2-0.2-0.3-0.5-0.3l-2.3-0.3
				l-0.1-0.3L76.9,64L76,62.8L75.2,62L75,61.6l-1.3-0.1c0.4-0.6,0.9-1.3,1.5-2c0.8-1.2,1.4-2.1,1.8-2.9c0-0.1,0.1-0.3,0.2-0.4
				c0,0,0.1-0.1,0.1-0.1c0.6-0.2,1-0.5,1.4-0.9c0.3-0.3,0.5-0.6,0.6-0.9c0.1,0,0.1,0.1,0.1,0.1c0.4,0.1,0.7,0.1,1.1,0
				c0.1,0,0.2-0.1,0.3-0.1c0.8-0.1,1.5-0.5,2-1.1c0-0.1,0.1-0.1,0.1-0.2c0.3-0.3,0.6-0.7,0.8-1.1c0.1-0.2,0.2-0.4,0.3-0.6
				c0,0,0-0.1,0-0.1c0.5-0.1,1-0.3,1.5-0.5c0.3,0.1,0.7,0.1,1.2,0.1c0.1,0,0.2,0,0.3,0c0,0,0.1,0.1,0.1,0.1c0.8,0.1,1.8,0,2.9-0.4
				c0.2,0,0.3-0.1,0.5-0.2c0,0.1,0,0.1,0,0.2c-0.1,0.4-0.3,0.9-0.4,1.3c0,0.1,0,0.1-0.1,0.2c-0.1,0.2-0.1,0.4-0.2,0.6
				c-0.1,0.2-0.1,0.5-0.2,0.8c0,0,0,0.1,0,0.1c0,0.1,0,0.3-0.1,0.4c0,0.2,0,0.3,0,0.5c-0.1,0.5-0.1,1,0,1.5c0,0,0,0.1,0,0.1
				c0,0.5,0.1,1,0.2,1.4c0,0.1,0,0.2,0,0.3c0.1,0.2,0.2,0.5,0.3,0.7c0.1,0.4,0.3,0.8,0.6,1c0.2,0.3,0.4,0.5,0.6,0.8
				c-1.3,1.4,0,2.7,3.8,3.7c0.8,0.2,1.3,0.1,1.8-0.2c0.2-0.1,0.4-0.2,0.5-0.3c0.2,0,0.3,0,0.5,0c0.4,0.1,0.8,0.2,1.2,0.3
				c0.4,0.1,0.8,0.1,1.3,0.3c0,0.4,0.1,0.6,0.5,0.8c2.7,0.9,3.9,0.9,3.7,0c0.1,0,0.1,0,0.3,0c0.1,0,0.3,0,0.3,0.1
				c0.3,0,0.7,0.1,1,0.1c0.2,0.1,0.5,0.1,0.8,0.1c0.2,0,0.5,0.1,0.8,0.1c0.2,0,0.4,0.1,0.6,0.1c-0.2,0.7,0.2,1.1,1,1.3
				c2.5,0.3,3.7,0.1,3.8-0.5h0c0.5,0,0.9,0.1,1.3,0.2c0,0.2,0.2,0.4,0.5,0.6c2.6,1.2,3.8,1.2,3.5,0c0.6,0.1,1.3,0.2,1.9,0.3
				c0.5,0,0.9,0.1,1.3,0.2c0.1,0,0.1,0,0.2,0c0.4,0.1,0.8,0.1,1.2,0.2c0.1,0,0.2,0,0.3,0c0.4,0,0.8,0,1.1,0.1
				c0.7,0.1,1.3,0.1,1.9,0.3c0.2,0,0.3,0.1,0.5,0.1c0.2,0,0.3,0,0.5,0c0.3,0,0.6,0.1,1,0.1c-0.2,0.5,0,0.8,0.4,1
				C128.8,69.2,129.1,69.2,129.3,69.3z"/>
		</g>
	</g>
	<g>
		<g>
			<path fill-rule="evenodd" clip-rule="evenodd" fill="#FFFFFF" d="M181.8,86.3c-0.3,0.1-0.5,0.3-0.8,0.4c0.1-1.2,0.3-2.4,0.5-3.4
				c0-0.1,0.1-0.1,0.1-0.2c0,0,0-0.1,0-0.1c0.3-1,0.5-1.8,0.8-2.4c0,0.1,0,0.3,0,0.7c0,0.2-0.2,0.4-0.5,0.8c0,0.1,0,0.3,0,0.3
				C182,84,182,85.3,181.8,86.3z M181,97.8c0-0.1,0-0.1,0-0.2c0-0.3,0-0.5,0-0.5c-0.1,0-0.1,0-0.1,0c0-1.3-0.1-3-0.1-5.1v-0.1
				c0-0.8,0-1.6,0.1-2.4c0.8-0.6,1.1-0.1,1.1,1.5c0,0.9-0.4,2.3-1.1,4.1c0.1,0,0.2,0,0.3,0c0,0,0,0.1,0.2,0.1c0.1,0,0.1,0.3,0.1,0.8
				c0,0.2,0,0.4-0.1,0.6c0.8,0,1.5,0.2,2.1,0.5c-0.1,0-0.1,0-0.2,0C182.3,97.2,181.6,97.4,181,97.8z M181.3,102.9
				c0.4,0,0.8,0,1.2,0.1c-0.2-0.7-0.4-1.4-0.6-2c0.4,0.1,0.9,0.1,1.5,0.1c1,0,1.7-0.1,2.1-0.3c0.7-0.3,1-0.8,1-1.5
				c0-1.2-0.6-1.9-1.9-2.1c0-0.3,0-0.6,0-1c0-2.6,0.3-4.2,0.9-4.8c0.4,0.4,1.2,0.6,2.4,0.6c0.6,0,1.3-0.1,2.2-0.5
				c0,0,0.1,0.1,0.1,0.1c-0.1,0.3-0.1,0.5-0.2,0.7c-0.2-0.1-0.5-0.1-0.8-0.2c-0.7,0-1.3,0.1-1.7,0.4c-0.2-0.1-0.4-0.2-0.6-0.4
				c0.1,0.2,0.1,0.5,0.2,0.9c-0.2,0.3-0.3,0.7-0.3,1.1c0,0.5,0,0.8,0.1,0.9c0.1,0.1,0.2,0.2,0.3,0.3c0,0.2,0,0.4,0,0.6
				c0,1.8-0.1,3.3-0.2,4.5c-0.3,0.1-0.5,0.3-0.8,0.4c0.1,0.4,0.2,0.7,0.3,1.1c0.1,3.2,0.2,5.1,0.3,5.9c-0.4-0.5-1-0.7-2-0.8
				c-0.2,0-0.4,0-0.6,0c-0.1-0.1-0.1-0.2-0.2-0.3c0,0.1-0.1,0.3-0.1,0.4c-0.8,0.2-1.3,0.7-1.4,1.5c-0.3-0.2-0.5-0.3-0.6-0.5
				c0-0.5-0.1-1-0.1-1.4c0.9-0.4,1.4-1.1,1.4-2C183,103.6,182.4,102.9,181.3,102.9z M186,88.9c-0.1-0.6-0.1-1,0-1.4
				c0-2.1,0.5-3,1.5-2.6c0.9,0.3,1.4,1.2,1.5,2.8C187.7,88,186.7,88.4,186,88.9z M191.1,95.4c0.2-0.3,0.3-0.6,0.3-1.1
				c0-0.1,0-0.3,0-0.4c0.1-0.1,0.2-0.2,0.3-0.2c0-0.1,0-0.2,0-0.3c0-0.2-0.1-0.5-0.1-1c0,0.4,0.1,0.9,0.1,1.4
				c0.1,0.8,0.1,1.6,0.2,2.5c-0.2-0.1-0.4-0.2-0.5-0.3C191.3,95.8,191.2,95.6,191.1,95.4z M191,87.3c-0.3,0-0.6,0-1,0.1
				c-0.1-0.2-0.2-0.4-0.3-0.6c-0.2-0.4-0.3-0.7-0.3-1c0-0.9,0.3-2.1,0.9-3.6c0-0.1,0.1-0.2,0.1-0.3c0.1,0.1,0.2,0.3,0.3,0.4
				c0,0.1,0,0.3,0,0.4c0.1,0.9,0.1,1.9,0.2,2.9C191,86.1,191,86.7,191,87.3z M188.8,116.1c0.1,0.7,0.2,1.3,0.2,1.8
				c0,0.9-0.1,1.5-0.2,2c-0.4,0.2-0.7,0.4-1,0.5c-0.9-0.7-1.5-1.8-1.6-3.3c-0.1-0.4-0.1-1.6-0.1-3.6c0-1.3,0.1-2.2,0.2-2.8
				c0.1-0.5,0.3-0.7,0.5-0.5c0.2,0.2,0.5,0.7,0.8,1.6c0,0.1,0.1,0.2,0.2,0.3c-0.7,0.4-1.1,1-1.1,1.9c0,0.5,0.1,0.8,0.2,1.1
				c0.3,0.7,0.9,1,1.8,1C188.7,116.1,188.8,116.1,188.8,116.1z M185.3,111c-0.1,0.3-0.2,0.7-0.3,1.2c-0.4,1.5-0.6,2.7-0.7,3.4
				c-0.4,0.2-0.7,0.3-1,0.4c-0.6-0.4-1-0.8-1.1-1.4c-0.1-0.5-0.1-0.9-0.2-1.4c0-0.1,0-0.1,0-0.2c0-1.5,0.1-2.4,0.2-2.8l0,0v0
				c0.3,0.5,1,0.8,2.3,0.8C184.8,111.1,185.1,111.1,185.3,111z M187.8,80c-0.6-0.4-1-1.2-1.1-2.2c0-0.2-0.1-0.5-0.1-1
				c0.6,0.4,1.4,1.3,2.4,2.6C188.5,79.7,188.1,79.9,187.8,80z M182.8,84.6c0.4-0.3,1.4-0.4,3,0c0,0,0,0.1,0.2,0.1
				c0.1,0,0.1,0.3,0.1,0.8c0,0.3-0.3,0.8-0.9,1.4c-0.5,0.6-1,1.1-1.4,1.3c-0.6-0.2-1-0.5-1.1-1c-0.1-0.2-0.1-0.5-0.1-1.1
				C182.5,85.3,182.6,84.8,182.8,84.6z M188.2,101.5c0.1-1.1,0.5-1.9,1.1-2.2c0.6,0.2,1,0.5,1.3,1v7.5c-0.5,0.2-0.9,0.4-1.3,0.6
				c-0.6-0.4-1-1.1-1.1-2.2c-0.1-0.4-0.1-1.2-0.1-2.4C188,102.6,188.1,101.8,188.2,101.5z M192.9,116.6c-0.6-0.5-1-1.4-1.4-2.9
				c-0.3-1-0.4-2-0.5-3c0-3.2,0.5-3.9,1.5-2c0.1,1.5,0.1,3,0.2,4.3c0,0.8,0.1,1.6,0.1,2.3C192.8,115.8,192.9,116.3,192.9,116.6z
				 M190,124.2c0.3-1.2,0.8-2,1.3-2.4c0.6,0.3,1,1.1,1.2,2.2c0,0.1,0,0.2,0,0.3C192.1,123.6,191.3,123.6,190,124.2z M189.5,130.1
				c1.5-0.1,2.3-0.7,2.3-1.9c0-0.4,0.2-0.8,0.5-1.2c0.1-0.1,0.1-0.1,0.2-0.2c-0.2,2.8-0.8,4.7-1.8,5.6c-0.8-0.8-1.3-1.3-1.3-1.4
				C189.5,130.7,189.5,130.4,189.5,130.1z M185.3,129.5c-0.6-0.4-1-0.9-1.1-1.5c-0.1-0.2-0.1-0.7-0.1-1.6c0-1.5,0.4-2.6,1.3-3.1
				c0.6,0.3,1,0.6,1.3,1v4.6C186.1,129.1,185.7,129.3,185.3,129.5z M183,124.2c-0.1-0.3-0.1-0.7-0.1-1c0.1,0.2,0.1,0.4,0.1,0.6
				C183,124,183,124.1,183,124.2z M187,132.5c0.1,0,0.1,0.3,0.1,0.8c0,0.7-0.3,1.7-1,3l-0.8,0.3c-0.6-0.2-1-0.5-1.1-1
				c-0.1-0.2-0.1-0.5-0.1-1.1c0-0.8,0.1-1.4,0.2-1.6c0.3-0.6,1.2-0.7,2.5-0.4C186.8,132.4,186.8,132.5,187,132.5z M183.5,135.1
				c0-1.1,0-2.1,0-3.1c0.4,1.2,0.6,1.9,0.6,1.9c0,0.5,0,0.9-0.1,1h-0.1l-0.1,0.1C183.7,135.1,183.6,135.1,183.5,135.1z M191,138.6
				c0.7-0.3,1.4-0.4,2-0.2c0,0.9,0.1,1.8,0.1,2.7c-0.4-0.2-0.7-0.4-1.1-0.8C191.6,139.8,191.2,139.2,191,138.6z M193.3,144.5
				c-0.3,0-0.6,0-1,0.1c0,0-0.1,0-0.1,0c-0.6-0.1-1.2-0.6-1.6-1.5c-0.3-0.7-0.5-1.3-0.5-1.6c0-0.4,0-0.7,0-0.7
				c0.1-0.1,0.2-0.1,0.2-0.3c0.8,0,1.5,0.3,2.3,0.9c0.2,0.2,0.4,0.4,0.6,0.6C193.2,142.8,193.2,143.6,193.3,144.5z M186.5,144.3
				c0.5-0.5,0.8-0.8,0.8-1c0-0.9-0.4-1.5-1.1-1.8c0.2-0.5,0.5-0.7,1-0.6c0.8,0.1,1.3,0.7,1.3,1.9c0,0.6-0.1,1.1-0.2,1.6
				c-0.4,0.2-0.7,0.3-1,0.4C187,144.5,186.7,144.4,186.5,144.3z M183.7,146.2c0.4-0.2,0.9-0.5,1.3-0.8c0,0.4-0.1,0.8-0.2,1.1
				c0,0.1,0,0.2,0,0.3c-0.1,0.2-0.5,0.3-1,0.3c-0.1,0-0.1,0-0.1,0C183.7,146.8,183.7,146.5,183.7,146.2z M192.8,150.3
				c0.2,0,0.4,0.1,0.6,0.1c0,0.6,0,1.1,0,1.7c-0.1,0.1-0.2,0.2-0.3,0.4c-0.2,0.3-0.3,0.5-0.4,0.8c-0.4-0.2-1-0.4-1.6-0.6
				c-0.2-0.1-0.4-0.1-0.5-0.1C192.1,151.9,192.8,151.1,192.8,150.3z M192.9,157c0,0.1-0.1,0.2-0.1,0.4c-0.1,0.5-0.2,0.9-0.3,1.3
				c0.1,0,0.3,0.1,0.6,0.1c0.3,0.1,0.4,0.4,0.4,0.9c0,1.1-0.2,2.7-0.5,4.6c-0.3,2-0.5,3.9-0.5,5.7c-0.5,0.2-0.9,0.4-1.3,0.6
				c-0.6-0.4-1-1.1-1.1-2.2c0-0.2-0.1-0.7-0.1-1.4l0,0l0.3-1.4c-0.4-1.6-1-2.8-1.8-3.5c0.1-0.1,0.3-0.2,0.5-0.2
				c0.4,0,0.7,0.3,1.1,0.8c0-0.4,0-0.7,0-0.9c0.1-0.8,0.4-1.5,0.8-2c-0.3-0.3-0.6-0.7-0.8-1.2c-0.1-0.1-0.1-0.3-0.1-0.4
				c0,0.1-0.1,0.1-0.1,0.2c-0.3,0.6-0.5,1.1-0.5,1.5c-0.1,0-0.3,0.1-0.5,0.3c-0.3,0.2-0.6,0.3-0.8,0.4c-0.4-0.4-0.8-0.8-1-1.4
				c-0.2-0.4-0.3-0.7-0.3-0.9c0-1,0.1-1.6,0.2-1.9c0.3-0.4,0.7-0.6,1.3-0.6c0.6,0.8,1.6,1.3,3,1.3C192.1,157,192.5,157,192.9,157z
				 M188.7,148.9c-1,0.6-1.6,1.4-1.6,2.4c0,0.7,0.3,1.2,0.9,1.5c-0.1,0-0.1,0-0.2,0c-0.4-0.4-0.8-0.9-1-1.4
				c-0.2-0.4-0.3-0.6-0.3-0.9c0-1.4,0.4-2,1.3-2C188.2,148.5,188.5,148.6,188.7,148.9z M186.2,163.4c0,0.2-0.1,0.5-0.1,0.7l0.3,1.7
				c0.2,0.7,0.6,1.2,1.1,1.5l-0.2,0.1c-0.2,0.2-0.5,0.3-1,0.3c-0.9,0-1.5-0.5-2-1.4c-0.1-0.5-0.2-0.9-0.3-1.4c-0.1,0-0.1,0-0.1,0
				c0-0.4,0-0.7,0-0.9c-0.1-4.9-0.2-9.7-0.3-14.3c0.2,0,0.4,0.1,0.6,0.2c0,0,0,0.1,0.2,0.1c0.1,0,0.1,0.3,0.1,0.8
				c0,0.3,0,0.7-0.1,1.3c0,0.1,0.1,0.1,0.1,0.3c0.1-0.1,0.2-0.2,0.3-0.3c0.6,0.2,1,0.5,1.3,0.9v4.5c0.3,1.5,0.5,3,0.5,4.4
				c-0.2,0.3-0.4,0.8-0.4,1.6c0,0-0.1,0-0.1,0C186.1,163.3,186.1,163.4,186.2,163.4z M184,176.3c0-2.7-0.1-5-0.1-7
				c0-0.3,0-0.5,0-0.7c0.1-0.1,0.3-0.2,0.5-0.2c0.6,0,1,0.8,1.2,2.4c0.1,0,0.3,0,0.3,0c0,0,0,0.1,0.2,0.1c0.1,0,0.1,0.3,0.1,0.8
				c0,0.2-0.2,0.4-0.5,0.8c0,0.1,0,0.3,0,0.3c0,1.7-0.1,3-0.2,4c-0.2,0.1-0.4,0.2-0.6,0.3C184.6,176.7,184.3,176.4,184,176.3z
				 M192.5,177.3c-0.6,0-1.3,0.2-2.2,0.7c-0.3,0.1-0.5,0.3-0.8,0.5c0-0.2,0-0.4,0-0.5c0-2.1,0.5-3,1.5-2.7
				C191.8,175.6,192.3,176.3,192.5,177.3z M193.9,163.3c0,1.5,0.1,2.9,0.1,4.2c-0.3-0.2-0.6-0.6-0.8-1.1c-0.2-0.5-0.3-1-0.3-1.5
				c0-0.2,0.1-0.4,0.2-0.8C193.4,163.8,193.6,163.5,193.9,163.3z M191.5,195.3c0,0,0.1,0,0.1,0c1.1-0.7,1.7-1.5,1.7-2.5
				c0-1.3-0.4-1.9-1.3-2c0.2-0.4,0.4-0.8,0.8-1c0.6,0.2,1,0.5,1.3,1v7.5c-0.5,0.2-0.9,0.4-1.3,0.6c-0.6-0.3-1-1.1-1.1-2.2
				C191.6,196.4,191.6,195.9,191.5,195.3z M189.5,176c0,0.3-0.3,0.8-0.9,1.5c-0.5,0.6-1,1.1-1.4,1.3c-0.6-0.2-1-0.5-1.1-1
				c-0.1-0.2-0.1-0.5-0.1-1.1c0-0.9,0.1-1.4,0.2-1.5c0.4-0.3,1.4-0.3,3-0.1c0,0,0,0.1,0.2,0.1C189.5,175.2,189.5,175.5,189.5,176z
				 M191,202.3c1,2.7,1.5,4.7,1.5,6c0,0.9-0.1,1.5-0.2,2c-0.4,0.2-0.7,0.4-1,0.5c-0.9-0.7-1.5-1.8-1.6-3.3c-0.1-0.4-0.1-1.6-0.1-3.6
				C189.5,200.2,190,199.7,191,202.3z M186,247c-0.1,0.9-0.1,1.6-0.2,2.2c-0.4,0.2-0.7,0.3-1,0.5c-0.6-0.3-1-1.1-1.1-2.3
				c0-0.1,0-0.2,0-0.3c-0.1,0.2-0.1,0.3-0.2,0.5c-0.1,0.3-0.1,0.5-0.2,0.8c0-1.8,0-3.6,0-5.3c0.1-0.1,0.3-0.1,0.4-0.1
				c0.2-1.5,0.5-2.3,1.1-2.3c0.6,0,1,0.8,1.2,2.4c0.1,0,0.3,0,0.3,0c0,0,0,0.1,0.2,0.1c0.1,0,0.1,0.3,0.1,0.7
				c-0.6,0.5-0.9,1.1-0.9,1.8c0,0.5,0,0.8,0.1,1C185.9,246.8,186,247,186,247z M190.2,234.5c-0.4,0.4-0.6,1-0.6,1.8
				c0,0.1,0,0.5,0,1.3c0.2,0.7,0.9,1,2,1c0.7,0,1.2-0.2,1.5-0.7c0.2-0.4,0.3-0.9,0.3-1.8c0-1.6-0.6-2.3-1.8-2.2
				c-0.3,0-0.5,0-0.8,0.1c0.1-0.7,0.4-1.3,0.8-1.8c-0.3-0.4-0.6-0.8-0.8-1.2c-0.1-0.1-0.1-0.3-0.1-0.4c0,0.1-0.1,0.1-0.1,0.2
				c-0.3,0.6-0.5,1.1-0.5,1.5c-0.1,0-0.3,0.1-0.5,0.3c-0.3,0.2-0.6,0.3-0.8,0.4c-0.4-0.4-0.8-0.8-1-1.4c-0.2-0.4-0.3-0.7-0.3-0.9
				c0-1,0.1-1.6,0.2-1.9c0.4-0.6,1.4-0.8,2.9-0.5c0-0.2,0-0.4,0.1-0.5c0,0,0-0.1,0-0.1c-0.1-0.2-0.2-0.4-0.2-0.7
				c-0.1-0.3-0.1-0.7-0.1-1.1c-0.2-0.3-0.3-0.8-0.4-1.3c-0.1-0.7-0.1-1.2,0-1.6c0-1.7,0.5-2.4,1.5-2.1c0.6,0.2,1,0.7,1.3,1.6
				c0.3,0,0.6,0.1,1,0.3c0,0.7,0,1.4,0,2c0,0,0,0,0,0.1c-0.4,0.6-0.5,1.3-0.3,2.1c0,0,0.1,0.2,0.1,0.4v0c0,0.1,0,0.2,0,0.3
				c0,0.4-0.1,1.1-0.3,2c-0.1,0.5-0.2,0.9-0.3,1.3c0.1,0,0.3,0.1,0.6,0.1c0,0,0.1,0,0.1,0c0,1.5,0,3,0,4.5c0,0.3-0.1,0.6-0.2,1
				c-0.3,2-0.5,3.9-0.5,5.6c-0.5,0.3-0.9,0.5-1.3,0.7c-0.1-0.1-0.1-0.1-0.2-0.2c-0.1-0.1-0.2-0.2-0.3-0.3c-0.3-0.4-0.5-1-0.6-1.7
				c-0.1-0.3-0.1-1-0.1-2.1c-0.1,0-0.1,0-0.3,0c-1,0-1.6-0.5-1.8-1.4c-0.1-0.4-0.1-0.8,0-1c0-1.3,0.4-2,1-2
				C189.8,234.3,190,234.4,190.2,234.5z M192.8,217.1c0-1.3-0.6-1.8-1.8-1.5c-0.3-0.7-0.5-1.3-0.5-1.6c0-0.4,0-0.7,0-0.7
				c0.1-0.1,0.2-0.2,0.2-0.3c0.8,0,1.5,0.3,2.3,0.8c0.2,0.2,0.4,0.3,0.5,0.5c0.1-0.3,0.2-0.5,0.3-0.6c-0.4-0.2-0.8-0.5-1.2-0.9
				c-0.5-0.6-0.9-1.1-1-1.7c0.8-0.4,1.6-0.4,2.4,0c0,2.5-0.1,5.2-0.2,7.9c0,0.2,0,0.3,0,0.5c0,0.1,0,0.2,0,0.3c0,0.2,0,0.3,0,0.5
				c-0.1,0.3-0.2,0.6-0.2,1c0,0.2,0.1,0.5,0.2,0.8c0,0.1,0,0.3,0,0.4c-0.5-0.5-0.7-0.8-0.7-0.8c0-1.2,0-2.2,0-3c0-0.1,0-0.1,0-0.3
				c0-0.2,0-0.4,0-0.6c0-0.2,0-0.4,0.1-0.6C193,217.1,193,217.1,192.8,217.1z M190,216c-1.5,0.6-2.3,1.4-2.4,2.5
				c-0.1-0.3-0.1-0.7-0.1-1.4c-0.5-0.2-0.8-0.5-0.9-0.8c-0.1-0.2-0.1-0.6-0.1-1.2c0-1.3,0.4-1.9,1.3-1.8c0.4,0.1,0.8,0.3,1,0.6l0,0
				c0.6,0.2,1,0.5,1.3,1V216z M188.7,247.4c0.3,0,0.7,0.1,1.1,0.1c0,0,0,0.1,0.2,0.1c0.1,0,0.1,0.3,0.1,0.8c0,0.3-0.3,0.8-0.9,1.4
				c-0.1,0.1-0.2,0.2-0.3,0.4c-0.1-0.9-0.5-1.4-1.1-1.4c-0.4,0-0.8,0.2-1.3,0.5c0-0.1,0-0.2,0-0.3c0-0.9,0.1-1.4,0.2-1.5
				c0.1,0,0.1-0.1,0.2-0.1c0.3,0,0.5,0,0.8,0C188,247.5,188.3,247.5,188.7,247.4z M185.5,258.5c0,0.1,0,0.2,0,0.4
				c0,0.2,0,0.4-0.1,0.6c1.3,0,2.4,0.5,3.2,1.5c0-0.5,0-1.1,0-1.8c0-1.4,0.1-2.5,0.3-3.3c0,0,0,0.1,0,0.1c0.3,0.7,1,1,2,1
				c0.1,0,0.1,0,0.2,0c0,0.6,0,1.3,0,2.2c0,1.8-0.1,3.3-0.2,4.5c-0.3,0.1-0.5,0.3-0.8,0.3c0.1,0.4,0.2,0.7,0.3,1.1
				c0.2,3.9,0.3,6,0.3,6.3c0,0.7-0.1,1.3-0.2,1.8c-0.3,0.2-0.6,0.4-0.9,0.5c-0.1,0.4-0.2,0.9-0.4,1.5c0,0.1,0,0.2,0,0.3
				c0,0,0,0.3,0,0.7c0,0.7-0.3,1.6-0.8,2.7c0,0.1-0.1,0.2-0.2,0.3l-0.8,0.3c-0.6-0.2-1-0.5-1.1-1c-0.1-0.2-0.1-0.5-0.1-1.1
				c0-0.8,0.1-1.4,0.2-1.6c0.2-0.3,0.4-0.4,0.8-0.5c0,0,0.1,0,0.2,0c-0.5-0.1-0.9-0.1-1.2,0c0-1.1,0.1-1.8,0.2-2
				c0.3-0.5,1-1,2.1-1.7c-0.2-0.5-0.3-1.1-0.5-1.7c-0.2,0.5-0.3,0.9-0.3,1.3c-0.1,0-0.3,0.1-0.5,0.3c-0.3,0.2-0.6,0.3-0.8,0.4
				c-0.6-0.4-1-0.9-1.1-1.5c-0.1-0.2-0.1-0.8-0.1-1.6l0-2.9c0.5,0,1,0,1.4,0.1c-0.9-2.9-1.4-4.7-1.4-5.4c0-0.3,0-0.5,0-0.5
				c-0.1,0-0.2,0.1-0.3,0.1C185.1,259.5,185.3,259,185.5,258.5z M190.4,252.8c-0.2-0.2-0.3-0.5-0.4-1c-0.1-0.6-0.1-1,0-1.4
				c0-2.1,0.5-3,1.5-2.7c1,0.3,1.5,1.4,1.5,3.1c0,0.4,0,0.8-0.1,1.1c0,0.1,0,0.2,0,0.3c-0.2,0-0.5,0-0.7,0
				C191.5,252.4,190.9,252.6,190.4,252.8z M183.3,253.5c0-0.8,0-1.5,0-2.3h0c0.3,0,0.6,0.3,0.8,0.8
				C183.8,252.5,183.5,253,183.3,253.5z M193.7,238.5c-0.1-0.4-0.2-0.8-0.2-1.2c0-0.2,0-0.4,0.2-0.6
				C193.7,237.3,193.7,237.9,193.7,238.5z M193.5,248.8c0-0.3,0-0.7,0.2-1.1c0,0.6,0,1.2,0,1.8C193.6,249.2,193.5,249,193.5,248.8z
				 M184.5,264.3c0,0.9-0.1,1.7-0.2,2.3c-0.4,0.2-0.7,0.3-1,0.4l0,0c0-1.8,0-3.5,0-5.3h0C184.1,261.6,184.5,262.5,184.5,264.3z
				 M193.3,271.3c-0.6-0.4-1-1.1-1.1-2.2c-0.1-0.4-0.1-1.2-0.1-2.3c0-1.2,0-2,0.1-2.3c0.1-1.1,0.5-1.9,1.1-2.2
				c0.3,0.1,0.5,0.2,0.7,0.3c0,2,0.1,4,0.1,6.3c0,0.6,0,1.1,0.1,1.7C193.8,270.8,193.5,271,193.3,271.3z M192.5,277.5
				c0.2,0.7,0.3,1.3,0.5,1.9c-0.2,0.5-0.3,1.2-0.3,2v0c-0.2,0-0.4,0.1-0.6,0.2c0.1,0.4,0.4,0.8,0.7,1.3c-0.3,0.2-0.6,0.3-0.9,0.4
				c-0.9-0.7-1.5-1.8-1.6-3.3c-0.1-0.4-0.1-1.6-0.1-3.6c0-3.8,0.5-4.3,1.5-1.7c0,0.1,0.1,0.2,0.2,0.3c0,0.3,0,0.7,0.1,1.4
				C191.9,276.9,192.2,277.3,192.5,277.5z M194,284.8c0,1-0.1,1.9-0.1,2.8c-0.5-0.2-1-0.6-1.4-1.4c-0.3-0.7-0.5-1.3-0.5-1.7
				c0-0.4,0-0.7,0-0.7c0.1-0.1,0.2-0.1,0.2-0.3c0.2,0,0.4,0,0.6,0C193.1,284.2,193.5,284.6,194,284.8z M191.7,292.5
				c0.3,0,0.6,0,0.9,0c0.4,0,0.7,0,1,0c0,0,0,0.1,0,0.2c-0.2,3.5-0.3,6.8-0.5,10c-0.1,0.9-0.1,1.7-0.1,2.5c0,0,0,0.1,0,0.1
				c0,0.2,0,0.5,0,0.8c-0.5,0.5-0.8,1.1-0.8,1.9c0,0.8,0,1.5,0.1,1.9l0.5,0.1c0,1,0,2,0,3c-0.3-0.4-0.5-1-0.6-1.7
				c-0.1-0.3-0.1-1-0.1-2.1c-0.1,0-0.1,0-0.3,0c-1,0-1.6-0.5-1.8-1.3c-0.1-0.4-0.1-0.8,0-1.1c0-1.3,0.4-2,1-2c0.4,0,0.7,0.3,1.1,0.8
				c0-0.4,0-0.7,0-0.9c0.1-0.8,0.4-1.5,0.8-2c-0.3-0.3-0.6-0.7-0.8-1.2c-0.1-0.1-0.1-0.3-0.1-0.4c0,0.1-0.1,0.1-0.1,0.2
				c-0.3,0.6-0.5,1.1-0.5,1.5c-0.1,0-0.3,0.1-0.5,0.3c-0.3,0.2-0.6,0.3-0.8,0.4c-0.4-0.4-0.8-0.8-1-1.4c-0.2-0.4-0.3-0.7-0.3-0.9
				c0-1,0.1-1.6,0.2-1.9c0.4-0.6,1.4-0.8,2.9-0.5c0-0.2,0-0.4,0.1-0.5c0,0,0-0.1,0-0.1c-0.1-0.2-0.2-0.4-0.2-0.7
				c-0.1-0.3-0.1-0.7-0.1-1.1c-0.2-0.3-0.3-0.8-0.4-1.3c-0.1-0.7-0.1-1.2,0-1.6C191.5,293.2,191.6,292.8,191.7,292.5z M189.3,291.7
				C189.3,291.7,189.3,291.7,189.3,291.7c0.3,0.4,0.9,0.7,1.7,0.8c0.1,0.3,0.1,0.6,0.1,1c0,0.7-0.1,1.3-0.2,1.8
				c-0.4,0.2-0.7,0.4-1,0.5c-0.4-0.4-0.8-0.9-1-1.4c-0.2-0.4-0.3-0.7-0.3-0.9C188.5,292.5,188.8,291.9,189.3,291.7z M183.5,274.2
				c1.3,3.8,2,5.7,2,5.8c0,0.5,0,0.8-0.1,0.9h-0.1c0,0.1,0,0.2,0,0.3c-0.1,0.1-0.5,0.2-1,0.2c-0.4,0-0.7-0.1-1-0.4c0-2.5,0-5,0-7.4
				C183.4,273.8,183.5,274,183.5,274.2z M189.3,291.6c-0.1-0.1-0.3-0.1-0.5-0.1c-0.1,0-0.3,0-0.4,0c-0.1-0.2-0.2-0.4-0.3-0.6
				c-0.1-0.2-0.1-0.7-0.1-1.6c0-0.6,0.1-1.2,0.3-1.6c0.2-0.1,0.4-0.1,0.5-0.2c-0.4-0.2-0.6-0.5-0.7-0.8c-0.1-0.2-0.1-0.5-0.1-1.1
				c0-1.3,0.4-1.9,1.3-1.8c0.8,0.1,1.3,0.7,1.3,1.9c0,0.2,0,0.4,0,0.6c0,0.2-0.1,0.5-0.1,0.7c0,0,0.1,0.1,0.1,0.2v1.8
				c-0.9,0.3-1.4,0.9-1.4,1.8C189.2,291.1,189.2,291.4,189.3,291.6z M187.8,313.8c0,0,0,0.1,0.2,0.1c0.1,0,0.1,0.3,0.1,0.8
				c0,0.2-0.2,0.4-0.5,0.8c0,0.1,0,0.3,0,0.3c0,1.7-0.1,3-0.2,4c-0.4,0.2-0.7,0.4-1,0.5c-0.6-0.3-1-1.1-1.1-2.3c0-0.1,0-0.2-0.1-0.3
				c0,0.2-0.1,0.4-0.1,0.6c-0.5,1.8-0.9,3.3-1.1,4.5c0,0-0.1,0.1-0.1,0.1c0-2.7,0-5.5,0-8.5c0-0.1,0-0.1,0-0.1
				c0.3-0.3,0.7-0.4,1.4-0.5c0.2-1.5,0.5-2.3,1.1-2.3c0.6,0,1,0.8,1.2,2.4C187.6,313.8,187.7,313.8,187.8,313.8z M191.5,318.2
				c0.1,0,0.1,0.3,0.1,0.8c0,0.3-0.3,0.8-0.9,1.5c-0.5,0.6-1,1.1-1.4,1.3c-0.6-0.2-1-0.5-1.1-1c-0.1-0.2-0.1-0.5-0.1-1.1
				c0-0.9,0.1-1.4,0.2-1.5c0.4-0.3,1.4-0.3,3-0.1C191.3,318.1,191.3,318.2,191.5,318.2z M190.7,325.3c0.2-0.3,0.4-0.5,0.6-0.5
				c0.1,0,0.2,0,0.3,0c0,0,0-0.1,0-0.1c0-0.5,0.2-0.8,0.6-1c-0.3-0.3-0.5-0.7-0.6-1.3c-0.1-0.6-0.1-1.1,0-1.5c0-1.9,0.4-2.8,1.3-2.7
				c0,0.9,0,1.7,0,2.5c0.1,1.7,0.2,3.6,0.3,5.5c-0.3-0.1-0.6-0.3-0.9-0.4c0,0.1,0,0.1,0,0.2C191.9,325.8,191.3,325.5,190.7,325.3z
				 M183.5,295c0.1,0,0.2,0,0.3,0c0.7,0,1.2-0.2,1.6-0.6c0.3-0.4,0.5-0.8,0.5-1.4c0-0.9-0.5-1.9-1.5-3c0.1,0,0.2,0,0.3,0
				c0.2,0,0.4,0,0.6,0c-0.4-0.1-0.7-0.2-0.9-0.5c-0.1-0.1-0.2-0.3-0.3-0.5c-0.1,0.1-0.1,0.3-0.3,0.5c-0.2-0.2-0.4-0.5-0.6-0.6
				c0-0.6,0-1.1,0-1.7c0.1,0,0.2,0.1,0.3,0.1c0.1,0,0.2,0,0.3,0c0-0.3,0-0.6,0-1c0-1,0.1-1.6,0.2-1.7c0.3-0.4,1.1-0.4,2.5-0.2
				c0.1,0.3,0.2,0.7,0.2,1.3c0,0.3,0,0.6,0,0.9c0,0,0,0.1,0,0.1v0c0,0,0,0.1,0,0.2c0,1-0.1,1.8-0.2,2.5c0,0.1,0,0.2,0,0.3
				c-0.1,0.1-0.3,0.2-0.7,0.3c0.1,0.9,0.4,2.2,1,3.9c0.2,0.5,0.3,0.9,0.5,1.3c0.2,0.2,0.4,0.3,0.5,0.5v4.5c0.3,1.7,0.5,3.3,0.5,4.8
				c0,0.5,0,0.8-0.1,0.9h-0.1l-0.1,0.2c0,0-0.1,0.1-0.2,0.1c0.4,0.3,0.6,0.7,0.8,1.2c0.2,1.1,0.5,1.9,0.7,2.5l-0.3,0.4
				c-0.2,0.2-0.5,0.3-1,0.3c-0.9,0-1.5-0.5-2-1.5c-0.1-0.5-0.2-0.9-0.3-1.4c-0.1,0-0.2,0-0.3,0c-1,0-1.6-0.4-1.8-1.2
				c-0.1-0.4-0.1-0.9,0-1.4l0-2c0.2,0,0.5,0,1-0.1c0.2,0,0.5,0,0.8,0c-0.1-0.5-0.2-1.1-0.3-1.8c-0.2-1.1-0.3-2.2-0.4-3.3
				c-0.1,0-0.3,0.1-0.4,0.1c-0.6-0.4-1-0.9-1.1-1.5c-0.1-0.2-0.1-0.7-0.1-1.5C183.5,295.1,183.5,295.1,183.5,295z M183.3,285.4
				c0-0.3,0-0.6,0-0.9c0.1,0.2,0.1,0.4,0.2,0.5L183.3,285.4z M184.3,309.2c0.2,0.4,0.3,1,0.3,2c-0.1,0.3-0.1,0.5-0.3,0.6
				c-0.1,0.2-0.3,0.3-0.5,0.3c0-1.2,0-2.5,0-3.8C184,308.7,184.2,309,184.3,309.2z M183.5,334.8c0-1.6,0.4-2.4,1.3-2.5
				c0.8-0.1,1.3,0.8,1.3,2.5c0,0.9-0.1,1.7-0.2,2.4c-0.4,0.2-0.7,0.3-1,0.4C184,336.8,183.5,335.8,183.5,334.8z"/>
			<path fill-rule="evenodd" clip-rule="evenodd" fill="#C2C2C9" d="M183.5,97.1c0.4,0,0.7,0,1,0.1c1.2,0.2,1.9,0.9,1.9,2.1
				c0,0.7-0.3,1.2-1,1.5c-0.4,0.2-1.1,0.3-2.1,0.3c-0.6,0-1,0-1.5-0.1c-0.3,0-0.5-0.1-0.7-0.1c0-0.5-0.1-1-0.1-1.5
				c0-0.4-0.1-0.9-0.1-1.5c0,0,0.1-0.1,0.1-0.1c0.5-0.4,1.3-0.6,2.3-0.6C183.4,97.1,183.5,97.1,183.5,97.1z M191.4,93.9
				c0,0.1,0,0.3,0,0.4c0,0.4-0.1,0.8-0.3,1.1c-0.4,0.5-1,0.8-2,0.8c-1,0-1.6-0.2-2-0.5c-0.1-0.1-0.2-0.2-0.3-0.3
				c-0.1-0.1-0.1-0.4-0.1-0.9c0-0.5,0.1-0.9,0.3-1.1c0.1-0.2,0.3-0.4,0.4-0.5c0.4-0.3,1-0.4,1.7-0.4c0.3,0,0.6,0.1,0.8,0.2
				C190.8,92.6,191.3,93.1,191.4,93.9z M186,88.9c0.6-0.5,1.6-0.9,3-1.3c0.4-0.1,0.7-0.2,1-0.3c0.3-0.1,0.7-0.1,1-0.1
				c0,0.1,0,0.2,0,0.3c0.1,1.1,0.3,2.3,0.4,3.5c-0.2,0.1-0.5,0.3-0.8,0.4c-0.2,0.1-0.5,0.2-0.7,0.3c-0.9,0.3-1.6,0.5-2.2,0.5
				c-1.2,0-2-0.2-2.4-0.6c0-0.1-0.1-0.1-0.1-0.2c-0.1-0.1-0.1-0.4-0.1-0.9C185.2,89.8,185.5,89.3,186,88.9z M186.5,108.1
				c0.2,0.3,0.4,0.7,0.4,1.2c0,0.3-0.1,0.6-0.2,0.9c-0.2-0.2-0.4,0-0.5,0.5c-0.3,0.2-0.6,0.3-0.9,0.3c-0.2,0-0.5,0.1-0.8,0.1
				c-1.2,0-2-0.3-2.3-0.8v0c0-0.1,0-0.4,0-0.9c0-0.2,0-0.3,0-0.5c0.1-0.8,0.6-1.3,1.4-1.5c0.1,0,0.1,0,0.3-0.1c0.2,0,0.4,0,0.6,0
				C185.5,107.4,186.2,107.6,186.5,108.1z M188.8,116.1c-0.1,0-0.2,0-0.3,0c-0.9,0-1.5-0.3-1.8-1c-0.1-0.3-0.2-0.7-0.2-1.1
				c0-0.8,0.4-1.4,1.1-1.9c0.3-0.2,0.8-0.4,1.3-0.5c1.6-0.3,2.3,0.2,2.3,1.7c0,0.4-0.3,1-1,1.7C189.8,115.6,189.3,116,188.8,116.1z
				 M181.5,107c-0.1-1.5-0.2-2.9-0.3-4.1c1.1,0.1,1.7,0.8,1.7,2.1C183,105.9,182.5,106.5,181.5,107z M192.5,124.3
				c0.2,0.3,0.3,0.8,0.3,1.5c0,0.4-0.1,0.7-0.3,1c-0.1,0.1-0.1,0.1-0.2,0.2c-0.3,0.4-0.5,0.8-0.5,1.2c0,1.2-0.8,1.8-2.3,1.9
				c-0.1,0-0.1,0-0.3,0c-1.3,0-2.1-0.3-2.5-1c-0.2-0.4-0.3-0.8-0.2-1.1c0-1.4,1.1-2.6,3.2-3.7c0.1,0,0.1-0.1,0.2-0.1
				C191.3,123.6,192.1,123.6,192.5,124.3z M192.8,150.3c0,0.9-0.7,1.6-2.1,2.3c0.2,0,0.3,0.1,0.5,0.1c0.6,0.2,1.2,0.4,1.6,0.6
				c0.3,0.1,0.5,0.3,0.7,0.4c0,0.4,0,0.9,0,1.3c0,0.5,0.1,1.1,0.1,1.6c-0.1,0.1-0.2,0.1-0.3,0.1c-0.1,0-0.3,0.1-0.4,0.2
				c-0.4,0-0.8,0-1.4,0c-1.4,0-2.3-0.4-3-1.3v0c-0.3-0.5-0.5-1-0.5-1.6c0-0.5,0.1-0.9,0.4-1.1c-0.2-0.1-0.4-0.1-0.5-0.2
				c-0.6-0.3-0.9-0.8-0.9-1.5c0-1.1,0.5-1.9,1.6-2.4c0.3-0.2,0.7-0.3,1.1-0.5c-0.1-0.6-0.2-0.9-0.2-0.9c0-1.4,0.9-2.3,2.6-2.8
				c0,0,0.1,0,0.1,0c0.4-0.1,0.7-0.1,1-0.1c0,1.2,0.1,2.4,0.1,3.8c-0.2,0.2-0.5,0.4-0.8,0.6C192.8,149.1,192.8,149.6,192.8,150.3
				L192.8,150.3z M188.6,162c0.7,0.7,1.3,1.9,1.8,3.5l-0.3,1.4l0,0l-0.3,0.3c-0.3,0.2-0.7,0.3-1.2,0.3c-0.4,0-0.8-0.1-1.1-0.3
				c-0.5-0.3-0.9-0.8-1.1-1.5l-0.3-1.7c0-0.2,0-0.5,0.1-0.7c0,0,0-0.1,0-0.1c0-0.8,0.2-1.3,0.4-1.6c0.3-0.4,0.7-0.4,1.3-0.1
				C188.1,161.6,188.4,161.8,188.6,162z M186.3,141.4c0.7,0.3,1.1,0.9,1.1,1.8c0,0.2-0.3,0.6-0.8,1c-0.3,0.2-0.6,0.5-1,0.8
				c-0.2,0.1-0.4,0.3-0.5,0.4c-0.5,0.3-0.9,0.5-1.3,0.8c0-1.7-0.1-3.4-0.1-5.1c0.1,0,0.2,0,0.3,0C184.8,141,185.7,141.1,186.3,141.4
				z M188.4,183c-1.2-0.1-1.8-0.7-1.8-1.7c0-0.8,1-1.7,2.9-2.8c0.2-0.2,0.5-0.3,0.8-0.5c0.9-0.5,1.6-0.7,2.2-0.7
				c0.9,0,1.4,0.6,1.4,1.9c0,0.6-0.4,1.2-1.1,1.8c-0.3,0.2-0.6,0.4-0.9,0.7c-1.3,0.9-2.3,1.3-3,1.3C188.7,183,188.5,183,188.4,183z
				 M184,176.3c0.4,0.1,0.6,0.4,0.8,0.8c0.1,0.3,0.1,0.7,0.1,1.1c0,0.7-0.3,1.4-0.9,2C184,178.8,184,177.5,184,176.3z M190.3,183.3
				c1,0.1,1.5,0.8,1.5,1.9c0,0.5-0.2,1-0.5,1.3c-0.2,0.2-0.5,0.3-0.8,0.5c-0.2,0-0.3,0-0.5,0c-1.3,0-2-0.6-2-1.7c0-1.3,0.6-2,1.9-2
				C190.1,183.3,190.3,183.3,190.3,183.3z M192,190.7c0.9,0.1,1.3,0.7,1.3,2c0,1-0.6,1.8-1.7,2.5c0,0-0.1,0-0.1,0
				c-0.7,0.4-1.2,0.7-1.6,0.8c-0.1,0-0.1,0-0.2,0c-1,0-1.7-0.3-2-1c-0.1-0.7-0.2-1-0.2-1c0-1.3,0.9-2.3,2.8-3c0,0,0.1,0,0.1,0
				C191.1,190.8,191.6,190.7,192,190.7z M183.8,207.5c0.6,0.1,0.9,0.5,1,1.3c0,0.2,0,0.3,0,0.5c0,0.6-0.4,1.3-1.1,2
				C183.8,210,183.8,208.7,183.8,207.5z M184.8,189.3c0.7,0.3,1.1,0.9,1.1,2c0,0.2-0.1,0.6-0.3,1c-0.1,0.1-0.2,0.3-0.3,0.5
				c-0.1,0.2-0.2,0.5-0.3,0.6c-0.2,0.4-0.3,0.7-0.3,0.9c0,0.4-0.1,0.7-0.3,1c-0.1,0.1-0.2,0.3-0.3,0.3c-0.1,0.1-0.3,0.2-0.3,0.3
				c0-2.3,0-4.5,0-6.6C184.3,189.2,184.5,189.2,184.8,189.3z M193.3,202.5c-0.1-0.7-0.2-1-0.2-1c0-0.4,0.3-1,1-1.6
				c0,1.1,0,2.3,0,3.5C193.7,203.1,193.4,202.9,193.3,202.5z M192.8,217.1c0,0,0,0.1,0,0.2c0,0.5-0.4,1.2-1.3,2
				c-0.9,0.8-1.5,1.3-2,1.3c-1.3,0-2-0.6-2-1.8c0-0.1,0-0.3,0.1-0.4c0.1-1,0.9-1.9,2.4-2.5c0.1,0,0.1-0.1,0.2-0.1
				c0.3-0.1,0.6-0.2,0.8-0.3C192.2,215.3,192.8,215.8,192.8,217.1z M193.8,222c-0.1-0.3-0.2-0.5-0.2-0.8c0-0.4,0.1-0.7,0.2-1
				C193.8,220.8,193.8,221.3,193.8,222z M190.8,234c0.2-0.1,0.5-0.1,0.8-0.1c1.2-0.1,1.8,0.6,1.8,2.2c0,0.8-0.1,1.4-0.3,1.8
				c-0.3,0.5-0.8,0.7-1.5,0.7c-1.1,0-1.8-0.3-2-1c0-0.8,0-1.2,0-1.3c0-0.8,0.2-1.4,0.6-1.8C190.3,234.3,190.5,234.2,190.8,234z
				 M186,247c-0.1-0.1-0.2-0.2-0.3-0.3c-0.1-0.2-0.1-0.5-0.1-1c0-0.6,0.3-1.2,0.9-1.8c0.5-0.5,1.3-1,2.3-1.3c1.1-0.5,2-0.6,2.5-0.2
				c0.1,0.1,0.2,0.3,0.3,0.3c0.2,0.3,0.3,0.8,0.3,1.4c0,0.9-0.6,1.7-1.9,2.5c-0.5,0.3-1,0.5-1.4,0.7c-0.3,0.1-0.6,0.1-0.9,0.1
				c-0.3,0-0.6,0-0.8,0C186.5,247.4,186.3,247.3,186,247z M188.9,250.2c0,0.2,0,0.3,0,0.5c0,0.6-1.1,3.2-3.4,7.8
				c-0.2,0.5-0.5,1-0.8,1.5c-0.2,0.5-0.5,1-0.8,1.5c-0.3,0-0.6,0-0.8-0.1c0-2.7,0-5.3,0-7.9c0.2-0.5,0.5-1,0.8-1.5
				c0.4-0.6,0.9-1.3,1.5-1.8c0.3-0.4,0.7-0.7,1-0.9c0.5-0.4,0.9-0.6,1.3-0.5C188.5,248.8,188.8,249.3,188.9,250.2z M188.8,255.9
				c-0.1-0.6-0.1-0.9-0.1-1c0-1,0.6-1.7,1.8-2.2c0.5-0.2,1.1-0.4,1.9-0.5c0.2,0,0.4,0,0.7,0c0.3,0,0.6,0,0.8,0c0,1.2,0.1,2.5,0.1,4
				c-1.1,0.5-2,0.8-2.8,0.8c-0.1,0-0.1,0-0.2,0c-1,0-1.7-0.3-2-1C188.8,256,188.8,255.9,188.8,255.9z M194.2,270.5
				c0,1.9,0,3.6-0.1,5.3c0,0.1,0,0.3,0,0.4c0,0.6,0,1.1,0,1.7c0,0,0,0.1,0,0.1c-0.7,0-1.2-0.2-1.6-0.5c-0.3-0.3-0.6-0.6-0.7-1
				c-0.1-0.7-0.1-1.1-0.1-1.4c0-0.2,0-0.3,0-0.3c0-1.1,0.5-2.3,1.6-3.5C193.5,271,193.8,270.8,194.2,270.5z M193,279.4
				c0.2-0.7,0.6-1,1.1-1c0,2.4,0,4.5-0.1,6.4c-0.5-0.2-0.9-0.6-1.1-1.3c0-0.1-0.1-0.2-0.1-0.3c-0.1-1.1-0.1-1.7-0.1-1.8v0
				C192.7,280.6,192.8,279.9,193,279.4z M191.7,292.5c-0.3,0-0.5-0.1-0.7-0.1c-0.8-0.1-1.4-0.4-1.7-0.7c0,0,0-0.1,0-0.1v-0.1
				c-0.1-0.2-0.1-0.5-0.1-0.8c0-0.9,0.5-1.5,1.4-1.8c0.5-0.2,1.2-0.3,2-0.3c0.5,0,0.9,0,1.3,0c-0.1,1.5-0.1,2.8-0.3,3.8
				c-0.3,0-0.7,0-1,0C192.2,292.5,191.9,292.5,191.7,292.5z M192.9,306.2c0,0.6-0.1,1.1-0.1,1.7c0,0.8,0,1.5,0,2.3l-0.5-0.1
				c-0.1-0.4-0.1-1.1-0.1-1.9C192.2,307.3,192.4,306.7,192.9,306.2z M190.7,325.3c0.7,0.2,1.2,0.5,1.6,0.8c0.4,0.3,0.7,0.6,0.9,0.9
				c0,0.5,0,1,0,1.5c-0.1,0.2-0.3,0.4-0.5,0.5c-0.1,0.1-0.1,0.1-0.3,0.2c-0.3,0.2-0.6,0.3-1,0.3c-0.5,0-1,0-1.5-0.1
				c-0.8-0.2-1.5-0.5-2.1-1c-0.5-0.4-0.8-0.7-1-1c-0.2-0.3-0.3-0.6-0.3-0.9c0-0.9,0.3-1.4,0.9-1.6c0.6-0.2,1.4-0.2,2.5,0.2
				C190.3,325.2,190.5,325.2,190.7,325.3z M184,289.5c0.1,0.2,0.3,0.3,0.4,0.5c1,1.1,1.5,2.2,1.5,3c0,0.5-0.2,1-0.5,1.4
				c-0.4,0.4-0.9,0.6-1.6,0.6c-0.1,0-0.2,0-0.3,0c0-1.3-0.1-2.6-0.1-3.9c0-0.4,0-0.8,0-1.2c0-0.1,0-0.2,0-0.3c0,0,0-0.1,0-0.1
				c0-0.2,0-0.5,0-0.7C183.6,289.1,183.8,289.3,184,289.5z M191.9,314.5c0,1.7-0.6,2.5-1.9,2.5c-1,0-1.6-0.4-1.8-1.1
				c0-0.8,0-1.3,0-1.4c0-1.9,0.6-2.8,1.9-2.8C191.3,311.8,191.9,312.7,191.9,314.5z M184.3,331.3c-0.2,0.1-0.4,0.2-0.7,0.2
				c0-1.9,0.1-3.9,0.1-6c0.3,1.1,0.7,2.5,1.2,4.1l-0.3,1.4L184.3,331.3L184.3,331.3z"/>
			<path fill-rule="evenodd" clip-rule="evenodd" fill="#E8E8F4" d="M194.2,172c0,0.7,0,1.3,0,1.9c0,1.1,0,2.7,0,4.8
				c-0.4-0.4-0.7-0.8-1-1.4c-0.2-0.4-0.3-0.7-0.3-1c0-0.9,0.3-2.1,0.9-3.6C194,172.4,194.1,172.1,194.2,172z M190.5,187
				c0,1.6,0,3-0.1,4c-1.9,0.7-2.8,1.7-2.8,3c0,0,0.1,0.4,0.2,1c0.3,0.7,1,1,2,1c0,0,0.1,0,0.2,0c0.1,1.8,0.1,2.8,0.1,3
				c0,0.7-0.1,1.3-0.2,1.8c-0.3,0.2-0.6,0.4-0.9,0.5c-0.1,0.4-0.2,0.9-0.4,1.5c-0.4,1.5-0.6,2.7-0.7,3.4c-0.1,0.1-0.3,0.1-0.3,0.1
				c-0.1,0.6-0.5,1.4-1,2.4l-0.8,0.3c-0.4-0.1-0.6-0.3-0.8-0.5h-0.1c0,0.1,0,0.2,0,0.3c-0.1-0.7-0.4-1.1-1-1.3c0-0.7,0-1.3,0-2
				c0-0.3,0-0.5,0-0.8c0-0.2,0-0.4,0-0.6c0-0.1,0-0.1,0-0.2c0.3,0.9,0.6,1.6,0.8,2.2c0-0.4,0.1-0.7,0.2-0.8c0.2-0.3,0.5-0.5,0.8-0.5
				c0-0.3,0-0.7,0-1.2c0-1.5,0.1-2.4,0.2-2.8c0.3-0.5,1-1,2.1-1.6c-0.2-0.5-0.3-1.1-0.5-1.7c-0.2,0.5-0.3,0.9-0.3,1.3
				c-0.1,0-0.3,0.1-0.5,0.3c-0.3,0.2-0.6,0.3-0.8,0.4c-0.6-0.4-1-0.9-1.1-1.5c-0.1-0.2-0.1-0.8-0.1-1.6l0-1c0.2-0.3,0.3-0.6,0.3-1
				c0-0.2,0.1-0.5,0.3-0.9c0.3,0,0.6,0.1,0.9,0.1c-0.1-0.4-0.3-0.8-0.4-1.2c0.2-0.5,0.3-0.8,0.3-1c0-1-0.4-1.7-1.1-2
				c-0.1-0.6-0.2-1-0.2-1.2c0-0.3,0-0.5,0-0.5c-0.1,0.1-0.3,0.1-0.4,0.2c-0.1,0-0.1,0.1-0.2,0.1c0-2.7,0-5.1,0-7.3
				c1.1-1.3,1.6-0.9,1.6,1c0,0.9-0.4,2.3-1.1,4.1c0.1,0,0.3,0.1,0.3,0.1c0,0,0,0.1,0.2,0.1c0.1,0,0.1,0.3,0.1,0.8
				c0,0.2,0,0.4-0.1,0.5c1.3,0,2.4,0.5,3.2,1.5c0-0.5,0-1.1,0-1.8c0-1.7,0.1-2.9,0.4-3.7c0.1,0,0.3,0,0.4,0c0.7,0,1.7-0.4,3-1.3
				c0.3-0.2,0.6-0.5,0.9-0.7c0.3,0.3,0.6,0.7,0.8,1.3c-0.1,0.3-0.1,0.6-0.3,0.7c-0.1,0.3-0.5,0.5-1,0.5c-0.7,0-1.4-0.2-2-0.6
				c0,0.1,0.1,0.3,0.1,0.4c-0.1,0-0.2,0-0.3,0c-1.3,0-1.9,0.7-1.9,2c0,1.1,0.7,1.7,2,1.7C190.2,187,190.4,187,190.5,187z M186,215.8
				c-0.3,0.5-0.5,1-0.5,1.3c0,1,0.3,2.4,1,4.4c0.2,0.6,0.4,1.1,0.5,1.5c0-1.4,0.4-2,1.3-2c0.8,0,1.3,0.7,1.3,2
				c0,0.7-0.1,1.3-0.2,1.8c-0.4,0.2-0.7,0.4-1,0.5c-0.3-0.3-0.6-0.6-0.8-1l0,0.2c0,0.5,0,0.8-0.1,0.9h-0.1l-0.1,0.2
				c-0.1,0.1-0.3,0.1-0.7,0.2v4c0.3,1.7,0.5,3.3,0.5,4.8c0,0.5,0,0.8-0.1,0.9h-0.1l-0.1,0.2c0,0-0.1,0.1-0.2,0.2
				c0.4,0.3,0.6,0.7,0.8,1.2c0.2,1.1,0.5,1.9,0.7,2.5l-0.3,0.3c-0.2,0.2-0.5,0.3-1,0.3c-0.9,0-1.5-0.5-2-1.4
				c-0.1-0.5-0.2-0.9-0.3-1.4c-0.1,0-0.2,0-0.3,0c-0.4,0-0.7-0.1-1-0.2c0-0.6,0-1.1,0-1.7c0-1,0.1-1.9,0.1-2.7
				c0.1,0,0.1-0.1,0.2-0.1c0.2,0,0.5,0,0.8,0c-0.1-0.5-0.2-1.1-0.3-1.8c-0.2-1.1-0.3-2.2-0.4-3.3c-0.1,0-0.1,0-0.2,0
				c0,0,0-0.1,0-0.1c0-1.9,0.1-3.8,0.2-5.6c0,0,0.1,0,0.1,0c-0.1-0.1-0.1-0.3-0.1-0.5c0-2.6,0.1-5.2,0.1-7.7c0.2,0,0.4,0,0.6,0
				c0.3-0.2,0.6-0.3,1-0.5c0.2,0.1,0.5,0.2,0.9,0.2c0.3,0.1,0.4,0.4,0.4,0.9C186.5,214.8,186.4,215.3,186,215.8z M192.5,329.3
				c0,0.2,0,0.3,0,0.5c0,1.8-0.1,3.3-0.2,4.5c-0.3,0.1-0.5,0.2-0.8,0.3c0.1,0.4,0.2,0.7,0.3,1.1c0,0.3,0,0.6,0,1
				c-0.2,0.3-0.4,0.5-0.6,0.8c-0.5,0.8-1.1,1.6-1.7,2.5h-1c-0.3,0-0.5-0.1-0.8-0.2c-0.1,0-0.2-0.1-0.3-0.2c-0.3-0.2-0.6-0.4-0.9-0.6
				l0-2.7c0.5,0,1,0,1.4,0.1c-0.9-2.9-1.4-4.7-1.4-5.4c0-0.3,0-0.5,0-0.5c-0.1,0.1-0.3,0.1-0.4,0.2c-1.2,0.4-1.8,0.6-1.9,0.6h0v0
				l0.4-0.3l0.3-1.4c-0.5-1.6-0.9-3-1.2-4.1c0-0.6,0-1.2,0-1.8c0.2-1.3,0.5-2,1.1-1.9c0.5,0.1,0.9,0.6,1,1.7c1.1-1.4,1.7-1.1,1.7,1
				c0,0.1,0,0.3,0,0.4c-0.6,0.2-0.9,0.8-0.9,1.6c0,0.3,0.1,0.5,0.3,0.9c-0.1,0.4-0.3,0.8-0.5,1.2c0.1,0,0.3,0.1,0.3,0.1
				c0,0,0,0.1,0.2,0.1c0.1,0,0.1,0.3,0.1,0.8c0,0.2,0,0.4-0.1,0.5c1.3,0,2.4,0.5,3.2,1.5c0-0.5,0-1.1,0-1.8c0-0.1,0-0.2,0-0.3
				c0.5,0.1,1,0.1,1.5,0.1C191.9,329.5,192.3,329.5,192.5,329.3z"/>
		</g>
	</g>
	<g>
		<path fill-rule="evenodd" clip-rule="evenodd" fill="#FFFFFF" d="M170.5,72.7l0.1,0.9c0.5,0.7,1.7,1.1,3.6,1.1
			c0.5,0,0.9-0.1,1.1-0.4c0.2-0.2,0.4-0.5,0.7-1.1c-2.2-1.1-3.5-1.6-3.9-1.8C171,71.2,170.5,71.6,170.5,72.7z M184,73.1
			c-0.1,0.3-0.1,0.6-0.1,1c0.1,1,0.1,1.6,0.1,1.9l0.4,0.1c0.3,0.1,0.8,0.1,1.3,0.1c0.1,0,0.1,0,0.2,0c0.1,0.4,0.1,0.9,0.1,1.3
			c0,0.5-0.2,1-0.6,1.4c-0.4,0.3-0.8,0.5-1.3,0.5c-0.8,0-1.7-0.6-2.7-1.9c0,0.1,0,0.3,0,0.5c0,0.1,0,0.1,0,0.2c0,0.1,0,0.2,0,0.3
			c0,0.7-0.3,1.2-0.8,1.5c-0.4,0.3-0.9,0.4-1.3,0.4c-0.7,0-1.3-0.2-1.8-0.6c-2-0.2-3.6-0.6-5-1.4c-0.3-0.2-0.6-0.3-0.8-0.5
			c-0.2,0.3-0.5,0.5-0.9,0.7c-0.4,0.2-1.1,0.3-2.1,0.3c-1.6,0-2.6-0.3-3-1c-0.2-0.4-0.3-0.8-0.2-1.1c0-1.6,1-2.3,3.2-2
			c1,0.1,1.8,0.4,2.3,0.8c0.2-0.2,0.5-0.4,0.9-0.6c-0.3,0.1-0.5,0.5-0.7,1l0.1,0.8c0.3,0.3,0.5,0.4,0.5,0.5c0.2,0.1,0.6,0.1,1.2,0.1
			c0.5,0,0.9,0,1.2-0.1l0.4-0.2h0.1c0-0.1,0-0.4,0-0.9c0-0.5,0-0.8-0.1-0.8c-0.1,0-0.1-0.1-0.1-0.1c-1.3-0.3-2.1-0.3-2.5-0.1h-1
			c-0.9-0.2-1.5-0.5-1.8-1c-0.1-0.2-0.2-0.5-0.2-1.1c0-1.2,0.5-1.9,1.5-2.2c0-0.5,0.3-0.9,0.7-1.2c0,0,0,0.1,0,0.1
			c0,0.5,0.4,1.1,1.3,1.8c1.1,0.8,2.5,1.3,4.3,1.4c1.1,0.7,2.2,1,3.2,1c0.5,0,0.8-0.2,1-0.5c0.4,0,0.8,0,1.2,0
			c0.6,0,1.1-0.1,1.3-0.4C183.8,73,184,73,184,73.1z M179,74.3c-0.6-0.4-1.3-0.8-2-1.1c0,0.5-0.3,0.9-0.7,1.3
			c-0.3,0.3-0.6,0.4-0.9,0.5c0.2,0,0.5,0.1,0.8,0.1c0.3,0.1,0.5,0.1,0.8,0.2c0.3-1.1,1.1-1.3,2.2-0.7c0.1,0,0.1,0.1,0.3,0.1
			C179.3,74.5,179.2,74.3,179,74.3z"/>
	</g>
</g>
</svg>
