<?xml version="1.0" encoding="utf-8"?>
<!-- Generator: Adobe Illustrator 16.0.0, SVG Export Plug-In . SVG Version: 6.00 Build 0)  -->
<!DOCTYPE svg PUBLIC "-//W3C//DTD SVG 1.1//EN" "http://www.w3.org/Graphics/SVG/1.1/DTD/svg11.dtd">
<svg version="1.1" id="Layer_1" xmlns="http://www.w3.org/2000/svg" xmlns:xlink="http://www.w3.org/1999/xlink" x="0px" y="0px"
	 width="210px" height="350px" viewBox="0 0 210 350" enable-background="new 0 0 210 350" xml:space="preserve">
<g>
	<g>
		<g>
			<linearGradient id="SVGID_1_" gradientUnits="userSpaceOnUse" x1="308.1787" y1="12.6338" x2="178.0937" y2="88.3885">
				<stop  offset="0" style="stop-color:#C4CDD2"/>
				<stop  offset="0.2824" style="stop-color:#E4F1F9"/>
				<stop  offset="0.4235" style="stop-color:#A2A29A"/>
				<stop  offset="0.6" style="stop-color:#A5A79C"/>
				<stop  offset="0.7529" style="stop-color:#EBF1EF"/>
				<stop  offset="1" style="stop-color:#A0A2A3"/>
			</linearGradient>
			<polygon fill-rule="evenodd" clip-rule="evenodd" fill="url(#SVGID_1_)" points="166.9,92.7 167.7,90.5 167.8,90.4 192.3,82.5 
				191.3,84.7 			"/>
			<linearGradient id="SVGID_2_" gradientUnits="userSpaceOnUse" x1="50.981" y1="-35.3564" x2="147.8469" y2="123.6991">
				<stop  offset="0" style="stop-color:#C4CDD2"/>
				<stop  offset="0.2824" style="stop-color:#E4F1F9"/>
				<stop  offset="0.4235" style="stop-color:#A2A29A"/>
				<stop  offset="0.6" style="stop-color:#A5A79C"/>
				<stop  offset="0.7529" style="stop-color:#EBF1EF"/>
				<stop  offset="1" style="stop-color:#CBCFCE"/>
			</linearGradient>
			<polygon fill-rule="evenodd" clip-rule="evenodd" fill="url(#SVGID_2_)" points="167.8,90.4 22.5,32.3 47.6,24.5 192.3,82.4 
				192.3,82.5 			"/>
			<linearGradient id="SVGID_3_" gradientUnits="userSpaceOnUse" x1="21.4287" y1="33.1675" x2="167.31" y2="91.5392">
				<stop  offset="0" style="stop-color:#C4CDD2"/>
				<stop  offset="0.2824" style="stop-color:#E4F1F9"/>
				<stop  offset="0.4235" style="stop-color:#A2A29A"/>
				<stop  offset="0.6" style="stop-color:#A5A79C"/>
				<stop  offset="0.7529" style="stop-color:#EBF1EF"/>
				<stop  offset="1" style="stop-color:#CBCFCE"/>
			</linearGradient>
			<polygon fill-rule="evenodd" clip-rule="evenodd" fill="url(#SVGID_3_)" points="166.9,92.7 21.8,34.7 22.5,32.3 167.8,90.4 
				167.7,90.5 			"/>
		</g>
		<g>
			<polygon fill-rule="evenodd" clip-rule="evenodd" fill="#FFFFFF" fill-opacity="0.502" points="191.8,83 167.5,90.8 167.5,90.8 
				22.2,32.6 22.4,32.2 167.8,90.3 167.7,90.4 192,82.5 			"/>
		</g>
	</g>
	<g>
		<g>
			<path fill-rule="evenodd" clip-rule="evenodd" fill="#CBCDDA" d="M149.5,76.4c0.8,0.5,2,0.9,3.5,1.2c4.1,0.8,6.2,0.2,6.4-1.9
				c0.6,0,1.1-0.1,1.6-0.3c1.9,0.1,3.9,0.3,5.8,0.6c0.5,0.1,1,0.3,1.5,0.4c0.1,0,0.1,0,0.2,0c0.1,0,0.2,0.1,0.3,0.1
				c0.1,0.1,0.3,0.3,0.5,0.4c0.8,0.7,1.8,1,2.9,1c0.6,0,1.2-0.2,1.7-0.5c0.8,0.2,1.7,0.4,2.5,0.6c0.1,0.2,0.3,0.4,0.6,0.7
				c1,0.7,2.4,1.1,4.2,1.2c0.6,0,1.2,0,1.7-0.1c0.5,0.2,1,0.3,1.5,0.5c0.5,0.4,1.1,0.6,1.8,0.8l0.2,0.5l0,0.4
				c0.2,0.2,0.3,0.4,0.1,0.7l0.1,0l0.1,0.1l1,0.6l0.1,0l1.3,0.9h0l0,0.1l-0.2,0.8l-0.2,0.4l0,0.8l-0.2,0.8l0,0.1l-0.5,0.7l-0.4,0.5
				l-0.3,0.5l-0.6,0.9c-0.1,0-0.1,0-0.2,0c-0.2,0.1-0.4,0.1-0.6,0.2c-0.6,0.1-1.2,0.2-1.7,0.3c-0.1-0.1-0.2-0.1-0.3-0.1
				c-0.2,0-0.4,0.1-0.6,0.1c-0.1,0-0.2,0-0.5,0.1c-0.2,0-0.3,0-0.4,0c-0.1,0-0.3,0-0.4,0c-0.4,0.1-0.8,0.1-1.2,0.1
				c-0.3,0-0.6,0.1-0.9,0.1c-0.2,0-0.6,0-1,0h0v0c-0.1,0-0.3-0.1-0.4-0.1c-0.3,0-0.6,0-0.8,0c-0.6-0.1-1.2-0.1-1.7,0l-0.1,0
				c-0.3,0-0.6,0-0.9,0c0,0-0.1,0-0.1-0.1c-0.4,0-0.8,0-1.2,0c-0.4,0-0.8,0-1.2,0l-0.2-0.1c-0.6,0-1.1,0-1.6,0
				c-0.4-0.1-0.7-0.3-1-0.4c-0.3,0-0.5-0.1-0.8-0.2c-0.2,0-0.4-0.1-0.6-0.1c-0.1-0.1-0.3-0.1-0.6-0.2c-0.2-0.1-0.5-0.2-0.7-0.3
				c-0.5-0.1-1-0.3-1.5-0.5c-0.2-0.1-0.4-0.1-0.6-0.1c-0.2-0.1-0.4-0.2-0.6-0.3c-0.2,0-0.3-0.1-0.5-0.1c-0.3-0.1-0.7-0.2-1-0.4
				c-0.1,0-0.3-0.1-0.5-0.1c-0.3-0.1-0.6-0.2-1-0.3c-0.2-0.1-0.5-0.2-0.8-0.3c-0.6-0.2-1.3-0.4-2-0.6c-0.4-0.2-0.8-0.4-1.3-0.6
				c-0.1-0.1-0.3-0.1-0.6-0.1c-0.2-0.1-0.4-0.2-0.6-0.3c-0.1,0-0.2-0.1-0.3-0.1c-0.1,0-0.3-0.1-0.5-0.2c-0.3-0.1-0.5-0.2-0.8-0.3
				c-0.3-0.1-0.5-0.3-0.8-0.4c-0.4-0.2-0.8-0.3-1.3-0.5c-0.1-0.1-0.2-0.1-0.4-0.2c-0.7-0.3-1.4-0.6-2-0.9c-0.2-0.1-0.3-0.1-0.5-0.3
				c-0.2-0.1-0.5-0.1-0.7-0.1c-0.4-0.2-0.8-0.4-1.2-0.5c-0.1-0.1-0.3-0.1-0.5-0.3c-0.2-0.1-0.5-0.2-0.8-0.3l0-0.2
				c-0.1-0.1-0.3-0.1-0.5-0.2l0,0.1c-0.2-0.1-0.5-0.2-0.7-0.3c-0.3-0.1-0.6-0.3-0.9-0.4c-0.4-0.1-0.8-0.3-1.3-0.4
				c-1-0.4-1.9-0.9-2.9-1.3c0.1-0.1,0.1-0.2,0.2-0.3c0.2-0.3,0.4-0.6,0.6-0.9c0.1-0.1,0.1-0.1,0.2-0.3c0.1-0.1,0.1-0.3,0.2-0.4
				c0.3,0,0.7,0,1,0c0.8-0.1,1.4-0.4,2-0.8c0.3-0.2,0.5-0.5,0.7-0.8c0.1,0.2,0.3,0.3,0.5,0.4c0.6,0.4,1.4,0.6,2.5,0.5
				C148.7,76.6,149.2,76.5,149.5,76.4z M162.1,79.1c4.2,2.1,5.3,1.3,3.5-2.4c-1.3-0.7-2.6-0.5-3.7,0.4C160.9,78,161,78.6,162.1,79.1
				z M178.8,82.5c-0.6,0.9-0.5,1.5,0.4,1.9c4,1.5,4.7,0.6,2.1-2.7C180.3,81.3,179.4,81.6,178.8,82.5z"/>
			<path fill-rule="evenodd" clip-rule="evenodd" fill="#DDDDE7" d="M159.4,75.7c-0.1,2.1-2.3,2.7-6.4,1.9c-1.5-0.3-2.7-0.7-3.5-1.2
				c0.6-0.2,1.1-0.4,1.6-0.6c0.3-0.2,0.5-0.4,0.6-0.5c1.3,0,2.6-0.1,4-0.1c0.8,0.4,1.8,0.6,3,0.6C159,75.7,159.2,75.7,159.4,75.7z
				 M178.8,82.5c0.6-0.9,1.5-1.2,2.5-0.9c2.5,3.3,1.8,4.2-2.1,2.7C178.3,84,178.2,83.4,178.8,82.5z M162.1,79.1
				c-1.1-0.5-1.2-1.2-0.2-2c1.1-0.9,2.4-1.1,3.7-0.4C167.4,80.4,166.3,81.2,162.1,79.1z"/>
			<path fill-rule="evenodd" clip-rule="evenodd" fill="#CFD1DD" d="M141.5,77.3c-0.1,0.1-0.1,0.2-0.2,0.4c-0.1,0.1-0.1,0.2-0.2,0.3
				c-0.2,0.3-0.4,0.6-0.6,0.9c-0.1,0.1-0.1,0.2-0.2,0.3c-0.2-0.1-0.4-0.2-0.7-0.3c-0.4-0.1-0.8-0.3-1.2-0.4c-0.4-0.2-0.7-0.3-1-0.5
				c0.3-0.3,0.5-0.6,0.5-0.9v0c0.7-0.1,1.4-0.3,2.1-0.4c0,0.1,0.1,0.1,0.1,0.2C140.6,77,141,77.2,141.5,77.3z"/>
		</g>
	</g>
	<g>
		<g>
			<path fill-rule="evenodd" clip-rule="evenodd" fill="#E8E8F4" d="M189.2,91c0.5-0.3,1.1-0.6,1.8-0.9v1.2c0.1,0.1,0.2,0.2,0.3,0.4
				c0.1,0.3,0.2,0.8,0.2,1.3c0,0.7-0.1,1.3-0.2,1.8c-0.4,0.2-0.7,0.4-1,0.5c-0.4-0.4-0.8-0.9-1-1.4c-0.2-0.4-0.3-0.7-0.3-0.9
				c0-1.1,0.3-1.7,0.8-2C189.7,91.1,189.5,91,189.2,91C189.3,91,189.2,91,189.2,91z M195.5,107.7c-0.1,0-0.1,0-0.2,0
				c-1.4,0.1-2.3,0.5-2.8,1.3c0-0.1,0-0.1,0-0.2c-0.1,0-0.1,0-0.3,0c-1,0-1.6-0.4-1.8-1.3c0-0.1,0-0.1,0-0.2c0.2-0.3,0.4-0.6,0.4-1
				c0-0.4-0.1-0.8-0.2-1c0.1-0.6,0.4-0.9,0.9-0.9c0.4,0,0.7,0.3,1.1,0.8c0-0.4,0-0.7,0-0.9c0.1-0.8,0.4-1.5,0.8-2.1
				c-0.3-0.3-0.6-0.7-0.8-1.2c-0.1-0.1-0.1-0.3-0.1-0.4c0,0.1-0.1,0.1-0.1,0.2c-0.3,0.6-0.5,1.1-0.5,1.5c-0.1,0-0.3,0.1-0.5,0.3
				c-0.3,0.2-0.6,0.3-0.8,0.4c-0.4-0.4-0.8-0.8-1-1.4c-0.2-0.4-0.3-0.7-0.3-0.9c0-1,0.1-1.6,0.2-1.9c0.4-0.6,1.4-0.8,2.9-0.5
				c0-0.2,0-0.4,0.1-0.5c0,0,0-0.1,0-0.1c-0.1-0.2-0.2-0.4-0.2-0.7c-0.1-0.3-0.1-0.7-0.1-1.1c-0.2-0.3-0.3-0.8-0.4-1.3
				c-0.1-0.7-0.1-1.2,0-1.6c0-1.7,0.5-2.4,1.5-2.1c0.2,0,0.4,0.1,0.6,0.3c0-0.8,0-1.5,0.1-2h0.4c0.2,0.2,0.4,0.4,0.8,0.7
				c0.1-0.1,0.3-0.2,0.5-0.4c-0.1-0.1-0.2-0.2-0.3-0.3h0.6c0.1,0.1,0.1,0.3,0.1,0.4c0.1,0.9,0.2,1.8,0.3,2.7c0,0.1-0.1,0.2-0.1,0.3
				c0.1,0,0.1,0.3,0.1,0.8c0,0.1-0.2,0.4-0.5,1c-0.1,0.1-0.2,0.3-0.3,0.5c-0.4,0.6-0.5,1.3-0.3,2.1c0,0,0.1,0.2,0.1,0.4v0
				c0,0.1,0,0.2,0,0.4c0,0.4-0.1,1.1-0.3,2c-0.1,0.5-0.2,0.9-0.3,1.3c0.1,0,0.3,0.1,0.6,0.1c0.3,0.1,0.4,0.4,0.4,0.9
				c0,1.1-0.2,2.7-0.5,4.6C195.5,107.1,195.5,107.4,195.5,107.7z M189,104.5c-0.5-0.1-1.2-0.1-2-0.1c-0.4,0-0.8,0-1.1,0
				c0-0.6-0.1-1.2-0.1-1.7c0.2,0,0.3,0,0.5,0c-0.1-0.5-0.2-1.1-0.3-1.8c-0.1-0.8-0.2-1.6-0.3-2.4c0.2-1.4,0.7-3.2,1.6-5.4
				c0,0,0.1-0.1,0.1-0.1c0,0.1,0.1,0.3,0.1,0.4c0.2,0.5,0.3,0.9,0.5,1.3c0.2,0.2,0.4,0.4,0.5,0.6v4.5C188.9,101.5,189,103,189,104.5
				z M191.8,143.6c-0.4-0.2-0.9-0.3-1.5-0.3c-0.9,0-1.6,0.2-2,0.7c0-0.3,0-0.6,0-0.8c0.3-0.5,1-1,2-1.5c-0.2-0.5-0.3-1.1-0.5-1.7
				c-0.2,0.5-0.3,0.9-0.3,1.3c-0.1,0-0.3,0.1-0.5,0.3c-0.3,0.2-0.5,0.3-0.7,0.4c0-2-0.1-4-0.1-5.9c0.1,0,0.1,0,0.2,0
				c-0.1-0.2-0.1-0.5-0.2-0.6c0-1.9,0-3.8,0-5.6c0.9,0.2,1.7,0.6,2.4,1.4c0-0.5,0-1.1,0-1.9c0-3.2,0.4-4.8,1.3-4.9
				c0.1,0,0.2,0,0.3,0c0,0,0-0.1,0-0.1c0-0.1,0-0.1,0-0.2c0.5-0.1,1-0.3,1.6-0.4c0.5-0.2,0.9-0.4,1.2-0.6c0,0.1,0,0.1,0,0.2
				c0,0.1,0,0.1,0,0.2c0.5,0.3,0.9,0.8,1.2,1.5c-0.1,0.3-0.1,0.6-0.3,0.7c-0.1,0.3-0.5,0.5-1,0.5c-0.7,0-1.4-0.2-2-0.6
				c0.2,0.8,0.3,2.1,0.3,3.8c0,1.8-0.1,3.4-0.2,4.6c-0.3,0.1-0.5,0.2-0.8,0.3c0.1,0.4,0.2,0.7,0.3,1.1c0.2,3.9,0.3,6,0.3,6.3
				c0,0.7-0.1,1.3-0.2,1.8C192.2,143.4,192,143.5,191.8,143.6z M197.5,124.3c0-1.3,0.1-2.4,0.3-3v8c-0.2-0.1-0.3-0.2-0.4-0.2
				c-0.2-0.2-0.4-0.6-0.4-1.1c0-0.6,0.2-1,0.7-1.1c0-0.1,0-0.2,0-0.3C197.6,126.1,197.5,125.4,197.5,124.3z M188,124
				c0,0.3,0,0.7-0.1,1.1c-0.1-1-0.2-1.9-0.3-2.8C187.9,122.5,188,123,188,124z M188.5,157.4c0.2-0.2,0.4-0.5,0.5-0.7
				c0,0.1,0,0.1,0,0.3c0,0.4-0.2,0.9-0.5,1.4C188.5,158,188.5,157.7,188.5,157.4L188.5,157.4z M189,164c0.2,0.6,0.4,1.1,0.5,1.5
				c0-1.4,0.4-2,1.3-2c0.8,0,1.3,0.7,1.3,2c0,0.7-0.1,1.3-0.2,1.8c-0.4,0.2-0.7,0.4-1,0.5c-0.3-0.3-0.6-0.6-0.8-0.9l0,0.1
				c0,0.5,0,0.8-0.1,0.9h-0.1l-0.1,0.2c-0.1,0.1-0.3,0.1-0.7,0.1v4c0.3,1.7,0.5,3.3,0.5,4.8c0,0.5,0,0.8-0.1,0.9h-0.1l-0.1,0.2
				c0,0-0.1,0.1-0.2,0.1c0.4,0.3,0.6,0.7,0.8,1.2c0.2,1.1,0.5,1.9,0.7,2.5l-0.3,0.4c-0.2,0.2-0.5,0.3-1,0.3c-0.1,0-0.3,0-0.4-0.1
				c0-7.4-0.1-12.6-0.3-15.5c0-0.2,0-0.3,0-0.5c0-1.3-0.1-2.6-0.1-3.9C188.7,163,188.9,163.5,189,164z M198,287.5
				c0,0.5-0.1,1-0.1,1.5c-0.4-0.1-0.7-0.3-1.1-0.5c0,0.1,0.1,0.3,0.1,0.4c-0.1,0-0.2,0-0.3,0c-1.3,0-1.9,0.7-1.9,2
				c0,1.1,0.7,1.7,2,1.7c0.2,0,0.3,0,0.5,0c0,1.6,0,3-0.1,4c-1.9,0.7-2.8,1.7-2.8,3c0,0,0.1,0.4,0.2,1c0.3,0.7,1,1,2,1
				c0,0,0.1,0,0.2,0c0.1,1.8,0.1,2.8,0.1,3c0,0.7-0.1,1.3-0.2,1.8c-0.3,0.2-0.6,0.4-0.9,0.5c-0.1,0.4-0.2,0.9-0.4,1.5
				c-0.4,1.5-0.6,2.7-0.7,3.4c-0.1,0.1-0.3,0.1-0.3,0.1c-0.1,0.6-0.5,1.4-1,2.4l-0.8,0.3c-0.4-0.1-0.6-0.3-0.8-0.5h-0.1
				c0,0.1,0,0.2,0,0.3c-0.2-1.2-1.1-1.6-2.6-1.2c-0.2-0.5-0.4-1.1-0.6-1.8c-0.3-1-0.4-2-0.5-3c0-3.7,0.7-4.1,2-1
				c0.7,1.9,1.2,3.4,1.5,4.3c0-0.4,0.1-0.7,0.2-0.8c0.2-0.3,0.5-0.5,0.8-0.5c0-0.3,0-0.7,0-1.2c0-1.5,0.1-2.4,0.2-2.8
				c0.3-0.5,1-1,2.1-1.6c-0.2-0.5-0.3-1.1-0.5-1.7c-0.2,0.5-0.3,0.9-0.3,1.3c-0.1,0-0.3,0.1-0.5,0.3c-0.3,0.2-0.6,0.3-0.8,0.4
				c-0.6-0.4-1-0.9-1.1-1.5c-0.1-0.2-0.1-0.8-0.1-1.6l0-1c0.2-0.3,0.3-0.6,0.3-1c0-0.2,0.1-0.5,0.3-0.9c0.3,0,0.6,0.1,0.9,0.1
				c-0.1-0.4-0.3-0.8-0.4-1.2c0.2-0.5,0.3-0.8,0.3-1c0-1-0.4-1.7-1.1-2c-0.1-0.6-0.2-1-0.2-1.2c0-0.3,0-0.5,0-0.5
				c-0.1,0.1-0.3,0.1-0.4,0.2c-1.2,0.4-1.8,0.6-1.9,0.6c-0.5-0.2-0.8-0.3-0.9-0.4c-0.2-0.2-0.4-0.6-0.4-1.2s0.2-0.9,0.7-1.1
				c0-0.1,0-0.2,0-0.3c-0.1-0.3-0.1-1.1-0.1-2.3c0-0.5,0-0.9,0-1.3c0.4-0.2,0.7-0.4,1.1-0.6c0.4-0.3,0.8-0.5,1.1-0.8
				c0,0.1,0,0.1,0,0.2c1.1-1.4,1.7-1.1,1.7,1c0,0.9-0.4,2.3-1.1,4.1c0.1,0,0.3,0.1,0.3,0.1c0,0,0,0.1,0.2,0.1c0.1,0,0.1,0.3,0.1,0.8
				c0,0.2,0,0.4-0.1,0.5c1.3,0,2.4,0.5,3.2,1.5c0-0.5,0-1.1,0-1.8c0-1.7,0.1-2.9,0.4-3.7c0.1,0,0.3,0,0.4,0
				C196,288.5,196.8,288.2,198,287.5z M187.8,318.6c0.3,0.3,0.5,0.8,0.8,1.4c0.2,0.4,0.4,0.9,0.5,1.5c0,0.1,0,0.1,0,0.2
				c0-0.1,0-0.2,0-0.4c0-1,0.1-1.6,0.2-1.7c0.2-0.3,0.7-0.4,1.6-0.3c0.3-0.2,0.6-0.3,1-0.5c0.2,0.1,0.5,0.2,0.9,0.2
				c0.3,0.1,0.4,0.4,0.4,0.9c0,0.4-0.2,0.9-0.5,1.4c-0.3,0.5-0.5,1-0.5,1.3c0,1,0.3,2.4,1,4.4c0.2,0.6,0.4,1.1,0.5,1.5
				c0-1.4,0.4-2,1.3-2c0.8,0,1.3,0.7,1.3,2c0,0.7-0.1,1.3-0.2,1.8c-0.4,0.2-0.7,0.4-1,0.5c-0.3-0.3-0.6-0.6-0.8-1l0,0.2
				c0,0.5,0,0.8-0.1,0.9h-0.1l-0.1,0.2c-0.1,0.1-0.3,0.1-0.7,0.2v4c0.3,1.7,0.5,3.3,0.5,4.8c0,0.5,0,0.8-0.1,0.9h-0.1l-0.1,0.2
				c0,0-0.1,0.1-0.2,0.2c0.4,0.3,0.6,0.7,0.8,1.2h-4.3c-0.3-0.2-0.4-0.5-0.5-0.9c-0.1-0.4-0.1-0.9,0-1.4l0-2c0.2,0,0.5,0,1-0.1
				c0.2,0,0.5,0,0.8,0c-0.1-0.5-0.2-1.1-0.3-1.8c-0.2-1.1-0.3-2.2-0.4-3.3c-0.1,0-0.3,0.1-0.4,0.1c-0.4-0.2-0.8-0.6-1-1
				c0.1-0.2,0.1-0.5,0.1-0.8c0-0.6-0.1-1.1-0.4-1.4c0-1.2,0.1-1.9,0.2-2.1c0.2-0.4,0.7-0.6,1.5-0.5c-0.1-0.2-0.1-0.4-0.2-0.6
				c-0.2-0.7-0.3-1.5-0.3-2.3c-0.2-0.2-0.3-0.4-0.5-0.6c-0.1,0.1-0.2,0.3-0.3,0.5c-0.2,2.3-0.6,3.9-1.3,4.9c0,0-0.1-0.1-0.1-0.1
				c-0.1-2.2-0.1-5.8-0.1-10.6C187.6,318.7,187.7,318.7,187.8,318.6z"/>
			<path fill-rule="evenodd" clip-rule="evenodd" fill="#C2C2C9" d="M188.7,120.4c-0.4,0.1-0.8,0.2-1.2,0.3
				c-0.2-1.5-0.3-2.9-0.4-4.1c0.2-0.1,0.5-0.1,0.8-0.1c0.1,0,0.1,0,0.2,0c1.2,0,1.9,0.4,2.2,1.1c0.1,0.2,0.2,0.5,0.2,0.8
				c0,0.4-0.2,0.9-0.6,1.3C189.5,119.9,189.1,120.2,188.7,120.4z M186.8,108.5c-0.2,0-0.3,0-0.5,0.1c-0.2-1.6-0.3-3-0.4-4.2
				c0.3,0,0.7,0,1.1,0c0.8,0,1.5,0,2,0.1c0.6,0.1,1,0.3,1.4,0.5c0.1,0.1,0.2,0.2,0.3,0.3c0.1,0.2,0.2,0.6,0.2,1c0,0.4-0.1,0.7-0.4,1
				c-0.2,0.2-0.6,0.5-1,0.7c-0.2,0-0.3,0.1-0.5,0.1C188.4,108.3,187.6,108.5,186.8,108.5z M192.5,109c0.5-0.7,1.4-1.2,2.8-1.3
				c0,0,0.1,0,0.2,0c0,0,0.1,0,0.1,0c0.9,0,1.5,0.1,2,0.4c0.1,1.1,0.1,2.1,0.2,3c-0.1,0.1-0.2,0.2-0.3,0.3c-0.6,0.4-1.4,0.6-2.4,0.7
				c-0.3,0-0.6,0.1-1,0.1c-0.5,0-0.9-0.1-1.1-0.2c-0.3-0.1-0.5-0.3-0.6-0.6c-0.1-0.2-0.1-0.5-0.1-0.9
				C192.2,109.8,192.3,109.3,192.5,109z M192.1,119.9c0.1,0,0.1,0,0.2,0c1.3,0,2.1,0.2,2.6,0.6c0.1,0,0.1,0.1,0.1,0.1
				c0.2,0.3,0.4,0.7,0.4,1.2c0,0.4-0.2,0.8-0.6,1.2c-0.3,0.2-0.7,0.4-1.2,0.6c-0.5,0.2-1.1,0.4-1.6,0.4c-0.4,0-0.7,0.1-1,0.1
				c-1.2,0-2-0.3-2.3-0.8c0-0.1,0-0.4,0-0.9c0-0.6,0.1-1,0.4-1.4c0.4-0.5,1.1-0.9,2-1C191.5,119.9,191.8,119.9,192.1,119.9z
				 M192,146.9c0,0-0.1,0.1-0.1,0.1c-0.4,0.3-0.9,0.5-1.4,0.6c-0.2,0-0.3,0-0.5,0c-0.7,0-1.3-0.1-1.6-0.3c0-1.1,0-2.2-0.1-3.3
				c0.4-0.5,1.1-0.7,2-0.7c0.6,0,1.1,0.1,1.5,0.3c0.1,0.1,0.3,0.1,0.4,0.3c0.4,0.3,0.7,0.8,0.7,1.4
				C192.9,145.9,192.6,146.4,192,146.9z M192.5,151.4c0.9,0,1.4,0.7,1.5,2c0,0.1,0,0.1,0,0.3c0,0.9-0.2,1.5-0.5,1.9
				c-0.1,0.1-0.2,0.2-0.3,0.3c-0.3,0.2-0.6,0.3-1,0.3c-1,0-1.6-0.4-1.8-1.1c-0.1-0.4-0.2-0.8,0-1.2c0-1.5,0.6-2.3,1.9-2.4
				C192.2,151.4,192.3,151.4,192.5,151.4z M195.8,168.6c0.7,0.4,1.1,1.4,1.1,3.1c0,0.9-0.4,1.4-1.3,1.7c-0.4,0.1-0.8,0.1-1.3,0.1
				c-0.4,0-0.7,0-1-0.1c-0.1,0-0.2-0.1-0.3-0.1c-0.6-0.2-1-0.5-1.2-0.9c-0.2-0.4-0.2-0.8-0.1-1.1c0-0.3,0-0.5,0.1-0.8
				c0.2-0.7,0.6-1.3,1.3-1.7c0.3-0.2,0.8-0.4,1.3-0.5C194.9,168.4,195.5,168.4,195.8,168.6z M195.5,160.5c1.6,0.3,2.4,1,2.4,2.1
				c0,1.2-0.6,1.8-1.9,2c-0.2,0-0.3,0-0.5,0c-0.2,0-0.3,0-0.5,0c-0.9-0.1-1.5-0.4-1.8-1c0,0,0-0.1,0-0.1c-0.1-0.3-0.2-0.7-0.1-1
				C193.2,160.9,194,160.3,195.5,160.5z M189,156.6c-0.1,0.2-0.3,0.5-0.5,0.7c0-1.3,0-2.5,0-3.8c0.7,0.2,1,0.8,1,1.8
				C189.5,155.7,189.3,156.1,189,156.6z M198.5,193C198.5,193,198.5,193,198.5,193c0.3,0.2,0.5,0.3,0.6,0.5c0,0.7,0,1.4,0,2.2
				c-0.2,0.3-0.6,0.5-1,0.8c-0.3,0.1-0.6,0.3-0.9,0.4c-0.2,0.1-0.5,0.2-0.7,0.3c-0.9,0.3-1.6,0.4-2.2,0.4c-1.2,0-2-0.2-2.4-0.6
				c0-0.1-0.1-0.1-0.1-0.2c-0.1-0.1-0.1-0.5-0.1-1c0-0.5,0.3-1,0.9-1.4c0.6-0.5,1.6-0.9,3-1.3c0.4-0.1,0.7-0.2,1-0.3
				C197.4,192.7,198,192.8,198.5,193z M193.5,201.1c-0.1-0.1-0.2-0.2-0.3-0.3c-0.1-0.1-0.1-0.5-0.1-1c0-0.5,0.1-0.8,0.3-1.1
				c0.1-0.2,0.3-0.4,0.4-0.5c0.4-0.3,1-0.4,1.7-0.4c0.3,0,0.6,0.1,0.8,0.2c0.9,0.2,1.4,0.7,1.6,1.5c0,0.1,0,0.3,0,0.4
				c0,0.4-0.1,0.8-0.3,1c-0.4,0.5-1,0.8-2,0.8C194.6,201.6,193.9,201.4,193.5,201.1z M188.8,212c0-1.1,0-2.3,0-3.3
				c0.4,0.3,0.7,0.9,0.7,1.8C189.5,211.1,189.2,211.7,188.8,212z M191.8,216.5c-0.2,0-0.5,0-0.8,0c-1.2,0-2-0.3-2.3-0.8v0
				c0-0.1,0-0.4,0-0.9c0-0.2,0-0.3,0-0.5c0.1-0.8,0.6-1.3,1.4-1.5c0.1,0,0.1,0,0.3,0c0.2,0,0.4,0,0.6,0c0.9,0.1,1.6,0.3,2,0.8
				c0.2,0.3,0.4,0.7,0.4,1.2c0,0.3-0.1,0.6-0.2,0.9c-0.2-0.2-0.4,0-0.5,0.5C192.5,216.4,192.2,216.5,191.8,216.5z M195.3,221.6
				c-0.1,0-0.2,0-0.3,0c-0.9,0-1.5-0.3-1.8-1c-0.1-0.3-0.2-0.7-0.2-1.1c0-0.8,0.4-1.4,1.1-1.9c0.3-0.2,0.8-0.4,1.3-0.5
				c1.6-0.3,2.3,0.2,2.3,1.7c0,0.4-0.3,1-1,1.7C196.3,221.1,195.8,221.5,195.3,221.6z M188.8,202.8c0.3-0.1,0.7-0.1,1-0.1
				c0.1,0,0.1,0,0.2,0c0.4,0,0.7,0,1,0c1.2,0.2,1.9,0.9,1.9,2.1c0,0.7-0.3,1.2-1,1.5c-0.4,0.2-1.1,0.3-2.1,0.3c-0.4,0-0.7,0-1,0
				C188.8,205.3,188.8,204,188.8,202.8z M198.9,229.6c0,1-0.1,1.9-0.1,2.9c-0.3,0.4-0.5,0.8-0.5,1.2c0,1.2-0.8,1.8-2.3,1.9
				c-0.1,0-0.1,0-0.3,0c-1.3,0-2.1-0.3-2.5-1c-0.2-0.4-0.3-0.8-0.2-1.1c0-1.4,1.1-2.6,3.2-3.7c0.1,0,0.1-0.1,0.2-0.1
				C197.6,229.1,198.4,229.1,198.9,229.6z M191.5,251c-0.9,0.6-1.7,0.9-2.5,1c-0.2,0-0.3,0-0.5,0h0c-0.3,0-0.5,0-0.7,0
				c0-1.6,0-3.1,0.1-4.6l0,0c0.6-0.4,1.3-0.6,2.3-0.7c1-0.1,1.9,0,2.5,0.3c0.7,0.3,1.1,0.9,1.1,1.8c0,0.2-0.3,0.6-0.8,1
				c-0.3,0.2-0.6,0.5-1,0.8C191.8,250.7,191.7,250.8,191.5,251z M195.2,254.3c0.3-0.2,0.7-0.3,1.1-0.4c-0.1-0.6-0.2-0.9-0.2-1
				c0-1.4,0.9-2.3,2.6-2.8c0,0,0.1-0.1,0.1-0.1c0,1.3-0.1,2.6-0.1,3.9c0,1,0,2.1,0,3.3c-0.4,0.3-0.9,0.5-1.5,0.8
				c0.2,0,0.3,0.1,0.5,0.2c0.3,0.1,0.6,0.2,0.9,0.3c0,1.3-0.1,2.6-0.1,4c-0.2,0-0.3,0-0.5,0c-1.4,0-2.3-0.4-3-1.3v0
				c-0.3-0.5-0.5-1-0.5-1.6c0-0.5,0.1-0.9,0.4-1.1c-0.2-0.1-0.4-0.1-0.5-0.2c-0.6-0.3-0.9-0.8-0.9-1.5
				C193.6,255.7,194.1,254.9,195.2,254.3z M192.7,268.8C192.7,268.8,192.7,268.8,192.7,268.8c0-0.9,0.2-1.4,0.4-1.7
				c0.3-0.4,0.7-0.5,1.3-0.2c0.3,0.1,0.5,0.3,0.8,0.5c0.7,0.7,1.3,1.9,1.8,3.5l-0.3,1.4l0,0l-0.3,0.3c-0.3,0.2-0.7,0.3-1.2,0.3
				c-0.4,0-0.8-0.1-1.1-0.3c-0.5-0.3-0.9-0.8-1.1-1.5l-0.3-1.7C192.6,269.3,192.6,269.1,192.7,268.8z M190.3,285.8
				c-0.3,0.3-0.7,0.5-1.1,0.8c-0.4,0.2-0.7,0.4-1.1,0.6c-0.2,0.1-0.4,0.2-0.6,0.3c0-1.6,0-3.3,0-5v0c0.7-0.3,1.3-0.6,1.8-0.7
				c0.3-0.1,0.5-0.1,0.8-0.1c0.6,0,1,0.3,1.3,0.9c0.1,0.3,0.1,0.7,0.1,1.1C191.3,284.5,191,285.2,190.3,285.8z M194.9,288.5
				c-1.2-0.1-1.8-0.7-1.8-1.7c0-0.8,1-1.7,2.9-2.8c0.2-0.2,0.5-0.3,0.8-0.5c0.5-0.3,1-0.5,1.4-0.5c-0.1,1.5-0.1,3-0.2,4.5
				c-1.1,0.7-2,1-2.7,1C195.2,288.5,195,288.5,194.9,288.5z M191.1,300.7c-0.1,0.1-0.2,0.3-0.3,0.3c-0.3,0.3-0.7,0.5-1.2,0.5
				c-0.8,0-1.5-0.3-2-0.9c0-1.1,0-2.2,0-3.4c0-0.5,0-1.1,0-1.6c0.3-0.3,0.7-0.5,1.2-0.6c0.2-0.1,0.5-0.1,0.8-0.2
				c0.7-0.1,1.3-0.1,1.7,0c0.7,0.3,1.1,0.9,1.1,2c0,0.2-0.1,0.6-0.3,1c-0.1,0.1-0.2,0.3-0.3,0.5c-0.1,0.2-0.2,0.5-0.3,0.6
				c-0.2,0.4-0.3,0.7-0.3,0.9C191.3,300.1,191.3,300.4,191.1,300.7z M197,292.5c-0.2,0-0.3,0-0.5,0c-1.3,0-2-0.6-2-1.7
				c0-1.3,0.6-2,1.9-2c0.1,0,0.3,0,0.3,0c0.4,0.1,0.7,0.2,1,0.4c-0.1,1-0.1,1.9-0.2,2.9C197.5,292.3,197.3,292.4,197,292.5z
				 M196.5,301.5c-0.1,0-0.1,0-0.2,0c-1,0-1.7-0.3-2-1c-0.1-0.7-0.2-1-0.2-1c0-1.3,0.9-2.3,2.8-3c0,0,0.1,0,0.1,0
				c0.1,0,0.2-0.1,0.3-0.1c-0.1,0.5-0.1,0.9-0.1,1.4c-0.1,1.4-0.1,2.6-0.2,3.6C196.8,301.4,196.6,301.5,196.5,301.5z M191.3,314.2
				c0,0.2,0,0.3,0,0.5c0,0.8-0.7,1.7-2,2.8c-0.6,0.4-1.1,0.8-1.5,1c-0.1,0.1-0.2,0.1-0.3,0.2c0-1.7,0-3.5,0-5.4
				c0.1-0.1,0.2-0.1,0.3-0.1c0.3-0.1,0.6-0.2,0.9-0.2C190.2,312.6,191.1,313,191.3,314.2z M188.8,332.2c-0.1,0.6-0.5,1-1,1.3
				c-0.1-1.1-0.2-2.3-0.3-3.5c0-0.2,0-0.4,0-0.7c0,0,0.1,0,0.1,0.1c0.4,0.1,0.6,0.3,0.8,0.6c0.3,0.3,0.4,0.8,0.4,1.4
				C189,331.7,188.9,332,188.8,332.2z M196.7,340c0.1-0.2,0.3-0.3,0.6-0.5c0.2-0.1,0.5-0.1,0.8-0.1c0.3,0,0.6,0,0.8,0.1
				c0.1,0.9,0.3,1.9,0.4,2.9h-3.1c0-0.4,0-0.6,0-0.7C196.1,341,196.3,340.4,196.7,340z M194.2,323.9c0.1-1,0.9-1.9,2.4-2.5
				c0,0,0.1,0,0.1,0c0,1.6,0.1,3,0.1,4.4c-0.3,0.1-0.5,0.2-0.8,0.2c-1.3,0-2-0.6-2-1.8C194.1,324.2,194.1,324,194.2,323.9z"/>
			<path fill-rule="evenodd" clip-rule="evenodd" fill="#FFFFFF" d="M197.5,108.1c-0.5-0.3-1.1-0.4-2-0.4c0-0.1,0-0.2,0-0.3
				c0-0.2,0.1-0.5,0.2-0.8c0.2-0.5,0.5-0.9,1-1.3c0.2,0.3,0.5,0.5,0.7,0.8C197.5,106.8,197.5,107.5,197.5,108.1z M192.9,111.9
				c0.3,0.1,0.6,0.2,1.1,0.2c0.4,0,0.7,0,1-0.1c0,0.2,0,0.3,0,0.5c-0.5,0.2-0.9,0.4-1.3,0.6C193.4,112.8,193.1,112.4,192.9,111.9z
				 M190.3,117.5c0.4,0,1,0,1.5,0.1c0,0,0,0.1,0.2,0.1c0.1,0,0.1,0.3,0.1,0.8c0,0.3-0.3,0.8-0.8,1.5c-1,0.1-1.7,0.5-2,1
				c-0.2-0.2-0.4-0.4-0.5-0.6c0.4-0.2,0.8-0.4,1.1-0.8c0.4-0.4,0.6-0.9,0.6-1.3C190.4,118,190.3,117.7,190.3,117.5z M195,120.6
				c0-0.1-0.1-0.1-0.1-0.1c-0.5-0.4-1.3-0.6-2.6-0.6c-0.1,0-0.1,0-0.2,0c0.1-1.6,0.6-2.3,1.5-2C194.5,118.2,195,119.1,195,120.6z
				 M188,116.4c-0.1,0-0.1,0-0.2,0c-0.3,0-0.5,0-0.8,0.1c-0.2-2-0.4-3.8-0.5-5.5c0.1,0,0.2-0.1,0.3-0.1c0.6,0,1,0.8,1.2,2.4
				c0.1,0,0.3,0,0.3,0.1c0,0,0,0.1,0.2,0.1c0.1,0,0.1,0.3,0.1,0.8c0,0.2-0.2,0.4-0.5,0.8c0,0.1,0,0.3,0,0.4
				C188,115.7,188,116,188,116.4z M195.5,160.5c0-0.1,0-0.2,0-0.3c0-0.2,0-0.4,0.1-0.6c-0.1,0-0.2,0-0.4,0c-0.7,0-1.3-0.5-1.8-1.5
				c-0.3-0.7-0.5-1.3-0.5-1.6c0-0.4,0-0.6,0-0.6c0.1-0.1,0.2-0.2,0.3-0.3c0.7,0,1.4,0.3,2.1,0.9c0.2,0.2,0.4,0.3,0.5,0.5
				c0.1-0.3,0.2-0.5,0.3-0.6c-0.4-0.2-0.8-0.5-1.2-0.9c-0.5-0.6-0.9-1.1-1-1.7c0.9-0.4,1.7-0.4,2.4,0c0.7,0.3,1.3,0.9,1.6,1.9
				c0.1,0.1,0.1,0.3,0.2,0.5c0.1,1.5,0.1,3,0.2,4.7c-0.2,2.2-0.7,3.8-1.5,4.5c0.1,0,0.1,0.3,0.1,0.8c0,0.1-0.3,0.6-0.8,1.5
				c-0.2,0.3-0.4,0.7-0.4,1.2c-0.4-0.2-0.9-0.3-1.5-0.1c-0.5,0.1-0.9,0.3-1.3,0.5c0-0.2,0-0.4,0-0.6c-0.2-0.3-0.3-0.8-0.4-1.3
				c-0.1-0.7-0.1-1.2,0-1.6c0-1.2,0.2-1.9,0.7-2.1c0,0.1,0,0.1,0,0.1c0.3,0.6,0.9,0.9,1.8,1c0,0.1,0.1,0.3,0.2,0.5
				c0.4,0.1,1,0.2,1.5,0.4c0-0.1,0.1-0.1,0.1-0.1c0,0-0.1,0-0.1,0c-0.3-0.3-0.6-0.6-0.8-0.8c1.3-0.1,1.9-0.8,1.9-2
				C197.9,161.5,197.1,160.8,195.5,160.5z M193.9,153.4c-0.1-1.3-0.6-2-1.5-2c-0.1-0.4-0.2-0.8-0.3-1.3c-0.1-0.4-0.1-1.5-0.1-3.2
				c0.6-0.5,0.9-1,0.9-1.6c0-0.7-0.2-1.1-0.7-1.4c0.2-1.1,0.6-0.7,1.3,1c1,2.7,1.5,4.7,1.5,6c0,0.9-0.1,1.5-0.2,2
				C194.5,153.1,194.2,153.3,193.9,153.4z M193.3,173.5c0.3,0,0.6,0.1,1,0.1c0.5,0,0.9-0.1,1.3-0.1c0,0.1,0,0.1,0,0.2
				c0.1,0,0.3,0.1,0.6,0.1c0.3,0.1,0.4,0.4,0.4,0.9c0,1.1-0.2,2.7-0.5,4.6c-0.3,2-0.5,3.9-0.5,5.6c-0.5,0.3-0.9,0.5-1.3,0.6
				c-0.6-0.4-1-1.2-1.1-2.2c-0.1-0.3-0.1-1-0.1-2.1c-0.1,0-0.1,0-0.3,0c-1,0-1.6-0.5-1.8-1.3c-0.1-0.4-0.1-0.8,0-1.1
				c0-1.3,0.4-2,1-2c0.4,0,0.7,0.3,1.1,0.8c0-0.4,0-0.7,0-0.9c0.1-0.8,0.4-1.5,0.8-2C193.7,174.4,193.5,174,193.3,173.5z
				 M191.8,170.7c-0.1,0.2-0.1,0.5-0.1,0.8c-0.1,0.4,0,0.8,0.1,1.1c0.2,0.4,0.6,0.7,1.2,0.9c-0.3,0.6-0.5,1.1-0.5,1.4
				c-0.1,0-0.3,0.1-0.5,0.2c-0.3,0.2-0.6,0.3-0.8,0.4c-0.4-0.4-0.8-0.8-1-1.4c-0.2-0.4-0.3-0.7-0.3-0.9c0-1,0.1-1.6,0.2-1.9
				C190.5,171,191,170.7,191.8,170.7z M188.4,147.3c0.4,0.2,0.9,0.3,1.6,0.3c0.2,0,0.3,0,0.5,0c-0.1,0.4-0.2,0.8-0.2,1.1
				c-0.1,0.1-0.3,0.1-0.3,0.1c-0.1,0.6-0.5,1.4-1,2.4l-0.6,0.2C188.4,150,188.4,148.7,188.4,147.3z M186.8,108.5
				c0.8-0.1,1.6-0.2,2.3-0.4c0.2-0.1,0.3-0.1,0.5-0.1c0.2,0.6,0.3,1.2,0.5,1.6l-0.3,0.4c-0.2,0.2-0.5,0.3-1,0.3
				c-0.9,0-1.5-0.5-2-1.5C186.8,108.7,186.8,108.6,186.8,108.5z M197.8,112.4c0,0.1,0,0.1,0,0.2v8.4c-0.3,0.1-0.7,0.3-1,0.4
				c-0.4-0.4-0.8-0.9-1-1.5c-0.2-0.4-0.3-0.7-0.3-0.9c0-0.9,0.3-2.1,0.9-3.6c0.4-1,0.8-1.7,1.2-2.3
				C197.6,112.6,197.7,112.5,197.8,112.4z M196.5,133.3v7.5c-0.5,0.2-0.9,0.4-1.3,0.6c-0.6-0.3-1-1.1-1.1-2.2
				c-0.1-0.4-0.1-1.2-0.1-2.4c0-1.2,0-2,0.1-2.4c0.1-1.1,0.5-1.9,1.1-2.2C195.9,132.5,196.3,132.9,196.5,133.3z M197.5,146.9
				c-0.3-1-0.4-2-0.5-3c0-2.3,0.3-3.3,0.8-3v1.8c0,1.7,0.1,3.6,0.2,5.5C197.8,147.7,197.7,147.3,197.5,146.9z M191.3,156.4
				L191.3,156.4c0.6,0.2,1,0.5,1.3,0.9v4.6c-0.5,0.2-0.9,0.4-1.3,0.6c-0.6-0.4-1-0.9-1.1-1.5c-0.1-0.2-0.1-0.7-0.1-1.5
				c-0.5-0.2-0.8-0.5-0.9-0.8c-0.1-0.2-0.1-0.6-0.1-1.2c0-1.3,0.4-1.9,1.3-1.8C190.7,155.8,191,156,191.3,156.4z M198.3,163.5
				c0.1-0.1,0.2-0.2,0.3-0.3c0.1,1.2,0.1,2.4,0.2,3.6c0,0.5,0,1.1,0,1.6c-0.3-0.3-0.5-0.7-0.6-1.1c-0.1-0.2-0.1-0.7-0.1-1.4
				C198,164.5,198.1,163.7,198.3,163.5z M198.5,177.2c-0.1-0.4-0.1-0.9,0-1.4l0-2c0.1,0,0.2,0,0.4,0c0,1.5,0.1,2.9,0.1,4.2
				C198.8,177.8,198.6,177.5,198.5,177.2z M197.3,177.8c0.8,0.9,1.3,1.5,1.5,1.9c0.2,0.4,0.3,1,0.3,2c-0.1,0.3-0.1,0.5-0.3,0.6
				c-0.1,0.2-0.5,0.3-1,0.3c-0.7,0-1.2-0.4-1.5-1.3c-0.2-0.5-0.3-1-0.3-1.4c0-0.2,0.1-0.5,0.2-0.8
				C196.5,178.7,196.8,178.2,197.3,177.8z M196.6,192.8c-0.1-0.2-0.2-0.4-0.3-0.6c-0.2-0.4-0.3-0.7-0.3-1c0-0.9,0.3-2.1,0.9-3.6
				c0.4-1,0.8-1.7,1.2-2.3c0-0.3,0.1-0.6,0.2-0.7c0.2-0.2,0.5-0.3,0.9-0.5c0,1.1,0,2.7-0.1,4.8c0,0.4,0,0.7,0,1.1
				c-0.3,1.1-0.5,2-0.6,2.8C198,192.8,197.4,192.7,196.6,192.8z M198.5,193c0.2-0.3,0.4-0.5,0.6-0.5c0,0.3,0,0.7,0,1
				C198.9,193.3,198.7,193.1,198.5,193z M199,195.7c0,1.9,0,4,0,6.1l-0.2,0c-0.5-0.2-0.8-0.3-0.9-0.4c-0.1-0.1-0.2-0.3-0.3-0.6
				c0.2-0.3,0.3-0.6,0.3-1c0-0.1,0-0.3,0-0.4c0.1-0.1,0.2-0.2,0.3-0.2c0-0.1,0-0.2,0-0.3c-0.1-0.3-0.1-1.1-0.1-2.3
				c0-0.1,0-0.1,0-0.2C198.5,196.2,198.8,196,199,195.7z M195.5,193.1c-1.4,0.4-2.4,0.8-3,1.3c-0.1-0.6-0.1-1,0-1.4
				c0-2.1,0.5-3,1.5-2.7C195,190.7,195.5,191.6,195.5,193.1z M191.9,197c0.4,0.4,1.2,0.6,2.4,0.6c0.6,0,1.3-0.1,2.2-0.4
				c0,0,0.1,0.1,0.1,0.1c-0.1,0.3-0.1,0.5-0.2,0.7c-0.2-0.1-0.5-0.1-0.8-0.2c-0.7,0-1.3,0.1-1.7,0.4c-0.2-0.1-0.4-0.2-0.6-0.4
				c0.1,0.2,0.1,0.5,0.2,0.9c-0.2,0.3-0.3,0.7-0.3,1.1c0,0.5,0,0.8,0.1,1c0.1,0.1,0.2,0.2,0.3,0.3c0,0.2,0,0.4,0,0.7
				c0,1.8-0.1,3.3-0.2,4.5c-0.3,0.1-0.5,0.3-0.8,0.3c0.1,0.4,0.2,0.7,0.3,1.1c0.1,3.2,0.2,5.1,0.3,5.9c-0.4-0.5-1-0.7-2-0.8
				c-0.2,0-0.4,0-0.6,0c-0.1-0.1-0.1-0.2-0.2-0.3c0,0.1-0.1,0.3-0.1,0.4c-0.8,0.2-1.3,0.7-1.4,1.5l0,0c0-0.8,0-1.5,0-2.3
				c0.5-0.4,0.7-0.9,0.7-1.6c0-0.9-0.2-1.5-0.7-1.8c0-0.1,0-0.2,0-0.3c0,0,0.1,0,0.2,0c-0.1-0.2-0.1-0.4-0.2-0.6c0-0.4,0-0.9,0-1.3
				c0.3,0,0.6,0,1,0c1,0,1.7-0.1,2.1-0.3c0.7-0.3,1-0.8,1-1.5c0-1.2-0.6-1.9-1.9-2.1c0-0.3,0-0.6,0-1
				C191,199.1,191.3,197.5,191.9,197z M188.8,215.8L188.8,215.8c0.3,0.6,1,0.8,2.3,0.8c0.3,0,0.6,0,0.8,0c-0.1,0.3-0.2,0.7-0.3,1.2
				c-0.4,1.5-0.6,2.7-0.7,3.4c-0.4,0.2-0.7,0.3-1,0.4c-0.6-0.4-1-0.9-1.1-1.5c0-1.4,0-2.7,0-4C188.7,215.9,188.7,215.9,188.8,215.8
				L188.8,215.8z M190,202.7c-0.1,0-0.1,0-0.2,0c-0.4,0-0.8,0-1,0.1c0-0.2,0-0.4,0-0.6C189.2,202.3,189.7,202.4,190,202.7z
				 M194.2,217.6c-0.7,0.4-1.1,1.1-1.1,1.9c0,0.5,0.1,0.8,0.2,1.1c0.3,0.7,0.9,1,1.8,1c0.1,0,0.2,0,0.3,0c0.1,0.7,0.2,1.3,0.2,1.8
				c0,0.9-0.1,1.5-0.2,2c-0.4,0.2-0.7,0.4-1,0.5c-0.9-0.7-1.5-1.8-1.6-3.3c-0.1-0.4-0.1-1.6-0.1-3.6c0-1.3,0.1-2.2,0.2-2.8
				c0.1-0.5,0.3-0.7,0.5-0.5c0.2,0.2,0.5,0.7,0.8,1.6C194.1,217.4,194.1,217.5,194.2,217.6z M189,185.9c0.1,0,0.1,0.3,0.1,0.8
				c0,0.1,0,0.2-0.1,0.4C188.9,186.7,188.9,186.3,189,185.9L189,185.9z M192.3,190.1c0,0,0,0.1,0.2,0.1c0.1,0,0.1,0.3,0.1,0.8
				c0,0.3-0.3,0.8-0.9,1.5c-0.5,0.6-1,1.1-1.4,1.3c-0.6-0.2-1-0.5-1.1-1c-0.1-0.2-0.1-0.5-0.1-1.1c0-0.9,0.1-1.4,0.2-1.5
				C189.6,189.8,190.6,189.8,192.3,190.1z M195.8,204.8c0.6,0.2,1,0.5,1.3,1v7.5c-0.5,0.2-0.9,0.4-1.3,0.6c-0.6-0.4-1-1.1-1.1-2.2
				c-0.1-0.4-0.1-1.2-0.1-2.4c0-1.2,0-2,0.1-2.3C194.8,205.8,195.2,205.1,195.8,204.8z M197.5,216.3c0-3,0.4-3.8,1.3-2.4
				c0,2.5,0,5,0.1,7.6c-0.3-0.5-0.6-1.3-0.9-2.2C197.8,218.3,197.6,217.3,197.5,216.3z M198.9,229.6c-0.5-0.5-1.3-0.5-2.5,0.1
				c0.3-1.2,0.8-2,1.3-2.4c0.5,0.3,0.9,0.8,1.1,1.5C198.9,229.1,198.9,229.3,198.9,229.6z M196,235.6c1.5-0.1,2.3-0.7,2.3-1.9
				c0-0.4,0.2-0.8,0.5-1.2c0,0.5,0,1.1,0,1.6c-0.3,1.8-0.8,3.1-1.5,3.8c-0.8-0.8-1.3-1.3-1.3-1.3C196,236.2,196,235.9,196,235.6z
				 M193,234.3c-0.5,0.2-0.9,0.4-1.3,0.6c-0.6-0.4-1-0.9-1.1-1.5c-0.1-0.2-0.1-0.7-0.1-1.6c0-1.5,0.4-2.6,1.3-3.1
				c0.6,0.3,1,0.6,1.3,1V234.3z M189.5,229.3c0,0.4-0.2,0.9-0.5,1.4c-0.3,0.5-0.5,1-0.5,1.3c0,0.9,0.3,2.4,1,4.4c0.7,1.9,1,2.9,1,3
				c0,0.5,0,0.8-0.1,0.9h-0.1l-0.1,0.2c-0.1,0.1-0.4,0.2-0.9,0.2c-0.5,0-0.9-0.2-1.3-0.7c0.2-4.6,0.4-8.5,0.5-11.7
				c0.2,0,0.4,0.1,0.7,0.1C189.4,228.5,189.5,228.8,189.5,229.3z M190.5,239.9c0-0.8,0.1-1.4,0.2-1.6c0.3-0.6,1.2-0.7,2.5-0.4
				c0,0,0,0.1,0.2,0.1c0.1,0,0.1,0.3,0.1,0.8c0,0.7-0.3,1.7-1,3l-0.8,0.3c-0.6-0.2-1-0.5-1.1-1C190.6,240.9,190.5,240.5,190.5,239.9
				z M187.9,247.3c0-0.1,0-0.1,0-0.1C187.9,247.2,188,247.3,187.9,247.3L187.9,247.3z M193,249.8c0.5-0.5,0.8-0.8,0.8-1
				c0-0.9-0.4-1.5-1.1-1.8c0.2-0.5,0.5-0.7,1-0.7c0.8,0.1,1.3,0.7,1.3,1.9c0,0.6-0.1,1.1-0.2,1.6c-0.4,0.2-0.7,0.3-1,0.4
				C193.5,250,193.2,249.9,193,249.8z M188.6,252c-0.1,0.2-0.3,0.4-0.4,0.7c-0.1,0.2-0.3,0.4-0.4,0.6c0-0.5,0-0.9,0-1.3
				C188,252,188.3,252,188.6,252L188.6,252z M189,252c0.7-0.1,1.5-0.5,2.5-1c0,0.4-0.1,0.8-0.2,1.1c0,0.1,0,0.2,0,0.3
				c-0.1,0.2-0.5,0.3-1,0.3S189.3,252.4,189,252z M198.8,250.1C198.7,250.1,198.7,250.1,198.8,250.1c-0.7,0-1.3-0.5-1.7-1.4
				c-0.3-0.7-0.5-1.3-0.5-1.7c0-0.4,0-0.7,0-0.7c0.1-0.1,0.2-0.1,0.2-0.3c0.7,0,1.3,0.2,2,0.7C198.8,247.9,198.8,249,198.8,250.1z
				 M198.7,257.2c0,0.4,0,0.8,0,1.3c-0.3-0.1-0.6-0.2-0.9-0.3c-0.2-0.1-0.4-0.1-0.5-0.2C197.8,257.7,198.3,257.5,198.7,257.2z
				 M195.2,254.3c-1,0.6-1.6,1.4-1.6,2.5c0,0.7,0.3,1.2,0.9,1.5c-0.1,0-0.1,0-0.2,0c-0.4-0.4-0.8-0.9-1-1.4
				c-0.2-0.4-0.3-0.7-0.3-0.9c0-1.4,0.4-2,1.3-2C194.7,254,195,254.1,195.2,254.3z M195.1,267.5c0.1-0.1,0.3-0.2,0.5-0.2
				c0.4,0,0.7,0.3,1.1,0.8c0-0.4,0-0.7,0-0.9c0.1-0.8,0.4-1.5,0.8-2c-0.3-0.3-0.6-0.7-0.8-1.2c-0.1-0.1-0.1-0.3-0.1-0.4
				c0,0.1-0.1,0.1-0.1,0.2c-0.3,0.6-0.5,1.1-0.5,1.5c-0.1,0-0.3,0.1-0.5,0.3c-0.3,0.2-0.6,0.3-0.8,0.4c-0.4-0.4-0.8-0.8-1-1.4
				c-0.2-0.4-0.3-0.7-0.3-0.9c0-1,0.1-1.6,0.2-1.9c0.3-0.4,0.7-0.6,1.3-0.6c0.6,0.8,1.6,1.3,3,1.3c0.2,0,0.4,0,0.5,0
				c0,1.9,0,4,0,6.3c-0.1,2.2-0.1,4.6-0.2,7c-0.2,0.1-0.4,0.2-0.6,0.3c-0.6-0.4-1-1.1-1.1-2.2c0-0.2-0.1-0.7-0.1-1.3l0,0l0.3-1.4
				C196.4,269.5,195.8,268.3,195.1,267.5z M192.7,268.8c0,0.2-0.1,0.5-0.1,0.7l0.3,1.7c0.2,0.7,0.6,1.2,1.1,1.5l-0.2,0.2
				c-0.2,0.2-0.5,0.3-1,0.3c-0.9,0-1.5-0.5-2-1.5c-0.1-0.5-0.2-0.9-0.3-1.4c-0.1,0-0.2,0-0.3,0c-1,0-1.6-0.4-1.8-1.2
				c-0.1-0.4-0.1-0.9,0-1.4l0-2c0.2,0,0.5,0,1-0.1c0.2,0,0.5,0,0.8,0c-0.1-0.5-0.2-1.1-0.3-1.8c-0.2-1.1-0.3-2.2-0.4-3.3
				c-0.1,0-0.3,0.1-0.4,0.1c-0.6-0.4-1-0.9-1.1-1.5c-0.1-0.2-0.1-0.7-0.1-1.5c0-1.3,0.1-2,0.2-2.3c0.3-0.6,1.2-0.7,2.5-0.3
				c0,0,0,0.1,0.2,0.1c0.1,0,0.1,0.3,0.1,0.8c0,0.3,0,0.7-0.1,1.3c0,0.1,0.1,0.2,0.1,0.3c0.1-0.1,0.2-0.2,0.3-0.3
				c0.6,0.2,1,0.6,1.3,1v4.5c0.3,1.5,0.5,3,0.5,4.4C192.8,267.5,192.7,268,192.7,268.8c0-0.1-0.1-0.1-0.1,0
				C192.6,268.8,192.6,268.8,192.7,268.8z M198.6,245.8c-0.5-0.6-0.9-1.1-1-1.7c0.4-0.2,0.9-0.3,1.3-0.3c0,0.7,0,1.4,0,2.1
				C198.7,246,198.7,245.9,198.6,245.8z M188.8,271.7c0.2,0.4,0.3,1,0.3,2c-0.1,0.3-0.1,0.5-0.3,0.6c-0.1,0.2-0.5,0.3-1,0.3
				c-0.1,0-0.2,0-0.3,0c0-1.5,0-3,0-4.4C188.2,270.8,188.6,271.4,188.8,271.7z M191.2,282.6c-0.2-0.6-0.6-0.9-1.3-0.9
				c-0.1-0.3-0.2-0.7-0.3-1.2c0-0.1,0-0.2-0.1-0.3c0,0.2-0.1,0.4-0.1,0.6c-0.1,0.3-0.2,0.6-0.3,1c-0.5,0.1-1.1,0.3-1.8,0.7
				c0-1.4,0-2.8,0-4.1c0.2-0.4,0.4-0.7,0.6-1c0-0.3,0.1-0.6,0.2-0.7c0.3-0.3,0.7-0.4,1.4-0.5c0.2-1.5,0.5-2.3,1.1-2.3
				c0.6,0,1,0.8,1.2,2.4c0.1,0,0.3,0,0.3,0c0,0,0,0.1,0.2,0.1c0.1,0,0.1,0.3,0.1,0.8c0,0.2-0.2,0.4-0.5,0.8c0,0.1,0,0.3,0,0.3
				c0,1.7-0.1,3-0.2,4C191.6,282.4,191.4,282.5,191.2,282.6z M196,280.7c0.1,0,0.1,0.3,0.1,0.8c0,0.3-0.3,0.8-0.9,1.5
				c-0.5,0.6-1,1.1-1.4,1.3c-0.6-0.2-1-0.5-1.1-1c-0.1-0.2-0.1-0.5-0.1-1.1c0-0.9,0.1-1.4,0.2-1.5c0.4-0.3,1.4-0.3,3-0.1
				C195.8,280.6,195.8,280.7,196,280.7z M196,284c0-0.2,0-0.4,0-0.5c0-2.1,0.5-3,1.5-2.7c0.2,0.1,0.5,0.2,0.7,0.4c0,0.6,0,1.2,0,1.8
				c-0.4,0.1-0.9,0.3-1.4,0.5C196.5,283.7,196.2,283.8,196,284z M189.5,294.8c-0.3,0.1-0.6,0.1-0.8,0.2c0.2-0.1,0.3-0.2,0.5-0.2
				C189.4,294.8,189.5,294.8,189.5,294.8z M196,309.5c0-2.5,0.2-3.5,0.7-3.2c-0.1,2.8-0.2,5.6-0.2,8.4c-0.2-0.5-0.3-1-0.4-1.6
				C196.1,312.6,196,311.4,196,309.5z M194.2,323.9c-0.1-0.3-0.1-0.7-0.1-1.4c-0.5-0.2-0.8-0.5-0.9-0.8c-0.1-0.2-0.1-0.6-0.1-1.2
				c0-1.3,0.4-1.9,1.3-1.8c0.4,0.1,0.8,0.3,1,0.6l0,0c0.6,0.2,1,0.5,1.3,1v1.3C195.1,322,194.3,322.9,194.2,323.9z M196.7,340
				c-0.4,0.4-0.6,1-0.6,1.8c0,0,0,0.3,0,0.7H195c0-0.2,0-0.4,0-0.6c0-1.3,0.4-2,1-2C196.3,339.8,196.5,339.9,196.7,340z
				 M198.8,339.5c-0.2-0.1-0.5-0.1-0.8-0.1c-0.3,0-0.5,0-0.8,0.1c0.1-0.7,0.4-1.3,0.8-1.8c-0.3-0.4-0.6-0.8-0.8-1.2
				c-0.1-0.1-0.1-0.3-0.1-0.4c0,0.1-0.1,0.1-0.1,0.2c-0.3,0.6-0.5,1.1-0.5,1.5c-0.1,0-0.3,0.1-0.5,0.3c-0.3,0.2-0.6,0.3-0.8,0.4
				c-0.4-0.4-0.8-0.8-1-1.4c-0.2-0.4-0.3-0.7-0.3-0.9c0-1,0.1-1.6,0.2-1.9c0.4-0.6,1.4-0.8,2.9-0.5c0-0.2,0-0.4,0.1-0.5
				c0,0,0-0.1,0-0.1c-0.1-0.2-0.2-0.4-0.2-0.7c-0.1-0.3-0.1-0.7-0.1-1.1c-0.2-0.3-0.3-0.8-0.4-1.3c-0.1-0.7-0.1-1.2,0-1.6
				c0-0.8,0.1-1.4,0.4-1.7c0.2,2.2,0.4,4.1,0.7,5.7c0,0.3,0.1,0.6,0.2,0.8C198.2,335.1,198.5,337.2,198.8,339.5z"/>
		</g>
	</g>
	<g>
		<path fill-rule="evenodd" clip-rule="evenodd" fill="#FFFFFF" d="M178.5,92.1c-0.1-0.2-0.2-0.5-0.2-1c0-1.5,0.9-2.1,2.7-2
			c0.7,0,1.2,0.2,1.6,0.4c0.3-0.2,0.8-0.4,1.4-0.4c1.4,0,2.1,0.6,2.1,1.9c0,0.7-0.3,1.3-1,1.6c-0.4,0.2-0.8,0.3-1.1,0.3
			c-0.6,0-1.1-0.1-1.4-0.3c-0.4,0.2-0.9,0.3-1.6,0.3C179.6,92.9,178.8,92.6,178.5,92.1z M188.5,86.3c0.3-0.1,0.6-0.2,1-0.2
			c0,0,0,0.1,0,0.1c0,0,0,0.1,0,0.2C189.1,86.3,188.8,86.3,188.5,86.3z M190.7,87.8c0.3-0.1,0.7-0.2,1.1-0.5h0
			c0.2,0,0.3-0.1,0.5-0.1c0.1,0.3,0.2,0.6,0.2,0.9c0,1-0.5,1.6-1.6,1.8c0.1,0.2,0.1,0.4,0.1,0.7c0,0.8-0.3,1.4-1,1.7
			c1,0.1,1.5,0.7,1.5,1.8c0,0.5-0.2,1-0.6,1.4c-0.4,0.3-0.8,0.5-1.3,0.5c-0.9,0-1.5-0.3-1.8-0.8c-0.1-0.2-0.2-0.5-0.2-1
			c0-0.9,0.3-1.4,0.8-1.8c-1.1,0-1.8-0.3-2.1-0.8c-0.1-0.2-0.2-0.5-0.2-1c0-1,0.4-1.6,1-1.9c0-0.1,0-0.3,0-0.4
			c0.2,0.1,0.3,0.2,0.3,0.3c0.2,0.1,0.6,0.1,1.2,0.1c0.5,0,0.9,0,1.2-0.1l0.4-0.2h0.1c0-0.1,0-0.4,0-0.9
			C190.5,87.6,190.6,87.6,190.7,87.8z"/>
	</g>
</g>
</svg>
