<?xml version="1.0" encoding="utf-8"?>
<!-- Generator: Adobe Illustrator 16.0.0, SVG Export Plug-In . SVG Version: 6.00 Build 0)  -->
<!DOCTYPE svg PUBLIC "-//W3C//DTD SVG 1.1//EN" "http://www.w3.org/Graphics/SVG/1.1/DTD/svg11.dtd">
<svg version="1.1" id="Layer_1" xmlns="http://www.w3.org/2000/svg" xmlns:xlink="http://www.w3.org/1999/xlink" x="0px" y="0px"
	 width="210px" height="350px" viewBox="0 0 210 350" enable-background="new 0 0 210 350" xml:space="preserve">
<g>
	<g>
		<g>
			<linearGradient id="SVGID_1_" gradientUnits="userSpaceOnUse" x1="288.6826" y1="-21.0327" x2="175.392" y2="78.8097">
				<stop  offset="0" style="stop-color:#C4CDD2"/>
				<stop  offset="0.2824" style="stop-color:#E4F1F9"/>
				<stop  offset="0.4235" style="stop-color:#A2A29A"/>
				<stop  offset="0.6" style="stop-color:#A5A79C"/>
				<stop  offset="0.7529" style="stop-color:#EBF1EF"/>
				<stop  offset="1" style="stop-color:#A0A2A3"/>
			</linearGradient>
			<polygon fill-rule="evenodd" clip-rule="evenodd" fill="url(#SVGID_1_)" points="165.2,85.3 165.6,83 165.7,82.8 188.2,70.2 
				187.7,72.6 			"/>
			<linearGradient id="SVGID_2_" gradientUnits="userSpaceOnUse" x1="26.189" y1="-18.1328" x2="152.5211" y2="119.4816">
				<stop  offset="0" style="stop-color:#C4CDD2"/>
				<stop  offset="0.2824" style="stop-color:#E4F1F9"/>
				<stop  offset="0.4235" style="stop-color:#A2A29A"/>
				<stop  offset="0.6" style="stop-color:#A5A79C"/>
				<stop  offset="0.7529" style="stop-color:#EBF1EF"/>
				<stop  offset="1" style="stop-color:#CBCFCE"/>
			</linearGradient>
			<polygon fill-rule="evenodd" clip-rule="evenodd" fill="url(#SVGID_2_)" points="165.7,82.8 11.4,54 34.5,41.4 188.2,70.1 
				188.2,70.2 			"/>
			<linearGradient id="SVGID_3_" gradientUnits="userSpaceOnUse" x1="10.5259" y1="55.083" x2="165.4662" y2="84.0348">
				<stop  offset="0" style="stop-color:#C4CDD2"/>
				<stop  offset="0.2824" style="stop-color:#E4F1F9"/>
				<stop  offset="0.4235" style="stop-color:#A2A29A"/>
				<stop  offset="0.6" style="stop-color:#A5A79C"/>
				<stop  offset="0.7529" style="stop-color:#EBF1EF"/>
				<stop  offset="1" style="stop-color:#CBCFCE"/>
			</linearGradient>
			<polygon fill-rule="evenodd" clip-rule="evenodd" fill="url(#SVGID_3_)" points="165.2,85.3 11,56.5 11.4,54 165.7,82.8 
				165.6,83 			"/>
		</g>
		<g>
			<polygon fill-rule="evenodd" clip-rule="evenodd" fill="#FFFFFF" fill-opacity="0.502" points="187.8,70.8 165.5,83.3 
				165.5,83.3 11.1,54.5 11.3,54 165.6,82.8 165.6,82.8 188,70.3 			"/>
		</g>
	</g>
	<g>
		<g>
			<path fill-rule="evenodd" clip-rule="evenodd" fill="#CBCDDA" d="M129.8,76c0-0.1,0.1-0.2,0.1-0.3c0.1-0.3,0.2-0.6,0.3-1
				c0-0.1,0-0.2,0.1-0.4c0.1-0.2,0.1-0.3,0.2-0.5c0.1-0.4,0.2-0.7,0.3-1c0-0.1,0.1-0.3,0.2-0.4c0.1-0.4,0.3-0.8,0.3-1.2
				c0.1-0.2,0.1-0.3,0.2-0.4c0-0.1,0.1-0.3,0.1-0.4c0-0.1,0.1-0.3,0.1-0.3c2.6,0.9,3.5,0.6,2.8-0.8c0.1,0,0.1,0,0.2,0
				c0.2,0,0.3,0,0.5,0c0.2,0,0.3,0,0.5,0c0.1,0,0.1,0,0.2,0c0,0.1,0,0.2,0,0.3c-0.4,2.2,0.3,2.8,2,1.5c0.9,0.4,2.2,0.6,3.9,0.6
				c4.9,0,6.8-1.5,5.5-4.4c0.4-0.3,0.8-0.6,1.1-0.9c0.3-0.3,0.6-0.6,0.8-1c0.1-0.1,0.2-0.3,0.3-0.3c0.2-0.3,0.4-0.7,0.6-1.1
				c0.1-0.2,0.2-0.5,0.3-0.7c0-0.1,0.1-0.3,0.1-0.4c0-0.1,0-0.3,0-0.4c0-0.1,0.1-0.3,0.1-0.4c0-0.1,0-0.2,0-0.3c0-0.2,0-0.4,0-0.5
				c0-0.3-0.1-0.5-0.1-0.8c-0.1-0.3-0.3-0.6-0.4-0.9c-0.1-0.2-0.2-0.4-0.4-0.5c0-0.1,0-0.1,0-0.1c-0.3-0.4-0.8-0.8-1.3-1.2
				c-0.1-0.1-0.3-0.2-0.5-0.3c-0.2-0.1-0.5-0.2-0.9-0.4c-0.5-0.2-1.1-0.4-1.7-0.6c-0.4-0.1-0.8-0.3-1.2-0.4c-0.3-0.1-0.7-0.2-1-0.3
				h0c-0.2-0.5-0.6-1.2-1.2-1.9c-0.9-0.1-1.5,0.1-2,0.9c-0.6-0.2-1.2-0.3-1.8-0.5c-0.3-0.1-0.6-0.2-0.9-0.3c0,0-0.1,0-0.1,0
				c2.8-1.4,2.1-3.4-2-5.8c-1.9,0.4-2.9,1.5-2.9,3.3c0,0,0-0.1-0.1-0.1c-0.5-0.5-0.9-1-1.2-1.6c-0.1-0.2-0.2-0.5-0.3-0.6
				c0-0.1,0-0.1,0-0.2c-0.1-0.2-0.1-0.5,0-0.6c0-0.2,0-0.3,0-0.5c0-0.3,0-0.7,0-1c0,0,0-0.1,0-0.1c0-0.2,0.1-0.3,0.2-0.5
				c0.1,0,0.1,0,0.2,0c0.1,0,0.1,0,0.3,0.1c0.1,0.1,0.2,0.1,0.3,0.1c0.2,0.1,0.3,0.3,0.5,0.4c0.4,0.3,0.8,0.4,1.3,0.5
				c0.1,0,0.1,0.1,0.2,0.1c0.3,0.1,0.5,0.1,0.8,0.2c0.1,0,0.3,0,0.4,0c0.2,0,0.5,0,0.7,0c0.3,0,0.5,0,0.8-0.1c0.1,0,0.2,0.1,0.3,0.1
				c0.4,0.2,0.8,0.3,1.2,0.5c0.2,0.1,0.4,0.2,0.6,0.3c0.1,0.1,0.2,0.1,0.4,0.2c0,0,0.1,0,0.2,0c0.2,0.2,0.4,0.3,0.6,0.5
				c0.1,0,0.2,0.1,0.3,0.1c0.3,0.2,0.6,0.3,1,0.5c0.3,0.1,0.6,0.2,0.8,0.3c0.4,0.1,0.8,0.1,1.2,0.1c0.2,0.1,0.4,0.1,0.7,0.1
				c0.2,0,0.4,0,0.6,0c0.1,0,0.2,0,0.4,0c0.4,0,0.8,0.1,1.2,0.1c0.1,0,0.2,0,0.3,0.1c0.2,0.1,0.5,0.1,0.7,0.2
				c0.2,0.1,0.3,0.1,0.5,0.1c0.4,0.2,0.8,0.4,1.3,0.5c0.4,0.1,0.8,0.1,1.2,0.1c0,0,0.1,0,0.1,0c0.3,0.1,0.6,0.1,0.9,0.2
				c0.3,0.1,0.6,0.1,0.9,0.3c0.4,0.2,0.8,0.3,1.2,0.4c0.4,0.3,0.9,0.5,1.5,0.6c0,0,0.1,0,0.1,0c0.4,0.1,0.7,0.1,1.1,0.1
				c0.1,0,0.1,0,0.2,0c0.4,0,0.7,0.1,1,0.1c0.2,0,0.3,0.1,0.5,0.1c0.5,0.1,1,0.2,1.4,0.3c0.2,0.1,0.5,0.1,0.7,0.2c0,0,0.1,0,0.1,0
				c0.4,0.2,0.8,0.3,1.2,0.4c0,0,0.1,0,0.1,0h0c0,0.2,0.1,0.4,0.1,0.6c0,0.1,0,0.2,0,0.3l0.2,0.2h0.1l3.8,3.4l0.3,0.5l0.2,0.6
				l0.3,0.8l0.2,0.9l0.1,0.1c0,0.2,0,0.4,0.1,0.5l0.2,0.5l0.2,0.3l2.8,1.4c0.1,0,0.3,0,0.5,0c0.1,0,0.2,0.1,0.3,0.1
				c0.1,0,0.3,0.1,0.4,0.1c0.2,0.1,0.4,0.3,0.6,0.6c0.1,0.2,0.1,0.4,0.3,0.6c0,0.1,0.1,0.2,0.1,0.3c0.1,0.1,0.2,0.2,0.3,0.3l0,0.2
				l0.5,0.1l2.4,0.8l0.8,1.6l0,0.4c0.3,0.2,0.4,0.4,0.3,0.8h0.1l0.1,0.1l1.2,0.4l0.1,0l1.5,0.5h0l0,0.1v0.9l-0.1,0.4l0,1.5l0,0.1
				l-0.3,0.8l-0.4,0.6l-0.1,0.6l-0.3,0.8l-0.1,0.2c-0.1,0-0.2,0-0.3,0.1c-0.2,0.1-0.4,0.2-0.5,0.3c-0.6,0.2-1.1,0.4-1.5,0.6
				c-0.1,0-0.3,0-0.3,0c-0.2,0.1-0.4,0.2-0.5,0.2c-0.1,0-0.2,0-0.4,0.1c-0.2,0.1-0.4,0.1-0.5,0.1c-0.1,0.1-0.2,0.1-0.3,0.1
				c-0.4,0.2-0.8,0.3-1.2,0.4c-0.3,0.1-0.5,0.1-0.8,0.3c-0.3,0-0.6,0.1-1,0.3l0,0v0c-0.1,0-0.2,0-0.4,0c-0.3,0-0.5,0.1-0.7,0.2
				c-0.6,0.1-1.2,0.2-1.7,0.4H167c-0.2,0.1-0.5,0.1-0.8,0.1c0,0-0.1,0-0.2,0c-0.4,0.1-0.8,0.1-1.2,0.3c-0.4,0.1-0.8,0.1-1.1,0.1
				l-0.2,0l0,0c-0.5,0.1-1.1,0.2-1.6,0.3c-0.4,0-0.7-0.1-1-0.1c-0.3,0-0.5,0-0.8,0c-0.3,0-0.5,0-0.6,0c-0.2,0-0.4-0.1-0.5-0.1
				c-0.3-0.1-0.5-0.1-0.8-0.1c-0.6,0-1.1-0.1-1.6-0.1c-0.2,0-0.4,0-0.5,0c-0.2,0-0.4-0.1-0.7-0.1c-0.2,0-0.4,0-0.5-0.1
				c-0.4,0-0.7-0.1-1-0.2c-0.1,0-0.3-0.1-0.5-0.1c-0.3,0-0.6-0.1-1-0.1c-0.3,0-0.5-0.1-0.8-0.1c-0.7,0-1.3-0.1-2-0.2
				c-0.5-0.1-0.9-0.2-1.4-0.2c-0.2,0-0.4,0-0.6,0c-0.2-0.1-0.5-0.1-0.7-0.1c-0.1,0-0.2-0.1-0.3-0.1c-0.1,0-0.3-0.1-0.5-0.1
				c-0.3-0.1-0.6-0.1-0.9-0.2c-0.3-0.1-0.5-0.1-0.8-0.1c-0.4-0.1-0.9-0.2-1.3-0.3c-0.1,0-0.3,0-0.5-0.1c-0.8-0.2-1.5-0.3-2.2-0.4
				c-0.2,0-0.4-0.1-0.6-0.1c-0.2-0.1-0.5-0.1-0.7,0c-0.4-0.1-0.8-0.2-1.3-0.3c-0.2,0-0.3-0.1-0.5-0.1c-0.3-0.1-0.5-0.1-0.8-0.1
				l0-0.1c-0.1,0-0.3-0.1-0.5-0.1l0,0.1c-0.3-0.1-0.5-0.1-0.8-0.1c-0.4-0.1-0.7-0.1-0.9-0.2c-0.4-0.1-0.9-0.1-1.3-0.2
				C131.9,76.5,130.8,76.3,129.8,76z M170.5,70c-1.2-0.1-2,0.3-2.4,1.4c-0.4,1-0.2,1.6,0.8,1.8C173.1,73.8,173.6,72.7,170.5,70z
				 M158,67.4c1.1,0.1,1.8-0.2,2.2-1c1.4-3.1-0.3-4.8-5.3-5c-1.5-0.1-2.1,0.5-1.9,1.9C153.4,65.5,155.1,66.9,158,67.4z M150.5,69.7
				c-0.8,1-0.6,1.6,0.6,1.9c4.5,1.2,5.5,0.2,3-3.1C152.5,68.2,151.3,68.6,150.5,69.7z"/>
			<path fill-rule="evenodd" clip-rule="evenodd" fill="#DDDDE7" d="M131.7,70.2c-0.2-0.1-0.4-0.2-0.6-0.3c-0.5-0.2-0.6-0.6-0.4-1.1
				c-0.3-0.1-0.7-0.1-1-0.1c-0.2,0-0.4-0.1-0.5-0.1c-0.1,0-0.2-0.1-0.4-0.1c-0.6-0.1-1.2-0.2-1.9-0.3c-0.3-0.1-0.7-0.1-1.1-0.2
				c-0.1,0-0.2,0-0.3,0c-0.4-0.1-0.8-0.1-1.2-0.3c-0.1,0-0.1,0-0.2,0c-0.4-0.1-0.9-0.2-1.3-0.3c-0.6-0.1-1.2-0.2-1.9-0.4
				c0.3,1.2-0.9,1.1-3.5-0.1c-0.3-0.1-0.4-0.3-0.4-0.6c-0.4-0.1-0.8-0.2-1.3-0.3h0c-0.1,0.6-1.4,0.8-3.8,0.4c-0.8-0.1-1.2-0.6-1-1.3
				c-0.2,0-0.4-0.1-0.5-0.1c-0.3-0.1-0.5-0.1-0.8-0.1c-0.3,0-0.5-0.1-0.8-0.2c-0.3-0.1-0.7-0.1-1-0.3c-0.1,0-0.2,0-0.4,0
				c-0.1,0-0.2,0-0.3,0c0.2,1-1,1-3.6,0c-0.4-0.2-0.6-0.5-0.6-0.9c-0.4-0.1-0.8-0.2-1.2-0.3c-0.4-0.1-0.9-0.2-1.3-0.3
				c-0.2,0-0.3-0.1-0.5-0.1c-0.2,0.1-0.3,0.2-0.5,0.4c-0.4,0.3-1,0.4-1.8,0.1c-3.7-1.2-4.9-2.5-3.6-3.9c-0.2-0.3-0.4-0.5-0.5-0.8
				c-0.2-0.3-0.4-0.7-0.5-1.1c-0.1-0.2-0.2-0.4-0.3-0.7c0-0.1,0-0.2,0-0.3c-0.1-0.4-0.2-0.9-0.2-1.4c0,0,0-0.1,0-0.1
				c0-0.5,0-1,0.1-1.5c0-0.2,0-0.3,0-0.5c0-0.1,0.1-0.2,0.1-0.4c0,0,0-0.1,0-0.1c0-0.1,0-0.1,0-0.1c0.1-0.1,0.3-0.1,0.4-0.2
				c0.1-0.1,0.3-0.1,0.4-0.2c0.3-0.1,0.5-0.1,0.8-0.2c0,0,0.1,0,0.1,0c0.2-0.1,0.4-0.1,0.6-0.3c0.3-0.1,0.5-0.3,0.6-0.4
				c0.1-0.1,0.3-0.2,0.4-0.3c0,0,0.1-0.1,0.1-0.1c0.1-0.1,0.2-0.2,0.3-0.3c0-0.1,0.1-0.1,0.1-0.1c0.1-0.1,0.1-0.2,0.2-0.4
				c0,0,0.1-0.1,0.1-0.1c0,0,0.1-0.1,0.1-0.1c0,0,0,0,0,0c0.2,0,0.4-0.1,0.6-0.1c0,0.1,0.1,0.1,0.1,0.2c0.5,0.8,0.9,1.4,1.1,1.8
				c0,0.1,0.1,0.2,0.2,0.3c0.2,0.1,0.3,0.2,0.4,0.5c0.2,0.2,0.4,0.3,0.5,0.5c0.2,0.2,0.5,0.4,0.8,0.6c0.4-0.3,0.9-0.4,1.4-0.3
				c0.5,0.7,0.9,1.3,1.2,1.8c0.1,0,0.2,0.1,0.3,0.1c0.7,0.3,1.4,0.6,2.3,0.9c0.4,0.1,0.8,0.3,1.3,0.4c0.9,0.2,1.8,0.5,2.8,0.6h0.1
				c0.3,0.1,0.7,0.1,1,0.2c0.7-1,1.7-1.4,3-1.1c0.7,0.7,1.1,1.3,1.4,1.8c0.1,0,0.2,0,0.3,0c0.1,0,0.3,0.1,0.4,0.1
				c0.3,0,0.5,0.1,0.8,0.1c0.2,0,0.5,0,0.7,0c0.7,0,1.3,0.1,1.9,0.1c0-0.1,0.1-0.3,0.2-0.4c0.9-1,2-1.4,3.3-1.1
				c0.2,0.3,0.5,0.5,0.7,0.8c0.3-0.2,0.6-0.3,0.8-0.5c0.2-0.2,0.4-0.3,0.5-0.5c-0.2,0-0.3,0-0.5,0c-0.6,0-0.9-0.4-1.1-1.1
				c-0.4-1.7,0-2.9,1.2-3.6c-0.1-0.1-0.3-0.2-0.3-0.4c-0.1-0.1-0.1-0.1-0.2-0.1c-0.4,0-0.8,0-1.3-0.1c-1.4-0.1-2-0.9-1.9-2.1
				c0-0.2,0.1-0.4,0.1-0.6c-0.6-0.5-1.2-0.9-1.8-1.4c-0.1-0.1-0.3-0.2-0.4-0.2c-1.7,0.5-2.9,0-3.5-1.5c0,0,0-0.1,0-0.1
				c0.1,0,0.1-0.1,0.2-0.1c0.2,0,0.5,0.1,0.8,0.1c0.1,0,0.3,0,0.4,0c0.4,0,0.9,0,1.3,0c0.2,0,0.4,0.1,0.7,0.1c0.2,0,0.5,0.1,0.7,0.1
				c0.4,0.1,0.9,0.2,1.3,0.3c0.6,0,1.1,0,1.7-0.2c0.1,0,0.2-0.1,0.3-0.1c0.1,0,0.2,0,0.3-0.1c0.3-0.1,0.6-0.2,0.8-0.4
				c0.2,0.1,0.4,0.1,0.6,0.2c0.4,0.1,0.9,0.2,1.4,0.3c0.2,0,0.3,0,0.5,0c0.2,0.1,0.5,0.1,0.7,0.1c0.3,0,0.5,0,0.8,0
				c0.6,0.3,1.3,0.5,2,0.6c0.3,0.1,0.6,0.1,0.9,0.1c0.1,0.1,0.3,0.1,0.4,0.1c-0.1,0.1-0.1,0.3-0.2,0.5c0,0,0,0.1,0,0.1
				c-0.1,0.4-0.1,0.7,0,1c0,0.1,0,0.3,0,0.5c0,0.2,0,0.4,0,0.6c0,0.1,0,0.1,0,0.2c0.1,0.2,0.2,0.4,0.3,0.6c0.3,0.6,0.7,1.1,1.2,1.6
				c0,0,0.1,0.1,0.1,0.1c0.1-1.8,1-2.9,2.9-3.3c4.1,2.4,4.7,4.3,2,5.8c0,0,0.1,0,0.1,0c0.3,0.1,0.6,0.2,0.9,0.3
				c0.5,0.2,1.1,0.3,1.8,0.5c0.5-0.7,1.2-1,2-0.9c0.5,0.7,0.9,1.4,1.2,1.9h0c0.3,0.1,0.6,0.2,1,0.3c0.4,0.1,0.8,0.3,1.2,0.4
				c0.6,0.2,1.2,0.4,1.7,0.6c0.3,0.2,0.6,0.3,0.9,0.4c0.2,0.1,0.3,0.2,0.5,0.3c0.6,0.4,1,0.8,1.3,1.2c0,0,0,0.1,0,0.1
				c0.1,0.1,0.3,0.3,0.4,0.5c0.1,0.3,0.3,0.5,0.4,0.9c0,0.2,0.1,0.5,0.1,0.8c0,0.2,0,0.4,0,0.5c0,0.1,0,0.2,0,0.3
				c0,0.1-0.1,0.3-0.1,0.4c0,0.1,0,0.2,0,0.4c0,0.2-0.1,0.3-0.1,0.4c-0.1,0.2-0.2,0.5-0.3,0.7c-0.2,0.4-0.4,0.8-0.6,1.1
				c-0.1,0.1-0.2,0.2-0.3,0.3c-0.3,0.3-0.5,0.7-0.8,1c-0.3,0.3-0.7,0.5-1.1,0.9c1.3,2.9-0.5,4.3-5.5,4.4c-1.8,0-3.1-0.2-3.9-0.6
				c-1.7,1.2-2.4,0.7-2-1.5c0-0.1,0-0.2,0-0.3c-0.1,0-0.1,0-0.2,0c-0.2,0-0.3,0-0.5,0c-0.2,0-0.4,0-0.5,0c0,0-0.1,0-0.2,0
				C135.3,70.9,134.3,71.1,131.7,70.2z M170.5,70c3.1,2.7,2.6,3.7-1.6,3.2c-1-0.2-1.2-0.8-0.8-1.8C168.5,70.4,169.3,69.9,170.5,70z
				 M118.7,61.2c-0.8,1.4-0.5,2.1,1.1,2.2c5,0.3,5.7-0.9,2.1-3.6C120.4,59.5,119.3,59.9,118.7,61.2z M150.5,69.7
				c0.9-1.1,2.1-1.5,3.5-1.2c2.6,3.3,1.6,4.3-3,3.1C149.9,71.3,149.7,70.7,150.5,69.7z M158,67.4c-2.9-0.5-4.6-1.9-5-4.1
				c-0.2-1.4,0.4-2,1.9-1.9c4.9,0.2,6.7,1.9,5.3,5C159.8,67.2,159.1,67.5,158,67.4z M136.8,60.5c-0.9-0.1-1.6,0.3-2.2,1
				c-0.4,0.6-0.4,1.1,0.1,1.3C138.5,64.7,139.2,63.9,136.8,60.5z"/>
			<path fill-rule="evenodd" clip-rule="evenodd" fill="#EAECF8" d="M115.3,45.3c0,0,0,0.1,0,0.1c0.6,1.5,1.8,2,3.5,1.5
				c0.1,0,0.2,0.1,0.4,0.2c0.6,0.4,1.3,0.9,1.8,1.4c-0.1,0.2-0.1,0.4-0.1,0.6c-0.1,1.3,0.5,2,1.9,2.1c0.5,0.1,0.9,0.1,1.3,0.1
				c0,0,0.1,0,0.2,0.1c0.1,0.1,0.2,0.3,0.3,0.4c-1.2,0.7-1.6,1.9-1.2,3.6c0.2,0.7,0.5,1.1,1.1,1.1c0.2,0,0.3,0,0.5,0
				c-0.2,0.2-0.3,0.3-0.5,0.5c-0.2,0.2-0.5,0.4-0.8,0.5c-0.2-0.3-0.4-0.5-0.7-0.8c-1.4-0.3-2.5,0.1-3.3,1.1
				c-0.1,0.1-0.2,0.3-0.2,0.4c-0.6,0-1.2-0.1-1.9-0.1c-0.2,0-0.5,0-0.7,0c-0.3,0-0.5-0.1-0.8-0.1c-0.1,0-0.3,0-0.4-0.1
				c-0.1,0-0.2,0-0.3,0c-0.3-0.5-0.7-1.1-1.4-1.8c-1.3-0.3-2.3,0.1-3,1.1c-0.4-0.1-0.7-0.1-1-0.2h-0.1c-1-0.2-1.9-0.4-2.8-0.6
				c-0.5-0.1-0.9-0.3-1.3-0.4c-0.8-0.3-1.6-0.6-2.3-0.9c-0.1-0.1-0.2-0.1-0.3-0.1c-0.2-0.5-0.6-1.1-1.2-1.8c-0.5-0.1-1,0-1.4,0.3
				c-0.3-0.2-0.5-0.4-0.8-0.6c-0.2-0.2-0.4-0.3-0.5-0.5c0-0.2-0.1-0.4-0.4-0.5c-0.1-0.1-0.2-0.1-0.2-0.3c-0.2-0.5-0.6-1.1-1.1-1.8
				c0-0.1-0.1-0.1-0.1-0.2c0,0,0.1,0,0.1,0c0,0,0.1,0,0.1,0.1c0,0,0.1,0,0.1,0c0.2,0,0.3,0,0.5,0c0.2,0,0.4,0.1,0.6,0.1
				c0.1,0,0.1,0,0.2,0c0.3,0,0.7,0,1-0.1c0.3,0,0.6-0.1,0.9-0.3c0.1,0,0.2,0,0.3,0c0.4-0.2,0.7-0.4,1-0.5c0,0,0.1,0,0.1,0
				c0.3-0.2,0.6-0.4,0.9-0.7c0,0,0.1,0,0.1,0h0.1c0.1,0,0.2,0,0.3,0h0c0.1,0,0.2,0,0.3,0c0.4,0,0.8,0,1.2-0.1c0,0,0.1,0,0.1,0h0.1
				c0.1,0,0.3,0,0.4,0v0c0.1,0,0.2,0,0.3,0c0.1,0,0.2,0,0.4-0.1c0.2,0,0.4-0.1,0.5-0.2c0.1-0.1,0.1-0.1,0.2-0.2
				c0.1-0.1,0.2-0.3,0.3-0.4c0.1-0.1,0.2-0.2,0.2-0.3c0-0.1,0.1-0.1,0.2-0.1c0.1-0.1,0.2-0.3,0.3-0.4h0c0.1,0,0.1-0.1,0.2-0.2
				c0.1-0.1,0.1-0.2,0.2-0.3c0,0,0,0,0-0.1c0.1-0.1,0.1-0.3,0.1-0.4c0,0,0.1,0,0.1-0.1c0.2,0.1,0.3,0.2,0.5,0.2
				c0.2,0.1,0.5,0.2,0.7,0.3c0.5,0.1,1.1,0.2,1.8,0.1c0.1,0,0.3,0,0.4,0c0.3,0,0.5-0.1,0.8-0.1c0,0,0.1,0,0.1,0
				c0.2-0.1,0.5-0.1,0.7-0.2c0.3,0,0.5-0.1,0.8-0.1C114.9,45.4,115.1,45.4,115.3,45.3z M118.7,61.2c0.7-1.3,1.8-1.7,3.3-1.4
				c3.6,2.7,2.9,3.9-2.1,3.6C118.2,63.3,117.8,62.6,118.7,61.2z M136.8,60.5c2.4,3.4,1.8,4.2-2,2.4c-0.5-0.2-0.5-0.7-0.1-1.3
				C135.1,60.8,135.8,60.4,136.8,60.5z"/>
			<path fill-rule="evenodd" clip-rule="evenodd" fill="#CFD1DD" d="M131.7,70.2c0,0.1-0.1,0.2-0.1,0.3c-0.1,0.1-0.1,0.2-0.1,0.4
				c0,0.1-0.1,0.2-0.2,0.4c-0.1,0.4-0.2,0.8-0.3,1.2c-0.1,0.1-0.1,0.3-0.2,0.4c-0.1,0.3-0.2,0.7-0.3,1c0,0.2-0.1,0.3-0.2,0.5
				c-0.1,0.1-0.1,0.3-0.1,0.4c-0.1,0.4-0.3,0.7-0.3,1c0,0.1-0.1,0.2-0.1,0.3c-0.2,0-0.5-0.1-0.7-0.1c-0.4,0-0.9-0.1-1.3-0.2
				c-0.4-0.1-0.9-0.2-1.3-0.3c-0.4-0.1-0.8-0.2-1.3-0.3c-0.5-0.1-1.1-0.2-1.6-0.3c-0.1,0-0.2,0-0.3,0c-0.3-0.1-0.6-0.1-1-0.2h0
				c-0.2,0-0.3-0.1-0.4-0.1c-0.6-0.1-1.3-0.2-1.9-0.3c-0.5-0.1-1.1-0.2-1.7-0.3c-0.5-0.1-0.9-0.2-1.3-0.3c-0.6-0.1-1.2-0.2-1.8-0.3
				c-0.5-0.1-0.9-0.2-1.3-0.3c-0.1,0-0.2,0-0.4-0.1c-0.3,0-0.5-0.1-0.8-0.1c-0.5-0.1-0.9-0.2-1.4-0.3c-0.6-0.1-1.2-0.2-1.7-0.2
				c-0.1,0-0.2-0.1-0.3-0.1c-0.1,0-0.2,0-0.3-0.1c-0.2,0-0.4-0.1-0.6-0.1c-0.6-0.1-1.2-0.3-1.8-0.4c-0.2,0-0.3-0.1-0.4-0.1
				c-0.4-0.1-0.7-0.1-1-0.1l-0.1-0.1c-0.2,0-0.4,0-0.5,0c-0.5-0.1-1-0.2-1.5-0.3c-0.6-0.1-1.2-0.2-1.7-0.4c-0.1,0-0.2,0-0.3-0.1
				l-0.9,0.1L99.8,71c-0.3-0.2-0.6-0.3-0.8-0.4h-0.1c-0.1-0.1-0.2-0.1-0.3-0.1c-0.2-0.1-0.4-0.1-0.4-0.1c-0.1-0.1-0.3-0.1-0.4-0.1
				c-0.7-0.2-1.3-0.4-1.9-0.6c-0.5-0.2-1.1-0.4-1.8-0.6c-0.6-0.2-1.3-0.4-2.1-0.6c-0.1,0-0.3,0-0.4-0.1c-0.3-0.1-0.5-0.1-0.8-0.2
				l0-0.2c0,0-0.1,0-0.3,0s-0.3-0.1-0.6-0.1c-0.5-0.2-1.1-0.3-1.7-0.4c-0.1-0.1-0.1-0.1-0.3-0.1c-0.2,0-0.5-0.1-0.7-0.1
				c-0.3-0.1-0.6-0.1-1-0.2l-3.6-1.9c0-0.1,0-0.2,0-0.3c0-0.1,0.1-0.1,0.1-0.2c0-0.3-0.1-0.5-0.3-0.6c0-0.1-0.2-0.2-0.4-0.3L80,63.3
				L79.9,63l-0.3-0.2l-1.7-2.3c0.2-0.3,0.3-0.7,0.5-1c0.1-0.1,0.1-0.3,0.2-0.5c0,0,0.1-0.1,0.1-0.1c0.5-0.3,0.9-0.7,1.3-1.1
				c0.2-0.2,0.4-0.5,0.6-0.8c0.1,0,0.1,0,0.2,0c0.3-0.1,0.7-0.2,1-0.3c0.1-0.1,0.2-0.1,0.3-0.1c0.1,0,0.1-0.1,0.2-0.1
				c0.9-0.1,1.6-0.5,2.1-1c0.1-0.1,0.1-0.1,0.1-0.3c0.3-0.3,0.5-0.7,0.7-1.1c0,0,0-0.1,0-0.1c0.1-0.1,0.2-0.3,0.3-0.4
				c0.1,0,0.1-0.1,0.2-0.1c0.5-0.1,1-0.4,1.5-0.6c0.4,0,0.8,0,1.3-0.1c0.1,0,0.3,0,0.3,0c0,0,0.1,0,0.1,0c0.3,0,0.6,0,0.9,0
				c0.5,0.1,1.1,0.1,1.8,0c0.2,0,0.4,0,0.5,0c0.2-0.1,0.4-0.1,0.6-0.2c0,0,0,0.1,0,0.1c0,0,0,0.1,0,0.1c0,0.1-0.1,0.3-0.1,0.4
				c0,0.2,0,0.3,0,0.5c0,0.5-0.1,1-0.1,1.5c0,0,0,0.1,0,0.1c0,0.5,0.1,0.9,0.2,1.4c0,0.1,0,0.2,0,0.3c0.1,0.3,0.1,0.5,0.3,0.7
				c0.1,0.4,0.3,0.8,0.5,1.1c0.1,0.3,0.3,0.5,0.5,0.8c-1.3,1.3,0,2.6,3.6,3.9c0.8,0.2,1.4,0.1,1.8-0.1c0.2-0.1,0.3-0.3,0.5-0.4
				c0.2,0,0.3,0.1,0.5,0.1c0.4,0.1,0.8,0.2,1.3,0.3c0.4,0.1,0.8,0.2,1.2,0.3c-0.1,0.4,0.1,0.7,0.6,0.9c2.6,1,3.8,1,3.6,0
				c0.1,0,0.2,0,0.3,0c0.1,0,0.3,0,0.4,0c0.4,0.1,0.7,0.2,1,0.3c0.2,0.1,0.5,0.1,0.8,0.2c0.2,0,0.5,0.1,0.8,0.1
				c0.2,0,0.3,0.1,0.5,0.1c-0.2,0.8,0.1,1.2,1,1.3c2.4,0.4,3.7,0.2,3.8-0.4h0c0.5,0.1,0.9,0.1,1.3,0.3c0,0.3,0.1,0.5,0.4,0.6
				c2.6,1.3,3.8,1.3,3.5,0.1c0.7,0.1,1.3,0.3,1.9,0.4c0.5,0.1,0.9,0.1,1.3,0.3c0.1,0,0.1,0,0.2,0c0.4,0.1,0.8,0.2,1.2,0.3
				c0.1,0,0.2,0,0.3,0c0.4,0.1,0.8,0.1,1.1,0.2c0.7,0.1,1.3,0.2,1.9,0.3c0.2,0,0.3,0.1,0.4,0.1c0.2,0,0.3,0.1,0.5,0.1
				c0.3,0,0.6,0.1,1,0.1c-0.2,0.5-0.1,0.9,0.4,1.1C131.3,70,131.5,70.1,131.7,70.2z"/>
			<path fill-rule="evenodd" clip-rule="evenodd" fill="#EFEFF9" d="M98.2,70.4c0.1,0,0.3,0,0.4,0.1c0.1,0,0.1,0,0.3,0.1H99
				c0.2,0.1,0.5,0.2,0.8,0.4h-0.3c-0.2-0.1-0.5-0.2-0.6-0.4c-0.1,0-0.2,0-0.3-0.1C98.4,70.5,98.3,70.4,98.2,70.4z"/>
		</g>
	</g>
	<g>
		<g>
			<path fill-rule="evenodd" clip-rule="evenodd" fill="#E8E8F4" d="M181.6,93.3c0-3,0.3-5.6,0.9-7.9c0.3,1.6,0.5,3.1,0.5,4.6
				c0,0.5,0,0.8-0.1,0.9h-0.1l-0.2,0.2c0,0-0.1,0.1-0.1,0.2c0.4,0.3,0.6,0.7,0.8,1.2c0.2,1.1,0.5,1.9,0.7,2.6l-0.3,0.3
				c-0.2,0.2-0.5,0.3-1,0.3c-0.4,0-0.7-0.1-1-0.3c0-0.6-0.1-1.2-0.1-1.8C181.6,93.4,181.6,93.4,181.6,93.3L181.6,93.3z M192.5,199.5
				c0.3,0.3,0.6,0.7,0.9,1.3c-0.1,0.3-0.2,0.6-0.3,0.7c-0.1,0.3-0.5,0.5-1,0.5c-0.7,0-1.4-0.2-2.1-0.6c0,0.1,0.1,0.3,0.1,0.5
				c-0.1,0-0.2,0-0.4,0c-1.3,0-1.9,0.7-1.9,2c0,1.1,0.6,1.7,2,1.7c0.2,0,0.3,0,0.5-0.1c0,1.6-0.1,3-0.2,4.1
				c-1.9,0.7-2.8,1.6-2.8,2.9c0,0,0.1,0.4,0.2,1.1c0.3,0.7,1,1,2,1c0,0,0.1,0,0.1,0c0.1,1.8,0.1,2.8,0.1,2.9c0,0.7-0.1,1.3-0.2,1.8
				c-0.3,0.2-0.7,0.4-1,0.5c-0.1,0.4-0.2,0.9-0.3,1.5c-0.4,1.5-0.6,2.7-0.7,3.4c-0.1,0.1-0.3,0.1-0.4,0.2c-0.1,0.6-0.4,1.4-0.9,2.4
				l-0.8,0.3c-0.2-0.1-0.4-0.2-0.6-0.3c0,0,0-0.1,0-0.1c0-1.3,0-2.5,0-3.8c0.1,0,0.2-0.1,0.4-0.1c0-0.3,0-0.6,0-1.1
				c0-1.5,0.1-2.4,0.2-2.8c0.3-0.5,1-1,2.1-1.7c-0.2-0.5-0.4-1.1-0.5-1.7c-0.2,0.5-0.3,0.9-0.3,1.3c-0.1,0-0.3,0.1-0.5,0.3
				c-0.3,0.2-0.6,0.3-0.8,0.4c-0.2-0.1-0.4-0.3-0.5-0.3c0-1.9,0-3.8,0-5.6c0.2,0,0.4,0,0.6,0c-0.1-0.4-0.3-0.8-0.3-1.2
				c0.2-0.5,0.3-0.8,0.3-1.1c0-0.7-0.2-1.2-0.5-1.5c0-0.8,0-1.6,0-2.5v0c1.1,0.1,2,0.5,2.8,1.4c0-0.5,0-1.1,0-1.9
				c0-1.7,0.1-2.9,0.3-3.7c0.1,0,0.3,0,0.4,0c0.7,0,1.7-0.4,3-1.3C192,199.9,192.3,199.7,192.5,199.5z M195.5,187.9
				c0,2.3,0,4.9,0,7.8c-0.1,0.4-0.1,0.7-0.2,1c-0.4,0.2-0.7,0.3-1,0.4c-0.4-0.4-0.8-0.8-1-1.4c-0.2-0.4-0.3-0.7-0.3-1
				c0-0.9,0.3-2.1,0.8-3.7c0.4-1,0.8-1.7,1.2-2.3c0-0.3,0.1-0.5,0.2-0.6C195.2,188,195.3,188,195.5,187.9z M185.3,198.5
				c0.1,0.3,0.2,0.8,0.2,1.5c0,0.4-0.1,0.8-0.2,1.3C185.2,200.3,185.2,199.4,185.3,198.5z M185,231.8c0,0,0.1-0.1,0.2-0.1
				c0.2,0.1,0.5,0.2,0.8,0.2c0.3,0.1,0.4,0.4,0.4,0.9c0,0.4-0.2,0.9-0.5,1.4c-0.3,0.5-0.5,0.9-0.5,1.3c0,1,0.3,2.4,1,4.3
				c0.2,0.6,0.4,1.1,0.5,1.5c0-1.4,0.4-2,1.3-2c0.8,0,1.3,0.7,1.3,2c0,0.7-0.1,1.3-0.2,1.8c-0.4,0.2-0.7,0.4-1,0.5
				c-0.3-0.3-0.6-0.6-0.8-1l0.1,0.1c0,0.5,0,0.8-0.1,0.9h-0.1L187,244c-0.1,0.1-0.3,0.1-0.6,0.1v4.1c0.3,1.7,0.5,3.3,0.5,4.8
				c0,0.5,0,0.8-0.1,0.9h-0.1l-0.2,0.2c0,0-0.1,0.1-0.1,0.2c0.4,0.3,0.6,0.7,0.8,1.2c0.2,1.1,0.5,1.9,0.7,2.6l-0.3,0.3
				c-0.2,0.2-0.5,0.3-1,0.3c-0.9,0-1.6-0.5-2-1.5c-0.1-0.2-0.1-0.5-0.2-0.6c0.1-8,0.2-15.2,0.3-21.6
				C184.9,233.7,184.9,232.7,185,231.8z"/>
			<path fill-rule="evenodd" clip-rule="evenodd" fill="#FFFFFF" d="M181.8,98.6c0.1,0,0.3,0,0.4,0.1c0,0,0,0.1,0.1,0.1
				c0.1,0,0.1,0.3,0.1,0.8c0,0.2-0.2,0.4-0.5,0.8c0,0.1,0,0.3,0,0.4c0,0.3,0,0.5,0,0.8c0-0.3-0.1-0.6-0.1-0.9
				c-0.1-0.7-0.1-1.6-0.1-2.7C181.7,98.1,181.8,98.4,181.8,98.6z M188.5,81.4c-0.3,0-0.5,0-0.8,0.1c-0.5,0.1-0.9,0.3-1.3,0.5
				c0-0.2-0.1-0.4-0.1-0.6c-0.1-0.3-0.2-0.6-0.3-1h0C186.7,79.7,187.5,80,188.5,81.4z M185.1,83.6c-0.1,0.2-0.1,0.5-0.1,0.8
				c-0.1,0.4,0,0.8,0.2,1.1c0.2,0.4,0.6,0.7,1.2,0.9c-0.3,0.6-0.4,1.1-0.4,1.4c-0.1,0-0.3,0.1-0.5,0.3c-0.3,0.2-0.6,0.3-0.8,0.4
				c-0.4-0.4-0.8-0.8-1-1.4c-0.2-0.4-0.3-0.7-0.3-0.9c0-1,0.1-1.6,0.2-1.9C183.9,83.9,184.4,83.6,185.1,83.6z M186.7,86.5
				c0.3,0,0.6,0,1,0c0.5,0,0.9,0,1.3-0.1c0,0.1,0,0.1,0,0.2c0.1,0,0.3,0.1,0.6,0.1c0.3,0.1,0.4,0.4,0.4,0.9c0,1.1-0.2,2.7-0.5,4.7
				c-0.3,2-0.5,3.9-0.5,5.6c-0.5,0.3-0.9,0.5-1.3,0.7c-0.6-0.4-1-1.2-1.2-2.2c-0.1-0.3-0.1-1-0.1-2.1c-0.1,0-0.2,0-0.3,0
				c-1,0-1.6-0.4-1.8-1.4c-0.1-0.4-0.1-0.8,0-1c0-1.3,0.3-2,1-2c0.4,0,0.7,0.3,1,0.8c0-0.4,0-0.7,0-0.8c0.1-0.8,0.4-1.5,0.9-2.1
				C187.1,87.3,186.8,86.9,186.7,86.5z M189.6,92c0.2-0.5,0.6-0.9,1.1-1.3c0.5,0.5,0.8,1,1.1,1.3c0.1,0.4,0.1,0.9,0.2,1.3
				c0.1,0.6,0.2,1.2,0.3,1.9c0,0-0.1,0.1-0.1,0.1c-0.1,0.2-0.5,0.3-1,0.3c-0.7,0-1.2-0.4-1.5-1.3c-0.2-0.5-0.3-1-0.3-1.5
				C189.4,92.6,189.5,92.4,189.6,92z M190,105.8c-0.1-0.2-0.2-0.4-0.3-0.6c-0.2-0.4-0.3-0.7-0.3-0.9c0-0.9,0.3-2.1,0.8-3.7
				c0.4-1,0.8-1.7,1.2-2.3c0-0.3,0.1-0.5,0.2-0.6c0.2-0.2,0.5-0.4,0.9-0.4c0.1,1.2,0.3,2.6,0.5,4c-0.1,0.2-0.1,0.3-0.2,0.5
				c-0.5,1.7-0.8,3-1,4.1C191.3,105.6,190.7,105.6,190,105.8z M186.9,114c0,0.2,0,0.4,0,0.6c0,1.8-0.1,3.3-0.2,4.5
				c-0.3,0.1-0.5,0.3-0.8,0.4c0.1,0.4,0.2,0.7,0.3,1.1c0.1,3.2,0.2,5.1,0.3,5.9c-0.4-0.5-1-0.7-2-0.8c-0.1,0-0.1,0-0.2,0
				c-0.3-2.2-0.5-4.2-0.7-6.2c0.8,0,1.3-0.1,1.7-0.3c0.7-0.3,1-0.8,1-1.5c0-1.2-0.6-1.9-1.8-2.1c0-0.3,0-0.6,0-1
				c0-2.6,0.3-4.2,0.8-4.8c0.4,0.4,1.2,0.6,2.4,0.6c0.6,0,1.3-0.1,2.1-0.5c0,0,0.1,0.1,0.1,0.2c-0.1,0.3-0.1,0.5-0.2,0.6
				c-0.2-0.1-0.5-0.1-0.8-0.1c-0.7,0-1.3,0.1-1.7,0.4c-0.2-0.1-0.4-0.2-0.6-0.4c0.1,0.2,0.1,0.5,0.2,0.9c-0.2,0.3-0.3,0.7-0.3,1.1
				c0,0.5,0,0.8,0.2,1C186.7,113.8,186.8,113.9,186.9,114z M183.4,115.5c-0.1,0-0.1,0-0.2,0h0c0,0-0.1-0.1-0.1-0.1
				C183.2,115.4,183.3,115.5,183.4,115.5z M188.9,106c-1.4,0.4-2.4,0.8-3,1.3c-0.1-0.6-0.1-1,0-1.4c0-2.1,0.5-3,1.5-2.6
				C188.3,103.5,188.8,104.5,188.9,106z M191,113.8c0.2-0.3,0.3-0.6,0.3-1c0-0.1,0-0.3,0-0.4c0.1-0.1,0.2-0.2,0.3-0.2
				c0-0.1,0-0.2,0-0.3c-0.1-0.3-0.1-1.1-0.1-2.3c0-0.1,0-0.1,0-0.2c0.9-0.5,1.3-1.1,1.3-1.6c0-0.9-0.3-1.5-0.9-1.8
				c0.2-0.4,0.5-0.6,0.8-0.6c0.3,0,0.5,0.2,0.7,0.6c0,0.6,0.1,1.2,0.1,1.7c0.2,2.5,0.3,4.7,0.5,6.7c-1.1,0.3-1.7,0.5-1.8,0.5
				c-0.5-0.2-0.8-0.3-0.9-0.4C191.1,114.2,191,114,191,113.8z M188.7,134.5c0.1,0.7,0.2,1.3,0.2,1.8c0,0.9-0.1,1.5-0.2,2
				c-0.4,0.2-0.7,0.4-1,0.5c-0.9-0.7-1.5-1.8-1.7-3.3c-0.1-0.4-0.1-1.6-0.1-3.6c0-1.3,0.1-2.2,0.2-2.8c0.1-0.5,0.3-0.7,0.5-0.5
				c0.2,0.2,0.5,0.7,0.9,1.6c0,0.1,0.1,0.2,0.1,0.3c-0.7,0.4-1.1,1-1.1,1.9c0,0.5,0.1,0.9,0.2,1.1c0.3,0.7,0.9,1,1.8,1
				C188.5,134.5,188.6,134.5,188.7,134.5z M184.6,129.5c0.2,0,0.4,0,0.6,0c-0.1,0.3-0.2,0.7-0.3,1.2c-0.1,0.4-0.2,0.8-0.3,1.1
				C184.6,131,184.6,130.3,184.6,129.5z M185.8,103.1c0.1,0,0.1,0.3,0.1,0.8c0,0.3-0.3,0.8-0.9,1.4c-0.5,0.6-1,1.1-1.3,1.3
				c-0.6-0.2-1-0.5-1.2-1c-0.1-0.2-0.1-0.5-0.1-1.1c0-0.9,0.1-1.4,0.2-1.5c0.4-0.3,1.4-0.3,3.1,0C185.7,103,185.7,103.1,185.8,103.1
				z M188,119.9c0.1-1.1,0.5-1.9,1.2-2.2c0.6,0.2,1,0.6,1.3,1v7.5c-0.5,0.2-0.9,0.4-1.3,0.6c-0.6-0.4-1-1.1-1.2-2.2
				c-0.1-0.4-0.1-1.2-0.1-2.3C187.9,121,187.9,120.2,188,119.9z M194.3,132.2v3.1c-0.2,0-0.4,0-0.6,0c-1,0-1.7-1.1-2.3-3.2
				c-0.3-1-0.4-2-0.5-3c0-3.7,0.7-4.1,2-1C193.5,129.9,194,131.3,194.3,132.2z M185.2,141.6c0.6,0.3,1,0.6,1.3,1v4.6
				c-0.5,0.2-0.9,0.4-1.3,0.6c-0.1-0.1-0.3-0.1-0.4-0.3c0-1.9,0-3.8,0-5.6C184.8,141.8,185,141.7,185.2,141.6z M192.4,142.7
				c-0.4-0.7-1.3-0.7-2.6-0.1c0.3-1.2,0.8-2,1.4-2.4c0.6,0.3,1,1.1,1.2,2.2C192.3,142.5,192.4,142.6,192.4,142.7z M189.4,148.5
				c1.5-0.1,2.3-0.7,2.3-1.9c0-0.4,0.2-0.8,0.5-1.2c0.1-0.1,0.1-0.1,0.2-0.2c-0.2,2.8-0.8,4.7-1.8,5.5c-0.8-0.8-1.3-1.3-1.3-1.4
				C189.4,149.1,189.4,148.8,189.4,148.5z M194.5,146.5c-0.4,0.8-0.6,1.6-0.8,2.3c-0.1-0.3-0.2-0.7-0.3-1.1c-0.3-1.5-0.5-3-0.5-4.5
				c0-1.1,0.1-1.7,0.2-1.9c0.2-0.4,0.6-0.8,1.3-1.2C194.4,142.2,194.4,144.4,194.5,146.5z M194.8,159.2l-0.1,0.2
				c-0.2,0.2-0.5,0.3-1,0.3c-0.6,0-1.1-0.3-1.7-1c-0.5-0.6-0.9-1.1-1-1.7c0.9-0.4,1.7-0.4,2.4,0c0.7,0.3,1.2,0.9,1.5,1.7
				C194.8,158.9,194.8,159,194.8,159.2z M186.8,150.9c0.1,0,0.1,0.3,0.1,0.8c0,0.7-0.3,1.7-1,3l-0.8,0.3c-0.1,0-0.2-0.1-0.3-0.1
				c0-1.4-0.1-2.8-0.1-4.1c0.4-0.1,1-0.1,1.8,0.1C186.7,150.8,186.7,150.9,186.8,150.9z M186.4,162.6c0.5-0.5,0.8-0.8,0.8-1
				c0-0.9-0.4-1.5-1.1-1.8c0.2-0.5,0.6-0.7,1.1-0.6c0.8,0.1,1.3,0.7,1.3,1.9c0,0.6-0.1,1.1-0.2,1.6c-0.4,0.2-0.7,0.3-1,0.4
				C186.8,163,186.6,162.8,186.4,162.6z M194.7,164.7c0,0,0-0.1,0-0.1c0-1.5-0.9-2.1-2.6-1.6c0,0-0.1,0-0.1,0
				c-0.6-0.1-1.2-0.6-1.6-1.5c-0.3-0.7-0.5-1.3-0.5-1.6c0-0.4,0-0.7,0-0.7c0.1-0.1,0.2-0.2,0.2-0.3c0.8,0,1.5,0.3,2.3,0.9
				c0.7,0.6,1.1,1.1,1,1.6l-0.1,0.8c0.3-0.4,0.8-0.8,1.4-1.1c0,0,0.1,0.1,0.1,0.1c0,0.4,0.1,0.7,0.1,1.1c0,0.7,0.1,1.3,0.1,2
				C194.9,164.4,194.8,164.6,194.7,164.7z M187.3,185.7l-0.1,0.1c-0.2,0.2-0.5,0.3-1,0.3c-0.4,0-0.7-0.1-1-0.2
				c0-6.3-0.1-11.4-0.2-15.4c0.4,0.2,0.7,0.5,0.9,0.8v4.5c0.3,1.5,0.5,3,0.5,4.3c-0.2,0.3-0.4,0.8-0.4,1.6c0,0-0.1,0-0.1,0
				c0,0,0.1,0,0.1,0c0,0.2,0,0.5,0,0.7l0.3,1.7C186.4,184.8,186.8,185.3,187.3,185.7z M188.5,174.1c0.6,0.8,1.6,1.3,3,1.3
				c0.5,0,1,0,1.3-0.1c0,0.1-0.1,0.2-0.1,0.4c-0.1,0.5-0.2,0.9-0.3,1.3c0.1,0,0.3,0.1,0.6,0.1c0.3,0.1,0.4,0.4,0.4,0.9
				c0,1.1-0.2,2.7-0.5,4.7c-0.3,2-0.5,3.9-0.5,5.6c-0.5,0.2-0.9,0.4-1.3,0.6c-0.6-0.4-1-1.1-1.2-2.2c0-0.2-0.1-0.7-0.1-1.3l0-0.1
				l0.3-1.4c-0.4-1.6-1-2.8-1.8-3.5c0.1-0.1,0.3-0.2,0.5-0.2c0.4,0,0.7,0.3,1,0.8c0-0.4,0-0.7,0-0.8c0.1-0.8,0.4-1.5,0.9-2
				c-0.3-0.3-0.6-0.7-0.8-1.2c-0.1-0.1-0.1-0.3-0.2-0.4c0,0.1-0.1,0.1-0.1,0.2c-0.3,0.6-0.5,1.1-0.5,1.5c-0.1,0-0.3,0.1-0.5,0.3
				c-0.3,0.2-0.6,0.3-0.8,0.3c-0.4-0.4-0.8-0.8-1-1.3c-0.2-0.4-0.3-0.7-0.3-0.9c0-1,0.1-1.6,0.2-1.8
				C187.4,174.4,187.8,174.2,188.5,174.1z M195.5,178.3c0,0.7,0,1.6,0,2.5c0-0.1,0-0.1,0-0.2c-0.1-0.4-0.1-0.9,0-1.4L195.5,178.3z
				 M188.5,167.3c-1,0.6-1.5,1.4-1.5,2.5c0,0.7,0.3,1.2,0.8,1.4c-0.1,0-0.1,0.1-0.1,0.1c-0.4-0.4-0.8-0.9-1-1.4
				c-0.2-0.4-0.3-0.6-0.3-0.8c0-1.4,0.4-2.1,1.3-2.1C188,166.9,188.3,167,188.5,167.3z M192.7,168.6c0.3,0.1,0.6,0.1,1,0.3
				c0.2-0.5,0.3-0.3,0.3,0.5c0,0.1-0.3,0.6-0.9,1.5c-0.2,0.3-0.3,0.5-0.3,0.9c-0.4-0.2-1-0.5-1.6-0.7c-0.2-0.1-0.4-0.1-0.5-0.1
				C192,170.3,192.7,169.5,192.7,168.6z M194.9,169.2c0-1.2,0.1-2,0.2-2.2c0,1.5,0.1,2.9,0.2,4.3c-0.1-0.2-0.2-0.4-0.3-0.6
				C194.9,170.4,194.9,169.9,194.9,169.2z M195.5,182.8c0,0.9,0,2,0,3.1c-0.2,0.1-0.4,0.1-0.8,0.1c-0.7,0-1.2-0.4-1.5-1.3
				c-0.2-0.5-0.3-1-0.3-1.5c0-0.2,0.1-0.5,0.2-0.8c0.2-0.5,0.6-0.9,1.1-1.3C194.8,181.9,195.2,182.5,195.5,182.8z M185.7,189.2
				c0,0,0,0.1,0.1,0.1c0.1,0,0.1,0.3,0.1,0.8c0,0.2-0.2,0.4-0.5,0.8c0,0.1,0,0.3,0,0.4c0,1.6-0.1,2.9-0.2,3.8c0-2.2,0-4.4,0-6.4
				c0,0.2,0,0.4,0,0.6C185.4,189.2,185.5,189.2,185.7,189.2z M186,196.2c-0.1-0.2-0.1-0.5-0.1-1.1c0-0.9,0.1-1.4,0.2-1.5
				c0.4-0.3,1.4-0.3,3.1,0c0,0,0,0.1,0.1,0.1c0.1,0,0.1,0.3,0.1,0.8c0,0.3-0.3,0.8-0.9,1.5c-0.5,0.6-1,1.1-1.3,1.3
				C186.5,196.9,186.1,196.6,186,196.2z M189.3,196.9c0-0.2,0-0.4,0.1-0.5c0-2.1,0.5-3,1.5-2.7c0.8,0.3,1.2,0.9,1.4,2
				c-0.6,0-1.3,0.2-2.2,0.7C189.8,196.6,189.6,196.7,189.3,196.9z M191.4,213.7C191.4,213.7,191.5,213.6,191.4,213.7
				c1.2-0.8,1.8-1.6,1.8-2.6c0-1.3-0.5-1.9-1.4-2c0.2-0.4,0.4-0.8,0.8-0.9c0.6,0.2,1,0.5,1.3,0.9v7.6c-0.5,0.2-0.9,0.4-1.3,0.6
				c-0.6-0.3-1-1.1-1.2-2.2C191.5,214.8,191.4,214.3,191.4,213.7z M195.4,196.3c0,0.1,0,0.2,0,0.3c0,0.3,0,0.7,0,1
				c0,0.4,0,0.8,0,1.3c0,2.1,0,4.1,0,6.3c-0.3-0.1-0.6-0.2-0.7-0.3c-0.2-0.2-0.3-0.6-0.3-1.2c0-0.6,0.2-1,0.6-1.2c0-0.1,0-0.2,0-0.3
				c-0.1-0.3-0.1-1.1-0.1-2.2C194.9,198.2,195.1,197,195.4,196.3L195.4,196.3z M190.9,220.7c1,2.7,1.5,4.7,1.5,6
				c0,0.9-0.1,1.5-0.2,2c-0.4,0.2-0.7,0.4-1,0.5c-0.9-0.7-1.5-1.8-1.7-3.3c-0.1-0.4-0.1-1.6-0.1-3.6
				C189.4,218.6,189.9,218.1,190.9,220.7z M194.5,217.7c0.1-0.9,0.4-1.3,0.8-1c0,0.1,0,0.2,0,0.3C195,217.3,194.7,217.5,194.5,217.7
				z M194.7,221.9c0.1,0,0.1,0,0.2,0c0.1,0,0.2,0,0.3,0c0,0.3,0,0.6,0,0.9c0,0.3,0,0.6,0,1c-0.1-0.3-0.2-0.7-0.3-1
				C194.8,222.4,194.8,222.2,194.7,221.9z M190.9,234c-0.3-0.7-0.5-1.3-0.5-1.7c0-0.4,0-0.7,0-0.7c0.1-0.1,0.2-0.2,0.2-0.3
				c0.8,0,1.5,0.3,2.3,0.8c0.2,0.2,0.4,0.3,0.5,0.5c0.1-0.3,0.1-0.5,0.3-0.7c-0.4-0.2-0.8-0.5-1.2-0.9c-0.5-0.6-0.9-1.1-1-1.7
				c0.9-0.4,1.7-0.4,2.4,0c0.6,0.3,1.1,0.8,1.5,1.6c0,2.2,0,4.5,0,6.8c-1.3-0.2-1.9,0.4-1.9,1.8c0,0.3,0.1,0.8,0.5,1.5
				c-0.7-0.7-1-1-1-1.1c0-1.2,0-2.2,0-3c0-0.1,0-0.2,0-0.3c0-0.2,0-0.4,0-0.6c0-0.2,0-0.4,0-0.6c-0.1,0-0.2,0-0.3,0
				C192.7,234.2,192.1,233.7,190.9,234z M194.4,241.8C194.4,241.8,194.4,241.8,194.4,241.8c0,0.2-0.3,0.7-0.9,1.5
				c-0.4,0.6-0.5,1.3-0.3,2.1c0,0,0.1,0.2,0.1,0.4v0c0,0.1,0,0.2,0,0.4c0,0.4-0.1,1.1-0.3,2c-0.1,0.5-0.2,0.9-0.3,1.3
				c0.1,0,0.3,0.1,0.6,0.1c0.3,0.1,0.4,0.4,0.4,0.9c0,1.1-0.2,2.7-0.5,4.7c-0.3,2-0.5,3.9-0.5,5.6c-0.5,0.3-0.9,0.5-1.3,0.7
				c-0.1-0.1-0.1-0.1-0.2-0.2c-0.1-0.1-0.2-0.2-0.3-0.3c-0.3-0.4-0.6-1-0.7-1.7c-0.1-0.3-0.1-1-0.1-2.1c-0.1,0-0.2,0-0.3,0
				c-1,0-1.6-0.4-1.8-1.3c-0.1-0.4-0.1-0.8,0-1c0-1.3,0.3-2,1-2c0.2,0,0.3,0.1,0.5,0.2c-0.4,0.4-0.5,0.9-0.5,1.8c0,0.1,0,0.5,0,1.3
				c0.2,0.7,0.8,1,2,1c0.7,0,1.2-0.2,1.5-0.7c0.2-0.4,0.3-1,0.3-1.8c0-1.6-0.6-2.3-1.9-2.2c-0.3,0-0.5,0-0.8,0.2
				c0.1-0.7,0.4-1.4,0.8-1.9c-0.3-0.4-0.6-0.8-0.8-1.2c-0.1-0.1-0.1-0.3-0.2-0.4c0,0.1-0.1,0.1-0.1,0.2c-0.3,0.6-0.5,1.1-0.5,1.5
				c-0.1,0-0.3,0.1-0.5,0.3c-0.3,0.2-0.6,0.3-0.8,0.3c-0.4-0.4-0.8-0.8-1-1.3c-0.2-0.4-0.3-0.7-0.3-0.9c0-1,0.1-1.6,0.2-1.8
				c0.4-0.6,1.4-0.8,2.9-0.5c0-0.2,0-0.4,0.1-0.5c0,0,0-0.1,0.1-0.1c-0.1-0.2-0.2-0.4-0.2-0.7c-0.1-0.3-0.1-0.7-0.1-1.1
				c-0.2-0.3-0.3-0.8-0.4-1.3c-0.1-0.7-0.1-1.2,0-1.6c0-1.7,0.5-2.4,1.4-2.1c0.6,0.2,1,0.7,1.3,1.7c0.4,0.1,0.9,0.2,1.5,0.4
				C194.2,241.5,194.3,241.6,194.4,241.8z M188.8,268.6c-0.1-0.9-0.5-1.4-1-1.4c-0.4,0-0.8,0.1-1.3,0.5c0-0.1,0-0.2,0-0.3
				c0-0.9,0.1-1.4,0.2-1.5c0.1,0,0.1-0.1,0.2-0.1c0.3,0,0.5,0,0.9,0c0.2,0,0.5,0,0.8-0.2c0.3,0,0.7,0.1,1.2,0.2c0,0,0,0.1,0.1,0.1
				c0.1,0,0.1,0.3,0.1,0.8c0,0.3-0.3,0.8-0.9,1.5C188.9,268.3,188.8,268.5,188.8,268.6z M192.8,270.7c-0.2,0-0.5,0-0.6,0
				c-0.8,0.1-1.4,0.3-1.9,0.5c-0.2-0.2-0.3-0.5-0.3-1c-0.1-0.6-0.1-1,0-1.4c0-2.1,0.5-3,1.5-2.6c1,0.3,1.5,1.4,1.5,3.1
				c0,0.4,0,0.8-0.1,1.1C192.8,270.5,192.8,270.5,192.8,270.7z M186.4,262.5c-0.6,0.5-0.9,1.1-0.9,1.8c0,0.5,0,0.8,0.2,1
				c0.1,0.1,0.1,0.2,0.3,0.3c-0.1,0.9-0.1,1.6-0.2,2.2c-0.4,0.2-0.7,0.3-1,0.4c-0.1,0-0.2-0.1-0.3-0.1c0-3,0.1-5.9,0.1-8.7
				c0.1,0,0.1,0,0.2,0c0.6,0,1,0.8,1.1,2.4c0.1,0,0.3,0,0.4,0.1c0,0,0,0.1,0.1,0.1C186.4,261.8,186.4,262,186.4,262.5z M192.3,296
				c0.2,0.7,0.3,1.3,0.5,1.8c-0.2,0.5-0.3,1.2-0.3,2v0.1c-0.2,0-0.4,0.1-0.6,0.1c0.1,0.4,0.3,0.8,0.6,1.3c-0.3,0.2-0.6,0.3-0.9,0.4
				c-0.9-0.7-1.5-1.8-1.7-3.3c-0.1-0.4-0.1-1.6-0.1-3.6c0-3.8,0.5-4.3,1.5-1.6c0,0.1,0.1,0.2,0.1,0.3c0,0.3,0,0.7,0.1,1.4
				C191.8,295.3,192,295.7,192.3,296z M194.4,288.5c-0.5,0.4-0.9,0.8-1.3,1.2c-0.6-0.4-1-1.1-1.2-2.2c-0.1-0.4-0.1-1.2-0.1-2.3
				c0-1.2,0-2,0.1-2.4c0.1-1.1,0.5-1.9,1.2-2.2c0.6,0.2,1,0.6,1.3,1V288.5z M184.7,278.5c0.3-0.5,0.5-1,0.8-1.5c0,0.1,0,0.2,0,0.4
				c0,0.2-0.1,0.4-0.2,0.6c1.3,0,2.4,0.5,3.2,1.5c0-0.5,0-1.1,0-1.9c0-1.4,0.1-2.5,0.3-3.3c0,0,0,0.1,0,0.2c0.3,0.7,1,1,2,1
				c0.1,0,0.1,0,0.2,0c0,0.6,0.1,1.3,0.1,2.1c0,1.8-0.1,3.3-0.2,4.5c-0.3,0.1-0.5,0.3-0.8,0.4c0.1,0.4,0.2,0.7,0.3,1.1
				c0.2,3.9,0.3,6,0.3,6.3c0,0.7-0.1,1.3-0.2,1.8c-0.3,0.2-0.7,0.4-1,0.5c-0.1,0.4-0.2,0.9-0.3,1.5c0,0.1-0.1,0.2-0.1,0.4
				c0,0,0.1,0.3,0.1,0.7c0,0.7-0.3,1.6-0.9,2.7c0,0.1-0.1,0.2-0.1,0.3l-0.8,0.3c-0.6-0.2-1-0.5-1.2-1c-0.1-0.2-0.1-0.5-0.1-1.2
				c0-0.8,0.1-1.4,0.2-1.6c0.2-0.3,0.4-0.4,0.8-0.5c0,0,0.1,0,0.1,0c-0.5-0.1-0.8-0.1-1.1,0c0-1.1,0.1-1.8,0.2-2
				c0.3-0.5,1-1.1,2.1-1.7c-0.2-0.5-0.4-1.1-0.5-1.7c-0.2,0.5-0.3,0.9-0.3,1.3c-0.1,0-0.3,0.1-0.5,0.3c-0.3,0.2-0.6,0.3-0.8,0.4
				c-0.6-0.4-1-0.9-1.2-1.5c-0.1-0.2-0.1-0.8-0.1-1.7l0-2.8c0.5,0,1,0,1.3,0.1c-0.9-2.9-1.4-4.7-1.4-5.4c0-0.3,0-0.5,0-0.6
				C184.8,278.4,184.8,278.4,184.7,278.5z M195.5,273.3c0,0.5,0,1,0,1.5c0-0.2-0.1-0.7-0.1-1.3C195.5,273.3,195.5,273.3,195.5,273.3
				z M195.6,271.7c-0.1-0.1-0.1-0.2-0.1-0.3c0-0.7,0.1-1.2,0.1-1.7c0,0,0,0.1,0,0.2C195.6,270.5,195.6,271.1,195.6,271.7z
				 M189.9,234.3c-1.5,0.6-2.3,1.4-2.4,2.5c-0.1-0.3-0.1-0.7-0.1-1.4c-0.5-0.2-0.8-0.5-0.9-0.9c-0.1-0.2-0.1-0.5-0.1-1.1
				c0-1.3,0.4-1.9,1.3-1.8c0.4,0.1,0.8,0.3,0.9,0.6l0.1,0c0.6,0.2,1,0.5,1.3,0.9V234.3z M195.4,254.5c0,1.3,0,2.6,0,4
				c-0.1,0-0.2,0-0.3,0c-0.7,0-1.2-0.4-1.5-1.3c-0.2-0.5-0.3-1-0.3-1.5c0-0.2,0.1-0.5,0.2-0.8c0.2-0.5,0.6-0.9,1.1-1.3
				C195,254,195.2,254.3,195.4,254.5z M195.5,261c0,2.6,0.1,5.3,0.1,8.2c-0.3,0.1-0.6,0.3-0.9,0.3c-0.4-0.4-0.8-0.9-1-1.5
				c-0.2-0.4-0.3-0.7-0.3-0.9c0-0.9,0.3-2.1,0.8-3.7c0.4-1,0.8-1.7,1.2-2.3C195.5,261.2,195.5,261.1,195.5,261z M195.3,277.3
				c-0.2-0.2-0.3-0.6-0.3-1.1c0-0.5,0.2-0.9,0.6-1.1c0,0.6,0,1.2,0,1.8c0,0.1,0,0.3,0,0.4c0,0.1,0,0.1,0,0.2
				C195.3,277.4,195.3,277.3,195.3,277.3z M192.8,302c0.2,0.6,0.5,1,1,1.3c-0.1,0.9-0.1,1.8-0.2,2.7c-0.4-0.2-0.8-0.7-1.1-1.4
				c-0.3-0.7-0.5-1.3-0.5-1.6c0-0.4,0-0.7,0-0.7c0.1-0.1,0.2-0.2,0.2-0.3C192.3,302,192.5,302,192.8,302z M184.4,282.7
				c0,0.9-0.1,1.6-0.2,2.3c0-1.3,0-2.7,0-4C184.3,281.5,184.4,282,184.4,282.7z M193.3,311c-0.2,3.8-0.3,7.3-0.3,10.8
				c0,0.8,0.1,1.7,0.1,2.5c-0.7,0.5-1.1,1.3-1.1,2.2c0,0.8,0,1.5,0.2,1.9l1,0.4c0,0.3,0,0.7,0,1c0,0,0,0.1,0,0.1c0,0.1,0,0.2,0,0.3
				c0,0.6,0,1.3,0,1.9c0,0-0.1,0-0.1,0c-0.6-0.4-1-1.1-1.2-2.2c-0.1-0.3-0.1-1-0.1-2.1c-0.1,0-0.2,0-0.3,0c-1,0-1.6-0.5-1.8-1.4
				c-0.1-0.4-0.1-0.8,0-1c0-1.3,0.3-2,1-2c0.4,0,0.7,0.3,1,0.8c0-0.4,0-0.7,0-0.8c0.1-0.8,0.4-1.5,0.9-2c-0.3-0.3-0.6-0.7-0.8-1.2
				c-0.1-0.1-0.1-0.3-0.2-0.4c0,0.1-0.1,0.1-0.1,0.2c-0.3,0.6-0.5,1.1-0.5,1.5c-0.1,0-0.3,0.1-0.5,0.3c-0.3,0.2-0.6,0.3-0.8,0.3
				c-0.4-0.4-0.8-0.8-1-1.3c-0.2-0.4-0.3-0.7-0.3-0.9c0-1,0.1-1.6,0.2-1.8c0.4-0.6,1.4-0.8,2.9-0.5c0-0.2,0-0.4,0.1-0.5
				c0,0,0-0.1,0.1-0.1c-0.1-0.2-0.2-0.4-0.2-0.7c-0.1-0.3-0.1-0.7-0.1-1.1c-0.2-0.3-0.3-0.8-0.4-1.3c-0.1-0.7-0.1-1.2,0-1.6
				c0-0.4,0-0.7,0.1-1c0.3,0,0.6,0,0.9,0C192.7,311,193,311,193.3,311z M183.8,313.5c0.6,0,1.1-0.2,1.4-0.6c0.3-0.4,0.5-0.8,0.5-1.3
				c0-0.9-0.5-1.9-1.5-3c0.1,0,0.2,0,0.4,0c0.2,0,0.4,0,0.6,0c-0.4-0.1-0.7-0.2-0.8-0.5c-0.1-0.1-0.2-0.3-0.3-0.5
				c-0.1,0.1-0.1,0.3-0.2,0.5c0-1.5,0-3,0-4.5c0-0.2,0-0.3,0.1-0.4c0.3-0.4,1.1-0.4,2.6-0.1c0.1,0.3,0.2,0.7,0.2,1.3
				c0,0.3,0.1,0.6,0.1,0.9c0,0,0,0.1,0,0.1v0c0,0,0,0.1,0,0.2c0,1-0.1,1.8-0.2,2.5c0,0.1,0,0.2,0,0.3c-0.1,0.1-0.3,0.2-0.7,0.3
				c0.1,0.9,0.4,2.2,1,3.8c0.2,0.5,0.3,1,0.4,1.4c0.2,0.2,0.4,0.3,0.6,0.5v4.5c0.3,1.7,0.5,3.3,0.5,4.8c0,0.5,0,0.8-0.1,0.9h-0.1
				l-0.2,0.2c0,0-0.1,0.1-0.1,0.2c0.4,0.3,0.6,0.7,0.8,1.2c0.2,1.1,0.5,1.9,0.7,2.5l-0.3,0.3c-0.2,0.2-0.5,0.3-1,0.3
				c-0.9,0-1.6-0.5-2-1.5c-0.1-0.5-0.2-0.9-0.3-1.4c-0.1,0-0.2,0-0.3,0c-1,0-1.6-0.4-1.8-1.2c-0.1-0.4-0.1-0.9,0-1.4l0-1.9
				c0.2,0,0.5,0,1-0.1c0.2,0,0.5,0,0.8,0c-0.1-0.5-0.2-1.1-0.3-1.8c-0.2-1.1-0.3-2.2-0.4-3.3c-0.1,0-0.3,0.1-0.3,0.1
				c-0.4-0.2-0.6-0.4-0.8-0.8C183.8,315,183.8,314.3,183.8,313.5z M189.1,310c0,0,0,0.1,0.1,0.1c0.3,0.3,0.8,0.6,1.6,0.7
				c0.1,0.3,0.1,0.7,0.1,1.1c0,0.7-0.1,1.3-0.2,1.8c-0.4,0.2-0.7,0.4-1,0.5c-0.4-0.4-0.8-0.9-1-1.4c-0.2-0.4-0.3-0.6-0.3-0.8
				C188.4,310.9,188.6,310.3,189.1,310z M190.4,307.4c-0.9,0.3-1.4,0.9-1.4,1.8c0,0.3,0,0.6,0.1,0.8c-0.1-0.1-0.3-0.1-0.4-0.1
				c-0.1,0-0.3,0-0.4,0c-0.1-0.2-0.2-0.4-0.3-0.7c-0.1-0.2-0.1-0.7-0.1-1.6c0-0.6,0.1-1.2,0.3-1.7c0.2-0.1,0.3-0.1,0.5-0.1
				c-0.4-0.2-0.6-0.5-0.7-0.8c-0.1-0.2-0.1-0.5-0.1-1.1c0-1.3,0.4-2,1.3-1.8c0.8,0.1,1.3,0.7,1.3,1.9c0,0.2,0,0.4,0,0.7
				c0,0.2-0.1,0.5-0.1,0.7c0,0,0.1,0.1,0.1,0.1V307.4z M184.2,299.8c0,0-0.1,0-0.1,0c0-1.7,0-3.5,0-5.3c0.9,2.5,1.3,3.8,1.3,3.9
				c0,0.5,0,0.8-0.1,0.9h-0.1c0,0.1,0,0.2,0,0.3C185,299.7,184.7,299.8,184.2,299.8z M184.2,327.6c0.2,0.4,0.3,1.1,0.3,2
				c-0.1,0.3-0.2,0.5-0.3,0.6c-0.1,0.2-0.3,0.3-0.7,0.3c0-0.3,0-0.5,0-0.8c0-0.9,0.1-1.9,0.1-2.9C183.9,327.2,184,327.4,184.2,327.6
				z M183.7,332.5c0.3-0.3,0.7-0.4,1.3-0.5c0.2-1.5,0.5-2.3,1.2-2.3c0.6,0,1,0.8,1.1,2.4c0.1,0,0.3,0,0.4,0c0,0,0,0.1,0.1,0.1
				c0.1,0,0.1,0.3,0.1,0.8c0,0.2-0.2,0.4-0.5,0.8c0,0.1,0,0.3,0,0.4c0,1.7-0.1,3-0.2,4c-0.1,0.1-0.2,0.1-0.3,0.1c-0.1,0-0.3,0-0.4,0
				c-0.1,0-0.2-0.1-0.3-0.1c-0.1,0-0.2-0.1-0.3-0.2c-0.3-0.3-0.6-0.7-0.9-1c-0.1-0.2-0.1-0.4-0.2-0.6c0-0.1,0-0.2,0-0.3
				c0,0.2-0.1,0.4-0.2,0.6c-0.1-0.1-0.1-0.2-0.2-0.3c-0.1-0.1-0.3-0.3-0.4-0.5c-0.1-0.1-0.3-0.3-0.5-0.5c-0.1-0.1-0.3-0.4-0.5-0.7
				c0-0.1,0-0.3,0-0.4c0-0.3,0-0.6,0-0.9c0-0.1,0.1-0.1,0.1-0.2C183.5,332.9,183.5,332.7,183.7,332.5z M190.5,336.8
				c-0.7,0.5-1.4,1.1-2.1,1.7h-0.5c0-0.1,0-0.2,0-0.4c0-0.9,0.1-1.4,0.2-1.5c0.3-0.3,1.3-0.3,2.8-0.1
				C190.8,336.5,190.6,336.7,190.5,336.8z"/>
			<path fill-rule="evenodd" clip-rule="evenodd" fill="#C2C2C9" d="M188.5,81.4c0.5,0.7,1.1,1.7,1.8,2.9c0,0.1,0,0.3,0,0.5
				c0,0.9-0.4,1.4-1.3,1.6c-0.4,0.1-0.8,0.1-1.3,0.1c-0.4,0-0.7,0-1,0c-0.1,0-0.2-0.1-0.3-0.1c-0.6-0.2-1-0.5-1.2-0.9
				c-0.2-0.4-0.2-0.8-0.2-1.1c0-0.3,0-0.5,0.1-0.8c0.2-0.7,0.6-1.3,1.3-1.6c0.3-0.2,0.8-0.4,1.3-0.5C188,81.4,188.2,81.4,188.5,81.4
				z M191.8,105.9C191.8,105.9,191.8,105.9,191.8,105.9c0.7,0.4,1,0.9,1,1.9c0,0.6-0.5,1.1-1.3,1.6c-0.3,0.1-0.6,0.3-0.9,0.4
				c-0.2,0.1-0.5,0.2-0.7,0.3c-0.9,0.3-1.6,0.5-2.1,0.5c-1.2,0-2-0.2-2.4-0.6c0-0.1-0.1-0.1-0.1-0.1c-0.1-0.1-0.2-0.5-0.2-1
				c0-0.5,0.3-1,0.9-1.5c0.6-0.5,1.6-0.9,3-1.3c0.4-0.1,0.7-0.2,1-0.3C190.7,105.6,191.3,105.6,191.8,105.9z M191,113.8
				c-0.4,0.5-1,0.8-2,0.8c-1,0-1.6-0.2-2-0.5c-0.1-0.1-0.2-0.2-0.3-0.3c-0.1-0.1-0.2-0.5-0.2-1c0-0.5,0.1-0.9,0.3-1.1
				c0.1-0.2,0.3-0.4,0.5-0.5c0.4-0.3,1-0.4,1.7-0.4c0.3,0,0.6,0.1,0.8,0.1c0.9,0.2,1.4,0.7,1.5,1.4c0,0.1,0,0.3,0,0.4
				C191.3,113.1,191.2,113.5,191,113.8z M184.6,129.5c0-0.2,0-0.4,0-0.6c0,0,0-0.1,0-0.1c-0.1-1.1-0.3-2.1-0.3-3.1
				c0.1,0,0.1,0,0.2,0c0.9,0.1,1.6,0.3,2,0.8c0.2,0.3,0.3,0.7,0.3,1.2c0,0.3-0.1,0.6-0.2,0.9c-0.2-0.2-0.3,0-0.5,0.5
				c-0.3,0.2-0.6,0.3-0.9,0.4C185,129.5,184.8,129.5,184.6,129.5z M188.7,134.5c-0.1,0-0.2,0-0.3,0c-0.9,0-1.5-0.3-1.8-1
				c-0.1-0.3-0.2-0.7-0.2-1.1c0-0.8,0.4-1.4,1.1-1.9c0.3-0.2,0.8-0.4,1.3-0.5c1.6-0.3,2.4,0.2,2.4,1.7c0,0.4-0.3,1-1,1.7
				C189.7,134,189.2,134.4,188.7,134.5z M183.2,115.5L183.2,115.5c0.1,0,0.2,0,0.3,0c0.4,0,0.7,0,1,0.1c1.2,0.2,1.8,0.9,1.8,2.1
				c0,0.7-0.3,1.2-1,1.5c-0.4,0.2-0.9,0.3-1.7,0.3C183.4,118.1,183.3,116.8,183.2,115.5z M189.8,142.6c1.3-0.6,2.2-0.6,2.6,0.1
				c0.2,0.3,0.3,0.8,0.3,1.5c0,0.4-0.1,0.7-0.3,1c-0.1,0.1-0.1,0.1-0.2,0.2c-0.3,0.4-0.5,0.8-0.5,1.2c0,1.2-0.8,1.8-2.3,1.9
				c-0.1,0-0.2,0-0.3,0c-1.3,0-2.1-0.3-2.5-1c-0.2-0.4-0.3-0.8-0.2-1.1c0-1.4,1-2.6,3.1-3.6C189.7,142.7,189.7,142.6,189.8,142.6z
				 M193.7,148.9c0.2-0.7,0.4-1.5,0.8-2.3c0,2,0.1,4,0.2,6.1l-1-0.3c-0.1-0.3-0.2-0.8-0.2-1.6C193.5,150.1,193.5,149.5,193.7,148.9z
				 M186.1,159.8c0.7,0.3,1.1,0.9,1.1,1.8c0,0.2-0.3,0.6-0.8,1c-0.3,0.2-0.6,0.5-1,0.8c-0.1,0.1-0.3,0.2-0.4,0.3c0-1.4,0-2.8,0-4.2
				C185.4,159.6,185.8,159.7,186.1,159.8z M188.5,174.1L188.5,174.1c-0.3-0.5-0.5-1.1-0.5-1.6c0-0.5,0.1-0.9,0.3-1.1
				c-0.2-0.1-0.4-0.1-0.5-0.2c-0.6-0.3-0.8-0.8-0.8-1.4c0-1.1,0.5-1.9,1.5-2.5c0.3-0.2,0.7-0.3,1.2-0.5c-0.1-0.6-0.2-0.9-0.2-0.9
				c0-1.4,0.8-2.3,2.5-2.8c0,0,0.1,0,0.1,0c1.7-0.5,2.6,0.1,2.6,1.6c0,0,0,0.1,0,0.1c-0.1,0.6-0.9,1.4-2.3,2.5
				c0.2,0.3,0.3,0.8,0.3,1.4v0c0,0.9-0.7,1.6-2.2,2.3c0.2,0,0.4,0.1,0.5,0.1c0.6,0.2,1.2,0.4,1.6,0.7c1,0.5,1.5,1.1,1.5,1.9
				c0,0.8-0.3,1.3-1,1.6c-0.1,0-0.3,0.1-0.5,0.1c-0.4,0-0.8,0.1-1.3,0.1C190,175.4,189,175,188.5,174.1z M188.5,180.5
				c0.7,0.7,1.3,1.9,1.8,3.5l-0.3,1.4l0,0.1l-0.4,0.3c-0.3,0.2-0.6,0.3-1.1,0.3c-0.4,0-0.8-0.1-1.1-0.3c-0.5-0.3-0.9-0.8-1.1-1.5
				l-0.3-1.7c0-0.2,0-0.5,0-0.7c0,0,0-0.1,0-0.1c0-0.8,0.2-1.3,0.4-1.6c0.3-0.4,0.7-0.5,1.3-0.1C188,180,188.2,180.2,188.5,180.5z
				 M190.2,201.8c1,0.1,1.5,0.8,1.5,1.8c0,0.5-0.2,1-0.5,1.3c-0.2,0.2-0.5,0.3-0.8,0.4c-0.2,0-0.3,0.1-0.5,0.1c-1.3,0-2-0.6-2-1.7
				c0-1.3,0.6-2,1.9-2C190,201.7,190.1,201.7,190.2,201.8z M192.5,199.5c-0.3,0.2-0.6,0.4-0.9,0.6c-1.3,0.9-2.3,1.3-3,1.3
				c-0.1,0-0.3,0-0.4,0c-1.2-0.1-1.8-0.7-1.8-1.7c0-0.8,1-1.7,2.9-2.8c0.2-0.2,0.5-0.3,0.8-0.5c0.9-0.5,1.6-0.7,2.2-0.7
				c0.9,0,1.4,0.6,1.4,1.8C193.7,198.2,193.3,198.8,192.5,199.5z M189.8,214.4c-0.1,0-0.1,0-0.1,0c-1,0-1.7-0.3-2-1
				c-0.1-0.7-0.2-1-0.2-1.1c0-1.3,0.9-2.3,2.8-2.9c0,0,0.1-0.1,0.1-0.1c0.6-0.2,1.1-0.3,1.5-0.3c0.9,0.1,1.4,0.7,1.4,2
				c0,1-0.6,1.8-1.7,2.5c0,0-0.1,0.1-0.1,0.1C190.7,214.1,190.2,214.3,189.8,214.4z M185.2,208c0.3,0.3,0.5,0.9,0.5,1.5
				c0,0.2-0.1,0.6-0.3,1.1c-0.1,0.1-0.2,0.3-0.3,0.4C185.2,210.1,185.2,209.1,185.2,208z M195.2,221.9c-0.1,0-0.2,0-0.3,0
				c-0.1,0-0.1,0-0.2,0c-0.8,0-1.3-0.4-1.6-1c-0.1-0.7-0.1-1-0.1-1.1c0-0.5,0.5-1.3,1.5-2.1c0.2-0.2,0.5-0.4,0.8-0.6
				c0,1.3-0.1,2.6-0.1,3.9c0,0.2,0,0.3,0,0.5c0,0.1,0,0.2,0,0.3C195.2,221.8,195.2,221.8,195.2,221.9z M195.3,237.8
				c0,1.7,0,3.4,0,5.1c0,0.2,0,0.4,0,0.5c0,0.1,0,0.1,0,0.2c0,0.2,0,0.3,0,0.5c0,0.2,0,0.3,0,0.5c-0.2-0.2-0.3-0.5-0.3-0.9
				c0-0.8,0-1.3,0-1.6c-0.2-0.1-0.4-0.3-0.5-0.5c-0.1-0.1-0.2-0.3-0.3-0.4c-0.1-0.1-0.1-0.2-0.1-0.3c0,0,0,0,0,0
				c-0.3-0.6-0.5-1.1-0.5-1.5C193.5,238.2,194.1,237.6,195.3,237.8z M186.4,262.5c0.5-0.5,1.3-1,2.3-1.4c1.1-0.5,2-0.6,2.5-0.2
				c0.1,0.1,0.2,0.3,0.3,0.3c0.2,0.3,0.3,0.8,0.3,1.4c0,0.9-0.6,1.7-1.8,2.4c-0.5,0.3-1,0.5-1.4,0.7c-0.3,0.1-0.6,0.2-0.8,0.2
				c-0.3,0-0.6,0-0.9,0c-0.4-0.1-0.7-0.3-0.9-0.5c-0.1-0.1-0.2-0.2-0.3-0.3c-0.1-0.2-0.2-0.5-0.2-1
				C185.5,263.6,185.8,263,186.4,262.5z M190.3,271.2c0.5-0.2,1.1-0.4,1.9-0.5c0.2,0,0.4,0,0.6,0c1.3-0.1,2.2,0.1,2.7,0.8
				c0,0.1,0.1,0.1,0.1,0.3c0,0.5,0,1,0,1.5c0,0-0.1,0.1-0.1,0.2c-0.3,0.3-0.8,0.7-1.5,1c-1.2,0.6-2.2,1-3.1,1c-0.1,0-0.1,0-0.2,0
				c-1,0-1.7-0.3-2-1c0-0.1,0-0.1,0-0.2c-0.1-0.6-0.2-0.9-0.2-1C188.5,272.4,189.1,271.7,190.3,271.2z M186.4,267.8
				c0.5-0.4,0.9-0.6,1.3-0.5c0.6,0,1,0.5,1,1.4c0,0.2,0,0.4,0,0.6c0,0.6-1.1,3.2-3.3,7.8c-0.2,0.5-0.5,1-0.8,1.5
				c-0.1,0.3-0.3,0.5-0.4,0.8c0-3.2,0.1-6.3,0.2-9.3c0.3-0.4,0.6-0.9,1-1.3C185.8,268.2,186.1,268,186.4,267.8z M192.3,296
				c-0.3-0.3-0.6-0.6-0.7-1c-0.1-0.7-0.1-1.1-0.1-1.4c0-0.2,0-0.3,0-0.3c0-1.1,0.5-2.3,1.7-3.5c0.4-0.4,0.8-0.8,1.3-1.2
				c0.1-0.1,0.1-0.2,0.3-0.3c0.1-0.1,0.3-0.2,0.4-0.3c-0.2,2.2-0.3,4.1-0.5,5.8c-0.1,0.9-0.1,1.8-0.2,2.7c0,0-0.1,0-0.1,0
				C193.4,296.5,192.8,296.3,192.3,296z M192.5,299.9L192.5,299.9c0-0.9,0.1-1.6,0.3-2.1c0.3-0.8,0.8-1.1,1.5-1
				c-0.2,2.2-0.3,4.3-0.5,6.5c-0.5-0.3-0.8-0.7-1-1.3c0-0.1-0.1-0.2-0.1-0.3C192.5,300.6,192.5,300,192.5,299.9z M190.6,252.5
				c0.2-0.1,0.5-0.2,0.8-0.2c1.2-0.1,1.9,0.6,1.9,2.2c0,0.8-0.1,1.4-0.3,1.8c-0.3,0.5-0.8,0.7-1.5,0.7c-1.1,0-1.8-0.4-2-1
				c0-0.8,0-1.2,0-1.3c0-0.8,0.2-1.4,0.5-1.8C190.1,252.7,190.3,252.5,190.6,252.5z M187.5,236.8c0.1-1,0.9-1.8,2.4-2.5
				c0.1,0,0.1-0.1,0.2-0.1c0.3-0.1,0.6-0.2,0.8-0.3c1.2-0.3,1.8,0.2,1.8,1.5c0,0,0,0.1,0,0.2c0,0.5-0.4,1.2-1.3,2
				c-0.9,0.8-1.5,1.3-2,1.3c-1.3,0-2-0.6-2-1.8C187.5,237.1,187.5,236.9,187.5,236.8z M190.4,307.4c0.5-0.2,1.2-0.3,2-0.4
				c0.4,0,0.7,0,1,0c0,0.5-0.1,1.1-0.1,1.7c0,0.7-0.1,1.5-0.1,2.2c-0.3,0-0.5,0-0.8,0c-0.3,0-0.6,0-0.9,0c-0.3,0-0.5-0.1-0.7-0.1
				c-0.8-0.1-1.4-0.4-1.6-0.7c0,0-0.1-0.1-0.1-0.1v0c-0.1-0.2-0.1-0.5-0.1-0.8C189,308.3,189.5,307.7,190.4,307.4z M193.2,328.7
				l-1-0.4c-0.1-0.4-0.2-1.1-0.2-1.9c0-0.9,0.4-1.7,1.1-2.2C193.1,325.7,193.1,327.2,193.2,328.7z M184.3,308.5c1,1.1,1.5,2.1,1.5,3
				c0,0.5-0.2,1-0.5,1.3c-0.3,0.4-0.8,0.6-1.4,0.6c0-1.7,0.1-3.5,0.1-5.5C184,308.1,184.2,308.3,184.3,308.5z M189.9,330.2
				c1.2,0,1.8,0.9,1.8,2.8c0,1.7-0.6,2.5-1.8,2.5c-1,0-1.7-0.4-1.9-1.2c0-0.8,0-1.3,0-1.3C188,331.1,188.6,330.2,189.9,330.2z"/>
		</g>
	</g>
	<g>
		<path fill-rule="evenodd" clip-rule="evenodd" fill="#FFFFFF" d="M179.8,77.3l0.1-0.1c0-0.1,0-0.5,0-1c0-0.5,0-0.8-0.1-0.9
			c-0.1-0.1-0.1-0.2-0.1-0.3c-1.5-0.4-2.3,0-2.3,1.2c0,0.2,0.4,0.8,1.3,1.5C179,77.7,179.4,77.5,179.8,77.3z M181.7,79.9
			c-2.3,0-3.9-0.5-4.7-1.5c-0.2,0.7-0.8,1.2-1.8,1.5l-1.8-0.6l-0.2-1.5c0-1.4,0.6-2.1,1.9-2.1c0.5,0,0.8,0.1,1.1,0.3
			c0.3-3.2,3-2.5,8.2,2.1c0,0.9-0.5,1.5-1.6,1.8c1.1,0,1.6,0.6,1.6,1.8c0,0.6-0.3,1.2-1,1.7c-0.6,0.4-1.1,0.6-1.6,0.6
			c-1,0-1.7-0.3-2-0.8c-0.1-0.2-0.2-0.5-0.2-1c0-1.2,0.7-1.9,2.2-2.3C181.9,79.9,181.8,79.9,181.7,79.9z M174.3,83.3
			c-0.1-0.4-0.1-0.8,0-1.3c0-1.5,0.6-2.3,1.9-2.3c1.2-0.1,1.8,0.6,1.8,2.3c0,1.6-0.6,2.4-1.8,2.4C175.2,84.4,174.5,84,174.3,83.3z
			 M169,79c0,0.7-0.3,1.3-1,1.7c-0.6,0.4-1.4,0.6-2.3,0.6c-1.5,0-2.4-0.3-2.8-0.8c-0.1-0.1-0.2-0.5-0.2-1c0-1.1,1-1.9,3.2-2.4
			C168,76.8,169,77.4,169,79z M187.7,85.9l-1.8-0.6c0-0.2,0-0.8-0.2-1.7c0-1.5,0.7-2.5,2.2-3c1.4-0.5,2.1,0.1,2.1,2
			C190,83.8,189.3,85,187.7,85.9z"/>
	</g>
</g>
</svg>
