<?xml version="1.0" encoding="utf-8"?>
<!-- Generator: Adobe Illustrator 16.0.0, SVG Export Plug-In . SVG Version: 6.00 Build 0)  -->
<!DOCTYPE svg PUBLIC "-//W3C//DTD SVG 1.1//EN" "http://www.w3.org/Graphics/SVG/1.1/DTD/svg11.dtd">
<svg version="1.1" id="Layer_1" xmlns="http://www.w3.org/2000/svg" xmlns:xlink="http://www.w3.org/1999/xlink" x="0px" y="0px"
	 width="210px" height="350px" viewBox="0 0 210 350" enable-background="new 0 0 210 350" xml:space="preserve">
<g>
	<g>
		<g>
			<linearGradient id="SVGID_1_" gradientUnits="userSpaceOnUse" x1="274.3408" y1="-38.749" x2="172.5019" y2="73.0611">
				<stop  offset="0" style="stop-color:#C4CDD2"/>
				<stop  offset="0.2824" style="stop-color:#E4F1F9"/>
				<stop  offset="0.4235" style="stop-color:#A2A29A"/>
				<stop  offset="0.6" style="stop-color:#A5A79C"/>
				<stop  offset="0.7529" style="stop-color:#EBF1EF"/>
				<stop  offset="1" style="stop-color:#A0A2A3"/>
			</linearGradient>
			<polygon fill-rule="evenodd" clip-rule="evenodd" fill="url(#SVGID_1_)" points="163.1,80.6 163.2,78.3 163.3,78 184.3,63 
				184,65.5 			"/>
			<linearGradient id="SVGID_2_" gradientUnits="userSpaceOnUse" x1="13.3159" y1="-7.0449" x2="154.2359" y2="116.0395">
				<stop  offset="0" style="stop-color:#C4CDD2"/>
				<stop  offset="0.2824" style="stop-color:#E4F1F9"/>
				<stop  offset="0.4235" style="stop-color:#A2A29A"/>
				<stop  offset="0.6" style="stop-color:#A5A79C"/>
				<stop  offset="0.7529" style="stop-color:#EBF1EF"/>
				<stop  offset="1" style="stop-color:#CBCFCE"/>
			</linearGradient>
			<polygon fill-rule="evenodd" clip-rule="evenodd" fill="url(#SVGID_2_)" points="163.3,78 6.5,66.4 28.1,51.4 184.3,63 184.3,63 
							"/>
			<linearGradient id="SVGID_3_" gradientUnits="userSpaceOnUse" x1="5.7285" y1="67.6733" x2="163.1664" y2="79.2246">
				<stop  offset="0" style="stop-color:#C4CDD2"/>
				<stop  offset="0.2824" style="stop-color:#E4F1F9"/>
				<stop  offset="0.4235" style="stop-color:#A2A29A"/>
				<stop  offset="0.6" style="stop-color:#A5A79C"/>
				<stop  offset="0.7529" style="stop-color:#EBF1EF"/>
				<stop  offset="1" style="stop-color:#CBCFCE"/>
			</linearGradient>
			<polygon fill-rule="evenodd" clip-rule="evenodd" fill="url(#SVGID_3_)" points="163.1,80.6 6.5,69 6.5,66.4 163.3,78 
				163.2,78.3 			"/>
		</g>
		<g>
			<polygon fill-rule="evenodd" clip-rule="evenodd" fill="#FFFFFF" fill-opacity="0.502" points="184,63.7 163.2,78.5 163.2,78.5 
				6.4,66.9 6.4,66.4 163.2,78 163.2,78 184.1,63.2 			"/>
		</g>
	</g>
	<g>
		<g>
			<path fill-rule="evenodd" clip-rule="evenodd" fill="#CBCDDA" d="M123.2,73.7c0-0.1,0-0.2,0.1-0.3c0-0.3,0.1-0.7,0.2-1.1
				c0-0.1,0.1-0.2,0.1-0.3c0-0.2,0.1-0.3,0.1-0.5c0.1-0.3,0.1-0.7,0.1-1.1c0-0.1,0.1-0.3,0.1-0.4c0.1-0.4,0.1-0.8,0.2-1.2
				c0-0.1,0.1-0.3,0.2-0.4c0-0.1,0-0.3,0-0.4c0-0.1,0.1-0.3,0.1-0.4c2.7,0.6,3.6,0.2,2.8-1c0.1,0,0.1-0.1,0.1-0.1c0.2,0,0.4,0,0.5,0
				c0.1,0,0.3,0,0.5,0c0.1,0,0.2,0,0.3,0c0,0.1,0,0.2,0,0.3c-0.1,2.3,0.6,2.7,2.2,1.3c0.9,0.3,2.2,0.3,4,0.1c4.9-0.6,6.5-2.3,4.9-5
				c0.4-0.3,0.7-0.7,1-1c0.3-0.3,0.5-0.7,0.7-1c0.1-0.1,0.2-0.3,0.3-0.4c0.2-0.4,0.3-0.8,0.5-1.1c0-0.2,0.1-0.5,0.2-0.7
				c0-0.1,0-0.3,0-0.5c0-0.1,0-0.3,0-0.4s0-0.3,0-0.4c0-0.1,0-0.2,0-0.3c0-0.2,0-0.3,0-0.5c0-0.3-0.1-0.5-0.2-0.8
				c-0.1-0.3-0.3-0.6-0.5-0.9c-0.1-0.2-0.2-0.3-0.3-0.4c0,0-0.1-0.1-0.1-0.1c-0.4-0.4-0.9-0.7-1.5-1c-0.2-0.1-0.3-0.1-0.5-0.3
				c-0.3-0.1-0.6-0.2-0.9-0.3c-0.5-0.1-1-0.3-1.7-0.5c-0.4-0.1-0.8-0.2-1.2-0.3c-0.3-0.1-0.7-0.1-1-0.2h0c-0.3-0.5-0.8-1-1.4-1.8
				c-0.9,0-1.5,0.4-1.9,1.1c-0.6-0.1-1.2-0.2-1.8-0.3c-0.3-0.1-0.6-0.2-0.9-0.2c0,0-0.1,0-0.1,0c2.6-1.8,1.7-3.6-2.6-5.5
				c-1.9,0.5-2.7,1.7-2.5,3.6c0,0-0.1-0.1-0.2-0.1c-0.6-0.4-1-0.9-1.3-1.4c-0.2-0.2-0.3-0.5-0.3-0.7c0-0.1-0.1-0.1-0.1-0.1
				c-0.1-0.2-0.1-0.4-0.1-0.6c-0.1-0.2-0.1-0.3-0.1-0.5c-0.1-0.3-0.1-0.7-0.1-1.1c0,0,0-0.1,0-0.1c0-0.2,0-0.3,0-0.5
				c0.1-0.2,0.3-0.4,0.5-0.6c0.1-0.2,0.3-0.4,0.5-0.5c0.2-0.1,0.4-0.3,0.5-0.3c0.2-0.1,0.5-0.2,0.8-0.3c0,0,0.1-0.1,0.1-0.1
				c0.1,0,0.3-0.1,0.5-0.1c0.2-0.1,0.4-0.1,0.7-0.1c0.3-0.1,0.6-0.1,0.9-0.1c0.1,0,0.3,0,0.4,0c0.1,0,0.3-0.1,0.5-0.1
				c0.5-0.1,1.2-0.2,1.9-0.3c0.3,0,0.6-0.1,0.8-0.1c0.1,0,0.1-0.1,0.3-0.1c0.3-0.1,0.6-0.1,1-0.2c0.1,0,0.1-0.1,0.2-0.1
				c0.1,0.1,0.3,0.1,0.5,0.1c4.4,0.5,5.6-0.3,3.7-2.4c0,0,0,0,0,0c0.2-0.2,0.3-0.4,0.4-0.6c0.2-0.1,0.3-0.3,0.3-0.4
				c0-0.1,0.1-0.2,0.1-0.3c0-0.1,0.1-0.1,0.1-0.2c0.1-0.3,0.2-0.6,0.3-1c0-0.2,0-0.3,0-0.5c0-0.1,0-0.2,0-0.3c0-0.2,0-0.5,0-0.7
				c0-0.4-0.1-0.8-0.2-1.2c-0.1-0.3-0.1-0.5-0.2-0.8c0,0-0.1-0.1-0.1-0.1h0.6l3.8,3.7c0.1,0,0.3,0,0.5,0.1c0,0,0,0,0.1,0
				c0,0,0.1,0,0.1,0.1c0.8,0.3,1.5,0.7,2.1,1.1c0.5,0.3,1,0.6,1.4,1c0,0.1,0,0.3,0,0.4c0,0.1,0,0.2,0.1,0.3c0.1,0.3,0.2,0.6,0.4,0.8
				c0.2,0.4,0.4,0.8,0.7,1.2c0.3,0.5,0.7,1,1.1,1.5c0.1,0,0.2,0,0.2,0.1c1.1,0.5,2.1,1.1,2.8,1.9c0.3,0.3,0.7,0.7,1,1.1l0,0.1
				c0.2,0.4,0.5,0.9,0.7,1.4c0.2,0.4,0.3,0.8,0.5,1.2c0,0.1,0,0.2,0,0.3l0.3,0.2h0.1l4.3,3l0.3,0.4l0.3,0.6l0.5,0.8l0.3,0.8l0.1,0.1
				c0,0.2,0,0.4,0.2,0.4l0.2,0.5l0.2,0.2l3,1.1c0.1,0,0.3,0,0.5,0c0.1,0,0.2,0,0.3,0c0.1,0,0.3,0.1,0.4,0.1c0.2,0.1,0.4,0.3,0.6,0.5
				c0.1,0.1,0.2,0.3,0.3,0.5c0,0.1,0.1,0.2,0.1,0.3c0.1,0.1,0.2,0.2,0.3,0.3l0.1,0.2h0.5l2.4,0.5l1,1.6l0.1,0.3
				c0.3,0.1,0.4,0.4,0.4,0.7h0.1l0.1,0l1.2,0.3h0.1L171,63h0l0.1,1.4l0.1,0.7V66l-0.1,0.8l-0.3,0.7l-0.1,0.6l-0.3,1
				c-0.1,0-0.2,0.1-0.3,0.1c-0.2,0.1-0.3,0.3-0.4,0.4c-0.5,0.3-1,0.5-1.5,0.8c-0.1,0-0.2,0-0.3,0.1c-0.2,0.1-0.3,0.2-0.5,0.3
				c-0.1,0-0.3,0.1-0.4,0.3c-0.2,0.1-0.3,0.1-0.4,0.1c-0.1,0.1-0.2,0.1-0.3,0.1c-0.3,0.2-0.7,0.3-1.1,0.5c-0.3,0.1-0.6,0.2-0.8,0.4
				c-0.3,0-0.6,0.1-1,0.3h0v0c-0.1,0-0.2,0.1-0.3,0.1c-0.3,0.1-0.5,0.1-0.8,0.3c-0.5,0.1-1.1,0.3-1.6,0.5h-0.1
				c-0.3,0.1-0.5,0.2-0.8,0.3c0,0-0.1,0.1-0.2,0.1c-0.4,0.1-0.8,0.3-1.1,0.4c-0.4,0.1-0.8,0.2-1.2,0.3l-0.2,0v0
				c-0.5,0.2-1,0.4-1.5,0.5c-0.4,0-0.8,0-1.1-0.1c-0.3,0.1-0.5,0.1-0.8,0.1c-0.2,0.1-0.4,0.1-0.6,0c-0.2,0-0.4,0-0.5,0
				c-0.3,0-0.5,0-0.8,0c-0.5,0-1.1,0-1.6,0c-0.2,0-0.4,0-0.5,0.1c-0.2,0-0.4,0-0.7,0c-0.2,0-0.4,0-0.5,0c-0.4,0-0.7,0-1-0.1
				c-0.1,0-0.3,0-0.5,0c-0.3,0-0.6,0-1,0.1c-0.3,0-0.5-0.1-0.8-0.1c-0.7,0.1-1.4,0.1-2.1,0.1c-0.5,0-0.9-0.1-1.3-0.1
				c-0.2,0-0.4,0-0.7,0.1c-0.2,0-0.4,0-0.6-0.1c-0.1,0-0.2,0-0.4,0c-0.1,0-0.3,0-0.5,0c-0.3,0-0.6-0.1-1-0.1c-0.3,0-0.5,0-0.8,0
				c-0.4,0-0.9-0.1-1.3-0.1c-0.1,0-0.3,0-0.5,0c-0.7-0.1-1.5-0.1-2.2-0.1c-0.2,0-0.4-0.1-0.6-0.1c-0.2,0-0.5,0-0.7,0.1
				c-0.5-0.1-0.9-0.1-1.3-0.1c-0.2,0-0.3,0-0.5,0c-0.3,0-0.5-0.1-0.8-0.1V74c-0.1,0-0.3,0-0.5,0v0.1c-0.3,0-0.5-0.1-0.8-0.1
				c-0.4,0-0.7,0-1,0c-0.4,0-0.9,0-1.4,0C125.3,73.9,124.2,73.8,123.2,73.7z M160.8,64.5c-0.3,1,0,1.6,1,1.7c4.2,0.1,4.6-1,1.1-3.3
				C161.8,62.9,161.1,63.5,160.8,64.5z M146.3,63.4c-1.5-0.2-2.6,0.3-3.4,1.5c-0.6,1.1-0.4,1.7,0.8,1.9
				C148.4,67.4,149.3,66.3,146.3,63.4z M146.5,56.1c-1.5,0.1-2,0.8-1.7,2.1c0.6,2.2,2.4,3.3,5.4,3.5c1.1,0,1.8-0.4,2-1.3
				C153.3,57.2,151.4,55.8,146.5,56.1z"/>
			<path fill-rule="evenodd" clip-rule="evenodd" fill="#DDDDE7" d="M124.4,67.6c-0.2-0.1-0.5-0.1-0.7-0.1c-0.5-0.2-0.7-0.5-0.5-1
				c-0.3,0-0.6,0-0.9,0c-0.2,0-0.4,0-0.5-0.1c-0.1,0-0.3,0-0.5,0c-0.6-0.1-1.2-0.1-1.9-0.1c-0.4,0-0.8,0-1.1,0c-0.1,0-0.2,0-0.3,0
				c-0.4,0-0.9-0.1-1.3-0.1c-0.1,0-0.1,0-0.2,0c-0.4,0-0.9-0.1-1.4-0.1c-0.6-0.1-1.3-0.1-1.9-0.1c0.4,1.1-0.7,1.2-3.5,0.3
				c-0.3-0.1-0.5-0.2-0.5-0.5c-0.4-0.1-0.8-0.1-1.3-0.1h0c0,0.6-1.3,0.9-3.8,0.9c-0.9,0-1.2-0.4-1.1-1.3c-0.2,0-0.4,0-0.5,0
				c-0.3,0-0.5-0.1-0.8-0.1c-0.3,0-0.6,0-0.8-0.1c-0.4,0-0.7,0-1.1-0.1c-0.1,0-0.2,0-0.4,0c-0.1,0-0.2,0-0.3,0
				c0.3,1-0.9,1.1-3.6,0.4c-0.4-0.1-0.6-0.4-0.6-0.8c-0.5-0.1-0.9-0.1-1.3-0.1c-0.4,0-0.9-0.1-1.3-0.1c-0.2,0-0.3-0.1-0.5-0.1
				c-0.1,0.1-0.3,0.3-0.5,0.4c-0.4,0.4-1,0.5-1.8,0.4c-3.9-0.8-5.2-1.9-4.1-3.4c-0.2-0.2-0.4-0.5-0.6-0.7c-0.3-0.3-0.5-0.7-0.7-1
				c-0.1-0.2-0.2-0.5-0.3-0.7c0-0.1,0-0.1,0-0.3c-0.1-0.4-0.2-0.9-0.3-1.3c0,0-0.1-0.1-0.1-0.1c-0.1-0.5-0.1-1-0.1-1.5
				c0-0.2,0-0.3,0-0.5c0-0.1,0-0.2,0.1-0.4c0,0,0-0.1,0-0.1c0-0.3,0.1-0.5,0.1-0.8c0.1-0.2,0.1-0.5,0.1-0.6c0-0.1,0-0.1,0-0.2
				c0.1-0.5,0.2-1,0.3-1.4c0-0.3,0-0.5,0.1-0.8c0.1-0.3,0.1-0.6,0.1-0.9l0.1-1.9l0.1,0c0,0,0.1,0,0.1,0.1c0.3,0.1,0.5,0.1,0.8,0.3
				c0.4,0.2,0.8,0.5,1.2,0.8c0.1,0.1,0.3,0.4,0.8,1c0.2,0.3,0.4,0.6,0.7,1c0.6,0.7,1,1.3,1.3,1.8c0.1,0.1,0.1,0.1,0.3,0.2
				c0.2,0.1,0.3,0.2,0.4,0.4c0.2,0.1,0.4,0.3,0.6,0.5c0.2,0.2,0.5,0.3,0.8,0.4c0.4-0.3,0.8-0.4,1.4-0.4c0.6,0.6,1,1.2,1.3,1.6
				c0.1,0,0.2,0.1,0.3,0.1c0.7,0.2,1.5,0.4,2.4,0.6c0.4,0.1,0.8,0.1,1.3,0.2c0.9,0.1,1.8,0.3,2.8,0.4h0.1c0.4,0,0.7,0,1.1,0
				c0.6-1,1.5-1.5,2.9-1.4c0.8,0.6,1.3,1.1,1.7,1.6c0.1,0,0.2-0.1,0.3-0.1c0.1,0,0.3,0,0.4,0.1c0.3,0,0.5-0.1,0.8-0.1
				c0.3,0,0.5,0,0.8,0c0.6,0,1.3-0.1,1.8-0.1c0-0.1,0.1-0.3,0.2-0.4c0.7-1.1,1.8-1.6,3.2-1.5c0.3,0.2,0.5,0.5,0.7,0.7
				c0.3-0.2,0.6-0.4,0.8-0.6c0.2-0.2,0.3-0.4,0.4-0.6c-0.2,0-0.3,0.1-0.4,0.1c-0.6,0.1-1-0.2-1.3-1c-0.5-1.7-0.3-2.9,0.8-3.8
				c-0.1-0.1-0.3-0.2-0.3-0.4c-0.1-0.1-0.1-0.1-0.2-0.1c-0.4,0-0.8,0-1.3,0c-1.4,0-2.1-0.6-2.2-2c0-0.2,0-0.4,0.1-0.6
				c-0.6-0.4-1.3-0.8-2-1.2c-0.1-0.1-0.3-0.1-0.4-0.2c-1.7,0.8-2.9,0.5-3.7-1c-0.2-0.4-0.4-0.8-0.4-1.1c-0.1,0-0.1,0-0.1,0
				c-0.3-0.2-0.6-0.4-0.9-0.5c-0.5-0.3-0.9-0.5-1.1-0.6c-0.2-0.1-0.4-0.2-0.6-0.3c-0.1-0.1-0.3-0.1-0.4-0.2
				c-0.1-0.1-0.2-0.2-0.2-0.2c-0.2-0.1-0.3-0.2-0.5-0.3c-0.1-0.1-0.2-0.2-0.3-0.3c-0.2-0.2-0.5-0.4-0.7-0.5
				c-0.3-0.2-0.5-0.5-0.7-0.7c-0.1-0.1-0.1-0.1-0.2-0.2v-0.1c-0.2-0.2-0.4-0.4-0.5-0.6c0.4-0.2,0.7-0.5,1-1c0.3-0.6,0.5-1.1,0.5-1.6
				c0-0.6-0.1-1.1-0.3-1.5c0.1-0.1,0.3-0.1,0.4-0.2c0,0,0.1-0.1,0.2-0.1c0.3-0.2,0.5-0.4,0.7-0.7c0.1-0.2,0.1-0.3,0.1-0.5
				c0-0.1-0.1-0.2-0.3-0.4c-0.2-0.2-0.5-0.5-0.9-0.8c-0.1-0.1-0.2-0.1-0.3-0.2c0,0,0-0.1,0-0.1c0.9,0.2,2.1,0.3,3.4,0.3
				c0.4,0,0.7,0,1.1,0c-0.1,0.1-0.2,0.3-0.3,0.4c-0.1,0.2-0.2,0.4-0.3,0.6c-0.1,0.2-0.1,0.4-0.2,0.5v0.1c0,0.2,0,0.4,0,0.6
				c0,0.3,0,0.6,0.1,0.9c0,0.3,0.1,0.6,0.2,0.9c0,0.1,0.1,0.3,0.2,0.5c0.1,0.2,0.2,0.4,0.3,0.6c0,0,0.1,0.1,0.1,0.1
				c0.1,0.1,0.2,0.2,0.3,0.3c0.2,0.2,0.3,0.4,0.5,0.5c0.1,0.1,0.2,0.2,0.3,0.3c0.3,0.2,0.6,0.5,1,0.7c0.2,0.1,0.4,0.2,0.6,0.3
				c0.1,0.1,0.3,0.2,0.5,0.3c-0.4-1.1,0.3-1.9,2-2.3c4,1,5.1,2.1,3.2,3.5c0.1,0,0.3,0,0.5,0c-0.2,0-0.3,0.1-0.6,0.2
				c0,0-0.1-0.1-0.1-0.1h0c0,0.1,0,0.2,0.1,0.1h0.1c0,0,0.1,0,0.1,0.1c0.2,0,0.4,0,0.6,0.1c0.2,0,0.4,0,0.6,0c0,0,0.1,0,0.1,0
				c0,0,0.1,0,0.2,0c0.2,0,0.5,0,0.7,0c0.2-1.3,1-2.1,2.5-2.2c0.6,0.5,1,0.9,1.3,1.4c0,0,0,0,0,0c0.3-0.1,0.5-0.1,0.8-0.3
				c-0.1-0.2,0-0.6,0.2-1c1-1.7,2.3-2.8,3.9-3.4c0.2,0.2,0.4,0.5,0.5,0.6c0.1-0.2,0.1-0.3,0.1-0.5c0-0.1,0.1-0.2,0.1-0.3
				c0.1-0.2,0.1-0.3,0.1-0.4c0-0.1,0-0.1,0-0.2c0-0.3,0-0.7-0.1-1c0-0.1,0-0.3,0-0.4c-0.1-0.2-0.1-0.3-0.2-0.5
				c-0.1-0.3-0.2-0.5-0.4-0.8c-0.2-0.3-0.3-0.6-0.5-0.8c-0.1-0.2-0.3-0.3-0.3-0.5c-0.1-0.1-0.3-0.3-0.4-0.4c1,0,2.1,0.1,3.3,0.3
				c1.3,1.1,3.2,1.7,5.6,1.7c0.4,0,0.7,0,1-0.1c0.2,0.1,0.3,0.1,0.5,0.1h2.1c0,0,0,0.1,0.1,0.1c0.1,0.3,0.1,0.5,0.2,0.8
				c0.1,0.4,0.2,0.8,0.2,1.2c0,0.2,0,0.5,0,0.7c0,0.1,0,0.2,0,0.3c0,0.2,0,0.3,0,0.5c-0.1,0.4-0.2,0.7-0.3,1c0,0.1-0.1,0.1-0.1,0.2
				c0,0.1-0.1,0.1-0.1,0.3c0,0.2-0.1,0.3-0.3,0.4c-0.1,0.2-0.2,0.4-0.4,0.6c0,0,0,0,0,0c1.9,2,0.7,2.8-3.7,2.4
				c-0.2,0-0.3-0.1-0.5-0.1c-0.1,0-0.1,0.1-0.2,0.1c-0.3,0-0.7,0.1-1,0.2c-0.1,0-0.2,0.1-0.3,0.1c-0.2,0-0.5,0-0.8,0.1
				c-0.7,0.1-1.3,0.2-1.9,0.3c-0.2,0-0.3,0-0.5,0.1c-0.2,0-0.3,0-0.4,0c-0.3,0-0.6,0.1-0.9,0.1c-0.3,0-0.5,0.1-0.7,0.1
				c-0.3,0-0.5,0.1-0.5,0.1c0,0-0.1,0-0.1,0.1c-0.3,0.1-0.6,0.1-0.8,0.3c-0.2,0.1-0.4,0.2-0.5,0.3c-0.2,0.1-0.4,0.3-0.5,0.5
				c-0.2,0.2-0.3,0.4-0.5,0.6c0,0.1,0,0.3,0,0.5c0,0,0,0.1,0,0.1c0,0.4,0,0.8,0.1,1.1c0,0.1,0,0.3,0.1,0.5c0,0.2,0.1,0.4,0.1,0.6
				c0,0,0.1,0.1,0.1,0.1c0.1,0.2,0.2,0.5,0.3,0.7c0.3,0.5,0.8,1,1.3,1.4c0.1,0,0.1,0.1,0.2,0.1c-0.2-1.9,0.6-3.1,2.5-3.6
				c4.3,1.9,5.2,3.7,2.6,5.5c0,0,0.1,0,0.1,0c0.3,0,0.6,0.1,0.9,0.2c0.6,0.1,1.2,0.2,1.8,0.3c0.4-0.8,1.1-1.1,1.9-1.1
				c0.6,0.7,1.1,1.3,1.4,1.8h0c0.3,0.1,0.7,0.1,1,0.2c0.4,0.1,0.8,0.2,1.2,0.3c0.7,0.2,1.2,0.3,1.7,0.5c0.4,0.1,0.7,0.2,0.9,0.3
				c0.2,0.1,0.3,0.2,0.5,0.3c0.6,0.3,1.1,0.6,1.5,1c0,0.1,0.1,0.1,0.1,0.1c0.1,0.1,0.3,0.2,0.3,0.4c0.2,0.3,0.4,0.6,0.5,0.9
				c0.1,0.2,0.2,0.5,0.2,0.8c0,0.2,0,0.3,0,0.5c0,0.1,0,0.2,0,0.3c0,0.1,0,0.3,0,0.4s0,0.3,0,0.4c0,0.2,0,0.3,0,0.5
				c-0.1,0.2-0.2,0.5-0.2,0.7c-0.1,0.4-0.3,0.8-0.5,1.1c-0.1,0.1-0.2,0.3-0.3,0.4c-0.2,0.3-0.4,0.7-0.7,1c-0.3,0.3-0.6,0.7-1,1
				c1.6,2.7,0,4.4-4.9,5c-1.8,0.2-3.1,0.2-4-0.1c-1.6,1.4-2.3,1-2.2-1.3c0-0.1,0-0.2,0-0.3c-0.1,0-0.2,0-0.3,0c-0.2,0-0.3,0-0.5,0
				c-0.2,0-0.4,0-0.5,0c0,0-0.1,0-0.1,0.1C128,67.9,127.1,68.2,124.4,67.6z M116.6,30.8c1.8,0.9,1.8,2.3,0,4.2
				c-0.6,0.7-1.5,0.9-2.5,0.6c-3-1-4.2-2.1-3.8-3.3c1.1-0.2,1.9-0.6,2.6-1c0.4-0.3,0.7-0.6,0.9-1c0.4,0.5,1,0.7,1.9,0.7
				C116,31,116.3,30.9,116.6,30.8z M88.8,43.1c1.3-1,2.3-1.8,3-2.4c0.8,0,1.6-0.1,2.3-0.3c1.6,1.8,1,2.4-1.8,1.9
				c2.1,2.2,1.8,4-1,5.5c-0.6,0.4-1.2,0.1-1.7-0.7C88.5,45.5,88.3,44.1,88.8,43.1z M113.4,58.5c-1.5-0.1-2.5,0.4-3.1,1.8
				c-0.6,1.4-0.1,2.1,1.5,2C116.7,62,117.3,60.8,113.4,58.5z M146.5,56.1c4.9-0.3,6.9,1.1,5.8,4.4c-0.3,0.8-1,1.3-2,1.3
				c-3-0.1-4.8-1.3-5.4-3.5C144.4,56.9,145,56.2,146.5,56.1z M146.3,63.4c2.9,2.9,2.1,4-2.5,3.4c-1.2-0.2-1.5-0.8-0.8-1.9
				C143.7,63.7,144.8,63.1,146.3,63.4z M160.8,64.5c0.3-1.1,1-1.6,2.2-1.6c3.5,2.3,3.1,3.4-1.1,3.3
				C160.8,66.1,160.5,65.6,160.8,64.5z M126.5,60c4.1,1.4,4.7,0.6,1.8-2.5c-0.9,0-1.6,0.4-2,1.3C125.8,59.4,125.9,59.8,126.5,60z"/>
			<path fill-rule="evenodd" clip-rule="evenodd" fill="#EAEAF4" d="M104.5,32.5c0.7,0,1.3-0.1,1.8-0.1c0.3,0.1,0.7,0.1,1.2,0.1
				c1.1,0,2.1-0.1,2.9-0.2c-0.4,1.2,0.8,2.3,3.8,3.3c1,0.3,1.9,0.1,2.5-0.6c1.8-1.9,1.8-3.3,0-4.2c0.3-0.1,0.6-0.3,0.9-0.6
				c0.7,0.5,1.8,0.8,3.2,0.8c0.7,0,1.4,0,2.2,0.1c0.1,0.1,0.2,0.3,0.4,0.4c0.1,0.2,0.2,0.3,0.3,0.5c0.2,0.3,0.4,0.5,0.5,0.8
				c0.1,0.2,0.3,0.5,0.4,0.8c0.1,0.2,0.1,0.3,0.2,0.5c0,0.1,0,0.3,0,0.4c0.1,0.4,0.1,0.7,0.1,1c0,0.1,0,0.1,0,0.2
				c0,0.1,0,0.3-0.1,0.4c0,0.1,0,0.1-0.1,0.3c0,0.2-0.1,0.3-0.1,0.5c-0.1-0.2-0.3-0.4-0.5-0.6c-1.6,0.6-2.9,1.7-3.9,3.4
				c-0.2,0.4-0.3,0.7-0.2,1c-0.3,0.1-0.5,0.2-0.8,0.3c0,0,0,0,0,0c-0.3-0.4-0.8-0.9-1.3-1.4c-1.4,0.1-2.2,0.8-2.5,2.2
				c-0.2,0-0.5,0-0.7,0c-0.1,0-0.1,0-0.2,0c0,0-0.1,0-0.1,0c-0.2,0-0.4,0-0.6,0c-0.2-0.1-0.4-0.1-0.6-0.1c-0.1-0.1-0.1-0.1-0.1-0.1
				c0.2-0.1,0.4-0.2,0.6-0.2c-0.2,0-0.3,0-0.5,0c1.9-1.3,0.8-2.5-3.2-3.5c-1.8,0.4-2.5,1.2-2,2.3c-0.2-0.1-0.3-0.2-0.5-0.3
				c-0.2-0.1-0.4-0.2-0.6-0.3c-0.4-0.2-0.7-0.5-1-0.7c-0.1-0.1-0.2-0.2-0.3-0.3c-0.2-0.2-0.3-0.4-0.5-0.5c-0.1-0.1-0.2-0.2-0.3-0.3
				c0-0.1,0-0.1-0.1-0.1c-0.1-0.2-0.2-0.4-0.3-0.6c-0.1-0.2-0.2-0.3-0.2-0.5c-0.1-0.3-0.2-0.6-0.2-0.9c-0.1-0.3-0.1-0.6-0.1-0.9
				c0-0.2,0-0.4,0-0.6V34c0-0.2,0.1-0.3,0.2-0.5c0.1-0.2,0.1-0.4,0.3-0.6C104.3,32.7,104.4,32.6,104.5,32.5z"/>
			<path fill-rule="evenodd" clip-rule="evenodd" fill="#EAECF8" d="M88.8,43.1c-0.5,1-0.2,2.4,0.8,4c0.5,0.8,1.1,1.1,1.7,0.7
				c2.8-1.5,3.2-3.3,1-5.5c2.7,0.5,3.3-0.1,1.8-1.9c1.2-0.2,2.2-0.6,3-1.1c0.2,0,0.4,0.1,0.6,0.1c0.4,0,0.7-0.1,1-0.2
				c0.1,0.2,0.3,0.4,0.5,0.6V40c0.1,0.1,0.1,0.1,0.2,0.2c0.2,0.2,0.4,0.5,0.7,0.7c0.2,0.2,0.5,0.4,0.7,0.5c0.1,0.1,0.2,0.1,0.3,0.3
				c0.1,0.1,0.3,0.1,0.5,0.3c0,0,0.1,0.1,0.2,0.2c0.1,0.1,0.3,0.1,0.4,0.2c0.2,0.1,0.4,0.2,0.6,0.3c0.3,0.2,0.7,0.4,1.1,0.6
				c0.2,0.1,0.5,0.3,0.9,0.5c0,0,0.1,0,0.1,0c0,0.3,0.2,0.7,0.4,1.1c0.8,1.4,2,1.8,3.7,1c0.1,0.1,0.2,0.1,0.4,0.2
				c0.7,0.4,1.3,0.8,2,1.2c0,0.2-0.1,0.4-0.1,0.6c0,1.3,0.8,2,2.2,2c0.5,0,1,0,1.3,0c0,0,0.1,0,0.2,0.1c0.1,0.1,0.2,0.3,0.3,0.4
				c-1,0.8-1.3,2.1-0.8,3.8c0.3,0.7,0.7,1.1,1.3,1c0.1,0,0.3,0,0.4-0.1c-0.1,0.2-0.3,0.4-0.4,0.6c-0.2,0.2-0.5,0.4-0.8,0.6
				c-0.2-0.2-0.4-0.5-0.7-0.7c-1.4-0.1-2.5,0.4-3.2,1.5c-0.1,0.1-0.1,0.3-0.2,0.4c-0.6,0.1-1.2,0.1-1.8,0.1c-0.2,0-0.5,0-0.8,0
				c-0.3,0-0.5,0-0.8,0.1c-0.1,0-0.3-0.1-0.4-0.1c-0.1,0-0.2,0-0.3,0.1c-0.3-0.5-0.9-1-1.7-1.6c-1.4-0.1-2.3,0.4-2.9,1.4
				c-0.4,0-0.7,0-1.1,0H101c-1-0.1-1.9-0.2-2.8-0.4c-0.4-0.1-0.9-0.1-1.3-0.2c-0.9-0.2-1.7-0.4-2.4-0.6c-0.1,0-0.2-0.1-0.3-0.1
				c-0.3-0.4-0.7-1-1.3-1.6c-0.6,0-1,0.1-1.4,0.4c-0.3-0.1-0.6-0.3-0.8-0.4c-0.2-0.2-0.5-0.4-0.6-0.5c-0.1-0.2-0.2-0.3-0.4-0.4
				c-0.1-0.1-0.2-0.1-0.3-0.2c-0.2-0.5-0.7-1-1.3-1.8c-0.3-0.4-0.5-0.7-0.7-1c-0.4-0.6-0.7-1-0.8-1c-0.4-0.3-0.8-0.6-1.2-0.8
				c-0.2-0.1-0.5-0.2-0.8-0.3c-0.1,0-0.1-0.1-0.1-0.1c0-0.5,0-1.2,0.1-2.2l-0.2,2.1c-0.2-0.1-0.3-0.1-0.5-0.1
				c-0.4-0.1-0.8-0.2-1.3-0.3c0-0.2-0.3-0.4-0.8-0.5c-0.2,0-0.3-0.1-0.5-0.1c-0.5,0-1,0-1.7,0c-0.2,0-0.4,0-0.6,0
				c0-0.2-0.1-0.3-0.1-0.5c0.5-0.1,1-0.4,1.5-0.9c0.4,0.3,0.9,0.4,1.6,0.4c1.4,0,3.5-1.1,6.5-3.3C88.6,43.2,88.7,43.1,88.8,43.1z
				 M99.9,35.1c0-0.1-0.1-0.2-0.1-0.3c0.3-0.5,0.4-0.9,0.4-1.4c0-0.4,0-0.8-0.1-1.2c0.1,0.1,0.1,0.1,0.3,0.2
				c0.4,0.3,0.7,0.6,0.9,0.8c0.2,0.2,0.3,0.3,0.3,0.4c0,0.2-0.1,0.3-0.1,0.5c-0.2,0.3-0.4,0.5-0.7,0.7c-0.1,0-0.2,0.1-0.2,0.1
				C100.2,35,100,35.1,99.9,35.1z M113.4,58.5c3.9,2.3,3.3,3.6-1.7,3.8c-1.6,0.1-2.1-0.6-1.5-2C110.9,58.9,111.9,58.3,113.4,58.5z
				 M126.5,60c-0.5-0.2-0.6-0.6-0.3-1.3c0.4-0.9,1.1-1.3,2-1.3C131.1,60.5,130.5,61.4,126.5,60z"/>
			<path fill-rule="evenodd" clip-rule="evenodd" fill="#EFEFF9" d="M112.9,41.6L112.9,41.6c-0.1,0.1-0.2,0-0.2-0.1h0
				C112.8,41.5,112.9,41.6,112.9,41.6z M82.7,48L82.7,48c-0.1,0-0.1,0-0.2,0C82.6,48,82.6,48,82.7,48z M92.7,72.1l-0.3,0
				c-0.2-0.1-0.5-0.1-0.7-0.3c-0.1,0-0.2,0-0.3,0c-0.2,0-0.3-0.1-0.5-0.1c0.1-0.1,0.3-0.1,0.5,0c0.1,0,0.2,0.1,0.3,0.1h0.1
				C92.1,71.9,92.4,72,92.7,72.1z"/>
			<path fill-rule="evenodd" clip-rule="evenodd" fill="#CFD1DD" d="M92.7,72.1c-0.3-0.1-0.6-0.2-0.9-0.3h-0.1
				c-0.1,0-0.2-0.1-0.3-0.1c-0.2,0-0.4,0-0.5,0c-0.1-0.1-0.3-0.1-0.3-0.1c-0.7-0.2-1.3-0.3-2-0.4c-0.5-0.1-1.1-0.3-1.7-0.4
				c-0.7-0.2-1.4-0.3-2.2-0.4c-0.1,0-0.3-0.1-0.4-0.1c-0.3,0-0.6,0-0.9,0l-0.1-0.1c0,0-0.1-0.1-0.3-0.1s-0.3,0-0.6,0
				c-0.5-0.1-1.1-0.1-1.7-0.2c0-0.1-0.1-0.1-0.2-0.1c-0.2,0-0.5-0.1-0.7-0.1c-0.3,0-0.7-0.1-1-0.1l-3.9-1.5c0-0.1,0-0.2,0-0.3
				c0-0.1,0-0.1,0-0.2c0-0.2-0.1-0.4-0.3-0.5c-0.1-0.1-0.2-0.1-0.4-0.1l-2.3-0.2L72,66.6l-0.4-0.3l-0.9-1.1l-0.9-0.8l-0.2-0.3
				l-3.9,0c0,0-0.1,0-0.2-0.1L62.2,64c0,0-0.1-0.1-0.1-0.1c-0.1-0.1-0.2-0.1-0.3-0.3c-0.2-0.1-0.3-0.2-0.3-0.2
				c-0.2-0.1-0.3-0.2-0.3-0.4c-0.2-0.1-0.4-0.3-0.4-0.5c-0.1-0.3-0.2-0.7-0.1-1c0.1,0,0.2,0,0.3,0l0.5,0.5l0.1-0.5
				c1.2-0.2,1.9-1,2-2.5v0c0-0.1,0-0.2,0-0.3c0-0.1,0-0.2,0-0.3c0.6-0.1,1.1-0.4,1.5-1c1.7,0,3-0.2,4-0.5c0.7-0.2,1.6-0.8,2.5-1.9
				c1-1.2,1.5-2.1,1.5-2.6c0-0.2,0-0.3,0-0.5c0.6-0.1,1.1-0.5,1.5-1c0.2-0.3,0.4-0.6,0.5-1c0.4,0.3,0.9,0.5,1.5,0.5
				c0.9,0,1.5-0.3,2-1c0.3-0.5,0.5-1,0.5-1.5c0-0.2,0-0.4,0-0.6c0.2,0,0.4,0,0.6,0c0.7,0,1.2,0,1.7,0c0.2,0,0.3,0.1,0.5,0.1
				c0.5,0.1,0.8,0.3,0.8,0.5c0.5,0.1,0.9,0.2,1.3,0.3c0.2,0,0.3,0,0.5,0.1l-0.1,1.9c0,0.3,0,0.5-0.1,0.9c-0.1,0.2-0.1,0.5-0.1,0.8
				c-0.1,0.4-0.2,0.9-0.3,1.4c0,0.1,0,0.1,0,0.2c0,0.2-0.1,0.4-0.1,0.6c-0.1,0.3-0.1,0.5-0.1,0.8c0,0,0,0.1,0,0.1
				c0,0.1-0.1,0.3-0.1,0.4c0,0.2,0,0.3,0,0.5c0,0.5,0,1,0.1,1.5c0,0,0,0.1,0.1,0.1c0.1,0.5,0.2,0.9,0.3,1.3c0,0.1,0,0.2,0,0.3
				c0.1,0.2,0.2,0.5,0.3,0.7c0.2,0.4,0.4,0.7,0.7,1c0.2,0.2,0.4,0.5,0.6,0.7c-1.1,1.5,0.2,2.6,4.1,3.4c0.8,0.1,1.4,0,1.8-0.4
				c0.2-0.1,0.3-0.3,0.5-0.4c0.2,0,0.3,0,0.5,0.1c0.4,0.1,0.8,0.1,1.3,0.1c0.4,0,0.8,0.1,1.3,0.1c0,0.4,0.2,0.6,0.6,0.8
				c2.7,0.7,3.9,0.6,3.6-0.4c0.1,0,0.1,0,0.3,0c0.1,0,0.3,0,0.4,0c0.4,0,0.7,0.1,1.1,0.1c0.2,0.1,0.4,0.1,0.8,0.1
				c0.2,0,0.5,0,0.8,0.1c0.2,0,0.3,0,0.5,0c-0.1,0.8,0.2,1.2,1.1,1.3c2.5,0,3.8-0.3,3.8-0.9h0c0.4,0,0.8,0.1,1.3,0.1
				c0,0.3,0.1,0.4,0.5,0.5c2.8,1,3.9,0.9,3.5-0.3c0.7,0,1.3,0.1,1.9,0.1c0.5,0,0.9,0,1.4,0.1c0.1,0,0.1,0,0.2,0
				c0.4,0,0.8,0.1,1.3,0.1c0.1,0,0.2,0,0.3,0c0.4,0,0.8,0,1.1,0c0.7,0,1.3,0,1.9,0.1c0.2,0,0.3,0,0.5,0c0.2,0,0.3,0.1,0.5,0.1
				c0.3,0,0.6,0,0.9,0c-0.1,0.5,0,0.8,0.5,1c0.2,0,0.5,0.1,0.7,0.1c0,0.1-0.1,0.2-0.1,0.4c0,0.1,0,0.2,0,0.4
				c-0.1,0.1-0.1,0.3-0.2,0.4c-0.1,0.4-0.1,0.8-0.2,1.2c0,0.1-0.1,0.3-0.1,0.4c0,0.4-0.1,0.8-0.1,1.1c0,0.2-0.1,0.3-0.1,0.5
				c0,0.1-0.1,0.3-0.1,0.3c-0.1,0.4-0.2,0.8-0.2,1.1c-0.1,0.1-0.1,0.2-0.1,0.3c-0.2,0-0.5-0.1-0.7-0.1c-0.4,0-0.8,0-1.3-0.1
				c-0.5,0-0.9-0.1-1.4-0.1c-0.4,0-0.9-0.1-1.4-0.1s-1.1-0.1-1.6-0.1c-0.1,0-0.2,0-0.3,0c-0.3,0-0.7-0.1-1-0.1h0c-0.2,0-0.3,0-0.4,0
				c-0.6-0.1-1.3-0.1-1.9,0c-0.5-0.1-1.1-0.1-1.7-0.1c-0.5,0-0.9-0.1-1.3-0.1c-0.6,0-1.2-0.1-1.8-0.1c-0.5,0-0.9-0.1-1.3-0.1
				c-0.1,0-0.2,0-0.4,0c-0.3,0-0.5,0-0.9-0.1c-0.5,0-0.9-0.1-1.4-0.1c-0.6-0.1-1.2-0.1-1.8,0c-0.1,0-0.3,0-0.4,0
				c-0.1,0-0.2-0.1-0.3-0.1c-0.2,0-0.4,0-0.6,0c-0.6,0-1.2-0.1-1.8-0.1c-0.2,0-0.3,0-0.4,0c-0.4,0-0.7-0.1-1-0.1h-0.1
				c-0.2,0-0.4,0-0.6,0c-0.5,0-1-0.1-1.5-0.1c-0.6-0.1-1.2-0.1-1.7-0.1c-0.1,0-0.2,0-0.3,0l-1,0.1L92.7,72.1z M82.7,48
				c-0.1,0-0.1,0-0.2,0C82.6,48,82.6,48,82.7,48L82.7,48z"/>
			<path fill-rule="evenodd" clip-rule="evenodd" fill="#F5F6FB" d="M84.5,48.4l0.2-2.1c-0.1,1-0.1,1.7-0.1,2.2L84.5,48.4z"/>
		</g>
	</g>
	<g>
		<g>
			<path fill-rule="evenodd" clip-rule="evenodd" fill="#FFFFFF" d="M184.2,70.5c-0.1-0.1-0.1-0.2-0.2-0.4c0,0.1-0.1,0.3-0.1,0.4
				c-0.8,0.2-1.3,0.7-1.4,1.5c-0.6-0.4-1-0.9-1.1-1.5c0-0.1-0.1-0.1-0.1-0.3c1.2-0.4,1.9-1.1,1.9-2.1c0-0.1,0-0.1,0-0.1
				c0.9,0,2.1,0.6,3.5,1.9c0,0.6,0,1.1,0,1.4c-0.4-0.5-1-0.7-2-0.8C184.6,70.5,184.4,70.5,184.2,70.5z M185.6,74.2
				c-0.1,0.3-0.2,0.7-0.3,1.2c-0.4,1.5-0.6,2.7-0.7,3.4c-0.4,0.2-0.7,0.3-1,0.4c-0.6-0.4-1-0.9-1.1-1.6c-0.1-0.2-0.1-0.7-0.1-1.4
				c0-1.5,0.1-2.4,0.2-2.8l0-0.1v0.1c0.3,0.5,1,0.8,2.3,0.8C185.1,74.3,185.4,74.2,185.6,74.2z M188,75.3c-0.7,0.4-1.1,1-1.1,1.9
				c0,0.5,0.1,0.9,0.2,1.1c0.3,0.7,0.9,1,1.8,1c0.1,0,0.2,0,0.3,0c0.1,0.7,0.2,1.3,0.2,1.8c0,0.9-0.1,1.5-0.2,2
				c-0.4,0.2-0.7,0.4-1,0.5c-0.9-0.7-1.5-1.8-1.6-3.3c-0.1-0.4-0.1-1.6-0.1-3.6c0-1.3,0.1-2.2,0.2-2.8c0.1-0.5,0.3-0.7,0.5-0.5
				c0.2,0.2,0.5,0.7,0.8,1.6C187.8,75,187.9,75.1,188,75.3z M180.3,75.7c1,2.9,1.5,4.4,1.5,4.5c0,0.5,0,0.8-0.1,0.9h-0.1
				c0,0.1,0,0.2,0,0.3c-0.1,0.1-0.5,0.2-1,0.2c-0.3,0-0.6-0.1-1-0.4c0-0.5,0.1-1,0.1-1.5C179.9,78.2,180,76.9,180.3,75.7z M180,87.5
				c0.2-0.5,0.9-1,2-1.6c0.2,0.1,0.5,0.2,0.9,0.2c0.3,0.1,0.4,0.4,0.4,0.9c0,0.4-0.2,0.9-0.5,1.4c-0.3,0.5-0.5,1-0.5,1.4
				c0,0.9,0.3,2.4,1,4.4c0.7,1.9,1,2.9,1,2.9c0,0.5,0,0.9-0.1,1h-0.1l-0.1,0.1c-0.1,0.1-0.4,0.2-0.9,0.2c-1.2,0-2.1-1.5-2.7-4.4
				c-0.3-1.5-0.5-3-0.5-4.5C179.8,88.4,179.9,87.8,180,87.5z M189.8,93.3c0,0,0.1,0,0.1,0c0,0.4,0,0.7,0,1.1
				c-0.1-0.1-0.2-0.2-0.2-0.2C189.8,93.9,189.8,93.5,189.8,93.3z M185.5,92.6c-0.6-0.4-1-0.9-1.1-1.5c-0.1-0.2-0.1-0.7-0.1-1.6
				c0-1.5,0.4-2.6,1.3-3.1c0.6,0.3,1,0.6,1.3,1V92C186.3,92.2,185.9,92.4,185.5,92.6z M187.2,95.6c0.1,0,0.1,0.3,0.1,0.8
				c0,0.7-0.3,1.7-1,3l-0.8,0.3c-0.6-0.2-1-0.5-1.1-0.9c-0.1-0.2-0.1-0.6-0.1-1.2c0-0.8,0.1-1.4,0.2-1.6c0.3-0.6,1.2-0.7,2.5-0.4
				C187,95.6,187.1,95.6,187.2,95.6z M188.2,115.9c-0.1,0-0.1,0.1-0.2,0.1c-0.4-0.4-0.8-0.9-1-1.4c-0.2-0.4-0.3-0.6-0.3-0.8
				c0-1.4,0.4-2.1,1.3-2.1c0.4,0,0.7,0.1,0.9,0.4c-1,0.6-1.6,1.4-1.6,2.5C187.3,115.1,187.6,115.6,188.2,115.9z M186.8,107.4
				c0.5-0.5,0.8-0.8,0.8-1c0-0.9-0.4-1.5-1.1-1.8c0.2-0.5,0.5-0.7,1-0.6c0.8,0.1,1.3,0.7,1.3,1.9c0,0.6-0.1,1.1-0.2,1.6
				c-0.4,0.2-0.7,0.3-1,0.4C187.2,107.7,187,107.6,186.8,107.4z M185.3,108.6c0,0.4-0.1,0.8-0.2,1.1c0,0.1,0,0.2,0,0.3
				c-0.1,0.2-0.5,0.3-1,0.3s-1-0.2-1.3-0.6C183.5,109.5,184.3,109.2,185.3,108.6z M180.5,108.1c0,0.2,0,0.4,0,0.5
				c0.3,0.7,0.9,1,1.8,1h0c-0.1,0.2-0.3,0.4-0.4,0.6c-0.6,1-1.1,1.6-1.4,1.8c-0.2-0.1-0.3-0.3-0.4-0.4c-0.1-1.9-0.2-3.6-0.3-5.2
				c0.3,0.4,0.4,0.8,0.4,1.1l-0.1,0.8C180.3,108.3,180.4,108.2,180.5,108.1z M180.8,105.9c-0.1,0-0.2,0-0.3,0
				c-0.2,0-0.5-0.1-0.7-0.1c-0.1-1-0.1-1.9-0.1-2.7c0.2,0,0.3,0.1,0.5,0.2c0.7,0.3,1.2,0.8,1.5,1.8
				C181.3,105.2,181,105.5,180.8,105.9z M188.8,118.9c0.3,0.4,0.7,0.8,1.2,1v2.2c-0.2,0.4-0.3,0.7-0.3,1c-0.1,0-0.3,0.1-0.5,0.3
				c-0.3,0.2-0.6,0.3-0.8,0.4c-0.4-0.4-0.8-0.8-1-1.4c-0.2-0.4-0.3-0.7-0.3-0.9c0-1,0.1-1.6,0.2-1.9
				C187.8,119.1,188.2,118.9,188.8,118.9z M187.7,130.4l-0.2,0.1c-0.2,0.2-0.5,0.3-1,0.3c-0.9,0-1.5-0.5-2-1.4
				c-0.1-0.5-0.2-0.9-0.3-1.4c-0.1,0-0.2,0-0.3,0c-1,0-1.6-0.4-1.8-1.2c-0.1-0.4-0.1-0.9,0-1.4l0-2c0.2,0,0.5,0,1-0.1
				c0.2,0,0.5,0,0.8,0c-0.1-0.5-0.2-1.1-0.3-1.8c-0.2-1.1-0.3-2.2-0.4-3.3c-0.1,0-0.3,0.1-0.4,0.1c-0.6-0.4-1-0.9-1.1-1.6
				c-0.1-0.2-0.1-0.7-0.1-1.4c0-1.3,0.1-2,0.2-2.3c0.3-0.6,1.2-0.7,2.5-0.3c0,0,0,0.1,0.2,0.1c0.1,0,0.1,0.3,0.1,0.8
				c0,0.3,0,0.7-0.1,1.3c0,0.1,0.1,0.1,0.1,0.3c0.1-0.1,0.2-0.2,0.3-0.3c0.6,0.2,1,0.5,1.3,1v4.5c0.3,1.5,0.5,3,0.5,4.3
				c-0.2,0.3-0.4,0.8-0.4,1.6c0,0-0.1,0-0.1,0.1c0,0,0.1,0,0.1,0c0,0.2-0.1,0.5-0.1,0.7l0.3,1.7
				C186.8,129.6,187.2,130.1,187.7,130.4z M190.1,127.3c-0.3-0.9-0.8-1.5-1.3-2c0.1-0.1,0.3-0.2,0.5-0.2c0.2,0,0.5,0.1,0.7,0.4v0.9
				C190.1,126.5,190.1,126.9,190.1,127.3z M180.5,115.1c0.2-0.5,0.3-0.3,0.3,0.5c0,0.1-0.1,0.4-0.5,0.9c0-0.5,0-1,0-1.5
				C180.4,115,180.5,115.1,180.5,115.1z M182.5,152.6c0.2-0.1,0.3-0.2,0.5-0.2c0.1,0,0.2,0,0.3,0C183,152.5,182.7,152.5,182.5,152.6
				z M183,139.4c-0.5,0.1-1.1,0.3-1.8,0.6c0-1.3-0.1-2.5-0.1-3.8c0.3-0.5,0.5-1,0.8-1.3c0-0.3,0.1-0.6,0.2-0.7
				c0.3-0.3,0.7-0.4,1.4-0.5c0.2-1.5,0.5-2.3,1.1-2.3c0.6,0,1,0.8,1.2,2.4c0.1,0,0.3,0,0.3,0.1c0,0,0,0.1,0.2,0.1
				c0.1,0,0.1,0.3,0.1,0.8c0,0.2-0.2,0.4-0.5,0.8c0,0.1,0,0.3,0,0.4c0,1.7-0.1,3-0.2,4c-0.2,0.1-0.4,0.2-0.6,0.3
				c-0.2-0.6-0.6-0.9-1.3-1c-0.1-0.3-0.2-0.7-0.3-1.1c0-0.1,0-0.2-0.1-0.3c0,0.2-0.1,0.4-0.1,0.6C183.1,138.8,183,139.1,183,139.4z
				 M190.8,141c-0.1,0-0.3,0.1-0.3,0.2c-0.3,0.1-0.5,0.3-0.8,0.4c0-0.2,0-0.4,0-0.5c0-1.7,0.3-2.6,0.9-2.7
				C190.7,139.3,190.8,140.1,190.8,141z M180.8,127.6c0.1-0.1,0.1-0.1,0.2-0.2c0.8,0.9,1.3,1.5,1.5,1.9c0.2,0.4,0.3,1,0.3,1.9
				c-0.1,0.3-0.1,0.5-0.3,0.6c-0.1,0.2-0.5,0.4-1,0.4c-0.2,0-0.4,0-0.6-0.1C180.9,130.6,180.9,129.1,180.8,127.6z M189.8,139.1
				c0,0.3-0.3,0.8-0.9,1.4c-0.5,0.6-1,1.1-1.4,1.3c-0.6-0.2-1-0.5-1.1-1c-0.1-0.2-0.1-0.5-0.1-1.1c0-0.9,0.1-1.4,0.2-1.5
				c0.4-0.3,1.4-0.3,3,0c0,0,0,0.1,0.2,0.1C189.8,138.4,189.8,138.6,189.8,139.1z M191.8,167c0,0,0,0.1,0,0.1c0,0.8,0,3.1-0.1,6.9
				c-0.1,0-0.1,0-0.2,0c-0.9-0.7-1.5-1.8-1.6-3.3c-0.1-0.4-0.1-1.6-0.1-3.6c0-3.7,0.5-4.3,1.5-1.6C191.5,166,191.7,166.5,191.8,167z
				 M187.9,181.5c-0.1-0.3-0.1-0.7-0.1-1.4c-0.5-0.2-0.8-0.5-0.9-0.9c-0.1-0.2-0.1-0.5-0.1-1.1c0-1.3,0.4-1.9,1.3-1.8
				c0.4,0.1,0.8,0.3,1,0.6l0,0c0.6,0.2,1,0.5,1.3,0.9v1.3C188.8,179.7,188,180.5,187.9,181.5z M191.7,178.7c-0.1,0-0.2,0-0.4,0
				c-0.3-0.7-0.5-1.3-0.5-1.7c0-0.4,0-0.7,0-0.7c0.1-0.1,0.2-0.2,0.2-0.3c0.2,0,0.5,0,0.7,0.1C191.7,177,191.7,177.8,191.7,178.7z
				 M190.3,186.2c0-1.6,0.4-2.3,1.3-2.2c0,1.3-0.1,2.7-0.1,4.2c0,2-0.1,4.2-0.2,6.5c-0.1-0.2-0.2-0.4-0.3-0.5
				c-0.1-0.1-0.1-0.3-0.1-0.4c0,0.1-0.1,0.1-0.1,0.2c-0.3,0.6-0.5,1.1-0.5,1.5c-0.1,0-0.3,0.1-0.5,0.3c-0.3,0.2-0.6,0.3-0.8,0.3
				c-0.4-0.4-0.8-0.8-1-1.3c-0.2-0.4-0.3-0.7-0.3-0.9c0-1,0.1-1.6,0.2-1.8c0.4-0.6,1.4-0.8,2.9-0.5c0-0.2,0-0.4,0.1-0.5
				c0,0,0-0.1,0-0.1c-0.1-0.2-0.2-0.4-0.2-0.7c-0.1-0.3-0.1-0.7-0.1-1.1c-0.2-0.3-0.3-0.8-0.4-1.3
				C190.3,187.1,190.2,186.5,190.3,186.2z M191,197.2c0.1-0.3,0.2-0.6,0.3-0.9c0,0.3,0,0.5,0,0.8C191.2,197.1,191.1,197.2,191,197.2
				z M190.4,197.7c-0.4,0.4-0.6,0.9-0.6,1.8c0,0.1,0,0.5,0,1.3c0.2,0.5,0.6,0.9,1.3,1c0,1-0.1,2-0.1,3c-0.1-0.2-0.1-0.5-0.1-0.7
				c-0.1-0.3-0.1-1-0.1-2.1c-0.1,0-0.1,0-0.3,0c-1,0-1.6-0.4-1.8-1.3c-0.1-0.4-0.1-0.8,0-1c0-1.3,0.4-2,1-2
				C190,197.5,190.2,197.5,190.4,197.7z M183.3,203.8c-0.1,0.3-0.1,0.5-0.3,0.6c-0.1,0.2-0.5,0.4-1,0.4c-0.4,0-0.8-0.2-1.1-0.5
				c0-1.3,0.1-2.6,0.1-3.9c0.1-0.2,0.3-0.3,0.5-0.4c0.8,0.9,1.3,1.5,1.5,1.9C183.2,202.2,183.3,202.8,183.3,203.8z M186.3,210.2
				c-0.1,0.9-0.1,1.6-0.2,2.2c-0.4,0.2-0.7,0.3-1,0.4c-0.6-0.3-1-1.1-1.1-2.3c0-0.1,0-0.1,0-0.3c-0.1,0.2-0.1,0.4-0.2,0.6
				c-0.5,1.8-0.9,3.3-1.1,4.4c-0.4,0.2-0.7,0.3-1,0.4c-0.3-0.3-0.6-0.7-0.8-1c0-1.4,0.1-2.7,0.1-4c0.1-0.3,0.2-0.6,0.3-1
				c0.1-0.3,0.2-0.5,0.3-0.8c0.2-0.5,0.5-1,0.8-1.4c0-0.1,0.1-0.1,0.1-0.1c0-0.3,0.1-0.6,0.2-0.7c0.3-0.3,0.7-0.4,1.4-0.5
				c0.2-1.5,0.5-2.3,1.1-2.3c0.6,0,1,0.8,1.2,2.4c0.1,0,0.3,0,0.3,0.1c0,0,0,0.1,0.2,0.1c0.1,0,0.1,0.3,0.1,0.7
				c-0.6,0.5-0.9,1.1-0.9,1.8c0,0.5,0,0.8,0.1,1C186.1,210,186.2,210.1,186.3,210.2z M188.9,210.5c0.3,0,0.7,0.1,1.1,0.2
				c0,0,0,0.1,0.2,0.1c0.1,0,0.1,0.3,0.1,0.8c0,0.3-0.3,0.8-0.9,1.5c-0.1,0.1-0.2,0.2-0.3,0.3c-0.1-0.9-0.5-1.4-1.1-1.4
				c-0.4,0-0.8,0.1-1.3,0.5c0-0.1,0-0.2,0-0.3c0-0.9,0.1-1.4,0.2-1.5c0.1,0,0.1-0.1,0.2-0.1c0.3,0,0.5,0,0.8,0
				C188.3,210.7,188.6,210.7,188.9,210.5z M190.8,220.2c-0.1,2.2-0.1,4.5-0.2,6.9c-0.1,0-0.2,0.1-0.3,0.1c0.1,0.4,0.2,0.7,0.3,1.1
				c0,0.2,0,0.3,0,0.5c-0.1,2.5-0.1,5.1-0.1,7.7c-0.3,0.2-0.6,0.3-0.8,0.4c-0.1,0.4-0.2,0.9-0.4,1.5c0,0.1,0,0.2,0,0.4
				c0,0,0,0.3,0,0.7c0,0.7-0.3,1.6-0.8,2.7c0,0.1-0.1,0.2-0.2,0.3l-0.8,0.3c-0.6-0.2-1-0.5-1.1-1c-0.1-0.2-0.1-0.5-0.1-1.2
				c0-0.8,0.1-1.4,0.2-1.6c0.2-0.3,0.4-0.4,0.8-0.5c0,0,0.1,0,0.2,0c-0.5-0.1-0.9-0.1-1.2,0c0-1.1,0.1-1.8,0.2-2
				c0.3-0.5,1-1.1,2.1-1.7c-0.2-0.5-0.3-1.1-0.5-1.7c-0.2,0.5-0.3,0.9-0.3,1.3c-0.1,0-0.3,0.1-0.5,0.3c-0.3,0.2-0.6,0.3-0.8,0.4
				c-0.6-0.4-1-0.9-1.1-1.5c-0.1-0.2-0.1-0.8-0.1-1.7l0-2.8c0.5,0,1,0,1.4,0.1c-0.9-2.9-1.4-4.7-1.4-5.4c0-0.3,0-0.5,0-0.6
				c-0.1,0-0.2,0.1-0.3,0.1c0.3-0.5,0.5-1,0.8-1.5c0,0.1,0,0.2,0,0.4c0,0.2,0,0.4-0.1,0.6c1.3,0,2.4,0.5,3.2,1.5c0-0.5,0-1.1,0-1.9
				c0-1.4,0.1-2.5,0.3-3.3c0,0,0,0.1,0,0.2C189.3,219.8,189.9,220.1,190.8,220.2z M190.7,216c-0.2-0.2-0.3-0.5-0.4-1
				c-0.1-0.6-0.1-1,0-1.4c0-1.3,0.2-2.2,0.6-2.5c0,1.1-0.1,2.2-0.1,3.3c0,0.5,0,1,0,1.5C190.7,215.9,190.7,215.9,190.7,216z
				 M182.8,223.8c-0.3-0.1-0.5-0.2-0.6-0.3c-0.2-0.2-0.4-0.6-0.4-1.2c0-0.6,0.2-0.9,0.7-1.1c0-0.1,0-0.3,0-0.3
				c-0.1-0.3-0.1-1-0.1-2.2c0-2.9,0.4-4.4,1.3-4.3c0.3,0,0.6,0.3,0.8,0.8c-1.2,1.8-1.8,3.6-1.8,5.5c0,0.1,0,0.8,0,2.1
				C182.6,223.2,182.7,223.5,182.8,223.8z M180.7,219c0,0.1,0.1,0.2,0.1,0.3c0,0.2-0.1,0.4-0.1,0.6
				C180.7,219.6,180.7,219.3,180.7,219z M181.3,229.3v5.9c-0.4,0.2-0.8,0.4-1,0.6c0-2.2,0.1-4.3,0.2-6.2
				C180.7,229.6,181,229.5,181.3,229.3z M182.2,246.2c0.8,0.3,1.3,1,1.6,2l-0.3,0.3c-0.2,0.2-0.5,0.3-1,0.3c-0.6,0-1.1-0.3-1.7-0.9
				c-0.1-0.2-0.3-0.3-0.4-0.5c-0.1-0.1-0.2-0.3-0.2-0.3c0-0.3,0-0.7,0-1.1c0.2,0,0.3-0.1,0.5-0.1C181.3,245.9,181.8,246,182.2,246.2
				z M183.5,224.8c0.8-0.1,1.3,0.8,1.3,2.6c0,0.9-0.1,1.6-0.2,2.3c-0.4,0.2-0.7,0.3-1,0.4c-0.8-0.8-1.3-1.7-1.3-2.8
				C182.3,225.8,182.7,224.9,183.5,224.8z M190.4,237.7c0,0.8-0.1,1.6-0.1,2.4c0-0.2,0-0.3,0-0.5c0-1,0-1.8,0.1-2.3
				C190.4,237.4,190.4,237.5,190.4,237.7z M182.3,241.3c-0.3-1-0.4-2-0.5-3c0-3.8,0.7-4.1,2-1c1.3,3.8,2,5.7,2,5.8
				c0,0.5,0,0.8-0.1,0.9h-0.1c0,0.1,0,0.2,0,0.3c-0.1,0.1-0.5,0.2-1,0.2C183.6,244.5,182.8,243.5,182.3,241.3z M189.5,254.8
				c-0.1-0.1-0.3-0.1-0.5-0.1c-0.1,0-0.3,0-0.4,0c-0.1-0.2-0.2-0.4-0.3-0.7c-0.1-0.2-0.1-0.7-0.1-1.6c0-0.6,0.1-1.2,0.3-1.7
				c0.2-0.1,0.4-0.1,0.5-0.1c-0.4-0.2-0.6-0.5-0.7-0.8c-0.1-0.2-0.1-0.5-0.1-1.1c0-1.3,0.4-2,1.3-1.8c0.4,0.1,0.7,0.3,1,0.5
				c0,1.4,0.1,3,0.2,4.8c-0.8,0.3-1.3,0.9-1.3,1.7C189.4,254.3,189.4,254.5,189.5,254.8z M189.5,254.8c0,0,0,0.1,0,0.1
				c0.2,0.3,0.6,0.5,1.2,0.6c0,1,0.1,2,0.2,3.1c-0.3,0.2-0.6,0.3-0.9,0.4c-0.4-0.4-0.8-0.9-1-1.4c-0.2-0.4-0.3-0.6-0.3-0.8
				C188.8,255.7,189,255,189.5,254.8z M183.8,258.2c0.1,0,0.2,0,0.3,0c0.7,0,1.2-0.2,1.6-0.6c0.3-0.4,0.5-0.8,0.5-1.3
				c0-0.9-0.5-1.9-1.5-3c0.1,0,0.2,0,0.3,0c0.2,0,0.4,0,0.6,0c-0.4-0.1-0.7-0.2-0.9-0.5c-0.1-0.1-0.2-0.3-0.3-0.5
				c-0.1,0.1-0.1,0.3-0.3,0.5c-0.2-0.2-0.4-0.5-0.7-0.7c-0.5-0.4-0.9-0.7-1.2-0.8c0.3-0.3,0.7-0.6,1.1-0.9c0.1,0.1,0.3,0.1,0.5,0.2
				c0.1,0,0.2,0,0.3,0c0-0.3,0-0.6,0-1c0-1,0.1-1.6,0.2-1.7c0.3-0.4,1.1-0.4,2.5-0.1c0.1,0.3,0.2,0.7,0.2,1.3c0,0.3,0,0.6,0,0.9
				c0,0,0,0.1,0,0.1v0c0,0,0,0.1,0,0.2c0,1-0.1,1.8-0.2,2.5c0,0.1,0,0.2,0,0.3c-0.1,0.1-0.3,0.2-0.7,0.3c0.1,0.9,0.4,2.2,1,3.8
				c0.2,0.5,0.3,1,0.5,1.4c0.2,0.2,0.4,0.3,0.5,0.5v4.5c0.3,1.7,0.5,3.3,0.5,4.8c0,0.5,0,0.8-0.1,0.9h-0.1l-0.1,0.2
				c0,0-0.1,0.1-0.2,0.2c0.4,0.3,0.6,0.7,0.8,1.2c0.2,1.1,0.5,1.9,0.7,2.5l-0.3,0.3c-0.2,0.2-0.5,0.3-1,0.3c-0.9,0-1.5-0.5-2-1.5
				c-0.1-0.5-0.2-0.9-0.3-1.4c-0.1,0-0.2,0-0.3,0c-1,0-1.6-0.4-1.8-1.2c-0.1-0.4-0.1-0.9,0-1.4l0-1.9c0.2,0,0.5,0,1-0.1
				c0.2,0,0.5,0,0.8,0c-0.1-0.5-0.2-1.1-0.3-1.8c-0.2-1.1-0.3-2.2-0.4-3.3c-0.1,0-0.3,0.1-0.4,0.1c-0.6-0.4-1-0.9-1.1-1.5
				c-0.1-0.2-0.1-0.7-0.1-1.5C183.8,258.3,183.8,258.2,183.8,258.2z M181,254.7v1.4c0.3,1,0.9,1.7,1.8,2c0,0.1,0,0.3,0,0.5
				c0,0.1-0.2,0.4-0.5,1c-0.1,0.1-0.2,0.3-0.3,0.5c-0.4,0.6-0.5,1.3-0.3,2.1c0,0,0.1,0.2,0.1,0.4v0c0,0.1,0,0.2,0,0.4
				c0,0.4-0.1,1.1-0.3,2c-0.1,0.5-0.2,0.9-0.3,1.3c0.1,0,0.3,0.1,0.6,0.1c0.3,0.1,0.4,0.4,0.4,0.9c0,1.1-0.2,2.7-0.5,4.7
				c-0.3,2-0.5,3.9-0.5,5.6c-0.1,0.1-0.2,0.1-0.3,0.2c-0.3-6.8-0.5-13.9-0.7-21.3c0-1.1,0-1.9,0.1-2.5c0,0.1,0.1,0.1,0.1,0.3
				C180.6,254.3,180.8,254.4,181,254.7z M181.2,252.3c0,0-0.1,0-0.1,0c-0.3,0-0.5-0.1-0.8-0.3c0-1.2,0-2.4,0-3.6
				c0.3,0.1,0.7,0.3,1,0.6c0.2,0.2,0.4,0.3,0.5,0.5c0.1-0.1,0.1-0.1,0.2-0.2c0.4,0.2,0.7,0.6,1,1.2c-0.2,0-0.3-0.1-0.5-0.2
				c-0.1,0.1-0.1,0.1-0.2,0.2c0,0.1,0,0.1,0,0.2l0,0.5C181.7,251,181.3,251.4,181.2,252.3z M183.1,286.3c-0.5-1.3-0.9-2-1.3-2
				c0-0.1,0-0.3,0-0.3c0-0.9,0.3-2.1,0.9-3.7c0.4-1,0.8-1.7,1.2-2.3c0-0.3,0.1-0.6,0.2-0.7c0.3-0.3,0.7-0.4,1.4-0.5
				c0.2-1.5,0.5-2.3,1.1-2.3c0.6,0,1,0.8,1.2,2.4c0.1,0,0.3,0,0.3,0c0,0,0,0.1,0.2,0.1c0.1,0,0.1,0.3,0.1,0.8c0,0.2-0.2,0.4-0.5,0.8
				c0,0.1,0,0.3,0,0.4c0,1.7-0.1,3-0.2,4c-0.4,0.2-0.7,0.3-1,0.5c-0.6-0.3-1-1.1-1.1-2.3c0-0.1,0-0.2-0.1-0.3c0,0.2-0.1,0.4-0.1,0.6
				c-0.5,1.8-0.9,3.3-1.1,4.5C183.7,286.1,183.4,286.2,183.1,286.3z M191,261.8c0,1.3,0.1,2.7,0.2,4.2c0,0.1,0,0.2,0,0.3
				c-0.3,0.1-0.5,0.2-0.6,0.3c-0.4-0.4-0.8-0.8-1-1.3c-0.2-0.4-0.3-0.7-0.3-0.9c0-1,0.1-1.6,0.2-1.8
				C189.8,262.1,190.3,261.9,191,261.8z M190.3,270c0-1.2,0.3-1.8,1-2c0,1.5,0.1,2.9,0.2,4.3c-0.6-0.2-1-0.6-1.1-1.3
				C190.2,270.6,190.2,270.3,190.3,270z M191.7,288.8c-0.2-0.1-0.5-0.3-0.8-0.3c0.2-0.3,0.4-0.5,0.6-0.5c0.1,0,0.1,0,0.2,0
				C191.7,288.3,191.7,288.5,191.7,288.8z M181.8,272.5c0-0.2,0.1-0.5,0.2-0.8c0.2-0.5,0.5-0.9,1-1.3c0.8,0.9,1.3,1.5,1.5,1.9
				c0.2,0.4,0.3,1.1,0.3,2c-0.1,0.3-0.1,0.5-0.3,0.6c-0.1,0.2-0.5,0.3-1,0.3c-0.7,0-1.2-0.4-1.5-1.3
				C181.9,273.5,181.8,273,181.8,272.5z M191.6,281.3c0,0.4,0,0.9,0.1,1.3c-0.2,0.3-0.4,0.6-0.8,1c-0.5,0.6-1,1.1-1.4,1.3
				c-0.6-0.2-1-0.5-1.1-0.9c-0.1-0.2-0.1-0.5-0.1-1.1c0-0.9,0.1-1.4,0.2-1.5C188.9,281,189.9,281,191.6,281.3
				C191.5,281.3,191.6,281.3,191.6,281.3z M186.1,300.3c-0.4,0.2-0.7,0.3-1,0.4c-0.8-0.8-1.3-1.7-1.3-2.8c0-1.6,0.4-2.4,1.3-2.5
				c0.8-0.1,1.3,0.8,1.3,2.5C186.3,298.8,186.2,299.6,186.1,300.3z M182.5,302.8c-0.1-1.7-0.2-3.4-0.3-5.1c0.3,0.2,0.5,0.4,0.6,0.6
				v4.8C182.7,303,182.6,302.9,182.5,302.8z M182.7,305.6c0-0.1,0.1-0.1,0.1-0.1v0.3c0,0-0.1,0.1-0.1,0.1
				C182.7,305.8,182.7,305.7,182.7,305.6z M191.9,313.7c-0.1-0.4-0.1-1.6-0.1-3.6c0-0.3,0-0.6,0-0.8c0.1,2,0.2,3.9,0.4,5.6
				C192,314.5,192,314.1,191.9,313.7z M184.8,321c0-0.4,0.1-0.6,0.2-0.7c0.2-0.3,0.7-0.4,1.6-0.3c0.3-0.2,0.6-0.4,1-0.5
				c0.2,0.1,0.5,0.2,0.9,0.2c0.3,0.1,0.4,0.4,0.4,0.9c0,0.3-0.1,0.5-0.2,0.8c-0.2-1.1-1-1.4-2.5-0.9
				C185.6,320.5,185.2,320.7,184.8,321z M192.3,321.8v3.8c-0.5,0.2-0.9,0.4-1.3,0.6c-0.6-0.4-1-0.8-1.1-1.4
				c-0.1-0.2-0.1-0.7-0.1-1.5c-0.5-0.2-0.8-0.5-0.9-0.9c-0.1-0.2-0.1-0.5-0.1-1.1c0-1.3,0.4-1.9,1.3-1.8c0.2,0,0.3,0.1,0.5,0.2
				c-0.1,0.1-0.1,0.3-0.1,0.5c0,0.5,0,0.8,0.1,1C190.8,321.5,191.4,321.7,192.3,321.8z M193.4,331.2c0.1,1.6,0.1,3.3,0.2,4.9
				c-0.1,0.5-0.2,1.1-0.3,1.6c-0.1-0.2-0.2-0.4-0.3-0.5c-0.1-0.1-0.1-0.3-0.1-0.4c0,0.1-0.1,0.1-0.1,0.2c-0.3,0.6-0.5,1.1-0.5,1.5
				c-0.1,0-0.3,0.1-0.5,0.3c-0.3,0.2-0.6,0.3-0.8,0.3c-0.4-0.4-0.8-0.8-1-1.3c-0.2-0.4-0.3-0.7-0.3-0.9c0-1,0.1-1.6,0.2-1.8
				c0.4-0.6,1.4-0.8,2.9-0.5c0-0.2,0-0.4,0.1-0.5c0,0,0-0.1,0-0.1c-0.1-0.2-0.2-0.4-0.2-0.7c-0.1-0.3-0.1-0.7-0.1-1.1
				c-0.2-0.3-0.3-0.8-0.4-1.3c-0.1-0.7-0.1-1.2,0-1.6c0-1.3,0.3-2.1,0.9-2.2C193.3,328.3,193.3,329.7,193.4,331.2z M187.8,323.9
				c0.1,0.9,0.4,2.2,1,3.7c0.2,0.6,0.4,1.1,0.5,1.5c0-1.4,0.4-2,1.3-2c0.8,0,1.3,0.7,1.3,2c0,0.7-0.1,1.3-0.2,1.8
				c-0.4,0.2-0.7,0.4-1,0.5c-0.3-0.3-0.6-0.6-0.8-1l0,0.1c0,0.5,0,0.8-0.1,0.9h-0.1l-0.1,0.2c-0.1,0.1-0.3,0.1-0.7,0.1v4.1
				c0.3,1.3,0.4,2.6,0.5,3.8c-0.3-0.1-0.6-0.2-1-0.2c-1.3,0-1.9,0.8-1.9,2.4c0,0,0,0.2,0,0.4c-0.3-0.1-0.5-0.1-0.8-0.1
				c-0.3,0-0.5,0-0.8-0.1c-0.1-0.4-0.1-0.8,0-1.3l0-2c0.2,0,0.5,0,1-0.1c0.2,0,0.5,0,0.8,0c-0.1-0.5-0.2-1-0.3-1.7
				c0.3-0.1,0.6-0.3,1-0.5c0.9-0.5,1.4-1.1,1.4-1.7c0-1.2-0.9-1.9-2.6-1.9c-0.5,0-0.9,0-1.2,0.2c-0.2-0.3-0.4-0.6-0.4-1
				c-0.1-0.2-0.1-0.7-0.1-1.5c0-1.3,0.1-2,0.2-2.3c0.2-0.4,0.7-0.6,1.5-0.5c-0.1-0.2-0.1-0.3-0.2-0.5c-0.1-0.6-0.2-1.2-0.3-1.8
				c0.5,0,1.2-0.5,2-1.4C187.6,324.2,187.8,324,187.8,323.9z M192.8,341.3c-0.2,0.4-0.4,1-0.4,1.7h-1.7c0-0.2,0-0.3,0-0.5
				c0-1.3,0.4-2,1-2c0.3,0,0.7,0.2,1,0.6C192.8,341.1,192.8,341.2,192.8,341.3z"/>
			<path fill-rule="evenodd" clip-rule="evenodd" fill="#C2C2C9" d="M184,70.5c0.1,0,0.1,0,0.3,0c0.2,0,0.4,0,0.6,0
				c0.9,0.1,1.6,0.3,2,0.8c0.2,0.3,0.4,0.7,0.4,1.2c0,0.3-0.1,0.6-0.2,0.9c-0.2-0.2-0.4,0-0.5,0.5c-0.3,0.2-0.6,0.3-0.9,0.4
				c-0.2,0-0.5,0-0.8,0c-1.2,0-2-0.3-2.3-0.8v-0.1c0-0.1,0-0.4,0-0.9c0-0.2,0-0.3,0-0.5C182.7,71.2,183.2,70.7,184,70.5z M183.2,68
				c0,0,0,0.1,0,0.1c0,1.1-0.6,1.8-1.9,2.1h-0.1C181.6,68.7,182.2,68,183.2,68z M189.1,79.3c-0.1,0-0.2,0-0.3,0
				c-0.9,0-1.5-0.3-1.8-1c-0.1-0.3-0.2-0.7-0.2-1.1c0-0.8,0.4-1.4,1.1-1.9c0.3-0.2,0.8-0.4,1.3-0.5c0.1,0,0.1,0,0.2,0
				c0,1.4,0.1,2.9,0.1,4.3C189.4,79.1,189.3,79.2,189.1,79.3z M180.7,86.1c-0.3,0.4-0.7,0.6-1.3,0.6c0-1.4,0.1-2.8,0.2-4.1
				c1.1-0.1,1.7,0.6,1.7,2C181.2,85.2,181,85.7,180.7,86.1z M189.9,93.3c0,0-0.1,0-0.1,0c-0.1,0-0.1,0-0.3,0c-1.3,0-2.1-0.3-2.5-1
				c-0.2-0.4-0.3-0.8-0.2-1.1c0-1.3,1-2.5,3-3.6c0,0.3,0,0.5,0,0.8C189.8,90,189.9,91.6,189.9,93.3z M190,119.9
				c-0.5-0.2-0.9-0.5-1.2-1v0c-0.3-0.5-0.5-1-0.5-1.6c0-0.5,0.1-0.9,0.4-1.1c-0.2-0.1-0.4-0.1-0.5-0.2c-0.6-0.3-0.9-0.8-0.9-1.4
				c0-1.1,0.5-1.9,1.6-2.5c0.3-0.2,0.7-0.3,1.1-0.5c-0.1-0.6-0.2-0.9-0.2-0.9c0-0.4,0.1-0.7,0.2-1.1v2V119.9z M180.8,105.9
				c0.2-0.4,0.5-0.7,0.9-0.9c0.6-0.4,1.3-0.6,2.3-0.7c1-0.1,1.9,0,2.5,0.3c0.7,0.3,1.1,0.9,1.1,1.8c0,0.2-0.3,0.6-0.8,1
				c-0.3,0.2-0.6,0.5-1,0.8c-0.2,0.1-0.4,0.3-0.5,0.4c-0.9,0.6-1.7,0.9-2.5,1c-0.2,0-0.3,0-0.5,0h0c-0.9,0-1.5-0.3-1.8-1
				c0-0.2,0-0.4,0-0.5c0-0.3,0-0.5,0-0.5C180.5,106.9,180.6,106.3,180.8,105.9z M186.8,124.8c0.3-0.4,0.7-0.4,1.3-0.1
				c0.3,0.1,0.5,0.3,0.8,0.6c0.5,0.5,0.9,1.2,1.3,2c0.1,0.9,0.1,1.9,0.2,3l-0.3,0.2c-0.3,0.2-0.7,0.3-1.2,0.3
				c-0.4,0-0.8-0.1-1.1-0.3c-0.5-0.3-0.9-0.8-1.1-1.5l-0.3-1.7c0-0.2,0-0.5,0.1-0.7c0,0,0-0.1,0-0.1
				C186.4,125.6,186.6,125.1,186.8,124.8z M180.5,118.3c0.5,0.2,0.8,0.8,0.8,1.6c0,0.4-0.2,0.8-0.7,1.2
				C180.5,120.1,180.5,119.1,180.5,118.3z M183,139.4c0.3-0.1,0.5-0.1,0.8-0.1c0.6,0,1,0.4,1.3,1c0.1,0.3,0.1,0.7,0.1,1.1
				c0,0.8-0.3,1.5-1,2.1c-0.3,0.3-0.7,0.5-1.1,0.8c-0.4,0.2-0.7,0.4-1.1,0.6c-0.2,0.1-0.4,0.1-0.5,0.3c-0.1-1.7-0.1-3.4-0.1-5.1
				C181.8,139.7,182.5,139.5,183,139.4z M191,145.5c-0.8,0.4-1.5,0.6-2,0.6c-0.1,0-0.3,0-0.4,0c-1.2-0.1-1.8-0.7-1.8-1.7
				c0-0.8,1-1.7,2.9-2.8c0.2-0.2,0.5-0.3,0.8-0.4c0.1-0.1,0.2-0.1,0.3-0.2C190.9,142.5,191,144,191,145.5z M190.8,150.1
				c-0.2,0-0.3,0-0.5,0c-1.3,0-2-0.6-2-1.7c0-1.3,0.6-2,1.9-2c0.1,0,0.3,0,0.3,0c0.2,0,0.3,0.1,0.5,0.1c0,0.5,0,1,0.1,1.5
				c0,0.6,0.1,1.2,0.1,1.8C191.1,150,190.9,150,190.8,150.1z M190.2,159.1c-0.1,0-0.1,0-0.2,0c-1,0-1.7-0.3-2-1
				c-0.1-0.7-0.2-1-0.2-1c0-1.3,0.9-2.3,2.8-3c0,0,0.1,0,0.1,0c0.2-0.1,0.5-0.1,0.7-0.1c0.1,1.7,0.1,3.2,0.2,4.6
				C191,158.9,190.5,159.1,190.2,159.1z M185,171.9c0,0.2,0,0.4,0,0.5c0,0.8-0.7,1.7-2,2.8c-0.6,0.4-1.1,0.8-1.5,1
				c0-2,0.1-3.8,0.1-5.4c0.3-0.1,0.5-0.2,0.8-0.2C184,170.3,184.8,170.6,185,171.9z M181.3,187c0,0,0.1,0,0.1,0
				c0.4,0.1,0.6,0.4,0.8,0.7c0.3,0.3,0.4,0.8,0.4,1.4c0,0.3,0,0.5-0.1,0.8c-0.2,0.8-0.6,1.2-1.3,1.4
				C181.3,189.7,181.3,188.3,181.3,187z M182.5,152.6c0.2-0.1,0.5-0.1,0.8-0.2c0.7-0.1,1.3-0.1,1.7,0c0.7,0.3,1.1,0.9,1.1,2
				c0,0.2-0.1,0.6-0.3,1c-0.1,0.1-0.2,0.3-0.3,0.5c-0.1,0.2-0.2,0.4-0.3,0.6c-0.2,0.4-0.3,0.7-0.3,0.9c0,0.4-0.1,0.7-0.3,0.9
				c-0.1,0.1-0.2,0.3-0.3,0.4c-0.3,0.3-0.7,0.5-1.2,0.5c-0.7,0-1.2-0.2-1.6-0.5c-0.1-1.9-0.1-3.7-0.2-5.5
				C181.8,152.9,182.1,152.7,182.5,152.6z M191.7,178.7c0,1.2-0.1,2.6-0.1,4c-0.8,0.6-1.4,1-1.8,1c-1.3,0-2-0.6-2-1.8
				c0-0.1,0-0.3,0.1-0.4c0.1-1,0.9-1.8,2.4-2.5c0.1,0,0.1-0.1,0.2-0.1c0.3-0.1,0.6-0.2,0.8-0.3C191.4,178.7,191.5,178.7,191.7,178.7
				z M191.2,201.7c-0.7-0.1-1.1-0.5-1.3-1c0-0.8,0-1.2,0-1.3c0-0.8,0.2-1.4,0.6-1.8c0.1-0.2,0.3-0.4,0.6-0.5c0.1,0,0.2-0.1,0.3-0.1
				C191.2,198.6,191.2,200.1,191.2,201.7z M186.8,207.2c0.5-0.5,1.3-1,2.3-1.4c0.8-0.4,1.5-0.5,2-0.4c0,1.3-0.1,2.6-0.1,4
				c-0.2,0.1-0.4,0.3-0.7,0.4c-0.5,0.3-1,0.5-1.4,0.7c-0.3,0.1-0.6,0.2-0.9,0.2c-0.3,0-0.6,0-0.8,0c-0.4-0.1-0.7-0.3-0.9-0.5
				c-0.1-0.1-0.2-0.2-0.3-0.3c-0.1-0.2-0.1-0.5-0.1-1C185.9,208.3,186.2,207.7,186.8,207.2z M189.2,213.3c0,0.2,0,0.4,0,0.6
				c0,0.6-1.1,3.2-3.4,7.8c-0.2,0.5-0.5,1-0.8,1.5c-0.2,0.5-0.5,1-0.8,1.5c-0.7,0-1.2-0.3-1.5-0.9c-0.1-0.3-0.2-0.6-0.3-1
				c0-1.3,0-2,0-2.1c0-1.9,0.6-3.7,1.8-5.5c0.4-0.6,0.9-1.3,1.5-1.9c0.3-0.4,0.7-0.6,1-0.8c0.5-0.4,0.9-0.6,1.3-0.5
				C188.7,212,189,212.4,189.2,213.3z M189,219c-0.1-0.6-0.1-0.9-0.1-1c0-1,0.6-1.7,1.8-2.1c0,0,0.1,0,0.1,0c0,1.4,0,2.8,0,4.3
				c-0.9-0.1-1.4-0.4-1.7-1C189,219.1,189,219.1,189,219z M180.4,229.7c0-0.3,0-0.7,0-1c0-1.7,0.1-3.4,0.1-5.1
				c1.1,0.1,1.7,1.1,1.7,3c0,1-0.1,1.7-0.3,2c-0.2,0.3-0.4,0.6-0.7,0.8C181,229.5,180.7,229.6,180.4,229.7z M190.8,255.5
				c-0.6-0.1-1-0.3-1.2-0.6c0,0,0-0.1,0-0.1v0c-0.1-0.2-0.1-0.5-0.1-0.8c0-0.8,0.4-1.4,1.3-1.7C190.7,253.3,190.7,254.4,190.8,255.5
				z M183.1,286.3c0.2,0.6,0.5,1.3,0.8,2c0.4,1.2,0.8,2.7,1.3,4.4l-0.3,1.3l-0.4,0.3v0c-0.3,0.2-0.7,0.3-1.2,0.3
				c-0.6,0-1-0.2-1.4-0.5c-0.2-3.1-0.4-6.2-0.6-9.4c0.1-0.5,0.3-0.6,0.5-0.5C182.2,284.3,182.6,285,183.1,286.3z M181.2,252.3
				c0.2-0.8,0.6-1.2,1.1-1.1c0,0,0.1,0,0.2,0c0.3,0.1,0.7,0.4,1.2,0.8c0.3,0.2,0.5,0.5,0.7,0.7c0.1,0.2,0.3,0.3,0.4,0.5
				c1,1.1,1.5,2.1,1.5,3c0,0.5-0.2,1-0.5,1.3c-0.4,0.4-0.9,0.6-1.6,0.6c-0.1,0-0.2,0-0.3,0c-0.4,0-0.7-0.1-1-0.2
				c-0.9-0.3-1.5-1-1.8-2v-1.4l0-0.7C181,253.3,181,252.7,181.2,252.3z M191.7,292.7c-0.5,0-0.9,0-1.4-0.2c-0.8-0.2-1.5-0.5-2.1-1
				c-0.5-0.4-0.8-0.7-1-1c-0.2-0.3-0.3-0.6-0.3-0.8c0-0.9,0.3-1.4,0.9-1.7c0.6-0.2,1.4-0.2,2.5,0.2c0.2,0.1,0.4,0.1,0.6,0.2
				c0.3,0.1,0.6,0.2,0.8,0.3c0,0.7,0,1.2,0,1.6C191.7,291.2,191.7,291.9,191.7,292.7z M190.3,274.9c0.5,0,0.9,0.1,1.2,0.4
				c0,0.1,0,0.1,0,0.2c0,1.5,0.1,3,0.1,4.3c-0.3,0.3-0.7,0.5-1.3,0.5c-1,0-1.6-0.4-1.8-1.2c0-0.8,0-1.3,0-1.3
				C188.4,275.8,189,274.9,190.3,274.9z M182.8,305.5c0,0-0.1,0.1-0.1,0.1c-0.1-0.9-0.1-1.9-0.2-2.8c0.1,0.1,0.2,0.2,0.3,0.3
				c0.3,0.3,0.5,0.8,0.5,1.4C183.3,304.8,183.1,305.1,182.8,305.5z M183.5,322.8c0.1-0.7,0.5-1.2,1-1.6c0.1-0.1,0.2-0.2,0.3-0.2
				c0.3-0.2,0.7-0.4,1.2-0.5c1.5-0.4,2.4-0.1,2.5,0.9c0,0.2,0.1,0.4,0.1,0.6c0,0.6-0.3,1.2-0.8,2c-0.1,0.1-0.2,0.3-0.3,0.4
				c-0.8,0.9-1.4,1.4-2,1.4c-0.3,0-0.6,0-0.8,0c-0.6-0.1-1-0.4-1.2-0.8C183.5,324.2,183.5,323.5,183.5,322.8z M190.5,319.5
				c0.2-0.6,0.8-1.2,1.9-1.8c0,0.6,0.1,1.1,0.1,1.6c0.1,0.8,0.2,1.6,0.3,2.4c-0.1,0-0.2,0-0.3,0c-0.1,0-0.2,0-0.3,0
				c-0.9,0-1.5-0.3-1.8-0.8c-0.1-0.2-0.1-0.5-0.1-1C190.4,319.8,190.4,319.6,190.5,319.5z M186.3,337.1c-0.3,0.1-0.6,0.2-0.8,0.2
				c-0.9,0-1.6-0.2-1.9-0.7c0-0.8,0-1.6,0-2.4c0.2-0.5,0.6-0.8,1.2-1c0.3-0.1,0.7-0.2,1.2-0.2c1.7,0,2.6,0.6,2.6,1.9
				c0,0.6-0.5,1.2-1.4,1.7C186.9,336.8,186.6,337,186.3,337.1z M192.4,342.9c0-0.7,0.2-1.3,0.4-1.7c-0.1,0.5-0.1,1.1-0.2,1.7H192.4z
				 M189.3,339.8c0.6,0.3,0.9,1,0.9,2c0,0.4,0,0.8-0.1,1.2h0c-1.2-0.2-2.4-0.4-3.6-0.6c0-0.2,0-0.4,0-0.4c0-1.5,0.6-2.3,1.9-2.4
				C188.7,339.5,189,339.6,189.3,339.8z"/>
			<path fill-rule="evenodd" clip-rule="evenodd" fill="#E8E8F4" d="M191,145.5c0,0.3,0,0.5,0,0.9c-0.2-0.1-0.4-0.2-0.6-0.3
				c0,0.1,0.1,0.3,0.1,0.5c-0.1,0-0.2,0-0.3,0c-1.3,0-1.9,0.7-1.9,2c0,1.1,0.7,1.7,2,1.7c0.2,0,0.3,0,0.5,0c0,1.6,0,2.9-0.1,4
				c-1.9,0.7-2.8,1.6-2.8,3c0,0,0.1,0.4,0.2,1c0.3,0.7,1,1,2,1c0,0,0.1,0,0.2,0c0.1,1.8,0.1,2.8,0.1,3c0,0.7-0.1,1.3-0.2,1.8
				c-0.3,0.2-0.6,0.4-0.9,0.5c-0.1,0.4-0.2,0.9-0.4,1.5c-0.4,1.5-0.6,2.7-0.7,3.4c-0.1,0.1-0.3,0.1-0.3,0.2c-0.1,0.6-0.5,1.4-1,2.4
				l-0.8,0.3c-0.4-0.1-0.6-0.3-0.8-0.5h-0.1c0,0.1,0,0.2,0,0.3c-0.2-1.2-1.1-1.6-2.6-1.2c-0.2-0.5-0.4-1.1-0.6-1.8
				c-0.1-0.2-0.1-0.4-0.1-0.6c0-0.4,0-0.8,0-1.2c0.1-2,0.1-3.3,0.1-3.9c0-0.1,0-0.2,0-0.3c0.3-0.3,0.8,0.4,1.5,2
				c0.7,1.9,1.2,3.4,1.5,4.4c0-0.4,0.1-0.7,0.2-0.9c0.2-0.3,0.5-0.5,0.8-0.5c0-0.3,0-0.6,0-1.1c0-1.5,0.1-2.4,0.2-2.8
				c0.3-0.5,1-1.1,2.1-1.7c-0.2-0.5-0.3-1.1-0.5-1.7c-0.2,0.5-0.3,0.9-0.3,1.3c-0.1,0-0.3,0.1-0.5,0.3c-0.3,0.2-0.6,0.3-0.8,0.4
				c-0.6-0.4-1-0.9-1.1-1.5c-0.1-0.2-0.1-0.8-0.1-1.6l0-1.1c0.2-0.3,0.3-0.6,0.3-0.9c0-0.2,0.1-0.5,0.3-0.9c0.3,0,0.6,0.1,0.9,0.1
				c-0.1-0.4-0.3-0.8-0.4-1.2c0.2-0.5,0.3-0.8,0.3-1c0-1-0.4-1.7-1.1-2c-0.1-0.6-0.2-1-0.2-1.2c0-0.3,0-0.5,0-0.6
				c-0.1,0.1-0.3,0.1-0.4,0.2c-1.2,0.4-1.8,0.6-1.9,0.6c-0.5-0.2-0.8-0.3-0.9-0.4c-0.1-0.1-0.2-0.2-0.2-0.3c0-0.4,0-0.9,0-1.4
				c0.1-0.3,0.3-0.5,0.5-0.6c0-0.1,0-0.2,0-0.3c-0.1-0.3-0.1-1.1-0.1-2.3c0-0.5,0-1,0-1.4c0.4-0.2,0.7-0.4,1.1-0.6
				c0.4-0.3,0.8-0.5,1.1-0.8c0,0.1,0,0.1,0,0.2c1.1-1.4,1.7-1.1,1.7,0.9c0,0.9-0.4,2.3-1.1,4.1c0.1,0,0.3,0,0.3,0c0,0,0,0.1,0.2,0.1
				c0.1,0,0.1,0.3,0.1,0.8c0,0.2,0,0.4-0.1,0.5c1.3,0,2.4,0.5,3.2,1.5c0-0.5,0-1.1,0-1.9c0-1.7,0.1-2.9,0.4-3.7c0.1,0,0.3,0,0.4,0
				C189.6,146.1,190.3,145.9,191,145.5z M181.3,187c0.1-4.1,0.1-7.7,0.2-10.8c0.3,0.3,0.5,0.8,0.8,1.3c0.2,0.4,0.4,0.9,0.5,1.5
				c0,0.1,0,0.1,0,0.2c0-0.1,0-0.2,0-0.3c0-1,0.1-1.6,0.2-1.7c0.2-0.3,0.7-0.4,1.6-0.3c0.3-0.2,0.6-0.4,1-0.5
				c0.2,0.1,0.5,0.2,0.9,0.2c0.3,0.1,0.4,0.4,0.4,0.9c0,0.4-0.2,0.9-0.5,1.4c-0.3,0.5-0.5,0.9-0.5,1.3c0,1,0.3,2.4,1,4.3
				c0.2,0.6,0.4,1.1,0.5,1.5c0-1.4,0.4-2,1.3-2c0.8,0,1.3,0.7,1.3,2c0,0.7-0.1,1.3-0.2,1.8c-0.4,0.2-0.7,0.4-1,0.5
				c-0.3-0.3-0.6-0.6-0.8-1l0,0.1c0,0.5,0,0.8-0.1,0.9h-0.1l-0.1,0.2c-0.1,0.1-0.3,0.1-0.7,0.1v4.1c0.3,1.7,0.5,3.3,0.5,4.8
				c0,0.5,0,0.8-0.1,0.9h-0.1l-0.1,0.2c0,0-0.1,0.1-0.2,0.2c0.4,0.3,0.6,0.7,0.8,1.2c0.2,1.1,0.5,1.9,0.7,2.6L188,203
				c-0.2,0.2-0.5,0.3-1,0.3c-0.9,0-1.5-0.5-2-1.5c-0.1-0.5-0.2-0.9-0.3-1.4c-0.1,0-0.2,0-0.3,0c-1,0-1.6-0.4-1.8-1.2
				c-0.1-0.4-0.1-0.9,0-1.4l0-2c0.2,0,0.5,0,1-0.1c0.2,0,0.5,0,0.8,0c-0.1-0.5-0.2-1.1-0.3-1.8c-0.2-1.1-0.3-2.2-0.4-3.3
				c-0.1,0-0.3,0.1-0.4,0.1c-0.4-0.2-0.8-0.5-1-1c0.1-0.2,0.1-0.5,0.1-0.8c0-0.6-0.1-1.1-0.4-1.4c0-1.2,0.1-1.9,0.2-2.2
				c0.2-0.4,0.7-0.6,1.5-0.5c-0.1-0.2-0.1-0.3-0.2-0.5c-0.2-0.7-0.3-1.5-0.3-2.3c-0.2-0.2-0.3-0.4-0.5-0.6c-0.1,0.1-0.2,0.3-0.3,0.5
				c-0.2,2.3-0.6,3.9-1.3,4.8C181.4,187,181.4,187,181.3,187z M190.3,292.5c0.4,0.1,0.9,0.2,1.4,0.2c0,4.9,0,9.3,0,13.3
				c0,0.4,0,0.7,0,1.1c-0.2,0.1-0.4,0.2-0.6,0.3c-0.1,0.4-0.2,0.9-0.4,1.5c-0.4,1.5-0.6,2.7-0.7,3.4c-0.1,0.1-0.3,0.1-0.3,0.2
				c-0.1,0.6-0.5,1.4-1,2.4l-0.8,0.3c-0.4-0.1-0.6-0.3-0.8-0.5h-0.1c0,0.1,0,0.2,0,0.3c-0.1,0.2-0.5,0.3-1,0.3c-1,0-1.7-1.1-2.3-3.2
				c-0.3-1-0.4-2-0.5-3c0-3.7,0.7-4.1,2-1c0.7,1.9,1.2,3.4,1.5,4.3c0-0.4,0.1-0.7,0.2-0.8c0.2-0.3,0.5-0.5,0.8-0.6
				c0-0.3,0-0.6,0-1.1c0-1.5,0.1-2.4,0.2-2.8c0.3-0.5,1-1,2.1-1.7c-0.2-0.5-0.3-1.1-0.5-1.7c-0.2,0.5-0.3,0.9-0.3,1.3
				c-0.1,0-0.3,0.1-0.5,0.3c-0.3,0.2-0.6,0.3-0.8,0.4c-0.6-0.4-1-0.9-1.1-1.5c-0.1-0.2-0.1-0.8-0.1-1.7l0-2.8c0.5,0,1,0,1.4,0.1
				c-0.9-2.9-1.4-4.7-1.4-5.4c0-0.3,0-0.5,0-0.5c-0.1,0.1-0.3,0.1-0.4,0.2c-1.2,0.4-1.8,0.6-1.9,0.6h0v0l0.4-0.3l0.3-1.3
				c-0.5-1.7-0.9-3.2-1.3-4.4c0.1-2.3,0.5-3.4,1.2-3.3c0.5,0.1,0.9,0.6,1,1.7c1.1-1.4,1.7-1.1,1.7,1c0,0.1,0,0.3,0,0.4
				c-0.6,0.2-0.9,0.8-0.9,1.7c0,0.3,0.1,0.5,0.3,0.8c-0.1,0.4-0.3,0.8-0.5,1.2c0.1,0,0.3,0,0.3,0c0,0,0,0.1,0.2,0.1
				c0.1,0,0.1,0.3,0.1,0.8c0,0.2,0,0.4-0.1,0.5c1.3,0,2.4,0.5,3.2,1.5c0-0.5,0-1.1,0-1.9C190.3,292.8,190.3,292.7,190.3,292.5z
				 M184.5,321.2c-0.6,0.4-0.9,0.9-1,1.6c-0.1-1.2-0.1-2.5-0.2-3.7c0.4,0.4,0.7,0.9,1,1.5C184.4,320.8,184.5,321,184.5,321.2z
				 M184.7,325.7c-0.2,1.8-0.5,3.2-1,4c0-1.6-0.1-3.2-0.1-4.8C183.8,325.3,184.1,325.6,184.7,325.7z"/>
		</g>
	</g>
	<g>
		<path fill-rule="evenodd" clip-rule="evenodd" fill="#FFFFFF" d="M171.7,64.1c1.9,0.1,2.8,0.8,2.8,1.9c0,0.1,0,0.3,0,0.4
			c0.5,0.2,0.9,0.6,1,1.3c0.2,0,0.4,0,0.7,0c1.2,0.4,1.8,1,1.8,1.9c0,0.5-0.2,1-0.7,1.4c-0.4,0.3-0.8,0.5-1.1,0.5h-3.7
			c-0.1,0.6-0.4,1-1,1.2c-0.5,0.2-1.3,0.3-2.3,0.3c-1.7,0-2.8-0.3-3.3-0.8c-0.1-0.1-0.2-0.5-0.2-1c0-1,0.6-1.6,1.8-1.9
			c0.3,0.2,0.5,0.4,0.5,0.4c0.2,0.1,0.6,0.1,1.2,0.1c0.5,0,0.9,0,1.2-0.1l0.4-0.2h0.1c0-0.1,0-0.4,0-0.9c0-0.5,0-0.8-0.1-0.8
			c-0.1,0-0.1-0.1-0.1-0.1c-0.6-0.1-1.2-0.2-1.6-0.2c-0.1-0.1-0.1-0.1-0.1-0.2c-0.1-0.1-0.2-0.5-0.2-1
			C168.8,64.7,169.8,64,171.7,64.1z M164,73.4c-0.4,0.3-0.8,0.5-1.3,0.5c-0.9,0-1.5-0.3-1.8-0.8c-0.1-0.2-0.2-0.5-0.2-1
			c0-1.3,0.6-2,1.9-2c1.2,0,1.8,0.6,1.8,1.9C164.5,72.6,164.3,73,164,73.4z M175.2,67.5c-0.8-0.3-1.4-0.3-1.9,0c0,0-0.3,0.3-0.8,0.9
			l0.1,0.8c0.1,0.1,0.3,0.3,0.4,0.5c0.1,0.1,0.5,0.1,1,0.1c0.5,0,0.8,0,1-0.1l0.3-0.2h0.1c0-0.1,0-0.4,0-0.9c0-0.5,0-0.8-0.1-0.8
			C175.3,67.6,175.2,67.6,175.2,67.5z M180.5,70.9c0.8,0.1,1.3,0.4,1.6,0.8c0,0,0.1,0,0.1,0c1.2,0,1.8,0.7,1.8,2.1
			c0,1.1-0.6,1.8-1.8,2.1l-1.8-0.6v-0.4c-1,0-1.7-0.3-2-1c-0.1-0.4-0.2-0.8-0.2-1.1C178.3,71.2,179,70.6,180.5,70.9z"/>
	</g>
</g>
</svg>
