<?xml version="1.0" encoding="utf-8"?>
<!-- Generator: Adobe Illustrator 16.0.0, SVG Export Plug-In . SVG Version: 6.00 Build 0)  -->
<!DOCTYPE svg PUBLIC "-//W3C//DTD SVG 1.1//EN" "http://www.w3.org/Graphics/SVG/1.1/DTD/svg11.dtd">
<svg version="1.1" id="Layer_1" xmlns="http://www.w3.org/2000/svg" xmlns:xlink="http://www.w3.org/1999/xlink" x="0px" y="0px"
	 width="210px" height="350px" viewBox="0 0 210 350" enable-background="new 0 0 210 350" xml:space="preserve">
<g>
	<g>
		<g>
			<linearGradient id="SVGID_1_" gradientUnits="userSpaceOnUse" x1="314.1924" y1="26.6226" x2="178.5709" y2="91.861">
				<stop  offset="0" style="stop-color:#C4CDD2"/>
				<stop  offset="0.2824" style="stop-color:#E4F1F9"/>
				<stop  offset="0.4235" style="stop-color:#A2A29A"/>
				<stop  offset="0.6" style="stop-color:#A5A79C"/>
				<stop  offset="0.7529" style="stop-color:#EBF1EF"/>
				<stop  offset="1" style="stop-color:#A0A2A3"/>
			</linearGradient>
			<polygon fill-rule="evenodd" clip-rule="evenodd" fill="url(#SVGID_1_)" points="167,95.3 168,93.1 168.2,93 193.2,87 192,89.3 
							"/>
			<linearGradient id="SVGID_2_" gradientUnits="userSpaceOnUse" x1="61.6401" y1="-41.4395" x2="145.6698" y2="124.7208">
				<stop  offset="0" style="stop-color:#C4CDD2"/>
				<stop  offset="0.2824" style="stop-color:#E4F1F9"/>
				<stop  offset="0.4235" style="stop-color:#A2A29A"/>
				<stop  offset="0.6" style="stop-color:#A5A79C"/>
				<stop  offset="0.7529" style="stop-color:#EBF1EF"/>
				<stop  offset="1" style="stop-color:#CBCFCE"/>
			</linearGradient>
			<polygon fill-rule="evenodd" clip-rule="evenodd" fill="url(#SVGID_2_)" points="168.2,93 28,23.7 53.5,18 193.2,87 193.2,87 			
				"/>
			<linearGradient id="SVGID_3_" gradientUnits="userSpaceOnUse" x1="26.7681" y1="24.5439" x2="167.6143" y2="94.1011">
				<stop  offset="0" style="stop-color:#C4CDD2"/>
				<stop  offset="0.2824" style="stop-color:#E4F1F9"/>
				<stop  offset="0.4235" style="stop-color:#A2A29A"/>
				<stop  offset="0.6" style="stop-color:#A5A79C"/>
				<stop  offset="0.7529" style="stop-color:#EBF1EF"/>
				<stop  offset="1" style="stop-color:#CBCFCE"/>
			</linearGradient>
			<polygon fill-rule="evenodd" clip-rule="evenodd" fill="url(#SVGID_3_)" points="167,95.3 27,26 28,23.7 168.2,93 168,93.1 			
				"/>
		</g>
		<g>
			<polygon fill-rule="evenodd" clip-rule="evenodd" fill="#FFFFFF" fill-opacity="0.502" points="192.7,87.5 167.8,93.5 
				167.8,93.5 27.5,24.1 27.8,23.6 168.1,93 168,93 192.9,87.1 			"/>
		</g>
	</g>
	<g>
		<path fill-rule="evenodd" clip-rule="evenodd" fill="#CBCDDA" d="M172.1,89.9c1.3-0.2,2.6-0.3,3.9-0.4c0.9,0.2,1.8,0.2,3,0.1
			c0.7,0,1.4-0.1,2.1-0.2c1.2,0,2.3,0,3.5,0.1c0.8,0.3,1.4,0.3,1.7,0.1c0.2,0,0.3,0,0.5,0c0.5,0.1,1,0.1,1.5,0.2c0.1,0,0.1,0,0.2,0
			c0.1,0,0.2,0,0.3,0c0.1,0.1,0.3,0.1,0.5,0.2c0.1,0,0.1,0,0.1,0c0.2,0.1,0.5,0.1,0.7,0.2c0.7,0.1,1.3,0.2,2,0.3c0.1,0,0.2,0,0.3,0
			l-0.3,0.4l-0.5,1.5l0,0l-0.5,0.7l-0.5,0.5l-0.3,0.5l-0.5,0.6l-0.1,0.2c-0.1,0-0.2,0-0.3,0c-0.2,0.1-0.4,0.1-0.6,0.1
			c-0.6,0-1.1,0.1-1.6,0.1c-0.1,0-0.2,0-0.3,0c-0.2,0-0.4,0-0.6,0c-0.1,0-0.2,0-0.5,0c-0.2,0-0.4,0-0.4,0c-0.1,0-0.2,0-0.4,0
			c-0.3,0-0.7,0-1.1,0c-0.3,0-0.6,0-1,0c-0.3-0.1-0.6-0.1-1,0l0-0.1l0,0.1c-0.1,0-0.2,0-0.4-0.1c-0.3-0.1-0.5-0.1-0.8,0
			c-0.6-0.1-1.1-0.2-1.7-0.1l-0.1-0.1c-0.3,0-0.6,0-0.8,0c-0.1,0-0.2,0-0.3-0.1c-0.4,0-0.7-0.1-1.1-0.1c-0.4,0-0.8-0.1-1.2-0.2
			l-0.2-0.1v0c-0.6,0-1.1-0.1-1.7-0.3c-0.3-0.1-0.6-0.3-0.8-0.4c-0.3-0.1-0.6-0.2-0.8-0.3c-0.2,0-0.4-0.1-0.6-0.2
			c-0.1-0.1-0.3-0.2-0.5-0.2c-0.2-0.1-0.5-0.3-0.8-0.4c-0.5-0.2-1-0.4-1.5-0.6c-0.2-0.1-0.4-0.1-0.5-0.1c-0.2-0.1-0.4-0.2-0.6-0.3
			c-0.1-0.1-0.3-0.1-0.5-0.3c-0.3-0.1-0.5-0.2-0.7-0.3c0.5,0,1.2,0,2-0.1c1-0.2,1.9-0.4,2.8-0.7C171.6,90.1,171.9,90,172.1,89.9z"/>
	</g>
	<g>
		<g>
			<path fill-rule="evenodd" clip-rule="evenodd" fill="#FFFFFF" d="M194.7,101c-1.6,0-2.4,0.8-2.4,2.4c0,0.6,0,0.9,0.1,0.9
				c-0.1,0-0.2,0.1-0.3,0.2c-0.3,0.2-0.6,0.3-0.8,0.4l-0.1-0.1c-0.1-2.5-0.2-4.2-0.3-4.9v-0.1c0.2-0.1,0.8-0.5,1.7-1.2
				c0.3-0.2,0.6-0.4,0.9-0.6c0.1,0,0.3,0.1,0.5,0.1c0.1,0,0.3,0.1,0.4,0.1c0,0,0.1,0,0.1,0v0.1C194.7,99.2,194.7,100,194.7,101z
				 M193.2,104.9c0.4,0.1,0.9,0.2,1.5,0.3c0,0.5,0,1,0,1.5c-0.1,0-0.1,0.1-0.2,0.1c-0.1,0.4-0.2,0.9-0.3,1.5c0,0.1-0.1,0.2-0.1,0.4
				c0,0,0.1,0.3,0.1,0.7c0,0.7-0.3,1.6-0.9,2.7c0,0.1-0.1,0.2-0.1,0.3l-0.8,0.3c-0.4-0.1-0.7-0.3-0.9-0.4c0-1.2-0.1-2.3-0.1-3.4
				c0.2-0.2,0.4-0.3,0.7-0.4c0,0,0.1,0,0.1,0c-0.3,0-0.6-0.1-0.8-0.1c0-0.7,0-1.4,0-2C191.6,105.9,192.2,105.4,193.2,104.9z
				 M191.8,142c0.7-0.1,1.3-0.3,1.9-0.4c0.2-0.1,0.3-0.1,0.5-0.1c0.2,0.6,0.3,1.2,0.5,1.6l-0.3,0.4c-0.2,0.2-0.5,0.3-1,0.3
				c-0.7,0-1.2-0.3-1.6-0.9C191.8,142.6,191.8,142.3,191.8,142z M194.8,151c0.1,0,0.2,0,0.3,0c0,0.2-0.1,0.5-0.1,0.7
				c0,0.6,0,1.3,0,1.9c-0.6,0.2-1,0.4-1.3,0.9c-0.2-0.2-0.4-0.4-0.5-0.6c0.4-0.2,0.8-0.4,1.1-0.8c0.4-0.4,0.6-0.9,0.6-1.3
				C195,151.5,195,151.2,194.8,151z M192.7,149.9c-0.1,0-0.1,0-0.2,0c-0.3,0-0.5,0-0.7,0c0-1.9,0-3.6,0-5.4c0.4,0.3,0.6,1,0.8,2.3
				c0.1,0,0.3,0,0.4,0.1c0,0,0,0.1,0.1,0.1c0.1,0,0.1,0.3,0.1,0.8c0,0.2-0.2,0.4-0.5,0.8c0,0.1,0,0.3,0,0.4
				C192.7,149.2,192.7,149.5,192.7,149.9z M192.7,180.6c0.4,0.3,1,0.5,2,0.5c0.1,0,0.2,0,0.3,0c0,0.3,0,0.5,0,0.8c0,0.1,0,0.2,0,0.3
				c-0.1,0.1-0.3,0.1-0.4,0.1c-0.1,0.6-0.4,1.4-0.9,2.4l-0.8,0.3c-0.4-0.1-0.7-0.3-0.9-0.5H192c0,0.1,0,0.2,0,0.3
				c-0.1,0.1-0.2,0.2-0.4,0.2c0-1.2,0-2.3,0-3.5c0.1,0.3,0.2,0.5,0.3,0.7c0-0.4,0-0.7,0.1-0.9c0.2-0.3,0.5-0.5,0.9-0.5
				C192.7,180.7,192.7,180.7,192.7,180.6z M194.9,189.3c0.1,0,0.2,0,0.3,0c0,2.2,0.1,4.1,0.1,5.8c0,0.2,0,0.3,0,0.5
				c-0.3-0.3-0.5-0.6-0.5-1c-0.1-0.2-0.1-0.7-0.1-1.5c-0.5-0.2-0.8-0.5-0.9-0.8c-0.1-0.2-0.1-0.5-0.1-1.2
				C193.7,189.8,194.1,189.2,194.9,189.3z M194.9,207.6c-0.2-0.4-0.3-0.7-0.3-0.9c0-1,0.1-1.6,0.2-1.9c0.1-0.2,0.3-0.3,0.6-0.4
				c0,1.5,0.1,2.8,0.1,4.1C195.2,208.3,195,207.9,194.9,207.6z M195.6,213.2c0-0.2,0-0.4,0-0.6c0,0.1,0,0.3,0,0.4
				C195.6,213.1,195.6,213.1,195.6,213.2z M193.4,219.3c0,0,0,0.1,0.1,0.1c0.1,0,0.1,0.3,0.1,0.8c0,0.2-0.2,0.4-0.5,0.8
				c0,0.1,0,0.3,0,0.3c0,1.7-0.1,3-0.2,4c0,0-0.1,0-0.1,0c0-0.1,0-0.1,0-0.3c0-1.8-0.1-3.6-0.1-5.4c0-0.7,0-1.4,0-2.2
				c0.2,0.4,0.3,0.9,0.3,1.7C193.2,219.3,193.3,219.3,193.4,219.3z M193.7,225.2c0-0.9,0.1-1.4,0.2-1.5c0.3-0.3,1.1-0.3,2.3-0.2
				c0,0.8,0,1.7,0,2.5c-0.5,0.5-0.9,0.9-1.3,1.2c-0.6-0.2-1-0.5-1.2-1C193.7,226.1,193.7,225.7,193.7,225.2z M192.8,230.3
				c0-0.8,0.1-1.4,0.1-1.9c0.2,0.3,0.3,0.8,0.3,1.6c0,0.5-0.1,1.2-0.4,2C192.8,231.3,192.8,230.8,192.8,230.3z M195.7,236.2
				c0-0.3,0-0.6,0-1c0-2.3,0.2-3.8,0.6-4.5c0,1.9,0,3.8,0,5.7C196.2,236.3,195.9,236.2,195.7,236.2z M196.3,239.9
				c-0.1,2.1-0.2,4-0.4,5.8c0,0.2,0,0.4,0,0.6c0,0-0.1,0-0.1,0c-0.2,0-0.5,0-0.7,0c-0.1-0.1-0.1-0.2-0.1-0.3c0,0.1-0.1,0.3-0.1,0.4
				c-0.8,0.2-1.3,0.7-1.4,1.5c-0.4-0.3-0.8-0.6-1-1c0-0.3,0-0.5,0-0.8c1.1-0.4,1.6-1.1,1.6-2.1c0-1.3-0.5-2-1.5-2v-0.1
				c0.4,0,0.8,0,1,0.1c-0.2-0.7-0.4-1.4-0.6-2c0.4,0.1,0.9,0.1,1.5,0.1C195.2,240.1,195.8,240,196.3,239.9z M194.5,250
				C194.5,250,194.4,250,194.5,250c-0.2,0.2-0.3,0.3-0.5,0.3c0,0,0,0.1,0,0.1c-0.2,0.1-0.4,0.1-0.5,0c-0.1,0-0.2,0-0.3-0.1
				c0-0.4,0.1-0.7,0.1-0.9l0.1,0v0C193.6,249.6,194,249.9,194.5,250z M194.7,236.2c-0.1,0-0.1,0-0.2,0c-0.7,0-1.3,0.1-1.8,0.3
				c0-0.1,0-0.2,0-0.3c0-0.2,0-0.5,0-0.7C193.4,235.6,194,235.8,194.7,236.2z"/>
			<path fill-rule="evenodd" clip-rule="evenodd" fill="#C2C2C9" d="M192.4,104.3c0-0.1-0.1-0.4-0.1-0.9c0-1.6,0.8-2.4,2.4-2.4
				c0,0.6,0,1.1,0,1.7c0,0.8,0,1.6,0,2.5c-0.7,0-1.2-0.1-1.5-0.3C192.8,104.7,192.5,104.5,192.4,104.3z M191.8,137.9
				c0.7,0,1.4,0,1.9,0.1c0.6,0.1,1,0.3,1.3,0.5c0.1,0.1,0.2,0.2,0.3,0.3c0,0.3,0,0.5,0,0.9c0,0.3,0,0.7,0,1c0,0.1-0.1,0.1-0.1,0.1
				c-0.2,0.2-0.6,0.5-1,0.7c-0.2,0-0.3,0.1-0.5,0.1c-0.6,0.2-1.2,0.4-1.9,0.4C191.8,140.6,191.8,139.2,191.8,137.9z M192.7,149.9
				c1.2,0,1.9,0.4,2.2,1.1c0.1,0.2,0.2,0.5,0.2,0.8c0,0.4-0.2,0.9-0.6,1.3c-0.3,0.3-0.7,0.6-1.1,0.8c-0.5,0.2-1,0.3-1.6,0.3
				c0-0.7,0-1.4,0-2.1c0-0.7,0-1.4,0-2.1c0.2,0,0.4,0,0.7,0C192.5,149.9,192.6,149.9,192.7,149.9z M193.8,154.5
				c0.3-0.4,0.8-0.7,1.3-0.9c0,1.3,0,2.6,0,4c-0.9-0.1-1.4-0.4-1.6-0.8c0-0.1-0.1-0.4-0.1-0.9C193.3,155.3,193.5,154.8,193.8,154.5z
				 M195,181.1c-0.1,0-0.3,0-0.3,0c-0.9,0-1.6-0.2-2-0.5c-0.1-0.1-0.2-0.2-0.3-0.3c-0.1-0.1-0.1-0.4-0.1-1c0-0.6,0.1-1.1,0.4-1.5
				c0.4-0.7,1.1-1,2.2-1c0,0.1,0,0.2,0,0.3C194.9,178.3,195,179.6,195,181.1z M193.7,190.2c-0.1,0.2-0.3,0.5-0.5,0.7
				c-0.5,0.6-1,1-1.6,1.2c0-1.7-0.1-3.3-0.1-5c0.1,0,0.2,0,0.3,0c1.6-0.2,2.3,0.5,2.3,1.8C194.1,189.2,194,189.7,193.7,190.2z
				 M192,203c0,0.2,0,0.4,0,0.7c0,0.1,0,0.2,0,0.3C192.1,203.7,192,203.3,192,203z M195.1,186.1c0,0.5,0,1,0,1.5
				c0,0.5,0,1.1,0.1,1.6c-0.2-0.2-0.3-0.4-0.4-0.7c-0.1-0.4-0.1-0.8,0-1.2c0-0.6,0.1-1.1,0.3-1.5C195.1,185.9,195.1,186,195.1,186.1
				z M194.7,236.2c0.4,0,0.7,0,1,0c0.3,0,0.5,0.1,0.7,0.2c0,0.5,0,1.1,0,1.6c0,0,0,0.1,0,0.1c0,0.2,0,0.3,0,0.5c0,0.3,0,0.5,0,0.8
				c0,0.2,0,0.3,0,0.5c-0.4,0.1-1,0.2-1.8,0.2c-0.6,0-1.1,0-1.5-0.1c-0.1,0-0.3,0-0.4,0v0c0-0.9,0.1-2,0.1-3.1c0-0.1,0-0.3,0-0.3
				c0.5-0.2,1.1-0.3,1.8-0.3C194.5,236.2,194.6,236.2,194.7,236.2z M195.8,246.3c-0.2,1.2-0.5,2.2-0.8,2.9c-0.2,0.4-0.3,0.7-0.5,0.8
				c-0.5-0.1-0.9-0.4-1.1-0.7v0c0-0.1-0.1-0.4-0.1-0.9c0-0.2,0-0.3,0.1-0.5c0.1-0.8,0.6-1.3,1.4-1.5c0.1,0,0.2,0,0.3,0
				C195.3,246.3,195.5,246.3,195.8,246.3C195.7,246.3,195.8,246.3,195.8,246.3z M192.5,241.9c1,0.1,1.5,0.8,1.5,2
				c0,1-0.5,1.7-1.6,2.1c0-0.1,0-0.1,0-0.2c0-0.2,0-0.6,0-1.3c0-0.7,0-1.5,0-2.4C192.5,242.1,192.5,242,192.5,241.9z"/>
			<path fill-rule="evenodd" clip-rule="evenodd" fill="#E8E8F4" d="M191.9,117.5c0.1,0.3,0.2,0.7,0.2,1.3c0,0.3,0.1,0.6,0.1,0.9
				c0,0,0,0.1,0,0.1v0c0,0,0,0.1,0,0.1c0,1-0.1,1.8-0.2,2.6c0,0.1,0,0.2,0,0.3c0,0-0.1,0.1-0.2,0.1c0-2,0-3.8,0-5.5
				C191.8,117.5,191.8,117.5,191.9,117.5z M195,117c0,1.1,0.1,2.3,0.1,3.5c0,1,0,1.9,0.1,2.9c0,1,0,1.9,0,2.8c0,1,0.1,1.9,0.1,2.6
				c-0.1,0.1-0.3,0.1-0.4,0.1c-0.4-0.4-0.8-0.9-1-1.4c-0.2-0.4-0.3-0.7-0.3-0.9c0-1.1,0.3-1.7,0.8-2c-0.1-0.1-0.3-0.1-0.5-0.1
				c-0.1,0-0.3,0-0.4,0.1c-0.1-0.2-0.2-0.4-0.3-0.6c-0.1-0.2-0.1-0.7-0.1-1.6c0-0.6,0.1-1.2,0.3-1.6c0.2-0.1,0.3-0.1,0.5-0.2
				c-0.4-0.2-0.6-0.5-0.7-0.8c-0.1-0.2-0.1-0.5-0.1-1.1c0-1.3,0.4-1.9,1.3-1.9C194.6,116.8,194.8,116.9,195,117z M193.7,138
				c-0.5-0.1-1.1-0.1-1.9-0.1c0-1.3,0-2.6,0-3.8c0-0.1,0-0.1,0-0.3c0-2.8,0-5.5,0-8c0.1,0.4,0.2,0.8,0.4,1.2
				c0.2,0.5,0.3,0.9,0.4,1.3c0.2,0.2,0.4,0.4,0.6,0.6v4.5C193.5,135,193.7,136.5,193.7,138z M195.2,140.8c0,0,0.1-0.1,0.1-0.1
				c0,0.2,0,0.5,0,0.6c0-0.1-0.1-0.2-0.1-0.3C195.2,140.9,195.2,140.8,195.2,140.8z M195.3,131.8c0,0.2,0,0.4,0,0.6c0,0.6,0,2,0,4.1
				c-0.4-0.4-0.7-0.8-0.9-1.3c-0.2-0.4-0.3-0.7-0.3-0.9c0-1,0.1-1.6,0.2-1.9C194.5,132.1,194.9,131.9,195.3,131.8z M192.2,162.6
				c0,0.2-0.1,0.4-0.2,0.5c1.2,0,2.1,0.4,2.9,1.1c0,0.1,0,0.2,0,0.3c0,1.9-0.1,3.9-0.1,6.1c0,0.4,0,0.8,0,1.3c0,0.6,0,1.6,0,3
				c-0.1-0.4-0.3-0.9-0.4-1.4c-0.2,0.5-0.3,0.9-0.3,1.3c-0.1,0-0.3,0.1-0.5,0.3c-0.3,0.2-0.6,0.3-0.8,0.4c-0.6-0.4-1-0.9-1.2-1.5
				c-0.1-0.2-0.1-0.8-0.1-1.6l0-2.9c0.5,0,1,0,1.3,0.1c-0.9-2.9-1.4-4.7-1.4-5.4c0-0.3,0-0.5,0-0.6c0,0-0.1,0.1-0.2,0.1
				c0-0.7,0-1.3,0-2c0.1,0,0.2,0.1,0.3,0.1c0,0,0,0.1,0.1,0.1C192.1,161.8,192.2,162.1,192.2,162.6z M191.6,161.6
				c0-1.9,0-3.8,0.1-5.7c0.7-0.5,1,0.1,1,1.6C192.7,158.5,192.3,159.8,191.6,161.6z M192.7,177.8c0-0.5,0.1-0.8,0.1-1
				c0.3-0.5,0.9-1,2-1.6c0,0.5,0,1,0.1,1.6C193.8,176.8,193.1,177.2,192.7,177.8z M192.1,204c0-0.1,0-0.3,0-0.3c0-0.2,0-0.5,0-0.7
				c0-0.1,0-0.1,0-0.2c-0.1-2.4-0.2-5-0.3-7.7c0-1-0.1-2-0.1-3c0.5-0.2,1.1-0.6,1.6-1.2c0.2-0.2,0.4-0.5,0.5-0.7c0,0.1,0,0.1,0,0.3
				c0,0.4-0.2,0.9-0.5,1.4c-0.3,0.5-0.5,1-0.5,1.4c0,1,0.3,2.4,1,4.3c0.2,0.6,0.4,1.1,0.5,1.5c0-1.3,0.4-2,1.2-2c0,1.3,0,2.1,0,2.5
				c0,0.1,0,0.2,0,0.3c0,0.2,0,0.3,0,0.5c0,0.3,0,0.7,0,1c-0.3-0.3-0.5-0.6-0.8-1l0.1,0.2c0,0.5,0,0.8-0.1,0.9h-0.1l-0.2,0.2
				c-0.1,0.1-0.3,0.1-0.6,0.2v4c0.3,1.7,0.5,3.3,0.5,4.8c0,0.5,0,0.8-0.1,0.9H194l-0.2,0.2c0,0-0.1,0.1-0.1,0.1
				c0.4,0.3,0.6,0.7,0.8,1.2c0.2,1.1,0.5,1.9,0.7,2.5l-0.3,0.4c-0.2,0.2-0.5,0.3-1,0.3s-0.9-0.2-1.3-0.5c-0.1-2.8-0.2-5.9-0.4-9.2
				c0-0.7-0.1-1.5-0.1-2.2C192.1,204.2,192.1,204.1,192.1,204z"/>
		</g>
	</g>
	<g>
		<path fill-rule="evenodd" clip-rule="evenodd" fill="#FFFFFF" d="M193.5,96.5c0,1.2-1,1.9-2.8,1.9c-1.5,0-2.4-0.3-2.8-0.8
			c-0.1-0.1-0.2-0.5-0.2-1c0-1.4,1-2.1,2.9-2.2C192.6,94.4,193.5,95,193.5,96.5z"/>
	</g>
</g>
</svg>
