<?xml version="1.0" encoding="utf-8"?>
<!-- Generator: Adobe Illustrator 16.0.0, SVG Export Plug-In . SVG Version: 6.00 Build 0)  -->
<!DOCTYPE svg PUBLIC "-//W3C//DTD SVG 1.1//EN" "http://www.w3.org/Graphics/SVG/1.1/DTD/svg11.dtd">
<svg version="1.1" id="Layer_1" xmlns="http://www.w3.org/2000/svg" xmlns:xlink="http://www.w3.org/1999/xlink" x="0px" y="0px"
	 width="210px" height="350px" viewBox="0 0 210 350" enable-background="new 0 0 210 350" xml:space="preserve">
<g>
	<g>
		<g>
			<linearGradient id="SVGID_1_" gradientUnits="userSpaceOnUse" x1="279.459" y1="-32.9229" x2="173.6143" y2="75.0094">
				<stop  offset="0" style="stop-color:#C4CDD2"/>
				<stop  offset="0.2824" style="stop-color:#E4F1F9"/>
				<stop  offset="0.4235" style="stop-color:#A2A29A"/>
				<stop  offset="0.6" style="stop-color:#A5A79C"/>
				<stop  offset="0.7529" style="stop-color:#EBF1EF"/>
				<stop  offset="1" style="stop-color:#A0A2A3"/>
			</linearGradient>
			<polygon fill-rule="evenodd" clip-rule="evenodd" fill="url(#SVGID_1_)" points="164,82.2 164.2,79.9 164.3,79.6 185.8,65.5 
				185.4,67.9 			"/>
			<linearGradient id="SVGID_2_" gradientUnits="userSpaceOnUse" x1="17.4526" y1="-10.7021" x2="153.8421" y2="117.284">
				<stop  offset="0" style="stop-color:#C4CDD2"/>
				<stop  offset="0.2824" style="stop-color:#E4F1F9"/>
				<stop  offset="0.4235" style="stop-color:#A2A29A"/>
				<stop  offset="0.6" style="stop-color:#A5A79C"/>
				<stop  offset="0.7529" style="stop-color:#EBF1EF"/>
				<stop  offset="1" style="stop-color:#CBCFCE"/>
			</linearGradient>
			<polygon fill-rule="evenodd" clip-rule="evenodd" fill="url(#SVGID_2_)" points="164.3,79.6 8,62.4 30.2,48.1 185.8,65.4 
				185.8,65.5 			"/>
			<linearGradient id="SVGID_3_" gradientUnits="userSpaceOnUse" x1="7.2344" y1="63.5894" x2="164.0628" y2="80.8831">
				<stop  offset="0" style="stop-color:#C4CDD2"/>
				<stop  offset="0.2824" style="stop-color:#E4F1F9"/>
				<stop  offset="0.4235" style="stop-color:#A2A29A"/>
				<stop  offset="0.6" style="stop-color:#A5A79C"/>
				<stop  offset="0.7529" style="stop-color:#EBF1EF"/>
				<stop  offset="1" style="stop-color:#CBCFCE"/>
			</linearGradient>
			<polygon fill-rule="evenodd" clip-rule="evenodd" fill="url(#SVGID_3_)" points="164,82.2 7.9,65 8,62.4 164.3,79.6 164.2,79.9 
							"/>
		</g>
		<g>
			<polygon fill-rule="evenodd" clip-rule="evenodd" fill="#FFFFFF" fill-opacity="0.502" points="185.5,66.1 164,80.1 164,80.1 
				7.8,62.9 7.9,62.4 164.2,79.6 164.1,79.6 185.5,65.6 			"/>
		</g>
	</g>
	<g>
		<g>
			<path fill-rule="evenodd" clip-rule="evenodd" fill="#CBCDDA" d="M125.3,74.5c0-0.1,0.1-0.2,0.1-0.3c0.1-0.3,0.2-0.7,0.3-1
				c0-0.1,0-0.2,0-0.4c0.1-0.1,0.1-0.3,0.2-0.5c0.1-0.4,0.1-0.8,0.2-1.1c0-0.1,0.1-0.3,0.1-0.4c0.1-0.4,0.2-0.8,0.3-1.2
				c0.1-0.2,0.1-0.3,0.2-0.4c0-0.1,0.1-0.3,0.1-0.4c0-0.1,0.1-0.2,0.1-0.3c2.7,0.7,3.6,0.4,2.8-0.9c0.1,0,0.1,0,0.2,0
				c0.2,0,0.3,0,0.5,0c0.1,0,0.3,0,0.5,0c0.1,0,0.2,0,0.3,0c0,0.1,0,0.2,0,0.3c-0.2,2.3,0.5,2.7,2.1,1.4c0.9,0.4,2.2,0.5,4,0.3
				c4.9-0.4,6.6-2,5.1-4.8c0.4-0.3,0.7-0.7,1.1-1c0.3-0.3,0.5-0.6,0.7-0.9c0.1-0.1,0.2-0.3,0.3-0.4c0.2-0.4,0.4-0.8,0.5-1.1
				c0.1-0.2,0.1-0.5,0.3-0.8c0-0.1,0-0.3,0-0.5c0-0.1,0-0.3,0-0.4c0-0.1,0-0.3,0-0.4c0-0.1,0-0.2,0-0.3c0-0.2,0-0.3,0-0.5
				c0-0.3-0.1-0.5-0.2-0.8c-0.1-0.3-0.3-0.6-0.4-0.8c-0.1-0.2-0.2-0.4-0.4-0.5c0,0-0.1-0.1-0.1-0.1c-0.4-0.4-0.9-0.8-1.5-1
				c-0.1-0.1-0.3-0.2-0.5-0.3c-0.3-0.1-0.5-0.3-0.8-0.4c-0.5-0.1-1.1-0.3-1.8-0.5c-0.4-0.1-0.8-0.2-1.2-0.3c-0.3-0.1-0.7-0.1-1-0.2
				h0c-0.3-0.5-0.7-1.1-1.3-1.9c-0.8,0-1.5,0.3-2,1.1c-0.6-0.1-1.2-0.3-1.8-0.4c-0.3-0.1-0.7-0.2-1-0.3c0,0-0.1,0-0.1,0
				c2.7-1.6,1.9-3.5-2.3-5.6c-1.9,0.5-2.8,1.6-2.7,3.5c0,0-0.1-0.1-0.1-0.1c-0.6-0.4-1-0.9-1.3-1.4c-0.1-0.2-0.2-0.4-0.3-0.7
				c0-0.1-0.1-0.1-0.1-0.1c-0.1-0.3-0.1-0.5-0.1-0.7c-0.1-0.1-0.1-0.3-0.1-0.4c-0.1-0.3-0.1-0.7,0-1.1c0,0,0-0.1,0-0.1
				c0-0.2,0.1-0.3,0.1-0.5c0.1-0.3,0.3-0.5,0.4-0.7c0.2-0.2,0.4-0.4,0.6-0.5c0.2-0.1,0.3-0.2,0.5-0.3c0.3-0.1,0.5-0.2,0.8-0.3
				c0,0,0-0.1,0-0.1c0.1,0,0.3-0.1,0.6-0.1c0.2,0,0.5-0.1,0.8-0.1c0.3,0,0.6-0.1,1-0.1c0.1,0,0.2,0,0.4-0.1c0.1,0,0.3,0,0.5,0
				c0.5-0.1,1.1-0.1,1.8-0.1c0.3,0,0.5-0.1,0.8-0.1c0.1,0,0.2,0,0.3,0c0.3-0.1,0.6-0.1,0.9-0.1c0.1,0,0.1-0.1,0.2-0.1
				c0.1,0.1,0.3,0.1,0.5,0.2c4.3,0.6,5.6-0.1,3.8-2.2c0,0,0,0,0,0c0.2-0.2,0.3-0.4,0.5-0.6c0.1-0.1,0.2-0.2,0.3-0.4c0,0,0-0.1,0-0.1
				c0.6,0.1,1.2,0.1,1.8,0.1c0.8,0.2,1.8,0.4,2.8,0.4c0.3,0,0.6,0,0.9,0c0.7,0.1,1.4,0.1,2.2,0.3c0.3,0.2,0.7,0.5,1,0.8
				c0,0.1,0,0.3,0,0.4c0,0.1,0.1,0.3,0.1,0.4c0.1,0.3,0.2,0.5,0.3,0.9c0.2,0.4,0.4,0.8,0.7,1.2c0.3,0.5,0.6,1.1,1,1.6
				c0.1,0,0.2,0,0.2,0.1c1.1,0.5,2.1,1.2,2.8,1.9c0.3,0.3,0.6,0.7,0.9,1.2l0,0.1c0.2,0.4,0.5,0.9,0.7,1.4c0.1,0.3,0.2,0.7,0.4,1.2
				c0,0.1,0,0.2,0,0.3l0.3,0.2h0.1l4.1,3.1l0.3,0.5l0.2,0.6l0.8,1.7c0,0.2,0.1,0.4,0.2,0.4l0.2,0.5l0.2,0.3l2.9,1.1
				c0.1,0,0.3,0,0.5,0c0.1,0,0.2,0,0.3,0c0.1,0,0.3,0,0.4,0.1c0.2,0.1,0.4,0.3,0.6,0.5c0.1,0.2,0.2,0.4,0.3,0.6
				c0,0.1,0.1,0.2,0.1,0.4c0.1,0.1,0.2,0.2,0.3,0.3l0.1,0.2l0.5,0.1l2.4,0.5l1,1.6l0,0.3c0.3,0.1,0.4,0.4,0.3,0.7l0.1,0.1l1.3,0.3
				h0.1l1.5,0.5h0l0.1,0.9l-0.1,0.4l0.2,0.8v0.9l-0.2,0.9l-0.3,0.6l0,0.6l-0.3,1c-0.1,0-0.2,0-0.3,0c-0.2,0.1-0.4,0.3-0.5,0.4
				c-0.5,0.2-1,0.5-1.5,0.7c-0.1,0-0.2,0-0.3,0.1c-0.2,0.1-0.3,0.2-0.5,0.3c-0.1,0-0.3,0.1-0.4,0.2c-0.2,0.1-0.3,0.1-0.4,0.2
				c-0.1,0.1-0.2,0.1-0.3,0.1c-0.3,0.2-0.7,0.3-1.2,0.5c-0.3,0.1-0.5,0.2-0.8,0.4c-0.3,0-0.6,0.1-1,0.3h0v0c-0.1,0-0.2,0-0.4,0
				c-0.3,0.1-0.5,0.2-0.8,0.3c-0.6,0.1-1.1,0.3-1.6,0.5l-0.2,0c-0.3,0.1-0.5,0.2-0.8,0.3c-0.1,0-0.1,0-0.3,0
				c-0.4,0.1-0.7,0.2-1.1,0.3c-0.4,0.1-0.8,0.2-1.2,0.3l-0.2,0v0c-0.5,0.2-1.1,0.3-1.6,0.4c-0.3,0-0.7-0.1-1-0.1c-0.3,0-0.5,0-0.8,0
				c-0.3,0.1-0.5,0.1-0.7,0c-0.2,0-0.3,0-0.5,0c-0.3,0-0.5,0-0.8,0c-0.5,0-1.1-0.1-1.6-0.1c-0.2,0-0.4,0-0.6,0.1
				c-0.2,0-0.4-0.1-0.6-0.1c-0.2,0-0.4,0-0.6,0c-0.4,0-0.7-0.1-1-0.1c-0.1,0-0.3,0-0.5,0c-0.3,0-0.6,0-1,0c-0.3,0-0.5,0-0.8,0
				c-0.7,0-1.4,0-2.1-0.1c-0.4-0.1-0.9-0.1-1.3-0.1c-0.2,0-0.4,0-0.6,0c-0.2,0-0.5,0-0.7,0c-0.1,0-0.2,0-0.3,0s-0.3,0-0.5-0.1
				c-0.3,0-0.6-0.1-1-0.1c-0.3,0-0.5,0-0.8,0c-0.4-0.1-0.9-0.1-1.3-0.2c-0.1,0-0.3,0-0.5,0c-0.8-0.1-1.5-0.1-2.2-0.3
				c-0.2,0-0.4,0-0.6,0c-0.2,0-0.5,0-0.7,0c-0.5-0.1-0.9-0.1-1.3-0.1c-0.2,0-0.4-0.1-0.6-0.1c-0.2,0-0.5-0.1-0.8-0.1l0-0.2
				c-0.1,0-0.3,0-0.4,0l-0.1,0.1c-0.3,0-0.5-0.1-0.8-0.1c-0.4,0-0.7-0.1-1-0.1c-0.4,0-0.9-0.1-1.3-0.2
				C127.4,74.7,126.4,74.6,125.3,74.5z M165.5,65.3c-1.1,0-1.8,0.5-2.2,1.5c-0.4,1,0,1.6,1,1.7C168.4,68.7,168.8,67.7,165.5,65.3z
				 M146.2,68.4c4.6,0.8,5.5-0.3,2.7-3.3c-1.5-0.3-2.6,0.2-3.4,1.4C144.8,67.5,145,68.1,146.2,68.4z M149.3,57.8
				c-1.5,0-2,0.7-1.7,2.1c0.5,2.2,2.3,3.5,5.3,3.7c1.1,0.1,1.8-0.3,2.1-1.1C156.1,59.2,154.2,57.6,149.3,57.8z"/>
			<path fill-rule="evenodd" clip-rule="evenodd" fill="#DDDDE7" d="M126.8,68.5c-0.2-0.1-0.5-0.1-0.7-0.2c-0.5-0.2-0.7-0.5-0.5-1
				c-0.3,0-0.7-0.1-1-0.1c-0.2,0-0.4,0-0.5,0c-0.1,0-0.3-0.1-0.5-0.1c-0.6-0.1-1.2-0.1-1.9-0.2c-0.3,0-0.7-0.1-1.1-0.1
				c-0.1,0-0.2,0-0.3,0c-0.4-0.1-0.9-0.1-1.3-0.1c-0.1,0-0.1,0-0.2,0c-0.4-0.1-0.9-0.1-1.4-0.1c-0.6-0.1-1.3-0.1-1.9-0.2
				c0.4,1.2-0.8,1.2-3.5,0.1c-0.3-0.1-0.5-0.3-0.5-0.6c-0.4-0.1-0.9-0.1-1.3-0.1h0c-0.1,0.6-1.3,0.9-3.8,0.7c-0.9-0.1-1.2-0.5-1-1.3
				c-0.2,0-0.4-0.1-0.5-0.1c-0.3,0-0.5,0-0.8,0c-0.3,0-0.5-0.1-0.8-0.1c-0.3-0.1-0.7-0.1-1-0.1c-0.1,0-0.2,0-0.4-0.1
				c-0.1,0-0.2,0-0.3,0c0.2,1-1,1.1-3.8,0.3c-0.4-0.1-0.6-0.4-0.6-0.8C97.1,64,96.7,64,96.3,64c-0.4-0.1-0.8-0.1-1.3-0.2
				c-0.2,0-0.3-0.1-0.5-0.1c-0.1,0.1-0.3,0.3-0.5,0.4c-0.4,0.3-1,0.4-1.8,0.3c-3.8-0.9-5.1-2.1-3.9-3.5c-0.2-0.2-0.4-0.5-0.6-0.8
				c-0.3-0.3-0.5-0.7-0.6-1c-0.1-0.2-0.2-0.5-0.3-0.7c0-0.1-0.1-0.1-0.1-0.3c-0.1-0.4-0.2-0.9-0.3-1.3c0,0,0-0.1,0-0.1
				c0-0.5,0-1,0-1.5c0-0.2,0-0.3,0-0.5c0-0.1,0-0.2,0-0.4c0,0,0-0.1,0-0.1c0.1-0.3,0.1-0.6,0.2-0.9c0.1-0.2,0.1-0.4,0.2-0.6
				c0-0.1,0-0.1,0-0.2c0.1-0.5,0.2-0.9,0.3-1.4c0-0.3,0-0.5,0.1-0.8c0.1-0.3,0.1-0.5,0.1-0.8l0.2-1.5c0.1-0.1,0.3-0.1,0.4-0.2
				c0.2,0,0.4,0.1,0.6,0.2c0.5,0.2,0.9,0.5,1.2,0.9c0,0.1,0.3,0.5,0.7,1.1c0.2,0.3,0.4,0.6,0.6,0.9c0.6,0.7,1,1.3,1.2,1.8
				c0.1,0.1,0.1,0.2,0.3,0.3c0.2,0.1,0.3,0.2,0.4,0.4c0.2,0.2,0.4,0.4,0.6,0.6c0.2,0.2,0.5,0.3,0.8,0.5c0.4-0.3,0.8-0.4,1.4-0.4
				c0.6,0.7,1,1.2,1.3,1.6c0.1,0.1,0.2,0.1,0.3,0.1c0.7,0.3,1.5,0.5,2.4,0.7c0.4,0.1,0.8,0.1,1.3,0.3c0.9,0.2,1.9,0.3,2.9,0.4
				c0.4,0,0.7,0.1,1.1,0.1c0.6-1.1,1.6-1.5,3-1.4c0.7,0.7,1.3,1.2,1.6,1.7c0.1,0,0.2,0,0.3,0c0.1,0,0.3,0,0.4,0c0.3,0,0.5,0,0.8,0
				s0.5,0,0.8,0c0.7,0,1.3,0,1.9-0.1c0-0.1,0.1-0.3,0.2-0.4c0.8-1.1,1.8-1.6,3.2-1.4c0.2,0.2,0.5,0.5,0.7,0.8
				c0.3-0.2,0.5-0.4,0.8-0.6c0.2-0.2,0.3-0.4,0.5-0.6c-0.2,0-0.4,0-0.5,0.1c-0.6,0-1-0.3-1.3-1.1c-0.4-1.7-0.1-2.9,0.9-3.7
				c-0.1-0.1-0.2-0.2-0.4-0.4c-0.1-0.1-0.1-0.1-0.1-0.1c-0.4,0-0.8,0-1.3,0c-1.4,0-2.1-0.7-2.1-2c0-0.3,0-0.5,0.1-0.6
				c-0.6-0.4-1.3-0.8-2-1.2c-0.1-0.1-0.3-0.2-0.4-0.2c-1.7,0.7-2.9,0.3-3.6-1.1c-0.2-0.4-0.4-0.8-0.4-1.1c-0.1-0.1-0.1-0.1-0.1-0.1
				c-0.3-0.2-0.6-0.4-0.9-0.5c-0.4-0.3-0.8-0.5-1.1-0.8c-0.2-0.1-0.4-0.2-0.5-0.3c-0.1-0.1-0.2-0.1-0.3-0.3
				c-0.1-0.1-0.2-0.1-0.3-0.1c-0.1-0.1-0.3-0.2-0.4-0.3c-0.1-0.1-0.2-0.2-0.3-0.3c-0.2-0.2-0.5-0.4-0.7-0.6
				c-0.2-0.2-0.4-0.3-0.5-0.5c0.1-0.4,0.1-0.8,0.1-1.1c0-0.1,0-0.1,0-0.1c0.3-0.4,0.6-0.8,0.6-1.2c0.1-0.5,0.1-0.8,0.1-1.1
				c0.2,0,0.5-0.1,0.7-0.1c0.8,0.1,1.8,0.2,2.9,0.2c0.1,0,0.2,0,0.3,0c0,0.1,0,0.2,0.1,0.3c0.1,0.2,0.2,0.5,0.3,0.7
				c0,0,0.1,0.1,0.1,0.1c0.1,0.1,0.2,0.3,0.3,0.4c0.1,0.2,0.3,0.4,0.5,0.5c0.1,0.1,0.2,0.2,0.3,0.3c0.3,0.3,0.6,0.5,1,0.8
				c0.2,0.1,0.4,0.2,0.6,0.3c0.1,0.1,0.3,0.2,0.4,0.3c-0.4-1.1,0.3-1.9,2.1-2.3c4,1.2,5.1,2.4,3.2,3.6c0.1,0,0.3,0,0.5,0
				c-0.2,0-0.4,0-0.6,0.2c0,0,0.1,0,0.1,0c0.2,0,0.4,0,0.6,0.1c0.2,0,0.4,0,0.6,0.1c0,0,0.1,0,0.1,0c0,0,0.1-0.1,0.2-0.1
				c0.2,0,0.4,0,0.6,0c0.3-1.3,1.2-2,2.6-2c0.5,0.5,1,1,1.3,1.4c0,0,0,0,0,0c0.2-0.1,0.5-0.1,0.8-0.2c0-0.3,0.1-0.6,0.3-0.9
				c1-1.6,2.3-2.7,4-3.3c0.2,0.2,0.3,0.4,0.5,0.6c0.1-0.2,0.1-0.3,0.2-0.5c0-0.1,0-0.2,0-0.3c0,0,0-0.1,0-0.1c0,0,0.1,0.1,0.1,0.1
				c0.6,0.2,1.2,0.3,1.8,0.4c0.6,0.4,1.3,0.8,2,0.9c0.5,0.1,1,0.2,1.6,0.3c0.4,0.1,0.9,0.2,1.4,0.3c0.3,0,0.5,0.1,0.8,0.1
				c0.4,0.1,0.7,0.1,1.1,0c0.2,0.1,0.3,0.1,0.5,0.1c0.4,0,0.8,0.1,1.1,0.1c0,0,0,0.1,0,0.1c-0.1,0.2-0.2,0.3-0.3,0.4
				c-0.1,0.2-0.3,0.4-0.5,0.6c0,0,0,0,0,0c1.8,2.1,0.6,2.8-3.8,2.2c-0.2,0-0.3-0.1-0.5-0.2c-0.1,0-0.1,0-0.2,0.1
				c-0.3,0-0.6,0.1-0.9,0.1c-0.1,0-0.2,0-0.3,0c-0.2,0-0.5,0.1-0.8,0.1c-0.7,0-1.3,0.1-1.8,0.1c-0.2,0-0.3,0-0.5,0
				c-0.2,0-0.3,0.1-0.4,0.1c-0.4,0-0.7,0.1-1,0.1c-0.3,0-0.5,0.1-0.8,0.1c-0.3,0-0.5,0.1-0.6,0.1c0,0,0,0,0,0.1
				c-0.3,0.1-0.6,0.1-0.8,0.3c-0.2,0.1-0.4,0.2-0.5,0.3c-0.2,0.1-0.4,0.3-0.6,0.5c-0.2,0.2-0.3,0.4-0.4,0.7c0,0.1-0.1,0.3-0.1,0.5
				c0,0,0,0.1,0,0.1c0,0.4,0,0.8,0,1.1c0,0.1,0,0.3,0.1,0.4c0,0.2,0,0.4,0.1,0.7c0,0,0.1,0.1,0.1,0.1c0.1,0.2,0.2,0.5,0.3,0.7
				c0.3,0.5,0.7,1,1.3,1.4c0.1,0.1,0.1,0.1,0.1,0.1c-0.2-1.9,0.7-3,2.7-3.5c4.2,2.1,5,3.9,2.3,5.6c0,0,0.1,0,0.1,0
				c0.3,0.1,0.6,0.2,1,0.3c0.6,0.1,1.2,0.2,1.8,0.4c0.5-0.8,1.1-1.1,2-1.1c0.6,0.7,1,1.4,1.3,1.9h0c0.3,0.1,0.7,0.1,1,0.2
				c0.4,0.1,0.8,0.3,1.2,0.3c0.7,0.2,1.3,0.4,1.8,0.5c0.3,0.1,0.6,0.3,0.8,0.4c0.2,0.1,0.3,0.1,0.5,0.3c0.6,0.3,1.1,0.6,1.5,1
				c0,0.1,0.1,0.1,0.1,0.1c0.1,0.1,0.3,0.3,0.4,0.5c0.2,0.2,0.3,0.5,0.4,0.8c0.1,0.2,0.2,0.5,0.2,0.8c0,0.2,0,0.3,0,0.5
				c0,0.1,0,0.2,0,0.3c0,0.1,0,0.3,0,0.4c0,0.1,0,0.3,0,0.4c0,0.2,0,0.3,0,0.5c-0.1,0.3-0.2,0.5-0.3,0.8c-0.1,0.4-0.3,0.8-0.5,1.1
				c-0.1,0.1-0.2,0.2-0.3,0.4c-0.2,0.3-0.4,0.6-0.7,0.9c-0.4,0.3-0.7,0.7-1.1,1c1.5,2.7-0.2,4.3-5.1,4.8c-1.8,0.2-3.1,0.1-4-0.3
				c-1.6,1.4-2.3,0.9-2.1-1.4c0-0.1,0-0.1,0-0.3c-0.1,0-0.2,0-0.3,0c-0.2,0-0.3,0-0.5,0c-0.2,0-0.4,0-0.5,0c0,0-0.1,0-0.2,0
				C130.4,68.8,129.5,69.1,126.8,68.5z M96.6,43.1c0.9,1.7,0.2,3.1-2.1,4.3c-0.6,0.3-1.2,0.1-1.7-0.8c-0.2-0.4-0.4-0.9-0.5-1.3
				c0.1,0,0.1-0.1,0.2-0.1c0.7-0.4,1.3-0.8,1.7-1.2c0.2-0.2,0.4-0.3,0.5-0.5c0.3,0,0.5-0.1,0.7-0.2C95.8,43.3,96.2,43.2,96.6,43.1z
				 M119.6,36c-0.5,0.2-1.1,0.1-1.8-0.1c-0.1,0-0.3-0.1-0.3-0.1c0.2-0.2,0.4-0.3,0.5-0.5C118.5,35.7,119,36,119.6,36z M165.5,65.3
				c3.4,2.4,3,3.4-1.3,3.2c-1-0.1-1.3-0.6-1-1.7C163.6,65.8,164.3,65.3,165.5,65.3z M116.4,42c-0.1-0.1-0.1-0.1-0.2-0.1h0
				C116.2,42,116.3,42,116.4,42L116.4,42z M116.2,58.9c-1.5-0.2-2.5,0.3-3.1,1.6c-0.7,1.4-0.3,2.1,1.4,2.1
				C119.4,62.5,120,61.3,116.2,58.9z M149.3,57.8c5-0.1,6.8,1.5,5.7,4.6c-0.3,0.8-1,1.2-2.1,1.1c-3-0.2-4.8-1.5-5.3-3.7
				C147.2,58.5,147.8,57.8,149.3,57.8z M146.2,68.4c-1.2-0.2-1.4-0.8-0.7-1.9c0.8-1.2,1.9-1.7,3.4-1.4
				C151.7,68.1,150.8,69.2,146.2,68.4z M129,59.6c-0.4,0.7-0.3,1.1,0.2,1.3c4,1.5,4.6,0.7,1.9-2.5C130.1,58.3,129.4,58.7,129,59.6z"
				/>
			<path fill-rule="evenodd" clip-rule="evenodd" fill="#EAEAF4" d="M117.5,35.9c0.1,0,0.2,0.1,0.3,0.1c0.6,0.2,1.2,0.3,1.8,0.1
				c0.1,0,0.2,0,0.4,0c0.2,0,0.3,0,0.5,0c0.2,0,0.4,0,0.6,0c0.3,0,0.5-0.1,0.7-0.3c0.5,0.3,1.1,0.6,1.8,0.7c0.5,0,1,0,1.5,0
				c0.1,0,0.1-0.1,0.2-0.1c0.7,0.1,1.5,0.1,2.3,0.3c0.3,0.1,0.5,0.1,0.8,0.3c0,0,0,0.1,0,0.1c0,0.1,0,0.1,0,0.3
				c-0.1,0.2-0.1,0.3-0.2,0.5c-0.1-0.2-0.3-0.5-0.5-0.6c-1.7,0.5-3,1.6-4,3.3c-0.2,0.4-0.3,0.7-0.3,0.9c-0.3,0.1-0.6,0.1-0.8,0.2
				c0,0,0,0,0,0c-0.3-0.4-0.8-0.9-1.3-1.4c-1.4,0.1-2.3,0.8-2.6,2c-0.2,0-0.4,0-0.6,0c-0.1,0-0.1,0-0.2,0.1c0,0-0.1,0-0.1,0
				c-0.2,0-0.4-0.1-0.6-0.1c-0.2-0.1-0.4-0.1-0.6-0.1c-0.1,0-0.1,0-0.1,0c0.2-0.2,0.4-0.2,0.6-0.2c-0.2,0-0.4,0-0.5,0
				c1.9-1.2,0.8-2.4-3.2-3.6c-1.8,0.4-2.5,1.1-2.1,2.3c-0.1-0.1-0.3-0.1-0.4-0.3c-0.2-0.1-0.4-0.2-0.6-0.3c-0.4-0.3-0.7-0.5-1-0.8
				c-0.1-0.1-0.2-0.2-0.3-0.3c-0.2-0.2-0.4-0.4-0.5-0.5c-0.1-0.1-0.2-0.2-0.3-0.4c0-0.1-0.1-0.1-0.1-0.1c-0.1-0.2-0.2-0.4-0.3-0.7
				c-0.1-0.1-0.1-0.3-0.1-0.3c0.1,0,0.2,0,0.3,0c0.7,0.1,1.5,0.2,2.2,0.1c0.2,0,0.5,0.1,0.8,0.1c0.1,0,0.3,0,0.4,0
				c0.6,0,1.2,0,1.8-0.1c1.6-0.1,2.9-0.4,3.9-0.8C117.2,36,117.4,35.9,117.5,35.9z"/>
			<path fill-rule="evenodd" clip-rule="evenodd" fill="#CFD1DD" d="M126.8,68.5c0,0.1-0.1,0.2-0.1,0.3c0,0.1-0.1,0.2-0.1,0.4
				c0,0.1-0.1,0.3-0.2,0.4c-0.1,0.4-0.2,0.8-0.3,1.2c0,0.1-0.1,0.3-0.1,0.4c-0.1,0.4-0.1,0.8-0.2,1.1c0,0.2-0.1,0.3-0.2,0.5
				c0,0.1,0,0.3,0,0.4c-0.1,0.4-0.2,0.7-0.3,1c0,0.1-0.1,0.2-0.1,0.3c-0.2,0-0.5-0.1-0.7-0.1c-0.4,0-0.9,0-1.3-0.1
				c-0.5-0.1-0.9-0.1-1.3-0.1c-0.4-0.1-0.9-0.1-1.4-0.1c-0.5-0.1-1-0.1-1.5-0.2c-0.1,0-0.2,0-0.3,0c-0.3,0-0.7-0.1-1-0.1h0
				c-0.2,0-0.3,0-0.4,0c-0.6-0.1-1.3-0.1-1.9-0.1c-0.5-0.1-1.1-0.1-1.7-0.2c-0.5-0.1-0.9-0.1-1.3-0.1c-0.6-0.1-1.2-0.1-1.8-0.1
				c-0.5-0.1-0.9-0.1-1.3-0.2c-0.1,0-0.2,0-0.4,0c-0.3,0-0.5-0.1-0.8-0.1c-0.5-0.1-0.9-0.1-1.4-0.2c-0.6-0.1-1.2-0.1-1.8-0.1
				c-0.1,0-0.3,0-0.4,0c-0.1,0-0.2,0-0.3,0c-0.2,0-0.4-0.1-0.6-0.1c-0.6-0.1-1.2-0.1-1.8-0.2c-0.2,0-0.3,0-0.4,0
				c-0.4,0-0.7-0.1-0.9-0.1h-0.1c-0.2,0-0.4,0-0.5,0c-0.5,0-1-0.1-1.5-0.1c-0.6-0.1-1.2-0.1-1.8-0.2c-0.1,0-0.2,0-0.3,0l-0.9,0.1
				L95,71.7c-0.3-0.2-0.6-0.3-0.8-0.3l0,0c-0.1,0-0.2-0.1-0.3-0.1c-0.2-0.1-0.4-0.1-0.5,0c-0.1-0.1-0.3-0.1-0.4-0.1
				c-0.7-0.2-1.3-0.4-2-0.5c-0.5-0.2-1-0.3-1.6-0.4c-0.7-0.2-1.4-0.4-2.2-0.5c-0.1,0-0.3-0.1-0.4-0.1c-0.3,0-0.6-0.1-0.9-0.1l0-0.2
				c0,0-0.1,0-0.3,0c-0.1,0-0.3,0-0.6,0c-0.6-0.1-1.1-0.2-1.7-0.3C83.2,69.1,83.1,69,83,69c-0.2,0-0.5-0.1-0.7-0.1
				c-0.3,0-0.7-0.1-1-0.1l-3.8-1.6c0-0.1,0-0.2,0.1-0.3c0-0.1,0-0.1,0-0.2c0-0.2-0.1-0.4-0.3-0.5c0-0.2-0.2-0.3-0.4-0.3l-2.3-0.3
				l-0.1-0.3l-0.3-0.3L73.3,64l-0.8-0.9l-0.2-0.3l-3.9-0.2c0,0-0.1-0.1-0.2-0.1l-1.4-0.1c0-0.1,0-0.3,0-0.4v0c0-0.1,0-0.2,0-0.3
				c0-0.1,0-0.2,0-0.3c0.5-0.2,0.9-0.6,1.2-1.2c1.4-0.3,2.5-0.8,3.3-1.3c0.7-0.4,1.4-1.1,2.3-2.1c1-1.2,1.5-2.1,1.8-2.7
				c0-0.1,0.1-0.3,0.1-0.4c0,0,0.1-0.1,0.1-0.1c0.6-0.1,1.1-0.4,1.5-0.8c0.3-0.3,0.5-0.6,0.5-0.9c0.4,0.1,0.8,0.2,1.3,0.1
				c0.1,0,0.1,0,0.2,0c0.8-0.1,1.5-0.4,2.1-1c0.4-0.4,0.6-0.9,0.7-1.4c0-0.2,0.1-0.5,0.1-0.6c0,0,0-0.1,0-0.1c0.5,0,1-0.2,1.5-0.6
				c0.4,0.2,0.9,0.4,1.6,0.4c0,0,0.1,0,0.1,0c0.8,0,1.7-0.3,2.7-0.8l-0.2,1.5c0,0.3-0.1,0.5-0.1,0.8c-0.1,0.2-0.1,0.5-0.1,0.8
				C87.2,51.5,87,52,87,52.5c0,0.1,0,0.1,0,0.2c-0.1,0.2-0.1,0.4-0.2,0.6c-0.1,0.3-0.1,0.6-0.2,0.9c0,0,0,0.1,0,0.1
				c0,0.1,0,0.3,0,0.4c0,0.2,0,0.3,0,0.5c0,0.5,0,1,0,1.5c0,0,0,0.1,0,0.1c0.1,0.5,0.2,0.9,0.3,1.3c0,0.1,0.1,0.2,0.1,0.3
				c0.1,0.2,0.1,0.5,0.3,0.7c0.2,0.4,0.4,0.7,0.6,1c0.2,0.3,0.4,0.5,0.6,0.8c-1.2,1.4,0.1,2.6,3.9,3.5c0.8,0.2,1.4,0.1,1.8-0.3
				c0.2-0.1,0.4-0.3,0.5-0.4c0.2,0,0.3,0.1,0.5,0.1c0.4,0.1,0.8,0.1,1.3,0.2c0.4,0,0.8,0.1,1.3,0.2c-0.1,0.4,0.1,0.6,0.6,0.8
				c2.7,0.8,4,0.7,3.8-0.3c0.1,0,0.1,0,0.3,0c0.1,0,0.3,0.1,0.4,0.1c0.4,0,0.7,0.1,1,0.1c0.2,0,0.5,0.1,0.8,0.1c0.2,0,0.5,0,0.8,0
				c0.2,0,0.3,0.1,0.5,0.1c-0.2,0.8,0.2,1.2,1,1.3c2.5,0.2,3.7-0.1,3.8-0.7h0c0.4,0,0.9,0.1,1.3,0.1c0,0.3,0.2,0.5,0.5,0.6
				c2.7,1.1,3.8,1,3.5-0.1c0.7,0.1,1.3,0.1,1.9,0.2c0.5,0,0.9,0.1,1.4,0.1c0.1,0,0.1,0,0.2,0c0.4,0,0.8,0.1,1.3,0.1
				c0.1,0,0.2,0,0.3,0c0.4,0,0.8,0,1.1,0.1c0.7,0.1,1.3,0.1,1.9,0.2c0.2,0,0.3,0,0.5,0.1c0.2,0,0.3,0,0.5,0c0.3,0,0.6,0,1,0.1
				c-0.2,0.5,0,0.9,0.5,1C126.4,68.3,126.6,68.4,126.8,68.5z"/>
			<path fill-rule="evenodd" clip-rule="evenodd" fill="#EAECF8" d="M92.3,45.4c0.1,0.4,0.3,0.8,0.5,1.3c0.5,0.9,1,1.1,1.7,0.8
				c2.4-1.1,3.1-2.5,2.1-4.3c0.2-0.1,0.4-0.1,0.6-0.1c0.1,0,0.1,0,0.3,0c0.8,0,1.6-0.1,2.3-0.4c0.1,0,0.2,0,0.3,0c0.1,0,0.3,0,0.4,0
				c0.6,0,1.1-0.2,1.6-0.6c0.2-0.2,0.4-0.4,0.5-0.7v0.1c0.1-0.2,0.3-0.4,0.3-0.6c0.1-0.1,0.2-0.3,0.2-0.5c0,0,0-0.1,0-0.1
				c0.1,0.2,0.3,0.3,0.5,0.5c0.2,0.2,0.4,0.4,0.7,0.6c0.1,0.1,0.2,0.2,0.3,0.3c0.1,0.1,0.3,0.2,0.4,0.3c0.1,0,0.1,0.1,0.3,0.1
				c0.1,0.1,0.3,0.2,0.3,0.3c0.1,0.1,0.3,0.2,0.5,0.3c0.3,0.2,0.7,0.5,1.1,0.8c0.3,0.1,0.6,0.3,0.9,0.5c0,0,0.1,0,0.1,0.1
				c0,0.3,0.2,0.7,0.4,1.1c0.7,1.4,1.9,1.8,3.6,1.1c0.1,0,0.2,0.1,0.4,0.2c0.7,0.4,1.4,0.8,2,1.2c-0.1,0.1-0.1,0.3-0.1,0.6
				c0,1.3,0.7,2,2.1,2c0.5,0,0.9,0,1.3,0c0,0,0.1,0,0.1,0.1c0.1,0.1,0.3,0.3,0.4,0.4c-1,0.8-1.3,2-0.9,3.7c0.2,0.7,0.7,1.1,1.3,1.1
				c0.1,0,0.3-0.1,0.5-0.1c-0.2,0.2-0.3,0.4-0.5,0.6c-0.3,0.2-0.5,0.4-0.8,0.6c-0.2-0.3-0.5-0.5-0.7-0.8c-1.4-0.2-2.4,0.3-3.2,1.4
				c-0.1,0.1-0.2,0.3-0.2,0.4c-0.6,0-1.2,0.1-1.9,0.1c-0.2,0-0.5,0-0.8,0s-0.5,0-0.8,0c-0.1,0-0.2,0-0.4,0c-0.1,0-0.2,0-0.3,0
				c-0.3-0.5-0.9-1-1.6-1.7c-1.4-0.2-2.3,0.3-3,1.4c-0.4,0-0.7-0.1-1.1-0.1c-1-0.1-2-0.3-2.9-0.4c-0.5-0.1-0.9-0.2-1.3-0.3
				c-0.9-0.2-1.7-0.4-2.4-0.7c-0.1,0-0.2-0.1-0.3-0.1c-0.3-0.4-0.7-1-1.3-1.6c-0.6,0-1,0.1-1.4,0.4c-0.3-0.2-0.6-0.3-0.8-0.5
				c-0.2-0.2-0.4-0.4-0.6-0.6c-0.1-0.2-0.2-0.3-0.4-0.4c-0.1-0.1-0.2-0.1-0.3-0.3c-0.2-0.5-0.6-1.1-1.2-1.8
				c-0.3-0.3-0.5-0.6-0.6-0.9c-0.4-0.6-0.7-1-0.7-1.1c-0.3-0.3-0.7-0.6-1.2-0.9c-0.2-0.1-0.4-0.2-0.6-0.2c0,0,0.1-0.1,0.1-0.1
				c0.3-0.2,0.6-0.5,1-0.8c0.1-0.1,0.2-0.2,0.3-0.4c0.2-0.1,0.4-0.1,0.5-0.3c0,0,0.1,0,0.1,0c0.4-0.1,0.8-0.3,1.2-0.5
				C91.6,45.7,92,45.5,92.3,45.4z M116.2,58.9c3.8,2.4,3.2,3.6-1.8,3.7c-1.6,0-2.1-0.7-1.4-2.1C113.7,59.2,114.7,58.7,116.2,58.9z
				 M129,59.6c0.5-0.9,1.2-1.3,2.1-1.2c2.7,3.2,2.1,4-1.9,2.5C128.7,60.7,128.6,60.3,129,59.6z"/>
			<path fill-rule="evenodd" clip-rule="evenodd" fill="#EFEFF9" d="M93.4,71.3c0.1-0.1,0.3-0.1,0.5,0c0.1,0,0.1,0,0.3,0.1l0,0
				c0.2,0,0.5,0.1,0.8,0.3h-0.3c-0.2-0.1-0.4-0.2-0.6-0.3c-0.1,0-0.2,0-0.3,0C93.6,71.3,93.5,71.3,93.4,71.3z M116.4,42L116.4,42
				c-0.1,0-0.2,0-0.2-0.1h0C116.3,41.9,116.3,41.9,116.4,42z"/>
		</g>
	</g>
	<g>
		<g>
			<path fill-rule="evenodd" clip-rule="evenodd" fill="#FFFFFF" d="M180.7,82c0,0.2,0,0.5,0,0.8c0,0.6,0,1.1-0.1,1.6
				c-0.1,0-0.1,0.1-0.2,0.1C180.4,83.7,180.5,82.8,180.7,82L180.7,82z M185.5,73c0.2,0.2,0.5,0.4,1,0.5c0.1,0.1,0.2,0.3,0.4,0.4
				l-0.1,0c0.1,0.2,0.1,0.5,0.2,0.9c-0.2,0.3-0.3,0.7-0.3,1.1c0,0.5,0,0.8,0.2,1c0.1,0.1,0.1,0.2,0.3,0.3c0,0.2,0,0.4,0,0.6
				c0,1.8-0.1,3.3-0.2,4.5c-0.3,0.1-0.5,0.3-0.8,0.4c0.1,0.4,0.2,0.7,0.3,1.1c0.1,3.2,0.2,5.1,0.3,5.9c-0.4-0.5-1-0.7-2-0.8
				c-0.2,0-0.5,0-0.7,0c-0.1-0.1-0.1-0.2-0.1-0.4c0,0.1-0.1,0.3-0.1,0.4c-0.8,0.2-1.3,0.7-1.4,1.5c-0.6-0.4-1-0.9-1.2-1.5
				c0-0.1,0-0.1,0-0.3c1.2-0.4,1.8-1.1,1.8-2.1c0-1.4-0.6-2.1-1.8-2.1c0.5,0,0.9,0,1.3,0.1c-0.2-0.7-0.4-1.4-0.6-2
				c0.4,0.1,0.9,0.1,1.5,0.1c1,0,1.7-0.1,2.1-0.3c0.7-0.3,1-0.8,1-1.5c0-1.2-0.6-1.9-1.8-2.1c0-0.3,0-0.6,0-1
				C184.7,75.1,184.9,73.5,185.5,73z M183.7,78.7c-0.1,0-0.1,0-0.2,0c-1,0-1.8,0.2-2.3,0.6c0-0.1,0-0.1,0-0.2c0,0,0-0.1,0-0.1
				c0.2-0.6,0.3-1.2,0.5-1.6c0,0,0,0.1,0,0.2c0,0.2-0.1,0.4-0.2,0.6C182.3,78.1,183,78.3,183.7,78.7z M189,97.6
				c0.1,0.7,0.2,1.3,0.2,1.8c0,0.9-0.1,1.5-0.2,2c-0.4,0.2-0.7,0.4-1,0.5c-0.9-0.7-1.5-1.8-1.7-3.3c-0.1-0.4-0.1-1.6-0.1-3.6
				c0-1.3,0.1-2.2,0.2-2.8c0.1-0.5,0.3-0.7,0.5-0.5c0.2,0.2,0.5,0.7,0.9,1.6c0,0.1,0.1,0.2,0.1,0.3c-0.7,0.4-1.1,1.1-1.1,1.9
				c0,0.5,0.1,0.9,0.2,1.1c0.3,0.7,0.9,1,1.8,1C188.8,97.6,188.8,97.6,189,97.6z M182.4,91.8L182.4,91.8c0.3,0.6,1,0.9,2.3,0.9
				c0.3,0,0.6,0,0.8,0c-0.1,0.3-0.2,0.7-0.3,1.2c-0.4,1.5-0.6,2.7-0.7,3.4c-0.4,0.2-0.7,0.3-1,0.4c-0.6-0.4-1-0.9-1.2-1.6
				c-0.1-0.2-0.1-0.7-0.1-1.4C182.2,93.1,182.2,92.2,182.4,91.8L182.4,91.8z M181.7,98.6c0,0.5,0,0.8-0.1,0.9h-0.1
				c0,0.1,0,0.2,0,0.3c-0.1,0.1-0.5,0.2-1,0.2h-0.1c0-0.7-0.1-1.3-0.1-1.8c0-0.6-0.1-1.9-0.1-4C181.2,97,181.7,98.5,181.7,98.6z
				 M190.3,81.4c0.1,2,0.3,4,0.4,6.2v1.8c-0.5,0.2-0.9,0.4-1.3,0.6c-0.6-0.4-1-1.1-1.2-2.2c-0.1-0.4-0.1-1.2-0.1-2.4
				c0-1.2,0-2,0.1-2.4c0.1-1.1,0.5-1.9,1.2-2.2C189.7,80.9,190,81.1,190.3,81.4z M182.7,106.8c-0.3,0.5-0.5,1-0.5,1.4
				c0,0.9,0.3,2.4,1,4.4c0.7,1.9,1,2.9,1,3c0,0.5,0,0.8-0.1,0.9H184l-0.2,0.1c-0.1,0.1-0.4,0.2-0.9,0.2c-0.6,0-1.1-0.4-1.6-1.1
				c-0.3-4.2-0.5-7.8-0.6-10.5c0.3-0.3,0.7-0.5,1.3-0.8c0.2,0.1,0.5,0.2,0.8,0.2c0.3,0.1,0.4,0.4,0.4,0.9
				C183.2,105.8,183,106.3,182.7,106.8z M184.2,107.9c0-1.5,0.4-2.6,1.3-3.1c0.6,0.3,1,0.6,1.3,1v4.6c-0.5,0.2-0.9,0.4-1.3,0.6
				c-0.6-0.4-1-0.9-1.2-1.5C184.2,109.3,184.2,108.8,184.2,107.9z M191.3,105.4c-0.4,0-0.8,0.2-1.3,0.4c0.3-1.1,0.7-1.9,1.3-2.3
				C191.3,104.1,191.3,104.7,191.3,105.4z M189.7,111.6c0.8,0,1.4-0.2,1.8-0.6c0,0.1,0,0.1,0,0.2v2c-0.2,0.3-0.4,0.5-0.5,0.6
				c-0.8-0.8-1.3-1.3-1.3-1.4C189.7,112.3,189.7,112,189.7,111.6z M187,114c0.1,0,0.1,0.3,0.1,0.8c0,0.7-0.3,1.7-1,3l-0.8,0.3
				c-0.6-0.2-1-0.5-1.2-0.9c-0.1-0.2-0.1-0.6-0.1-1.1c0-0.8,0.1-1.4,0.2-1.6c0.3-0.6,1.2-0.7,2.6-0.4C186.9,114,187,114,187,114z
				 M186.3,123c0.2-0.5,0.6-0.7,1.1-0.7c0.8,0.1,1.3,0.7,1.3,1.9c0,0.6-0.1,1.1-0.2,1.6c-0.4,0.2-0.7,0.3-1,0.4
				c-0.3-0.1-0.6-0.2-0.8-0.4c0.5-0.5,0.8-0.8,0.8-1C187.5,123.9,187.1,123.3,186.3,123z M188.7,143.6c0.1-0.1,0.3-0.2,0.5-0.2
				c0.4,0,0.7,0.3,1,0.8c0-0.4,0-0.7,0-0.9c0.1-0.8,0.4-1.5,0.9-2.1c-0.3-0.3-0.6-0.7-0.8-1.2c-0.1-0.1-0.1-0.3-0.2-0.4
				c0,0.1-0.1,0.1-0.1,0.2c-0.3,0.6-0.5,1.1-0.5,1.5c-0.1,0-0.3,0.1-0.5,0.3c-0.3,0.2-0.6,0.3-0.8,0.4c-0.4-0.4-0.8-0.8-1-1.4
				c-0.2-0.4-0.3-0.7-0.3-0.9c0-1,0.1-1.6,0.2-1.9c0.3-0.4,0.7-0.6,1.4-0.6c0.6,0.8,1.6,1.3,3,1.3c0.1,0,0.1,0,0.2,0
				c0.1,3.9,0.3,8.3,0.5,13.1c-0.3,0.2-0.6,0.3-0.9,0.5c-0.6-0.4-1-1.1-1.2-2.2c0-0.2-0.1-0.7-0.1-1.4l0,0l0.3-1.4
				C190,145.5,189.4,144.3,188.7,143.6z M188.8,130.4c-1,0.6-1.5,1.4-1.5,2.5c0,0.7,0.3,1.2,0.8,1.4c-0.1,0-0.1,0.1-0.1,0.1
				c-0.4-0.4-0.8-0.9-1-1.4c-0.2-0.4-0.3-0.7-0.3-0.9c0-1.4,0.4-2.1,1.3-2.1C188.3,130,188.5,130.2,188.8,130.4z M191.7,134.3
				c-0.1,0-0.2-0.1-0.3-0.1c-0.2-0.1-0.4-0.1-0.5-0.2c0.3-0.1,0.6-0.3,0.8-0.4C191.6,133.9,191.6,134.1,191.7,134.3z M182.7,128
				c0.7-0.1,1.5-0.5,2.4-1c0,0.4-0.1,0.8-0.1,1.1c0,0.1,0,0.2,0,0.3c-0.1,0.2-0.5,0.3-1,0.3C183.4,128.6,183,128.4,182.7,128z
				 M182.1,128h0.1c0,0.1-0.1,0.1-0.1,0.2C182.1,128.2,182.1,128.1,182.1,128z M191.5,122.3v3.6c-0.3-0.3-0.6-0.6-0.8-1.1
				c-0.3-0.7-0.5-1.3-0.5-1.7c0-0.4,0-0.7,0-0.7c0.1-0.1,0.2-0.1,0.2-0.3C190.8,122.1,191.1,122.2,191.5,122.3z M191.5,120.1v0.8
				c-0.1-0.2-0.2-0.5-0.3-0.7C191.3,120.2,191.3,120.1,191.5,120.1z M186.3,144.9c0,0.2,0,0.5,0,0.7l0.3,1.7
				c0.2,0.7,0.6,1.2,1.1,1.5l-0.1,0.2c-0.2,0.2-0.5,0.3-1,0.3c-0.9,0-1.6-0.5-2-1.5c-0.1-0.5-0.2-0.9-0.3-1.4c-0.1,0-0.2,0-0.3,0
				c-0.7,0-1.2-0.2-1.5-0.6c0-1.4-0.1-2.7-0.1-4c0.2,0,0.5,0,0.9-0.1c0.2,0,0.5,0,0.8,0c-0.1-0.5-0.2-1.1-0.3-1.8
				c-0.2-1.1-0.3-2.2-0.4-3.3c-0.1,0-0.3,0.1-0.3,0.1c-0.3-0.2-0.5-0.4-0.7-0.5c-0.1-1.7-0.1-3.4-0.1-5c0.4-0.3,1.1-0.3,2.3,0
				c0,0,0,0.1,0.1,0.1c0.1,0,0.1,0.3,0.1,0.8c0,0.3,0,0.7-0.1,1.3c0,0.1,0.1,0.1,0.1,0.3c0.1-0.1,0.1-0.2,0.3-0.3
				c0.6,0.2,1,0.6,1.3,1v4.5c0.3,1.5,0.5,3,0.5,4.4c-0.2,0.3-0.4,0.8-0.4,1.6C186.2,144.8,186.2,144.8,186.3,144.9
				C186.2,144.9,186.2,144.9,186.3,144.9z M193,172.7c-0.2-0.3-0.5-0.4-1-0.5c0.2-0.4,0.4-0.8,0.8-1c0,0,0.1,0.1,0.1,0.1
				C193,171.8,193,172.2,193,172.7z M191.7,176.8C191.7,176.8,191.7,176.8,191.7,176.8c0.6-0.4,1-0.8,1.3-1.1c0,1.3,0,2.9,0,4.8h0
				c-0.6-0.3-1-1.1-1.2-2.2C191.7,177.9,191.7,177.5,191.7,176.8z M183.2,170.8c-0.1,0-0.3,0.1-0.4,0.1v0c0,0,0.1-0.1,0.2-0.1
				C183,170.8,183.1,170.8,183.2,170.8z M182.8,157.9c-0.1-1.9-0.1-3.7-0.2-5.5c0.2-0.1,0.4-0.1,0.7-0.1c0.2-1.5,0.5-2.3,1.2-2.3
				c0.6,0,1,0.8,1.1,2.4c0.1,0,0.3,0,0.4,0.1c0,0,0,0.1,0.1,0.1c0.1,0,0.1,0.3,0.1,0.8c0,0.2-0.2,0.4-0.5,0.8c0,0.1,0,0.3,0,0.4
				c0,1.7-0.1,3-0.2,4c-0.2,0.1-0.5,0.2-0.7,0.3c-0.2-0.6-0.6-0.9-1.3-0.9c-0.1-0.3-0.2-0.7-0.3-1.2c0-0.1,0-0.2,0-0.3
				c0,0.2-0.1,0.4-0.2,0.6C183,157.1,182.9,157.5,182.8,157.9C182.8,157.8,182.8,157.8,182.8,157.9z M192.5,158.9
				c-0.6,0-1.3,0.2-2.2,0.7c-0.3,0.1-0.5,0.3-0.8,0.4c0-0.2,0-0.4,0.1-0.5c0-2.1,0.5-3,1.5-2.6C191.9,157.2,192.4,157.8,192.5,158.9
				z M182.5,150c0-0.7,0-1.3,0-2c0.1,0.4,0.2,1,0.2,1.7C182.6,149.8,182.6,150,182.5,150z M186.2,158.2c0-0.9,0.1-1.4,0.2-1.5
				c0.4-0.3,1.4-0.3,3.1-0.1c0,0,0,0.1,0.1,0.1c0.1,0,0.1,0.3,0.1,0.8c0,0.3-0.3,0.8-0.9,1.5c-0.5,0.6-1,1.1-1.3,1.3
				c-0.6-0.2-1-0.5-1.2-1C186.2,159.1,186.2,158.8,186.2,158.2z M191.2,183.8c1,2.7,1.5,4.7,1.5,6.1c0,0.9-0.1,1.5-0.2,2
				c-0.4,0.2-0.7,0.4-1,0.5c-0.9-0.7-1.5-1.8-1.7-3.3c-0.1-0.4-0.1-1.6-0.1-3.6C189.7,181.8,190.2,181.2,191.2,183.8z M187.8,200
				c-0.1-0.3-0.1-0.7-0.1-1.4c-0.5-0.2-0.8-0.5-0.9-0.8c-0.1-0.2-0.1-0.5-0.1-1.2c0-1.3,0.4-1.9,1.3-1.8c0.4,0.1,0.8,0.3,0.9,0.6
				l0.1,0c0.6,0.2,1,0.5,1.3,1v1.3C188.7,198.1,187.9,198.9,187.8,200z M188.5,339.8c-0.2-1.1-1-1.4-2.5-1c-0.5,0.1-0.9,0.3-1.2,0.5
				c0-0.4,0.1-0.6,0.1-0.7c0.2-0.3,0.7-0.4,1.6-0.3c0.3-0.2,0.6-0.3,1-0.5c0.2,0.1,0.5,0.2,0.8,0.2c0.3,0.1,0.4,0.4,0.4,0.9
				C188.7,339.2,188.6,339.5,188.5,339.8z M192.7,197.5c-0.3-0.4-0.8-0.6-1.5-0.4c-0.3-0.7-0.5-1.3-0.5-1.7c0-0.4,0-0.7,0-0.7
				c0.1-0.1,0.2-0.1,0.2-0.3c0.6,0,1.2,0.2,1.8,0.5C192.7,195.9,192.7,196.7,192.7,197.5z M192.7,194.3c-0.5-0.6-0.9-1.1-1-1.7
				c0.4-0.2,0.7-0.3,1.1-0.3C192.7,193,192.7,193.7,192.7,194.3z M192.3,215.5c-0.2-0.1-0.4-0.1-0.7,0c-0.3,0-0.5,0-0.8,0.1
				c0.1-0.7,0.4-1.3,0.8-1.8c-0.3-0.4-0.6-0.8-0.8-1.2c-0.1-0.1-0.1-0.3-0.2-0.4c0,0.1-0.1,0.1-0.1,0.2c-0.3,0.6-0.5,1.1-0.5,1.5
				c-0.1,0-0.3,0.1-0.5,0.3c-0.3,0.2-0.6,0.3-0.8,0.4c-0.4-0.4-0.8-0.8-1-1.4c-0.2-0.4-0.3-0.7-0.3-0.9c0-1,0.1-1.6,0.2-1.9
				c0.4-0.6,1.4-0.8,2.9-0.5c0-0.2,0-0.4,0.1-0.5c0,0,0-0.1,0.1-0.1c-0.1-0.2-0.2-0.4-0.2-0.7c-0.1-0.3-0.1-0.7-0.1-1.1
				c-0.2-0.3-0.3-0.8-0.4-1.3c-0.1-0.7-0.1-1.2,0-1.6c0-1.7,0.5-2.4,1.4-2.1c0.4,0.1,0.7,0.4,1,0.8
				C192.5,207.1,192.4,211.2,192.3,215.5z M191.7,224.4c-0.1-0.1-0.2-0.2-0.3-0.4c-0.3-0.4-0.6-1-0.7-1.7c-0.1-0.3-0.1-1-0.1-2.1
				c-0.1,0-0.2,0-0.3,0c-1,0-1.6-0.5-1.8-1.3c-0.1-0.4-0.1-0.8,0-1.1c0-1.3,0.3-2,1-2c0.2,0,0.3,0.1,0.5,0.2c-0.4,0.4-0.5,1-0.5,1.8
				c0,0.1,0,0.5,0,1.3c0.2,0.7,0.8,1,2,1c0.2,0,0.4,0,0.6,0c0,1.4,0,2.9,0,4.4c-0.1,0.1-0.2,0.1-0.3,0.1
				C191.8,224.5,191.8,224.4,191.7,224.4z M188.8,229c0.3,0,0.7,0.1,1.2,0.1c0,0,0,0.1,0.1,0.1c0.1,0,0.1,0.3,0.1,0.8
				c0,0.3-0.3,0.8-0.9,1.5c-0.1,0.1-0.2,0.2-0.3,0.3c-0.1-0.9-0.5-1.4-1-1.4c-0.4,0-0.8,0.2-1.3,0.6c0-0.1,0-0.2,0-0.3
				c0-0.9,0.1-1.4,0.2-1.5c0.1,0,0.1-0.1,0.2-0.1c0.3,0,0.5,0,0.9,0C188.1,229.1,188.4,229,188.8,229z M191.1,238.6
				c0,0.6,0.1,1.3,0.1,2.2c0,1.8-0.1,3.3-0.2,4.5c-0.3,0.1-0.5,0.3-0.8,0.3c0.1,0.4,0.2,0.7,0.3,1.1c0.2,3.9,0.3,6,0.3,6.3
				c0,0.7-0.1,1.3-0.2,1.8c-0.3,0.2-0.7,0.4-1,0.5c-0.1,0.4-0.2,0.9-0.3,1.5c0,0.1-0.1,0.2-0.1,0.3c0,0,0.1,0.3,0.1,0.7
				c0,0.7-0.3,1.6-0.9,2.7c0,0.1-0.1,0.2-0.1,0.3l-0.8,0.3c-0.6-0.2-1-0.5-1.2-1c-0.1-0.2-0.1-0.5-0.1-1.1c0-0.8,0.1-1.4,0.2-1.6
				c0.2-0.3,0.4-0.4,0.8-0.5c0,0,0.1,0,0.1,0c-0.5-0.1-0.8-0.1-1.1,0c0-1.1,0.1-1.8,0.2-2c0.3-0.5,1-1,2.1-1.6
				c-0.2-0.5-0.4-1.1-0.5-1.7c-0.2,0.5-0.3,0.9-0.3,1.3c-0.1,0-0.3,0.1-0.5,0.3c-0.3,0.2-0.6,0.3-0.8,0.4c-0.6-0.4-1-0.9-1.2-1.5
				c-0.1-0.2-0.1-0.8-0.1-1.6l0-2.9c0.5,0,1,0,1.3,0.1c-0.9-2.9-1.4-4.7-1.4-5.4c0-0.3,0-0.5,0-0.5c-0.1,0-0.2,0.1-0.3,0.1
				c0.3-0.5,0.5-1,0.8-1.5c0,0.1,0,0.2,0,0.4c0,0.2-0.1,0.4-0.2,0.6c1.3,0,2.4,0.5,3.2,1.5c0-0.5,0-1.1,0-1.8c0-1.4,0.1-2.5,0.3-3.3
				c0,0,0,0.1,0,0.1c0.3,0.7,1,1,2,1C191,238.6,191,238.6,191.1,238.6z M190.5,234.3c-0.2-0.2-0.3-0.5-0.3-0.9c-0.1-0.6-0.1-1,0-1.4
				c0-2.1,0.5-3,1.5-2.7c0.2,0.1,0.4,0.2,0.5,0.3c0,1.4,0,2.8-0.1,4.3C191.5,234,190.9,234.2,190.5,234.3z M182.7,242.2
				c-0.3-0.1-0.6-0.2-0.7-0.3c-0.1-0.1-0.2-0.3-0.3-0.5c0-0.4,0-0.8,0-1.2c0.1-0.3,0.3-0.5,0.5-0.6c0-0.1,0-0.3,0-0.4
				c-0.1-0.3-0.1-1-0.1-2.2c0-2.9,0.4-4.3,1.3-4.3c0.3,0,0.6,0.3,0.8,0.8c-1.2,1.8-1.9,3.6-1.9,5.5c0,0.1,0,0.8,0,2.1
				C182.4,241.6,182.5,241.9,182.7,242.2z M186.7,225.6c-0.6,0.5-0.9,1.1-0.9,1.8c0,0.5,0,0.8,0.2,1c0.1,0.1,0.1,0.2,0.3,0.3
				c-0.1,0.9-0.1,1.6-0.2,2.2c-0.4,0.2-0.7,0.4-1,0.5c-0.6-0.3-1-1.1-1.2-2.3c0-0.1,0-0.2,0-0.3c-0.1,0.2-0.1,0.3-0.2,0.5
				c-0.5,1.8-0.9,3.3-1.1,4.5c-0.2,0.1-0.5,0.2-0.7,0.3c0.1-1.6,0.1-3.1,0.2-4.4c0-0.6,0-1.1,0-1.7c0-0.6,0-1.2,0-1.8
				c0-0.1,0.1-0.1,0.1-0.2c0-0.1,0.1-0.1,0.1-0.2c0-0.3,0.1-0.6,0.2-0.7c0.3-0.3,0.7-0.4,1.3-0.5c0.2-1.5,0.5-2.3,1.2-2.3
				c0.6,0,1,0.8,1.1,2.4c0.1,0,0.3,0,0.4,0c0,0,0,0.1,0.1,0.1C186.6,224.9,186.7,225.2,186.7,225.6z M183.2,222.2
				c-0.1,0.3-0.2,0.5-0.3,0.6c-0.1,0.2-0.4,0.3-0.8,0.3c0-1.3,0-2.6,0.1-3.9c0.4,0.4,0.6,0.8,0.8,1
				C183.1,220.6,183.2,221.3,183.2,222.2z M184.7,245.8c0,0.9-0.1,1.7-0.2,2.4c-0.4,0.2-0.7,0.3-1,0.4c-0.8-0.8-1.3-1.7-1.3-2.8
				c0-1.6,0.4-2.4,1.3-2.5C184.2,243.2,184.7,244,184.7,245.8z M191.8,256.7c0,0.3,0,0.7,0.1,1.4c0.1,0.3,0.3,0.6,0.4,0.9
				c0,1.3,0.1,2.7,0.2,4.2c-0.1,0-0.3,0.1-0.3,0.1c0.1,0.3,0.2,0.5,0.3,0.8c0,0.2,0,0.4,0,0.6c-0.2,0.1-0.5,0.2-0.6,0.3
				c-0.9-0.7-1.5-1.8-1.7-3.3c-0.1-0.4-0.1-1.6-0.1-3.6c0-3.8,0.5-4.3,1.5-1.7C191.7,256.4,191.7,256.5,191.8,256.7z M192.2,265.3
				c0.1-0.1,0.2-0.1,0.2-0.3c0,0,0.1,0,0.1,0c0,0.8,0,1.6,0,2.4c0,0,0,0.1,0,0.1c-0.3-0.7-0.4-1.2-0.4-1.5
				C192.2,265.6,192.2,265.4,192.2,265.3z M185.5,262.5L185.5,262.5c-0.1,0.1-0.1,0.2-0.1,0.3c-0.1,0.1-0.5,0.2-1,0.2
				c-1,0-1.7-1.1-2.3-3.2c-0.1-0.5-0.2-1-0.3-1.5c0-1.2,0-2.4,0-3.6c0.2-1.6,0.9-1.2,1.9,1.2c1.3,3.8,2,5.7,2,5.8
				C185.7,262,185.6,262.3,185.5,262.5z M182.3,269.6c0.3-0.3,0.7-0.6,1.2-0.9c0.1,0.1,0.3,0.1,0.4,0.1c0.1,0,0.2,0.1,0.3,0.1
				c0-0.3,0-0.6,0-1c0-1,0.1-1.6,0.2-1.7c0.3-0.4,1.1-0.4,2.6-0.2c0.1,0.3,0.2,0.7,0.2,1.3c0,0.3,0.1,0.6,0.1,0.9c0,0,0,0.1,0,0.1
				v0.1c0,0,0,0.1,0,0.1c0,1-0.1,1.8-0.2,2.5c0,0.1,0,0.2,0,0.3c-0.1,0.1-0.3,0.2-0.7,0.3c0.1,0.9,0.4,2.2,1,3.9
				c0.2,0.5,0.3,1,0.4,1.3c0.2,0.2,0.4,0.4,0.6,0.5v4.5c0.3,1.7,0.5,3.3,0.5,4.8c0,0.5,0,0.8-0.1,0.9h-0.1l-0.2,0.2
				c0,0-0.1,0.1-0.1,0.1c0.4,0.3,0.6,0.7,0.8,1.2c0.2,1.1,0.5,1.9,0.7,2.5l-0.3,0.4c-0.2,0.2-0.5,0.3-1,0.3c-0.9,0-1.6-0.5-2-1.5
				c-0.1-0.5-0.2-0.9-0.3-1.4c-0.1,0-0.2,0-0.3,0c-1,0-1.6-0.4-1.8-1.2c-0.1-0.4-0.1-0.9,0-1.4l0-2c0.2,0,0.5,0,1-0.1
				c0.2,0,0.5,0,0.8,0c-0.1-0.5-0.2-1.1-0.3-1.8c-0.2-1.1-0.3-2.2-0.4-3.3c-0.1,0-0.3,0.1-0.3,0.1c-0.6-0.4-1-0.9-1.2-1.5
				c-0.1-0.2-0.1-0.7-0.1-1.5c0-0.1,0-0.1,0-0.2c0.1,0,0.1,0,0.3,0c0.7,0,1.2-0.2,1.6-0.6c0.3-0.4,0.5-0.8,0.5-1.3
				c0-0.9-0.5-1.9-1.5-3.1c0.1,0,0.2,0,0.4,0c0.2,0,0.4,0,0.6,0c-0.4-0.1-0.7-0.2-0.8-0.5c-0.1-0.1-0.2-0.3-0.3-0.5
				c-0.1,0.1-0.2,0.3-0.3,0.5c-0.2-0.2-0.4-0.5-0.7-0.7C183,270,182.6,269.7,182.3,269.6z M190.7,270.5c-0.9,0.3-1.4,0.9-1.4,1.8
				c0,0.3,0,0.6,0.1,0.8c-0.1-0.1-0.3-0.1-0.4-0.1c-0.1,0-0.3,0-0.4,0c-0.1-0.2-0.2-0.4-0.3-0.6c-0.1-0.2-0.1-0.7-0.1-1.6
				c0-0.6,0.1-1.2,0.3-1.6c0.2-0.1,0.3-0.1,0.5-0.2c-0.4-0.2-0.6-0.5-0.7-0.8c-0.1-0.2-0.1-0.5-0.1-1.1c0-1.3,0.4-2,1.3-1.9
				c0.8,0.1,1.3,0.7,1.3,1.9c0,0.2,0,0.4,0,0.6c0,0.2-0.1,0.5-0.1,0.7c0,0,0.1,0.1,0.1,0.2V270.5z M189.3,273.2
				C189.3,273.2,189.4,273.3,189.3,273.2c0.3,0.4,0.9,0.7,1.7,0.8c0.1,0.3,0.1,0.7,0.1,1c0,0.7-0.1,1.3-0.2,1.8
				c-0.4,0.2-0.7,0.4-1,0.5c-0.4-0.4-0.8-0.9-1-1.4c-0.2-0.4-0.3-0.7-0.3-0.9C188.7,274.1,188.9,273.4,189.3,273.2z M191.8,274.1
				c0.3,0,0.6,0,0.9,0h0c0,0.2,0,0.3,0,0.5c0,0.7,0,1.5,0,2.2c0,2.7,0,5.1,0,7.2c-0.2-0.2-0.3-0.5-0.4-0.8c-0.1-0.1-0.1-0.3-0.2-0.4
				c0,0.1-0.1,0.1-0.1,0.2c-0.3,0.6-0.5,1.1-0.5,1.5c-0.1,0-0.3,0.1-0.5,0.3c-0.3,0.2-0.6,0.3-0.8,0.3c-0.4-0.4-0.8-0.8-1-1.3
				c-0.2-0.4-0.3-0.7-0.3-0.9c0-1,0.1-1.6,0.2-1.8c0.4-0.6,1.4-0.8,2.9-0.5c0-0.2,0-0.4,0.1-0.5c0,0,0-0.1,0.1-0.1
				c-0.1-0.2-0.2-0.4-0.2-0.7c-0.1-0.3-0.1-0.7-0.1-1.1c-0.2-0.3-0.3-0.8-0.4-1.3c-0.1-0.7-0.1-1.2,0-1.6
				C191.7,274.7,191.7,274.4,191.8,274.1z M182.1,269.5C182.1,269.5,182,269.5,182.1,269.5c-0.1-0.6-0.1-1.2-0.1-1.8
				c0.3,0.2,0.6,0.6,0.8,1.1c-0.2,0-0.3-0.1-0.4-0.1c-0.1,0.1-0.1,0.1-0.2,0.1c0,0.1,0,0.1,0,0.2L182.1,269.5z M182.7,276.5
				c0,0.1,0,0.3,0,0.5c0,0.1-0.2,0.4-0.5,0.8c0-0.5,0-1.1,0-1.6C182.3,276.3,182.5,276.4,182.7,276.5z M192.8,288
				c-0.3,0.5-0.5,1-0.5,1.6c0,0.8,0,1.5,0.2,1.9l0.2,0.1c0,0.8,0,1.6,0,2.5c-0.1-0.3-0.2-0.7-0.3-1.1c-0.1-0.3-0.1-1-0.1-2.1
				c-0.1,0-0.2,0-0.3,0c-1,0-1.6-0.5-1.8-1.3c-0.1-0.4-0.1-0.8,0-1c0-1.3,0.3-2,1-2c0.4,0,0.7,0.3,1,0.8c0-0.4,0-0.7,0-0.9
				c0.1-0.6,0.3-1.1,0.5-1.5C192.8,286,192.8,287,192.8,288z M183.4,267c-0.2,0.2-0.5,0.3-1,0.3c-0.1,0-0.3,0-0.4,0
				c0-0.9,0-1.8,0-2.7c0,0,0.1,0,0.1,0c0.8,0.3,1.3,1,1.6,2.1L183.4,267z M182.9,288.8c0.8,0.9,1.3,1.5,1.5,1.9c0.2,0.4,0.3,1,0.3,2
				c-0.1,0.3-0.2,0.5-0.3,0.6c-0.1,0.2-0.5,0.4-1,0.4c-0.2,0-0.4-0.1-0.6-0.2c0-0.1,0-0.3,0-0.4c0-0.4-0.1-0.8-0.1-1.3
				c0,0,0-0.1,0-0.1c0-0.9-0.1-1.7-0.1-2.6C182.7,289,182.8,289,182.9,288.8z M183.9,295.7c0.3-0.3,0.7-0.4,1.3-0.5
				c0.2-1.5,0.5-2.3,1.2-2.3c0.6,0,1,0.8,1.1,2.4c0.1,0,0.3,0,0.4,0c0,0,0,0.1,0.1,0.1c0.1,0,0.1,0.3,0.1,0.8c0,0.2-0.2,0.4-0.5,0.8
				c0,0.1,0,0.3,0,0.3c0,1.7-0.1,3-0.2,4c-0.4,0.2-0.7,0.4-1,0.5c-0.6-0.3-1-1.1-1.2-2.3c0-0.1,0-0.2,0-0.3c0,0.2-0.1,0.4-0.2,0.6
				c-0.5,1.8-0.9,3.3-1.1,4.5c-0.3,0.1-0.5,0.2-0.7,0.3c-0.1-2.3-0.2-4.6-0.3-7c0.2-0.5,0.5-0.9,0.8-1.2
				C183.7,296.1,183.8,295.8,183.9,295.7z M191.5,299.8c0.1,0,0.1,0.3,0.1,0.8c0,0.3-0.3,0.8-0.9,1.5c-0.5,0.6-1,1.1-1.3,1.3
				c-0.6-0.2-1-0.5-1.2-1c-0.1-0.2-0.1-0.5-0.1-1.1c0-0.9,0.1-1.4,0.2-1.5c0.4-0.3,1.4-0.3,3.1,0
				C191.4,299.7,191.5,299.7,191.5,299.8z M192.3,307.5c-0.4-0.3-0.9-0.5-1.5-0.7c0.2-0.3,0.4-0.5,0.7-0.5c0.1,0,0.2,0,0.3,0
				c0,0,0-0.1,0-0.1c0-0.5,0.2-0.8,0.6-1c-0.3-0.3-0.5-0.7-0.6-1.3c-0.1-0.6-0.1-1.1,0-1.5c0-1.5,0.3-2.4,0.8-2.6
				c0,1.6-0.1,3.1-0.1,4.5c0,0.8,0,1.6,0,2.5C192.3,307.1,192.3,307.3,192.3,307.5z M186,318.7c-0.4,0.2-0.7,0.3-1,0.4
				c-0.8-0.8-1.3-1.7-1.3-2.8c0-1.6,0.4-2.4,1.3-2.5c0.8-0.1,1.3,0.8,1.3,2.5C186.2,317.2,186.1,318,186,318.7z M192.9,326.2
				c-0.4,0.4-0.7,1.1-0.7,1.9c0,0.1,0,0.5,0,1.4c0.2,0.6,0.5,0.9,1,1.1c0,0.3,0,0.7,0,1c0,0.7,0.1,1.5,0.1,2.2
				c-0.1,0.5-0.2,1-0.3,1.5c-0.8-0.7-1.3-1.8-1.5-3.2c-0.1-0.4-0.1-1.6-0.1-3.6C191.7,325.1,192.1,324.3,192.9,326.2z M190.3,337.9
				c-0.1,0.1-0.1,0.3-0.1,0.4c0,0.5,0,0.8,0.2,1c0.2,0.4,0.6,0.6,1.1,0.8c-0.2,0.4-0.3,0.9-0.5,1.3h-1c-0.3-0.1-0.7-0.1-1-0.2
				c-0.2-0.2-0.3-0.3-0.3-0.5c-0.1-0.2-0.1-0.5-0.1-1.2c0-1.3,0.4-1.9,1.3-1.8C190.1,337.8,190.2,337.8,190.3,337.9z"/>
			<path fill-rule="evenodd" clip-rule="evenodd" fill="#C2C2C9" d="M187,74.8c0.1-0.2,0.2-0.3,0.3-0.4c0.8,0.8,1.7,1.9,2.7,3.3
				c-0.2,0-0.5,0-0.8,0c-1,0-1.6-0.2-2-0.5c-0.1-0.1-0.2-0.2-0.3-0.3c-0.1-0.1-0.2-0.5-0.2-1C186.8,75.4,186.8,75,187,74.8z
				 M181.2,79.3c0.5-0.4,1.3-0.6,2.3-0.6c0.1,0,0.1,0,0.2,0c0.4,0,0.7,0,1,0c1.2,0.2,1.8,0.9,1.8,2.1c0,0.7-0.3,1.2-1,1.5
				c-0.4,0.2-1.1,0.3-2.1,0.3c-0.6,0-1.1,0-1.5-0.1c-0.6-0.1-1-0.3-1.3-0.5l-0.1,0c0-0.2,0-0.5,0.1-0.6c0,0,0-0.1,0-0.1
				c0.1-0.7,0.3-1.3,0.4-1.9C181.1,79.4,181.1,79.3,181.2,79.3z M183.8,88.9c0.1,0,0.2,0,0.3,0c0.2,0,0.4,0,0.7,0
				c0.9,0.1,1.6,0.3,2,0.8c0.2,0.3,0.3,0.7,0.3,1.2c0,0.3-0.1,0.6-0.2,0.9c-0.2-0.2-0.3,0-0.5,0.5c-0.3,0.2-0.6,0.3-0.9,0.4
				c-0.2,0-0.5,0-0.8,0c-1.2,0-2-0.3-2.3-0.8v-0.1c0-0.1-0.1-0.4-0.1-0.9c0-0.2,0-0.3,0.1-0.5C182.5,89.6,183,89.1,183.8,88.9z
				 M189,97.6c-0.1,0-0.2,0-0.3,0c-0.9,0-1.5-0.3-1.8-1c-0.1-0.3-0.2-0.7-0.2-1.1c0-0.8,0.4-1.4,1.1-1.9c0.3-0.2,0.8-0.4,1.3-0.5
				c0.8-0.2,1.4-0.1,1.8,0.3c0.1,0.8,0.1,1.6,0.1,2.5v0c-0.1,0.2-0.3,0.4-0.5,0.6C189.9,97.1,189.4,97.5,189,97.6z M181.3,84.4
				c1.2,0,1.8,0.7,1.8,2.1c0,1.1-0.6,1.8-1.8,2.1h0l-1.1-0.4c0-1.3,0.1-2.5,0.3-3.6c0.1,0,0.1-0.1,0.2-0.1
				C180.8,84.4,181,84.4,181.3,84.4L181.3,84.4z M185.5,73c0-0.1-0.1-0.1-0.1-0.1c0,0-0.1-0.1-0.1-0.1c0.3,0.2,0.7,0.4,1.2,0.8
				C186,73.4,185.7,73.2,185.5,73z M191.5,111c-0.4,0.4-1,0.6-1.8,0.6c-0.1,0-0.2,0-0.3,0c-1.3,0-2.1-0.3-2.5-1
				c-0.2-0.4-0.3-0.8-0.2-1.1c0-1.4,1-2.6,3.1-3.6c0.1,0,0.1-0.1,0.2-0.1c0.5-0.2,0.9-0.4,1.3-0.4c0,1.3,0,2.5,0.1,3.6
				C191.4,109.7,191.5,110.4,191.5,111z M182.7,128c-0.2,0-0.3,0-0.5,0h-0.1c0-0.4,0-0.7,0-1c-0.1-1.3-0.2-2.6-0.3-3.8
				c0.5-0.3,1.2-0.5,2.1-0.6c1-0.1,1.8,0,2.4,0.3c0.7,0.3,1.1,0.9,1.1,1.8c0,0.2-0.3,0.6-0.8,1c-0.3,0.2-0.6,0.5-1,0.8
				c-0.2,0.1-0.4,0.3-0.6,0.4C184.2,127.6,183.4,127.9,182.7,128z M191.6,133.6c-0.2,0.1-0.5,0.3-0.8,0.4c0.2,0,0.4,0.1,0.5,0.2
				c0.1,0,0.2,0.1,0.3,0.1c0,1.4,0.1,2.8,0.2,4.3c-0.1,0-0.1,0-0.2,0c-1.4,0-2.4-0.4-3-1.3v0c-0.3-0.5-0.5-1-0.5-1.6
				c0-0.5,0.1-0.9,0.3-1.1c-0.2-0.1-0.4-0.1-0.5-0.2c-0.6-0.3-0.8-0.8-0.8-1.4c0-1.1,0.5-1.9,1.5-2.5c0.3-0.2,0.7-0.3,1.2-0.4
				c-0.1-0.6-0.2-0.9-0.2-1c0-1.1,0.6-2,1.8-2.5v3.8C191.5,131.4,191.5,132.5,191.6,133.6z M180.4,101.3c0.4,0.3,0.6,0.9,0.6,1.8
				c0,0.6-0.1,1-0.5,1.4C180.5,103.2,180.5,102.1,180.4,101.3z M187.5,148.8c-0.5-0.3-0.9-0.8-1.1-1.5l-0.3-1.7c0-0.2,0-0.5,0-0.7
				c0,0,0-0.1,0-0.1c0-0.8,0.2-1.3,0.4-1.6c0.3-0.4,0.7-0.5,1.3-0.2c0.3,0.1,0.5,0.3,0.8,0.6c0.7,0.7,1.3,1.9,1.8,3.5l-0.3,1.4l0,0
				l-0.4,0.3c-0.3,0.2-0.6,0.3-1.1,0.3C188.2,149,187.8,149,187.5,148.8z M188.5,164.5c-1.2-0.1-1.8-0.7-1.8-1.7
				c0-0.8,1-1.7,2.9-2.8c0.2-0.2,0.5-0.3,0.8-0.4c0.9-0.5,1.6-0.7,2.2-0.7c0,0,0.1,0,0.1,0c0.1,1.3,0.1,2.6,0.1,3.7
				c-0.3,0.2-0.6,0.4-0.9,0.6c-1.3,0.9-2.3,1.3-3,1.3C188.8,164.5,188.6,164.5,188.5,164.5z M190.5,164.9c1,0.1,1.5,0.8,1.5,1.9
				c0,0.5-0.2,1-0.5,1.3c-0.2,0.2-0.5,0.4-0.8,0.5c-0.2,0-0.3,0-0.5,0c-1.3,0-2-0.6-2-1.7c0-1.3,0.6-2,1.9-2
				C190.2,164.9,190.3,164.9,190.5,164.9z M183.9,161.9c-0.3,0.3-0.7,0.5-1.1,0.8c-0.1-1.7-0.1-3.3-0.1-4.9c0,0,0-0.1,0-0.1
				c0.3-0.1,0.5-0.1,0.8-0.1c0.6,0,1,0.3,1.3,0.9c0.1,0.3,0.2,0.7,0.2,1.1C185,160.5,184.6,161.2,183.9,161.9z M193,175.7
				c-0.3,0.4-0.7,0.8-1.3,1.1c0,0-0.1,0-0.1,0c-0.7,0.4-1.2,0.7-1.6,0.8c-0.1,0-0.1,0-0.1,0c-1,0-1.7-0.3-2-1c-0.1-0.7-0.2-1-0.2-1
				c0-1.3,0.9-2.3,2.8-3c0,0,0.1,0,0.1,0c0.6-0.2,1.1-0.3,1.5-0.3c0.4,0,0.7,0.2,1,0.5C193,173.5,193,174.5,193,175.7z M182.6,189
				c1.3-0.3,2.1,0.2,2.3,1.3c0,0.2,0,0.3,0,0.5c0,0.8-0.7,1.7-2,2.8c-0.1,0.1-0.3,0.2-0.4,0.3C182.5,192.2,182.6,190.5,182.6,189z
				 M185.7,173.8c-0.1,0.1-0.2,0.3-0.3,0.5c-0.1,0.2-0.2,0.5-0.3,0.6c-0.2,0.4-0.3,0.7-0.3,0.9c0,0.4-0.1,0.7-0.3,1
				c-0.1,0.1-0.2,0.3-0.4,0.3c-0.3,0.3-0.7,0.5-1.2,0.5c-0.1,0-0.3,0-0.4,0c0-2.5,0-4.8,0-6.6c0.1,0,0.3-0.1,0.4-0.1
				c0.7-0.1,1.3-0.1,1.7,0c0.7,0.3,1.1,0.9,1.1,2C186,173,185.9,173.3,185.7,173.8z M182.3,206.4c0.1,0.3,0.2,0.7,0.2,1.1
				c0,0.3,0,0.5-0.1,0.8c0,0.1-0.1,0.3-0.1,0.4C182.3,207.9,182.3,207.1,182.3,206.4z M188.5,339.8c0,0.2,0,0.3,0,0.5s0,0.4-0.1,0.7
				c-0.8-0.3-1.7-0.7-2.5-1c-0.3-0.1-0.5-0.2-0.8-0.4c-0.2,0-0.4-0.1-0.6-0.2c0.1,0,0.1-0.1,0.2-0.1c0.3-0.2,0.7-0.4,1.2-0.5
				C187.4,338.4,188.3,338.7,188.5,339.8z M187.8,200c0.1-1,0.9-1.9,2.4-2.5c0.1,0,0.1-0.1,0.2-0.1c0.3-0.1,0.6-0.2,0.8-0.3
				c0.7-0.2,1.2,0,1.5,0.4c0,0.7,0,1.5-0.1,2.2c-0.2,0.3-0.5,0.7-0.9,1.1c-0.9,0.8-1.5,1.3-2,1.3c-1.3,0-2-0.6-2-1.8
				C187.7,200.2,187.7,200.1,187.8,200z M192.3,220c-0.2,0-0.4,0-0.6,0c-1.1,0-1.8-0.3-2-1c0-0.8,0-1.2,0-1.3c0-0.8,0.2-1.4,0.5-1.8
				c0.1-0.2,0.3-0.3,0.6-0.5c0.2-0.1,0.5-0.1,0.8-0.1c0.3,0,0.5,0,0.7,0c0,0.3,0,0.7,0,1c0,0.2,0,0.3,0,0.5
				C192.3,218,192.3,219,192.3,220z M186.7,225.6c0.5-0.5,1.3-0.9,2.3-1.3c1.1-0.5,2-0.6,2.5-0.2c0.1,0.1,0.2,0.3,0.3,0.4
				c0.2,0.3,0.3,0.8,0.3,1.4c0,0.9-0.6,1.7-1.8,2.5c-0.5,0.3-1,0.5-1.4,0.7c-0.3,0.1-0.6,0.1-0.8,0.1c-0.3,0-0.6,0-0.9,0
				c-0.4-0.1-0.7-0.3-0.9-0.5c-0.1-0.1-0.2-0.2-0.3-0.3c-0.1-0.2-0.2-0.5-0.2-1C185.8,226.7,186,226.1,186.7,225.6z M189,231.8
				c0,0.2,0,0.3,0,0.5c0,0.6-1.1,3.2-3.3,7.8c-0.2,0.5-0.5,1-0.8,1.5c-0.2,0.5-0.5,1-0.8,1.5c-0.7,0-1.2-0.3-1.5-0.9
				c-0.1-0.3-0.2-0.6-0.3-1c0-1.3,0-2,0-2.1c0-1.9,0.6-3.7,1.9-5.5c0.4-0.6,0.9-1.3,1.5-1.8c0.3-0.4,0.6-0.7,1-0.8
				c0.5-0.4,0.9-0.6,1.3-0.6C188.5,230.3,188.9,230.8,189,231.8z M188.9,237.5c-0.1-0.6-0.2-0.9-0.2-1c0-1,0.6-1.7,1.8-2.2
				c0.4-0.2,1-0.3,1.6-0.4c0,1.5,0,3,0,4.5c-0.3,0.1-0.6,0.1-1,0.1c-0.1,0-0.1,0-0.2,0c-1,0-1.7-0.3-2-1
				C188.9,237.5,188.9,237.5,188.9,237.5z M182.1,244.9c0,1-0.1,1.7-0.3,2c0,0.1-0.1,0.1-0.1,0.2c0-1.4,0-2.8,0-4.3
				C182,243.4,182.1,244,182.1,244.9z M191.8,256.7c0-0.2,0-0.3,0-0.3c0-0.6,0.2-1.2,0.5-1.8c0,1.4,0.1,2.8,0.1,4.4
				c-0.2-0.3-0.3-0.6-0.4-0.9C191.8,257.4,191.8,256.9,191.8,256.7z M192.8,288c0,1.6-0.1,2.8-0.2,3.6v0l-0.2-0.1
				c-0.1-0.4-0.2-1.1-0.2-1.9C192.3,289,192.4,288.4,192.8,288z M182.7,276.5c-0.2-0.1-0.3-0.1-0.5-0.2c-0.1-2.2-0.1-4.5-0.2-6.7
				c0,0,0.1,0,0.1,0c0,0,0.1,0,0.2,0c0.3,0.1,0.7,0.4,1.2,0.8c0.3,0.2,0.5,0.5,0.7,0.7c0.1,0.2,0.3,0.3,0.4,0.5
				c1,1.1,1.5,2.2,1.5,3.1c0,0.5-0.2,1-0.5,1.3c-0.4,0.4-0.9,0.6-1.6,0.6c-0.1,0-0.2,0-0.3,0C183.3,276.6,183,276.5,182.7,276.5z
				 M192.7,274.1L192.7,274.1c-0.4,0-0.7,0-1,0c-0.3,0-0.5-0.1-0.7-0.1c-0.8-0.1-1.4-0.4-1.6-0.7c0,0-0.1-0.1-0.1-0.1v0
				c-0.1-0.2-0.1-0.5-0.1-0.8c0-0.9,0.5-1.5,1.4-1.8c0.5-0.2,1.2-0.3,2-0.3C192.7,271.6,192.7,272.9,192.7,274.1z M192,296
				c0,1.7-0.6,2.5-1.8,2.5c-1,0-1.7-0.4-1.9-1.1c0-0.8,0-1.3,0-1.4c0-1.9,0.6-2.8,1.9-2.8C191.4,293.3,192,294.2,192,296z
				 M192.3,311c-0.2,0.1-0.4,0.1-0.6,0.1c-0.5,0-1,0-1.5-0.1c-0.8-0.2-1.5-0.5-2.2-1c-0.5-0.4-0.8-0.7-1-1c-0.2-0.3-0.3-0.6-0.3-0.9
				c0-0.9,0.3-1.4,0.9-1.6c0.6-0.2,1.4-0.2,2.5,0.2c0.2,0.1,0.4,0.1,0.6,0.2c0.6,0.2,1.1,0.4,1.5,0.7
				C192.3,308.7,192.3,309.9,192.3,311z M184.3,312.8c-0.3,0.1-0.5,0.2-0.8,0.3c-0.1-2.5-0.2-5-0.3-7.6c0.1,0.4,0.3,0.8,0.5,1.3
				c0.4,1.2,0.8,2.7,1.3,4.4l-0.3,1.3L184.3,312.8L184.3,312.8z M193.3,330.5c-0.5-0.2-0.9-0.5-1-1.1c0-0.8,0-1.3,0-1.4
				c0-0.8,0.2-1.5,0.7-1.9c0.1-0.1,0.1-0.1,0.2-0.2c0.1,0.9,0.1,1.9,0.2,2.9C193.3,329.4,193.3,330,193.3,330.5z M190.3,337.9
				c0.3-0.8,1.2-1.5,2.8-2.1c0,0,0,0.1,0,0.2c-0.3,0.7-0.6,1.4-0.9,2.1c-0.2,0.7-0.5,1.3-0.7,2c-0.5-0.1-0.9-0.4-1.1-0.8
				c-0.1-0.2-0.2-0.5-0.2-1C190.3,338.2,190.3,338,190.3,337.9z"/>
			<path fill-rule="evenodd" clip-rule="evenodd" fill="#E8E8F4" d="M192.8,162.6c0,0.8,0.1,1.6,0.1,2.4c-0.1,0-0.3,0-0.5,0
				c-0.7,0-1.4-0.2-2.1-0.6c0,0.1,0.1,0.3,0.1,0.4c-0.1,0-0.2,0-0.4,0c-1.3,0-1.9,0.7-1.9,2c0,1.1,0.6,1.7,2,1.7c0.2,0,0.3,0,0.5,0
				c0,1.6-0.1,3-0.2,4c-1.9,0.7-2.8,1.7-2.8,3c0,0,0.1,0.4,0.2,1c0.3,0.7,1,1,2,1c0,0,0.1,0,0.1,0c0.1,1.8,0.1,2.8,0.1,3
				c0,0.7-0.1,1.3-0.2,1.8c-0.3,0.2-0.7,0.4-1,0.5c-0.1,0.4-0.2,0.9-0.3,1.5c-0.4,1.5-0.6,2.7-0.7,3.4c-0.1,0.1-0.3,0.1-0.4,0.1
				c-0.1,0.6-0.4,1.4-0.9,2.4l-0.8,0.3c-0.4-0.1-0.7-0.3-0.9-0.5H185c0,0.1,0,0.2,0,0.3c-0.2-1.1-1-1.5-2.3-1.3
				c0-2.4,0.1-4.6,0.1-6.7c0.1,0.3,0.3,0.6,0.5,1c0.7,1.9,1.2,3.4,1.5,4.4c0-0.4,0-0.7,0.1-0.9c0.2-0.3,0.5-0.5,0.9-0.5
				c0-0.3,0-0.7,0-1.2c0-1.5,0.1-2.4,0.2-2.8c0.3-0.5,1-1,2.1-1.6c-0.2-0.5-0.4-1.1-0.5-1.7c-0.2,0.5-0.3,0.9-0.3,1.3
				c-0.1,0-0.3,0.1-0.5,0.3c-0.3,0.2-0.6,0.3-0.8,0.4c-0.6-0.4-1-0.9-1.2-1.5c-0.1-0.2-0.1-0.8-0.1-1.7l0-1c0.2-0.3,0.3-0.6,0.3-1
				c0-0.2,0.1-0.5,0.3-0.9c0.3,0,0.6,0.1,0.8,0.1c-0.1-0.4-0.3-0.8-0.3-1.2c0.2-0.5,0.3-0.8,0.3-1c0-1-0.4-1.7-1.1-2
				c-0.1-0.6-0.2-1-0.2-1.2c0-0.3,0-0.5,0-0.6c-0.1,0.1-0.3,0.1-0.5,0.2c-0.7,0.2-1.2,0.4-1.5,0.5c0-0.3,0-0.6,0-1c0-0.5,0-1,0-1.5
				c0.1-1.9,0.1-3.1,0.1-3.8c0-0.3,0-0.5,0-0.8c0.4-0.3,0.8-0.5,1.1-0.8c0,0.1,0,0.1,0,0.2c1.1-1.4,1.7-1.1,1.7,0.9
				c0,0.9-0.4,2.3-1.1,4.1c0.1,0,0.3,0.1,0.4,0.1c0,0,0,0.1,0.1,0.1c0.1,0,0.1,0.3,0.1,0.8c0,0.2-0.1,0.4-0.2,0.5
				c1.3,0,2.4,0.5,3.2,1.5c0-0.5,0-1.1,0-1.9c0-1.7,0.1-2.9,0.3-3.7c0.1,0,0.3,0,0.4,0c0.7,0,1.7-0.4,3-1.3
				C192.2,163,192.5,162.8,192.8,162.6z M182.5,208.3c0.1-0.2,0.1-0.5,0.1-0.8c0-0.4-0.1-0.8-0.2-1.1c0-0.3,0-0.6,0-0.9
				c0-0.5,0-0.9,0-1.3c0-0.1,0-0.2,0-0.3c0.2-0.4,0.7-0.6,1.5-0.5c-0.1-0.2-0.1-0.4-0.1-0.5c-0.2-0.7-0.3-1.5-0.4-2.3
				c-0.2-0.2-0.3-0.4-0.4-0.6c-0.1,0.1-0.2,0.3-0.3,0.5c-0.1,0.7-0.1,1.3-0.2,1.9c0-1.9,0.1-3.8,0.1-5.6c0,0.2,0.1,0.4,0.1,0.6
				c0,0.1,0,0.1,0.1,0.2c0-0.1,0-0.2,0-0.4c0-1,0.1-1.6,0.2-1.7c0.2-0.3,0.7-0.4,1.6-0.3c0.3-0.2,0.6-0.3,1-0.5
				c0.2,0.1,0.5,0.2,0.8,0.2c0.3,0.1,0.4,0.4,0.4,0.9c0,0.4-0.2,0.9-0.5,1.4c-0.3,0.5-0.5,1-0.5,1.4c0,1,0.3,2.4,1,4.3
				c0.2,0.6,0.4,1.1,0.5,1.5c0-1.4,0.4-2,1.3-2c0.8,0,1.3,0.7,1.3,2c0,0.7-0.1,1.3-0.2,1.8c-0.4,0.2-0.7,0.4-1,0.5
				c-0.3-0.3-0.6-0.6-0.8-1l0.1,0.2c0,0.5,0,0.8-0.1,0.9h-0.1l-0.2,0.2c-0.1,0.1-0.3,0.1-0.6,0.2v4c0.3,1.7,0.5,3.3,0.5,4.8
				c0,0.5,0,0.8-0.1,0.9H187l-0.2,0.2c0,0-0.1,0.1-0.1,0.1c0.4,0.3,0.6,0.7,0.8,1.2c0.2,1.1,0.5,1.9,0.7,2.5l-0.3,0.4
				c-0.2,0.2-0.5,0.3-1,0.3c-0.9,0-1.6-0.5-2-1.5c-0.1-0.5-0.2-0.9-0.3-1.4c-0.1,0-0.2,0-0.3,0c-1,0-1.6-0.4-1.8-1.2
				c-0.1-0.4-0.1-0.9,0-1.4l0-2c0.2,0,0.5,0,1-0.1c0.2,0,0.5,0,0.8,0c-0.1-0.5-0.2-1.1-0.3-1.8c-0.2-1.1-0.3-2.2-0.4-3.3
				c-0.1,0-0.3,0.1-0.3,0.1C183,209,182.7,208.7,182.5,208.3z M187,309c-0.1,0.4-0.3,0.8-0.5,1.2c0.1,0,0.3,0,0.4,0
				c0,0,0,0.1,0.1,0.1c0.1,0,0.1,0.3,0.1,0.8c0,0.2-0.1,0.4-0.2,0.6c1.3,0,2.4,0.5,3.2,1.4c0-0.5,0-1.1,0-1.8c0-0.1,0-0.2,0-0.3
				c0.5,0.1,1,0.1,1.5,0.1c0.2,0,0.4,0,0.6-0.1c0,1.7,0.1,3.3,0.2,4.8v0c-0.3,0.1-0.5,0.2-0.8,0.3c0.1,0.4,0.2,0.7,0.3,1.1
				c0.2,3.9,0.3,6,0.3,6.3c0,0.7-0.1,1.3-0.2,1.8c-0.3,0.2-0.7,0.4-1,0.5c-0.1,0.4-0.2,0.9-0.3,1.5c-0.4,1.5-0.6,2.7-0.7,3.4
				c-0.1,0.1-0.3,0.1-0.4,0.1c-0.1,0.6-0.4,1.4-0.9,2.4l-0.8,0.3c-0.4-0.1-0.7-0.3-0.9-0.5H187c0,0.1,0,0.2,0,0.3
				c-0.1,0.2-0.5,0.3-1,0.3c-1,0-1.7-1-2.2-3.1c0-2,0-4,0-6.2c0.3-0.1,0.8,0.5,1.5,2c0.7,1.9,1.2,3.4,1.5,4.4c0-0.4,0-0.7,0.1-0.9
				c0.2-0.3,0.5-0.5,0.9-0.5c0-0.3,0-0.7,0-1.2c0-1.5,0.1-2.4,0.2-2.8c0.3-0.5,1-1,2.1-1.6c-0.2-0.5-0.4-1.1-0.5-1.7
				c-0.2,0.5-0.3,0.9-0.3,1.3c-0.1,0-0.3,0.1-0.5,0.3c-0.3,0.2-0.6,0.3-0.8,0.4c-0.6-0.4-1-0.9-1.2-1.5c-0.1-0.2-0.1-0.8-0.1-1.7
				l0-2.8c0.5,0,1,0,1.3,0.1c-0.9-2.9-1.4-4.7-1.4-5.4c0-0.3,0-0.4,0-0.5c-0.1,0.1-0.3,0.1-0.5,0.2c-1.2,0.4-1.8,0.6-1.8,0.6h-0.1v0
				l0.4-0.3l0.3-1.3c-0.5-1.7-0.9-3.2-1.3-4.4c0.1-2.3,0.5-3.5,1.2-3.3c0.5,0.1,0.8,0.6,1,1.7c1.1-1.4,1.7-1.1,1.7,1
				c0,0.1,0,0.3,0,0.4c-0.6,0.2-0.9,0.8-0.9,1.6C186.8,308.4,186.8,308.7,187,309z M184.2,339c0.1,0.1,0.1,0.2,0.2,0.4
				c-0.3-0.2-0.6-0.4-0.9-0.7c0-0.4,0-0.7,0-1C183.8,338,184,338.5,184.2,339z"/>
		</g>
	</g>
	<g>
		<path fill-rule="evenodd" clip-rule="evenodd" fill="#FFFFFF" d="M169.8,71.6c0-1.6,1.9-2.2,5.7-2c3.7,0.3,5.6,1.2,5.6,2.8
			c0,0.5-0.1,0.9-0.5,1.3c-0.4,0.4-0.8,0.6-1.4,0.6c-0.3,0-1.2-0.1-2.7-0.4c-0.2,0-0.4-0.1-0.5-0.1c-0.4-1-1-1.5-2-1.6
			c-0.9-0.1-1.4,0.3-1.5,1.3c-0.3-0.1-0.7-0.2-1-0.3c-0.6-0.4-1-0.7-1.3-0.9C170,72.1,169.8,71.9,169.8,71.6z M172.5,76.3
			c1,0,1.7-0.1,2-0.5c0.1-0.1,0.2-0.3,0.3-0.6c0.3,0,0.5-0.1,0.7-0.3c0,0,0.1,0,0.1,0c-0.1,0.6-0.4,1-1,1.3
			c-0.4,0.2-0.8,0.3-1.1,0.3c-0.4,0-0.8,0-1.2-0.1C172.4,76.3,172.4,76.3,172.5,76.3z M166.7,77.4c-1.5,0-2.4-0.3-2.8-0.8
			c-0.1-0.1-0.2-0.5-0.2-1c0-1.4,1-2.1,2.9-2.2c1.9-0.1,2.8,0.6,2.8,2.1C169.5,76.8,168.6,77.4,166.7,77.4z M188.8,78
			c0.2,0.3,0.3,0.6,0.3,1c0,0.6-0.5,1.2-1.3,1.7c-0.7,0.4-1.3,0.6-1.8,0.6c-1,0-1.7-0.3-2-0.8c-0.1-0.2-0.2-0.5-0.2-1
			c0-0.6,0.1-1.1,0.4-1.5c-0.3-0.2-0.5-0.5-0.8-0.8c-0.4-0.6-0.7-1.2-0.7-1.9c0-1.7,1-2.2,3.2-1.4c2.1,0.8,3.1,1.8,3.1,2.9
			C189,77.4,189,77.7,188.8,78z"/>
	</g>
</g>
</svg>
