<?xml version="1.0" encoding="utf-8"?>
<!-- Generator: Adobe Illustrator 16.0.0, SVG Export Plug-In . SVG Version: 6.00 Build 0)  -->
<!DOCTYPE svg PUBLIC "-//W3C//DTD SVG 1.1//EN" "http://www.w3.org/Graphics/SVG/1.1/DTD/svg11.dtd">
<svg version="1.1" id="Layer_1" xmlns="http://www.w3.org/2000/svg" xmlns:xlink="http://www.w3.org/1999/xlink" x="0px" y="0px"
	 width="58px" height="205px" viewBox="0 0 58 205" enable-background="new 0 0 58 205" xml:space="preserve">
<g>
	<g>
		
			<radialGradient id="SVGID_1_" cx="38.3496" cy="94.3999" r="4.0875" gradientTransform="matrix(1 0 0 44.2997 0 -4087.4868)" gradientUnits="userSpaceOnUse">
			<stop  offset="0" style="stop-color:#FFFFFF"/>
			<stop  offset="0.8941" style="stop-color:#CDCCCB"/>
		</radialGradient>
		<path fill-rule="evenodd" clip-rule="evenodd" fill="url(#SVGID_1_)" d="M43.1,180.6C43.1,180.6,43,180.5,43.1,180.6
			c-0.3-1.2-0.3-0.9,0,0.7c-2.8,1.5-5.6,1.5-8.4,0c0.3-3.4,0.5-6.3,0.5-8.8h0v-161h7.4v157.9l0.1,0
			C42.8,171.1,42.9,174.9,43.1,180.6z"/>
		
			<radialGradient id="SVGID_2_" cx="38.5996" cy="190.1504" r="20.8875" gradientTransform="matrix(1 0 0 0.8157 0 35.0487)" gradientUnits="userSpaceOnUse">
			<stop  offset="0" style="stop-color:#FFFFFF"/>
			<stop  offset="0.4941" style="stop-color:#CDCCCB"/>
			<stop  offset="0.9373" style="stop-color:#FFFFFF"/>
		</radialGradient>
		<path fill-rule="evenodd" clip-rule="evenodd" fill="url(#SVGID_2_)" d="M34.7,181.3c2.8,1.5,5.6,1.5,8.4,0
			c-0.3-1.6-0.3-1.8,0-0.8c0,0,0,0.1,0,0.1c0.2,1,0.5,1.8,0.9,2.2c0.3,0.5,0.5,0.7,0.5,0.8c1.2,1.7,2.1,2.9,2.5,3.8
			c0.5,1,0.8,2,0.8,3.1c0,2.5-0.8,4.6-2.5,6.3c-1.6,1.7-3.6,2.6-6,2.6c-2.4,0-4.4-0.9-6-2.6c-1.7-1.7-2.5-3.8-2.5-6.3
			c0-2.3,0.7-4.2,2.1-5.9c0.2-0.3,0.4-0.5,0.5-0.6c0.1-0.1,0.3-0.5,0.6-1S34.6,181.8,34.7,181.3z"/>
		
			<path fill-rule="evenodd" clip-rule="evenodd" fill="none" stroke="#A7A7A3" stroke-linecap="round" stroke-linejoin="round" stroke-miterlimit="3" d="
			M35.3,172.4v-161h7.4v157.9l0.1,0c0.1,1.9,0.2,5.7,0.3,11.4c0.2,1,0.5,1.8,0.9,2.2c0.3,0.5,0.5,0.7,0.5,0.8
			c1.2,1.7,2.1,2.9,2.5,3.8c0.5,1,0.8,2,0.8,3.1c0,2.5-0.8,4.6-2.5,6.3c-1.6,1.7-3.6,2.6-6,2.6c-2.4,0-4.4-0.9-6-2.6
			c-1.7-1.7-2.5-3.8-2.5-6.3c0-2.3,0.7-4.2,2.1-5.9c0.2-0.3,0.4-0.5,0.5-0.6c0.1-0.1,0.3-0.5,0.6-1s0.5-1.1,0.7-1.7
			C35,177.8,35.2,174.9,35.3,172.4"/>
	</g>
</g>
</svg>
