<?xml version="1.0" encoding="utf-8"?>
<!-- Generator: Adobe Illustrator 16.0.0, SVG Export Plug-In . SVG Version: 6.00 Build 0)  -->
<!DOCTYPE svg PUBLIC "-//W3C//DTD SVG 1.1//EN" "http://www.w3.org/Graphics/SVG/1.1/DTD/svg11.dtd">
<svg version="1.1" id="Layer_1" xmlns="http://www.w3.org/2000/svg" xmlns:xlink="http://www.w3.org/1999/xlink" x="0px" y="0px"
	 width="58px" height="205px" viewBox="0 0 58 205" enable-background="new 0 0 58 205" xml:space="preserve">
<g>
	<g>
		
			<radialGradient id="SVGID_1_" cx="15.4502" cy="94.2998" r="4.0875" gradientTransform="matrix(1 0 0 44.2997 0 -4083.1528)" gradientUnits="userSpaceOnUse">
			<stop  offset="0" style="stop-color:#FFFFFF"/>
			<stop  offset="0.8941" style="stop-color:#CDCCCB"/>
		</radialGradient>
		<path fill-rule="evenodd" clip-rule="evenodd" fill="url(#SVGID_1_)" d="M20.2,180.5C20.2,180.5,20.1,180.4,20.2,180.5
			c-0.3-1.2-0.3-0.9,0,0.7c-2.8,1.5-5.6,1.5-8.4,0c0.3-3.4,0.5-6.4,0.6-8.9h0v-161h7.4v157.8l0.1,0C19.9,171,20,174.8,20.2,180.5z"
			/>
		
			<radialGradient id="SVGID_2_" cx="15.7002" cy="190.0498" r="20.8875" gradientTransform="matrix(1 0 0 0.8157 0 35.0301)" gradientUnits="userSpaceOnUse">
			<stop  offset="0" style="stop-color:#FFFFFF"/>
			<stop  offset="0.4941" style="stop-color:#CDCCCB"/>
			<stop  offset="0.9373" style="stop-color:#FFFFFF"/>
		</radialGradient>
		<path fill-rule="evenodd" clip-rule="evenodd" fill="url(#SVGID_2_)" d="M11.8,181.2c2.8,1.5,5.6,1.5,8.4,0
			c-0.3-1.6-0.3-1.8-0.1-0.8c0,0,0,0.1,0.1,0.1c0.2,1,0.5,1.7,0.9,2.2c0.3,0.5,0.5,0.7,0.5,0.8c1.2,1.7,2.1,2.9,2.5,3.8
			c0.5,1,0.8,2.1,0.8,3.1c0,2.5-0.8,4.6-2.5,6.4c-1.6,1.7-3.6,2.5-5.9,2.5c-2.4,0-4.4-0.9-6-2.5c-1.7-1.8-2.5-3.9-2.5-6.4
			c0-2.3,0.7-4.2,2.1-5.8c0.2-0.3,0.4-0.5,0.5-0.7c0.1-0.1,0.3-0.4,0.6-1C11.5,182.3,11.7,181.7,11.8,181.2z"/>
		
			<path fill-rule="evenodd" clip-rule="evenodd" fill="none" stroke="#A7A7A3" stroke-linecap="round" stroke-linejoin="round" stroke-miterlimit="3" d="
			M12.4,172.3v-161h7.4v157.8l0.1,0c0.1,2,0.2,5.8,0.4,11.5c0.2,1,0.5,1.7,0.9,2.2c0.3,0.5,0.5,0.7,0.5,0.8c1.2,1.7,2.1,2.9,2.5,3.8
			c0.5,1,0.8,2.1,0.8,3.1c0,2.5-0.8,4.6-2.5,6.4c-1.6,1.7-3.6,2.5-5.9,2.5c-2.4,0-4.4-0.9-6-2.5c-1.7-1.8-2.5-3.9-2.5-6.4
			c0-2.3,0.7-4.2,2.1-5.8c0.2-0.3,0.4-0.5,0.5-0.7c0.1-0.1,0.3-0.4,0.6-1c0.3-0.6,0.5-1.1,0.6-1.7C12.1,177.7,12.3,174.8,12.4,172.3
			"/>
	</g>
</g>
</svg>
