<?xml version="1.0" encoding="utf-8"?>
<!-- Generator: Adobe Illustrator 16.0.0, SVG Export Plug-In . SVG Version: 6.00 Build 0)  -->
<!DOCTYPE svg PUBLIC "-//W3C//DTD SVG 1.1//EN" "http://www.w3.org/Graphics/SVG/1.1/DTD/svg11.dtd">
<svg version="1.1" id="Layer_1" xmlns="http://www.w3.org/2000/svg" xmlns:xlink="http://www.w3.org/1999/xlink" x="0px" y="0px"
	 width="58px" height="205px" viewBox="0 0 58 205" enable-background="new 0 0 58 205" xml:space="preserve">
<g>
	<g>
		
			<radialGradient id="SVGID_1_" cx="26.7998" cy="89.0498" r="4.0875" gradientTransform="matrix(1 0 0 44.2997 0 -3855.8293)" gradientUnits="userSpaceOnUse">
			<stop  offset="0" style="stop-color:#FFFFFF"/>
			<stop  offset="0.8941" style="stop-color:#CDCCCB"/>
		</radialGradient>
		<path fill-rule="evenodd" clip-rule="evenodd" fill="url(#SVGID_1_)" d="M31.5,175.3L31.5,175.3c-0.3-1.1-0.3-0.9,0,0.7
			c-2.8,1.5-5.6,1.5-8.4,0c0.3-3.4,0.5-6.4,0.6-8.9h0V6h7.3v157.9l0.1-0.1C31.3,165.8,31.4,169.6,31.5,175.3z"/>
		
			<radialGradient id="SVGID_2_" cx="27.0498" cy="184.7998" r="20.8875" gradientTransform="matrix(1 0 0 0.8157 0 34.0624)" gradientUnits="userSpaceOnUse">
			<stop  offset="0" style="stop-color:#FFFFFF"/>
			<stop  offset="0.4941" style="stop-color:#CDCCCB"/>
			<stop  offset="0.9373" style="stop-color:#FFFFFF"/>
		</radialGradient>
		<path fill-rule="evenodd" clip-rule="evenodd" fill="url(#SVGID_2_)" d="M23.1,175.9c2.8,1.5,5.6,1.5,8.4,0
			c-0.3-1.5-0.3-1.8,0-0.7l0,0c0.3,1,0.6,1.8,0.9,2.2c0.4,0.5,0.5,0.7,0.5,0.8c1.2,1.7,2.1,2.9,2.5,3.8c0.5,1,0.8,2,0.8,3.1
			c0,2.5-0.8,4.6-2.5,6.3c-1.6,1.7-3.6,2.6-6,2.6c-2.3,0-4.3-0.9-6-2.6c-1.7-1.7-2.5-3.8-2.5-6.3c0-2.3,0.7-4.2,2.1-5.8
			c0.2-0.3,0.4-0.5,0.5-0.7c0.1-0.1,0.3-0.5,0.6-1C22.8,177.1,23,176.5,23.1,175.9z"/>
		
			<path fill-rule="evenodd" clip-rule="evenodd" fill="none" stroke="#A7A7A3" stroke-linecap="round" stroke-linejoin="round" stroke-miterlimit="3" d="
			M23.8,167V6h7.3v157.9l0.1-0.1c0.1,1.9,0.2,5.7,0.3,11.4c0.3,1,0.6,1.8,0.9,2.2c0.4,0.5,0.5,0.7,0.5,0.8c1.2,1.7,2.1,2.9,2.5,3.8
			c0.5,1,0.8,2,0.8,3.1c0,2.5-0.8,4.6-2.5,6.3c-1.6,1.7-3.6,2.6-6,2.6c-2.3,0-4.3-0.9-6-2.6c-1.7-1.7-2.5-3.8-2.5-6.3
			c0-2.3,0.7-4.2,2.1-5.8c0.2-0.3,0.4-0.5,0.5-0.7c0.1-0.1,0.3-0.5,0.6-1c0.3-0.5,0.5-1.1,0.6-1.7C23.4,172.5,23.6,169.5,23.8,167"
			/>
	</g>
</g>
</svg>
