<?xml version="1.0" encoding="utf-8"?>
<!-- Generator: Adobe Illustrator 16.0.0, SVG Export Plug-In . SVG Version: 6.00 Build 0)  -->
<!DOCTYPE svg PUBLIC "-//W3C//DTD SVG 1.1//EN" "http://www.w3.org/Graphics/SVG/1.1/DTD/svg11.dtd">
<svg version="1.1" id="Layer_1" xmlns="http://www.w3.org/2000/svg" xmlns:xlink="http://www.w3.org/1999/xlink" x="0px" y="0px"
	 width="58px" height="205px" viewBox="0 0 58 205" enable-background="new 0 0 58 205" xml:space="preserve">
<g>
	<g>
		
			<radialGradient id="SVGID_1_" cx="32.6504" cy="94.7998" r="4.0875" gradientTransform="matrix(1 0 0 44.2997 0 -4104.8027)" gradientUnits="userSpaceOnUse">
			<stop  offset="0" style="stop-color:#FFFFFF"/>
			<stop  offset="0.8941" style="stop-color:#CDCCCB"/>
		</radialGradient>
		<path fill-rule="evenodd" clip-rule="evenodd" fill="url(#SVGID_1_)" d="M37.4,180.9c-0.3-1.1-0.3-0.8,0,0.8
			c-2.8,1.5-5.6,1.5-8.4,0c0.2-3.4,0.4-6.4,0.5-8.9l0.1-161H37v157.8l0.1,0C37.1,171.5,37.2,175.3,37.4,180.9z"/>
		
			<radialGradient id="SVGID_2_" cx="32.9004" cy="190.5498" r="20.8875" gradientTransform="matrix(1 0 0 0.8157 0 35.1223)" gradientUnits="userSpaceOnUse">
			<stop  offset="0" style="stop-color:#FFFFFF"/>
			<stop  offset="0.4941" style="stop-color:#CDCCCB"/>
			<stop  offset="0.9373" style="stop-color:#FFFFFF"/>
		</radialGradient>
		<path fill-rule="evenodd" clip-rule="evenodd" fill="url(#SVGID_2_)" d="M29,181.7c2.8,1.5,5.6,1.5,8.4,0c-0.3-1.6-0.3-1.8,0-0.8
			c0,0,0,0.1,0,0.1c0.3,1,0.6,1.7,0.9,2.2c0.4,0.5,0.6,0.7,0.6,0.8c1.2,1.7,2,2.9,2.4,3.8c0.5,1,0.8,2.1,0.8,3.1
			c0,2.5-0.8,4.6-2.5,6.4c-1.7,1.7-3.7,2.5-6,2.5c-2.3,0-4.3-0.9-6-2.5c-1.7-1.8-2.5-3.9-2.5-6.4c0-2.3,0.7-4.2,2.1-5.8
			c0.2-0.3,0.4-0.5,0.5-0.7c0.1-0.1,0.3-0.4,0.6-1C28.7,182.8,28.9,182.3,29,181.7z"/>
		
			<path fill-rule="evenodd" clip-rule="evenodd" fill="none" stroke="#A7A7A3" stroke-linecap="round" stroke-linejoin="round" stroke-miterlimit="3" d="
			M29,181.7c0.2-3.4,0.4-6.4,0.5-8.9l0.1-161H37v157.8l0.1,0c0.1,2,0.2,5.7,0.4,11.4c0,0,0,0.1,0,0.1c0.3,1,0.6,1.7,0.9,2.2
			c0.4,0.5,0.6,0.7,0.6,0.8c1.2,1.7,2,2.9,2.4,3.8c0.5,1,0.8,2.1,0.8,3.1c0,2.5-0.8,4.6-2.5,6.4c-1.7,1.7-3.7,2.5-6,2.5
			c-2.3,0-4.3-0.9-6-2.5c-1.7-1.8-2.5-3.9-2.5-6.4c0-2.3,0.7-4.2,2.1-5.8c0.2-0.3,0.4-0.5,0.5-0.7c0.1-0.1,0.3-0.4,0.6-1
			C28.7,182.8,28.9,182.3,29,181.7z"/>
	</g>
</g>
</svg>
