<?xml version="1.0" encoding="utf-8"?>
<!-- Generator: Adobe Illustrator 16.0.0, SVG Export Plug-In . SVG Version: 6.00 Build 0)  -->
<!DOCTYPE svg PUBLIC "-//W3C//DTD SVG 1.1//EN" "http://www.w3.org/Graphics/SVG/1.1/DTD/svg11.dtd">
<svg version="1.1" id="Layer_1" xmlns="http://www.w3.org/2000/svg" xmlns:xlink="http://www.w3.org/1999/xlink" x="0px" y="0px"
	 width="22.7px" height="45.9px" viewBox="0 0 22.7 45.9" enable-background="new 0 0 22.7 45.9" xml:space="preserve">
<g>
	<g>
		
			<radialGradient id="SVGID_1_" cx="349.8018" cy="-468.1992" r="7.7877" gradientTransform="matrix(0.9374 0.3483 -0.6276 0.9229 -606.3654 328.653)" gradientUnits="userSpaceOnUse">
			<stop  offset="0" style="stop-color:#010101;stop-opacity:0.4471"/>
			<stop  offset="1" style="stop-color:#010101;stop-opacity:0"/>
		</radialGradient>
		<path fill="url(#SVGID_1_)" d="M14.9,11.2c0.2,0,0.4-0.1,0.6-0.1c1.8-0.3,3.4-0.2,4.9,0.4c1.6,0.6,2.5,1.5,2.8,2.8
			s-0.1,2.5-1.4,3.8c-1,1-2.3,1.7-3.8,2.1c-0.4,0.5-0.7,0.9-0.9,1.3c0.2,0.5,0,1-0.4,1.6c-0.5,0.6-1.3,1.1-2.3,1.4
			c-1,0.3-1.9,0.3-2.8,0c-0.9-0.2-1.5-0.6-1.8-1.3c-0.3-0.6-0.2-1.3,0.4-1.8c0-0.1,0.1-0.2,0.3-0.3l0.2-1.4c-1-0.5-1.6-1.1-1.9-2
			c0-0.1-0.1-0.2-0.1-0.3c-0.1-0.5-0.1-1,0-1.5c0.2-0.7,0.6-1.4,1.3-2.2c0.8-0.8,1.7-1.3,2.7-1.8C13.4,11.6,14.1,11.4,14.9,11.2z"/>
	</g>
	<g>
		<path fill="#010101" d="M8.3,20.7c0.1-0.9,0.5-1.6,1.3-2.3c0.8-0.6,1.6-0.8,2.6-0.8c1,0.1,1.8,0.5,2.3,1.3
			c0.6,0.8,0.9,1.6,0.8,2.5c-0.1,0.9-0.6,1.7-1.4,2.3c-0.7,0.6-1.6,0.8-2.5,0.8c-1-0.1-1.8-0.5-2.4-1.4C8.4,22.5,8.2,21.7,8.3,20.7z
			"/>
	</g>
	<g>
		
			<linearGradient id="SVGID_2_" gradientUnits="userSpaceOnUse" x1="-675.8335" y1="321.0327" x2="-666.801" y2="321.0327" gradientTransform="matrix(-0.977 -0.2131 -0.2498 0.969 -564.2267 -434.2062)">
			<stop  offset="0" style="stop-color:#2D3E46"/>
			<stop  offset="0.4392" style="stop-color:#628896"/>
			<stop  offset="1" style="stop-color:#2B3C42"/>
		</linearGradient>
		<path fill="url(#SVGID_2_)" d="M15.8,17.6c0.3-0.1,0.5-0.2,0.7-0.3l-2,4.9v0.1c-0.5,0.7-1.2,1.2-2,1.3c-0.9,0.2-1.6,0-2.3-0.5
			s-1.2-1.2-1.3-2c0-0.3,0-0.6,0-1c0-1,0-2.5,0.1-4.5l0,0c0.4,0.5,0.9,1,1.5,1.4c0.3,0.2,0.6,0.3,1,0.4c0.7,0.4,1.5,0.5,2.3,0.5
			c0.4,0,0.8,0,1.3-0.1C15.3,17.8,15.6,17.7,15.8,17.6z"/>
	</g>
	<g>
		
			<radialGradient id="SVGID_3_" cx="232.5762" cy="-185.1665" r="8.2761" gradientTransform="matrix(1 0 0 -1 -220.96 -174.7861)" gradientUnits="userSpaceOnUse">
			<stop  offset="0" style="stop-color:#D2D9DC"/>
			<stop  offset="0.251" style="stop-color:#96A6AD"/>
			<stop  offset="0.5882" style="stop-color:#6A828B"/>
			<stop  offset="1" style="stop-color:#47636D"/>
		</radialGradient>
		<path fill="url(#SVGID_3_)" d="M16.8,6.3c1.6,1.1,2.6,2.5,3,4.4c0.4,1.9,0,3.6-1,5.2c-1.1,1.6-2.5,2.6-4.4,3c-1.8,0.4-3.6,0-5.2-1
			c-1.6-1-2.5-2.5-2.9-4.4c-0.4-1.8,0-3.5,1-5.2c1.1-1.6,2.5-2.6,4.4-2.9C13.5,4.9,15.3,5.2,16.8,6.3z"/>
	</g>
</g>
</svg>
