<?xml version="1.0" encoding="utf-8"?>
<!-- Generator: Adobe Illustrator 16.0.0, SVG Export Plug-In . SVG Version: 6.00 Build 0)  -->
<!DOCTYPE svg PUBLIC "-//W3C//DTD SVG 1.1//EN" "http://www.w3.org/Graphics/SVG/1.1/DTD/svg11.dtd">
<svg version="1.1" id="Layer_1" xmlns="http://www.w3.org/2000/svg" xmlns:xlink="http://www.w3.org/1999/xlink" x="0px" y="0px"
	 width="22.7px" height="45.9px" viewBox="0 0 22.7 45.9" enable-background="new 0 0 22.7 45.9" xml:space="preserve">
<g>
	<g>
		
			<radialGradient id="SVGID_1_" cx="233.3438" cy="-261.2837" r="8.5625" gradientTransform="matrix(1 0 0 -1.3051 -220.96 -312.5486)" gradientUnits="userSpaceOnUse">
			<stop  offset="0" style="stop-color:#010101;stop-opacity:0.4471"/>
			<stop  offset="1" style="stop-color:#010101;stop-opacity:0"/>
		</radialGradient>
		<path fill="url(#SVGID_1_)" d="M15.2,20.5c0.8,0.8,1.3,1.7,1.4,2.7c0.1,0.9-0.1,1.6-0.6,2.2c0,0.6,0,1.2,0,2
			c1.1,1.3,1.8,2.8,2.2,4.4c0.4,2,0,3.8-1.1,5.3c-1.1,1.5-2.5,2.2-4.5,2.2c-1.7,0-3.3-0.6-4.8-1.8c-0.2-0.2-0.3-0.3-0.5-0.5
			c-0.6-0.6-1.2-1.2-1.6-1.8c-0.7-1-1.1-2.2-1.4-3.4c-0.3-1.2-0.2-2.3,0.1-3.3c0.2-0.7,0.5-1.3,1-2c0.1-0.1,0.2-0.3,0.3-0.3
			c0.8-0.9,1.8-1.5,3-1.7l0.7-1.7c-0.1-0.1-0.1-0.3-0.1-0.4c-0.1-1,0.2-1.8,0.9-2.5c0.6-0.7,1.5-0.9,2.5-0.8
			C13.7,19.3,14.5,19.8,15.2,20.5z"/>
	</g>
	<g>
		<path fill="#010101" d="M7.7,22.2c0.1-0.9,0.5-1.7,1.3-2.3c0.8-0.6,1.6-0.9,2.6-0.8s1.8,0.6,2.4,1.3c0.6,0.8,0.9,1.6,0.8,2.5
			c-0.1,0.9-0.6,1.7-1.4,2.3c-0.7,0.6-1.6,0.8-2.6,0.8c-1-0.1-1.8-0.5-2.4-1.3C7.8,24,7.6,23.1,7.7,22.2z"/>
	</g>
	<g>
		
			<linearGradient id="SVGID_2_" gradientUnits="userSpaceOnUse" x1="227.999" y1="-196.7778" x2="236.3495" y2="-200.4279" gradientTransform="matrix(1 0 0 -1 -220.96 -174.7861)">
			<stop  offset="0" style="stop-color:#2D3E46"/>
			<stop  offset="0.4392" style="stop-color:#628896"/>
			<stop  offset="1" style="stop-color:#2B3C42"/>
		</linearGradient>
		<path fill="url(#SVGID_2_)" d="M13.2,20.9c0.6,0.6,0.9,1.4,0.9,2.2c-0.1,0.2-0.1,0.6-0.2,1.1c-0.2,1-0.5,2.5-0.9,4.4
			c0,0,0,0,0-0.1c-0.3-0.6-0.7-1.1-1.2-1.5c-0.3-0.3-0.5-0.5-0.8-0.7c-0.7-0.5-1.4-0.8-2.3-0.9c-0.4-0.1-0.8-0.1-1.3-0.1
			c-0.3,0-0.6,0-0.9,0.1c-0.3,0-0.5,0-0.6,0.1L8.7,21l0,0c0.6-0.6,1.4-1,2.2-1C11.8,20,12.5,20.3,13.2,20.9z"/>
	</g>
	<g>
		
			<radialGradient id="SVGID_3_" cx="227.7939" cy="-203.8936" r="8.2748" gradientTransform="matrix(1 0 0 -1 -220.96 -174.7861)" gradientUnits="userSpaceOnUse">
			<stop  offset="0" style="stop-color:#D2D9DC"/>
			<stop  offset="0.251" style="stop-color:#96A6AD"/>
			<stop  offset="0.5882" style="stop-color:#6A828B"/>
			<stop  offset="1" style="stop-color:#47636D"/>
		</radialGradient>
		<path fill="url(#SVGID_3_)" d="M7.8,37.9c-1.9,0-3.5-0.7-4.9-2.1c-1.3-1.3-2-2.9-2-4.8c0-1.9,0.7-3.5,2-4.9c1.4-1.4,3-2,4.9-2
			c1.9,0,3.5,0.7,4.9,2c1.4,1.4,2,3,2,4.9c0,1.9-0.7,3.5-2,4.8C11.4,37.2,9.8,37.9,7.8,37.9z"/>
	</g>
</g>
</svg>
