<?xml version="1.0" encoding="utf-8"?>
<!-- Generator: Adobe Illustrator 16.0.0, SVG Export Plug-In . SVG Version: 6.00 Build 0)  -->
<!DOCTYPE svg PUBLIC "-//W3C//DTD SVG 1.1//EN" "http://www.w3.org/Graphics/SVG/1.1/DTD/svg11.dtd">
<svg version="1.1" id="Layer_1" xmlns="http://www.w3.org/2000/svg" xmlns:xlink="http://www.w3.org/1999/xlink" x="0px" y="0px"
	 width="700px" height="700px" viewBox="0 0 700 700" enable-background="new 0 0 700 700" xml:space="preserve">
<g>
	<g>
		<g>
			<path fill-rule="evenodd" clip-rule="evenodd" fill="#79CAFF" fill-opacity="0.6039" d="M385.8,335.5c0-0.2,0-0.4,0-0.6H622
				c0,0.2,0,0.4,0,0.6c-0.3,1.6-1.2,3.2-2.7,4.7c-6.1,2.9-14.4,5.5-24.8,8c-3.3,0.8-6.6,1.5-10,2.1c-0.6,0.2-1.3,0.3-1.9,0.5
				c-22.1,5.1-48.7,7.6-80,7.6s-58-2.5-80-7.6c-5-1.1-9.4-2.3-13.3-3.6c-8.4-2.1-15.2-4.4-20.4-6.9c-0.1,0-0.1-0.1-0.2-0.1
				C387,338.7,386.1,337.1,385.8,335.5z"/>
		</g>
	</g>
	<g>
		<g>
			<g>
				<linearGradient id="SVGID_1_" gradientUnits="userSpaceOnUse" x1="358.5498" y1="330.7002" x2="649.5498" y2="330.7002">
					<stop  offset="1.960784e-002" style="stop-color:#716A6B"/>
					<stop  offset="0.4392" style="stop-color:#A39DA1"/>
					<stop  offset="0.9725" style="stop-color:#777273"/>
				</linearGradient>
				<path fill-rule="evenodd" clip-rule="evenodd" fill="url(#SVGID_1_)" d="M649.5,331c0-0.2,0-0.4,0-0.6h0.1
					C649.5,330.6,649.5,330.8,649.5,331z M358.7,330.4c0,0.2-0.1,0.4-0.1,0.6c0-0.2,0-0.4,0-0.6H358.7z"/>
				<radialGradient id="SVGID_2_" cx="506.0254" cy="330.9502" r="144.2229" gradientUnits="userSpaceOnUse">
					<stop  offset="1.176471e-002" style="stop-color:#AEA6A4"/>
					<stop  offset="0.4706" style="stop-color:#F0F0F2"/>
					<stop  offset="1" style="stop-color:#6E6869"/>
				</radialGradient>
				<path fill-rule="evenodd" clip-rule="evenodd" fill="url(#SVGID_2_)" d="M649.5,330.4c0,0.2,0,0.4,0,0.6
					c-0.3,2.8-1.4,5.5-3.5,8.1c-0.2,0.2-0.3,0.3-0.5,0.5c-0.8,0.9-1.6,1.7-2.5,2.6c-6.8,5.9-18.8,11.2-36.1,16
					C578.5,366,544.3,370,504,370c-40.2,0-74.5-3.9-102.9-11.8c-19.7-5.4-32.6-11.6-38.6-18.6c0-0.5,0-1.1,0-1.6
					c0-2.6,0.1-5.1,0.2-7.6h13c0,0.1,0,0.1,0,0.1c0.7,4.8,5.7,9.1,14.8,13.1c4.6,2,10.4,3.9,17.3,5.7c0.4,0.1,0.9,0.2,1.4,0.4
					c3.9,1.2,8.3,2.4,13.3,3.6c22.1,5.1,48.8,7.6,80,7.6s57.9-2.5,80-7.6c0.6-0.1,1.2-0.3,1.8-0.4c0,0,0.1,0,0.1,0
					c3.4-0.7,6.8-1.4,10-2.2c23.8-5.6,36.3-12.2,37.5-20c0,0,0-0.1,0-0.1H649.5z"/>
				<linearGradient id="SVGID_3_" gradientUnits="userSpaceOnUse" x1="375.7998" y1="345.5996" x2="632" y2="345.5996">
					<stop  offset="1.960784e-002" style="stop-color:#6F6067"/>
					<stop  offset="0.2275" style="stop-color:#A39A99"/>
					<stop  offset="0.6627" style="stop-color:#BDBBBB"/>
					<stop  offset="1" style="stop-color:#514D4D"/>
				</linearGradient>
				<path fill-rule="evenodd" clip-rule="evenodd" fill="url(#SVGID_3_)" d="M632,330.4c0,0.1,0,0.1,0,0.1
					c-1.2,7.8-13.7,14.5-37.5,20c-3.3,0.8-6.6,1.5-10,2.2c0,0-0.1,0-0.1,0c-0.6,0.1-1.2,0.3-1.8,0.4c-22.1,5.1-48.7,7.6-80,7.6
					s-58-2.5-80-7.6c-5-1.1-9.4-2.3-13.3-3.6c-0.5-0.1-0.9-0.3-1.4-0.4c-6.9-1.8-12.6-3.7-17.3-5.7c-9.1-3.9-14.1-8.3-14.8-13.1
					c0,0,0-0.1,0-0.1h0.8c2.9,6.4,13.8,12,32.7,16.8c3.9,1.2,8.3,2.4,13.3,3.6c22.1,5.1,48.8,7.6,80,7.6s57.9-2.5,80-7.6
					c0.6-0.1,1.3-0.3,1.9-0.5c3.4-0.7,6.8-1.4,10-2.1c21.3-5,33.6-10.9,36.8-17.7H632z"/>
				<path fill-rule="evenodd" clip-rule="evenodd" fill="#716A6B" d="M362.2,339.1c-2.1-2.6-3.3-5.4-3.6-8.1c0-0.2,0.1-0.4,0.1-0.6
					h4c-0.1,2.5-0.2,5.1-0.2,7.6c0,0.5,0,1,0,1.6C362.4,339.4,362.3,339.3,362.2,339.1z"/>
				<linearGradient id="SVGID_4_" gradientUnits="userSpaceOnUse" x1="360.5752" y1="355.6504" x2="616.7252" y2="355.6504">
					<stop  offset="1.960784e-002" style="stop-color:#6F6067"/>
					<stop  offset="0.2275" style="stop-color:#A39A99"/>
					<stop  offset="0.6627" style="stop-color:#BDBBBB"/>
					<stop  offset="1" style="stop-color:#514D4D"/>
				</linearGradient>
				<path fill-rule="evenodd" clip-rule="evenodd" fill="url(#SVGID_4_)" d="M362.5,339.6c6,7,18.9,13.1,38.6,18.6
					C429.6,366,463.9,370,504,370c40.2,0,74.5-3.9,102.9-11.8c17.3-4.7,29.3-10.1,36.1-16c0.9-0.9,1.8-1.7,2.5-2.6
					c0.1-0.2,0.3-0.3,0.5-0.5l-0.5,3.3c0-0.2,0-0.3,0-0.5c-0.4,0.5-0.9,1-1.3,1.4c-6.5,6.3-18.7,12-36.7,17c-0.2,0-0.5,0.1-0.6,0.2
					c-28.4,7.9-62.7,11.8-102.9,11.8c-40.2,0-74.5-3.9-102.9-11.8c-0.2-0.1-0.4-0.1-0.6-0.2h0c-19.3-5.4-32-11.5-38-18.4l-0.3-2.5
					l-0.1-0.2C362.3,339.3,362.4,339.4,362.5,339.6z"/>
				
					<radialGradient id="SVGID_5_" cx="492.9502" cy="386.7998" r="193.9875" gradientTransform="matrix(1 0 0 0.6879 0 120.7083)" gradientUnits="userSpaceOnUse">
					<stop  offset="0" style="stop-color:#FFFFFF"/>
					<stop  offset="0.502" style="stop-color:#D0D6D9"/>
					<stop  offset="1" style="stop-color:#C5C5C6"/>
				</radialGradient>
				<path fill-rule="evenodd" clip-rule="evenodd" fill="url(#SVGID_5_)" d="M362.6,341.9c6,6.9,18.6,13,38,18.4h0
					c0.2,0,0.4,0.1,0.6,0.2c28.4,7.9,62.7,11.8,102.9,11.8c40.2,0,74.5-3.9,102.9-11.8c0.2-0.1,0.4-0.1,0.6-0.2
					c18-5,30.2-10.6,36.7-17c0.5-0.5,0.9-0.9,1.3-1.4c0,0.2,0,0.3,0,0.5c-1,38.2-14.8,70.8-41.5,98c-27.6,28.4-60.9,42.7-100,42.7
					c-39.1,0-72.4-14.2-100-42.7c-26.5-27.1-40.3-59.6-41.3-97.5C362.6,342.5,362.6,342.2,362.6,341.9z"/>
			</g>
		</g>
		
			<radialGradient id="SVGID_6_" cx="92.7998" cy="292.2002" r="26.0327" gradientTransform="matrix(0.9334 0.335 -0.1307 0.3031 352.3775 227.5754)" gradientUnits="userSpaceOnUse">
			<stop  offset="0" style="stop-color:#FFFFFF"/>
			<stop  offset="0.1059" style="stop-color:#FFFFFF"/>
			<stop  offset="0.251" style="stop-color:#FFFFFF;stop-opacity:0.4235"/>
			<stop  offset="0.4902" style="stop-color:#FFFFFF;stop-opacity:0.2314"/>
			<stop  offset="0.651" style="stop-color:#FFFFFF;stop-opacity:8.235294e-002"/>
			<stop  offset="1" style="stop-color:#FFFFFF;stop-opacity:0"/>
		</radialGradient>
		<path fill-rule="evenodd" clip-rule="evenodd" fill="url(#SVGID_6_)" d="M420,347.8c4.2,3.3,5.8,6,4.9,8.1c-1,2.3-4.2,3.2-9.6,2.8
			c-5.3-0.1-11.2-1.3-17.9-3.7c-6.7-2.4-11.9-5.2-15.8-8.4c-4-3-5.5-5.7-4.6-8c0.9-2,4-3,9.2-2.9c5.2,0,11.2,1.2,17.8,3.6
			C410.8,341.8,416.1,344.6,420,347.8z"/>
		
			<radialGradient id="SVGID_7_" cx="92.7998" cy="292.2002" r="26.0327" gradientTransform="matrix(2.0682 -8.762088e-002 -0.189 0.2663 389.8134 297.9432)" gradientUnits="userSpaceOnUse">
			<stop  offset="0" style="stop-color:#FFFFFF"/>
			<stop  offset="0.1059" style="stop-color:#FFFFFF"/>
			<stop  offset="0.251" style="stop-color:#FFFFFF;stop-opacity:0.4235"/>
			<stop  offset="0.4902" style="stop-color:#FFFFFF;stop-opacity:0.2314"/>
			<stop  offset="0.651" style="stop-color:#FFFFFF;stop-opacity:8.235294e-002"/>
			<stop  offset="1" style="stop-color:#FFFFFF;stop-opacity:0"/>
		</radialGradient>
		<path fill-rule="evenodd" clip-rule="evenodd" fill="url(#SVGID_7_)" d="M567.3,361.3c9.7,1,14,2.3,12.7,4.1
			c-1.4,2-7.9,3.8-19.5,5.5c-11.2,1.8-24.1,3-38.9,3.7c-14.7,0.6-26.7,0.4-35.8-0.5c-9.4-0.8-13.3-2.2-12-4.2
			c1.3-1.8,7.5-3.6,18.7-5.4c11.1-1.8,24-3.1,38.6-3.7C546,360.2,558,360.3,567.3,361.3z"/>
	</g>
	
		<radialGradient id="SVGID_8_" cx="529.9531" cy="472.6221" r="140.6376" gradientTransform="matrix(1 1.155452e-003 -2.097590e-002 0.3321 -19.9394 315.6499)" gradientUnits="userSpaceOnUse">
		<stop  offset="0" style="stop-color:#FFFFFF"/>
		<stop  offset="0.2941" style="stop-color:#FFFFFF;stop-opacity:0.4235"/>
		<stop  offset="0.6706" style="stop-color:#FFFFFF;stop-opacity:0.2314"/>
		<stop  offset="1" style="stop-color:#FFFFFF;stop-opacity:0"/>
	</radialGradient>
	<path fill-rule="evenodd" clip-rule="evenodd" fill="url(#SVGID_8_)" d="M602.5,442c-27.3,27.4-60.1,41-98.5,41
		c-38.7,0-71.7-13.9-99.1-41.8c26.9-9.4,59.5-14.1,97.8-14.2c38.5,0,70.9,4.6,97.2,13.9C600.8,441.3,601.7,441.6,602.5,442z"/>
</g>
</svg>
