<?xml version="1.0" encoding="utf-8"?>
<!-- Generator: Adobe Illustrator 16.0.0, SVG Export Plug-In . SVG Version: 6.00 Build 0)  -->
<!DOCTYPE svg PUBLIC "-//W3C//DTD SVG 1.1//EN" "http://www.w3.org/Graphics/SVG/1.1/DTD/svg11.dtd">
<svg version="1.1" id="Layer_1" xmlns="http://www.w3.org/2000/svg" xmlns:xlink="http://www.w3.org/1999/xlink" x="0px" y="0px"
	 width="150px" height="330px" viewBox="0 0 150 330" enable-background="new 0 0 150 330" xml:space="preserve">
<g>
	<g>
		<path fill="#6AB3D0" d="M125.1,74.1c-1.8,0.6-3.1,1.8-3.899,3.6c-0.2,0.9-0.5,1.8-0.7,2.7c-1.2,4.6-2,9.1-2.4,13.4
			c-0.399,4.3-0.5,8.5-0.199,12.6c0,0.7,0.1,1.3,0.199,1.9c0.2,2,0.5,4,1,6c0.601,1.2,1.101,2.3,1.5,3.3c-0.8,0.5-1.6,0.9-2.399,1.1
			c-0.7,0.1-1.4,0.1-2-0.1c-1-0.2-2.101-0.7-3.101-1.5c-2-0.2-3.899-0.4-5.699-0.6c-1.5-0.2-2.801-0.4-4.101-0.5
			c-5.899-0.7-10.1-1.2-12.6-1.5c-3.8-0.5-6-0.7-6.4-0.6c-0.5,0.1-2.5,0.6-6,1.6l0,0c-3.6,1-5.5,1.5-5.7,1.6c-7,0.7-11.4,1-13.1,1
			c-2.4,0-5.5-0.3-9.5-0.9c-4-0.5-7.1-0.8-9.3-0.8c-0.2,0-1.1,0.1-2.5,0.4c-1.4,0.2-2.2,0.3-2.5,0.3c-1.9,0-5.1-1.1-9.6-3.4
			c-1-0.3-1.9-0.6-2.8-1c-0.4-0.2-0.9-0.4-1.3-0.5c-2-0.8-3.5-1.5-4.5-2.2c-0.2-0.1-0.4-0.3-0.5-0.3c-1.7-1.4-2.7-3-2.8-4.7
			c0-0.1-0.1-0.1-0.1-0.2c0-0.1,0-0.3,0-0.4c0-2.1,0.5-4.1,1.5-6c0.5-0.9,1.1-1.8,1.9-2.6c-1.8-0.2-3-0.6-3.6-1
			c-0.6-0.3-1.1-0.8-1.5-1.5c-0.1-0.2-0.2-0.5-0.4-0.8c-0.4-1-0.6-2.4-0.6-4.1c0-0.2,0-0.4,0-0.5c0.1-0.8,0.2-1.5,0.3-2.1
			c0-0.1,0-0.2,0.1-0.3c0.1-0.5,0.2-0.9,0.5-1.3c0.1-0.3,0.3-0.6,0.5-1c0.6-0.8,1.5-1.9,2.6-3.1c-2-0.5-3.3-0.9-3.8-1.3
			c-1.5-1-2.3-3-2.3-5.9c0-0.5,0-1,0-1.4c0-0.2,0-0.5,0-0.7c0-1,0.1-1.6,0.2-2c0.2-0.5,0.5-1.1,1-1.8c0.7-0.9,1.8-1.9,3.3-3.1
			c-3.3-1.2-5.6-2.4-6.9-3.4c-0.1,0-0.2-0.2-0.4-0.4c-0.1-0.2-0.3-0.4-0.5-0.6c-0.1-0.1-0.2-0.2-0.3-0.3C5.5,59.1,5.5,59,5.5,59
			c-0.4-0.4-0.7-0.9-0.9-1.6c0-0.2,0-0.7,0-1.5c0-2.7,2.9-5.9,8.5-9.4c1.5-0.9,3.1-1.8,5-2.8c0.2-0.1,0.5-0.2,0.9-0.3
			c3.4-0.7,14.6-0.8,33.6-0.1c0.3,0,0.7,0.1,1,0.1c0.1,0,0.2,0,0.3,0c-0.1-0.3-0.5-1.6-1.4-4.1c0-0.1-0.1-0.1-0.1-0.1l-0.2-0.1
			c-5.8-2.7-9.4-5-10.9-6.9c-1.5-2.1-2.7-4.2-3.5-6.3c-0.8-2.1-1.2-4.2-1.2-6.1c0-2,0.6-3.9,1.9-5.5c0.6-1.3,1.6-2,3-2.1
			c1-0.1,2.2,0.1,3.6,0.5c0.7,1,3.5,2.9,8.4,5.6c4.8,2.7,7.8,4.1,9,4.3c0.3,0,0.7,0.1,1.2,0.4c0.1-0.2,0.3-0.1,0.7,0.3
			c0.1,0.1,0.1,0.2,0.2,0.3l0.1,0.1c0,0,0,0.1,0.1,0.1l0,0c0.6,0.8,1.6,2.5,3.1,4.9c1.9,3.1,3.4,5.5,4.5,7.1
			c1.1,1.6,1.8,2.6,2.1,3.1s1.4,1.9,3.2,4.3c0.399,0.4,2.2,3.3,5.3,9c0.1,0.2,0.3,0.4,0.4,0.6c0,0,0,0,0,0.1
			c1.3,1.8,2.8,3.6,4.399,5.6c1.5,2,3.101,4.2,4.601,6.6s2.6,4,3.199,4.6c0.5,0.7,1.2,1.4,2,2.1c1.2,0.2,2.801,0.4,4.9,0.6
			c0.3,0,0.6,0,0.8,0.1c1.2,0.2,2.601,0.3,4.101,0.5c2.5,0.3,5.5,0.6,8.8,1c0.7,0.1,1.399,0.2,2,0.3c0.1,0,0.2,0,0.3,0
			C119.7,72.8,122,72.8,125.1,74.1z M16.7,48.1V48C16.7,48,16.6,48.1,16.7,48.1L16.7,48.1z"/>
		<path fill="#DEA47E" d="M120.5,117.5c-0.3-1-0.8-2.1-1.5-3.3c-0.4-1.9-0.8-3.9-1-6c-0.1-0.6-0.2-1.3-0.2-1.9
			c-0.3-4.1-0.2-8.3,0.2-12.6c0.4-4.3,1.2-8.8,2.4-13.4c0.199-0.9,0.399-1.8,0.699-2.7c0.801-1.8,2.101-3,3.9-3.6
			c0.1,0,1.5,0.1,4.2,0.3c2.399,0.2,5.8,0.3,10.3,0.5c1.3,9.5,1.9,19,1.7,28.6c0,0.1,0,0.3,0,0.4c0.3,6.2-0.2,11.7-1.5,16.7
			L120.5,117.5z"/>
	</g>
	<g>
		<g opacity="0.5">
			<path fill="#FFFFFF" fill-opacity="0.7294" d="M13.4,168.3L13.4,168.3l-0.1-2h27.4v2c-0.4,1.7-2.3,3.3-5.5,4.8
				c-3.4,1.5-5.3,2.9-5.6,4.2V313l-1.8,7.5c-1,0.3-1.9,0.3-2.6,0l-2.1-7.7H23l0.1-135.5l-0.1-0.8c-0.3-1-1.5-2.1-3.7-3.3
				C15.9,172,14,170.4,13.4,168.3z"/>
		</g>
		<g>
			<path fill="#6AB3D0" d="M120.5,80.4c-1.2,4.6-2,9.1-2.4,13.4c-0.399,4.3-0.5,8.5-0.199,12.6c-3.301-0.2-6.801-0.5-10.7-1
				c-1.3-0.2-2.7-0.3-4.101-0.5c-0.899-0.1-1.699-0.2-2.6-0.3c-1-0.2-2.3-0.5-3.9-0.9c-1.6-0.4-2.3-0.5-2.3-0.5
				c-2.2-0.2-3.3-0.5-3.399-0.8c-1,0.3-1.4-3.3-1.2-10.6c1.1-4.2,1.8-6.7,2.2-7.5c0.5-1.9,0.8-3,0.8-3.4c0-0.2,0-0.3,0-0.5
				c0-0.2-0.101-0.4-0.3-0.5c-0.2-0.2-0.5-0.3-0.801-0.3c-1.5,0-2.699,2.4-3.699,7.1c-0.5,2.8-0.9,5.2-1,7.1
				c-1.2,2.8-1.801,5.2-1.9,7.4c0,1.6-0.1,2.9-0.4,3.9c-0.3,0.9-0.899,1.6-1.6,2c-0.6,0.3-2,0.9-4.1,1.8c-0.5,0.1-1,0.3-1.5,0.5l0,0
				c-0.4,0.1-0.801,0.3-1.2,0.4c-0.2,0-0.3,0-0.5,0c-4.3,1.2-9.6,1.9-16,2.3c-6.3,0.3-10.2-1.3-11.6-4.9c-0.6-1.6-0.4-2.9,0.8-3.9
				c1.5-1.4,2.1-3.1,1.8-5.1c-1.3-1.7-2.2-3.8-2.6-6.1c2-2.8,3.1-4.9,3.3-6.3c1-4.2,3.1-4.1,6.5,0.4c0.2,1.6,1.1,3,2.6,4.3
				c3.5,2.8,6.1,4,8,3.6s3-0.8,3.4-1.1c0.4-0.4,0.7-0.7,1-1.1c0.3-0.3,1-0.8,2-1.3c0.9-0.4,1.3-0.8,1.3-1.3s-0.9-1.5-2.6-3
				c-2.6-2.1-4.5-3.9-5.9-5.3c-5.4-5.7-8.2-12.3-8.4-19.9c0-0.4,0-0.8,0-1.1c0-2.7,0.3-5.2,0.8-7.7c0.4-1.7,0.8-3,1.3-3.7
				c-0.7-1.3-1.4-3-2-5.1l0.7,1.8l2.4,0.8c1.5,0,3,0.2,4.5,0.7c0.4,0.2,1,0.2,1.7,0c0.8-0.2,2.3,0,4.5,0.7
				c2.2,0.6,4.899,1,7.899,1.2c0.2,0.7,1,2,2.301,3.9c1.3,1.8,2.8,3.6,4.399,5.6c1.5,2,3.101,4.2,4.601,6.6c1.5,2.4,2.6,4,3.199,4.6
				c0.5,0.7,1.2,1.4,2,2.1c1.2,0.2,2.801,0.4,4.9,0.6c0.3,0,0.6,0,0.8,0.1c1.2,0.2,2.601,0.3,4.101,0.5c3,0.3,6.699,0.8,10.899,1.3
				c0.101,0,0.2,0,0.3,0c1.4-1.5,3.601-1.5,6.801-0.1c-1.801,0.6-3.101,1.8-3.9,3.6C120.9,78.6,120.7,79.5,120.5,80.4z M20.5,108.8
				c0.2,0.1,0.4,0.2,0.6,0.4c0.4,0.2,0.7,0.3,0.9,0.5c0.1,0.1,0.2,0.3,0.4,0.4c-0.8,0.6-1,1.3-0.6,1.9c-2-0.8-3.5-1.5-4.5-2.2
				L20.5,108.8z M52.6,43.4c0.4,0.5,0.3,1.3-0.3,2.4c-0.7,1-1.2,1.6-1.6,1.9c-0.4,0.3-1,0.5-1.7,0.5c-0.2,0-1.1-0.3-2.7-0.8
				c-1.6-0.5-3.5-0.7-5.5-0.8s-4.5-0.2-7.4-0.6c-2.5-0.3-5-0.4-7.4-0.4c-0.9,0-1.8,0.1-2.7,0.2c-1,0.2-2.1,0.4-3.2,0.8
				c-0.4,0.1-0.9,0.2-1.4,0.4c-0.1,0-0.2,0-0.3,0.1c-0.5,0.2-0.9,0.3-1.2,0.4c-0.3,0.2-0.5,0.4-0.6,0.7L13,46.7
				c1.5-0.9,3.1-1.8,5-2.8c0.2-0.1,0.5-0.2,0.9-0.3C22.4,42.8,33.6,42.8,52.6,43.4z M95.3,71.4c-0.399,0,0.3,0.1,2.2,0.4
				C95.5,71.5,94.8,71.4,95.3,71.4z M92.7,80.5c0.5-1.1,1-2,1.3-2.8C93.7,78.5,93.2,79.5,92.7,80.5z M93.7,85c-0.101,0-0.3,0-0.7,0
				c-0.2,1.1-0.3,2.6-0.5,4.6v3.5c0.6-1.5,1.1-3,1.5-4.6c0.2-1.1,0.3-2,0.3-2.8C94.2,85.4,94,85.1,93.7,85z M111.8,81.9
				c0-0.1,0.101-0.1,0.2-0.1c-0.4-0.8-2-1-4.8-0.5c-0.4,0.1-0.8,0.2-1.3,0.3c0.5,0.2,0.899,0.3,1.3,0.4c0.899,0.2,1.399,0.4,1.5,0.5
				c1,0,2-0.1,3.1-0.4V81.9L111.8,81.9z M103.7,80c-0.2,0-0.4,0-0.601,0c-0.699,0-1.1,0-1.3,0c-2.7-0.7-4.3-0.5-5,0.5
				c2.5,0,4.601,0.1,6.3,0.4c0.7,0.1,1.301,0.2,1.9,0.3C104.8,80.4,104.4,80,103.7,80z M71.4,53.6c-0.3,0-0.5,0.1-0.7,0.2
				c0.1,0.2,0.1,0.4,0.3,0.5c0,2.6,0.3,5,0.9,7c0.5,1.8,1,3.5,1.6,5.1c0.3,0.7,0.5,1.3,0.8,2c0.8,1.9,1.601,3.5,2.5,4.6
				c0.7,1,1.4,1.8,2.101,2.3h0.3c0-0.7-0.2-1.6-0.601-2.7c-0.1-0.4-0.199-0.7-0.399-1c-0.3-0.6-0.5-1.1-0.8-1.5
				c-0.601-1.2-1.101-2.2-1.5-3c-0.101-0.4-0.301-0.9-0.5-1.5c-0.8-2.5-2-6.5-3.8-12.2C71.7,53.5,71.5,53.6,71.4,53.6z M76.2,96.5
				c0,2.6,0,4,0,4.3c-0.101,0.6-0.2,1.1-0.3,1.5c-0.101,0.7-0.2,1.2-0.301,1.4v1.3c0.601-0.2,1.5-1.3,2.7-3.3c0-0.2,0-0.6-0.2-1.1
				c-0.199-0.5-0.1-1.3,0.2-2.5C78.5,96.9,77.8,96.4,76.2,96.5z"/>
			<path fill="#3586A8" d="M21.8,112c-0.5-0.6-0.3-1.2,0.6-1.9c-0.2-0.1-0.3-0.3-0.4-0.4c-0.2-0.2-0.5-0.4-0.9-0.5
				c-0.3-0.2-0.5-0.3-0.6-0.4l0.8-0.3H23l-3.4-55.7c-1.2-2-1.9-3.2-2.2-3.6c-0.3-0.4-0.5-0.7-0.6-0.9c-0.1-0.1-0.1-0.2-0.1-0.3
				c0.1-0.3,0.3-0.5,0.6-0.7c0.3-0.1,0.7-0.2,1.2-0.4c0.1,0,0.1-0.1,0.3-0.1c0.5-0.2,0.9-0.3,1.4-0.4c1.1-0.3,2.2-0.6,3.2-0.8
				c0.9-0.1,1.8-0.2,2.7-0.2c2.4,0,4.9,0.1,7.4,0.4c2.8,0.3,5.3,0.5,7.4,0.6s3.9,0.3,5.5,0.8s2.5,0.8,2.7,0.8c0.7,0,1.3-0.2,1.7-0.5
				c0.4-0.3,1-0.9,1.6-1.9s0.7-1.8,0.3-2.4c0.3,0,0.7,0.1,1,0.1c0.1,0,0.2,0,0.3,0c-0.1-0.3-0.6-1.9-1.6-4.9
				c2.2-1.7,4.2-0.8,5.9,2.9c0.6,1.4,1.1,2.4,1.4,3.1l-0.1-0.9c0.7,2.2,1.4,3.9,2,5.1c-0.5,0.7-0.9,2-1.3,3.7
				c-0.5,2.5-0.8,5-0.8,7.7c0,0.4,0,0.8,0,1.1c0.2,7.5,3,14.1,8.4,19.9c1.3,1.4,3.3,3.2,5.9,5.3c1.8,1.5,2.601,2.5,2.601,3
				s-0.4,0.9-1.3,1.3c-1.1,0.5-1.8,1-2,1.3c-0.3,0.4-0.6,0.7-1,1.1s-1.5,0.8-3.4,1.1c-1.9,0.4-4.6-0.8-8-3.6
				c-1.5-1.3-2.4-2.7-2.6-4.3c-3.3-4.5-5.5-4.6-6.5-0.4c-0.2,1.4-1.3,3.4-3.3,6.3c0.5,2.4,1.4,4.4,2.6,6.1c0.3,2-0.3,3.7-1.8,5.1
				c-1.1,1-1.4,2.3-0.8,3.9c1.4,3.6,5.3,5.2,11.6,4.9c6.4-0.4,11.8-1.1,16-2.3c0.1,0,0.3,0,0.5,0c0.399-0.2,0.8-0.3,1.199-0.4l0,0
				c0.5-0.2,1-0.4,1.5-0.5c2.2-0.8,3.5-1.4,4.101-1.8c0.7-0.4,1.3-1.1,1.6-2c0.3-1,0.4-2.3,0.4-3.9c0.1-2.2,0.7-4.6,1.899-7.4
				c0.101-1.9,0.5-4.3,1-7.1c1-4.8,2.2-7.1,3.7-7.1c0.3,0,0.601,0.1,0.8,0.3c0.101,0.1,0.2,0.3,0.301,0.5c-0.9,1.9-2,4.2-3.5,7
				c-0.7,1.2-1.2,2.8-1.4,4.8c-0.1,0.9-0.2,1.9-0.2,2.9c0,0.5,0.2,3.4,0.7,8.5c0,0.4,0,0.9-0.2,1.4c-0.2,0.7-0.399,1.3-0.8,1.6
				c0.4-0.4,0.7-0.9,0.8-1.6c0.101-0.5,0.2-0.9,0.2-1.4c-0.4-5.1-0.7-7.9-0.7-8.5c0-1,0.101-2,0.2-2.9c0.2-2,0.7-3.5,1.4-4.8
				c1.5-2.7,2.699-5,3.5-7c0,0.2,0,0.3,0,0.5c0,0.4-0.301,1.5-0.801,3.4c-0.3,0.8-1,3.3-2.199,7.5c-0.2,7.3,0.199,10.8,1.199,10.6
				c0.101,0.3,1.2,0.6,3.4,0.8c-0.1-0.1,0.7,0.1,2.3,0.5c1.601,0.4,2.9,0.7,3.9,0.9c0.899,0.1,1.7,0.2,2.6,0.3
				c1.4,0.2,2.8,0.3,4.101,0.5c3.899,0.4,7.399,0.8,10.699,1c0,0.7,0.101,1.3,0.2,1.9c0.2,2,0.5,4,1,6c0.601,1.2,1.101,2.3,1.5,3.3
				c-0.8,0.5-1.6,0.9-2.399,1.1c-1.7,0.3-3.4-0.3-5.2-1.6c-2-0.2-3.9-0.4-5.7-0.6c-1.5-0.2-2.8-0.4-4.1-0.5
				c-5.9-0.7-10.101-1.2-12.601-1.5c-3.8-0.5-6-0.7-6.399-0.6c-0.5,0.1-2.5,0.6-6,1.6l0,0c-3.601,1-5.5,1.5-5.7,1.6
				c-7,0.7-11.4,1-13.1,1c-2.4,0-5.5-0.3-9.5-0.9c-4-0.5-7.1-0.8-9.3-0.8c-0.2,0-1.1,0.1-2.5,0.4c-1.4,0.2-2.2,0.3-2.5,0.3
				c-1.9,0-5.1-1.1-9.6-3.4c-1-0.3-1.9-0.6-2.8-1C22.7,112.3,22.2,112.1,21.8,112z M93.7,85c0.399,0.1,0.5,0.4,0.5,0.8
				c0,0.7-0.101,1.7-0.3,2.8c-0.4,1.6-0.9,3.1-1.5,4.6v-3.5c0.199-2,0.3-3.6,0.5-4.6C93.3,85,93.6,85,93.7,85z M53.9,43.5
				c0.5,1.8,0.9,3.6,1.1,5.4C54.8,47,54.4,45.2,53.9,43.5z M53.4,55.1c-0.8,2.2-1.3,6-1.4,11.5c0,5.4,1.8,10.6,5.5,15.5
				c3.7,4.8,8.1,7,13.2,6.5c-5.1,0.5-9.5-1.7-13.2-6.5C53.9,77.2,52,72,52,66.6C52.1,61.1,52.6,57.3,53.4,55.1z M60,86.7
				c2.4,3.1,5,5.2,7.8,6.3C65,91.9,62.4,89.8,60,86.7z M25.9,113.5c0.8,0.2,1.6,0.5,2.4,0.8C27.4,114,26.6,113.7,25.9,113.5z
				 M91.7,104.3c-0.4,0.5-0.7,1.2-0.9,2c-0.1,0.5-0.3,1.1-0.5,2c0.2-0.9,0.4-1.5,0.5-2C91,105.5,91.3,104.8,91.7,104.3z"/>
			<path fill="#9FE8F9" d="M111.8,81.9V82c-1.1,0.2-2.1,0.4-3.1,0.4c-0.101-0.1-0.601-0.2-1.5-0.5c-0.4-0.1-0.8-0.2-1.3-0.4
				c0.5-0.1,0.899-0.1,1.3-0.3c2.8-0.4,4.399-0.3,4.8,0.5C111.9,81.8,111.8,81.8,111.8,81.9z M103.7,80c0.7,0,1.1,0.4,1.3,1.2
				c-0.5-0.1-1.2-0.2-1.9-0.3c-1.699-0.3-3.8-0.4-6.3-0.4c0.7-1,2.3-1.2,5-0.5c0.2,0,0.601,0,1.3,0C103.3,80,103.5,80,103.7,80z
				 M71.4,53.6c0.1-0.1,0.3-0.1,0.4-0.1c1.7,5.7,3,9.7,3.8,12.2c0.2,0.6,0.301,1.1,0.5,1.5c0.4,0.8,0.801,1.8,1.5,3
				c0.2,0.4,0.5,0.9,0.801,1.5c0.199,0.3,0.3,0.6,0.399,1c0.4,1.1,0.601,2,0.601,2.7H79.1C78.4,74.9,77.7,74.1,77,73.1
				c-0.9-1.2-1.7-2.7-2.5-4.6c-0.3-0.6-0.5-1.3-0.8-2c-0.5-1.6-1.1-3.3-1.6-5.1c-0.6-2-0.9-4.4-0.9-7c-0.1-0.2-0.2-0.4-0.3-0.5
				C70.9,53.8,71.1,53.7,71.4,53.6z M76.2,96.5c1.6-0.1,2.3,0.4,2.1,1.5c-0.3,1.2-0.3,2-0.2,2.5c0.101,0.5,0.2,0.8,0.2,1.1
				c-1.2,2-2.1,3.1-2.7,3.3v-1.3c0.101-0.2,0.2-0.6,0.301-1.4c0.1-0.4,0.199-0.9,0.3-1.5C76.2,100.5,76.2,99.1,76.2,96.5z"/>
			<path fill="#DEA47E" d="M141.3,103.6c-0.8,0.1-1.3,0.2-1.399,0.2c-3.801-0.1-6.601-0.2-8.5-0.4c-0.801-0.1-1.4-0.2-2-0.3
				c-2.301-0.4-4.101-1-5.301-1.9c-2.1-1.4-3.199-3.7-3.199-7c0.399-4.7,0.6-7.3,0.6-7.8c0-1.4-0.1-2.7-0.3-4
				c-0.2-0.9-0.4-1.6-0.601-2.1c0.2-0.9,0.4-1.8,0.7-2.7c0.8-1.8,2.101-3,3.9-3.6c0.1,0,1.5,0.1,4.2,0.3c2.399,0.2,5.8,0.3,10.3,0.5
				C140.9,84.5,141.5,94,141.3,103.6z M134,78.9c-0.4-0.1-0.8-0.2-1.2-0.3c-1.3,0-2.5,0.1-3.5,0.1c-1.399,0.1-2.399,0.1-3,0.1
				c0,0.1,0,0.1-0.1,0.2c0,0.2-0.101,0.3-0.101,0.5c0,0.5,0.9,0.8,2.801,1c0.1,0,0.3,0,0.399,0c1,0.2,2.5,0.3,4.601,0.4h2.6
				C136.7,80.2,135.8,79.5,134,78.9z"/>
			<path fill="#D28D60" d="M120.5,117.5c-0.3-1-0.8-2.1-1.5-3.3c-0.4-1.9-0.8-3.9-1-6c-0.1-0.6-0.2-1.3-0.2-1.9
				c-0.3-4.1-0.2-8.3,0.2-12.6c0.4-4.3,1.2-8.8,2.4-13.4c0.199,0.5,0.399,1.1,0.6,2.1c0.2,1.3,0.3,2.6,0.3,4c0,0.5-0.2,3.1-0.6,7.8
				c0,3.3,1,5.6,3.2,7c1.3,0.9,3,1.5,5.3,1.9c0.6,0.1,1.3,0.2,2,0.3c1.899,0.2,4.7,0.3,8.5,0.4c0.1,0,0.6-0.1,1.399-0.2
				c0,0.1,0,0.3,0,0.4c0.301,6.2-0.199,11.7-1.5,16.7L120.5,117.5z"/>
			<path fill="#E4B789" d="M134,78.9c1.9,0.6,2.8,1.3,2.6,2.1H134c-2.1-0.1-3.6-0.2-4.6-0.4c-0.101,0-0.301,0-0.4,0
				c-1.9-0.2-2.8-0.5-2.8-1c0-0.2,0-0.3,0.1-0.5C126.4,79,126.4,79,126.4,78.9c0.6,0,1.699,0,3-0.1c1,0,2.1-0.1,3.5-0.1
				C133.2,78.7,133.5,78.8,134,78.9z"/>
			
				<path fill="none" stroke="#0F5768" stroke-width="0.1" stroke-linecap="round" stroke-linejoin="round" stroke-miterlimit="3" d="
				M81,48.9c0.2,0.7,1,2,2.3,3.9c1.3,1.8,2.8,3.6,4.4,5.6c1.5,2,3.1,4.2,4.6,6.6s2.601,4,3.2,4.6c0.5,0.7,1.2,1.4,2,2.1
				c1.2,0.2,2.8,0.4,4.9,0.6c0.3,0,0.6,0,0.8,0.1c1.2,0.2,2.6,0.3,4.1,0.5c3,0.3,6.7,0.8,10.9,1.3c0.1,0,0.2,0,0.3,0
				c1.4-1.5,3.6-1.5,6.8-0.1c-1.8,0.6-3.1,1.8-3.899,3.6c-0.2,0.9-0.5,1.8-0.7,2.7c-1.2,4.6-2,9.1-2.4,13.4
				c-0.399,4.3-0.5,8.5-0.2,12.6c0,0.7,0.101,1.3,0.2,1.9c0.2,2,0.5,4,1,6c0.601,1.2,1.101,2.3,1.5,3.3c-0.8,0.5-1.6,0.9-2.399,1.1
				c-1.7,0.3-3.4-0.3-5.2-1.6c-2-0.2-3.9-0.4-5.7-0.6c-1.5-0.2-2.8-0.4-4.1-0.5c-5.9-0.7-10.101-1.2-12.601-1.5
				c-3.8-0.5-6-0.7-6.399-0.6c-0.5,0.1-2.5,0.6-6,1.6l0,0c-3.601,1-5.5,1.5-5.7,1.6c-7,0.7-11.4,1-13.1,1c-2.4,0-5.5-0.3-9.5-0.9
				c-4-0.5-7.1-0.8-9.3-0.8c-0.2,0-1.1,0.1-2.5,0.4c-1.4,0.2-2.2,0.3-2.5,0.3c-1.9,0-5.1-1.1-9.6-3.4c-1-0.3-1.9-0.6-2.8-1
				c-0.4-0.2-0.9-0.4-1.3-0.5c-2-0.8-3.5-1.5-4.5-2.2 M13.1,46.5c1.5-0.9,3.1-1.8,5-2.8c0.2-0.1,0.5-0.2,0.9-0.3
				c3.4-0.7,14.6-0.8,33.6-0.1c0.3,0,0.7,0.1,1,0.1c0.1,0,0.2,0,0.3,0c-0.1-0.3-0.6-1.9-1.6-4.9 M95.3,71.4
				c-0.399,0,0.3,0.1,2.2,0.4 M92.7,80.5c-0.9,1.9-2,4.2-3.5,7c-0.7,1.2-1.2,2.8-1.4,4.8c-0.1,0.9-0.2,1.9-0.2,2.9
				c0,0.5,0.2,3.4,0.7,8.5c0,0.4,0,0.9-0.2,1.4c-0.199,0.7-0.399,1.3-0.8,1.6 M92.7,80.5c0.5-1.1,1-2,1.3-2.8 M53.9,43.5
				c0.5,1.8,0.9,3.6,1.1,5.4 M53.4,55.1c-0.8,2.2-1.3,6-1.4,11.5c0,5.4,1.8,10.6,5.5,15.5c3.7,4.8,8.1,7,13.2,6.5 M60,86.7
				c2.4,3.1,5,5.2,7.8,6.3 M25.9,113.5c0.8,0.2,1.6,0.5,2.4,0.8 M91.7,104.3c-0.4,0.5-0.7,1.2-0.9,2c-0.1,0.5-0.3,1.1-0.5,2"/>
			
				<path fill="none" stroke="#B16634" stroke-width="0.1" stroke-linecap="round" stroke-linejoin="round" stroke-miterlimit="3" d="
				M125.1,74.1c0.101,0,1.5,0.1,4.2,0.3c2.4,0.2,5.8,0.3,10.3,0.5c1.301,9.5,1.9,19,1.7,28.6c0,0.1,0,0.3,0,0.4
				c0.3,6.2-0.2,11.7-1.5,16.7l-19.3-3.2"/>
		</g>
		<g>
			<rect x="24.2" y="121.9" fill="#FFFFFF" width="7.6" height="0.9"/>
		</g>
		<g>
			<path fill="#6AB3D0" d="M64.3,23.3c0.4,0.5,1.6,2.3,3.5,5.5c1.9,3.1,3.4,5.5,4.5,7.1c1.1,1.6,1.8,2.6,2.1,3.1
				c0.3,0.5,1.4,1.9,3.2,4.3c0.4,0.4,2.301,3.6,5.7,9.6c-3.5-1.6-6.399-2.3-8.5-2.2v-0.6c-3.1-1.5-5.5-1.5-7.2,0V54
				c-2.6,1.5-5.3,3.4-8.3,5.5c0.7-2.7,1.2-4.7,1.5-6c0.3-1.7,0.7-2.9,1.3-3.7c-2-3.8-3.2-7.2-3.8-10.1c-0.3-1.8-0.5-2.9-0.7-3.3
				c-0.3-1.1-0.9-2.3-1.8-3.5c-0.1-3.4,1.4-5.3,4.6-5.8l0.1-0.7c1-0.6,1.7-1.2,2.2-1.8s0.8-1,0.9-1.3C63.6,22.7,63.9,22.8,64.3,23.3
				z"/>
			<path fill="#3586A8" d="M59.2,59.3c0-1.1-0.3-1.5-0.9-1.3c-2.9-0.7-4.2-3.2-4-7.5v0.6c0-4.6,0-6.8,0.1-6.8
				c-0.1-0.3-0.2-0.6-0.3-0.9c-0.5-1.4-1-2.8-1.7-4.1l-0.9-1c-0.7-3.8-0.3-5.1,1.3-4.1c1.7-0.4,2.6-0.7,2.9-1.1
				c0-0.1,0.1-0.2,0.2-0.3c0.9,1.2,1.5,2.4,1.8,3.5c0.1,0.4,0.4,1.5,0.7,3.3c0.5,2.9,1.8,6.3,3.8,10.1c-0.5,0.8-1,2-1.3,3.7
				C60.4,54.5,59.9,56.5,59.2,59.3z M54.4,44.2c0.5,1.8,0.9,3.6,1.2,5.3C55.3,47.8,54.9,46,54.4,44.2z"/>
			
				<path fill="none" stroke="#0F5768" stroke-width="0.1" stroke-linecap="round" stroke-linejoin="round" stroke-miterlimit="3" d="
				M83.3,52.7c-3.3-6-5.2-9.2-5.7-9.6c-1.8-2.4-2.899-3.8-3.2-4.3c-0.3-0.4-1-1.5-2.1-3.1c-1.1-1.6-2.6-4-4.5-7.1
				c-1.9-3.1-3-5-3.5-5.5 M54.3,51c0-4.6,0-6.8,0.1-6.8c-0.1-0.3-0.2-0.6-0.3-0.9c-0.5-1.4-1-2.8-1.7-4.1l-0.9-1 M54.4,44.2
				c0.5,1.8,0.9,3.6,1.2,5.3"/>
		</g>
		<g>
			<g>
				
					<linearGradient id="SVGID_1_" gradientUnits="userSpaceOnUse" x1="299.5195" y1="544.2344" x2="301.744" y2="544.2344" gradientTransform="matrix(4.494382e-004 1 1 0.001 -510.0191 -252.2245)">
					<stop  offset="0" style="stop-color:#F3423E"/>
					<stop  offset="0.2118" style="stop-color:#E96764"/>
					<stop  offset="0.5176" style="stop-color:#BD0C09"/>
					<stop  offset="1" style="stop-color:#700604"/>
				</linearGradient>
				<path fill="url(#SVGID_1_)" d="M38,49c0,0.3-0.1,0.5-0.4,0.7c-0.3,0.2-0.6,0.4-1,0.4h-5.9V48h5.9c0.4,0,0.8,0.1,1,0.3
					C37.8,48.4,38,48.6,38,49z"/>
			</g>
			<g>
				
					<linearGradient id="SVGID_2_" gradientUnits="userSpaceOnUse" x1="280.8408" y1="546.1934" x2="297.0154" y2="546.1934" gradientTransform="matrix(6.182380e-005 1 1 0.001 -510.0109 -252.2245)">
					<stop  offset="0" style="stop-color:#F3423E"/>
					<stop  offset="0.2118" style="stop-color:#E96764"/>
					<stop  offset="0.5176" style="stop-color:#BD0C09"/>
					<stop  offset="1" style="stop-color:#700604"/>
				</linearGradient>
				<path fill="url(#SVGID_2_)" d="M37.5,45.3h-0.3h-3.8V27.9h3.8c0.5,0,1,0.9,1.3,2.5c0.3,1.7,0.5,3.7,0.5,6.1
					c0,1.5-0.1,2.9-0.2,4.1c-0.1,0.7-0.2,1.4-0.3,2.1c-0.1,0.5-0.2,0.8-0.4,1.1C38,44.6,37.8,45.1,37.5,45.3z"/>
				
					<path fill="none" stroke="#FFFFFF" stroke-width="0.1" stroke-linecap="round" stroke-linejoin="round" stroke-miterlimit="3" stroke-opacity="0.102" d="
					M37.5,45.3c0.3-0.2,0.5-0.6,0.7-1.4c0.1-0.3,0.3-0.7,0.4-1.1c0.1-0.6,0.2-1.3,0.3-2.1c0.1-1.2,0.2-2.6,0.2-4.1
					c0-2.4-0.2-4.5-0.5-6.1c-0.3-1.7-0.8-2.5-1.3-2.5h-3.8 M33.5,45.3h3.8"/>
			</g>
			<g>
				<g>
					<g>
						
							<radialGradient id="SVGID_3_" cx="285.8594" cy="-59.9502" r="5.9495" gradientTransform="matrix(1 0 0 -0.7227 -251.0098 -24.1265)" gradientUnits="userSpaceOnUse">
							<stop  offset="0" style="stop-color:#B7B7B7"/>
							<stop  offset="0.0824" style="stop-color:#E8E8E8"/>
							<stop  offset="0.3451" style="stop-color:#9D9D9D"/>
							<stop  offset="0.6667" style="stop-color:#E6E6E6"/>
							<stop  offset="0.7412" style="stop-color:#C8C8C8"/>
							<stop  offset="1" style="stop-color:#BFBFBF"/>
						</radialGradient>
						<path fill="url(#SVGID_3_)" d="M40.5,19.2c0,0.2,0,0.3,0,0.4h-0.1c0,0.1-0.1,0.3-0.1,0.5h0.2c0,0.1-0.1,0.2-0.1,0.4h-0.2
							c-0.1,0.1-0.1,0.3-0.3,0.4h0.2c-0.1,0.1-0.2,0.3-0.3,0.4l0,0l-0.2-0.1c-0.1,0.1-0.1,0.3-0.3,0.3l0.1,0.1
							c-0.1,0.1-0.2,0.3-0.4,0.4v-0.1c-0.1,0.1-0.1,0.1-0.2,0.2l-0.1,0.1l0.1,0.1c-0.1,0.1-0.3,0.2-0.5,0.3l-0.1-0.1
							c-0.2,0.1-0.3,0.1-0.5,0.3l0.1,0.1c-0.2,0-0.3,0.1-0.5,0.1v-0.1c-0.2,0.1-0.4,0.1-0.6,0.2v0.1c-0.2,0-0.4,0.1-0.6,0.1v-0.1
							c-0.2,0-0.4,0-0.6,0l0.1,0.2c-0.2,0-0.4,0-0.6,0v-0.1c-0.2,0-0.4,0-0.6,0v0.1c-0.2,0-0.4,0-0.6-0.1v-0.1
							c-0.2,0-0.4-0.1-0.6-0.1v0.1c-0.2,0-0.4-0.1-0.5-0.1V23c-0.2-0.1-0.4-0.1-0.5-0.2H32c-0.2-0.1-0.4-0.1-0.5-0.3l0.2-0.1
							c-0.2-0.1-0.4-0.2-0.5-0.3L31,22.4v-0.1c-0.1,0-0.2-0.1-0.3-0.1c-0.1,0-0.1-0.1-0.3-0.1l0.2-0.1c-0.2-0.1-0.3-0.2-0.5-0.4
							L30,21.8v-0.1c-0.2-0.1-0.3-0.2-0.4-0.4h0.2c-0.1-0.2-0.2-0.3-0.3-0.4L29.3,21c-0.1-0.2-0.1-0.3-0.1-0.4l0.1-0.1
							c-0.1-0.1-0.1-0.3-0.1-0.5h-0.1c0-0.2,0-0.3,0-0.4h0.3c-0.1-0.1-0.1-0.2-0.1-0.3l0,0c0,0,0-0.1,0-0.2h-0.1l0,0
							c0,0,0-0.1,0-0.2l0.3,0.1c0-0.2,0-0.3,0-0.5h-0.2c0-0.1,0.1-0.3,0.1-0.4h0.2c0-0.1,0.1-0.3,0.2-0.4l-0.2-0.1
							c0.1-0.2,0.2-0.3,0.3-0.4l0.2,0.1c0.1-0.2,0.2-0.3,0.4-0.5h-0.1l0,0c0.1-0.1,0.2-0.2,0.3-0.4l0.2,0.1c0,0,0.1-0.1,0.2-0.1
							c0.1-0.1,0.1-0.1,0.2-0.2h-0.1V16c0.1-0.1,0.3-0.1,0.5-0.3l0.1,0.2c0.1-0.1,0.3-0.2,0.5-0.3L32,15.5c0.2-0.1,0.4-0.1,0.6-0.1
							v0.1c0.2,0,0.3-0.1,0.5-0.1v-0.1v-0.1c0.2,0,0.4,0,0.6,0v0.2c0.2-0.1,0.4-0.1,0.6-0.1V15c0.2,0,0.4,0,0.6,0v0.1
							c0.2,0,0.4,0,0.5,0V15c0.3,0,0.5,0,0.6,0.1v0.2c0.2,0,0.4,0,0.6,0.1v-0.1c0.2,0,0.4,0.1,0.6,0.1l-0.1,0.1
							c0.2,0.1,0.3,0.1,0.5,0.2v-0.1c0.2,0.1,0.4,0.1,0.6,0.2L38.1,16c0.1,0.1,0.3,0.1,0.4,0.2h0.2l0.1,0.1c0.1,0,0.1,0.1,0.2,0.1
							h0.1l-0.2,0.1c0.1,0.1,0.3,0.3,0.5,0.3h0.1l0,0c0.1,0.1,0.2,0.3,0.3,0.3v0.1h-0.1c0.1,0.1,0.2,0.3,0.3,0.4l0.2-0.1
							c0,0.1,0.1,0.3,0.2,0.5l0,0h-0.2c0,0.1,0.1,0.2,0.2,0.4h0.1c0.1,0.1,0.1,0.2,0.1,0.4h-0.1C40.5,19,40.5,19.1,40.5,19.2h0.1
							C40.5,19.1,40.5,19.2,40.5,19.2z"/>
					</g>
					<g>
						
							<linearGradient id="SVGID_4_" gradientUnits="userSpaceOnUse" x1="-150.1143" y1="575.9072" x2="-138.8863" y2="575.9072" gradientTransform="matrix(-0.9819 0.1893 0.3578 0.9494 -310.3871 -500.6825)">
							<stop  offset="0" style="stop-color:#F4332E"/>
							<stop  offset="0.298" style="stop-color:#F5A3A3"/>
							<stop  offset="1" style="stop-color:#D20E0A"/>
						</linearGradient>
						<path fill="url(#SVGID_4_)" d="M34.4,18.6c-0.2,0.2-0.3,0.4-0.3,0.6c0,0.2,0.1,0.4,0.3,0.5c0.2,0.2,0.5,0.3,0.8,0.3
							c0.3,0,0.5-0.1,0.7-0.3c0.2-0.1,0.4-0.3,0.4-0.5c0-0.2-0.1-0.4-0.4-0.6c-0.2-0.2-0.4-0.3-0.7-0.3
							C34.9,18.4,34.6,18.5,34.4,18.6z M35.9,21.1h-2.6v-3.6h2.6C37.5,18.6,37.5,19.8,35.9,21.1z"/>
						<path fill="#CCCCCC" d="M34.4,18.6c0.2-0.2,0.5-0.3,0.8-0.3c0.3,0,0.5,0.1,0.7,0.3c0.2,0.2,0.4,0.4,0.4,0.6
							c0,0.2-0.1,0.4-0.4,0.5c-0.2,0.2-0.4,0.3-0.7,0.3c-0.3,0-0.5-0.1-0.8-0.3c-0.2-0.1-0.3-0.3-0.3-0.5
							C34.1,19,34.2,18.8,34.4,18.6z"/>
					</g>
				</g>
				<g>
					
						<linearGradient id="SVGID_5_" gradientUnits="userSpaceOnUse" x1="270.9229" y1="39.7051" x2="286.3979" y2="39.7051" gradientTransform="matrix(1 0 0 -1 -251.0098 48.0547)">
						<stop  offset="0" style="stop-color:#F54541"/>
						<stop  offset="0.2353" style="stop-color:#D10E0A"/>
						<stop  offset="0.302" style="stop-color:#FF6C69"/>
						<stop  offset="0.3725" style="stop-color:#D00E0A"/>
						<stop  offset="0.6941" style="stop-color:#CD0D0A"/>
						<stop  offset="0.749" style="stop-color:#A10A08"/>
						<stop  offset="1" style="stop-color:#640504"/>
					</linearGradient>
					<path fill="url(#SVGID_5_)" d="M35.1,9.9L35,9.8c-0.1-0.2-0.4-0.3-1-0.4c-0.3,0-0.6-0.1-1-0.1C31.5,9,29.7,9,27.6,9
						c-2,0-3.8,0.1-5.3,0.3c-0.4,0-0.8,0.1-1,0.1c-0.8,0.2-1.1,0.3-1.1,0.5c-0.3-0.8-0.3-1.5,0-2.1c0.2-0.2,0.9-0.5,2.2-0.7
						c1.5-0.2,3.2-0.3,5.3-0.3c2.1,0,3.8,0.1,5.3,0.3c1.2,0.2,1.9,0.3,2,0.4c0.1,0.2,0.3,0.4,0.4,0.8c0,0.2,0,0.4,0,0.7
						S35.3,9.6,35.1,9.9z"/>
					<path fill="#660F0E" d="M21.4,9.4v0.9c-0.8-0.1-1.1-0.2-1.1-0.4l0,0C20.2,9.7,20.6,9.5,21.4,9.4z M35.1,9.9L35.1,9.9L35,10
						c-0.1,0.1-0.4,0.3-1,0.3V9.4c0.6,0.1,1,0.3,1,0.4L35.1,9.9z"/>
					
						<linearGradient id="SVGID_6_" gradientUnits="userSpaceOnUse" x1="272.3232" y1="15.7046" x2="284.9977" y2="15.7046" gradientTransform="matrix(1 0 0 -1 -251.0098 48.0547)">
						<stop  offset="0" style="stop-color:#F54541"/>
						<stop  offset="0.2353" style="stop-color:#D10E0A"/>
						<stop  offset="0.302" style="stop-color:#FF6C69"/>
						<stop  offset="0.3725" style="stop-color:#D00E0A"/>
						<stop  offset="0.6941" style="stop-color:#CD0D0A"/>
						<stop  offset="0.749" style="stop-color:#A10A08"/>
						<stop  offset="1" style="stop-color:#640504"/>
					</linearGradient>
					<path fill="url(#SVGID_6_)" d="M34,55.5c-0.2,0.1-0.5,0.1-0.9,0.1c-1.4,0.1-3.1,0.1-5.1,0.1s-3.8,0-5.2-0.1
						c-0.6-0.1-1-0.2-1.4-0.2V10.3V9.4c0.3,0,0.6-0.1,1-0.1C23.9,9,25.6,9,27.6,9c2.1,0,3.9,0,5.4,0.3c0.4,0,0.8,0.1,1,0.1v0.9V55.5
						L34,55.5z"/>
					<path fill="#BF0C09" d="M32.5,57.6c-3.1,0.4-6.3,0.4-9.5,0v-0.1l-1.7-2.1c0.3,0,0.8,0.1,1.4,0.2c1.4,0.1,3.2,0.1,5.2,0.1
						s3.8,0,5.1-0.1c0.4,0,0.7-0.1,0.9-0.1L32.5,57.6z"/>
					
						<linearGradient id="SVGID_7_" gradientUnits="userSpaceOnUse" x1="233.54" y1="-32.1973" x2="242.938" y2="-32.1973" gradientTransform="matrix(0.9976 -0.0692 -0.1324 -0.9932 -213.9547 47.5726)">
						<stop  offset="0" style="stop-color:#FFFFFF;stop-opacity:0.4314"/>
						<stop  offset="0.1647" style="stop-color:#FFFFFF;stop-opacity:0"/>
						<stop  offset="0.349" style="stop-color:#FFFFFF;stop-opacity:0.2392"/>
						<stop  offset="0.5216" style="stop-color:#FFFFFF;stop-opacity:0.0863"/>
						<stop  offset="1" style="stop-color:#FFFFFF;stop-opacity:0.498"/>
					</linearGradient>
					<path fill="url(#SVGID_7_)" d="M23,57.6c3.2,0.4,6.3,0.4,9.5,0l-0.9,10.9c-0.1,0-0.2,0-0.3,0c-2.5,0.5-5,0.5-7.4,0L23,57.6z"/>
					
						<linearGradient id="SVGID_8_" gradientUnits="userSpaceOnUse" x1="274.835" y1="-55.2578" x2="282.6846" y2="-55.2578" gradientTransform="matrix(1 0 0 -1 -251.0098 48.0547)">
						<stop  offset="0" style="stop-color:#FFFFFF;stop-opacity:0.4392"/>
						<stop  offset="0.1647" style="stop-color:#FFFFFF;stop-opacity:0"/>
						<stop  offset="0.4863" style="stop-color:#FFFFFF;stop-opacity:0"/>
						<stop  offset="0.9451" style="stop-color:#FFFFFF;stop-opacity:0.298"/>
					</linearGradient>
					<path fill="url(#SVGID_8_)" d="M32.6,137.3c-2.9,1.1-6.2,1.1-9.8,0c0.5-0.7,0.8-1.4,1-2.2l0.1-0.8V68.5c2.4,0.5,4.9,0.5,7.4,0
						c0.1,0,0.1,0,0.3,0v65.8l0.1,0.8C31.9,135.9,32.3,136.6,32.6,137.3z"/>
					
						<linearGradient id="SVGID_9_" gradientUnits="userSpaceOnUse" x1="259.96" y1="-109.377" x2="297.2586" y2="-109.377" gradientTransform="matrix(1 0 0 -1 -251.0098 48.0547)">
						<stop  offset="0" style="stop-color:#FFFFFF"/>
						<stop  offset="0.1647" style="stop-color:#FFFFFF;stop-opacity:0"/>
						<stop  offset="0.4863" style="stop-color:#FFFFFF;stop-opacity:0"/>
						<stop  offset="0.7373" style="stop-color:#FFFFFF;stop-opacity:0.298"/>
						<stop  offset="1" style="stop-color:#FFFFFF"/>
					</linearGradient>
					<path fill="url(#SVGID_9_)" d="M29.5,177.3c-1.7,0.7-3.5,0.4-5.5-1c-0.8-0.6-1.3-0.6-1.3,0.101c-0.3-1-1.5-2.101-3.7-3.301
						c-3.2-1.1-5.1-2.699-5.7-4.8h-0.1v-22.6l0.1-0.1c0-2.1,2.1-4,6.4-5.9h0.1c1.4-0.6,2.4-1.5,3-2.5c3.6,1.1,6.8,1.1,9.8,0
						c0.4,0.6,0.8,1.2,1.3,1.6L34,139l1.2,0.9c3.8,2.1,5.6,4,5.4,5.8v22.7c-0.4,1.699-2.3,3.3-5.5,4.8
						C31.8,174.6,29.9,176,29.5,177.3z"/>
					
						<linearGradient id="SVGID_10_" gradientUnits="userSpaceOnUse" x1="273.835" y1="-196.5513" x2="280.4845" y2="-196.5513" gradientTransform="matrix(1 0 0 -1 -251.0098 48.0547)">
						<stop  offset="0" style="stop-color:#FFFFFF;stop-opacity:0.4392"/>
						<stop  offset="0.1647" style="stop-color:#FFFFFF;stop-opacity:0"/>
						<stop  offset="0.4863" style="stop-color:#FFFFFF;stop-opacity:0"/>
						<stop  offset="0.9451" style="stop-color:#FFFFFF;stop-opacity:0.298"/>
						<stop  offset="1" style="stop-color:#FFFFFF"/>
					</linearGradient>
					<path fill="url(#SVGID_10_)" d="M29.5,312.8c-2.3,0.601-4.5,0.601-6.6,0h-0.1L22.9,177.4V177.3l-0.1-0.8c0-0.7,0.4-0.7,1.3-0.1
						c2,1.399,3.8,1.699,5.5,1L29.5,312.8z"/>
					
						<linearGradient id="SVGID_11_" gradientUnits="userSpaceOnUse" x1="-140.5444" y1="848.8398" x2="-130.4776" y2="848.8398" gradientTransform="matrix(-0.9958 0.0919 0.1782 0.9878 -259.903 -509.4194)">
						<stop  offset="0" style="stop-color:#FFFFFF;stop-opacity:0.4314"/>
						<stop  offset="0.2196" style="stop-color:#FFFFFF;stop-opacity:0"/>
						<stop  offset="0.4863" style="stop-color:#FFFFFF;stop-opacity:0"/>
						<stop  offset="0.7686" style="stop-color:#FFFFFF;stop-opacity:0.4627"/>
						<stop  offset="0.9569" style="stop-color:#FFFFFF"/>
					</linearGradient>
					<path fill="url(#SVGID_11_)" d="M22.9,312.8c2.1,0.601,4.3,0.601,6.6,0v0.2l-1.8,7.5c-1,0.3-1.9,0.3-2.6,0L22.9,312.8z"/>
					
						<path fill="none" stroke="#FFFFFF" stroke-width="0.1" stroke-linecap="round" stroke-linejoin="round" stroke-miterlimit="3" stroke-opacity="0.1059" d="
						M35.1,9.9c0.1-0.2,0.2-0.5,0.3-0.9c0-0.3,0-0.5,0-0.7c-0.1-0.4-0.3-0.6-0.4-0.8c-0.1-0.1-0.8-0.2-2-0.4
						c-1.5-0.2-3.2-0.3-5.3-0.3c-2,0-3.8,0.1-5.3,0.3c-1.3,0.2-2,0.4-2.2,0.7c-0.3,0.7-0.3,1.4,0,2.1c0-0.2,0.4-0.3,1.1-0.5
						c0.3,0,0.6-0.1,1-0.1C23.9,9,25.6,9,27.6,9c2.1,0,3.9,0,5.4,0.3c0.4,0,0.8,0.1,1,0.1c0.6,0.1,1,0.3,1,0.4L35.1,9.9L35.1,9.9
						L35,10c-0.1,0.1-0.4,0.3-1,0.3v45.1v0.1l-1.5,2.1l-0.9,10.9v65.8l0.1,0.8c0.2,0.9,0.5,1.6,0.9,2.2c0.4,0.6,0.8,1.2,1.3,1.6
						L34,139l1.2,0.9c3.8,2.1,5.6,4,5.4,5.8v22.7c-0.4,1.699-2.3,3.3-5.5,4.8c-3.4,1.5-5.3,2.899-5.6,4.2v135.5l0,0v0.199l-1.8,7.5
						c-1,0.301-1.9,0.301-2.6,0L23,312.9h-0.1l0,0L23,177.5 M34,10.3V9.4 M22.9,177.2l-0.1-0.8c-0.3-1-1.5-2.101-3.7-3.301
						c-3.2-1.1-5.1-2.699-5.7-4.8h-0.1v-22.6v-0.1h0.1c0-2.1,2.1-4,6.4-5.9h0.1c1.4-0.6,2.4-1.5,3-2.5c0.5-0.7,0.8-1.4,1-2.2
						l0.1-0.8V68.4l-1-10.8v-0.1l-1.7-2.1V10.3c-0.8-0.1-1.1-0.2-1.1-0.4l0,0 M21.4,9.4v0.9 M17.5,44.8h-0.1h-0.1H17.5z M21.4,55.4
						c0.3,0,0.8,0.1,1.4,0.2c1.4,0.1,3.2,0.1,5.2,0.1s3.8,0,5.1-0.1c0.4,0,0.7-0.1,0.9-0.1 M32.5,57.6c-3.1,0.4-6.3,0.4-9.5,0
						 M13.4,145.6L13.4,145.6 M29.5,312.8v0.2 M22.8,312.7h0.1"/>
				</g>
			</g>
			<g>
				
					<linearGradient id="SVGID_12_" gradientUnits="userSpaceOnUse" x1="278.207" y1="-98.5332" x2="278.3187" y2="-77.409" gradientTransform="matrix(1 0 0 -1 -251.0098 48.0547)">
					<stop  offset="0" style="stop-color:#FFFFFF;stop-opacity:0"/>
					<stop  offset="0.9569" style="stop-color:#FFFFFF"/>
				</linearGradient>
				<path fill="url(#SVGID_12_)" d="M18.4,141.8c2.7-1.4,4.5-2.5,5.6-3.5c1.4,0.3,2.9,0.5,4.5,0.5c1.7-0.1,2.8-0.1,3.3-0.3
					c0.9,1.2,2.3,2.3,4.3,3.5c3.4,2.1,4.4,3.6,3.3,4.6c-0.2,0.1-0.5,0.3-0.7,0.6c-0.6,0.1-1.2,0.2-1.8,0.4c-2.8,1-6.3,1.5-10.3,1.5
					c-3,0-5.7-0.3-8.1-0.9c-0.8-0.2-1.5-0.4-2.3-0.7c-0.2,0-0.4-0.1-0.5-0.1c-1.9-1.6-1.4-3.3,1.6-5C17.6,142.2,18,142,18.4,141.8z"
					/>
				<g>
					
						<linearGradient id="SVGID_13_" gradientUnits="userSpaceOnUse" x1="438.9297" y1="438.9082" x2="456.8051" y2="438.9082" gradientTransform="matrix(0.235 0.972 0.998 -0.1274 -514.2681 -215.7628)">
						<stop  offset="0" style="stop-color:#FFFFFF;stop-opacity:0"/>
						<stop  offset="0.9843" style="stop-color:#FFFFFF;stop-opacity:0.2"/>
						<stop  offset="1" style="stop-color:#FFFFFF;stop-opacity:0.5882"/>
					</linearGradient>
					<path fill="url(#SVGID_13_)" d="M22.3,162.5c-0.7-0.8-1.8-1.4-3.1-1.9c-2.7-1.3-3.8-2.5-3.4-3.5c0.5,0.1,1.1,0.2,1.8,0.4
						c3.5,0.8,6.9,0.9,10,0.1c3.1-0.7,4.9-1.9,5.4-3.7c0.5-1.8,1.5-2.3,2.9-1.5c1.3,0.7,2.3,1.8,3,3.3c0.6,1.4-0.4,2.9-3.1,4.5
						c-1.4,0.8-2.8,1.5-4.3,2.3c-0.1,0-0.2,0-0.3,0.1C28,165.8,25.1,165.8,22.3,162.5z"/>
				</g>
			</g>
			
				<radialGradient id="SVGID_14_" cx="577.1025" cy="-289.7402" r="8.4002" gradientTransform="matrix(0.5995 0 0 -1.9894 -325.7501 -420.6088)" gradientUnits="userSpaceOnUse">
				<stop  offset="0" style="stop-color:#FFFFFF"/>
				<stop  offset="0.1647" style="stop-color:#FFFFFF;stop-opacity:0.651"/>
				<stop  offset="0.3608" style="stop-color:#FFFFFF;stop-opacity:0.2784"/>
				<stop  offset="0.502" style="stop-color:#FFFFFF;stop-opacity:0.102"/>
				<stop  offset="0.698" style="stop-color:#FFFFFF;stop-opacity:0.0667"/>
				<stop  offset="0.8588" style="stop-color:#FFFFFF;stop-opacity:0.0275"/>
				<stop  offset="1" style="stop-color:#FFFFFF;stop-opacity:0"/>
			</radialGradient>
			<path fill="url(#SVGID_14_)" d="M23.7,167.4c-1,3.3-2.1,4.899-3.5,4.899c-1.4,0-2.6-1.6-3.5-4.899c-1-3.2-1.4-7.101-1.4-11.601
				c0-4.6,0.5-8.5,1.4-11.7c1-3.2,2.2-4.8,3.5-4.8c1.4,0,2.5,1.6,3.5,4.8c1,3.3,1.5,7.2,1.5,11.7C25.2,160.4,24.7,164.2,23.7,167.4z
				"/>
			
				<radialGradient id="SVGID_15_" cx="837.5273" cy="97.9287" r="8.3995" gradientTransform="matrix(0.2514 0.3943 0.252 -0.0842 -204.748 -183.0909)" gradientUnits="userSpaceOnUse">
				<stop  offset="0" style="stop-color:#FFFFFF"/>
				<stop  offset="0.1647" style="stop-color:#FFFFFF;stop-opacity:0.651"/>
				<stop  offset="0.3608" style="stop-color:#FFFFFF;stop-opacity:0.2784"/>
				<stop  offset="0.502" style="stop-color:#FFFFFF;stop-opacity:0.098"/>
				<stop  offset="0.698" style="stop-color:#FFFFFF;stop-opacity:0.0667"/>
				<stop  offset="0.8588" style="stop-color:#FFFFFF;stop-opacity:0.0275"/>
				<stop  offset="1" style="stop-color:#FFFFFF;stop-opacity:0"/>
			</radialGradient>
			<path fill="url(#SVGID_15_)" d="M30.5,141.7c-0.8-0.5-1.5-1.2-2.1-2.1s-0.9-1.8-0.9-2.5c0-0.8,0.3-1.2,0.9-1.4
				c0.6-0.2,1.3,0,2.1,0.4c0.8,0.5,1.5,1.2,2.1,2.1c0.6,0.9,0.9,1.7,0.9,2.5c0,0.8-0.3,1.3-0.9,1.5C32,142.4,31.3,142.2,30.5,141.7z
				"/>
			
				<radialGradient id="SVGID_16_" cx="837.5264" cy="97.9316" r="8.4008" gradientTransform="matrix(0.2514 0.3943 0.252 -0.0842 -206.4472 -146.0909)" gradientUnits="userSpaceOnUse">
				<stop  offset="0" style="stop-color:#FFFFFF"/>
				<stop  offset="0.1647" style="stop-color:#FFFFFF;stop-opacity:0.651"/>
				<stop  offset="0.3608" style="stop-color:#FFFFFF;stop-opacity:0.2784"/>
				<stop  offset="0.502" style="stop-color:#FFFFFF;stop-opacity:0.0941"/>
				<stop  offset="0.698" style="stop-color:#FFFFFF;stop-opacity:0.0667"/>
				<stop  offset="0.8588" style="stop-color:#FFFFFF;stop-opacity:0.0275"/>
				<stop  offset="1" style="stop-color:#FFFFFF;stop-opacity:0"/>
			</radialGradient>
			<path fill="url(#SVGID_16_)" d="M28.8,178.7c-0.8-0.5-1.5-1.2-2.1-2.101c-0.6-0.899-0.9-1.8-0.9-2.5c0-0.8,0.3-1.199,0.9-1.399
				c0.6-0.2,1.3,0,2.1,0.5c0.8,0.5,1.5,1.2,2.1,2.1c0.6,0.9,0.9,1.7,0.9,2.5s-0.3,1.3-0.9,1.5C30.3,179.4,29.6,179.2,28.8,178.7z"/>
			
				<radialGradient id="SVGID_17_" cx="975.3008" cy="-852.834" r="8.4005" gradientTransform="matrix(0.2933 4.730225e-004 -0.0014 -0.3401 -262.6841 -110.9469)" gradientUnits="userSpaceOnUse">
				<stop  offset="0" style="stop-color:#FFFFFF"/>
				<stop  offset="0.1647" style="stop-color:#FFFFFF;stop-opacity:0.651"/>
				<stop  offset="0.3608" style="stop-color:#FFFFFF;stop-opacity:0.2784"/>
				<stop  offset="0.502" style="stop-color:#FFFFFF;stop-opacity:0.0902"/>
				<stop  offset="0.698" style="stop-color:#FFFFFF;stop-opacity:0.0667"/>
				<stop  offset="0.8588" style="stop-color:#FFFFFF;stop-opacity:0.0275"/>
				<stop  offset="1" style="stop-color:#FFFFFF;stop-opacity:0"/>
			</radialGradient>
			<path fill="url(#SVGID_17_)" d="M26.3,181.6c-0.5,0.601-1,0.801-1.7,0.801c-0.7,0-1.3-0.301-1.7-0.801c-0.5-0.5-0.7-1.199-0.7-2
				c0-0.8,0.2-1.5,0.7-2s1.1-0.8,1.7-0.8c0.7,0,1.2,0.3,1.7,0.8c0.5,0.601,0.7,1.2,0.7,2C27,180.4,26.7,181,26.3,181.6z"/>
			
				<radialGradient id="SVGID_18_" cx="213.0498" cy="1246.3652" r="8.4077" gradientTransform="matrix(-0.4752 0.2649 0.1692 0.1592 -88.6084 -112.4221)" gradientUnits="userSpaceOnUse">
				<stop  offset="0" style="stop-color:#FFFFFF"/>
				<stop  offset="0.1647" style="stop-color:#FFFFFF;stop-opacity:0.651"/>
				<stop  offset="0.3608" style="stop-color:#FFFFFF;stop-opacity:0.2784"/>
				<stop  offset="0.502" style="stop-color:#FFFFFF;stop-opacity:0.0941"/>
				<stop  offset="0.698" style="stop-color:#FFFFFF;stop-opacity:0.0667"/>
				<stop  offset="0.8588" style="stop-color:#FFFFFF;stop-opacity:0.0275"/>
				<stop  offset="1" style="stop-color:#FFFFFF;stop-opacity:0"/>
			</radialGradient>
			<path fill="url(#SVGID_18_)" d="M17.3,143c0.5-0.7,1.3-1.3,2.4-1.9c1.1-0.6,2.2-1,3.2-1.2c1-0.2,1.7-0.1,2.1,0.3
				c0.4,0.4,0.3,0.9-0.1,1.6c-0.5,0.7-1.3,1.3-2.4,1.9c-1.1,0.6-2.2,1-3.2,1.2c-1.1,0.2-1.8,0.1-2.2-0.3
				C16.7,144.3,16.8,143.7,17.3,143z"/>
			
				<radialGradient id="SVGID_19_" cx="-50.0684" cy="2222.1738" r="7.803" gradientTransform="matrix(-0.4053 -0.018 -0.0269 0.1134 64.0097 -184.2257)" gradientUnits="userSpaceOnUse">
				<stop  offset="0" style="stop-color:#FFFFFF"/>
				<stop  offset="0.1647" style="stop-color:#FFFFFF;stop-opacity:0.651"/>
				<stop  offset="0.3608" style="stop-color:#FFFFFF;stop-opacity:0.2784"/>
				<stop  offset="0.502" style="stop-color:#FFFFFF;stop-opacity:0.0902"/>
				<stop  offset="0.698" style="stop-color:#FFFFFF;stop-opacity:0.0667"/>
				<stop  offset="0.8588" style="stop-color:#FFFFFF;stop-opacity:0.0275"/>
				<stop  offset="1" style="stop-color:#FFFFFF;stop-opacity:0"/>
			</radialGradient>
			<path fill="url(#SVGID_19_)" d="M22.4,68c0.7-0.1,1.4-0.2,2.3-0.2c0.9,0,1.6,0.2,2.2,0.4c0.6,0.2,0.8,0.4,0.8,0.7
				c-0.1,0.2-0.4,0.4-1.1,0.6c-0.7,0.1-1.4,0.2-2.3,0.2c-0.7,0-1.4-0.1-1.9-0.3V68L22.4,68z"/>
			
				<radialGradient id="SVGID_20_" cx="-1121.4399" cy="1802.1514" r="3.784" gradientTransform="matrix(-0.4609 0.0199 -0.0015 0.1613 -483.7272 -199.7581)" gradientUnits="userSpaceOnUse">
				<stop  offset="0" style="stop-color:#FFFFFF"/>
				<stop  offset="0.1647" style="stop-color:#FFFFFF;stop-opacity:0.651"/>
				<stop  offset="0.3608" style="stop-color:#FFFFFF;stop-opacity:0.2784"/>
				<stop  offset="0.502" style="stop-color:#FFFFFF;stop-opacity:0.0863"/>
				<stop  offset="0.698" style="stop-color:#FFFFFF;stop-opacity:0.0667"/>
				<stop  offset="0.8588" style="stop-color:#FFFFFF;stop-opacity:0.0275"/>
				<stop  offset="1" style="stop-color:#FFFFFF;stop-opacity:0"/>
			</radialGradient>
			<path fill="url(#SVGID_20_)" d="M31.7,68.2V69l0,0c-0.4,0.1-0.8,0.2-1.2,0.2s-0.8,0-1.1-0.1l-0.2-0.9l0,0
				c0.3-0.1,0.7-0.2,1.2-0.2S31.3,68,31.7,68.2C31.6,68.1,31.6,68.1,31.7,68.2z"/>
		</g>
		<g>
			<path fill="#6AB3D0" d="M15.4,98.3c0.7-0.7,2.1-0.9,4.1-0.6c1.9,0.4,3.3,0.7,4,0.8s2.3,0.3,4.8,0.5c1,0.1,1.8,0.3,2.5,0.5
				c0.9,0.2,1.5,0.4,1.6,0.7c0.2,0.4,0.5,1.4,1.1,3c0.2,0.6,0.3,1.1,0.4,1.5c0,0.1,0,0.1,0,0.2c0,0.3,0.1,0.6,0.1,0.9
				c0.2,1.4-0.1,2.2-0.8,2.4c-0.7,0.2-1.8,0.1-3.3-0.1c-0.1,0-0.1,0-0.3,0c-1.5-0.3-3.1-0.6-4.9-1c-1.9-0.4-2.9-0.6-3.1-0.6
				c-0.7,0-1.1,0-1.4,0.1c-0.5,0.1-0.8,0.3-0.8,0.7c0,0.6,0.3,1.2,1,1.8l-3.2,1c-0.2-0.1-0.4-0.3-0.5-0.3c-1.7-1.4-2.7-3-2.8-4.7
				c0-0.1-0.1-0.1-0.1-0.2s0-0.3,0-0.4C13.9,102.1,14.4,100.1,15.4,98.3z M11.6,85.4c0.3-0.3,0.6-0.7,0.9-1.3
				c0.4-0.6,1.1-0.9,2.1-0.9s2,0.1,3,0.3c0.9,0.2,1.9,0.3,3,0.5h0.1c1.1,0.1,2.2,0.3,3.3,0.5c1,0.2,1.9,0.3,2.5,0.5
				c0.6,0.1,1.5,0.3,2.6,0.6c0.2,0,0.3,0.1,0.5,0.1c0.3,0.1,0.7,0.2,1,0.4c0.7,0.3,1.3,0.6,2,1.1c0.1,0.2,0.3,0.4,0.4,0.6
				c0.2,0.5,0.4,1.1,0.5,1.7s0.1,1.2,0.1,1.9c0,0.9-0.7,2-2,3.4c0,0.1-0.1,0.1-0.1,0.2c-0.4,0.2-0.6,0.3-0.9,0.4
				c-0.2,0.1-0.3,0.2-0.4,0.2c-0.8,0.3-1.8,0.4-2.9,0.4c-1.4,0-2.7-0.1-4.1-0.4c-1.7-0.3-3.3-0.5-4.8-0.6c-0.7,0-1.4-0.1-2.1-0.4
				c-0.9-0.3-1.8-0.6-2.8-0.9c-0.5-0.2-1.1-0.4-1.6-0.6c-0.1-0.2-0.2-0.5-0.4-0.8c-0.4-1-0.6-2.4-0.6-4.1c0-0.2,0-0.4,0-0.5
				c0.1-0.8,0.2-1.5,0.3-2.1C11.5,85.5,11.6,85.4,11.6,85.4z M25.5,82.4c-0.1-0.1-0.2-0.1-0.3-0.1c-0.7-0.1-1.6-0.3-2.8-0.5
				c-1.2-0.3-2.8-0.6-4.6-1c-0.9-0.2-1.8-0.5-2.6-0.8c-2-0.5-3.3-0.9-3.8-1.3c-1.5-1-2.3-3-2.3-5.9c0-0.5,0-1,0-1.4
				c0-0.2,0-0.5,0-0.7c0-1,0.1-1.6,0.2-2c0.2-0.5,0.5-1.1,1-1.8c0.8,0,3.3,0.3,7.3,0.9c1.5,0.2,2.9,0.4,4.2,0.6c0.1,0,0.3,0,0.4,0
				c0.8,0.1,1.6,0.3,2.3,0.4c1.5,0.2,2.7,0.4,3.4,0.6c0.8,0.2,1.4,0.6,1.9,1.3c0.1,0.1,0.2,0.2,0.3,0.4c0.1,0.1,0.2,0.2,0.2,0.3
				c0.1,0.2,0.2,0.4,0.4,0.6c0.2,0.3,0.4,0.5,0.5,0.7c0.1,0.2,0.2,1.6,0.2,4.3c0.3,2.6,0.1,4.2-0.6,4.9c-0.3,0.2-0.6,0.3-1,0.3
				C28.3,81.9,26.9,82,25.5,82.4z M25.7,66.9C24.6,67,24.1,67,24,67c-0.8-0.2-1.6-0.4-2.4-0.6c-0.4-0.1-0.7-0.2-1.1-0.3
				c-1.2-0.4-2.5-0.8-3.8-1.2c-1-0.4-2-0.7-3-1c-3.3-1.2-5.6-2.4-6.9-3.4c-0.1,0-0.2-0.2-0.4-0.4c-0.1-0.2-0.3-0.4-0.5-0.6
				c-0.1-0.1-0.2-0.2-0.3-0.3C5.5,59.1,5.5,59,5.5,59c-0.4-0.4-0.7-0.9-0.9-1.6c0-0.2,0-0.7,0-1.5c0-2.7,2.9-5.9,8.5-9.4l3.6,1.5
				c0,0-0.1,0-0.1,0.1c0.3,0.1,1,0.4,2.1,0.8c1.1,0.4,0.5,1-1.8,1.7c-0.9,0.5-1.3,1.1-1.2,1.6c0.1,0.6,1.5,0.8,4.3,0.6
				c2.8-0.1,5,0,6.5,0.4c1.5,0.4,2.4,1.1,2.8,1.9c0.1,0.2,0.1,0.4,0.1,0.6c-0.1,0.5-0.1,1.1-0.1,1.8c-0.1,0.9-0.3,1.8-0.4,2.6
				C28.2,63.9,27.1,66.2,25.7,66.9z M26.3,73.5c0,0.2,0.1,0.4,0.2,0.6c0.1,0.4,0.1,0.8,0.1,1.1c0.2,0.7,0.3,1.1,0.4,1.2
				c0.2-0.1,0.3-0.2,0.3-0.5c0.1-0.1,0.2-0.3,0.3-0.6c0.1-0.6,0.2-1,0.2-1v-0.9h-1.5V73.5z M11.8,57.9c0.3,0.4,0.8,0.7,1.5,0.9
				c0.6,0.3,1.7,0.7,3.2,1.3c0.1,0,0.2,0.1,0.4,0.1h1.4c0-0.1,0-0.1,0-0.1c-0.1-0.2-0.1-0.4-0.3-0.6c-1-0.3-3.1-1-6.2-2.1V57.9z
				 M16.3,58c0.3,0.2,0.5,0.3,0.9,0.4C16.8,58.2,16.6,58.1,16.3,58L16.3,58z M18.7,89.6c0.1,0,0.1,0,0.2,0c1.4,0.2,3.5,0.4,6.4,0.4
				c-0.2-0.3-0.8-0.7-1.9-1s-1.8-0.5-1.9-0.5h-2.7C18.8,88.6,18.8,89,18.7,89.6z"/>
			<path fill="#3586A8" d="M20.5,108.8c-0.6-0.5-1-1.1-1-1.8c0-0.4,0.3-0.6,0.8-0.7c0.2-0.1,0.6-0.1,1.4-0.1c0.2,0,1.3,0.2,3.1,0.6
				c1.7,0.4,3.4,0.7,4.9,1c0.1,0,0.2,0,0.3,0c1.5,0.3,2.6,0.3,3.3,0.1c0.7-0.1,1-0.9,0.8-2.4c0-0.3,0-0.5-0.1-0.9c0-0.1,0-0.1,0-0.2
				c-0.1-0.4-0.3-0.9-0.4-1.5c-0.5-1.5-0.9-2.5-1.1-3c-0.2-0.3-0.7-0.5-1.6-0.7c-0.6-0.2-1.5-0.3-2.5-0.5c-2.5-0.3-4-0.5-4.8-0.5
				c-0.8-0.1-2.1-0.4-4-0.8c-2-0.3-3.4-0.1-4.1,0.6c0.5-0.9,1.1-1.8,1.9-2.6c-1.8-0.2-3-0.6-3.6-1c-0.6-0.3-1.1-0.8-1.5-1.5
				c0.5,0.3,1,0.5,1.6,0.6c1,0.3,1.9,0.6,2.8,0.9c0.7,0.2,1.4,0.3,2.1,0.4c1.5,0.1,3.1,0.3,4.8,0.6c1.3,0.3,2.7,0.4,4.1,0.4
				c1.1,0,2.1-0.1,2.9-0.4c0.1,0,0.2-0.1,0.4-0.2c0.2-0.1,0.5-0.3,0.9-0.4c0,0,0.1-0.1,0.1-0.2c1.4-1.4,2-2.6,2-3.4
				c0-0.6,0-1.3-0.1-1.9c-0.1-0.6-0.3-1.2-0.5-1.7c-0.1-0.3-0.2-0.5-0.4-0.6c-0.7-0.5-1.3-0.9-2-1.1c-0.3-0.2-0.7-0.3-1-0.4
				c-0.2,0-0.3-0.1-0.5-0.1c-1.1-0.3-2-0.5-2.6-0.6c-0.6-0.2-1.5-0.3-2.5-0.5c-1.1-0.2-2.2-0.4-3.3-0.5c-0.1,0-0.1,0-0.1,0
				c-1.2-0.2-2.2-0.3-3-0.5c-0.9-0.2-1.9-0.3-3-0.3s-1.8,0.3-2.1,0.9c-0.3,0.5-0.5,0.9-0.9,1.3c0.1-0.5,0.2-0.9,0.5-1.3
				c0.1-0.3,0.3-0.6,0.5-1c0.6-0.8,1.5-1.9,2.6-3.1c0.8,0.3,1.6,0.5,2.6,0.8c1.9,0.3,3.4,0.6,4.6,1c1.2,0.2,2.1,0.4,2.8,0.5
				c0.1,0,0.2,0,0.3,0.1c2.4,0.4,4.1,0.7,5.2,0.7c0.1,0,0.1,0,0.3,0c1.6,0,3.7-0.4,6.1-1.3c0.2-0.1,0.3-0.2,0.5-0.3
				c0.3-0.1,0.6-0.2,0.9-0.3c1.5-0.5,3.7-1.4,6.7-2.6c-3,1.2-5.2,2.1-6.7,2.6c-0.3,0.1-0.6,0.2-0.9,0.3c-0.2,0.1-0.3,0.1-0.5,0.3
				c-2.8,1-4.9,1.4-6.5,1.4c-0.1,0-0.2,0-0.3,0c-1.1,0-2.8-0.3-5.2-0.7c1.3-0.4,2.7-0.5,4.2-0.3c0.4,0,0.7-0.1,1-0.3
				c0.7-0.6,0.9-2.3,0.6-4.9c0-2.6-0.1-4-0.2-4.3c-0.1-0.2-0.2-0.4-0.5-0.7c-0.1-0.2-0.3-0.4-0.4-0.6c0-0.1-0.1-0.2-0.2-0.3
				c-0.1-0.2-0.2-0.3-0.3-0.4c-0.5-0.6-1.1-1-1.9-1.3c-0.7-0.2-1.9-0.4-3.4-0.6c-0.7-0.1-1.4-0.2-2.3-0.4c-0.2,0-0.3,0-0.4,0
				c-1.2-0.2-2.6-0.4-4.2-0.6c-4.1-0.5-6.5-0.8-7.3-0.9c0.7-0.9,1.8-1.9,3.3-3.1c1,0.3,2,0.7,3,1c1.3,0.4,2.6,0.8,3.8,1.2
				c0.4,0.1,0.7,0.1,1.1,0.3c0.8,0.2,1.6,0.4,2.4,0.6c0.1,0,0.6,0,1.7-0.1c1.4-0.7,2.5-3,3.3-6.8c0.1-0.8,0.3-1.7,0.4-2.6
				c0-0.6,0.1-1.2,0.1-1.8c0-0.2-0.1-0.4-0.1-0.6c-0.3-0.8-1.3-1.4-2.8-1.9c-1.5-0.4-3.7-0.5-6.5-0.4c-2.8,0.2-4.2,0-4.3-0.6
				c-0.1-0.5,0.3-1.1,1.2-1.6c2.3-0.7,2.9-1.3,1.8-1.7s-1.8-0.7-2.1-0.8c0.7,0.1,1.8,0.4,3.1,0.6c2.4,0.5,4,1.2,4.9,2
				c0.4-0.1,0.8-0.1,1.3-0.1c2-0.1,4-0.2,5.9-0.3c1.9-0.1,3.8-0.1,5.5,0c3.4,0,6.1,0.9,8.2,2.6c2.2,1.7,3.1,3.8,2.6,6.3
				c-0.4,2.5-0.8,3.9-1.2,4.4c-1,1-2.2,1.5-3.5,1.6c5.5,2.7,7.3,6.7,5.3,12.1c-1.2,0.5-2.3,1-3.3,1.4c1.6,0.9,2.8,2.4,3.6,4.5
				c0.4,0.6,0.5,1.7,0.4,3.3c-0.1,1.5-1.2,3-3.3,4.5c-2,1.5-3.2,2.3-3.6,2.6c-0.3,0.1-0.5,0.3-0.7,0.4c1.9,0.4,3.1,0.7,3.8,1
				c0.7,0.3,1.2,1.3,1.4,3c0.2,1.7,0.2,2.9-0.2,3.7c-0.3,0.8-1,1.7-2.1,2.5c-1.1,0.8-2.5,1.8-4.1,2.9c-2.4,1.6-4.3,2.4-5.6,2.6
				c-0.2,0-0.4,0-0.6,0c-2.3-0.1-4.3-0.2-6-0.3c-0.2,0-0.3,0-0.5,0c-2.6-0.2-4.2-0.4-4.9-0.7h-1.7L20.5,108.8z M25.7,66.9
				c1.6-0.2,4.3-0.4,8.1-0.9c1.7-0.2,3.2-0.3,4.7-0.4c1.7-0.2,3.3-0.3,4.8-0.5c-1.4,0.1-3,0.3-4.8,0.5c-1.5,0.1-3,0.3-4.7,0.4
				C30,66.5,27.3,66.7,25.7,66.9z M17.3,95.6c1.1,0.1,2.4,0.3,4,0.4c0.6,0,2.7,0.4,6.3,1c0.4,0.1,0.9,0.2,1.3,0.3
				c0.7,0.1,1.4,0.2,2,0.4c1.7,0.2,2.8,0.4,3.2,0.4c0.6,0,1.7-0.4,3.2-1.3c0.9-0.5,2.4-1.4,4.5-2.8c-2.1,1.4-3.6,2.3-4.5,2.8
				C35.6,97.5,34.5,98,34,98c-0.4,0-1.5-0.1-3.2-0.4c-0.6-0.1-1.3-0.3-2-0.4c-0.4-0.1-0.8-0.1-1.3-0.3c-3.7-0.7-5.8-1-6.3-1
				C19.7,95.9,18.4,95.7,17.3,95.6z M19.5,51.1c0.1,0,1.8-0.1,5.1-0.4C21.3,51,19.6,51.1,19.5,51.1z"/>
			<path fill="#9FE8F9" d="M26.3,73.5h1.5v0.9c0,0.1-0.1,0.4-0.2,1c-0.1,0.3-0.1,0.5-0.3,0.6c-0.1,0.2-0.2,0.4-0.3,0.5
				c-0.1-0.1-0.2-0.5-0.4-1.2c0-0.3-0.1-0.7-0.1-1.1C26.4,73.9,26.3,73.7,26.3,73.5z M16.3,58L16.3,58c0.3,0.1,0.6,0.2,0.9,0.4
				C16.8,58.3,16.5,58.2,16.3,58z M11.8,57.9v-0.5c3.1,1.2,5.2,1.9,6.2,2.1c0.1,0.2,0.2,0.4,0.3,0.6v0.1h-1.4
				c-0.2-0.1-0.3-0.1-0.4-0.1c-1.5-0.6-2.6-1-3.2-1.3C12.6,58.6,12.1,58.3,11.8,57.9z M18.7,89.6c0.1-0.6,0.1-1,0.1-1.1h2.7
				c0.2,0,0.8,0.2,1.9,0.5s1.7,0.6,1.9,1c-2.9,0-5-0.1-6.4-0.4C18.8,89.6,18.8,89.6,18.7,89.6z"/>
			
				<path fill="none" stroke="#0F5768" stroke-width="0.1" stroke-linecap="round" stroke-linejoin="round" stroke-miterlimit="3" d="
				M16.6,48.1c0.7,0.1,1.8,0.4,3.1,0.6c2.4,0.5,4,1.2,4.9,2c0.4-0.1,0.8-0.1,1.3-0.1c2-0.1,4-0.2,5.9-0.3c1.9-0.1,3.8-0.1,5.5,0
				c3.4,0,6.1,0.9,8.2,2.6c2.2,1.7,3.1,3.8,2.6,6.3c-0.4,2.5-0.8,3.9-1.2,4.4c-1,1-2.2,1.5-3.5,1.6c5.5,2.7,7.3,6.7,5.3,12.1
				c-1.2,0.5-2.3,1-3.3,1.4c1.6,0.9,2.8,2.4,3.6,4.5c0.4,0.6,0.5,1.7,0.4,3.3c-0.1,1.5-1.2,3-3.3,4.5c-2,1.5-3.2,2.3-3.6,2.6
				c-0.3,0.1-0.5,0.3-0.7,0.4c1.9,0.4,3.1,0.7,3.8,1c0.7,0.3,1.2,1.3,1.4,3s0.2,2.9-0.2,3.7c-0.3,0.8-1,1.7-2.1,2.5
				c-1.1,0.8-2.5,1.8-4.1,2.9c-2.4,1.6-4.3,2.4-5.6,2.6c-0.2,0-0.4,0-0.6,0c-2.3-0.1-4.3-0.2-6-0.3c-0.2,0-0.3,0-0.5,0
				c-2.6-0.2-4.2-0.4-4.9-0.7h-1.7 M17.3,109.8c-0.2-0.1-0.4-0.3-0.5-0.3c-1.7-1.4-2.7-3-2.8-4.7c0-0.1-0.1-0.1-0.1-0.2s0-0.3,0-0.4
				c0-2.1,0.5-4.1,1.5-6c0.5-0.9,1.1-1.8,1.9-2.6c-1.8-0.2-3-0.6-3.6-1c-0.6-0.3-1.1-0.8-1.5-1.5c-0.1-0.2-0.2-0.5-0.4-0.8
				c-0.4-1-0.6-2.4-0.6-4.1c0-0.2,0-0.4,0-0.5c0.1-0.8,0.2-1.5,0.3-2.1c0-0.1,0-0.2,0.1-0.3c0.1-0.5,0.2-0.9,0.5-1.3
				c0.1-0.3,0.3-0.6,0.5-1c0.6-0.8,1.5-1.9,2.6-3.1c-2-0.5-3.3-0.9-3.8-1.3c-1.5-1-2.3-3-2.3-5.9c0-0.5,0-1,0-1.4c0-0.2,0-0.5,0-0.7
				c0-1,0.1-1.6,0.2-2c0.2-0.5,0.5-1.1,1-1.8c0.7-0.9,1.8-1.9,3.3-3.1c-3.3-1.2-5.6-2.4-6.9-3.4c-0.1,0-0.2-0.2-0.4-0.4
				c-0.1-0.2-0.3-0.4-0.5-0.6c-0.1-0.1-0.2-0.2-0.3-0.3c0,0.1,0,0,0,0c-0.4-0.4-0.7-0.9-0.9-1.6c0-0.2,0-0.7,0-1.5
				c0-2.7,2.9-5.9,8.5-9.4 M13.7,64c1,0.3,2,0.7,3,1c1.3,0.4,2.6,0.8,3.8,1.2c0.4,0.1,0.7,0.1,1.1,0.3c0.8,0.2,1.6,0.4,2.4,0.6
				c0.1,0,0.6,0,1.7-0.1c1.6-0.2,4.3-0.4,8.1-0.9c1.7-0.2,3.2-0.3,4.7-0.4c1.7-0.2,3.3-0.3,4.8-0.5 M25.5,82.4
				c2.4,0.4,4.1,0.7,5.2,0.7c0.1,0,0.1,0,0.3,0c1.6,0,3.7-0.4,6.1-1.3c0.2-0.1,0.3-0.2,0.5-0.3c0.3-0.1,0.6-0.2,0.9-0.3
				c1.5-0.5,3.7-1.4,6.7-2.6 M25.5,82.4c-0.1-0.1-0.2-0.1-0.3-0.1c-0.7-0.1-1.6-0.3-2.8-0.5c-1.2-0.3-2.8-0.6-4.6-1
				c-0.9-0.2-1.8-0.5-2.6-0.8 M17.3,95.6c1.1,0.1,2.4,0.3,4,0.4c0.6,0,2.7,0.4,6.3,1c0.4,0.1,0.9,0.2,1.3,0.3c0.7,0.1,1.4,0.2,2,0.4
				c1.7,0.2,2.8,0.4,3.2,0.4c0.6,0,1.7-0.4,3.2-1.3c0.9-0.5,2.4-1.4,4.5-2.8 M19.5,51.1c0.1,0,1.8-0.1,5.1-0.4"/>
		</g>
		<g>
			<path fill="#6AB3D0" d="M58.3,35L58.3,35c-1.2-1.1-2.9-2.2-5-3.3c-2.5-1.1-4.4-2-5.6-2.5c-4.2-2.3-6.8-5.7-7.8-10.4
				c-0.3-1.7,0.1-3.5,1.1-5.4c0.1-0.4,0.3-0.8,0.5-1.1c1-0.1,2.2,0.1,3.6,0.5c0.7,1,3.5,2.9,8.4,5.6c4.8,2.7,7.8,4.1,9,4.3
				c0.6,0,1.3,0.4,2.2,1c0,0,0,0.1,0.1,0.1c-0.3,0.5-0.7,1.1-1.1,1.8c-0.4,0.7-1,1.4-1.8,2.2v0.8C60.5,30.5,59.3,32.6,58.3,35z
				 M50.5,20.6L48.8,21c0.7,0.5,1.7,1.3,3.1,2.3c0.1,0.1,0.3,0.2,0.4,0.3c2.3,1.6,3.6,2.6,3.9,2.8c4.6,2.9,6.2,3.5,4.8,1.8
				c-3.8-2.4-6.4-4.1-7.7-5.2C52.2,21.9,51.2,21.1,50.5,20.6z"/>
			<path fill="#3586A8" d="M41.5,12.3c-0.2,0.3-0.4,0.7-0.5,1.1c-1,2-1.4,3.8-1.1,5.4c1,4.7,3.6,8.1,7.8,10.4
				c1.2,0.6,3.1,1.4,5.6,2.5c2.2,1.1,3.8,2.2,5,3.3l0,0c0,0.2,0.2,0.8,0.7,2c0.3,1.1-0.6,2.5-2.7,4.3c-0.1,0.1-0.1,0.3-0.1,0.4
				l-3.9-2.5c-5.8-2.7-9.4-5-10.9-6.9c-1.5-2.1-2.7-4.2-3.5-6.3c-0.8-2.1-1.2-4.2-1.2-6.1c0-2,0.6-3.9,1.9-5.5
				C39.1,13.1,40.1,12.4,41.5,12.3z"/>
			<path fill="#9FE8F9" d="M50.5,20.6c0.8,0.5,1.7,1.2,2.8,2.2c1.3,1.1,3.8,2.8,7.7,5.2c1.4,1.7-0.2,1.1-4.8-1.8
				c-0.3-0.2-1.6-1.1-3.9-2.8c-0.1-0.1-0.3-0.2-0.4-0.3c-1.4-1-2.4-1.8-3.1-2.3L50.5,20.6z"/>
			
				<path fill="none" stroke="#0F5768" stroke-width="0.1" stroke-linecap="round" stroke-linejoin="round" stroke-miterlimit="3" d="
				M41.5,12.3c1-0.1,2.2,0.1,3.6,0.5c0.7,1,3.5,2.9,8.4,5.6c4.8,2.7,7.8,4.1,9,4.3c0.6,0,1.3,0.4,2.2,1 M56.1,41.6l-3.9-2.5
				c-5.8-2.7-9.4-5-10.9-6.9c-1.5-2.1-2.7-4.2-3.5-6.3c-0.8-2.1-1.2-4.2-1.2-6.1c0-2,0.6-3.9,1.9-5.5c0.6-1.3,1.6-2,3-2.1"/>
		</g>
	</g>
</g>
</svg>
