<?xml version="1.0" encoding="utf-8"?>
<!-- Generator: Adobe Illustrator 16.0.0, SVG Export Plug-In . SVG Version: 6.00 Build 0)  -->
<!DOCTYPE svg PUBLIC "-//W3C//DTD SVG 1.1//EN" "http://www.w3.org/Graphics/SVG/1.1/DTD/svg11.dtd">
<svg version="1.1" id="Layer_1" xmlns="http://www.w3.org/2000/svg" xmlns:xlink="http://www.w3.org/1999/xlink" x="0px" y="0px"
	 width="150px" height="330px" viewBox="0 0 150 330" enable-background="new 0 0 150 330" xml:space="preserve">
<g id="Layer_1_1_" opacity="0.5">
	<g>
		<g>
			<g>
				<path fill="#FFFFFF" fill-opacity="0.7333" d="M31.6,122.5v11.8l0.1,0.8c0.2,0.9,0.5,1.6,0.9,2.2c0.4,0.6,0.8,1.2,1.3,1.6
					L34,139l1.2,0.9c3.8,2.1,5.6,4,5.4,5.8v22.7c-0.4,1.7-2.3,3.3-5.5,4.8c-3.4,1.5-5.3,2.9-5.6,4.2v135.7l-1.8,7.5
					c-1,0.3-1.9,0.3-2.6,0l-2.1-7.7h-0.1L23,177.4l-0.1-0.8c-0.3-1-1.5-2.1-3.7-3.3c-3.2-1.1-5.1-2.7-5.7-4.8h-0.1v-22.6l0.1-0.1
					c0-2.1,2.1-4,6.4-5.9H20c1.4-0.6,2.4-1.5,3-2.5c0.5-0.7,0.8-1.4,1-2.2l0.1-0.8v-11.8h7.5V122.5z"/>
			</g>
		</g>
	</g>
</g>
</svg>
