<?xml version="1.0" encoding="utf-8"?>
<!-- Generator: Adobe Illustrator 16.0.0, SVG Export Plug-In . SVG Version: 6.00 Build 0)  -->
<!DOCTYPE svg PUBLIC "-//W3C//DTD SVG 1.1//EN" "http://www.w3.org/Graphics/SVG/1.1/DTD/svg11.dtd">
<svg version="1.1" id="Layer_1" xmlns="http://www.w3.org/2000/svg" xmlns:xlink="http://www.w3.org/1999/xlink" x="0px" y="0px"
	 width="33px" height="111px" viewBox="0 0 33 111" enable-background="new 0 0 33 111" xml:space="preserve">
<g>
	<g>
		<g>
			<path fill-rule="evenodd" clip-rule="evenodd" fill="#660F0E" d="M7.4,12.1c-0.9-0.2-1.5-0.4-1.7-0.6l0-0.1v0l0-0.1
				c0.2-0.3,0.8-0.5,1.7-0.6V12.1z M27.5,12.1v-1.5c1.2,0.2,1.8,0.5,1.8,0.8v0C29.3,11.7,28.8,11.9,27.5,12.1z"/>
			
				<linearGradient id="SVGID_1_" gradientUnits="userSpaceOnUse" x1="-547.7754" y1="-452.9502" x2="-523.1001" y2="-452.9502" gradientTransform="matrix(-1 0 0 -1 -518 -444)">
				<stop  offset="0" style="stop-color:#F54541"/>
				<stop  offset="0.2353" style="stop-color:#D10E0A"/>
				<stop  offset="0.302" style="stop-color:#FF6C69"/>
				<stop  offset="0.3725" style="stop-color:#D00E0A"/>
				<stop  offset="0.6941" style="stop-color:#CD0D0A"/>
				<stop  offset="0.749" style="stop-color:#A10A08"/>
				<stop  offset="1" style="stop-color:#640504"/>
			</linearGradient>
			<path fill-rule="evenodd" clip-rule="evenodd" fill="url(#SVGID_1_)" d="M29.3,11.4c0-0.3-0.6-0.5-1.8-0.8
				c-0.5-0.1-1.1-0.2-1.7-0.2c-2.3-0.3-5.1-0.4-8.4-0.4c-3.3,0-6.1,0.1-8.4,0.4c-0.6,0-1.2,0.1-1.7,0.2c-0.9,0.2-1.5,0.4-1.7,0.6
				l0,0.1C5.3,11,5.2,10.5,5.1,10c0-0.5,0-0.9,0.1-1.2c0.3-0.6,0.5-1,0.6-1.3C6,7.4,7.1,7.1,9,6.9c2.3-0.2,5.1-0.3,8.4-0.3
				c3.3,0,6.1,0.1,8.4,0.3C28,7.2,29.1,7.5,29.3,8C29.9,9,29.9,10.1,29.3,11.4z"/>
			
				<linearGradient id="SVGID_2_" gradientUnits="userSpaceOnUse" x1="-545.5498" y1="-491.25" x2="-525.3501" y2="-491.25" gradientTransform="matrix(-1 0 0 -1 -518 -444)">
				<stop  offset="0" style="stop-color:#F54541"/>
				<stop  offset="0.2353" style="stop-color:#D10E0A"/>
				<stop  offset="0.302" style="stop-color:#FF6C69"/>
				<stop  offset="0.3725" style="stop-color:#D00E0A"/>
				<stop  offset="0.6941" style="stop-color:#CD0D0A"/>
				<stop  offset="0.749" style="stop-color:#A10A08"/>
				<stop  offset="1" style="stop-color:#640504"/>
			</linearGradient>
			<path fill-rule="evenodd" clip-rule="evenodd" fill="url(#SVGID_2_)" d="M27.5,84c-0.5,0.1-1.3,0.2-2.1,0.3
				c-2.3,0.2-5,0.3-8.3,0.3c-3.2,0-5.9-0.1-8.2-0.3c-0.6-0.1-1.1-0.1-1.4-0.2L7.4,84V12.1v-1.5c0.5-0.1,1.1-0.2,1.7-0.2
				c2.3-0.3,5.1-0.4,8.4-0.4c3.3,0,6.1,0.1,8.4,0.4c0.6,0,1.2,0.1,1.7,0.2v1.5V84z"/>
			<path fill-rule="evenodd" clip-rule="evenodd" fill="#BF0C09" d="M7.5,84.1c0.3,0,0.8,0.1,1.4,0.2c2.3,0.2,5,0.3,8.2,0.3
				c3.3,0,6-0.1,8.3-0.3c0.9-0.1,1.6-0.2,2.1-0.3l-2.8,3.3v0.1c-5,0.7-10,0.7-15.1,0L7.5,84.1z"/>
			
				<linearGradient id="SVGID_3_" gradientUnits="userSpaceOnUse" x1="-539.5068" y1="-560.0303" x2="-524.5146" y2="-560.0303" gradientTransform="matrix(-0.9972 7.503868e-002 -1.107176e-002 -1.002 -519.7278 -425.0075)">
				<stop  offset="0" style="stop-color:#FFFFFF;stop-opacity:0.8706"/>
				<stop  offset="0.4784" style="stop-color:#FFFFFF;stop-opacity:0.451"/>
				<stop  offset="1" style="stop-color:#FFFFFF"/>
			</linearGradient>
			<path fill-rule="evenodd" clip-rule="evenodd" fill="url(#SVGID_3_)" d="M24.8,87.5l-1.3,17.3c-3.9,0.9-7.8,0.9-11.9,0.1
				c-0.1,0-0.2,0-0.4-0.1L9.7,87.5C14.8,88.2,19.8,88.2,24.8,87.5z"/>
			
				<path fill-rule="evenodd" clip-rule="evenodd" fill="none" stroke="#FFFFFF" stroke-width="0.1" stroke-linecap="round" stroke-linejoin="round" stroke-miterlimit="3" stroke-opacity="0.1255" d="
				M29.3,11.4c0.6-1.2,0.6-2.4,0-3.4c-0.2-0.4-1.4-0.8-3.5-1.1c-2.3-0.2-5.1-0.3-8.4-0.3c-3.3,0-6.1,0.1-8.4,0.3
				C7.1,7.1,6,7.4,5.9,7.5C5.7,7.8,5.5,8.2,5.2,8.8C5.1,9.1,5.1,9.5,5.1,10c0.1,0.5,0.2,1,0.5,1.4l0-0.1c0.2-0.3,0.8-0.5,1.7-0.6
				c0.5-0.1,1.1-0.2,1.7-0.2c2.3-0.3,5.1-0.4,8.4-0.4c3.3,0,6.1,0.1,8.4,0.4c0.6,0,1.2,0.1,1.7,0.2C28.8,10.8,29.3,11.1,29.3,11.4z
				 M27.5,12.1c1.2-0.2,1.8-0.4,1.8-0.7v0 M27.5,10.6v1.5 M34,66.9L33.8,67L34,66.9L34,66.9z M27.5,84V12.1 M7.4,10.6v1.5V84
				l0.1,0.1c0.3,0,0.8,0.1,1.4,0.2c2.3,0.2,5,0.3,8.2,0.3c3.3,0,6-0.1,8.3-0.3c0.9-0.1,1.6-0.2,2.1-0.3 M5.6,11.4L5.6,11.4l0,0.1
				c0.2,0.2,0.8,0.4,1.7,0.6 M24.8,87.5c-5,0.7-10,0.7-15.1,0l1.5,17.3 M23.5,104.8l1.3-17.3v-0.1l2.8-3.3 M7.5,84.1l2.2,3.4"/>
		</g>
	</g>
	
		<radialGradient id="SVGID_4_" cx="367.2998" cy="-234.1001" r="7.8036" gradientTransform="matrix(0.4151 -2.861929e-002 -2.754397e-002 -0.1807 -137.5641 73.2188)" gradientUnits="userSpaceOnUse">
		<stop  offset="0" style="stop-color:#FFFFFF"/>
		<stop  offset="0.1647" style="stop-color:#FFFFFF;stop-opacity:0.651"/>
		<stop  offset="0.3608" style="stop-color:#FFFFFF;stop-opacity:0.2784"/>
		<stop  offset="0.502" style="stop-color:#FFFFFF;stop-opacity:0.1098"/>
		<stop  offset="0.698" style="stop-color:#FFFFFF;stop-opacity:6.666667e-002"/>
		<stop  offset="0.8588" style="stop-color:#FFFFFF;stop-opacity:2.745098e-002"/>
		<stop  offset="1" style="stop-color:#FFFFFF;stop-opacity:0"/>
	</radialGradient>
	<path fill-rule="evenodd" clip-rule="evenodd" fill="url(#SVGID_4_)" d="M23.4,103.9c-0.7-0.2-1.4-0.3-2.3-0.3
		c-0.9,0.1-1.6,0.3-2.2,0.6c-0.6,0.3-0.8,0.7-0.8,1.1c0.1,0.4,0.4,0.7,1.1,0.9c0.7,0.2,1.4,0.3,2.3,0.3c0.7,0,1.4-0.2,1.9-0.4
		L23.4,103.9C23.5,103.9,23.4,103.9,23.4,103.9z"/>
	
		<radialGradient id="SVGID_5_" cx="-895.853" cy="-247.4854" r="3.7817" gradientTransform="matrix(0.7351 3.170859e-002 -2.434055e-003 -0.2572 671.5135 68.7731)" gradientUnits="userSpaceOnUse">
		<stop  offset="0" style="stop-color:#FFFFFF"/>
		<stop  offset="0.1647" style="stop-color:#FFFFFF;stop-opacity:0.651"/>
		<stop  offset="0.3608" style="stop-color:#FFFFFF;stop-opacity:0.2784"/>
		<stop  offset="0.502" style="stop-color:#FFFFFF;stop-opacity:0.1059"/>
		<stop  offset="0.698" style="stop-color:#FFFFFF;stop-opacity:6.666667e-002"/>
		<stop  offset="0.8588" style="stop-color:#FFFFFF;stop-opacity:2.745098e-002"/>
		<stop  offset="1" style="stop-color:#FFFFFF;stop-opacity:0"/>
	</radialGradient>
	<path fill-rule="evenodd" clip-rule="evenodd" fill="url(#SVGID_5_)" d="M11.6,103.3v1.3c0,0,0,0,0,0c0.6,0.2,1.2,0.4,2,0.4
		c0.6,0,1.2,0,1.7-0.1l0.3-1.4h0c-0.5-0.2-1.2-0.3-2-0.4C12.8,103,12.2,103.1,11.6,103.3C11.6,103.3,11.6,103.3,11.6,103.3z"/>
</g>
</svg>
