<?xml version="1.0" encoding="utf-8"?>
<!-- Generator: Adobe Illustrator 16.0.0, SVG Export Plug-In . SVG Version: 6.00 Build 0)  -->
<!DOCTYPE svg PUBLIC "-//W3C//DTD SVG 1.1//EN" "http://www.w3.org/Graphics/SVG/1.1/DTD/svg11.dtd">
<svg version="1.1" id="Layer_1" xmlns="http://www.w3.org/2000/svg" xmlns:xlink="http://www.w3.org/1999/xlink" x="0px" y="0px"
	 width="108px" height="424px" viewBox="0 0 108 424" enable-background="new 0 0 108 424" xml:space="preserve">
<g>
	<path fill-rule="evenodd" clip-rule="evenodd" fill="#FFFFFF" fill-opacity="0.7451" d="M79.2,49.5L79.2,49.5l-42.8-0.1
		c0.1,0,0.2,0.1,0.2,0.1V254v4.3h0.1c2.8,0.7,5.3,2.2,7.5,4.5c3.3,3.2,4.9,7.1,4.9,11.7v59.4c0,3.4-0.9,6.5-2.8,9.2
		c-0.6,0.9-1.3,1.8-2.1,2.6c-2.2,2.2-4.7,3.7-7.6,4.4v28.3v4.5c0,0.2,0,0.3,0.1,0.5c0.6,4.5,2.5,8.4,5.8,11.7c3.9,4,8.7,6,14.3,6
		c5.6,0,10.4-2,14.3-6c3.3-3.3,5.3-7.2,5.8-11.7c0-0.1,0-0.3,0-0.5v-52.2c0-1.8,0.7-3.1,2.3-4v0h4.5v-1.9v-2.4V183.6
		c-1.5-0.3-3-0.9-4.5-1.6c-0.7-0.5-1.4-1.1-2-1.8c-2.6-2.6-3.9-5.7-3.9-9.5c0-3.7,1.3-6.8,3.9-9.4c0.6-0.6,1.3-1.2,2-1.7l0-0.1v-8.9
		v-1.2l-0.3-0.1c-2.6-0.7-5-2.2-7.2-4.4c-3.3-3.3-4.9-7.2-4.9-11.8v-35c0-4.7,1.6-8.7,4.9-11.8c1.1-1,2.3-1.9,3.7-2.6
		c0.6-0.3,1.8-0.8,3.8-1.4V57.2V49.5z M18.4,3.4h18.3v11.8v6v20.3h42.6v-0.1V34V21.1v-6V3.4h15v11.8v6v20.3v8v33.1v0
		c2.2,0.8,4.2,2.1,6,4c3.3,3.3,4.9,7.2,4.9,11.8v35c0,4.6-1.6,8.5-4.9,11.8c-1.8,1.8-3.9,3.3-6,4.4v1.1v9c0,0-0.1,0.1-0.1,0.1
		c0,0.1,0.1,0.1,0.1,0.1c0.6,0.5,1.2,1,1.8,1.5c2.6,2.6,4,5.7,4,9.4c0,3.7-1.3,6.9-4,9.5c-0.5,0.5-1,1-1.6,1.4
		c-0.1,0.1-0.2,0.1-0.2,0.1v0c-1.5,0.8-3,1.4-4.5,1.8v138.6v2.4v1.9h4.5v0l-0.1,0.1l0,0l0.1,0c0.8,0.4,1.3,1,1.7,1.6l0.6,2.4
		c0,0,0,0.1,0,0.1c0,0,0,0.1,0,0.1c0,0,0,0.1,0,0.1c0,0,0,0.1,0,0.1c0,0,0,0.1,0,0.1v50.2c0,0.6,0,1.1-0.1,1.8
		c-0.2,3.7-1,7.2-2.1,10.5c-1.8,5.3-4.9,10.1-9.2,14.3c-1.8,1.9-3.8,3.5-5.8,4.9c-0.7,0.5-1.5,1-2.3,1.5c-5.8,3.5-12.4,5.2-19.5,5.2
		c-7.8,0-14.7-2-20.8-6c-2.4-1.5-4.6-3.4-6.8-5.5c-3.5-3.5-6.2-7.2-8-11.3c-1.7-3.8-2.9-8.3-3.4-13.5c-0.1-0.1-0.1-0.3-0.1-0.5
		v-32.8c-2.8-0.7-5.3-2.2-7.5-4.4c-3.3-3.3-4.9-7.2-4.9-11.8v-59.4c0-4.6,1.6-8.5,4.9-11.7c2.2-2.2,4.6-3.7,7.4-4.4
		c0-0.1,0.1-0.1,0.1-0.1V254V49.4v-8V21.1v-6V3.4z"/>
</g>
</svg>
